<svg width="446" height="415" viewBox="0 0 446 415" fill="none" xmlns="http://www.w3.org/2000/svg">
<g clip-path="url(#clip0_1_5640)">
<rect width="893" height="844" transform="translate(0 -429)" fill="white"/>
<g clip-path="url(#clip1_1_5640)">
<path d="M597.027 -134.418C596.369 -135.147 610.477 -135.414 611.177 -135.641C615.063 -132.634 626.703 -137.938 627.015 -134.848C627.933 -125.774 630.203 -109.636 629.659 -107.853C628.171 -102.981 611.933 -99.4027 609.235 -92.1733C607.537 -88.6836 596.274 -75.3082 600.546 -61.3979C601.095 -59.4968 598.414 -47.1109 599.617 -44.4336C599.295 -35.0675 580.838 -40.6359 579.548 -33.4668C578.396 -32.1406 570.604 -27.356 570.927 -23.4933C569.841 -22.9299 556.153 -25.0037 549.593 -22.6057C542.5 -20.0126 535.643 -23.3942 530.279 -23.2365C528.474 -23.1834 520.56 -21.309 518.834 -21.3046C515.358 -21.2959 512.879 -15.6075 510.605 -14.7924C498.843 -10.5764 504.439 -4.04745 500.926 -2.95203C493.45 -0.620721 493.598 -15.585 492.457 -17.474C484.736 -30.2488 477.056 -18.4305 479.134 -22.7873C480.765 -26.2073 466.03 -20.7514 466.135 -22.4409C466.485 -28.0913 452.627 -41.3106 459.381 -53.8904C463.095 -60.8074 460.653 -69.8796 459.381 -66.4702C459.381 -66.4702 466.135 -79.0499 459.381 -79.0499C450.69 -79.0499 466.7 -89.0061 459.381 -91.6294C455.75 -92.9314 461.418 -106.793 460.727 -105.521C460.677 -105.429 460.516 -110.968 456.866 -119.365C456.554 -120.068 452.627 -122.448 457.657 -125.628C458.446 -126.128 457.701 -128.861 461.31 -128.526C462.748 -128.384 460.588 -132.272 466.906 -135.164C469.614 -136.41 472.399 -136.763 474.585 -134.96C475.674 -134.068 483.526 -134.182 483.93 -134.345C485.697 -135.012 489.229 -136.89 489.65 -137.36C490.078 -137.809 497.633 -136.175 497.81 -135.88C500.565 -131.275 519.334 -141.95 524.514 -138.786C528.247 -136.511 529.257 -138.083 529.933 -138.684C530.916 -139.559 534.422 -140.376 536.052 -137.488C537.646 -134.65 544.749 -133.782 546.228 -133.638C548.084 -131.87 552.339 -132.165 555.851 -131.278C558.453 -130.625 559.273 -128.864 561.786 -132.082C564.252 -134.181 561.706 -135.934 568.596 -133.066L572.006 -131.648L576.723 -130.362L580.314 -131.042L587.686 -134.412L597.027 -134.418Z" stroke="#A1DAF8" stroke-width="10.6665" stroke-miterlimit="22.9256"/>
<path fill-rule="evenodd" clip-rule="evenodd" d="M0.144775 -6.00024H446.626V414.315H0.144775V-6.00024Z" fill="#009EE3"/>
<path d="M0.144775 -6.00024H446.626V414.315H0.144775V-6.00024Z" stroke="#1A1A18" stroke-width="0.666267" stroke-miterlimit="22.9256"/>
<path fill-rule="evenodd" clip-rule="evenodd" d="M248.217 210.335L247.896 210.633L247.256 210.932L246.935 211.23L245.974 211.827L245.333 212.423L245.013 212.722L244.693 213.02L244.372 213.318V213.617V213.915L244.693 214.213L245.013 214.512H245.333H245.654H246.294L246.615 214.81H247.576H248.217H249.178L250.139 214.512H251.1L252.061 214.81H252.702H254.303L255.905 215.109L257.187 215.407L258.468 215.705H260.07H260.711H261.672H276.408H277.369H278.651L280.252 216.004H281.534H282.815H284.417L287.621 216.302L290.504 216.6L292.106 216.899L293.387 217.197H294.669L295.95 217.495L296.911 217.794H297.872L298.833 218.092H299.795L301.076 218.39L302.037 218.689H303.318H304.6H305.881H307.483H308.765H310.046L311.327 218.39L312.289 218.092L313.57 217.495L314.531 217.197L314.852 216.899L315.172 216.6L315.492 216.004L315.813 215.705L316.453 215.407L316.774 215.109L317.094 214.81L317.414 214.512L318.376 213.915L319.657 213.617L320.618 213.318H321.899L322.86 213.02H324.142H325.103L326.064 213.318H327.025H327.986L328.627 213.617H328.947H329.267H329.588L329.267 213.915L328.947 214.213L328.627 214.512V214.81L327.986 215.109V215.705L327.345 216.6L326.705 217.794L326.385 218.092V218.689L326.064 219.285V219.882V220.479V221.076L325.744 221.672V222.269L325.424 222.567L325.103 223.164L324.462 223.761L324.142 224.059L323.822 224.357L323.501 224.656L323.181 224.954L322.86 225.252V225.551H323.181V225.849L323.501 226.446L323.822 226.744L324.142 227.341L324.462 227.639L325.103 228.833L325.744 230.026V230.623L326.064 231.518V232.114V232.711V235.098L326.385 235.993V237.186L326.705 238.379L327.025 239.274L327.345 239.871L327.666 240.169L327.986 240.766L328.307 241.064L328.627 241.363V241.661L328.307 241.96L327.986 242.258H327.666L327.025 242.556H326.705H326.064H325.744L324.462 242.855H323.181L321.579 242.556H320.298L318.696 242.258L317.414 241.661L315.813 241.363L315.172 241.064L314.531 240.766L314.211 240.169L313.57 239.871L312.929 239.274L312.609 238.976L312.289 238.379L311.968 238.081L311.648 237.484L311.327 236.888L311.007 235.993L310.687 235.098L310.366 234.202V233.308L310.046 232.711L309.726 232.114V231.518L309.405 231.219H309.085L308.765 230.921H308.444L308.124 230.623H307.804H307.163H306.522H305.881H305.241L304.28 230.921H303.318L302.357 231.219L301.396 231.518L298.833 232.114L296.27 232.711L293.708 233.308L290.824 233.606L285.378 234.501L282.495 235.098L279.932 235.396L277.369 235.694L274.806 235.993L272.244 236.291H270.962L270.001 236.59H268.72H267.759H266.798H265.837L264.875 236.888H264.235H263.594H262.953H260.711H259.75H258.148H256.226L254.303 237.186H252.061L249.818 237.484L247.576 237.783L245.333 238.081L243.091 238.678L240.848 239.274L238.606 239.871L236.363 240.766L235.082 241.363L234.121 241.661L233.16 242.258L231.878 242.855L230.917 243.451L229.956 244.346L228.995 244.943L228.034 245.54L226.752 246.435L225.471 247.031L224.189 247.628L222.908 248.523L221.306 249.12L220.025 249.717L216.821 251.208L213.617 252.402L210.094 253.893L206.89 255.087L203.366 256.28L200.163 257.175L196.959 258.07L195.357 258.667L193.755 258.965L192.153 259.264L190.872 259.861L189.591 260.159L187.989 260.457H187.028L185.746 260.756L184.785 261.054H183.824H182.543L181.581 261.352H180.62H179.339L178.058 261.651H176.776L175.495 261.949H174.213H171.33H170.049H166.845L165.563 261.651H163.962L162.36 261.352L160.758 261.054L159.157 260.756L157.875 260.457L156.273 259.861L154.671 259.264L153.07 258.667L151.788 258.07L150.186 257.175L148.585 256.28L147.303 255.385L146.022 254.192L144.42 252.999L143.139 251.805L141.857 250.612L140.896 249.12L139.614 247.33L138.974 246.733L138.653 246.137L138.013 245.241L137.692 244.943L136.731 243.75L135.77 242.855L135.129 241.96L134.168 241.363L133.528 240.766L132.566 240.169L131.285 238.678L130.644 238.081L130.004 237.484L129.683 236.59L129.042 235.694L128.722 234.8L128.402 234.202V233.606L128.081 233.009V232.711L127.761 232.114V231.816V230.921V230.324L128.081 229.728L128.402 229.429V229.131L128.722 228.833L129.363 228.534H129.683H130.324L130.965 228.235L131.285 228.534H131.605V228.235H131.926L132.246 227.938H132.566L132.887 227.639L133.528 227.341L134.489 226.744L135.45 226.446L136.411 225.849L137.692 225.551L138.333 225.252H139.294L139.935 224.954H140.896H142.177L143.139 224.656H144.42L146.022 224.357H147.303L148.905 224.059H150.507L152.109 223.761L153.71 223.462L155.632 223.164L157.554 222.866L159.477 222.269H160.117L161.079 221.971L162.039 221.672L163.001 221.374H163.962L165.243 221.076L166.204 221.374H167.486H168.126L168.767 221.672H170.049H171.33L172.611 221.374H174.213L175.495 221.076L176.776 220.777L177.737 220.479L179.98 219.882L182.543 219.285L184.465 218.689L186.707 218.39L188.95 217.794L190.872 217.197L193.115 216.899L195.037 216.6L197.279 216.004L199.201 215.705L201.124 215.407L203.046 215.109H204.968L206.89 214.81H208.812H210.735L211.696 214.512H212.977H213.938H215.219L217.782 214.213L220.345 213.915L222.908 213.318L225.471 213.02L228.034 212.423L230.597 212.125L232.839 211.528L234.121 211.23L235.082 210.932H236.043L237.324 210.633L238.285 210.335H238.926L239.887 210.037H240.528L241.489 209.738H242.13L242.45 209.44H243.091H243.411H243.731H244.052H244.693H245.333L245.654 209.738H246.615L247.256 210.037H247.576L247.896 210.335H248.217Z" fill="black"/>
<path d="M248.217 210.335L247.896 210.633L247.256 210.932L246.935 211.23L245.974 211.827L245.333 212.423L245.013 212.722L244.693 213.02L244.372 213.318V213.617V213.915L244.693 214.213L245.013 214.512H245.333H245.654H246.294L246.615 214.81H247.576H248.217H249.178L250.139 214.512H251.1L252.061 214.81H252.702H254.303L255.905 215.109L257.187 215.407L258.468 215.705H260.07H260.711H261.672H276.408H277.369H278.651L280.252 216.004H281.534H282.815H284.417L287.621 216.302L290.504 216.6L292.106 216.899L293.387 217.197H294.669L295.95 217.495L296.911 217.794H297.872L298.833 218.092H299.795L301.076 218.39L302.037 218.689H303.318H304.6H305.881H307.483H308.765H310.046L311.327 218.39L312.289 218.092L313.57 217.495L314.531 217.197L314.852 216.899L315.172 216.6L315.492 216.004L315.813 215.705L316.453 215.407L316.774 215.109L317.094 214.81L317.414 214.512L318.376 213.915L319.657 213.617L320.618 213.318H321.899L322.86 213.02H324.142H325.103L326.064 213.318H327.025H327.986L328.627 213.617H328.947H329.267H329.588L329.267 213.915L328.947 214.213L328.627 214.512V214.81L327.986 215.109V215.705L327.345 216.6L326.705 217.794L326.385 218.092V218.689L326.064 219.285V219.882V220.479V221.076L325.744 221.672V222.269L325.424 222.567L325.103 223.164L324.462 223.761L324.142 224.059L323.822 224.357L323.501 224.656L323.181 224.954L322.86 225.252V225.551H323.181V225.849L323.501 226.446L323.822 226.744L324.142 227.341L324.462 227.639L325.103 228.833L325.744 230.026V230.623L326.064 231.518V232.114V232.711V235.098L326.385 235.993V237.186L326.705 238.379L327.025 239.274L327.345 239.871L327.666 240.169L327.986 240.766L328.307 241.064L328.627 241.363V241.661L328.307 241.96L327.986 242.258H327.666L327.025 242.556H326.705H326.064H325.744L324.462 242.855H323.181L321.579 242.556H320.298L318.696 242.258L317.414 241.661L315.813 241.363L315.172 241.064L314.531 240.766L314.211 240.169L313.57 239.871L312.929 239.274L312.609 238.976L312.289 238.379L311.968 238.081L311.648 237.484L311.327 236.888L311.007 235.993L310.687 235.098L310.366 234.202V233.308L310.046 232.711L309.726 232.114V231.518L309.405 231.219H309.085L308.765 230.921H308.444L308.124 230.623H307.804H307.163H306.522H305.881H305.241L304.28 230.921H303.318L302.357 231.219L301.396 231.518L298.833 232.114L296.27 232.711L293.708 233.308L290.824 233.606L285.378 234.501L282.495 235.098L279.932 235.396L277.369 235.694L274.806 235.993L272.244 236.291H270.962L270.001 236.59H268.72H267.759H266.797H265.836L264.875 236.888H264.235H263.594H262.953H260.711H259.75H258.148H256.226L254.303 237.186H252.061L249.818 237.484L247.576 237.783L245.333 238.081L243.091 238.678L240.848 239.274L238.606 239.871L236.363 240.766L235.082 241.363L234.121 241.661L233.159 242.258L231.878 242.855L230.917 243.451L229.956 244.346L228.995 244.943L228.034 245.54L226.752 246.435L225.471 247.031L224.189 247.628L222.908 248.523L221.306 249.12L220.025 249.717L216.821 251.208L213.617 252.402L210.094 253.893L206.89 255.087L203.366 256.28L200.163 257.175L196.959 258.07L195.357 258.667L193.755 258.965L192.153 259.264L190.872 259.861L189.591 260.159L187.989 260.457H187.028L185.746 260.756L184.785 261.054H183.824H182.543L181.581 261.352H180.62H179.339L178.058 261.651H176.776L175.495 261.949H174.213H171.33H170.049H166.845L165.563 261.651H163.962L162.36 261.352L160.758 261.054L159.157 260.756L157.875 260.457L156.273 259.861L154.671 259.264L153.07 258.667L151.788 258.07L150.186 257.175L148.585 256.28L147.303 255.385L146.022 254.192L144.42 252.999L143.139 251.805L141.857 250.612L140.896 249.12L139.614 247.33L138.974 246.733L138.653 246.137L138.013 245.241L137.692 244.943L136.731 243.75L135.77 242.855L135.129 241.96L134.168 241.363L133.528 240.766L132.566 240.169L131.285 238.678L130.644 238.081L130.004 237.484L129.683 236.59L129.042 235.694L128.722 234.8L128.402 234.202V233.606L128.081 233.009V232.711L127.761 232.114V231.816V230.921V230.324L128.081 229.728L128.402 229.429V229.131L128.722 228.833L129.363 228.534H129.683H130.324L130.965 228.235L131.285 228.534H131.605V228.235H131.926L132.246 227.938H132.566L132.887 227.639L133.528 227.341L134.489 226.744L135.45 226.446L136.411 225.849L137.692 225.551L138.333 225.252H139.294L139.935 224.954H140.896H142.177L143.139 224.656H144.42L146.022 224.357H147.303L148.905 224.059H150.507L152.109 223.761L153.71 223.462L155.632 223.164L157.554 222.866L159.477 222.269H160.117L161.079 221.971L162.039 221.672L163.001 221.374H163.962L165.243 221.076L166.204 221.374H167.486H168.126L168.767 221.672H170.049H171.33L172.611 221.374H174.213L175.495 221.076L176.776 220.777L177.737 220.479L179.98 219.882L182.543 219.285L184.465 218.689L186.707 218.39L188.95 217.794L190.872 217.197L193.115 216.899L195.037 216.6L197.279 216.004L199.201 215.705L201.124 215.407L203.046 215.109H204.968L206.89 214.81H208.812H210.735L211.696 214.512H212.977H213.938H215.219L217.782 214.213L220.345 213.915L222.908 213.318L225.471 213.02L228.034 212.423L230.597 212.125L232.839 211.528L234.121 211.23L235.082 210.932H236.043L237.324 210.633L238.285 210.335H238.926L239.887 210.037H240.528L241.489 209.738H242.13L242.45 209.44H243.091H243.411H243.731H244.052H244.693H245.333L245.654 209.738H246.615L247.256 210.037H247.576L247.896 210.335H248.217Z" stroke="black" stroke-width="0.288" stroke-miterlimit="22.9256"/>
<path fill-rule="evenodd" clip-rule="evenodd" d="M181.581 233.01C181.581 233.606 180.941 233.904 180.62 233.904C179.98 233.904 179.339 233.606 179.339 233.01C179.339 232.412 179.98 232.114 180.62 232.114C180.941 232.114 181.581 232.412 181.581 233.01Z" fill="white"/>
<path d="M181.581 233.01C181.581 233.606 180.941 233.904 180.62 233.904C179.98 233.904 179.339 233.606 179.339 233.01C179.339 232.412 179.98 232.114 180.62 232.114C180.941 232.114 181.581 232.412 181.581 233.01Z" stroke="black" stroke-width="0.288" stroke-miterlimit="22.9256"/>
<path fill-rule="evenodd" clip-rule="evenodd" d="M134.489 228.833L134.809 229.131H135.129H135.45H135.77H136.411H137.052L138.013 229.429H138.653H139.614H140.576L141.537 229.728H143.459L145.701 230.026L150.186 230.324L152.429 230.623H154.671L155.632 230.921H156.594H157.234H158.195H159.157H159.797H160.438H160.758H162.681H163.962L165.563 231.219L167.165 231.518L168.447 231.816L169.728 232.412L170.689 232.711L171.971 233.308L172.932 233.904L173.893 234.202L174.534 234.8L175.495 235.098L176.135 235.694H176.776L177.096 235.993H177.737H184.465H184.785V236.291L185.106 236.59L185.426 236.888L186.067 237.484L186.387 238.081L187.028 238.678L187.668 239.274L188.629 239.871L189.27 240.468L190.872 241.661L191.833 242.258L192.474 242.855L193.435 243.451L194.396 243.75L195.037 244.048L195.998 244.346H196.639L197.6 244.645L199.201 244.943H200.803H201.764H202.405H203.046H203.687L204.327 244.645H204.968L205.609 244.346L205.929 244.048L206.249 243.75H205.929V243.451H205.609L205.288 243.153H204.968L204.327 242.855H203.687L203.366 242.556L202.726 242.258L202.085 241.661L201.444 241.363L200.803 240.766L200.483 240.169L199.842 239.573L200.163 239.274H200.483H200.803H201.124L201.444 238.976H202.405H203.687H204.968L206.249 238.678H208.812L210.414 238.379H211.696H212.977L213.938 238.081L215.219 237.783H215.539H215.86L216.181 237.484H216.821L217.462 237.186H218.102L218.744 236.888L219.384 236.59H220.025L220.986 236.291L222.908 235.694L224.83 235.396L227.073 234.8L228.995 234.501L233.48 233.606L235.402 233.009L237.645 232.711L239.567 232.412H240.207L241.168 232.114H242.13H242.77L243.411 231.816H244.052H244.693H245.333H246.294H246.935H247.896L248.857 231.518H250.779H253.022H255.265L257.507 231.219H260.07H262.312L264.235 230.921H266.477H267.438H268.399H269.04H270.001L270.642 230.623H271.282H271.923H272.244H272.564H272.884H273.204H273.525L274.166 230.324H274.486H275.127H275.767H276.728L277.369 230.026H278.331H279.291L281.213 229.728H283.136L285.378 229.429L289.863 229.131L291.785 228.833L293.708 228.534H294.669H295.63L296.591 228.235H297.232L297.872 227.938H298.513L299.154 227.639H299.795H300.115L300.435 227.341H300.756H301.076H301.396V227.639V227.938L301.076 228.235V228.534H300.756L300.435 228.833L300.115 229.131L299.795 229.429L299.154 229.728L298.833 230.026H298.193L297.552 230.324L296.911 230.623L295.95 230.921L295.309 231.219L294.348 231.518L293.708 231.816L292.746 232.114H291.785L290.504 232.412L289.543 232.711L288.582 233.009H287.3L286.019 233.308L283.456 233.606L280.893 233.904L275.767 234.202L273.204 234.501L270.642 234.8H268.399L265.836 235.098H263.594L261.672 235.396H259.75H258.788H257.827H257.187H256.226H255.585L254.944 235.694H254.624H253.983H253.342H252.381H251.1H250.139L248.857 235.993L247.576 236.291H245.974L243.091 236.888L241.809 237.186L240.207 237.783L238.926 238.081L237.645 238.379L236.363 238.976L235.402 239.573L234.121 239.871L233.48 240.468L232.519 241.064L231.878 241.661L229.956 243.153L227.713 244.346L225.471 245.54L223.228 246.733L220.986 247.927L218.423 248.822L215.86 250.015L213.297 251.208L211.055 252.103L208.492 252.999L206.249 253.893L204.007 254.789L201.764 255.385L200.803 255.684L199.842 255.982L198.881 256.28L197.92 256.579L196.318 257.175L194.396 257.474L192.474 258.07L190.231 258.369L188.309 258.966L186.067 259.264L184.144 259.562L181.902 259.861L179.659 260.159L177.417 260.457L175.174 260.756H173.252H171.01H169.087H167.486L165.563 260.457H163.962L162.36 259.861L160.758 259.562L159.157 259.264L157.234 258.667L155.632 258.07L154.031 257.175L152.429 256.579L150.827 255.684L149.225 254.789L147.623 253.893L146.022 252.7L144.74 251.805L143.779 250.612L142.498 249.418L141.537 248.225L140.896 247.031L139.935 245.838L139.294 244.645L138.333 243.75L137.692 242.855L137.052 242.258L136.091 241.363L135.45 240.766L134.809 240.169L134.168 239.573L133.848 239.274L133.207 238.678L132.566 238.379L132.246 238.081L131.605 237.783L131.285 237.484L130.965 237.186L130.644 236.59L130.324 236.291L130.004 235.694L129.683 234.8L129.363 233.606L129.042 232.412V232.114V231.518V231.219L128.722 230.921V230.623H129.042L129.683 230.921H130.004H130.965H131.605L132.566 231.219H133.528L134.489 231.518H135.77H137.052L138.333 231.816L141.216 232.114L144.1 232.412L146.983 232.711L149.546 233.009L151.148 233.308H152.429L153.71 233.606H154.671H155.953L156.914 233.904H157.875H158.516L159.477 234.202H159.797H160.438H160.758H161.399H162.36H163.641H164.602L165.884 234.501L167.165 234.8L167.486 235.098L168.126 235.396L168.767 235.694L169.408 235.993L170.369 236.888L171.65 237.783L172.611 238.379L173.893 238.976L174.854 239.573L175.815 240.169H176.135L176.776 240.468H177.096H177.417V240.766L177.737 240.468L177.417 240.169V239.871L177.096 239.573V238.976L176.776 238.678L176.135 238.379L175.815 237.783L174.854 236.888L173.893 235.993L173.252 235.396L172.611 235.098L171.971 234.8L171.33 234.202L170.369 233.904L169.408 233.606L167.806 233.009L166.204 232.412L164.282 232.114H162.681L161.399 231.816H160.117H158.516H157.875H156.273H154.671L153.07 231.518H151.468L147.944 231.219L146.022 230.921H144.42L142.818 230.623H141.537L140.896 230.324H140.255H139.614H139.294H138.653L138.333 230.026H138.013L135.129 229.728H134.489H133.848H133.528L134.489 228.833Z" fill="white"/>
<path d="M134.489 228.833L134.809 229.131H135.129H135.45H135.77H136.411H137.052L138.013 229.429H138.653H139.614H140.576L141.537 229.728H143.459L145.701 230.026L150.186 230.324L152.429 230.623H154.671L155.632 230.921H156.594H157.234H158.195H159.157H159.797H160.438H160.758H162.681H163.962L165.563 231.219L167.165 231.518L168.447 231.816L169.728 232.412L170.689 232.711L171.971 233.308L172.932 233.904L173.893 234.202L174.534 234.8L175.495 235.098L176.135 235.694H176.776L177.096 235.993H177.737H184.465H184.785V236.291L185.106 236.59L185.426 236.888L186.067 237.484L186.387 238.081L187.028 238.678L187.668 239.274L188.629 239.871L189.27 240.468L190.872 241.661L191.833 242.258L192.474 242.855L193.435 243.451L194.396 243.75L195.037 244.048L195.998 244.346H196.639L197.6 244.645L199.201 244.943H200.803H201.764H202.405H203.046H203.687L204.327 244.645H204.968L205.609 244.346L205.929 244.048L206.249 243.75H205.929V243.451H205.609L205.288 243.153H204.968L204.327 242.855H203.687L203.366 242.556L202.726 242.258L202.085 241.661L201.444 241.363L200.803 240.766L200.483 240.169L199.842 239.573L200.163 239.274H200.483H200.803H201.124L201.444 238.976H202.405H203.687H204.968L206.249 238.678H208.812L210.414 238.379H211.696H212.977L213.938 238.081L215.219 237.783H215.539H215.86L216.181 237.484H216.821L217.462 237.186H218.102L218.744 236.888L219.384 236.59H220.025L220.986 236.291L222.908 235.694L224.83 235.396L227.073 234.8L228.995 234.501L233.48 233.606L235.402 233.009L237.645 232.711L239.567 232.412H240.207L241.168 232.114H242.13H242.77L243.411 231.816H244.052H244.693H245.333H246.294H246.935H247.896L248.857 231.518H250.779H253.022H255.265L257.507 231.219H260.07H262.312L264.235 230.921H266.477H267.438H268.399H269.04H270.001L270.642 230.623H271.282H271.923H272.244H272.564H272.884H273.204H273.525L274.166 230.324H274.486H275.127H275.767H276.728L277.369 230.026H278.331H279.291L281.213 229.728H283.136L285.378 229.429L289.863 229.131L291.785 228.833L293.708 228.534H294.669H295.63L296.591 228.235H297.232L297.872 227.938H298.513L299.154 227.639H299.795H300.115L300.435 227.341H300.756H301.076H301.396V227.639V227.938L301.076 228.235V228.534H300.756L300.435 228.833L300.115 229.131L299.795 229.429L299.154 229.728L298.833 230.026H298.193L297.552 230.324L296.911 230.623L295.95 230.921L295.309 231.219L294.348 231.518L293.708 231.816L292.746 232.114H291.785L290.504 232.412L289.543 232.711L288.582 233.009H287.3L286.019 233.308L283.456 233.606L280.893 233.904L275.767 234.202L273.204 234.501L270.642 234.8H268.399L265.836 235.098H263.594L261.672 235.396H259.75H258.788H257.827H257.187H256.226H255.585L254.944 235.694H254.624H253.983H253.342H252.381H251.1H250.139L248.857 235.993L247.576 236.291H245.974L243.091 236.888L241.809 237.186L240.207 237.783L238.926 238.081L237.645 238.379L236.363 238.976L235.402 239.573L234.121 239.871L233.48 240.468L232.519 241.064L231.878 241.661L229.956 243.153L227.713 244.346L225.471 245.54L223.228 246.733L220.986 247.927L218.423 248.822L215.86 250.015L213.297 251.208L211.055 252.103L208.492 252.999L206.249 253.893L204.007 254.789L201.764 255.385L200.803 255.684L199.842 255.982L198.881 256.28L197.92 256.579L196.318 257.175L194.396 257.474L192.474 258.07L190.231 258.369L188.309 258.966L186.067 259.264L184.144 259.562L181.902 259.861L179.659 260.159L177.417 260.457L175.174 260.756H173.252H171.01H169.087H167.486L165.563 260.457H163.962L162.36 259.861L160.758 259.562L159.157 259.264L157.234 258.667L155.632 258.07L154.031 257.175L152.429 256.579L150.827 255.684L149.225 254.789L147.623 253.893L146.022 252.7L144.74 251.805L143.779 250.612L142.498 249.418L141.537 248.225L140.896 247.031L139.935 245.838L139.294 244.645L138.333 243.75L137.692 242.855L137.052 242.258L136.091 241.363L135.45 240.766L134.809 240.169L134.168 239.573L133.848 239.274L133.207 238.678L132.566 238.379L132.246 238.081L131.605 237.783L131.285 237.484L130.965 237.186L130.644 236.59L130.324 236.291L130.004 235.694L129.683 234.8L129.363 233.606L129.042 232.412V232.114V231.518V231.219L128.722 230.921V230.623H129.042L129.683 230.921H130.004H130.965H131.605L132.566 231.219H133.528L134.489 231.518H135.77H137.052L138.333 231.816L141.216 232.114L144.1 232.412L146.983 232.711L149.546 233.009L151.148 233.308H152.429L153.71 233.606H154.671H155.953L156.914 233.904H157.875H158.516L159.477 234.202H159.797H160.438H160.758H161.399H162.36H163.641H164.602L165.884 234.501L167.165 234.8L167.486 235.098L168.126 235.396L168.767 235.694L169.408 235.993L170.369 236.888L171.65 237.783L172.611 238.379L173.893 238.976L174.854 239.573L175.815 240.169H176.135L176.776 240.468H177.096H177.417V240.766L177.737 240.468L177.417 240.169V239.871L177.096 239.573V238.976L176.776 238.678L176.135 238.379L175.815 237.783L174.854 236.888L173.893 235.993L173.252 235.396L172.611 235.098L171.971 234.8L171.33 234.202L170.369 233.904L169.408 233.606L167.806 233.009L166.204 232.412L164.282 232.114H162.681L161.399 231.816H160.117H158.516H157.875H156.273H154.671L153.07 231.518H151.468L147.944 231.219L146.022 230.921H144.42L142.818 230.623H141.537L140.896 230.324H140.255H139.614H139.294H138.653L138.333 230.026H138.013L135.129 229.728H134.489H133.848H133.528L134.489 228.833Z" stroke="black" stroke-width="0.288" stroke-miterlimit="22.9256"/>
<path d="M142.185 36.0588C142.185 32.9984 142.781 30.1754 143.975 27.591C145.167 25.0064 146.823 22.7845 148.929 20.9253C151.022 19.0663 153.469 17.6265 156.256 16.6062C159.032 15.586 161.965 15.0645 165.045 15.0305C169.281 15.0305 173.213 16.0282 176.852 18.0234C180.492 20.0299 183.377 22.7167 185.507 26.1058C187.637 29.4955 188.708 33.1454 188.708 37.0679C188.708 41.4321 187.661 45.2184 185.58 48.4492C183.486 51.6798 180.686 54.14 177.156 55.829C173.626 57.5181 169.732 58.3569 165.495 58.3569C161.113 58.3569 157.157 57.3591 153.615 55.3528C150.073 53.3463 147.298 50.6371 145.277 47.2137C143.269 43.79 142.234 40.072 142.185 36.0588ZM147.663 35.5036C147.663 38.8477 148.405 42.0558 149.878 45.1391C151.363 48.211 153.457 50.7052 156.159 52.6209C158.861 54.5366 161.929 55.5228 165.349 55.5684C165.471 55.5116 165.556 55.4777 165.629 55.455C165.702 55.4435 165.751 55.4321 165.775 55.4321C169.159 55.3412 172.154 54.6048 174.77 53.2105C177.376 51.8273 179.396 49.7642 180.845 47.0433C182.293 44.323 183.012 40.99 183.012 37.0679C183.012 34.6985 182.586 32.3862 181.721 30.1527C180.857 27.9197 179.64 25.9134 178.069 24.1561C176.487 22.3878 174.625 20.982 172.458 19.9277C170.291 18.8848 167.979 18.3635 165.483 18.3635C162.002 18.3635 158.934 19.1114 156.256 20.5965C153.579 22.0815 151.509 24.122 150.036 26.718C148.563 29.3025 147.772 32.2388 147.663 35.5036Z" fill="#1A1A18"/>
<path d="M205.141 26.5933C202.572 26.6499 200.673 28.3505 199.444 31.6834C198.215 35.0159 197.557 38.8136 197.472 43.0646C197.472 50.4896 199.566 54.2077 203.753 54.2077C205.956 54.0377 207.697 53.3915 208.987 52.2354C210.265 51.0904 211.166 49.9115 211.677 48.6758C212.189 47.4515 212.444 46.6468 212.444 46.2501H214.428C214.428 46.9757 214.1 48.2566 213.442 50.1156C212.785 51.9746 211.544 53.7429 209.705 55.4321C207.867 57.1099 205.311 57.9488 202.012 57.9488C199.602 57.9036 197.643 57.3481 196.133 56.2938C194.636 55.228 193.553 53.8453 192.907 52.1336C192.262 50.4216 191.909 48.5058 191.848 46.3747C191.848 43.8808 192.104 41.3756 192.616 38.8703C193.126 36.3765 193.991 34.0072 195.196 31.7742C196.413 29.5297 198.032 27.7383 200.065 26.3781C202.098 25.029 204.557 24.3487 207.417 24.3487C209.279 24.3487 211.227 24.8705 213.248 25.9134V34.0187H208.865V32.0348C208.865 28.4071 207.624 26.5933 205.141 26.5933Z" fill="#1A1A18"/>
<path d="M238.676 45.8306L240.94 46.1139C240.94 47.055 240.635 48.438 240.039 50.2516C239.431 52.0769 238.201 53.8111 236.326 55.466C234.452 57.1211 231.798 57.9488 228.366 57.9488C225.883 57.9488 223.837 57.3481 222.231 56.1349C220.624 54.9337 219.456 53.3238 218.725 51.2944C217.995 49.2768 217.63 47.0323 217.63 44.5496C217.776 41.9421 218.08 39.4939 218.555 37.2153C219.03 34.9481 219.772 32.828 220.758 30.8671C221.756 28.8945 223.071 27.3191 224.714 26.1175C226.345 24.9157 228.317 24.2809 230.63 24.2127C232.638 24.2127 234.257 24.5868 235.499 25.3463C236.728 26.1059 237.617 27.1377 238.152 28.4298C238.688 29.7221 238.956 31.1956 238.956 32.851C238.956 34.2679 238.663 36.161 238.079 38.553C233.296 40.038 228.244 41.0694 222.949 41.6248C222.925 41.6248 222.827 42.4185 222.669 44.0056C222.949 50.9659 225.505 54.548 230.338 54.7521C231.823 54.7521 233.21 54.3666 234.501 53.5846C235.779 52.8024 236.801 51.7591 237.544 50.4672C238.298 49.1747 238.676 47.8145 238.676 46.3861V45.8306ZM223.241 39.4369L229.681 38.553C231.202 38.2807 232.395 37.5552 233.235 36.3765C234.075 35.2088 234.501 33.8483 234.501 32.2955C234.501 30.5384 234.27 29.0533 233.795 27.8516C233.332 26.6498 232.273 26.0492 230.63 26.0492C228.183 26.1058 226.345 27.6702 225.128 30.7539C223.899 33.8258 223.229 36.6143 223.095 39.1085C223.156 39.1762 223.193 39.2558 223.217 39.3125C223.229 39.3691 223.241 39.4143 223.241 39.4369Z" fill="#1A1A18"/>
<path d="M269.849 53.947C271.225 53.5278 272.466 53.233 273.574 53.0631L274.451 54.6158C272.004 55.1147 270.275 55.5454 269.277 55.8969C268.267 56.2483 266.66 56.9737 264.445 58.0848C264.36 58.1755 264.153 58.2094 263.861 58.2094C263.666 58.2094 263.58 57.9488 263.58 57.4048C264.116 54.2644 264.469 51.9632 264.64 50.5353C264.798 49.0954 264.871 47.3949 264.871 45.434V41.9652L258.602 51.4081C257.373 53.3012 255.839 54.8654 253.977 56.1008C252.114 57.3367 250.215 57.9488 248.292 57.9488C245.529 57.824 244.141 55.3754 244.141 50.592C244.299 47.769 245.066 44.8103 246.466 41.6929C247.866 38.5871 249.582 35.7077 251.615 33.0662C253.66 30.4361 255.741 28.2937 257.872 26.6614C260.002 25.029 261.803 24.2127 263.276 24.2127C263.714 24.2127 264.213 24.3036 264.761 24.485C265.309 24.6665 265.771 24.7568 266.125 24.7568L271.31 24.2127C271.055 27.0695 270.653 30.9915 270.142 35.9796C269.618 40.9675 269.277 44.3004 269.119 45.9666C268.961 47.6446 268.863 49.2313 268.815 50.7389C268.961 52.8702 269.302 53.947 269.849 53.947ZM264.007 27.0014C263.788 26.8654 263.519 26.7973 263.203 26.7973C262.156 26.7973 260.866 27.4324 259.345 28.6904C257.811 29.9488 256.301 31.6267 254.792 33.7239C253.295 35.8211 252.017 38.1107 250.982 40.6046C249.947 43.0988 249.351 45.5018 249.193 47.8145C249.193 48.1769 249.132 48.5058 249.022 48.7781C249.254 51.5325 250.349 52.9157 252.321 52.9157C253.94 52.8702 255.596 51.8839 257.275 49.9683C258.967 48.0411 260.489 45.7287 261.852 43.008C263.215 40.2871 264.274 37.7367 265.017 35.3674C265.455 34.1886 265.674 32.6129 265.674 30.6743C265.674 28.6904 265.114 27.4662 264.007 27.0014Z" fill="#1A1A18"/>
<path d="M299.063 58.629L297.907 57.8014C299.599 52.0655 300.548 42.8154 300.743 30.062C297.359 33.8031 295.058 36.3875 293.841 37.8275C292.611 39.2557 291.322 40.9901 289.958 43.042C288.595 45.0826 287.45 47.3041 286.513 49.719C285.564 52.122 284.907 54.7747 284.529 57.6766H280.074L281.815 28.8267L276.13 30.062V27.3983C280.512 27.3983 284.456 26.344 287.949 24.2127L285.479 45.8306C286.988 43.1894 288.558 40.7519 290.177 38.5074C291.808 36.2743 293.585 34.0864 295.509 31.9441C297.42 29.8013 299.66 27.4776 302.204 24.9608H306.209L304.468 53.7996L309.726 53.1874V55.5568C306.087 55.6816 302.532 56.7019 299.063 58.629Z" fill="#1A1A18"/>
<path d="M195.64 101.502C193.79 101.502 192.183 102.08 190.808 103.248C189.432 104.404 188.714 105.821 188.641 107.476C188.641 110.854 190.589 113.461 194.496 115.298L198.951 117.338C201.885 118.653 204.197 120.535 205.89 122.984C207.581 125.443 208.433 128.028 208.433 130.737C208.433 133.061 207.983 135.147 207.07 137.006C206.157 138.854 204.757 140.316 202.846 141.416C200.948 142.515 198.549 143.082 195.64 143.128C193.705 143.128 191.514 142.754 189.055 141.994C186.596 141.235 185.026 140.645 184.332 140.214C184.332 139.659 184.356 138.865 184.405 137.856C184.454 136.836 184.478 136.054 184.478 135.51C184.478 133.186 184.332 130.987 184.028 128.912H187.18V131.712C187.18 134.036 188.008 136.077 189.664 137.834C191.319 139.591 193.364 140.475 195.798 140.475C198.148 140.475 200.132 139.772 201.751 138.378C203.382 136.972 204.197 135.136 204.197 132.857C204.063 129.241 201.727 126.328 197.174 124.083L192.073 121.431C186.803 118.608 184.174 114.799 184.174 110.004C184.32 107.748 184.904 105.832 185.951 104.245C186.986 102.658 188.361 101.479 190.053 100.697C191.745 99.9145 193.656 99.5294 195.798 99.5294C197.004 99.5294 199.097 99.8013 202.08 100.346C202.615 100.346 202.968 100.391 203.163 100.482H204.489V108.711H201.629V108.167C201.629 107.283 201.483 106.342 201.179 105.333C200.874 104.313 200.278 103.429 199.377 102.658C198.477 101.887 197.235 101.502 195.64 101.502Z" fill="#1A1A18"/>
<path d="M233.058 130.193L235.322 130.477C235.322 131.418 235.018 132.801 234.422 134.614C233.813 136.44 232.583 138.174 230.709 139.829C228.834 141.484 226.181 142.312 222.748 142.312C220.265 142.312 218.22 141.711 216.613 140.498C215.006 139.296 213.838 137.686 213.108 135.657C212.377 133.64 212.012 131.395 212.012 128.912C212.158 126.305 212.463 123.857 212.937 121.578C213.412 119.311 214.154 117.191 215.14 115.23C216.139 113.257 217.453 111.682 219.096 110.48C220.727 109.278 222.699 108.644 225.012 108.575C227.021 108.575 228.64 108.95 229.881 109.709C231.11 110.469 231.999 111.5 232.535 112.792C233.071 114.085 233.338 115.558 233.338 117.214C233.338 118.631 233.046 120.524 232.462 122.916C227.678 124.401 222.627 125.432 217.332 125.987C217.307 125.987 217.21 126.781 217.052 128.368C217.332 135.329 219.888 138.911 224.72 139.115C226.205 139.115 227.593 138.729 228.883 137.947C230.161 137.165 231.184 136.122 231.926 134.83C232.681 133.537 233.058 132.177 233.058 130.749V130.193ZM217.624 123.799L224.063 122.916C225.584 122.643 226.777 121.918 227.617 120.739C228.457 119.572 228.883 118.211 228.883 116.658C228.883 114.901 228.652 113.416 228.177 112.214C227.715 111.013 226.656 110.412 225.012 110.412C222.566 110.469 220.727 112.033 219.51 115.116C218.281 118.188 217.611 120.977 217.477 123.471C217.538 123.539 217.575 123.618 217.599 123.675C217.612 123.732 217.624 123.777 217.624 123.799Z" fill="#1A1A18"/>
<path d="M264.232 138.31C265.607 137.89 266.848 137.596 267.956 137.426L268.833 138.978C266.386 139.477 264.657 139.908 263.659 140.259C262.649 140.611 261.042 141.336 258.827 142.447C258.742 142.538 258.535 142.572 258.243 142.572C258.048 142.572 257.963 142.311 257.963 141.767C258.498 138.627 258.851 136.326 259.022 134.898C259.18 133.458 259.253 131.757 259.253 129.797V126.328L252.984 135.771C251.755 137.664 250.221 139.228 248.359 140.463C246.496 141.699 244.598 142.311 242.674 142.311C239.911 142.187 238.523 139.738 238.523 134.954C238.682 132.131 239.448 129.173 240.849 126.056C242.248 122.95 243.965 120.07 245.997 117.429C248.043 114.799 250.124 112.656 252.254 111.024C254.384 109.392 256.186 108.575 257.658 108.575C258.097 108.575 258.596 108.666 259.144 108.848C259.691 109.029 260.154 109.119 260.507 109.119L265.692 108.575C265.437 111.432 265.035 115.354 264.524 120.342C264 125.33 263.659 128.663 263.501 130.329C263.343 132.007 263.246 133.594 263.197 135.102C263.343 137.233 263.684 138.31 264.232 138.31ZM258.389 111.364C258.17 111.228 257.902 111.16 257.586 111.16C256.539 111.16 255.248 111.795 253.727 113.053C252.193 114.311 250.684 115.989 249.174 118.087C247.677 120.184 246.399 122.473 245.364 124.967C244.33 127.461 243.733 129.864 243.575 132.177C243.575 132.54 243.514 132.869 243.405 133.141C243.636 135.895 244.731 137.278 246.703 137.278C248.322 137.233 249.978 136.247 251.658 134.331C253.35 132.404 254.871 130.091 256.235 127.371C257.598 124.65 258.656 122.099 259.399 119.73C259.838 118.551 260.057 116.975 260.057 115.037C260.057 113.053 259.496 111.829 258.389 111.364Z" fill="#1A1A18"/>
</g>
</g>
<defs>
<clipPath id="clip0_1_5640">
<rect width="893" height="844" fill="white" transform="translate(0 -429)"/>
</clipPath>
<clipPath id="clip1_1_5640">
<rect width="892.855" height="843.706" fill="white" transform="translate(0.144775 -428.706)"/>
</clipPath>
</defs>
</svg>
