<svg width="446" height="429" viewBox="0 0 446 429" fill="none" xmlns="http://www.w3.org/2000/svg">
<g clip-path="url(#clip0_1_5640)">
<rect width="893" height="844" fill="white"/>
<g clip-path="url(#clip1_1_5640)">
<path d="M597.027 294.582C596.369 293.853 610.477 293.586 611.177 293.359C615.063 296.366 626.703 291.062 627.015 294.152C627.933 303.226 630.203 319.364 629.659 321.147C628.171 326.019 611.933 329.597 609.235 336.827C607.537 340.316 596.274 353.692 600.546 367.602C601.095 369.503 598.414 381.889 599.617 384.566C599.295 393.932 580.838 388.364 579.548 395.533C578.396 396.859 570.604 401.644 570.927 405.507C569.841 406.07 556.153 403.996 549.593 406.394C542.5 408.987 535.643 405.606 530.279 405.763C528.474 405.817 520.56 407.691 518.834 407.695C515.358 407.704 512.879 413.393 510.605 414.208C498.843 418.424 504.439 424.953 500.926 426.048C493.45 428.379 493.598 413.415 492.457 411.526C484.736 398.751 477.056 410.57 479.134 406.213C480.765 402.793 466.03 408.249 466.135 406.559C466.485 400.909 452.627 387.689 459.381 375.11C463.095 368.193 460.653 359.12 459.381 362.53C459.381 362.53 466.135 349.95 459.381 349.95C450.69 349.95 466.7 339.994 459.381 337.371C455.75 336.069 461.418 322.207 460.727 323.479C460.677 323.571 460.516 318.032 456.866 309.635C456.554 308.932 452.627 306.552 457.657 303.372C458.446 302.872 457.701 300.139 461.31 300.474C462.748 300.616 460.588 296.728 466.906 293.836C469.614 292.59 472.399 292.237 474.585 294.04C475.674 294.932 483.526 294.818 483.93 294.655C485.697 293.988 489.229 292.11 489.65 291.64C490.078 291.191 497.633 292.825 497.81 293.12C500.565 297.725 519.334 287.05 524.514 290.214C528.247 292.489 529.257 290.917 529.933 290.316C530.916 289.441 534.422 288.624 536.052 291.512C537.646 294.35 544.749 295.218 546.228 295.362C548.084 297.13 552.339 296.835 555.851 297.722C558.453 298.375 559.273 300.136 561.786 296.918C564.252 294.819 561.706 293.066 568.596 295.934L572.006 297.352L576.723 298.638L580.314 297.958L587.686 294.588L597.027 294.582Z" stroke="#A1DAF8" stroke-width="10.6665" stroke-miterlimit="22.9256"/>
<path fill-rule="evenodd" clip-rule="evenodd" d="M0.144775 423H446.626V843.315H0.144775V423Z" fill="#009EE3"/>
<path d="M0.144775 423H446.626V843.315H0.144775V423Z" stroke="#1A1A18" stroke-width="0.666267" stroke-miterlimit="22.9256"/>
<path fill-rule="evenodd" clip-rule="evenodd" d="M0.144775 0.294434H446.626V428.48H0.144775V0.294434Z" fill="#009EE3"/>
<path d="M0.144775 0.294434H446.626V428.48H0.144775V0.294434Z" stroke="#1A1A18" stroke-width="0.666267" stroke-miterlimit="22.9256"/>
<path d="M178.368 369.723L175.811 369.598V360.62C181.24 360.96 187.996 361.21 196.054 361.368C204.721 361.21 212 360.96 217.879 360.62V369.587H215.323C215.323 368.068 215.25 366.98 215.104 366.311C214.97 365.642 214.581 365.132 213.96 364.803C213.339 364.463 212.305 364.293 210.868 364.293H200.424V391.567C200.424 393.869 200.558 395.58 200.826 396.691C201.093 397.791 201.69 398.596 202.627 399.083C203.552 399.571 205.062 399.809 207.143 399.809H209.845V402.178C204.21 401.815 200.022 401.634 197.284 401.634C195.007 401.634 191.209 401.815 185.89 402.178V399.661H189.164C191.197 399.661 192.609 399.446 193.401 399.015C194.18 398.584 194.63 397.995 194.739 397.247C194.861 396.499 194.947 394.742 195.019 391.987V364.146H182.019C180.498 364.146 179.499 364.508 179.037 365.234C178.575 365.959 178.307 367.116 178.221 368.714C178.319 368.975 178.368 369.315 178.368 369.723Z" fill="#1A1A18"/>
<path d="M221.178 396.057C221.361 393.483 221.507 390.139 221.641 386.024C221.774 381.909 221.933 378.565 222.128 375.992C222.42 372.557 222.773 369.508 223.186 366.832C223.6 364.157 224.099 361.482 224.684 358.784C225.268 356.097 225.95 353.206 226.716 350.1C227.484 347.006 228.202 344.001 228.847 341.1L229.577 338.027H237.538V340.136C237.465 340.159 237.185 340.272 236.686 340.465C236.199 340.657 235.627 341.122 234.969 341.837C234.312 342.562 233.606 343.786 232.851 345.498C232.097 347.221 231.427 349.42 230.831 352.118C230.259 354.952 229.808 357.265 229.492 359.022C229.187 360.779 228.883 362.661 228.616 364.678C228.335 366.685 228.128 368.521 227.958 370.177C227.8 371.832 227.605 374.076 227.386 376.933L226.583 388.099C226.644 388.042 227.057 387.407 227.824 386.205C228.591 384.993 229.419 383.712 230.32 382.34C231.22 380.957 232.157 379.597 233.156 378.236C234.787 376.003 237.538 373.124 241.421 369.598L248.785 369.258V379.188C248.785 384.358 247.312 389.278 244.354 393.925C241.397 398.584 237.477 403.198 232.572 407.755L227.386 412.789L225.256 410.544C228.007 408.776 230.454 406.735 232.596 404.423C234.75 402.11 236.588 399.582 238.11 396.839C239.644 394.095 240.8 391.227 241.603 388.212C242.395 385.197 242.796 382.147 242.796 379.041C242.796 376.525 242.48 374.847 241.847 374.008C241.725 373.838 241.542 373.747 241.336 373.747C240.289 373.747 238.548 375.141 236.114 377.93C233.679 380.719 231.391 384.063 229.236 387.963C227.094 391.862 225.767 395.444 225.268 398.709L224.83 401.634L220.594 402.994C220.861 400.614 221.056 398.301 221.178 396.057Z" fill="#1A1A18"/>
<path d="M273.13 390.468L275.394 390.751C275.394 391.692 275.09 393.075 274.493 394.889C273.885 396.714 272.655 398.449 270.781 400.103C268.906 401.758 266.253 402.586 262.82 402.586C260.337 402.586 258.292 401.985 256.685 400.772C255.078 399.571 253.91 397.961 253.179 395.932C252.449 393.914 252.084 391.67 252.084 389.187C252.23 386.58 252.534 384.131 253.009 381.853C253.484 379.586 254.226 377.465 255.212 375.505C256.21 373.532 257.525 371.957 259.168 370.755C260.799 369.553 262.771 368.918 265.084 368.85C267.092 368.85 268.711 369.224 269.953 369.984C271.182 370.743 272.071 371.775 272.607 373.067C273.142 374.36 273.41 375.833 273.41 377.488C273.41 378.905 273.118 380.798 272.533 383.19C267.75 384.675 262.698 385.707 257.403 386.262C257.379 386.262 257.282 387.056 257.123 388.643C257.403 395.603 259.959 399.185 264.792 399.39C266.277 399.39 267.665 399.004 268.955 398.222C270.233 397.44 271.255 396.397 271.998 395.104C272.753 393.812 273.13 392.452 273.13 391.023V390.468ZM257.696 384.074L264.135 383.19C265.656 382.918 266.849 382.193 267.689 381.014C268.529 379.846 268.955 378.486 268.955 376.933C268.955 375.176 268.724 373.691 268.249 372.489C267.786 371.287 266.727 370.687 265.084 370.687C262.637 370.743 260.799 372.307 259.582 375.391C258.353 378.463 257.683 381.252 257.549 383.746C257.61 383.813 257.647 383.893 257.671 383.95C257.683 384.007 257.696 384.052 257.696 384.074Z" fill="#1A1A18"/>
<path fill-rule="evenodd" clip-rule="evenodd" d="M231.852 108.047L251.282 109.692L269.299 114.956L285.55 123.182L299.682 134.039L311.34 147.199L320.172 162.333L325.825 179.113L327.944 197.208L325.825 214.975L320.172 231.754L311.34 246.888L299.682 260.048L285.55 270.906L269.299 279.131L251.282 284.395L231.852 286.04L212.774 284.395L194.757 279.131L178.506 270.906L164.374 260.048L152.716 246.888L143.884 231.754L138.231 214.975L136.112 197.208L138.231 179.113L143.884 162.333L152.716 147.199L164.374 134.039L178.506 123.182L194.757 114.956L212.774 109.692L231.852 108.047Z" fill="#009EE3"/>
<path d="M231.852 108.047L251.282 109.692L269.299 114.956L285.55 123.182L299.682 134.039L311.34 147.199L320.172 162.333L325.825 179.113L327.944 197.208L325.825 214.975L320.172 231.754L311.34 246.888L299.682 260.048L285.55 270.906L269.299 279.131L251.282 284.395L231.852 286.04L212.774 284.395L194.757 279.131L178.506 270.906L164.374 260.048L152.716 246.888L143.884 231.754L138.231 214.975L136.112 197.208L138.231 179.113L143.884 162.333L152.716 147.199L164.374 134.039L178.506 123.182L194.757 114.956L212.774 109.692L231.852 108.047Z" stroke="black" stroke-width="0.288" stroke-miterlimit="22.9256"/>
<path fill-rule="evenodd" clip-rule="evenodd" d="M263.647 197.208L263.294 192.602L262.234 188.325L260.467 184.048L257.995 180.1L254.462 176.481L250.929 173.191L246.689 170.888L242.097 168.914L237.151 167.597L232.205 166.94L227.259 167.268L222.313 167.927L217.367 169.572L213.128 171.546L208.888 174.178L205.355 177.468L202.529 181.416L200.056 185.364L198.29 189.641L197.583 194.247V198.853L198.29 203.459L199.703 207.737L201.822 212.014L204.295 215.962L207.828 219.252L211.714 222.213L215.954 224.516L220.546 226.161L225.846 227.148L230.792 227.477L235.738 227.148L240.684 226.161L245.276 224.516L249.516 221.884L253.402 219.252L256.934 215.633L259.408 212.014L261.527 207.737L262.94 203.13L263.647 198.524V197.208Z" fill="#009EE3"/>
<path d="M263.647 197.208L263.294 192.602L262.234 188.325L260.467 184.048L257.995 180.1L254.462 176.481L250.929 173.191L246.689 170.888L242.097 168.914L237.151 167.597L232.205 166.94L227.259 167.268L222.313 167.927L217.367 169.572L213.128 171.546L208.888 174.178L205.355 177.468L202.529 181.416L200.056 185.364L198.29 189.641L197.583 194.247V198.853L198.29 203.459L199.703 207.737L201.822 212.014L204.295 215.962L207.828 219.252L211.714 222.213L215.954 224.516L220.546 226.161L225.846 227.148L230.792 227.477L235.738 227.148L240.684 226.161L245.276 224.516L249.516 221.884L253.402 219.252L256.934 215.633L259.408 212.014L261.527 207.737L262.94 203.13L263.647 198.524V197.208Z" stroke="black" stroke-width="0.288" stroke-miterlimit="22.9256"/>
<path fill-rule="evenodd" clip-rule="evenodd" d="M197.936 199.182L198.29 202.472L199.35 205.433L200.762 209.052L202.529 213L205.355 216.29L210.301 220.897L98.6638 199.182H94.4247H197.936Z" fill="#009EE3"/>
<path d="M197.936 199.182L198.29 202.472L199.35 205.433L200.762 209.052L202.529 213L205.355 216.29L210.301 220.897L98.6638 199.182H94.4247H197.936Z" stroke="black" stroke-width="0.288" stroke-miterlimit="22.9256"/>
<path fill-rule="evenodd" clip-rule="evenodd" d="M197.936 199.182V193.589L198.643 189.312L200.056 185.364L202.176 182.074L204.295 178.784L206.768 175.823L98.6638 199.182H94.4247H197.936Z" fill="#009EE3"/>
<path d="M197.936 199.182V193.589L198.643 189.312L200.056 185.364L202.176 182.074L204.295 178.784L206.768 175.823L98.6638 199.182H94.4247H197.936Z" stroke="black" stroke-width="0.288" stroke-miterlimit="22.9256"/>
<path fill-rule="evenodd" clip-rule="evenodd" d="M263.647 199.182L263.294 202.472L262.587 205.433L260.82 209.052L258.348 213.329L255.875 216.62L253.402 219.252L363.626 199.182L367.865 198.853L263.647 199.182Z" fill="#009EE3"/>
<path d="M263.647 199.182L263.294 202.472L262.587 205.433L260.82 209.052L258.348 213.329L255.875 216.62L253.402 219.252L363.626 199.182L367.865 198.853L263.647 199.182Z" stroke="black" stroke-width="0.288" stroke-miterlimit="22.9256"/>
<path fill-rule="evenodd" clip-rule="evenodd" d="M263.647 199.182V196.221V192.931L262.587 189.312L261.174 185.035L259.054 181.416L255.168 176.481L363.626 199.182H368.218H263.647Z" fill="#009EE3"/>
<path d="M263.647 199.182V196.221V192.931L262.587 189.312L261.174 185.035L259.054 181.416L255.168 176.481L363.626 199.182H368.218H263.647Z" stroke="black" stroke-width="0.288" stroke-miterlimit="22.9256"/>
<path fill-rule="evenodd" clip-rule="evenodd" d="M232.205 166.61L235.384 166.94L238.917 167.927L242.803 168.914L248.102 171.216L251.282 172.861L255.168 176.481L232.205 77.1207V73.1724V166.61Z" fill="#009EE3"/>
<path d="M232.205 166.61L235.384 166.94L238.917 167.927L242.803 168.914L248.102 171.216L251.282 172.861L255.168 176.481L232.205 77.1207V73.1724V166.61Z" stroke="black" stroke-width="0.288" stroke-miterlimit="22.9256"/>
<path fill-rule="evenodd" clip-rule="evenodd" d="M232.205 166.61H229.025L225.493 167.268L221.606 167.927L217.72 169.572L213.481 171.216L207.122 175.823L232.205 77.1207V73.1725V166.61Z" fill="#009EE3"/>
<path d="M232.205 166.61H229.025L225.493 167.268L221.606 167.927L217.72 169.572L213.481 171.216L207.122 175.823L232.205 77.1207V73.1725V166.61Z" stroke="black" stroke-width="0.288" stroke-miterlimit="22.9256"/>
<path fill-rule="evenodd" clip-rule="evenodd" d="M231.498 227.148H229.025L224.433 226.49L219.133 225.503L215.6 223.858L213.128 222.541L210.301 220.568L231.498 323.547V227.148Z" fill="#009EE3"/>
<path d="M231.498 227.148H229.025L224.433 226.49L219.133 225.503L215.6 223.858L213.128 222.541L210.301 220.568L231.498 323.547V227.148Z" stroke="black" stroke-width="0.288" stroke-miterlimit="22.9256"/>
<path fill-rule="evenodd" clip-rule="evenodd" d="M231.498 227.148L234.324 226.819L236.444 226.49L241.037 225.832L245.629 223.858L253.402 219.252L231.498 324.863V227.148Z" fill="#009EE3"/>
<path d="M231.498 227.148L234.324 226.819L236.444 226.49L241.037 225.832L245.629 223.858L253.402 219.252L231.498 324.863V227.148Z" stroke="black" stroke-width="0.288" stroke-miterlimit="22.9256"/>
<path fill-rule="evenodd" clip-rule="evenodd" d="M188.398 179.771L164.374 134.697L206.768 175.823L188.398 179.771Z" fill="#009EE3"/>
<path d="M188.398 179.771L164.374 134.697L206.768 175.823L188.398 179.771Z" stroke="black" stroke-width="0.288" stroke-miterlimit="22.9256"/>
<path fill-rule="evenodd" clip-rule="evenodd" d="M164.374 134.697L207.122 175.823L211.714 157.399L164.374 134.697Z" fill="#009EE3"/>
<path d="M164.374 134.697L207.122 175.823L211.714 157.399L164.374 134.697Z" stroke="black" stroke-width="0.288" stroke-miterlimit="22.9256"/>
<path fill-rule="evenodd" clip-rule="evenodd" d="M272.832 180.1L297.915 133.381L255.168 176.481L272.832 180.1Z" fill="#009EE3"/>
<path d="M272.832 180.1L297.915 133.381L255.168 176.481L272.832 180.1Z" stroke="black" stroke-width="0.288" stroke-miterlimit="22.9256"/>
<path fill-rule="evenodd" clip-rule="evenodd" d="M297.915 133.381L255.168 176.481L250.929 157.398L297.915 133.381Z" fill="#009EE3"/>
<path d="M297.915 133.381L255.168 176.481L250.929 157.398L297.915 133.381Z" stroke="black" stroke-width="0.288" stroke-miterlimit="22.9256"/>
<path fill-rule="evenodd" clip-rule="evenodd" d="M273.539 215.633L297.209 263.338L252.695 219.252L273.539 215.633Z" fill="#009EE3"/>
<path d="M273.539 215.633L297.209 263.338L252.695 219.252L273.539 215.633Z" stroke="black" stroke-width="0.288" stroke-miterlimit="22.9256"/>
<path fill-rule="evenodd" clip-rule="evenodd" d="M297.209 263.338L252.695 219.252L249.162 238.992L297.209 263.338Z" fill="#009EE3"/>
<path d="M297.209 263.338L252.695 219.252L249.162 238.992L297.209 263.338Z" stroke="black" stroke-width="0.288" stroke-miterlimit="22.9256"/>
<path fill-rule="evenodd" clip-rule="evenodd" d="M189.104 216.948L164.374 260.048L210.301 220.897L189.104 216.948Z" fill="#009EE3"/>
<path d="M189.104 216.948L164.374 260.048L210.301 220.897L189.104 216.948Z" stroke="black" stroke-width="0.288" stroke-miterlimit="22.9256"/>
<path fill-rule="evenodd" clip-rule="evenodd" d="M164.374 260.048L210.301 220.897L214.894 243.269L164.374 260.048Z" fill="#009EE3"/>
<path d="M164.374 260.048L210.301 220.897L214.894 243.269L164.374 260.048Z" stroke="black" stroke-width="0.288" stroke-miterlimit="22.9256"/>
<path fill-rule="evenodd" clip-rule="evenodd" d="M232.391 139.383L231.114 139.185L227.285 138.987L221.967 139.383L217.074 140.572L211.969 142.157L207.501 143.94L202.608 146.317L198.354 148.892L194.312 152.261L190.696 155.43L187.505 159.194L184.314 163.157L181.974 167.515L179.847 172.072L178.145 176.43L177.081 181.185L176.656 186.138L176.23 191.09L176.656 195.845L177.294 200.798L178.783 205.355L180.272 209.911L182.612 214.27L184.314 217.043L217.5 254.09H227.073L204.31 208.128L203.247 205.553L202.396 202.977L201.545 200.6L200.907 198.025L200.481 195.251L200.268 192.477L200.056 187.128L200.481 181.978L200.907 176.628L201.545 174.053L202.183 171.477L202.821 168.704L203.672 166.327L204.523 163.949L205.799 161.176L207.076 158.996L208.565 156.421L211.756 152.063L212.82 150.675L214.309 149.091L216.223 147.704L217.712 146.317L219.627 144.93L221.541 143.742L223.456 142.751L225.584 141.562L227.498 140.77L229.838 139.978L232.391 139.383Z" fill="white"/>
<path d="M232.391 139.383L231.114 139.185L227.285 138.987L221.967 139.383L217.074 140.572L211.969 142.157L207.501 143.94L202.608 146.317L198.354 148.892L194.312 152.261L190.696 155.43L187.505 159.194L184.314 163.157L181.974 167.515L179.847 172.072L178.145 176.43L177.081 181.185L176.656 186.138L176.23 191.09L176.656 195.845L177.294 200.798L178.783 205.355L180.272 209.911L182.612 214.27L184.314 217.043L217.5 254.09H227.073L204.31 208.128L203.247 205.553L202.396 202.977L201.545 200.6L200.907 198.025L200.481 195.251L200.268 192.477L200.056 187.128L200.481 181.978L200.907 176.628L201.545 174.053L202.183 171.477L202.821 168.704L203.672 166.327L204.523 163.949L205.799 161.176L207.076 158.996L208.565 156.421L211.756 152.063L212.82 150.675L214.309 149.091L216.223 147.704L217.712 146.317L219.627 144.93L221.541 143.742L223.456 142.751L225.584 141.563L227.498 140.77L229.838 139.978L232.391 139.383Z" stroke="black" stroke-width="0.999733" stroke-miterlimit="22.9256"/>
<path fill-rule="evenodd" clip-rule="evenodd" d="M227.073 254.09H232.603V139.383L229.838 139.978L227.711 140.77L225.584 141.563L223.456 142.751L221.541 143.544L219.84 144.93L217.925 146.317L216.223 147.704L214.521 148.892L212.82 150.675L211.756 151.864L208.565 156.421L207.076 158.798L205.799 161.176L204.523 163.751L203.672 166.128L203.034 168.704L202.183 171.279L201.545 173.855L200.907 176.43L200.481 181.978L200.056 187.128L200.268 192.477L200.481 195.251L200.907 197.826L201.545 200.6L202.396 202.977L203.247 205.553L204.31 208.128L205.374 210.704L227.073 254.09Z" fill="white"/>
<path d="M227.073 254.09H232.603V139.383L229.838 139.978L227.711 140.77L225.584 141.563L223.456 142.751L221.541 143.544L219.84 144.93L217.925 146.317L216.223 147.704L214.521 148.892L212.82 150.675L211.756 151.864L208.565 156.421L207.076 158.798L205.799 161.176L204.523 163.751L203.672 166.128L203.034 168.704L202.183 171.279L201.545 173.855L200.907 176.43L200.481 181.978L200.056 187.128L200.268 192.477L200.481 195.251L200.907 197.826L201.545 200.6L202.396 202.977L203.247 205.553L204.31 208.128L205.374 210.704L227.073 254.09Z" stroke="black" stroke-width="0.999733" stroke-miterlimit="22.9256"/>
<path fill-rule="evenodd" clip-rule="evenodd" d="M232.391 139.185L233.88 138.789H237.496L242.814 139.383L247.92 140.176L252.813 141.761L257.706 143.544L262.173 145.921L266.427 148.694L270.47 152.063L274.086 155.43L277.702 159.194L280.468 162.958L282.808 167.317L284.935 171.874L286.637 176.232L287.913 180.987L288.551 185.94V190.694L288.126 195.449L287.488 200.402L286.212 205.156L284.51 209.515L282.382 214.072L280.68 216.845L247.282 254.09H237.709L258.557 213.081L259.408 210.308L260.684 207.93L261.747 205.355L262.811 202.779L263.236 200.402L263.875 197.826L264.3 195.053L264.726 192.477L264.938 187.128L264.513 181.581L263.875 176.232L263.236 173.657L262.811 171.081L262.173 168.506L261.322 165.93L260.258 163.751L259.195 161.176L257.706 158.6L256.429 156.223L253.026 151.666L252.174 150.477L248.771 147.308L247.069 146.119L245.367 144.732L243.453 143.544L241.325 142.355L239.411 141.364L237.283 140.572L235.156 139.978L232.391 139.185Z" fill="white"/>
<path d="M232.391 139.185L233.88 138.789H237.496L242.814 139.383L247.92 140.176L252.813 141.761L257.706 143.544L262.173 145.921L266.427 148.694L270.47 152.063L274.086 155.43L277.702 159.194L280.468 162.958L282.808 167.317L284.935 171.874L286.637 176.232L287.913 180.987L288.551 185.94V190.694L288.126 195.449L287.488 200.402L286.212 205.156L284.51 209.515L282.382 214.072L280.68 216.845L247.282 254.09H237.709L258.557 213.081L259.408 210.308L260.684 207.93L261.747 205.355L262.811 202.779L263.236 200.402L263.875 197.826L264.3 195.053L264.726 192.477L264.938 187.128L264.513 181.581L263.875 176.232L263.236 173.657L262.811 171.081L262.173 168.506L261.322 165.93L260.258 163.751L259.195 161.176L257.706 158.6L256.429 156.223L253.026 151.666L252.174 150.477L248.771 147.308L247.069 146.119L245.367 144.732L243.453 143.544L241.325 142.355L239.411 141.364L237.283 140.572L235.156 139.978L232.391 139.185Z" stroke="black" stroke-width="0.999733" stroke-miterlimit="22.9256"/>
<path fill-rule="evenodd" clip-rule="evenodd" d="M237.709 254.09H232.391V139.185L235.156 139.779L237.283 140.572L239.411 141.364L241.325 142.355L243.453 143.544L245.155 144.732L247.069 145.921L248.771 147.308L250.473 148.694L252.174 150.279L253.026 151.666L256.217 156.223L257.706 158.402L258.982 161.176L260.258 163.553L261.109 165.732L261.96 168.308L262.811 171.081L263.236 173.657L263.875 176.232L264.513 181.581L264.726 186.93V192.279L264.3 194.855L263.875 197.628L263.236 200.204L262.811 202.779L261.747 205.355L260.684 207.93L259.408 210.308L258.557 212.883L237.709 254.09Z" fill="white"/>
<path d="M237.709 254.09H232.391V139.185L235.156 139.779L237.283 140.572L239.411 141.364L241.325 142.355L243.453 143.544L245.155 144.732L247.069 145.921L248.771 147.308L250.473 148.694L252.174 150.279L253.026 151.666L256.217 156.223L257.706 158.402L258.982 161.176L260.258 163.553L261.109 165.732L261.96 168.308L262.811 171.081L263.236 173.657L263.875 176.232L264.513 181.581L264.726 186.93V192.279L264.3 194.855L263.875 197.628L263.236 200.204L262.811 202.779L261.747 205.355L260.684 207.93L259.408 210.308L258.557 212.883L237.709 254.09Z" stroke="black" stroke-width="0.999733" stroke-miterlimit="22.9256"/>
<path fill-rule="evenodd" clip-rule="evenodd" d="M247.282 254.09L244.729 264.986H219.627L217.287 254.09H247.282Z" fill="white"/>
<path d="M247.282 254.09L244.729 264.986H219.627L217.287 254.09H247.282Z" stroke="black" stroke-width="0.999733" stroke-miterlimit="22.9256"/>
<path d="M240.262 279.25L239.836 275.288V273.307L239.411 272.515L238.986 271.524L238.56 270.732L237.922 269.939L236.432 268.354L235.369 267.958L234.731 267.562L233.88 267.364L232.816 267.166H230.264L229.2 267.562L228.349 267.958L227.498 268.354L226.86 269.147L226.222 269.939L225.158 271.326L224.945 272.317L224.733 273.109L224.307 274.1L224.094 275.288L223.882 277.269V279.25H240.262Z" stroke="black" stroke-width="0.999733" stroke-miterlimit="22.9256"/>
<path fill-rule="evenodd" clip-rule="evenodd" d="M240.475 279.25V290.543H223.882V279.25H240.475Z" fill="white"/>
<path d="M240.475 279.25V290.543H223.882V279.25H240.475Z" stroke="black" stroke-width="0.999733" stroke-miterlimit="22.9256"/>
<path d="M174.207 161.617V160.261C176.615 160.389 179.385 160.475 182.509 160.517C185.652 160.475 188.447 160.389 190.902 160.261L191.178 165.321L189.793 165.394L189.642 164.031C189.57 163.249 189.274 162.705 188.756 162.418C188.238 162.131 187.535 161.984 186.643 161.984H181.498V170.565L187.358 170.418C188.014 170.369 188.507 170.259 188.835 170.088C189.163 169.911 189.327 169.526 189.327 168.914V167.918H190.659C190.659 168.921 190.633 169.709 190.58 170.277C190.672 171.903 190.751 173.284 190.823 174.415H189.399V173.132C189.399 172.282 188.802 171.854 187.594 171.854L181.649 171.701V177.648C181.649 178.381 181.702 178.974 181.8 179.432C181.905 179.891 182.141 180.258 182.502 180.533C182.869 180.807 183.408 180.942 184.13 180.942H188.178C189.504 180.942 190.396 180.526 190.869 179.701C191.335 178.876 191.597 177.88 191.65 176.725H193.1L192.352 182.665C188.625 182.47 185.855 182.372 184.044 182.372C181.163 182.372 177.882 182.494 174.207 182.739V181.309H176.491C177.495 181.309 178.164 181.088 178.486 180.642C178.807 180.196 178.971 179.494 178.971 178.522V167.338C178.971 165.865 178.906 164.673 178.781 163.769C178.65 162.864 178.348 162.247 177.869 161.911C177.698 161.715 177.094 161.617 176.057 161.617H174.207Z" fill="#E5007D"/>
<path d="M174.207 161.617V160.261C176.615 160.389 179.385 160.475 182.509 160.517C185.652 160.475 188.447 160.389 190.902 160.261L191.178 165.321L189.793 165.394L189.642 164.031C189.57 163.249 189.274 162.705 188.756 162.418C188.238 162.131 187.535 161.984 186.643 161.984H181.498V170.565L187.358 170.418C188.014 170.369 188.507 170.259 188.835 170.088C189.163 169.911 189.327 169.526 189.327 168.914V167.918H190.659C190.659 168.921 190.633 169.709 190.58 170.277C190.672 171.903 190.751 173.284 190.823 174.415H189.399V173.132C189.399 172.282 188.802 171.854 187.594 171.854L181.649 171.701V177.648C181.649 178.381 181.702 178.974 181.8 179.432C181.905 179.891 182.141 180.258 182.502 180.533C182.869 180.807 183.408 180.942 184.13 180.942H188.178C189.504 180.942 190.396 180.526 190.869 179.701C191.335 178.876 191.597 177.88 191.65 176.725H193.1L192.352 182.665C188.625 182.47 185.855 182.372 184.044 182.372C181.163 182.372 177.882 182.494 174.207 182.739V181.309H176.491C177.495 181.309 178.164 181.088 178.486 180.642C178.807 180.196 178.971 179.494 178.971 178.522V167.338C178.971 165.865 178.906 164.673 178.781 163.769C178.65 162.864 178.348 162.247 177.869 161.911C177.698 161.715 177.094 161.617 176.057 161.617H174.207Z" stroke="#1A1A18" stroke-width="0.288" stroke-miterlimit="22.9256"/>
<path d="M197.366 167.185L194.61 167.704V166.274C196.565 166.274 198.534 165.822 200.522 164.918L199.531 176.212C201.972 172.007 204.768 168.242 207.924 164.918H210.366L209.611 176.212C210.825 174.012 212.085 171.983 213.385 170.125C214.69 168.267 216.128 166.531 217.689 164.918H220.754C220.341 167.161 220.006 169.648 219.737 172.367C219.474 175.087 219.343 177.446 219.343 179.444C219.343 179.597 219.35 179.811 219.363 180.08C219.376 180.349 219.376 180.538 219.376 180.649V180.936L220.997 180.502L221.148 181.828L216.075 183.179L217.525 166.971C216.541 167.973 215.583 169.098 214.644 170.345C213.706 171.592 212.84 172.905 212.039 174.28C211.245 175.655 210.536 177.073 209.926 178.528C209.316 179.988 208.843 181.388 208.509 182.739H206.383L207.452 167.338C205.234 169.63 203.357 172.129 201.821 174.831C200.286 177.538 199.288 180.147 198.829 182.665H196.388L197.366 167.185Z" fill="#E5007D"/>
<path d="M197.366 167.185L194.61 167.704V166.274C196.565 166.274 198.534 165.822 200.522 164.918L199.531 176.212C201.972 172.007 204.768 168.242 207.924 164.918H210.366L209.611 176.212C210.825 174.012 212.085 171.983 213.385 170.125C214.69 168.267 216.128 166.531 217.689 164.918H220.754C220.341 167.161 220.006 169.648 219.737 172.367C219.474 175.087 219.343 177.446 219.343 179.444C219.343 179.597 219.35 179.811 219.363 180.08C219.376 180.349 219.376 180.538 219.376 180.649V180.936L220.997 180.502L221.148 181.828L216.075 183.179L217.525 166.971C216.541 167.973 215.583 169.098 214.644 170.345C213.706 171.592 212.84 172.905 212.039 174.28C211.245 175.655 210.536 177.073 209.926 178.528C209.316 179.988 208.843 181.388 208.509 182.739H206.383L207.452 167.338C205.234 169.63 203.357 172.129 201.821 174.831C200.286 177.538 199.288 180.147 198.829 182.665H196.388L197.366 167.185Z" stroke="#1A1A18" stroke-width="0.288" stroke-miterlimit="22.9256"/>
<path d="M225.669 167.045L222.453 167.778V166.134C224.698 165.981 226.85 165.529 228.898 164.771C228.813 165.388 228.675 166.305 228.484 167.534C228.301 168.755 228.163 169.807 228.064 170.681C227.966 171.555 227.907 172.447 227.881 173.357C227.986 174.226 228.038 174.873 228.038 175.295C228.038 175.063 228.288 174.372 228.793 173.211C229.292 172.056 229.948 170.821 230.755 169.513C231.555 168.205 232.494 167.069 233.577 166.109C234.653 165.15 235.762 164.655 236.897 164.624C237.691 164.624 238.197 164.863 238.413 165.345C238.636 165.828 238.748 166.488 238.748 167.338V171.481C238.748 172.997 238.584 174.427 238.249 175.766C237.915 177.11 237.409 178.308 236.72 179.378C236.038 180.441 235.178 181.302 234.135 181.957C233.098 182.61 231.89 182.989 230.512 183.105L230.361 182.225C231.372 182.073 232.159 181.816 232.724 181.455C233.682 180.771 234.424 179.524 234.955 177.709C235.487 175.9 235.756 173.969 235.756 171.921V167.851C235.756 167.081 235.493 166.665 234.968 166.604C234.522 166.604 233.826 167.185 232.881 168.346C231.936 169.507 231.017 170.986 230.112 172.783C229.206 174.58 228.543 176.395 228.11 178.222C227.9 179.243 227.657 180.435 227.375 181.785C227.093 183.142 226.85 184.432 226.64 185.654C226.437 186.876 226.26 188.178 226.102 189.559L225.833 192.566L223.746 193.336C224.035 191.282 224.278 189.156 224.468 186.955C224.665 184.755 224.803 182.897 224.895 181.376C224.98 179.854 225.105 177.562 225.256 174.507C225.413 171.451 225.551 168.963 225.669 167.045Z" fill="#E5007D"/>
<path d="M225.669 167.045L222.453 167.778V166.134C224.698 165.981 226.85 165.529 228.898 164.771C228.813 165.388 228.675 166.305 228.484 167.534C228.301 168.755 228.163 169.807 228.064 170.681C227.966 171.555 227.907 172.447 227.881 173.357C227.986 174.226 228.038 174.873 228.038 175.295C228.038 175.063 228.288 174.372 228.793 173.211C229.292 172.056 229.948 170.821 230.755 169.513C231.555 168.205 232.494 167.069 233.577 166.109C234.653 165.15 235.762 164.655 236.897 164.624C237.691 164.624 238.197 164.863 238.413 165.345C238.636 165.828 238.748 166.488 238.748 167.338V171.481C238.748 172.997 238.584 174.427 238.249 175.766C237.915 177.11 237.409 178.308 236.72 179.378C236.038 180.441 235.178 181.302 234.135 181.957C233.098 182.61 231.89 182.989 230.512 183.105L230.361 182.225C231.372 182.073 232.159 181.816 232.724 181.455C233.682 180.771 234.424 179.524 234.955 177.709C235.487 175.9 235.756 173.969 235.756 171.921V167.851C235.756 167.081 235.493 166.665 234.968 166.604C234.522 166.604 233.826 167.185 232.881 168.346C231.936 169.507 231.017 170.986 230.112 172.783C229.206 174.58 228.543 176.395 228.11 178.222C227.9 179.243 227.657 180.435 227.375 181.785C227.093 183.142 226.85 184.432 226.64 185.654C226.437 186.876 226.26 188.178 226.102 189.559L225.833 192.566L223.746 193.336C224.035 191.282 224.278 189.156 224.468 186.955C224.665 184.755 224.803 182.897 224.895 181.376C224.98 179.854 225.105 177.562 225.256 174.507C225.413 171.451 225.551 168.963 225.669 167.045Z" stroke="#1A1A18" stroke-width="0.288" stroke-miterlimit="22.9256"/>
<path d="M243.867 167.338L240.441 167.918V166.605C241.944 166.446 244.188 165.908 247.174 164.991L245.802 182.733L242.797 183.325C243.512 179.353 243.867 174.904 243.867 169.978V167.338ZM243.276 158.385C243.276 157.761 243.473 157.187 243.854 156.673C244.241 156.154 244.746 155.897 245.369 155.897C245.966 155.897 246.498 156.117 246.958 156.563C247.417 157.009 247.646 157.523 247.646 158.097C247.646 158.727 247.423 159.283 246.983 159.766C246.537 160.248 246 160.499 245.369 160.517C245.369 160.505 245.356 160.499 245.337 160.493C245.317 160.487 245.304 160.48 245.291 160.48C244.759 160.48 244.3 160.267 243.913 159.839C243.532 159.418 243.315 158.929 243.276 158.385Z" fill="#E5007D"/>
<path d="M243.867 167.338L240.441 167.918V166.605C241.944 166.446 244.188 165.908 247.174 164.991L245.802 182.733L242.797 183.325C243.512 179.353 243.867 174.904 243.867 169.978V167.338ZM243.276 158.385C243.276 157.761 243.473 157.187 243.854 156.673C244.241 156.154 244.746 155.897 245.369 155.897C245.966 155.897 246.498 156.117 246.958 156.563C247.417 157.009 247.646 157.523 247.646 158.097C247.646 158.727 247.423 159.283 246.983 159.766C246.537 160.248 246 160.499 245.369 160.517C245.369 160.505 245.356 160.499 245.337 160.493C245.317 160.487 245.304 160.48 245.291 160.48C244.759 160.48 244.3 160.267 243.913 159.839C243.532 159.418 243.315 158.929 243.276 158.385Z" stroke="#1A1A18" stroke-width="0.288" stroke-miterlimit="22.9256"/>
<path d="M262.609 165.174V168.255C262.569 168.242 262.49 168.224 262.372 168.205C262.254 168.187 262.097 168.181 261.9 168.181C260.601 168.181 259.236 169.624 257.799 172.508C257.162 173.834 256.591 175.234 256.092 176.707C255.587 178.173 255.187 179.5 254.878 180.691C254.57 181.877 254.419 182.562 254.419 182.739H252.371L253.27 167.338L249.379 168.071V166.604C250.33 166.586 251.466 166.415 252.791 166.091C254.117 165.773 255.279 165.4 256.269 164.991L255.751 174.231C255.79 174.146 256.079 173.486 256.624 172.245C257.162 171.005 257.601 170.027 257.936 169.324C258.271 168.615 258.606 167.967 258.94 167.381C259.275 166.794 259.59 166.354 259.885 166.06C260.502 165.419 261.171 165.101 261.9 165.101C262.097 165.101 262.254 165.107 262.372 165.125C262.49 165.144 262.569 165.162 262.609 165.174Z" fill="#E5007D"/>
<path d="M262.609 165.174V168.255C262.569 168.242 262.49 168.224 262.372 168.205C262.254 168.187 262.097 168.181 261.9 168.181C260.601 168.181 259.236 169.624 257.799 172.508C257.162 173.834 256.591 175.234 256.092 176.707C255.587 178.173 255.187 179.5 254.878 180.691C254.57 181.877 254.419 182.562 254.419 182.739H252.371L253.27 167.338L249.379 168.071V166.604C250.33 166.586 251.466 166.415 252.791 166.091C254.117 165.773 255.279 165.4 256.269 164.991L255.751 174.231C255.79 174.146 256.079 173.486 256.624 172.245C257.162 171.005 257.601 170.027 257.936 169.324C258.271 168.615 258.606 167.967 258.94 167.381C259.275 166.794 259.59 166.354 259.885 166.06C260.502 165.419 261.171 165.101 261.9 165.101C262.097 165.101 262.254 165.107 262.372 165.125C262.49 165.144 262.569 165.162 262.609 165.174Z" stroke="#1A1A18" stroke-width="0.288" stroke-miterlimit="22.9256"/>
<path d="M274.703 176.352L275.924 176.505C275.924 177.012 275.76 177.758 275.438 178.736C275.11 179.719 274.447 180.655 273.437 181.547C272.426 182.439 270.995 182.885 269.145 182.885C267.806 182.885 266.704 182.561 265.837 181.907C264.971 181.259 264.341 180.392 263.947 179.298C263.553 178.21 263.357 177 263.357 175.661C263.436 174.256 263.599 172.936 263.856 171.708C264.111 170.485 264.512 169.342 265.043 168.285C265.581 167.222 266.29 166.372 267.176 165.724C268.056 165.077 269.118 164.734 270.365 164.697C271.448 164.697 272.321 164.899 272.99 165.309C273.653 165.718 274.132 166.274 274.421 166.971C274.71 167.668 274.854 168.462 274.854 169.355C274.854 170.118 274.696 171.139 274.382 172.429C271.803 173.229 269.079 173.785 266.224 174.085C266.211 174.085 266.159 174.512 266.073 175.368C266.224 179.121 267.602 181.052 270.208 181.162C271.009 181.162 271.757 180.954 272.452 180.533C273.141 180.111 273.692 179.548 274.093 178.852C274.5 178.155 274.703 177.422 274.703 176.652V176.352ZM266.382 172.905L269.854 172.429C270.674 172.282 271.317 171.891 271.77 171.255C272.222 170.625 272.452 169.892 272.452 169.055C272.452 168.108 272.328 167.307 272.071 166.66C271.822 166.012 271.251 165.688 270.365 165.688C269.046 165.718 268.056 166.562 267.399 168.224C266.736 169.88 266.375 171.383 266.303 172.728C266.336 172.765 266.356 172.808 266.369 172.838C266.375 172.868 266.382 172.893 266.382 172.905Z" fill="#E5007D"/>
<path d="M274.703 176.352L275.924 176.505C275.924 177.012 275.76 177.758 275.438 178.736C275.11 179.719 274.447 180.655 273.437 181.547C272.426 182.439 270.995 182.885 269.145 182.885C267.806 182.885 266.704 182.561 265.837 181.907C264.971 181.259 264.341 180.392 263.947 179.298C263.553 178.21 263.357 177 263.357 175.661C263.436 174.256 263.599 172.936 263.856 171.708C264.111 170.485 264.512 169.342 265.043 168.285C265.581 167.222 266.29 166.372 267.176 165.724C268.056 165.077 269.118 164.734 270.365 164.697C271.448 164.697 272.321 164.899 272.99 165.309C273.653 165.718 274.132 166.274 274.421 166.971C274.71 167.668 274.854 168.462 274.854 169.355C274.854 170.118 274.696 171.139 274.382 172.429C271.803 173.229 269.079 173.785 266.224 174.085C266.211 174.085 266.159 174.512 266.073 175.368C266.224 179.121 267.602 181.052 270.208 181.162C271.009 181.162 271.757 180.954 272.452 180.533C273.141 180.111 273.692 179.548 274.093 178.852C274.5 178.155 274.703 177.422 274.703 176.652V176.352ZM266.382 172.905L269.854 172.429C270.674 172.282 271.317 171.891 271.77 171.255C272.222 170.625 272.452 169.892 272.452 169.055C272.452 168.108 272.328 167.307 272.071 166.66C271.822 166.012 271.251 165.688 270.365 165.688C269.046 165.718 268.056 166.562 267.399 168.224C266.736 169.88 266.375 171.383 266.303 172.728C266.336 172.765 266.356 172.808 266.369 172.838C266.375 172.868 266.382 172.893 266.382 172.905Z" stroke="#1A1A18" stroke-width="0.288" stroke-miterlimit="22.9256"/>
<path d="M279.153 178.375C279.153 179.084 279.31 179.701 279.618 180.245C279.933 180.783 280.36 181.199 280.898 181.486C281.436 181.773 282.02 181.92 282.65 181.932C283.674 181.932 284.547 181.657 285.269 181.101C285.99 180.551 286.352 179.787 286.352 178.815C286.352 178.045 286.155 177.416 285.767 176.914C285.38 176.413 284.79 175.9 283.989 175.368L281.902 173.938C280.38 172.777 279.586 171.384 279.507 169.758C279.507 168.334 279.933 167.179 280.793 166.274C281.653 165.376 282.913 164.875 284.58 164.771C285.059 164.771 285.623 164.838 286.273 164.973C286.929 165.107 287.244 165.174 287.218 165.174V169.055H286.036V168.071C286.036 167.466 285.873 166.928 285.557 166.464C285.243 165.993 284.796 165.761 284.225 165.761C283.602 165.761 283.057 166.042 282.591 166.61C282.132 167.172 281.902 167.741 281.902 168.322C281.987 169.77 282.801 171.023 284.343 172.062L286.122 173.199C287.802 174.274 288.681 175.643 288.753 177.312C288.753 178.045 288.51 178.852 288.025 179.732C287.546 180.612 286.837 181.357 285.912 181.969C284.986 182.58 283.897 182.885 282.65 182.885H282.572C281.364 182.885 280.327 182.733 279.454 182.427C278.588 182.128 277.984 181.871 277.65 181.669L278.122 176.138L279.343 176.285C279.323 176.309 279.297 176.554 279.258 177.006C279.224 177.458 279.192 177.917 279.153 178.375Z" fill="#E5007D"/>
<path d="M279.153 178.375C279.153 179.084 279.31 179.701 279.618 180.245C279.933 180.783 280.36 181.199 280.898 181.486C281.436 181.773 282.02 181.92 282.65 181.932C283.674 181.932 284.547 181.657 285.269 181.101C285.99 180.551 286.352 179.787 286.352 178.815C286.352 178.045 286.155 177.416 285.767 176.914C285.38 176.413 284.79 175.9 283.989 175.368L281.902 173.938C280.38 172.777 279.586 171.384 279.507 169.758C279.507 168.334 279.933 167.179 280.793 166.274C281.653 165.376 282.913 164.875 284.58 164.771C285.059 164.771 285.623 164.838 286.273 164.973C286.929 165.107 287.244 165.174 287.218 165.174V169.055H286.036V168.071C286.036 167.466 285.873 166.928 285.557 166.464C285.243 165.993 284.796 165.761 284.225 165.761C283.602 165.761 283.057 166.042 282.591 166.61C282.132 167.172 281.902 167.741 281.902 168.322C281.987 169.77 282.801 171.023 284.343 172.062L286.122 173.199C287.802 174.274 288.681 175.643 288.753 177.312C288.753 178.045 288.51 178.852 288.025 179.732C287.546 180.612 286.837 181.357 285.912 181.969C284.986 182.58 283.897 182.885 282.65 182.885H282.572C281.364 182.885 280.327 182.733 279.454 182.427C278.588 182.128 277.984 181.871 277.65 181.669L278.122 176.138L279.343 176.285C279.323 176.309 279.297 176.554 279.258 177.006C279.224 177.458 279.192 177.917 279.153 178.375Z" stroke="#1A1A18" stroke-width="0.288" stroke-miterlimit="22.9256"/>
<path d="M192.608 206.649C192.641 204.375 192.896 202.353 193.389 200.574C193.874 198.796 194.799 197.323 196.158 196.155C197.516 194.988 199.419 194.383 201.867 194.334C202.839 194.334 203.639 194.701 204.256 195.44C204.879 196.173 205.332 197.103 205.608 198.221C205.884 199.333 206.041 200.495 206.074 201.698C206.074 203.709 205.805 205.524 205.273 207.156C204.735 208.788 203.849 210.102 202.615 211.098C201.381 212.094 199.767 212.595 197.772 212.595H197.024C196.027 212.485 195.213 212.265 194.583 211.923C193.953 211.587 193.467 211 193.12 210.175C192.778 209.35 192.608 208.171 192.608 206.649ZM195.64 204.999C195.64 206.197 195.705 207.223 195.836 208.091C195.968 208.953 196.283 209.705 196.782 210.34C197.28 210.97 198.035 211.318 199.032 211.385C200.574 211.385 201.677 210.591 202.333 209.008C202.989 207.425 203.318 205.512 203.318 203.281V202.762C203.318 200.873 203.002 199.211 202.379 197.775C201.756 196.339 200.732 195.618 199.301 195.618C198.422 195.66 197.713 196.223 197.175 197.31C196.637 198.398 196.257 199.651 196.033 201.081C195.81 202.505 195.679 203.813 195.64 204.999Z" fill="#E5007D"/>
<path d="M192.608 206.649C192.641 204.375 192.896 202.353 193.389 200.574C193.874 198.796 194.799 197.323 196.158 196.155C197.516 194.988 199.419 194.383 201.867 194.334C202.839 194.334 203.639 194.701 204.256 195.44C204.879 196.173 205.332 197.103 205.608 198.221C205.884 199.333 206.041 200.495 206.074 201.698C206.074 203.709 205.805 205.524 205.273 207.156C204.735 208.788 203.849 210.102 202.615 211.098C201.381 212.094 199.767 212.595 197.772 212.595H197.024C196.027 212.485 195.213 212.265 194.583 211.923C193.953 211.587 193.467 211 193.12 210.175C192.778 209.35 192.608 208.171 192.608 206.649ZM195.64 204.999C195.64 206.197 195.705 207.223 195.836 208.091C195.968 208.953 196.283 209.705 196.782 210.34C197.28 210.97 198.035 211.318 199.032 211.385C200.574 211.385 201.677 210.591 202.333 209.008C202.989 207.425 203.318 205.512 203.318 203.281V202.762C203.318 200.873 203.002 199.211 202.379 197.775C201.756 196.339 200.732 195.618 199.301 195.618C198.422 195.66 197.713 196.223 197.175 197.31C196.637 198.398 196.257 199.651 196.033 201.081C195.81 202.505 195.679 203.813 195.64 204.999Z" stroke="#1A1A18" stroke-width="0.288" stroke-miterlimit="22.9256"/>
<path d="M209.46 222.606L211.074 195.911L207.806 196.064V194.554H209.578C210.3 194.554 210.766 194.352 210.963 193.955C211.166 193.552 211.271 192.934 211.271 192.091C211.271 189.848 211.343 187.972 211.501 186.468C211.658 184.965 212.058 183.529 212.689 182.154C214.04 179.251 215.72 177.796 217.728 177.796C217.84 177.796 217.971 177.803 218.122 177.815C218.28 177.827 218.411 177.833 218.516 177.833V180.803H216.902C216.79 180.803 216.711 180.748 216.672 180.644C216.632 180.541 216.606 180.387 216.586 180.18C216.567 179.972 216.534 179.813 216.481 179.691C216.435 179.569 216.337 179.495 216.193 179.477C215.3 179.477 214.789 180.534 214.664 182.637L214.067 194.481H218.595V195.984L213.909 195.911L211.428 222.129L209.46 222.606Z" fill="#E5007D"/>
<path d="M209.46 222.606L211.074 195.911L207.806 196.064V194.554H209.578C210.3 194.554 210.766 194.352 210.963 193.955C211.166 193.552 211.271 192.934 211.271 192.091C211.271 189.848 211.343 187.972 211.501 186.468C211.658 184.965 212.058 183.529 212.689 182.154C214.04 179.251 215.72 177.796 217.728 177.796C217.84 177.796 217.971 177.803 218.122 177.815C218.28 177.827 218.411 177.833 218.516 177.833V180.803H216.902C216.79 180.803 216.711 180.748 216.672 180.644C216.632 180.541 216.606 180.387 216.586 180.18C216.567 179.972 216.534 179.813 216.481 179.691C216.435 179.569 216.337 179.495 216.193 179.477C215.3 179.477 214.789 180.534 214.664 182.637L214.067 194.481H218.595V195.984L213.909 195.911L211.428 222.129L209.46 222.606Z" stroke="#1A1A18" stroke-width="0.288" stroke-miterlimit="22.9256"/>
<path d="M231.392 196.131L228.832 196.241V194.664L231.555 194.738L231.785 191.18L234.784 190.521L234.312 194.738L238.492 194.664L238.413 196.168L233.918 196.131C233.846 196.284 233.722 199.767 233.564 206.575C233.564 207.651 233.596 208.47 233.656 209.032C233.715 209.588 233.879 210.047 234.148 210.389C234.424 210.737 234.85 210.921 235.447 210.945C235.487 210.908 235.519 210.884 235.552 210.878C235.579 210.872 235.598 210.865 235.611 210.865C236.517 210.786 237.258 210.383 237.829 209.662C238.4 208.934 238.683 207.956 238.683 206.728H239.791C239.791 207.84 239.562 208.824 239.116 209.686C238.67 210.548 238.033 211.208 237.219 211.678C236.405 212.143 235.46 212.375 234.391 212.375C233.531 212.375 232.776 212.253 232.127 212.002C231.477 211.752 231.024 211.55 230.762 211.385C230.742 210.988 230.716 210.395 230.689 209.619C230.663 208.843 230.637 208.262 230.611 207.865C230.67 205.341 230.926 201.43 231.392 196.131Z" fill="#E5007D"/>
<path d="M231.392 196.131L228.832 196.241V194.664L231.555 194.738L231.785 191.18L234.784 190.521L234.312 194.738L238.492 194.664L238.413 196.168L233.918 196.131C233.846 196.284 233.722 199.767 233.564 206.575C233.564 207.651 233.596 208.47 233.656 209.032C233.715 209.588 233.879 210.047 234.148 210.389C234.424 210.737 234.85 210.921 235.447 210.945C235.487 210.908 235.519 210.884 235.552 210.878C235.579 210.872 235.598 210.865 235.611 210.865C236.517 210.786 237.258 210.383 237.829 209.662C238.4 208.934 238.683 207.956 238.683 206.728H239.791C239.791 207.84 239.562 208.824 239.116 209.686C238.67 210.548 238.033 211.208 237.219 211.678C236.405 212.143 235.46 212.375 234.391 212.375C233.531 212.375 232.776 212.253 232.127 212.002C231.477 211.752 231.024 211.55 230.762 211.385C230.742 210.988 230.716 210.395 230.689 209.619C230.663 208.843 230.637 208.262 230.611 207.865C230.67 205.341 230.926 201.43 231.392 196.131Z" stroke="#1A1A18" stroke-width="0.288" stroke-miterlimit="22.9256"/>
<path d="M241.556 208.928C241.655 207.541 241.734 205.738 241.806 203.52C241.878 201.301 241.963 199.498 242.068 198.111C242.226 196.259 242.416 194.615 242.639 193.173C242.862 191.731 243.131 190.288 243.446 188.834C243.762 187.385 244.129 185.827 244.542 184.152C244.956 182.484 245.343 180.865 245.691 179.3L246.085 177.644H250.376V178.78C250.337 178.793 250.186 178.854 249.917 178.958C249.655 179.061 249.346 179.312 248.992 179.697C248.637 180.088 248.257 180.749 247.85 181.671C247.443 182.6 247.082 183.786 246.761 185.24C246.452 186.768 246.209 188.015 246.039 188.962C245.874 189.909 245.711 190.924 245.566 192.012C245.415 193.093 245.303 194.083 245.212 194.976C245.126 195.868 245.021 197.078 244.904 198.618L244.47 204.638C244.503 204.607 244.726 204.265 245.14 203.618C245.553 202.963 245.999 202.273 246.485 201.533C246.97 200.788 247.476 200.054 248.014 199.321C248.893 198.117 250.376 196.565 252.47 194.664L256.44 194.481V199.834C256.44 202.621 255.646 205.274 254.052 207.779C252.457 210.291 250.344 212.778 247.699 215.235L244.904 217.949L243.755 216.739C245.238 215.785 246.557 214.685 247.712 213.438C248.873 212.192 249.865 210.829 250.685 209.35C251.512 207.871 252.135 206.325 252.568 204.699C252.995 203.074 253.211 201.43 253.211 199.755C253.211 198.398 253.041 197.494 252.699 197.042C252.634 196.95 252.535 196.901 252.424 196.901C251.86 196.901 250.921 197.652 249.609 199.156C248.296 200.659 247.062 202.462 245.901 204.564C244.746 206.667 244.03 208.598 243.762 210.358L243.525 211.935L241.242 212.669C241.386 211.385 241.491 210.138 241.556 208.928Z" fill="#E5007D"/>
<path d="M241.556 208.928C241.655 207.541 241.734 205.738 241.806 203.52C241.878 201.301 241.963 199.498 242.068 198.111C242.226 196.259 242.416 194.615 242.639 193.173C242.862 191.731 243.131 190.288 243.446 188.834C243.762 187.385 244.129 185.827 244.542 184.152C244.956 182.484 245.343 180.865 245.691 179.3L246.085 177.644H250.376V178.78C250.337 178.793 250.186 178.854 249.917 178.958C249.655 179.061 249.346 179.312 248.992 179.697C248.637 180.088 248.257 180.749 247.85 181.671C247.443 182.6 247.082 183.786 246.761 185.24C246.452 186.768 246.209 188.015 246.039 188.962C245.874 189.909 245.711 190.924 245.566 192.012C245.415 193.093 245.303 194.083 245.212 194.976C245.126 195.868 245.021 197.078 244.904 198.618L244.47 204.638C244.503 204.607 244.726 204.265 245.14 203.618C245.553 202.963 245.999 202.273 246.485 201.533C246.97 200.788 247.476 200.054 248.014 199.321C248.893 198.117 250.376 196.565 252.47 194.664L256.44 194.481V199.834C256.44 202.621 255.646 205.274 254.052 207.779C252.457 210.291 250.344 212.778 247.699 215.235L244.904 217.949L243.755 216.739C245.238 215.785 246.557 214.685 247.712 213.438C248.873 212.192 249.865 210.829 250.685 209.35C251.512 207.871 252.135 206.325 252.568 204.699C252.995 203.074 253.211 201.43 253.211 199.755C253.211 198.398 253.041 197.494 252.699 197.042C252.634 196.95 252.535 196.901 252.424 196.901C251.86 196.901 250.921 197.652 249.609 199.156C248.296 200.659 247.062 202.462 245.901 204.564C244.746 206.667 244.03 208.598 243.762 210.358L243.525 211.935L241.242 212.669C241.386 211.385 241.491 210.138 241.556 208.928Z" stroke="#1A1A18" stroke-width="0.288" stroke-miterlimit="22.9256"/>
<path d="M269.565 205.915L270.786 206.068C270.786 206.575 270.621 207.321 270.3 208.299C269.972 209.282 269.309 210.218 268.299 211.11C267.288 212.002 265.857 212.448 264.007 212.448C262.668 212.448 261.565 212.125 260.699 211.47C259.833 210.823 259.203 209.955 258.809 208.861C258.415 207.773 258.219 206.563 258.219 205.225C258.298 203.819 258.461 202.499 258.717 201.271C258.973 200.048 259.373 198.905 259.905 197.848C260.443 196.785 261.152 195.935 262.038 195.287C262.917 194.64 263.98 194.297 265.227 194.261C266.31 194.261 267.183 194.462 267.852 194.872C268.515 195.281 268.994 195.838 269.283 196.534C269.571 197.231 269.716 198.025 269.716 198.918C269.716 199.681 269.558 200.702 269.243 201.992C266.664 202.792 263.941 203.349 261.086 203.648C261.073 203.648 261.021 204.075 260.935 204.931C261.086 208.684 262.464 210.615 265.07 210.725C265.871 210.725 266.618 210.517 267.314 210.096C268.003 209.674 268.554 209.111 268.955 208.415C269.362 207.718 269.565 206.985 269.565 206.215V205.915ZM261.244 202.468L264.715 201.992C265.536 201.845 266.179 201.454 266.632 200.818C267.084 200.189 267.314 199.455 267.314 198.618C267.314 197.671 267.189 196.87 266.933 196.223C266.684 195.575 266.113 195.251 265.227 195.251C263.908 195.281 262.917 196.125 262.261 197.787C261.598 199.443 261.237 200.947 261.165 202.291C261.198 202.328 261.218 202.371 261.231 202.401C261.237 202.432 261.244 202.456 261.244 202.468Z" fill="#E5007D"/>
<path d="M269.565 205.915L270.786 206.068C270.786 206.575 270.621 207.321 270.3 208.299C269.972 209.282 269.309 210.218 268.299 211.11C267.288 212.002 265.857 212.448 264.007 212.448C262.668 212.448 261.565 212.125 260.699 211.47C259.833 210.823 259.203 209.955 258.809 208.861C258.415 207.773 258.219 206.563 258.219 205.225C258.298 203.819 258.461 202.499 258.717 201.271C258.973 200.048 259.373 198.905 259.905 197.848C260.443 196.785 261.152 195.935 262.038 195.287C262.917 194.64 263.98 194.297 265.227 194.261C266.31 194.261 267.183 194.462 267.852 194.872C268.515 195.281 268.994 195.838 269.283 196.534C269.571 197.231 269.716 198.025 269.716 198.918C269.716 199.681 269.558 200.702 269.243 201.992C266.664 202.792 263.941 203.349 261.086 203.648C261.073 203.648 261.021 204.075 260.935 204.931C261.086 208.684 262.464 210.615 265.07 210.725C265.871 210.725 266.618 210.517 267.314 210.096C268.003 209.674 268.554 209.111 268.955 208.415C269.362 207.718 269.565 206.985 269.565 206.215V205.915ZM261.244 202.468L264.715 201.992C265.536 201.845 266.179 201.454 266.632 200.818C267.084 200.189 267.314 199.455 267.314 198.618C267.314 197.671 267.189 196.87 266.933 196.223C266.684 195.575 266.113 195.251 265.227 195.251C263.908 195.281 262.917 196.125 262.261 197.787C261.598 199.443 261.237 200.947 261.165 202.291C261.198 202.328 261.218 202.371 261.231 202.401C261.237 202.432 261.244 202.456 261.244 202.468Z" stroke="#1A1A18" stroke-width="0.288" stroke-miterlimit="22.9256"/>
<path d="M213.24 220.01C212.243 220.01 211.377 220.322 210.635 220.951C209.893 221.575 209.506 222.339 209.467 223.231C209.467 225.052 210.517 226.458 212.623 227.448L215.025 228.548C216.606 229.257 217.854 230.272 218.766 231.591C219.678 232.918 220.137 234.311 220.137 235.772C220.137 237.025 219.895 238.149 219.402 239.152C218.91 240.148 218.155 240.936 217.125 241.529C216.101 242.122 214.809 242.427 213.24 242.452C212.197 242.452 211.015 242.25 209.69 241.84C208.364 241.431 207.518 241.113 207.144 240.881C207.144 240.581 207.157 240.154 207.183 239.61C207.209 239.06 207.222 238.638 207.222 238.345C207.222 237.092 207.144 235.906 206.979 234.788H208.679V236.297C208.679 237.55 209.125 238.65 210.018 239.598C210.911 240.545 212.013 241.021 213.326 241.021C214.592 241.021 215.662 240.642 216.534 239.891C217.414 239.133 217.854 238.143 217.854 236.915C217.781 234.965 216.522 233.395 214.067 232.184L211.317 230.754C208.476 229.232 207.058 227.179 207.058 224.594C207.137 223.377 207.452 222.345 208.016 221.489C208.574 220.634 209.316 219.998 210.228 219.576C211.14 219.155 212.17 218.947 213.326 218.947C213.975 218.947 215.104 219.094 216.712 219.387C217 219.387 217.191 219.411 217.296 219.46H218.011V223.897H216.469V223.604C216.469 223.127 216.39 222.62 216.226 222.076C216.062 221.526 215.74 221.049 215.255 220.634C214.769 220.218 214.1 220.01 213.24 220.01Z" fill="#E5007D"/>
<path d="M213.24 220.01C212.243 220.01 211.377 220.322 210.635 220.951C209.893 221.575 209.506 222.339 209.467 223.231C209.467 225.052 210.517 226.458 212.623 227.448L215.025 228.548C216.606 229.257 217.854 230.272 218.766 231.591C219.678 232.918 220.137 234.311 220.137 235.772C220.137 237.025 219.895 238.149 219.402 239.152C218.91 240.148 218.155 240.936 217.125 241.529C216.101 242.122 214.809 242.427 213.24 242.452C212.197 242.452 211.015 242.25 209.69 241.84C208.364 241.431 207.518 241.113 207.144 240.881C207.144 240.581 207.157 240.154 207.183 239.61C207.209 239.06 207.222 238.638 207.222 238.345C207.222 237.092 207.144 235.906 206.979 234.788H208.679V236.297C208.679 237.55 209.125 238.65 210.018 239.598C210.911 240.545 212.013 241.021 213.326 241.021C214.592 241.021 215.662 240.642 216.534 239.891C217.414 239.133 217.854 238.143 217.854 236.915C217.781 234.965 216.522 233.395 214.067 232.184L211.317 230.754C208.476 229.232 207.058 227.179 207.058 224.594C207.137 223.377 207.452 222.345 208.016 221.489C208.574 220.634 209.316 219.998 210.228 219.576C211.14 219.155 212.17 218.947 213.326 218.947C213.975 218.947 215.104 219.094 216.712 219.387C217 219.387 217.191 219.411 217.296 219.46H218.011V223.897H216.469V223.604C216.469 223.127 216.39 222.62 216.226 222.076C216.062 221.526 215.74 221.049 215.255 220.634C214.769 220.218 214.1 220.01 213.24 220.01Z" stroke="#1A1A18" stroke-width="0.288" stroke-miterlimit="22.9256"/>
<path d="M224.154 241.791L221.876 241.865C222.027 240.624 222.146 239.274 222.237 237.807C222.322 236.346 222.414 234.574 222.506 232.484C222.604 230.4 222.71 228.676 222.815 227.307C222.926 225.938 223.097 224.533 223.327 223.091C223.773 220.065 224.265 217.48 224.79 215.329C225.321 213.178 226.103 210.586 227.139 207.543H231.241V208.71C230.808 208.71 230.25 209.162 229.554 210.055C228.865 210.953 228.137 212.841 227.382 215.72C227.015 217.174 226.68 218.843 226.378 220.732C226.076 222.62 225.827 224.313 225.643 225.81C225.459 227.308 225.354 228.224 225.335 228.554L225.256 231.047C225.853 229.892 226.864 228.444 228.288 226.714C229.705 224.985 231.306 224.117 233.091 224.117C234.168 224.117 234.949 224.435 235.441 225.077C235.926 225.712 236.195 226.482 236.241 227.374C236.241 228.737 235.788 229.887 234.889 230.815C233.984 231.744 233.032 232.435 232.035 232.881C231.037 233.333 230.309 233.602 229.863 233.688V233.62C230.913 235.888 232.101 238.008 233.419 239.977C234.739 241.95 236.241 243.863 237.934 245.715L236.32 246.302C232.435 241.956 229.023 237.654 226.083 233.395C227.1 233.395 228.163 233.156 229.278 232.673C230.401 232.196 231.326 231.53 232.068 230.675C232.803 229.819 233.17 228.872 233.17 227.821C233.17 226.525 232.75 225.877 231.91 225.877C231.188 225.877 230.269 226.452 229.154 227.607C228.038 228.756 227.041 230.174 226.162 231.854C225.053 233.951 224.357 237.214 224.074 241.651C224.108 241.681 224.127 241.706 224.14 241.736C224.147 241.761 224.154 241.779 224.154 241.791Z" fill="#E5007D"/>
<path d="M224.154 241.791L221.876 241.865C222.027 240.624 222.146 239.274 222.237 237.807C222.322 236.346 222.414 234.574 222.506 232.484C222.604 230.4 222.71 228.676 222.815 227.307C222.926 225.938 223.097 224.533 223.327 223.091C223.773 220.065 224.265 217.48 224.79 215.329C225.321 213.178 226.103 210.586 227.139 207.543H231.241V208.71C230.808 208.71 230.25 209.162 229.554 210.055C228.865 210.953 228.137 212.841 227.382 215.72C227.015 217.174 226.68 218.843 226.378 220.732C226.076 222.62 225.827 224.313 225.643 225.81C225.459 227.308 225.354 228.224 225.335 228.554L225.256 231.047C225.853 229.892 226.864 228.444 228.288 226.714C229.705 224.985 231.306 224.117 233.091 224.117C234.168 224.117 234.949 224.435 235.441 225.077C235.926 225.712 236.195 226.482 236.241 227.374C236.241 228.737 235.788 229.887 234.889 230.815C233.984 231.744 233.032 232.435 232.035 232.881C231.037 233.333 230.309 233.602 229.863 233.688V233.62C230.913 235.888 232.101 238.008 233.419 239.977C234.739 241.95 236.241 243.863 237.934 245.715L236.32 246.302C232.435 241.956 229.023 237.654 226.083 233.395C227.1 233.395 228.163 233.156 229.278 232.673C230.401 232.196 231.326 231.53 232.068 230.675C232.803 229.819 233.17 228.872 233.17 227.821C233.17 226.525 232.75 225.877 231.91 225.877C231.188 225.877 230.269 226.452 229.154 227.607C228.038 228.756 227.041 230.174 226.162 231.854C225.053 233.951 224.357 237.214 224.074 241.651C224.108 241.681 224.127 241.706 224.14 241.736C224.147 241.761 224.154 241.779 224.154 241.791Z" stroke="#1A1A18" stroke-width="0.288" stroke-miterlimit="22.9256"/>
<path d="M252.463 223.897C253.71 224.001 254.675 224.606 255.351 225.725C256.027 226.837 256.361 228.188 256.361 229.77C256.158 233.62 255.522 236.945 254.452 239.757C253.382 242.568 252.116 244.804 250.652 246.455C249.182 248.111 247.725 249.315 246.262 250.06C244.805 250.806 243.539 251.179 242.469 251.179H238.847C238.512 250.464 238.302 249.315 238.21 247.732C238.269 247.585 238.295 247.353 238.295 247.035C238.505 244.859 238.794 243.234 239.161 242.158H241.832C241.832 242.073 241.655 242.818 241.294 244.395C240.927 245.972 240.73 247.255 240.69 248.245C240.743 248.924 240.881 249.406 241.098 249.688C241.32 249.975 241.754 250.115 242.39 250.115C243.407 250.115 244.549 249.779 245.809 249.113C247.075 248.447 248.296 247.402 249.484 245.978C250.665 244.554 251.637 242.708 252.391 240.441C253.146 238.174 253.527 235.521 253.527 232.484V231.194C253.527 228.261 252.91 226.733 251.669 226.611C251.131 226.611 250.606 226.873 250.114 227.405C249.615 227.937 249.175 228.621 248.788 229.446C248.408 230.278 248.099 231.145 247.87 232.044C247.64 232.942 247.502 233.737 247.463 234.427C247.463 234.739 247.437 235.044 247.384 235.338C247.529 238.07 247.883 240.074 248.447 241.351L246.242 242.232L240.933 226.244L237.941 226.764L237.862 225.474C239.916 225.321 241.616 224.771 242.974 223.824L246.36 233.217C246.36 232.716 246.577 231.683 247.017 230.125C247.456 228.572 248.106 227.142 248.966 225.847C249.832 224.545 250.888 223.897 252.142 223.897H252.463Z" fill="#E5007D"/>
<path d="M252.463 223.897C253.71 224.001 254.675 224.606 255.351 225.725C256.027 226.837 256.361 228.188 256.361 229.77C256.158 233.62 255.522 236.945 254.452 239.757C253.382 242.568 252.116 244.804 250.652 246.455C249.182 248.111 247.725 249.315 246.262 250.06C244.805 250.806 243.539 251.179 242.469 251.179H238.847C238.512 250.464 238.302 249.315 238.21 247.732C238.269 247.585 238.295 247.353 238.295 247.035C238.505 244.859 238.794 243.234 239.161 242.158H241.832C241.832 242.073 241.655 242.818 241.294 244.395C240.927 245.972 240.73 247.255 240.69 248.245C240.743 248.924 240.881 249.406 241.098 249.688C241.32 249.975 241.754 250.115 242.39 250.115C243.407 250.115 244.549 249.779 245.809 249.113C247.075 248.447 248.296 247.402 249.484 245.978C250.665 244.554 251.637 242.708 252.391 240.441C253.146 238.174 253.527 235.521 253.527 232.484V231.194C253.527 228.261 252.91 226.733 251.669 226.611C251.131 226.611 250.606 226.873 250.114 227.405C249.615 227.937 249.175 228.621 248.788 229.446C248.408 230.278 248.099 231.145 247.87 232.044C247.64 232.942 247.502 233.737 247.463 234.427C247.463 234.739 247.437 235.044 247.384 235.338C247.529 238.07 247.883 240.074 248.447 241.351L246.242 242.232L240.933 226.244L237.941 226.764L237.862 225.474C239.916 225.321 241.616 224.771 242.974 223.824L246.36 233.217C246.36 232.716 246.577 231.683 247.017 230.125C247.456 228.572 248.106 227.142 248.966 225.847C249.832 224.545 250.888 223.897 252.142 223.897H252.463Z" stroke="#1A1A18" stroke-width="0.288" stroke-miterlimit="22.9256"/>
<path fill-rule="evenodd" clip-rule="evenodd" d="M95.3006 180.236L95.2088 180.151L95.1172 180.065L93.1011 175.627L93.0097 175.201L92.8263 174.859L92.7344 174.433L92.4594 174.006L92.2765 173.665L92.0932 173.153L91.9098 172.811L91.818 172.384L91.1768 170.763L90.6267 169.227L89.9855 167.605L89.4355 166.069L88.9772 164.447L88.6109 162.911L88.3361 161.461L88.1526 159.925L88.0608 158.644L88.2442 157.279L88.4275 155.913L88.6109 154.548L88.7943 153.182L88.8857 151.902L88.6109 150.622L88.1526 149.342L87.2362 147.976L86.4113 146.696L85.5869 145.416L84.8537 144.051L84.1202 142.685L83.4792 141.405L82.8376 139.954L82.3793 138.503L81.8297 136.797L81.2796 135.26L80.7299 133.554L80.1798 132.017L79.7216 130.396L79.2633 128.945L78.8971 127.409L78.7137 125.873L78.3474 124.166L78.0721 122.545L77.7973 120.923L77.5225 119.302L77.3391 117.595L77.2476 115.973V114.266L77.3391 112.474L77.2476 110.682L77.3391 108.89L77.4309 107.098L77.5225 105.305L77.6139 103.513L77.7059 101.721V100.014L77.7973 98.2219V97.71L77.7059 97.1125L77.6139 96.515L77.5225 95.9179L77.3391 95.4056L77.0642 94.9788L76.6974 94.467L76.2393 94.0402L74.5899 93.3576L72.8489 92.9308H71.1994H69.5499L67.9004 93.1016H66.2506L64.7846 92.9308L63.3184 92.4185L63.5933 91.3091L64.0514 90.1997L64.7846 89.1755L65.6095 88.2369L66.5259 87.3834L67.4424 86.5299L68.3586 85.8473L69.3666 85.2499L70.9246 84.3111L72.3906 83.4579L74.0401 82.6044L75.5982 81.8364L77.1556 81.0683L78.8971 80.2999L80.5465 79.6172L82.1959 78.9345L83.9374 78.3372L85.5869 77.8251L87.3278 77.2278L89.1606 76.7157L90.902 76.1184L92.4594 75.5208L94.1089 74.8382L95.5754 73.9847L95.8504 73.7288L96.1252 73.4728L96.3085 73.302L96.5834 73.0461L96.8582 72.9608L97.0416 72.7902L97.4083 72.6194L97.5913 72.4486L98.4162 71.8511L99.1492 71.3392L99.8822 70.8273L100.615 70.4857L101.349 69.9738L102.173 69.5471L102.906 69.2056L103.731 68.7789L104.923 68.1813L106.114 67.5842L107.397 67.0719L108.68 66.5601L109.963 66.0481L111.246 65.5358L112.62 65.1091L113.903 64.5972L115.644 63.9997L117.477 63.4878L119.31 63.1462L121.051 62.8903L122.884 62.5488L124.625 62.2929L126.275 62.1225L128.107 61.9517L129.848 61.6953L131.681 61.525H133.514L135.438 61.4394L137.363 61.525L139.379 61.6953L141.303 61.9517L143.319 62.1221L145.885 62.6344L148.36 63.2319L150.834 63.9997L153.125 64.9383L155.324 65.9625L157.432 67.2427L159.356 68.6936L161.006 70.4006L161.28 70.8273L161.556 71.254L161.831 71.8511L162.105 72.2778L162.289 72.7902L162.38 73.2169L162.472 73.8139L162.564 74.2406L162.838 74.3263L163.113 74.4114L163.389 74.4969L163.663 74.5822L163.938 74.6674H164.305L164.58 74.7529L164.855 74.8382L165.496 75.0941L166.137 75.1796L166.779 75.4357L167.421 75.5208L168.062 75.7772L168.703 76.0331L169.253 76.2039L169.803 76.5451L169.986 76.7157L170.261 76.9717L170.445 77.1424L170.536 77.3984L170.811 77.6545L170.903 77.9104V78.2518L170.994 78.5078L170.719 79.2762L170.17 79.9589L169.62 80.4706L169.07 80.9829L168.428 81.4097L167.695 81.7509L166.871 82.0068L166.046 82.2631L164.396 82.4335L162.655 82.6899L160.823 83.0311L159.081 83.4579L157.249 83.7993L155.508 84.226L153.766 84.6527L151.933 84.994L150.192 85.2499L148.36 85.4205L146.618 85.5059L144.877 85.7621L143.044 86.1034L141.303 86.5299L139.654 87.2128L138.096 87.9809L136.996 88.4928L135.896 89.0051L134.705 89.4318L133.606 89.773L132.414 90.1997L131.223 90.6265L130.123 90.968L128.932 91.3947H128.566L128.199 91.5655L127.833 91.7359L127.466 91.9067L127.191 92.1626L126.824 92.3334L126.549 92.5893L126.183 92.9308L126.458 94.5522L126.549 96.3446L126.641 98.1367V100.014L126.458 101.892L126 103.684L125.45 105.561L124.625 107.353L123.983 108.634L123.159 110.084L122.334 111.365L121.326 112.474L120.134 113.583L119.035 114.437L117.569 115.12L116.194 115.546L115.919 115.632H115.736H115.553L115.278 115.546H115.095L114.911 115.376H114.728L114.545 115.205L114.728 114.181L115.369 112.901L115.644 111.621V110.255L115.553 108.975L115.278 107.695L114.911 106.5L114.453 105.22L113.903 104.025L113.812 103.94L113.628 103.769L113.537 103.513L113.353 103.343V103.172L113.17 103.001V102.831L113.078 102.574L112.804 102.66L112.529 102.745L112.345 102.916L112.253 103.172L112.07 103.343L111.887 103.684L111.704 103.854L111.52 104.025L110.421 105.22L109.229 106.5L108.038 107.781L107.03 109.06L105.931 110.426L104.923 111.706L104.006 113.072L103.09 114.437L102.54 115.632L101.899 116.912L101.257 118.021L100.707 119.216L100.249 120.496L99.6994 121.691L99.2408 122.971L98.9659 124.252L97.9579 128.262L97.7747 128.945L97.4997 129.543L97.4083 130.14L97.2249 130.823V131.505L97.133 132.103V132.786V133.468V135.175V136.882L97.3165 138.589L97.4997 140.296L97.7747 141.917L98.0495 143.539L98.691 145.16L99.3326 146.782L100.615 148.147L102.082 149.171L103.731 149.854L105.472 150.452L107.397 150.878L109.229 151.39L110.971 151.988L112.437 152.841L113.353 153.353L114.27 153.865L115.186 154.377L116.011 154.975L116.744 155.657L117.386 156.255L117.935 156.938L118.394 157.705L117.661 158.388L116.744 158.559L115.736 158.474H114.82L113.812 158.388L112.804 158.303H111.887L110.879 158.388L109.963 158.559L109.047 158.73L108.038 158.986L107.03 159.242L106.206 159.668L105.381 160.095L104.464 160.607L103.639 161.034L102.815 161.461L102.54 161.888L102.173 162.229L101.807 162.57L101.532 162.997L101.257 163.424L100.891 163.765L100.799 164.192L100.524 164.618L99.2412 166.325L98.2329 168.288L97.6831 170.336L97.3165 172.384L96.9501 174.433L96.5834 176.481L96.2171 178.358L95.4836 180.236L95.3922 180.151L95.3006 180.236Z" fill="black"/>
<path fill-rule="evenodd" clip-rule="evenodd" d="M95.3921 177.932L94.3841 175.969L94.2922 175.713L94.2008 175.457V175.286L94.1089 175.03L94.0175 174.774L93.9259 174.518L93.7426 174.347V174.176L93.6506 173.92L93.5592 173.665L93.4677 173.409L93.2844 173.238L93.1929 172.982L93.2844 172.726V172.555L93.1924 172.299L92.5514 170.848L91.9098 169.226L91.2681 167.605L90.8099 165.984L90.3518 164.362L90.0769 162.741L89.802 161.119L89.6186 159.583V159.071L89.7106 158.644L89.7102 158.132L89.802 157.705L89.7102 157.279L89.802 156.852V156.34V155.828L89.9855 155.145L90.0769 154.377L90.3518 153.609L90.6266 152.841L90.9933 152.158L91.4515 151.561L92.0012 151.049L92.6428 150.622L92.8262 150.452H93.0096L93.101 150.366L93.3758 150.281H93.5592L93.6506 150.195H93.834L93.9259 150.11L94.1089 149.257L94.0175 149.171L94.1089 149.086L94.0175 149.001L93.9259 148.915H93.5592H93.1924H92.8262L92.5514 149.001H92.1846L91.8183 149.171L91.5431 149.427L91.1767 149.598L91.0849 149.683L90.9019 149.854L90.8099 149.939L90.7185 150.025L90.6266 150.11L90.4437 150.281L90.3518 150.366L90.2603 150.452L89.7106 149.257L89.252 148.147L88.519 147.123L87.9693 146.099L87.2361 145.075L86.5947 144.136L85.953 143.026L85.3118 142.088L84.6704 140.466L83.9374 138.93L83.3871 137.394L82.8375 135.858L82.3793 134.237L81.8296 132.7L81.3714 131.079L80.9132 129.457L80.6379 128.006L80.2716 126.47L79.9968 125.019L79.7215 123.398L79.4467 121.947L79.1719 120.496L78.9885 118.96L78.7137 117.509V115.803L78.6221 114.01V112.303V110.597V108.719V107.012L78.7137 105.22L78.8055 103.428L78.9885 102.404L79.0803 101.465L79.1719 100.526L79.3551 99.5021L79.4467 98.5634L79.6301 97.5392L79.7215 96.6006L79.8133 95.6616L78.9885 94.7229L77.9806 93.7843L76.8808 93.1016L75.5061 92.5041L74.2234 92.1626L72.7569 91.8214L71.4741 91.6506H70.0081H69.458H68.725L68.0833 91.7358H67.5337L66.9841 91.9066L66.3424 91.9918L65.7928 91.9922L65.1512 92.0773L65.2426 91.4799L65.5175 90.8824L65.8842 90.3705L66.159 89.773L66.7088 89.2611L67.0755 88.7491L67.6251 88.2368L68.0833 87.6393L68.8168 87.1274L69.458 86.7007L70.0996 86.274L70.7411 85.8473L71.4741 85.5062L72.0239 85.1646L72.7569 84.8232L73.3986 84.3964L74.9565 83.6285L76.4225 82.9458L78.072 82.2631L79.6301 81.495L81.2796 80.8123L83.0209 80.2148L84.6704 79.5321L86.4113 78.9345L86.9613 78.7639L87.3277 78.5935L87.7859 78.5078L88.2441 78.4227L88.6108 78.2518L89.069 78.1668L89.5272 78.081L89.8936 77.9104L89.4354 78.6786L88.7942 79.4468L88.336 80.2148L87.6944 80.9829L87.2361 81.7509L86.7781 82.5191L86.3198 83.287L86.0449 84.226V84.3964L85.953 84.4819L86.0449 84.5672L85.953 84.6527L86.0449 84.7379L86.1364 84.6527L86.2283 84.7379L86.3198 84.6527L88.6108 82.0068L89.9855 80.5564L91.4515 79.1904L92.8262 77.9104L94.2922 76.7157L95.6669 75.6063L97.2248 74.4969L98.6909 73.4728L100.157 72.6193L100.891 72.1075L101.624 71.5951L102.265 71.1684L102.906 70.7416L103.731 70.315L104.464 69.9738L105.197 69.6322L106.022 69.2056L106.939 68.8644L107.855 68.3521L108.863 67.9254L109.779 67.5842L110.787 67.1575L111.795 66.9016L112.712 66.5601L113.811 66.2185L115.644 65.7066L117.477 65.1946L119.218 64.768L121.051 64.4264L122.7 64.0852L124.442 63.8289L126.183 63.5729L127.741 63.317L129.024 63.1462H130.306L131.59 62.9755L132.781 62.8903H134.064L135.438 62.8051H136.721H138.004L138.279 62.7195H138.646L138.921 62.8051L139.379 62.8903H139.745L140.02 62.9755H140.387H140.57L143.136 63.317L145.61 63.7437L147.901 64.3413L150.192 64.9383L152.483 65.8774L154.499 66.9016L156.515 68.2669L158.348 69.803L158.806 70.2298L159.081 70.6565L159.539 71.0832L159.723 71.5951L160.089 72.1075L160.272 72.6193V73.1312V73.6434L159.906 74.1555L159.539 74.4969L158.898 74.7528L158.44 74.8382L157.89 75.0089L157.248 75.0941L156.699 75.2649L156.057 75.3504L155.599 75.4357H155.049H154.499H153.95H153.4L152.942 75.3504H152.391H151.842L151.75 75.4357L151.658 75.5208L151.567 75.6063L151.475 75.5208V75.6916L151.384 75.7772L153.216 76.4598L155.049 76.6306H156.882L158.715 76.4598L160.639 76.2039H162.472L164.58 76.289L166.504 76.7157L166.871 76.8866L167.329 76.9716L167.695 77.1424L168.153 77.2277L168.52 77.3984L168.886 77.5692L169.161 77.8251L169.345 78.1668L169.437 78.7639L168.52 79.1054L167.604 79.2762H166.504L165.588 79.1054L164.488 78.9345L163.48 78.6786L162.472 78.5935H161.372H160.089L158.806 78.7639L157.523 78.9345L156.24 79.2762L154.957 79.6172L153.675 79.9588L152.391 80.2998L151.109 80.6415H150.742H150.376L150.009 80.8123H149.642L149.367 80.727L149.092 80.8123H148.726H148.359H148.176L148.085 80.7266L147.81 80.6415L147.718 80.5564H147.535L147.443 80.4706L147.352 80.3856H147.168L147.076 80.2998L146.985 80.3856L146.893 80.4706L146.802 80.5564L146.71 81.3241L147.076 81.495L147.535 81.7509L147.993 81.8364H148.359L148.818 81.9217L149.276 82.0068H149.642H150.192L151.475 81.6658L152.85 81.4097L154.041 81.1533L155.324 80.8123L156.607 80.6415L157.798 80.3856L159.173 80.2998L160.456 80.1296L161.098 80.2148L161.739 80.1296L162.38 80.2148H162.93H163.48H164.03L164.671 80.2998L165.313 80.3856H167.695L167.054 80.6415L166.413 80.8974L165.679 81.0682L164.855 81.1533L164.121 81.3241L163.297 81.4097L162.472 81.495L161.647 81.58H160.731L159.814 81.7509L158.99 81.8364L158.073 82.0068L157.157 82.1776L156.24 82.3484L155.324 82.5191L154.408 82.8603L152.575 83.2017L150.925 83.5429L149.184 83.9696L147.443 84.226L145.702 84.4819L143.869 84.6527H142.037L140.112 84.5672L139.104 84.6527L138.187 84.8232L137.271 85.1646L136.446 85.4205L135.53 85.7621L134.705 86.1888L133.972 86.5299L133.239 87.0423L133.33 87.1274L133.239 87.2128L133.33 87.2982L133.422 87.2128L137.179 86.4448L135.896 87.1274L134.522 87.725L133.056 88.2368L131.59 88.7491L130.032 89.3462L128.565 89.8585L127.191 90.4556L126 91.224L125.816 90.8824V90.5412L125.908 90.2853V89.9438L126 89.517L126.091 89.2611L126.366 89.0051L126.458 88.7491L126.733 88.4928L126.916 88.3224L127.099 88.1517L127.282 87.9809L127.374 87.725L127.466 87.469V87.2982L127.374 87.0423V86.8715V86.7007L127.282 86.6156L127.191 86.5299L127.282 86.4448L127.191 86.3593L127.099 86.274L126.458 86.1888L126 86.274L125.633 86.6156L125.358 86.8715L124.991 87.2128L124.808 87.725L124.625 88.2368L124.533 88.6636L124.35 89.1759L124.533 90.5412L124.716 91.9066L124.991 93.3575L125.267 94.6377L125.358 96.0882L125.449 97.3684L125.358 98.8194L125.266 100.27L124.9 101.806L124.442 103.428L123.892 104.964L123.25 106.415L122.517 107.781L121.692 109.06L120.776 110.426L119.676 111.621L119.31 112.133L118.852 112.56L118.485 112.901L118.119 113.242L117.66 113.669L117.202 113.925L116.744 114.181L116.377 114.352L116.652 112.73L116.835 111.023L116.744 109.402L116.652 107.78L116.286 106.074L115.736 104.537L115.003 103.001L114.27 101.465L113.628 100.697L113.078 100.014L112.62 99.0753L112.253 98.3927L111.979 97.454L111.887 96.5149L111.979 95.5763L112.162 94.5522L112.07 94.4669L111.979 94.3818L111.887 94.2961L111.796 94.211L111.704 94.2961L111.612 94.3818L111.52 94.2961L111.429 94.3818H111.246L111.154 94.4669H110.971L110.879 94.5522L110.604 94.6377L110.513 94.7229L110.329 94.8937L110.238 95.1496L110.146 95.2352L110.054 95.6616L109.963 95.9179V96.259V96.6006L110.054 96.8565V97.198L110.146 97.454V97.7951L109.596 98.8194L109.138 99.758L108.68 100.697L108.221 101.806L107.855 102.831L107.488 103.854L106.939 104.879L106.297 105.817V105.135L106.572 104.537L106.755 103.854L107.03 103.257L107.305 102.66L107.58 102.062L107.763 101.38L107.947 100.868L108.038 100.782L107.947 100.697L108.038 100.611L107.947 100.526L107.855 100.611L107.03 101.209L106.297 101.892L105.747 102.916L105.381 103.769L105.014 104.793L104.648 105.817L104.281 106.842L103.823 107.781L104.098 105.817L104.006 105.732L103.915 105.817H103.731L103.639 105.903L103.548 105.988L103.181 106.5L102.815 107.012L102.632 107.524L102.448 108.036L102.265 108.548L102.082 109.06L101.898 109.573L101.715 110.084L100.524 113.925V111.023L100.432 110.938L100.34 111.023L100.249 111.109L99.6989 112.986L99.1491 114.864L98.5077 116.827L97.8665 118.619L97.3164 120.496L96.6748 122.459L96.3084 124.337L96.0336 126.47L95.8503 127.153L95.7583 127.921L95.6669 128.518V129.201L95.5754 129.969L95.4835 130.567V131.249L95.3921 132.017V132.53V133.042V133.383V133.895V134.407V134.919L95.4835 135.346L95.5754 135.773L95.6669 137.224L95.7588 138.674L95.9417 140.04L96.1251 141.405L96.3084 142.771L96.4918 144.136L96.5834 145.587L96.6748 147.038L96.7666 147.123L96.8582 147.209L96.7666 147.294L96.8582 147.379L96.95 147.464L97.0416 147.379L97.133 147.464L97.2248 147.379L97.5912 147.038L98.1413 147.55L98.5995 148.147L99.0577 148.915L99.5159 149.513L100.157 150.11L100.707 150.622L101.532 151.049L102.448 151.219L102.906 151.305L103.548 151.39L104.006 151.475L104.648 151.561L105.106 151.646L105.564 151.732L106.205 151.817L106.663 151.902L107.947 152.414L109.229 152.926L110.513 153.438L111.795 154.121L112.987 154.718L114.086 155.572L115.186 156.425L116.011 157.364L115.553 157.449H115.186L114.728 157.364L114.27 157.279L113.811 157.194L113.353 157.108H112.987H112.437L111.704 156.938H110.787H110.054L109.229 157.023L108.588 157.108L107.763 157.194L107.03 157.364L106.206 157.449L102.173 159.156L101.99 158.815L101.898 158.388L101.807 157.791L101.715 157.364L101.532 156.852L101.44 156.425L101.165 155.999L100.799 155.487H100.615H100.432H100.249H100.066H99.8822L99.6993 155.657L99.6073 155.743L99.4241 155.913L99.8822 157.535L99.9742 159.156L99.7908 160.863L99.3325 162.485L98.6909 164.277L98.0494 165.898L97.3164 167.605L96.6748 169.226L96.4 170.166L96.0336 171.19L95.8503 172.214L95.6669 173.238V174.262V175.286L95.5754 176.225L95.6669 177.164L95.7583 177.249L95.6669 177.334V177.505L95.5754 177.59L95.6669 177.676L95.5754 177.761L95.6669 177.846L95.5754 177.932L95.4835 178.017L95.3921 177.932Z" fill="#856E64"/>
<path fill-rule="evenodd" clip-rule="evenodd" d="M95.2088 169.226L95.1172 169.141L95.0254 169.056L94.934 168.117L95.3922 167.52L94.934 165.557L95.0254 165.472L95.1172 165.386L95.2088 165.301L95.3006 165.386L95.3922 165.472L95.4836 165.557V165.727L95.5754 165.813L95.667 165.727H95.8504L95.667 164.362L95.8504 164.191L95.9418 164.106V163.935L96.0337 163.679V163.509V163.338L95.9418 163.253V163.082L95.8504 162.826L95.7584 162.57L95.7589 162.399L95.667 162.143V161.973L95.5754 161.717V161.546V161.375L95.667 161.29L95.7589 161.204L95.8504 161.29L95.9418 161.204L97.3165 164.362L97.2249 164.447L97.3165 164.533L97.2249 164.618L97.3165 164.704L97.2249 164.789V164.96L97.1331 165.045L97.0417 165.131L96.9501 165.045L96.8583 165.13L96.7667 165.045L96.6748 165.13L96.5834 165.045L96.4919 165.13L96.7667 166.581L96.0337 166.752V166.923V167.093L96.1252 167.179V167.349L96.2166 167.434L96.3085 167.52V167.69L95.667 168.288L95.8504 168.971L95.3006 169.141L95.2088 169.226Z" fill="black"/>
<path fill-rule="evenodd" clip-rule="evenodd" d="M97.4083 163.253L97.0416 162.911L96.3084 160.01L96.4 159.924L96.4918 159.839L96.5834 159.924L97.5912 161.717L97.6831 161.631L97.7746 161.546V161.034L97.5912 160.522L97.4083 160.01L97.3164 159.412L97.133 158.9L96.95 158.388V157.876L97.0416 157.279L98.4161 160.607L98.5995 160.266L98.6909 159.839L98.5995 159.412L98.5077 158.986L98.3247 158.474L98.2328 158.047V157.535L98.1413 157.108V156.938V156.767L98.0494 156.681V156.511V156.34L97.9579 156.255V156.084V155.913L98.1413 156.425L98.5077 156.938L98.7829 157.535L98.9659 158.218L99.1491 158.73L99.2407 159.327V160.01L99.1491 160.607L99.0577 160.693L99.1491 160.778L99.0577 160.863L98.9659 160.778L98.8743 160.863L98.7829 160.778L98.6909 160.693H98.5077L98.4161 160.778L98.5077 160.863V161.034V161.204L98.5995 161.29V161.461V161.631L98.5077 161.717V161.888L98.3247 162.058L98.2328 162.143L98.1413 162.058H97.9579L97.8665 161.973L97.7746 162.058L97.6831 162.143L97.7746 162.229V162.399L97.8665 162.485L97.9579 162.57V162.741V162.911V163.082L97.4997 163.338L97.4083 163.253Z" fill="black"/>
<path fill-rule="evenodd" clip-rule="evenodd" d="M102.998 158.218L102.815 158.047L102.723 157.961L102.54 157.791L102.448 157.705L102.357 157.45L102.265 157.364L102.173 157.108V156.938L101.99 156.255L101.715 155.487L101.532 154.804L101.165 154.121L100.891 153.524L100.432 152.926L100.157 152.329L99.8822 151.732L99.9742 151.646H100.157L100.249 151.561L100.34 151.646H100.524L100.615 151.732L100.707 151.817L100.799 151.902L100.891 151.988L100.982 152.073L101.073 151.988L101.165 151.902L101.257 151.988L101.349 151.902L101.44 151.988L103.823 156.938L104.006 156.425V155.913L103.915 155.487L103.731 154.975V154.462L103.548 153.951L103.456 153.524V153.012L103.548 152.926L103.639 152.841L103.915 153.268L104.098 153.78L104.281 154.292L104.464 154.804L104.556 155.402L104.739 155.913V156.425V156.938L104.831 157.023L104.739 157.108L104.831 157.194L104.739 157.279V157.45L104.648 157.535L104.556 157.62H104.373L104.281 157.705L104.189 157.62L104.098 157.535L104.006 157.45L103.915 157.364L103.823 157.279H103.639V157.45L103.548 157.535V157.705L103.456 157.791L103.365 158.047L103.273 158.132L103.181 158.218L103.09 158.132L102.998 158.218Z" fill="black"/>
<path fill-rule="evenodd" clip-rule="evenodd" d="M105.931 157.194L105.839 157.279L105.748 157.194L105.656 157.108L105.564 157.023V156.852L105.472 156.767V156.596L105.564 156.511V153.78L105.839 153.865L105.931 153.95V154.121L106.114 154.292V154.462V154.633L106.205 154.889L106.297 154.975L106.481 156.852L106.022 157.279L105.931 157.194Z" fill="black"/>
<path fill-rule="evenodd" clip-rule="evenodd" d="M99.516 154.121L98.783 152.414V152.244L98.8744 152.158L98.783 152.073L99.9742 154.036L99.8822 154.121L99.7908 154.207H99.6074L99.516 154.121Z" fill="black"/>
<path fill-rule="evenodd" clip-rule="evenodd" d="M107.58 156.852L107.488 156.767L107.397 156.681L107.305 156.596L107.58 154.462H107.763L107.855 154.548L107.947 154.633L108.496 155.657L108.588 155.743L108.68 155.657L108.863 155.487V155.316V155.145V154.975V154.804V154.633L108.954 154.548L109.046 154.292L109.138 154.377H109.321L109.413 154.633L109.505 154.889L109.596 155.145L109.688 155.401L109.688 155.572L109.688 155.913L109.596 156.169L109.413 156.34L109.321 156.425L109.229 156.511H109.046L108.954 156.425L108.863 156.511L108.772 156.425V156.255L108.68 156.169L108.588 156.084L108.496 155.999L108.13 156.681L108.038 156.767H107.855L107.763 156.852L107.672 156.767L107.58 156.852Z" fill="black"/>
<path fill-rule="evenodd" clip-rule="evenodd" d="M110.696 156.34L110.604 156.255L110.513 156.34L110.421 156.255L110.329 156.169L110.238 156.084V155.913L110.146 155.828V155.657L110.787 154.548L110.879 154.462L110.971 154.548L111.154 156.084L110.879 156.34H110.696Z" fill="black"/>
<path fill-rule="evenodd" clip-rule="evenodd" d="M112.345 156.681L112.253 156.596L112.162 156.511L112.07 156.425L112.162 156.34V156.169V155.999L112.254 155.913L112.345 155.657L112.437 155.572L112.529 155.487L112.62 155.402L112.712 155.316L112.804 155.402L112.895 155.487L112.987 155.402L113.078 155.487L113.17 155.572L113.262 155.657V155.828L113.17 155.913V156.084L113.078 156.169V156.34L112.987 156.425L112.895 156.511L112.804 156.596H112.62L112.529 156.681H112.345Z" fill="black"/>
<path fill-rule="evenodd" clip-rule="evenodd" d="M92.5514 130.396L92.4594 130.311V130.14L92.368 130.054L92.4594 129.969L92.5514 129.884L92.6428 129.799L92.7344 129.713L92.8263 129.628L92.9177 129.543L93.0097 129.628L93.1011 129.543L93.3759 129.969L93.4677 130.054L93.3759 130.14V130.311L93.2845 130.396L93.1925 130.481H92.6428L92.5514 130.396Z" fill="black"/>
<path fill-rule="evenodd" clip-rule="evenodd" d="M92.368 128.86L92.2764 128.775L92.1846 128.689L92.0932 128.604L92.0012 128.689V128.518L91.9098 128.433L92.0012 128.348L91.9098 128.262L92.0012 128.177L91.9098 128.092L92.0012 128.007L92.0932 127.921L92.1846 127.836H92.368L92.4594 127.921H92.6428L92.7344 128.007L92.8262 128.092L92.7344 128.177L92.8262 128.262V128.433L92.7344 128.518V128.689L92.6428 128.774L92.5514 128.86L92.4594 128.774L92.368 128.86Z" fill="black"/>
<path fill-rule="evenodd" clip-rule="evenodd" d="M91.7264 127.238L91.6349 127.153V126.982L91.5431 126.897L91.6349 126.811L91.7264 126.726L91.8183 126.641L91.9098 126.555L92.0012 126.641H92.1846L92.2764 126.726L92.368 126.811V126.982L92.0012 127.324L91.9098 127.238L91.8179 127.324L91.7264 127.238Z" fill="black"/>
<path fill-rule="evenodd" clip-rule="evenodd" d="M91.3602 125.361L91.2682 125.275L91.1768 125.19L91.0849 125.105L90.9933 125.019L91.0849 124.934L90.9933 124.849V124.678L91.0849 124.593V124.422L91.1768 124.507L91.2682 124.422L91.3602 124.337L91.4516 124.422L91.5431 124.337L91.635 124.422L91.7264 124.337L91.8179 124.422L91.9098 124.507L91.8184 125.105L91.3602 125.361Z" fill="black"/>
<path fill-rule="evenodd" clip-rule="evenodd" d="M90.6267 122.971L89.8021 122.032L89.8936 121.606L89.8021 121.179L89.7107 120.752L89.5273 120.24L89.4354 119.813V119.472V118.96L89.5273 118.533L89.6187 118.448L89.7107 118.533L89.8021 118.619L89.7107 118.704L89.8021 118.789L89.9855 119.984L91.4516 122.374L91.3602 122.459L91.4516 122.545L91.3602 122.63L91.2682 122.715V122.886L91.1768 122.971L91.0849 122.886H90.9019L90.8099 122.971L90.7185 122.886L90.6267 122.971Z" fill="black"/>
<path fill-rule="evenodd" clip-rule="evenodd" d="M92.4594 121.776L92.368 121.691L92.2764 121.606L92.4594 119.216L93.0096 116.997L93.7426 114.778L94.8423 112.73L96.0336 110.767L97.4083 108.804L98.7829 106.842L100.249 104.964L100.891 104.196L101.624 103.513L102.357 102.66L102.998 101.892L103.731 101.209L104.373 100.441L104.922 99.758L105.472 98.9045L105.747 98.6486L105.93 98.3074L106.114 98.1367L106.297 97.7951L106.481 97.6248L106.755 97.3684L106.847 97.1125L107.122 96.8565L107.214 96.7713H107.397H107.58L107.672 96.8565L107.763 96.9417L107.855 97.0273L107.947 97.1125L107.855 97.198L107.947 97.2833L107.855 97.3684L107.947 97.454L107.58 98.4778L107.03 99.5021L106.481 100.356L105.747 101.209L105.014 102.233L104.281 103.087L103.456 103.854L102.723 104.708L102.448 105.135L101.99 105.561L101.715 105.988L101.349 106.329L100.982 106.671L100.615 107.183L100.249 107.524L99.9742 107.951L98.5995 109.573L97.3164 111.109L96.217 112.816L95.2087 114.437L94.3841 116.229L93.5592 118.021L92.9176 119.984L92.5514 121.862L92.4594 121.776Z" fill="black"/>
<path fill-rule="evenodd" clip-rule="evenodd" d="M90.6267 119.899L90.2603 119.216L90.1684 118.619L89.9855 117.936V117.253L90.0769 116.485V115.802L90.1684 115.035V114.352L90.2603 114.266L90.1684 114.181L90.2603 114.096L90.3518 114.01L90.4437 113.925L90.5351 114.01L90.6267 113.925H90.8099L90.9019 113.839L91.2681 111.109L91.3601 111.706L91.4515 112.303L91.3601 112.901L91.4515 113.498L91.5431 114.096V114.608V115.29L91.7263 115.803V115.973L91.6349 116.059L91.5431 116.144L91.6349 116.229L91.5431 116.315V116.485V116.656L91.4515 116.741L91.3601 116.656L91.2681 116.741L91.1767 116.656H90.9933H90.8099V116.997L90.7185 117.424V117.766L90.8099 118.192L90.9019 118.448L90.9933 118.875L91.0849 119.302L91.1767 119.728L91.0849 119.814L90.9933 119.899L90.5351 119.984L90.6267 119.899Z" fill="black"/>
<path fill-rule="evenodd" clip-rule="evenodd" d="M98.4161 120.155L98.5076 119.728L98.5995 119.814L98.5076 119.899L98.5995 119.984L98.5076 120.069L98.4161 120.155Z" fill="#856E64"/>
<path fill-rule="evenodd" clip-rule="evenodd" d="M92.2762 113.583L92.0012 112.986L92.368 108.207H92.5514L92.6428 108.292L92.7344 108.378L92.6428 108.463L92.7344 108.548V112.816L92.6428 112.901L92.7344 112.986L92.8263 113.072L92.9177 113.157L92.8263 113.242L92.9177 113.328L92.8263 113.413L92.368 113.669L92.2762 113.583Z" fill="black"/>
<path fill-rule="evenodd" clip-rule="evenodd" d="M101.257 114.608L103.365 108.89V109.231L103.273 109.658L103.181 110.084L102.998 110.426L102.906 110.853L102.723 111.194L102.632 111.621V111.962L102.448 112.303L102.265 112.645L102.173 113.072L101.99 113.413L101.807 113.754L101.715 114.01L101.532 114.352L101.349 114.693L101.257 114.608Z" fill="#856E64"/>
<path fill-rule="evenodd" clip-rule="evenodd" d="M93.6506 111.109L93.5592 111.023L93.4677 110.938L93.3758 110.853L93.2844 110.767V110.084V109.402V108.719V107.866L93.3758 107.097L93.5592 106.415V105.732L93.6506 104.964L93.7426 104.879L93.6506 104.793L93.7426 104.708L93.6506 104.623L93.7426 104.537V104.367H93.9259L94.0175 104.452L94.4757 110.853L94.3841 110.938V111.109L94.2923 111.194L93.6506 111.109Z" fill="black"/>
<path fill-rule="evenodd" clip-rule="evenodd" d="M94.7505 108.548V107.695V106.842L94.8423 106.074V105.22L94.9339 104.281L95.1171 103.428L95.3006 102.574L95.5754 101.636L95.6669 101.55L95.7588 101.636L95.6669 101.721L95.7588 101.806L95.5754 108.634L94.7505 108.548Z" fill="black"/>
<path fill-rule="evenodd" clip-rule="evenodd" d="M97.0416 106.756L96.95 106.671L96.8582 106.586L96.7666 106.671L96.6748 106.586L96.5834 106.5L96.4918 106.415L96.4 106.33L96.3084 105.391V104.367L96.4 103.257L96.4918 102.318L96.5834 101.209L96.7666 100.185L97.0416 99.0754L97.2248 98.0511L97.3164 97.966L97.4083 97.8808L97.4997 97.966L97.5912 98.0515L97.6831 98.1368L97.4997 99.1609L97.4083 100.27L97.3164 101.209L97.2248 102.318V103.343V104.367L97.3164 105.305L97.5912 106.244L97.6831 106.33L97.5912 106.415V106.586L97.0416 106.756Z" fill="black"/>
<path fill-rule="evenodd" clip-rule="evenodd" d="M98.4161 104.623L98.3247 104.537L98.2328 104.452L98.3247 104.367L98.0494 102.916V101.38L98.2328 99.8436L98.4161 98.3074L98.7829 96.7713L99.1491 95.0645L99.516 93.5283L99.6993 91.9918L99.7908 91.9066L99.8822 91.8214L99.9742 91.7358L100.066 91.8214L100.157 91.9066L99.1491 104.623L99.0577 104.708L98.9659 104.623L98.8743 104.708L98.7829 104.623H98.5995H98.4161Z" fill="black"/>
<path fill-rule="evenodd" clip-rule="evenodd" d="M69.458 90.2853L69.3666 90.1997L69.2746 90.1145V89.9438L69.2751 89.773L69.3666 89.6878L69.458 89.6022L69.5499 89.517L69.6414 89.4318L69.7328 89.517L69.8248 89.4318L69.9162 89.517L70.0081 89.6022L70.0996 89.6878L70.191 89.773L70.2829 89.8585L70.3745 89.9438L72.1158 87.8101L72.2073 88.066L72.1158 88.3224L72.0239 88.5784L71.841 88.9195L71.6576 89.2611L71.4741 89.6022L71.2909 89.9438L71.1075 90.2853L71.0161 90.3705L70.9245 90.2853L70.8327 90.1997H70.6493L70.5578 90.1145L69.458 90.2853Z" fill="black"/>
<path fill-rule="evenodd" clip-rule="evenodd" d="M79.3552 93.8694L79.2638 93.4428L79.0804 93.1016L78.9885 92.6749L78.8056 92.3334L78.7137 91.9066L78.5303 91.5655L78.1639 91.224L77.7059 90.968L77.4309 90.8824H77.2476L76.9727 90.7972H76.7894H76.606L76.3312 90.712H76.1478H75.9644H75.7814H75.5982L75.5062 90.7972L75.4148 90.712L75.3234 90.7972L75.2314 90.712L75.14 90.6265L75.0481 90.5412L75.14 89.9438L75.3234 89.4318L75.5062 88.7492L75.6896 88.2369L76.0564 87.725L76.4226 87.2128L76.7894 86.7007L77.2476 86.274L77.3391 86.1889L77.4309 86.274L77.5225 86.3593L77.2476 86.786L77.0642 87.2983L76.7894 87.725L76.5146 88.1517L76.3312 88.6636L76.1478 89.1759L76.0564 89.6022V90.1145L76.1478 90.1997L76.2394 90.1145L76.606 89.6022L76.9727 88.9195L77.2476 88.3224L77.7059 87.725L77.9807 87.1275L78.5303 86.6156L78.9885 86.0181L79.7216 85.5062L77.6139 89.6878L77.7059 89.773L77.7973 89.8586L77.8891 89.9438L78.3474 89.8586L78.7137 89.3463L78.9885 88.7492L79.3552 88.2369L79.6302 87.6393L79.9968 87.1275L80.4551 86.5299L80.9133 86.1034L81.3715 85.6766L79.4468 89.3463L79.5386 89.4318L79.905 88.9195L80.2716 88.4077L80.5465 87.8101L80.9133 87.2983L81.3715 86.8715L81.7377 86.3597L82.2879 85.8473L82.8376 85.5058L82.929 85.5913L83.021 85.6766L82.5627 86.274L82.1959 86.7863L81.8297 87.2983L81.4629 87.8101L81.1881 88.4077L80.7299 89.0051L80.638 89.6022L80.3632 90.1997L80.2716 90.2853L80.3632 90.3705L80.4551 90.4557L80.638 90.2853L80.8214 90.1145V89.9438L80.9133 89.8586L81.0047 89.6022L81.0962 89.5171L81.1881 89.2611L81.2796 89.1755L81.5545 88.9195L81.7377 88.5785L81.9211 88.4077L82.1959 88.1517L82.4709 88.0661L82.7457 87.8101L82.929 87.6393L83.2039 87.5542L82.6541 88.2369L82.3793 89.0051L81.9211 89.773L81.6463 90.5412L81.2796 91.3947L80.9133 92.2482L80.638 93.016L80.2716 93.8694H80.0884H79.905L79.8134 93.9551H79.6302H79.4468L79.3552 93.8694Z" fill="black"/>
<path fill-rule="evenodd" clip-rule="evenodd" d="M72.1158 90.5412L72.0239 90.4557L71.9324 90.3705V90.1997L72.1158 89.6879L72.3906 89.0903L72.6654 88.6636L73.0322 88.1517L73.2152 87.6393L73.6734 87.2128L74.0401 86.8715L74.4983 86.6156L72.6654 90.3705L72.574 90.4557L72.4822 90.5412L72.3906 90.6265L72.2992 90.5412L72.2073 90.6265L72.1158 90.5412Z" fill="black"/>
<path fill-rule="evenodd" clip-rule="evenodd" d="M100.524 102.831L100.432 102.916L100.34 102.831L100.249 102.745L100.157 102.66V102.489V102.148L100.066 101.892V101.55L100.157 101.295L100.066 101.038V100.697L99.9742 100.441L100.157 99.2461L100.249 98.1367L100.432 96.9417L100.615 95.7471L100.799 94.5522L101.073 93.4428L101.257 92.2481L101.532 91.1387L101.624 91.0532L101.715 91.1387L101.807 91.224L101.073 102.66L100.615 102.916L100.524 102.831Z" fill="black"/>
<path fill-rule="evenodd" clip-rule="evenodd" d="M73.7652 90.5412L73.6733 90.4557L73.5818 90.3705V90.0289V89.6879L73.7652 89.3463L73.8566 89.0903L74.1316 88.8344L74.3148 88.4928L74.4068 88.2369L74.5898 87.8957L74.773 87.5542L74.9565 87.2128L75.2313 86.9567L75.3233 86.7007L75.5061 86.3593L75.7813 86.1034L76.0563 85.8473L76.2393 85.6767L74.4982 90.3705L73.8566 90.6265L73.7652 90.5412Z" fill="black"/>
<path fill-rule="evenodd" clip-rule="evenodd" d="M102.173 101.124L102.082 101.038L101.99 101.124L101.898 101.038L101.807 100.953L101.898 100.868L102.265 99.3312L102.54 97.8807V96.3445L102.723 94.8081L102.906 93.2719L103.09 91.7358L103.365 90.2852L103.731 88.7487L103.823 90.0289L103.731 91.4799V92.8452L103.639 94.2961L103.456 95.8322L103.365 97.2832L103.181 98.8194L103.09 100.27L102.998 100.355V100.526L102.906 100.611L102.815 100.697V100.868L102.723 100.953L102.632 101.038L102.54 101.124L102.448 101.209L102.357 101.124L102.265 101.209L102.173 101.124Z" fill="black"/>
<path fill-rule="evenodd" clip-rule="evenodd" d="M109.413 103.598L109.688 103.001L109.963 102.404L110.146 101.892L110.238 101.295L110.329 100.697L110.421 100.099L110.513 99.502L110.604 98.9045L111.612 100.185L109.413 103.598Z" fill="#856E64"/>
<path fill-rule="evenodd" clip-rule="evenodd" d="M118.21 107.183L117.844 105.817L117.386 104.537L116.652 103.513L115.828 102.404L115.095 101.38L114.27 100.27L113.628 99.1609L113.17 97.8807L113.262 97.7952L113.353 97.71V97.5392L113.903 98.2219L114.27 98.9046L114.82 99.5877L115.369 100.27L115.919 100.953L116.469 101.636L116.927 102.233L117.386 103.001L117.569 103.513V104.025L117.844 104.623L118.027 105.135V105.647L118.21 106.159L118.302 106.756L118.302 107.268L118.21 107.183Z" fill="#856E64"/>
<path fill-rule="evenodd" clip-rule="evenodd" d="M104.373 98.7341H104.189L104.098 98.6485L104.006 98.5633V97.5391L104.098 96.4297L104.281 95.2348L104.373 94.1254L104.556 92.9308L104.739 91.7358L104.923 90.5412L105.106 89.3462L105.289 88.8343L105.472 88.1516L105.564 87.5541L105.747 86.8715L105.839 86.2739L106.022 85.5913L106.206 85.0794L106.481 84.4819V84.9939V85.5061L106.389 85.9329L106.205 86.4447L106.206 86.9566L106.114 87.3833V87.8956V88.4076L105.931 89.6021L105.747 90.7972L105.564 91.9917L105.381 93.1867L105.197 94.3817L105.014 95.5763L104.923 96.6857L104.831 97.9659L104.739 98.051L104.831 98.1367L104.739 98.2218V98.3926V98.5633L104.648 98.6485L104.556 98.7341L104.464 98.8193L104.373 98.7341Z" fill="black"/>
<path fill-rule="evenodd" clip-rule="evenodd" d="M106.481 96.6006L106.389 96.5149L106.297 96.4298L106.206 96.3446L106.114 96.259V95.2352V94.211L106.297 93.016L106.389 91.9066L106.663 90.7972L106.847 89.6022L107.122 88.4928L107.397 87.3834L107.672 86.9566L107.763 86.5299L107.855 86.1034L107.947 85.6766L108.221 85.2499L108.313 84.8232L108.405 84.3964L108.588 84.0552L108.68 83.9696L108.771 83.8846L108.863 83.9696L108.954 83.8846L108.772 85.2499L108.496 86.5299L108.13 87.8957L107.855 89.1759L107.488 90.5412L107.305 91.9066L107.122 93.272V94.6377L107.03 94.8937L107.122 95.1496L107.03 95.4055L107.122 95.6616L107.03 95.9179L106.939 96.1739L106.755 96.3446L106.663 96.6006L106.572 96.5149L106.481 96.6006Z" fill="black"/>
<path fill-rule="evenodd" clip-rule="evenodd" d="M108.863 95.0645L108.771 95.1496L108.68 95.0645L108.588 94.9788L108.496 94.8937L108.405 94.8085L108.313 94.8937L108.313 94.7229L108.221 94.6377L108.405 93.1016L108.588 91.5655L108.863 89.9438L109.229 88.2368L109.688 86.6156L110.238 85.0794L110.787 83.5429L111.429 82.0923L111.52 82.0068L111.612 81.9217L111.704 82.0068L111.795 82.0923L111.704 82.1776L111.795 82.2631L111.429 83.287L111.062 84.3111L110.787 85.4205L110.512 86.5299L110.329 87.5542L110.054 88.6636L109.779 89.773L109.596 90.7972L109.505 91.3947V92.0773V92.5893V93.1016L109.596 93.6987L109.505 94.1254L109.321 94.6377L109.046 95.0645L108.954 95.1496L108.863 95.0645Z" fill="black"/>
<path fill-rule="evenodd" clip-rule="evenodd" d="M111.062 92.504L110.971 92.4185L110.879 92.3333L110.238 91.3946V90.8823L110.329 90.4556L110.513 89.9437V89.4318L110.696 88.9195L110.879 88.4076L110.971 87.9809L111.154 87.469L111.52 86.4447L111.979 85.5061L112.345 84.4819L112.804 83.3725L113.262 82.4334L113.72 81.4949L114.362 80.5563L114.911 79.7029L115.003 79.6171L115.095 79.5321L115.186 79.6171L113.811 83.1165L113.903 83.2017L113.995 83.287L113.72 83.8845L113.537 84.3964L113.262 84.9939L113.078 85.5061L112.895 86.018L112.712 86.7007L112.529 87.2127L112.437 87.8101L112.254 88.3224L112.162 88.9195V89.4318L111.979 89.9437L111.887 90.5412V91.0531V91.5654L111.979 91.9922V92.1625L111.887 92.2481L111.795 92.3333H111.612L111.52 92.4189H111.337L111.246 92.504H111.062Z" fill="black"/>
<path fill-rule="evenodd" clip-rule="evenodd" d="M114.086 89.6879L113.628 89.2611V89.0903L113.72 88.8344V88.4928L113.811 88.2369L113.903 87.9809L114.086 87.6394V87.2983L114.178 87.0423L114.545 86.3593L114.911 85.6767L115.278 84.994L115.553 84.3965L115.828 83.6285L116.102 82.8603L116.377 82.2632L116.744 81.5801L116.835 81.3241L117.019 81.1533V80.983L117.202 80.8123L117.386 80.6415V80.4707L117.568 80.2999L117.752 80.1297L117.294 81.2391L116.927 82.4335L116.469 83.5429L116.102 84.7379L115.644 85.8473L115.278 87.0423L114.911 88.2369L114.545 89.4318L114.453 89.5171L114.362 89.6022L114.27 89.6879H114.086Z" fill="black"/>
<path fill-rule="evenodd" clip-rule="evenodd" d="M116.744 87.8957L116.652 87.8101L116.561 87.8957V87.725L116.469 87.6393L116.744 86.3593L117.202 84.9086L117.66 83.6284L118.302 82.3484L118.943 81.0682L119.676 79.7029L120.41 78.5078L121.326 77.3133L121.418 77.2277L121.509 77.1424L120.959 78.3371L120.318 79.6171L119.768 80.8123L119.218 82.1776L118.668 83.5429L118.21 84.8232L117.844 86.1888L117.477 87.5542L117.386 87.6393L117.294 87.725L117.202 87.8101L117.11 87.8957L117.019 87.9809H116.835L116.744 87.8957Z" fill="black"/>
<path fill-rule="evenodd" clip-rule="evenodd" d="M119.585 86.1034L119.218 85.7621L119.31 85.1646L119.493 84.4819L119.768 83.8846L120.043 83.287L120.318 82.6894L120.684 82.1776L120.959 81.58L121.234 80.9829L121.692 80.5564L121.967 80.1296L122.242 79.7029L122.609 79.1904L122.884 78.7639L123.159 78.3371L123.434 77.9104L123.709 77.4837L123.525 78.1668L123.25 78.9345L122.976 79.7029L122.7 80.2998L122.426 81.0682L122.059 81.7509L121.784 82.5191L121.509 83.287L121.418 83.7138L121.143 84.1405L121.051 84.5672L120.959 84.994L120.684 85.4205L120.41 85.6766L120.043 86.018L119.676 86.1888L119.585 86.1034Z" fill="black"/>
<path fill-rule="evenodd" clip-rule="evenodd" d="M122.792 84.3111L122.7 84.226L122.609 84.1405L122.517 84.0552L122.334 83.7137L122.425 83.4578V83.1166L122.517 82.8603L122.7 82.519L122.792 82.2631L122.976 81.9217V81.58L123.434 80.9829L123.8 80.2998L124.167 79.6171L124.625 79.0202L124.991 78.5077L125.449 77.9104L126 77.3983L126.641 76.801L123.25 84.226L122.792 84.3111Z" fill="black"/>
<path fill-rule="evenodd" clip-rule="evenodd" d="M128.566 85.0794L128.199 84.9086L128.107 84.4819L128.199 84.0552L128.291 83.7992L128.566 83.3725L128.84 83.1165L129.115 82.6894L129.482 82.3484L129.757 82.0923L130.857 81.4096L132.139 80.8973L133.331 80.4706L134.522 80.0439L135.805 79.8735H137.088L138.462 79.9588L139.837 80.2147H140.02L140.295 80.2998L140.387 80.3855L140.662 80.4706L140.753 80.5563H140.937L141.12 80.7265H141.304L141.395 80.8123L141.486 80.8973V81.0682L141.212 81.3241L140.937 81.4096H140.57H140.204L139.745 81.4949L139.287 81.4096H138.921L138.462 81.3241L138.188 81.239L137.729 81.1533L137.455 81.239H137.088H136.721L136.447 81.3241H136.08L135.805 81.4096L135.072 81.58L134.43 81.8364L133.605 82.0923L132.964 82.3484L132.231 82.6894L131.498 83.0311L130.948 83.3725L130.307 83.7992L130.123 83.9696L129.94 84.1405L129.757 84.3111L129.573 84.4819L129.39 84.6527L129.299 84.9086L129.024 84.9939L128.84 85.1646L128.748 85.0794H128.566Z" fill="black"/>
<path fill-rule="evenodd" clip-rule="evenodd" d="M124.9 83.031L124.533 82.6894L125.083 81.8363L125.542 80.8973L126.183 79.9588L126.824 79.0202L127.466 78.081L128.107 77.1424L128.841 76.2889L129.574 75.4356L129.207 76.4598L128.749 77.3983L128.29 78.3371L127.833 79.2761L127.282 80.2998L126.733 81.1532L126.091 82.0923L125.358 82.9457L124.991 83.1161L124.9 83.031Z" fill="black"/>
<path fill-rule="evenodd" clip-rule="evenodd" d="M128.29 80.5563L128.199 80.4706L128.474 79.7029L128.749 79.1053L129.115 78.4227L129.482 77.74L129.94 77.1424L130.398 76.545L130.948 76.033L131.498 75.3504L131.59 75.4356L131.681 75.3504L131.773 75.2649L131.864 75.3504L131.956 75.4356L128.474 80.5563L128.382 80.4706L128.29 80.5563Z" fill="black"/>
<path fill-rule="evenodd" clip-rule="evenodd" d="M130.581 80.2998L130.49 80.2147L130.398 80.1296L130.673 79.5321L130.948 78.9345L131.315 78.4227L131.773 77.8251L132.323 77.3133L132.872 76.801L133.331 76.3743L133.881 75.8622H134.064L134.156 75.9475L134.247 76.033L134.156 76.1183L133.972 76.2889L133.881 76.545L133.697 76.7157L133.605 76.801L133.423 76.9716L133.239 77.1424L133.147 77.3983L132.781 77.74L132.506 78.1667L132.231 78.5935L131.956 79.0202L131.681 79.4468L131.406 79.7029L131.04 80.0439L130.581 80.2998Z" fill="black"/>
<path fill-rule="evenodd" clip-rule="evenodd" d="M133.514 78.7639L133.422 78.6785V78.5078V78.3371L133.514 78.081L133.697 77.9104L133.881 77.5692L134.064 77.3984L134.339 77.3133L134.522 77.1424L134.705 76.9716L134.98 76.7157L135.255 76.4598L135.53 76.2039L135.713 76.033L136.08 75.8622L136.263 75.6916L136.538 75.6063L136.629 75.6916L136.721 75.7772L136.355 76.1183L135.988 76.6306L135.713 77.0574L135.347 77.3984L134.98 77.9104L134.614 78.2518L134.064 78.5935L133.605 78.8494L133.514 78.7639Z" fill="black"/>
<path fill-rule="evenodd" clip-rule="evenodd" d="M135.988 78.1667L135.896 78.081L135.805 77.996L135.896 77.9104L135.805 77.8251V77.6544L135.896 77.5692V77.3983L135.988 77.3133L136.08 77.2277L136.447 76.8866L136.721 76.6306L137.088 76.4598L137.454 76.1183L137.821 75.9475L138.188 75.7772L138.554 75.6063L138.921 75.4357L136.171 78.1667L136.08 78.081L135.988 78.1667Z" fill="black"/>
<path fill-rule="evenodd" clip-rule="evenodd" d="M138.462 78.081L138.371 77.996L138.279 78.081L138.188 77.996L138.279 77.9104L138.188 77.8251L139.929 76.033L140.02 75.9475L140.112 76.033L138.738 78.1667L138.646 78.081L138.554 78.1667L138.462 78.081Z" fill="black"/>
<path fill-rule="evenodd" clip-rule="evenodd" d="M144.877 77.2278L144.785 77.1425L144.694 77.057V76.8866L144.602 76.8011V76.6307V76.4599L144.694 76.3743L144.785 76.1184L144.877 76.0331L144.969 75.9476L145.336 75.6063L145.702 75.4357L146.16 75.1796L146.527 75.009L146.985 74.9238L147.443 74.8382H147.81L148.268 74.9238H148.451L148.543 75.009L148.634 75.0941L148.726 75.1796L148.818 75.2649L148.909 75.3505L149.001 75.4357L149.093 75.5209L149.001 75.6063L148.909 75.6917L148.818 75.7772L148.726 75.8623L146.893 76.3743L146.527 76.8866L144.877 77.2278Z" fill="black"/>
</g>
</g>
<defs>
<clipPath id="clip0_1_5640">
<rect width="893" height="844" fill="white"/>
</clipPath>
<clipPath id="clip1_1_5640">
<rect width="892.855" height="843.706" fill="white" transform="translate(0.144775 0.294434)"/>
</clipPath>
</defs>
</svg>
