<svg width="76" height="76" viewBox="0 0 76 76" fill="none" xmlns="http://www.w3.org/2000/svg">
<path fill-rule="evenodd" clip-rule="evenodd" d="M-0.354492 -0.156171H75.6454V75.8438H-0.354492V-0.156171Z" fill="#E3000F"/>
<path d="M-0.354492 -0.156171H75.6454V75.8438H-0.354492V-0.156171Z" stroke="#1A1A18" stroke-width="0.288" stroke-miterlimit="22.9256"/>
<path d="M27.5464 29.9571L31.0933 20.1571C31.3294 19.4987 31.4519 19.0468 31.4519 18.8106C31.4519 18.3544 31.0844 18.1306 30.3543 18.1306H29.3704V17.1891C30.0418 17.2775 30.9749 17.3368 32.1783 17.3663C33.4195 17.3368 34.3527 17.2775 34.9691 17.1891V18.1772H34.4117C34.0446 18.1772 33.7574 18.253 33.5462 18.405C33.3353 18.5528 33.1704 18.7513 33.0438 19.0003C32.9172 19.2497 32.6976 19.735 32.3851 20.4614C32.0811 21.1497 31.6042 22.3066 30.9496 23.9364C30.295 25.562 29.6366 27.2424 28.9778 28.9692C28.3233 30.7002 27.8293 32.0683 27.5001 33.073H26.5586C26.2206 32.0978 25.8321 31.0463 25.393 29.9235C24.9542 28.8002 24.4855 27.6474 23.9915 26.4653C23.4975 25.2875 22.9737 24.0542 22.4166 22.7708C21.8591 21.4914 21.4241 20.4826 21.1119 19.7478C20.9387 19.2663 20.7529 18.8824 20.5586 18.6034C20.3643 18.3208 20.0857 18.1772 19.7183 18.1772H19.2119V17.1891C19.7818 17.3115 20.8122 17.4046 22.3024 17.4677C23.451 17.4129 24.3714 17.3369 25.0638 17.2398V18.2236H24.3331C23.9027 18.2236 23.5859 18.2701 23.375 18.3673C23.1638 18.4643 23.0371 18.6794 22.9907 19.009C23.0371 19.3298 23.1554 19.7138 23.341 20.153L27.5464 29.9571Z" fill="#1A1A18"/>
<path d="M32.4609 28.8129C32.4817 27.2422 32.6465 25.8446 32.9632 24.6159C33.2759 23.3871 33.8711 22.3696 34.7449 21.5631C35.6191 20.7569 36.8433 20.3389 38.4183 20.3049C39.0433 20.3049 39.5585 20.5585 39.9553 21.069C40.3564 21.5759 40.6477 22.2177 40.8251 22.9902C41.0023 23.7586 41.1036 24.561 41.1248 25.3929C41.1248 26.7818 40.9516 28.0359 40.6096 29.1633C40.2635 30.2908 39.6935 31.1982 38.8997 31.8865C38.106 32.5747 37.0675 32.9209 35.7835 32.9209H35.3024C34.6607 32.8449 34.1372 32.693 33.7316 32.4564C33.3264 32.2244 33.0139 31.8192 32.7901 31.2489C32.5705 30.6789 32.4609 29.8641 32.4609 28.8129ZM34.4116 27.6727C34.4116 28.5004 34.4535 29.2099 34.5381 29.8093C34.6224 30.4045 34.8255 30.9238 35.1463 31.363C35.4672 31.798 35.9525 32.0383 36.5943 32.0849C37.5868 32.0849 38.2957 31.5361 38.7183 30.4426C39.1405 29.3489 39.3515 28.0276 39.3515 26.4862V26.1276C39.3515 24.8229 39.1488 23.6743 38.7479 22.6822C38.3464 21.6901 37.688 21.1916 36.7673 21.1916C36.2016 21.2214 35.7457 21.6096 35.3995 22.3613C35.0533 23.1127 34.8084 23.9783 34.6648 24.9661C34.5212 25.95 34.4369 26.8538 34.4116 27.6727Z" fill="#1A1A18"/>
<path d="M43.9582 21.5465L42.3115 21.6224V20.5332L44.0641 20.5838L44.2118 18.1264L46.1413 17.6701L45.8374 20.5838L48.5269 20.5332L48.4763 21.5717L45.5838 21.5465C45.5373 21.6519 45.4571 24.0586 45.3559 28.7624C45.3559 29.5054 45.377 30.0712 45.4149 30.4593C45.453 30.8437 45.5585 31.1604 45.7315 31.3966C45.9089 31.6374 46.1837 31.764 46.5677 31.7811C46.593 31.7558 46.6141 31.7387 46.6353 31.7345C46.6523 31.7304 46.6647 31.7262 46.673 31.7262C47.2558 31.6714 47.7329 31.3925 48.1002 30.8944C48.4675 30.3921 48.6494 29.7162 48.6494 28.8677H49.363C49.363 29.6361 49.2151 30.3161 48.9279 30.9113C48.6407 31.5066 48.2314 31.9625 47.7075 32.2878C47.1841 32.6088 46.5763 32.769 45.8881 32.769C45.3347 32.769 44.849 32.6848 44.431 32.5116C44.0134 32.3385 43.7221 32.199 43.553 32.0849C43.5402 31.8105 43.5235 31.4012 43.5066 30.8649C43.4895 30.3285 43.473 29.9276 43.4559 29.6532C43.4937 27.9093 43.6585 25.2069 43.9582 21.5465Z" fill="#1A1A18"/>
<path d="M57.5708 28.3062L58.3561 28.4117C58.3561 28.7625 58.2502 29.2771 58.0436 29.953C57.8322 30.6324 57.406 31.2789 56.7558 31.8953C56.1054 32.5117 55.185 32.8198 53.9945 32.8198C53.1332 32.8198 52.4237 32.596 51.8662 32.1444C51.3092 31.6969 50.9036 31.097 50.6504 30.3416C50.3972 29.5898 50.2705 28.7537 50.2705 27.8293C50.3212 26.8579 50.4266 25.9459 50.5914 25.0974C50.7558 24.253 51.0136 23.4631 51.3557 22.733C51.7018 21.9982 52.1577 21.4113 52.7276 20.9638C53.2934 20.5162 53.9776 20.2796 54.78 20.2543C55.4765 20.2543 56.0381 20.3938 56.4686 20.6764C56.8949 20.9595 57.2033 21.3435 57.3889 21.8251C57.5749 22.3066 57.6678 22.8554 57.6678 23.4718C57.6678 23.9994 57.5665 24.7047 57.3636 25.5955C55.7044 26.1485 53.9522 26.5329 52.1153 26.7397C52.107 26.7397 52.0734 27.0351 52.0186 27.6263C52.1153 30.219 53.002 31.5533 54.6782 31.6292C55.1934 31.6292 55.6749 31.4855 56.1224 31.1942C56.5657 30.9027 56.9202 30.5146 57.178 30.0331C57.44 29.5519 57.5708 29.0452 57.5708 28.513V28.3062ZM52.217 25.9247L54.4504 25.5955C54.9784 25.4942 55.3918 25.224 55.6832 24.7848C55.9746 24.3498 56.1224 23.8434 56.1224 23.2647C56.1224 22.6105 56.0422 22.0572 55.8774 21.6097C55.7173 21.1622 55.3498 20.9385 54.78 20.9385C53.931 20.9595 53.2934 21.5423 52.8713 22.6906C52.4449 23.835 52.2125 24.8737 52.1664 25.8023C52.1872 25.8277 52.2 25.8575 52.2084 25.8782C52.2125 25.8994 52.217 25.9165 52.217 25.9247Z" fill="#1A1A18"/>
<path d="M39.405 55.7296L43.6059 61.5562C44.3914 62.6202 45.2863 63.1523 46.2914 63.1523H46.8235V64.1402C45.523 63.9713 44.3661 63.887 43.3527 63.887C42.2971 63.887 41.0685 63.9713 39.6583 64.1402V63.1523H41.0979C41.7903 63.1523 42.1365 62.9833 42.1365 62.65C42.1365 62.3923 41.9846 62.0631 41.6807 61.6575L38.3071 57.2241L35.3474 61.7081C35.1659 62.0248 35.0477 62.3037 34.9929 62.5441C35.0347 62.9833 35.5499 63.207 36.5379 63.207H37.53V64.1402C36.4366 64.0389 35.2967 63.9924 34.1103 63.9924C32.7126 63.9924 31.4627 64.056 30.3564 64.1909V63.2577C32.092 63.2577 33.3419 62.6919 34.1103 61.5562L37.775 56.3672L34.2074 51.6296C33.654 50.857 33.139 50.3249 32.6662 50.038C32.1934 49.7467 31.4839 49.5989 30.5341 49.5989V48.6109C31.581 48.7417 32.7762 48.8347 34.1103 48.8895C35.5076 48.8264 36.5632 48.7545 37.2767 48.6657V49.6494H36.2847C35.664 49.6494 35.3344 49.7761 35.2967 50.0339C35.3727 50.3295 35.5077 50.6162 35.7061 50.8906L38.7167 55.0456L40.9418 51.4735C41.3345 50.7936 41.5287 50.3461 41.5287 50.131C41.5287 49.7761 41.1991 49.5989 40.5407 49.5989H39.5022V48.6657C40.4308 48.767 41.4022 48.8388 42.4154 48.8895C43.5301 48.8388 44.5562 48.767 45.4806 48.6657V49.6494H44.9489C44.501 49.6494 44.1635 49.6831 43.9351 49.7549C43.7073 49.8226 43.5217 49.9409 43.3694 50.1012C43.2174 50.2618 42.9895 50.5698 42.6815 51.0301C42.3731 51.4905 42.0522 51.9339 41.7271 52.3644L39.405 55.7296Z" fill="#1A1A18"/>
</svg>
