<svg width="76" height="76" viewBox="0 0 76 76" fill="none" xmlns="http://www.w3.org/2000/svg">
<path fill-rule="evenodd" clip-rule="evenodd" d="M0.645508 0.324868H76.6454V76.3247H0.645508V0.324868Z" fill="#FFCC00"/>
<path d="M0.645508 0.324868H76.6454V76.3247H0.645508V0.324868Z" stroke="#1A1A18" stroke-width="0.288" stroke-miterlimit="22.9256"/>
<path d="M28.5464 30.4386L32.0933 20.6388C32.3294 19.9804 32.4519 19.5283 32.4519 19.2921C32.4519 18.8358 32.0844 18.6121 31.3543 18.6121H30.3704V17.6706C31.0418 17.7591 31.9749 17.8184 33.1783 17.8479C34.4195 17.8184 35.3527 17.7591 35.9691 17.6706V18.6586H35.4117C35.0446 18.6586 34.7574 18.7346 34.5462 18.8865C34.3353 19.0343 34.1704 19.2327 34.0438 19.4818C33.9172 19.7312 33.6976 20.2165 33.3851 20.943C33.0811 21.6313 32.6042 22.7881 31.9496 24.4178C31.295 26.0434 30.6366 27.7238 29.9778 29.4508C29.3233 31.1817 28.8293 32.5499 28.5001 33.5544H27.5586C27.2206 32.5794 26.8321 31.528 26.393 30.405C25.9542 29.2817 25.4855 28.129 24.9915 26.9467C24.4975 25.769 23.9737 24.5358 23.4166 23.2522C22.8591 21.9729 22.4241 20.9641 22.1119 20.2294C21.9387 19.7478 21.7529 19.3638 21.5586 19.085C21.3643 18.8022 21.0857 18.6586 20.7183 18.6586H20.2119V17.6706C20.7818 17.7931 21.8122 17.8861 23.3024 17.9491C24.451 17.8943 25.3714 17.8185 26.0638 17.7213V18.7052H25.3331C24.9027 18.7052 24.5859 18.7515 24.375 18.8487C24.1638 18.9458 24.0371 19.1609 23.9907 19.4905C24.0371 19.8114 24.1554 20.1954 24.341 20.6346L28.5464 30.4386Z" fill="#1A1A18"/>
<path d="M33.4609 29.2946C33.4817 27.7238 33.6465 26.3261 33.9632 25.0974C34.2759 23.8687 34.8711 22.8513 35.7449 22.0448C36.6191 21.2385 37.8433 20.8205 39.4183 20.7865C40.0433 20.7865 40.5585 21.04 40.9553 21.5507C41.3564 22.0575 41.6477 22.6992 41.8251 23.4718C42.0023 24.2402 42.1036 25.0426 42.1248 25.8744C42.1248 27.2634 41.9516 28.5176 41.6096 29.645C41.2635 30.7724 40.6935 31.6798 39.8997 32.3681C39.106 33.0563 38.0675 33.4026 36.7835 33.4026H36.3024C35.6607 33.3266 35.1372 33.1746 34.7316 32.9381C34.3264 32.7059 34.0139 32.3009 33.7901 31.7305C33.5705 31.1605 33.4609 30.3457 33.4609 29.2946ZM35.4116 28.1543C35.4116 28.982 35.4535 29.6914 35.5381 30.2909C35.6224 30.8861 35.8255 31.4054 36.1463 31.8446C36.4672 32.2796 36.9525 32.5201 37.5943 32.5665C38.5868 32.5665 39.2957 32.0176 39.7183 30.9243C40.1405 29.8304 40.3515 28.5091 40.3515 26.9679V26.6093C40.3515 25.3045 40.1488 24.156 39.7479 23.1638C39.3464 22.1717 38.688 21.6731 37.7673 21.6731C37.2016 21.703 36.7457 22.0911 36.3995 22.8429C36.0533 23.5943 35.8084 24.4598 35.6648 25.4478C35.5212 26.4316 35.4369 27.3352 35.4116 28.1543Z" fill="#1A1A18"/>
<path d="M44.9582 22.028L43.3115 22.104V21.0146L45.0641 21.0653L45.2118 18.6078L47.1413 18.1517L46.8374 21.0653L49.5269 21.0146L49.4763 22.0533L46.5838 22.028C46.5373 22.1335 46.4571 24.5402 46.3559 29.2438C46.3559 29.9869 46.377 30.5527 46.4149 30.9409C46.453 31.3252 46.5585 31.642 46.7315 31.8781C46.9089 32.1189 47.1837 32.2456 47.5677 32.2625C47.593 32.2372 47.6141 32.2203 47.6353 32.2161C47.6523 32.2119 47.6647 32.2077 47.673 32.2077C48.2558 32.1529 48.7329 31.8739 49.1002 31.3758C49.4675 30.8735 49.6494 30.1978 49.6494 29.3493H50.363C50.363 30.1177 50.2151 30.7976 49.9279 31.3929C49.6407 31.9881 49.2314 32.444 48.7075 32.7694C48.1841 33.0902 47.5763 33.2505 46.8881 33.2505C46.3347 33.2505 45.849 33.1662 45.431 32.9932C45.0134 32.82 44.7221 32.6805 44.553 32.5664C44.5402 32.292 44.5235 31.8826 44.5066 31.3464C44.4895 30.8101 44.473 30.4091 44.4559 30.1347C44.4937 28.3908 44.6585 25.6884 44.9582 22.028Z" fill="#1A1A18"/>
<path d="M58.5708 28.7878L59.3561 28.8931C59.3561 29.2439 59.2502 29.7588 59.0436 30.4345C58.8322 31.1141 58.406 31.7603 57.7558 32.3767C57.1054 32.9932 56.185 33.3013 54.9945 33.3013C54.1332 33.3013 53.4237 33.0775 52.8662 32.6258C52.3092 32.1783 51.9036 31.5786 51.6504 30.823C51.3972 30.0713 51.2705 29.2352 51.2705 28.3107C51.3212 27.3394 51.4266 26.4274 51.5914 25.5789C51.7558 24.7346 52.0136 23.9446 52.3557 23.2144C52.7018 22.4796 53.1577 21.8927 53.7276 21.4452C54.2934 20.9978 54.9776 20.7611 55.78 20.7358C56.4765 20.7358 57.0381 20.8752 57.4686 21.158C57.8949 21.4411 58.2033 21.8251 58.3889 22.3066C58.5749 22.788 58.6678 23.3368 58.6678 23.9534C58.6678 24.481 58.5665 25.1862 58.3636 26.077C56.7044 26.6301 54.9522 27.0143 53.1153 27.2211C53.107 27.2211 53.0734 27.5168 53.0186 28.1078C53.1153 30.7006 54.002 32.0348 55.6782 32.1108C56.1934 32.1108 56.6749 31.9672 57.1224 31.6757C57.5657 31.3844 57.9202 30.996 58.178 30.5146C58.44 30.0335 58.5708 29.5266 58.5708 28.9945V28.7878ZM53.217 26.4062L55.4504 26.077C55.9784 25.9758 56.3918 25.7056 56.6832 25.2664C56.9746 24.8313 57.1224 24.3248 57.1224 23.7462C57.1224 23.0919 57.0422 22.5387 56.8774 22.0911C56.7173 21.6437 56.3498 21.4199 55.78 21.4199C54.931 21.4411 54.2934 22.0239 53.8713 23.172C53.4449 24.3166 53.2125 25.3551 53.1664 26.2838C53.1872 26.3091 53.2 26.339 53.2084 26.3598C53.2125 26.381 53.217 26.3979 53.217 26.4062Z" fill="#1A1A18"/>
<path d="M40.405 56.2112L44.6059 62.0377C45.3914 63.1015 46.2863 63.6337 47.2914 63.6337H47.8235V64.6217C46.523 64.4528 45.3661 64.3685 44.3527 64.3685C43.2971 64.3685 42.0685 64.4528 40.6583 64.6217V63.6337H42.0979C42.7903 63.6337 43.1365 63.4648 43.1365 63.1314C43.1365 62.8737 42.9846 62.5445 42.6807 62.1389L39.3071 57.7056L36.3474 62.1896C36.1659 62.5064 36.0477 62.7853 35.9929 63.0256C36.0347 63.4648 36.5499 63.6885 37.5379 63.6885H38.53V64.6217C37.4366 64.5204 36.2967 64.474 35.1103 64.474C33.7126 64.474 32.4627 64.5374 31.3564 64.6724V63.7392C33.092 63.7392 34.3419 63.1734 35.1103 62.0377L38.775 56.8488L35.2074 52.1112C34.654 51.3386 34.139 50.8064 33.6662 50.5196C33.1934 50.2281 32.4839 50.0804 31.5341 50.0804V49.0924C32.581 49.2232 33.7762 49.3161 35.1103 49.3709C36.5076 49.3079 37.5632 49.236 38.2767 49.1472V50.131H37.2847C36.664 50.131 36.3344 50.2576 36.2967 50.5155C36.3727 50.8109 36.5077 51.0978 36.7061 51.3722L39.7167 55.527L41.9418 51.9551C42.3345 51.2751 42.5287 50.8276 42.5287 50.6125C42.5287 50.2576 42.1991 50.0804 41.5407 50.0804H40.5022V49.1472C41.4308 49.2485 42.4022 49.3203 43.4154 49.3709C44.5301 49.3203 45.5562 49.2485 46.4806 49.1472V50.131H45.9489C45.501 50.131 45.1635 50.1646 44.9351 50.2365C44.7073 50.3041 44.5217 50.4224 44.3694 50.5827C44.2174 50.7433 43.9895 51.0513 43.6815 51.5117C43.3731 51.972 43.0522 52.4153 42.7271 52.8459L40.405 56.2112Z" fill="#1A1A18"/>
</svg>
