<svg width="76" height="76" viewBox="0 0 76 76" fill="none" xmlns="http://www.w3.org/2000/svg">
<path fill-rule="evenodd" clip-rule="evenodd" d="M-0.354492 0.156166H75.6454V76.1565H-0.354492V0.156166Z" fill="#478779"/>
<path d="M-0.354492 0.156166H75.6454V76.1565H-0.354492V0.156166Z" stroke="#1A1A18" stroke-width="0.288" stroke-miterlimit="22.9256"/>
<path d="M27.5464 30.27L31.0933 20.47C31.3294 19.8116 31.4519 19.3596 31.4519 19.1233C31.4519 18.6672 31.0844 18.4434 30.3543 18.4434H29.3704V17.502C30.0418 17.5904 30.9749 17.6497 32.1783 17.6792C33.4195 17.6497 34.3527 17.5904 34.9691 17.502V18.4898H34.4117C34.0446 18.4898 33.7574 18.5659 33.5462 18.7179C33.3353 18.8656 33.1704 19.064 33.0438 19.3131C32.9172 19.5625 32.6976 20.0479 32.3851 20.7743C32.0811 21.4625 31.6042 22.6195 30.9496 24.2492C30.295 25.8747 29.6366 27.555 28.9778 29.282C28.3233 31.0129 27.8293 32.3812 27.5001 33.3857H26.5586C26.2206 32.4107 25.8321 31.3592 25.393 30.2362C24.9542 29.113 24.4855 27.9603 23.9915 26.778C23.4975 25.6003 22.9737 24.367 22.4166 23.0836C21.8591 21.8041 21.4241 20.7954 21.1119 20.0606C20.9387 19.5792 20.7529 19.1952 20.5586 18.9163C20.3643 18.6335 20.0857 18.4898 19.7183 18.4898H19.2119V17.502C19.7818 17.6244 20.8122 17.7173 22.3024 17.7805C23.451 17.7257 24.3714 17.6497 25.0638 17.5525V18.5364H24.3331C23.9027 18.5364 23.5859 18.5829 23.375 18.68C23.1638 18.7772 23.0371 18.9922 22.9907 19.3217C23.0371 19.6426 23.1554 20.0266 23.341 20.4658L27.5464 30.27Z" fill="#1A1A18"/>
<path d="M32.4609 29.1258C32.4817 27.555 32.6465 26.1574 32.9632 24.9286C33.2759 23.7 33.8711 22.6825 34.7449 21.876C35.6191 21.0698 36.8433 20.6517 38.4183 20.6177C39.0433 20.6177 39.5585 20.8713 39.9553 21.382C40.3564 21.8888 40.6477 22.5306 40.8251 23.3031C41.0023 24.0714 41.1036 24.8739 41.1248 25.7057C41.1248 27.0948 40.9516 28.3488 40.6096 29.4762C40.2635 30.6037 39.6935 31.5112 38.8997 32.1993C38.106 32.8876 37.0675 33.2339 35.7835 33.2339H35.3024C34.6607 33.1579 34.1372 33.006 33.7316 32.7693C33.3264 32.5373 33.0139 32.1321 32.7901 31.5617C32.5705 30.9918 32.4609 30.1769 32.4609 29.1258ZM34.4116 27.9856C34.4116 28.8133 34.4535 29.5227 34.5381 30.1222C34.6224 30.7175 34.8255 31.2368 35.1463 31.6759C35.4672 32.1109 35.9525 32.3513 36.5943 32.3979C37.5868 32.3979 38.2957 31.8491 38.7183 30.7556C39.1405 29.6619 39.3515 28.3405 39.3515 26.7992V26.4405C39.3515 25.1358 39.1488 23.9872 38.7479 22.995C38.3464 22.0029 37.688 21.5044 36.7673 21.5044C36.2016 21.5343 35.7457 21.9225 35.3995 22.6742C35.0533 23.4256 34.8084 24.2911 34.6648 25.2791C34.5212 26.2629 34.4369 27.1665 34.4116 27.9856Z" fill="#1A1A18"/>
<path d="M43.9582 21.8595L42.3115 21.9355V20.8461L44.0641 20.8968L44.2118 18.4394L46.1413 17.9832L45.8374 20.8968L48.5269 20.8461L48.4763 21.8848L45.5838 21.8595C45.5373 21.9649 45.4571 24.3718 45.3559 29.0754C45.3559 29.8184 45.377 30.3842 45.4149 30.7724C45.453 31.1568 45.5585 31.4735 45.7315 31.7097C45.9089 31.9504 46.1837 32.0771 46.5677 32.0942C46.593 32.0688 46.6141 32.0517 46.6353 32.0476C46.6523 32.0435 46.6647 32.0393 46.673 32.0393C47.2558 31.9844 47.7329 31.7056 48.1002 31.2074C48.4675 30.7051 48.6494 30.0294 48.6494 29.1808H49.363C49.363 29.9492 49.2151 30.6291 48.9279 31.2244C48.6407 31.8198 48.2314 32.2754 47.7075 32.6009C47.1841 32.9217 46.5763 33.082 45.8881 33.082C45.3347 33.082 44.849 32.9978 44.431 32.8247C44.0134 32.6516 43.7221 32.5122 43.553 32.398C43.5402 32.1236 43.5235 31.7143 43.5066 31.1779C43.4895 30.6416 43.473 30.2405 43.4559 29.9661C43.4937 28.2223 43.6585 25.52 43.9582 21.8595Z" fill="#1A1A18"/>
<path d="M57.5708 28.6191L58.3561 28.7246C58.3561 29.0753 58.2502 29.5901 58.0436 30.2658C57.8322 30.9454 57.406 31.5916 56.7558 32.2082C56.1054 32.8246 55.185 33.1326 53.9945 33.1326C53.1332 33.1326 52.4237 32.9089 51.8662 32.4573C51.3092 32.0097 50.9036 31.4099 50.6504 30.6543C50.3972 29.9026 50.2705 29.0666 50.2705 28.1421C50.3212 27.1708 50.4266 26.2587 50.5914 25.4103C50.7558 24.5659 51.0136 23.7761 51.3557 23.0458C51.7018 22.3112 52.1577 21.7241 52.7276 21.2766C53.2934 20.8291 53.9776 20.5925 54.78 20.5673C55.4765 20.5673 56.0381 20.7068 56.4686 20.9894C56.8949 21.2725 57.2033 21.6565 57.3889 22.1379C57.5749 22.6195 57.6678 23.1683 57.6678 23.7847C57.6678 24.3123 57.5665 25.0175 57.3636 25.9084C55.7044 26.4614 53.9522 26.8458 52.1153 27.0525C52.107 27.0525 52.0734 27.3481 52.0186 27.9391C52.1153 30.5319 53.002 31.8661 54.6782 31.9421C55.1934 31.9421 55.6749 31.7985 56.1224 31.507C56.5657 31.2157 56.9202 30.8275 57.178 30.3459C57.44 29.8649 57.5708 29.358 57.5708 28.8258V28.6191ZM52.217 26.2376L54.4504 25.9084C54.9784 25.8071 55.3918 25.5369 55.6832 25.0977C55.9746 24.6627 56.1224 24.1562 56.1224 23.5776C56.1224 22.9234 56.0422 22.3701 55.8774 21.9226C55.7173 21.475 55.3498 21.2513 54.78 21.2513C53.931 21.2725 53.2934 21.8552 52.8713 23.0035C52.4449 24.1479 52.2125 25.1866 52.1664 26.1152C52.1872 26.1405 52.2 26.1704 52.2084 26.1912C52.2125 26.2124 52.217 26.2292 52.217 26.2376Z" fill="#1A1A18"/>
<path d="M39.405 56.0426L43.6059 61.8692C44.3914 62.9331 45.2863 63.4653 46.2914 63.4653H46.8235V64.4532C45.523 64.2843 44.3661 64.2 43.3527 64.2C42.2971 64.2 41.0685 64.2843 39.6583 64.4532V63.4653H41.0979C41.7903 63.4653 42.1365 63.2964 42.1365 62.963C42.1365 62.7052 41.9846 62.376 41.6807 61.9705L38.3071 57.5371L35.3474 62.0211C35.1659 62.3379 35.0477 62.6168 34.9929 62.8572C35.0347 63.2964 35.5499 63.5202 36.5379 63.5202H37.53V64.4532C36.4366 64.352 35.2967 64.3055 34.1103 64.3055C32.7126 64.3055 31.4627 64.369 30.3564 64.5039V63.5708C32.092 63.5708 33.3419 63.005 34.1103 61.8692L37.775 56.6803L34.2074 51.9427C33.654 51.1702 33.139 50.638 32.6662 50.3511C32.1934 50.0597 31.4839 49.9119 30.5341 49.9119V48.9239C31.581 49.0547 32.7762 49.1478 34.1103 49.2026C35.5076 49.1394 36.5632 49.0676 37.2767 48.9788V49.9626H36.2847C35.664 49.9626 35.3344 50.0892 35.2967 50.3469C35.3727 50.6425 35.5077 50.9294 35.7061 51.2038L38.7167 55.3586L40.9418 51.7865C41.3345 51.1067 41.5287 50.6591 41.5287 50.444C41.5287 50.0892 41.1991 49.9119 40.5407 49.9119H39.5022V48.9788C40.4308 49.08 41.4022 49.1519 42.4154 49.2026C43.5301 49.1519 44.5562 49.08 45.4806 48.9788V49.9626H44.9489C44.501 49.9626 44.1635 49.9962 43.9351 50.068C43.7073 50.1356 43.5217 50.254 43.3694 50.4141C43.2174 50.5748 42.9895 50.8828 42.6815 51.3432C42.3731 51.8036 42.0522 52.2469 41.7271 52.6773L39.405 56.0426Z" fill="#1A1A18"/>
</svg>
