<svg width="76" height="76" viewBox="0 0 76 76" fill="none" xmlns="http://www.w3.org/2000/svg">
<path fill-rule="evenodd" clip-rule="evenodd" d="M-0.354492 -0.0419945H75.6454V75.9583H-0.354492V-0.0419945Z" fill="#51658D"/>
<path d="M-0.354492 -0.0419945H75.6454V75.9583H-0.354492V-0.0419945Z" stroke="#1A1A18" stroke-width="0.288" stroke-miterlimit="22.9256"/>
<path d="M27.5464 30.0717L31.0933 20.2718C31.3294 19.6134 31.4519 19.1614 31.4519 18.9251C31.4519 18.469 31.0844 18.2451 30.3543 18.2451H29.3704V17.3036C30.0418 17.3922 30.9749 17.4515 32.1783 17.481C33.4195 17.4515 34.3527 17.3922 34.9691 17.3036V18.2917H34.4117C34.0446 18.2917 33.7574 18.3677 33.5462 18.5195C33.3353 18.6674 33.1704 18.8658 33.0438 19.1148C32.9172 19.3643 32.6976 19.8496 32.3851 20.5761C32.0811 21.2644 31.6042 22.4211 30.9496 24.0509C30.295 25.6765 29.6366 27.3569 28.9778 29.0838C28.3233 30.8148 27.8293 32.183 27.5001 33.1875H26.5586C26.2206 32.2124 25.8321 31.161 25.393 30.0381C24.9542 28.9148 24.4855 27.7621 23.9915 26.5798C23.4975 25.4021 22.9737 24.1689 22.4166 22.8853C21.8591 21.6059 21.4241 20.5971 21.1119 19.8625C20.9387 19.381 20.7529 18.997 20.5586 18.7181C20.3643 18.4353 20.0857 18.2917 19.7183 18.2917H19.2119V17.3036C19.7818 17.4262 20.8122 17.5191 22.3024 17.5822C23.451 17.5274 24.3714 17.4515 25.0638 17.3543V18.3382H24.3331C23.9027 18.3382 23.5859 18.3846 23.375 18.4818C23.1638 18.5788 23.0371 18.7939 22.9907 19.1235C23.0371 19.4445 23.1554 19.8285 23.341 20.2677L27.5464 30.0717Z" fill="white"/>
<path d="M32.4609 28.9277C32.4817 27.3569 32.6465 25.9593 32.9632 24.7305C33.2759 23.5018 33.8711 22.4843 34.7449 21.6778C35.6191 20.8715 36.8433 20.4535 38.4183 20.4195C39.0433 20.4195 39.5585 20.6731 39.9553 21.1838C40.3564 21.6906 40.6477 22.3324 40.8251 23.1049C41.0023 23.8733 41.1036 24.6757 41.1248 25.5076C41.1248 26.8965 40.9516 28.1506 40.6096 29.2781C40.2635 30.4054 39.6935 31.3129 38.8997 32.0011C38.106 32.6894 37.0675 33.0356 35.7835 33.0356H35.3024C34.6607 32.9596 34.1372 32.8077 33.7316 32.5711C33.3264 32.339 33.0139 31.9339 32.7901 31.3635C32.5705 30.7935 32.4609 29.9787 32.4609 28.9277ZM34.4116 27.7874C34.4116 28.6152 34.4535 29.3244 34.5381 29.9239C34.6224 30.5192 34.8255 31.0385 35.1463 31.4777C35.4672 31.9128 35.9525 32.1531 36.5943 32.1995C37.5868 32.1995 38.2957 31.6507 38.7183 30.5574C39.1405 29.4635 39.3515 28.1422 39.3515 26.601V26.2424C39.3515 24.9375 39.1488 23.789 38.7479 22.7969C38.3464 21.8047 37.688 21.3062 36.7673 21.3062C36.2016 21.3361 35.7457 21.7242 35.3995 22.4759C35.0533 23.2274 34.8084 24.0929 34.6648 25.0809C34.5212 26.0646 34.4369 26.9684 34.4116 27.7874Z" fill="white"/>
<path d="M43.9582 21.6613L42.3115 21.7373V20.6479L44.0641 20.6986L44.2118 18.2411L46.1413 17.785L45.8374 20.6986L48.5269 20.6479L48.4763 21.6866L45.5838 21.6613C45.5373 21.7668 45.4571 24.1736 45.3559 28.8772C45.3559 29.6203 45.377 30.186 45.4149 30.5742C45.453 30.9585 45.5585 31.2753 45.7315 31.5114C45.9089 31.7522 46.1837 31.8789 46.5677 31.8958C46.593 31.8705 46.6141 31.8536 46.6353 31.8494C46.6523 31.8452 46.6647 31.8411 46.673 31.8411C47.2558 31.7863 47.7329 31.5073 48.1002 31.0092C48.4675 30.5069 48.6494 29.8312 48.6494 28.9827H49.363C49.363 29.7511 49.2151 30.4309 48.9279 31.0262C48.6407 31.6214 48.2314 32.0773 47.7075 32.4028C47.1841 32.7236 46.5763 32.8838 45.8881 32.8838C45.3347 32.8838 44.849 32.7995 44.431 32.6265C44.0134 32.4533 43.7221 32.3138 43.553 32.1997C43.5402 31.9253 43.5235 31.5159 43.5066 30.9797C43.4895 30.4434 43.473 30.0424 43.4559 29.768C43.4937 28.0241 43.6585 25.3217 43.9582 21.6613Z" fill="white"/>
<path d="M57.5708 28.4209L58.3561 28.5262C58.3561 28.877 58.2502 29.3918 58.0436 30.0675C57.8322 30.7471 57.406 31.3934 56.7558 32.0098C56.1054 32.6263 55.185 32.9343 53.9945 32.9343C53.1332 32.9343 52.4237 32.7106 51.8662 32.2589C51.3092 31.8114 50.9036 31.2117 50.6504 30.4561C50.3972 29.7043 50.2705 28.8683 50.2705 27.9438C50.3212 26.9724 50.4266 26.0604 50.5914 25.2119C50.7558 24.3676 51.0136 23.5776 51.3557 22.8475C51.7018 22.1127 52.1577 21.5258 52.7276 21.0784C53.2934 20.6309 53.9776 20.3942 54.78 20.3689C55.4765 20.3689 56.0381 20.5083 56.4686 20.7911C56.8949 21.0742 57.2033 21.4582 57.3889 21.9397C57.5749 22.4212 57.6678 22.9699 57.6678 23.5864C57.6678 24.114 57.5665 24.8192 57.3636 25.71C55.7044 26.2631 53.9522 26.6474 52.1153 26.8542C52.107 26.8542 52.0734 27.1498 52.0186 27.7409C52.1153 30.3337 53.002 31.6678 54.6782 31.7438C55.1934 31.7438 55.6749 31.6002 56.1224 31.3088C56.5657 31.0174 56.9202 30.6291 57.178 30.1476C57.44 29.6666 57.5708 29.1597 57.5708 28.6275V28.4209ZM52.217 26.0392L54.4504 25.71C54.9784 25.6088 55.3918 25.3386 55.6832 24.8994C55.9746 24.4643 56.1224 23.9579 56.1224 23.3792C56.1224 22.725 56.0422 22.1718 55.8774 21.7242C55.7173 21.2767 55.3498 21.053 54.78 21.053C53.931 21.0742 53.2934 21.657 52.8713 22.8051C52.4449 23.9496 52.2125 24.9882 52.1664 25.9168C52.1872 25.9422 52.2 25.972 52.2084 25.9928C52.2125 26.014 52.217 26.031 52.217 26.0392Z" fill="white"/>
<path d="M39.405 55.8445L43.6059 61.6711C44.3914 62.7349 45.2863 63.267 46.2914 63.267H46.8235V64.255C45.523 64.0861 44.3661 64.0018 43.3527 64.0018C42.2971 64.0018 41.0685 64.0861 39.6583 64.255V63.267H41.0979C41.7903 63.267 42.1365 63.0981 42.1365 62.7647C42.1365 62.507 41.9846 62.1778 41.6807 61.7722L38.3071 57.3389L35.3474 61.8229C35.1659 62.1397 35.0477 62.4186 34.9929 62.6589C35.0347 63.0981 35.5499 63.3219 36.5379 63.3219H37.53V64.255C36.4366 64.1537 35.2967 64.1073 34.1103 64.1073C32.7126 64.1073 31.4627 64.1707 30.3564 64.3057V63.3725C32.092 63.3725 33.3419 62.8068 34.1103 61.6711L37.775 56.4821L34.2074 51.7445C33.654 50.9719 33.139 50.4397 32.6662 50.1529C32.1934 49.8614 31.4839 49.7137 30.5341 49.7137V48.7257C31.581 48.8565 32.7762 48.9494 34.1103 49.0042C35.5076 48.9412 36.5632 48.8693 37.2767 48.7805V49.7643H36.2847C35.664 49.7643 35.3344 49.8909 35.2967 50.1488C35.3727 50.4442 35.5077 50.7311 35.7061 51.0055L38.7167 55.1603L40.9418 51.5884C41.3345 50.9084 41.5287 50.4609 41.5287 50.2458C41.5287 49.8909 41.1991 49.7137 40.5407 49.7137H39.5022V48.7805C40.4308 48.8819 41.4022 48.9537 42.4154 49.0042C43.5301 48.9537 44.5562 48.8819 45.4806 48.7805V49.7643H44.9489C44.501 49.7643 44.1635 49.7979 43.9351 49.8698C43.7073 49.9374 43.5217 50.0557 43.3694 50.216C43.2174 50.3766 42.9895 50.6846 42.6815 51.145C42.3731 51.6053 42.0522 52.0486 41.7271 52.4792L39.405 55.8445Z" fill="white"/>
</svg>
