<svg width="76" height="76" viewBox="0 0 76 76" fill="none" xmlns="http://www.w3.org/2000/svg">
<path fill-rule="evenodd" clip-rule="evenodd" d="M0.645508 0.331297H76.6454V76.3315H0.645508V0.331297Z" fill="#1A1A18"/>
<path d="M0.645508 0.331297H76.6454V76.3315H0.645508V0.331297Z" stroke="#1A1A18" stroke-width="0.288" stroke-miterlimit="22.9256"/>
<path d="M28.5464 30.4447L32.0933 20.6448C32.3294 19.9864 32.4519 19.5342 32.4519 19.2981C32.4519 18.8418 32.0844 18.6181 31.3543 18.6181H30.3704V17.6767C31.0418 17.7651 31.9749 17.8244 33.1783 17.854C34.4195 17.8244 35.3527 17.7651 35.9691 17.6767V18.6646H35.4117C35.0446 18.6646 34.7574 18.7406 34.5462 18.8925C34.3353 19.0402 34.1704 19.2388 34.0438 19.4879C33.9172 19.7373 33.6976 20.2225 33.3851 20.9489C33.0811 21.6372 32.6042 22.7941 31.9496 24.4238C31.295 26.0494 30.6366 27.7298 29.9778 29.4566C29.3233 31.1877 28.8293 32.5559 28.5001 33.5605H27.5586C27.2206 32.5855 26.8321 31.534 26.393 30.4111C25.9542 29.2877 25.4855 28.1351 24.9915 26.9528C24.4975 25.7751 23.9737 24.5418 23.4166 23.2582C22.8591 21.9789 22.4241 20.9701 22.1119 20.2354C21.9387 19.7538 21.7529 19.3698 21.5586 19.0909C21.3643 18.8082 21.0857 18.6646 20.7183 18.6646H20.2119V17.6767C20.7818 17.7992 21.8122 17.8921 23.3024 17.9552C24.451 17.9004 25.3714 17.8244 26.0638 17.7273V18.7112H25.3331C24.9027 18.7112 24.5859 18.7576 24.375 18.8548C24.1638 18.9519 24.0371 19.1669 23.9907 19.4965C24.0371 19.8174 24.1554 20.2015 24.341 20.6405L28.5464 30.4447Z" fill="white"/>
<path d="M33.4609 29.3008C33.4817 27.73 33.6465 26.3323 33.9632 25.1036C34.2759 23.8748 34.8711 22.8574 35.7449 22.0508C36.6191 21.2446 37.8433 20.8266 39.4183 20.7926C40.0433 20.7926 40.5585 21.0463 40.9553 21.557C41.3564 22.0638 41.6477 22.7055 41.8251 23.478C42.0023 24.2464 42.1036 25.0488 42.1248 25.8807C42.1248 27.2696 41.9516 28.5237 41.6096 29.651C41.2635 30.7785 40.6935 31.686 39.8997 32.3743C39.106 33.0625 38.0675 33.4087 36.7835 33.4087H36.3024C35.6607 33.3328 35.1372 33.1808 34.7316 32.9443C34.3264 32.7121 34.0139 32.3069 33.7901 31.7367C33.5705 31.1667 33.4609 30.3518 33.4609 29.3008ZM35.4116 28.1604C35.4116 28.9881 35.4535 29.6976 35.5381 30.297C35.6224 30.8922 35.8255 31.4116 36.1463 31.8508C36.4672 32.2859 36.9525 32.5261 37.5943 32.5727C38.5868 32.5727 39.2957 32.0239 39.7183 30.9306C40.1405 29.8367 40.3515 28.5153 40.3515 26.9741V26.6153C40.3515 25.3106 40.1488 24.1621 39.7479 23.17C39.3464 22.1779 38.688 21.6794 37.7673 21.6794C37.2016 21.7092 36.7457 22.0973 36.3995 22.849C36.0533 23.6004 35.8084 24.466 35.6648 25.454C35.5212 26.4378 35.4369 27.3415 35.4116 28.1604Z" fill="white"/>
<path d="M44.9582 22.0343L43.3115 22.1101V21.0209L45.0641 21.0716L45.2118 18.6142L47.1413 18.158L46.8374 21.0716L49.5269 21.0209L49.4763 22.0597L46.5838 22.0343C46.5373 22.1397 46.4571 24.5466 46.3559 29.2502C46.3559 29.9932 46.377 30.559 46.4149 30.9471C46.453 31.3315 46.5585 31.6483 46.7315 31.8844C46.9089 32.1252 47.1837 32.2519 47.5677 32.2688C47.593 32.2435 47.6141 32.2265 47.6353 32.2222C47.6523 32.2181 47.6647 32.214 47.673 32.214C48.2558 32.1592 48.7329 31.8803 49.1002 31.3822C49.4675 30.8799 49.6494 30.204 49.6494 29.3556H50.363C50.363 30.1239 50.2151 30.8039 49.9279 31.3993C49.6407 31.9945 49.2314 32.4503 48.7075 32.7756C48.1841 33.0966 47.5763 33.2568 46.8881 33.2568C46.3347 33.2568 45.849 33.1725 45.431 32.9993C45.0134 32.8263 44.7221 32.6868 44.553 32.5727C44.5402 32.2983 44.5235 31.889 44.5066 31.3527C44.4895 30.8164 44.473 30.4154 44.4559 30.141C44.4937 28.3971 44.6585 25.6947 44.9582 22.0343Z" fill="white"/>
<path d="M58.5708 28.7938L59.3561 28.8993C59.3561 29.2501 59.2502 29.7649 59.0436 30.4406C58.8322 31.1202 58.406 31.7665 57.7558 32.3829C57.1054 32.9993 56.185 33.3074 54.9945 33.3074C54.1332 33.3074 53.4237 33.0837 52.8662 32.6319C52.3092 32.1845 51.9036 31.5846 51.6504 30.8291C51.3972 30.0774 51.2705 29.2414 51.2705 28.3169C51.3212 27.3456 51.4266 26.4335 51.5914 25.585C51.7558 24.7407 52.0136 23.9508 52.3557 23.2206C52.7018 22.4858 53.1577 21.8989 53.7276 21.4514C54.2934 21.0038 54.9776 20.7673 55.78 20.7419C56.4765 20.7419 57.0381 20.8814 57.4686 21.1641C57.8949 21.4473 58.2033 21.8313 58.3889 22.3127C58.5749 22.7942 58.6678 23.343 58.6678 23.9594C58.6678 24.4871 58.5665 25.1924 58.3636 26.0832C56.7044 26.6361 54.9522 27.0205 53.1153 27.2273C53.107 27.2273 53.0734 27.5227 53.0186 28.1139C53.1153 30.7067 54.002 32.0409 55.6782 32.1169C56.1934 32.1169 56.6749 31.9731 57.1224 31.6818C57.5657 31.3903 57.9202 31.0022 58.178 30.5208C58.44 30.0396 58.5708 29.5327 58.5708 29.0006V28.7938ZM53.217 26.4124L55.4504 26.0832C55.9784 25.982 56.3918 25.7117 56.6832 25.2725C56.9746 24.8374 57.1224 24.331 57.1224 23.7524C57.1224 23.0981 57.0422 22.5447 56.8774 22.0972C56.7173 21.6498 56.3498 21.426 55.78 21.426C54.931 21.4472 54.2934 22.0301 53.8713 23.1782C53.4449 24.3228 53.2125 25.3613 53.1664 26.29C53.1872 26.3153 53.2 26.3452 53.2084 26.366C53.2125 26.387 53.217 26.4041 53.217 26.4124Z" fill="white"/>
<path d="M40.405 56.2174L44.6059 62.0439C45.3914 63.1079 46.2863 63.64 47.2914 63.64H47.8235V64.628C46.523 64.4591 45.3661 64.3748 44.3527 64.3748C43.2971 64.3748 42.0685 64.4591 40.6583 64.628V63.64H42.0979C42.7903 63.64 43.1365 63.4711 43.1365 63.1378C43.1365 62.88 42.9846 62.5508 42.6807 62.1452L39.3071 57.7119L36.3474 62.1959C36.1659 62.5125 36.0477 62.7915 35.9929 63.0319C36.0347 63.4711 36.5499 63.6948 37.5379 63.6948H38.53V64.628C37.4366 64.5267 36.2967 64.4803 35.1103 64.4803C33.7126 64.4803 32.4627 64.5438 31.3564 64.6787V63.7454C33.092 63.7454 34.3419 63.1797 35.1103 62.0439L38.775 56.8551L35.2074 52.1173C34.654 51.3448 34.139 50.8127 33.6662 50.5259C33.1934 50.2344 32.4839 50.0867 31.5341 50.0867V49.0987C32.581 49.2295 33.7762 49.3224 35.1103 49.3772C36.5076 49.3141 37.5632 49.2423 38.2767 49.1535V50.1374H37.2847C36.664 50.1374 36.3344 50.2639 36.2967 50.5216C36.3727 50.8172 36.5077 51.1042 36.7061 51.3786L39.7167 55.5334L41.9418 51.9613C42.3345 51.2813 42.5287 50.8339 42.5287 50.6188C42.5287 50.2639 42.1991 50.0867 41.5407 50.0867H40.5022V49.1535C41.4308 49.2548 42.4022 49.3265 43.4154 49.3772C44.5301 49.3265 45.5562 49.2548 46.4806 49.1535V50.1374H45.9489C45.501 50.1374 45.1635 50.171 44.9351 50.2428C44.7073 50.3104 44.5217 50.4287 44.3694 50.5889C44.2174 50.7496 43.9895 51.0576 43.6815 51.518C43.3731 51.9783 43.0522 52.4216 42.7271 52.8521L40.405 56.2174Z" fill="white"/>
</svg>
