<svg width="76" height="76" viewBox="0 0 76 76" fill="none" xmlns="http://www.w3.org/2000/svg">
<path fill-rule="evenodd" clip-rule="evenodd" d="M-0.354492 -0.0666527H75.6454V75.9336H-0.354492V-0.0666527Z" fill="white"/>
<path d="M-0.354492 -0.0666527H75.6454V75.9336H-0.354492V-0.0666527Z" stroke="#1A1A18" stroke-width="0.288" stroke-miterlimit="22.9256"/>
<path d="M27.5464 30.047L31.0933 20.2472C31.3294 19.5888 31.4519 19.1366 31.4519 18.9005C31.4519 18.4442 31.0844 18.2205 30.3543 18.2205H29.3704V17.279C30.0418 17.3674 30.9749 17.4267 32.1783 17.4563C33.4195 17.4267 34.3527 17.3674 34.9691 17.279V18.267H34.4117C34.0446 18.267 33.7574 18.343 33.5462 18.4949C33.3353 18.6427 33.1704 18.8411 33.0438 19.0902C32.9172 19.3396 32.6976 19.8249 32.3851 20.5513C32.0811 21.2395 31.6042 22.3965 30.9496 24.0262C30.295 25.6518 29.6366 27.3322 28.9778 29.059C28.3233 30.7901 27.8293 32.1582 27.5001 33.1628H26.5586C26.2206 32.1878 25.8321 31.1364 25.393 30.0134C24.9542 28.8901 24.4855 27.7374 23.9915 26.5551C23.4975 25.3774 22.9737 24.1442 22.4166 22.8606C21.8591 21.5813 21.4241 20.5725 21.1119 19.8378C20.9387 19.3562 20.7529 18.9722 20.5586 18.6933C20.3643 18.4106 20.0857 18.267 19.7183 18.267H19.2119V17.279C19.7818 17.4015 20.8122 17.4945 22.3024 17.5575C23.451 17.5027 24.3714 17.4267 25.0638 17.3297V18.3136H24.3331C23.9027 18.3136 23.5859 18.3599 23.375 18.4571C23.1638 18.5542 23.0371 18.7693 22.9907 19.0989C23.0371 19.4198 23.1554 19.8038 23.341 20.2428L27.5464 30.047Z" fill="#1A1A18"/>
<path d="M32.4609 28.9029C32.4817 27.3321 32.6465 25.9344 32.9632 24.7057C33.2759 23.4769 33.8711 22.4596 34.7449 21.6529C35.6191 20.8468 36.8433 20.4288 38.4183 20.3948C39.0433 20.3948 39.5585 20.6483 39.9553 21.159C40.3564 21.6658 40.6477 22.3075 40.8251 23.0801C41.0023 23.8485 41.1036 24.6509 41.1248 25.4827C41.1248 26.8717 40.9516 28.1258 40.6096 29.2532C40.2635 30.3806 39.6935 31.2881 38.8997 31.9764C38.106 32.6647 37.0675 33.0107 35.7835 33.0107H35.3024C34.6607 32.9349 34.1372 32.7829 33.7316 32.5464C33.3264 32.3143 33.0139 31.9091 32.7901 31.3388C32.5705 30.7688 32.4609 29.954 32.4609 28.9029ZM34.4116 27.7626C34.4116 28.5902 34.4535 29.2997 34.5381 29.8992C34.6224 30.4944 34.8255 31.0137 35.1463 31.4529C35.4672 31.8879 35.9525 32.1283 36.5943 32.1748C37.5868 32.1748 38.2957 31.626 38.7183 30.5326C39.1405 29.4388 39.3515 28.1175 39.3515 26.5763V26.2174C39.3515 24.9128 39.1488 23.7643 38.7479 22.7721C38.3464 21.78 37.688 21.2814 36.7673 21.2814C36.2016 21.3113 35.7457 21.6994 35.3995 22.4512C35.0533 23.2026 34.8084 24.0682 34.6648 25.0562C34.5212 26.0399 34.4369 26.9435 34.4116 27.7626Z" fill="#1A1A18"/>
<path d="M43.9582 21.6364L42.3115 21.7122V20.623L44.0641 20.6737L44.2118 18.2162L46.1413 17.7601L45.8374 20.6737L48.5269 20.623L48.4763 21.6617L45.5838 21.6364C45.5373 21.7419 45.4571 24.1486 45.3559 28.8522C45.3559 29.5953 45.377 30.161 45.4149 30.5492C45.453 30.9336 45.5585 31.2504 45.7315 31.4865C45.9089 31.7273 46.1837 31.854 46.5677 31.8709C46.593 31.8456 46.6141 31.8286 46.6353 31.8244C46.6523 31.8202 46.6647 31.8161 46.673 31.8161C47.2558 31.7613 47.7329 31.4823 48.1002 30.9842C48.4675 30.4819 48.6494 29.8061 48.6494 28.9577H49.363C49.363 29.7259 49.2151 30.406 48.9279 31.0013C48.6407 31.5965 48.2314 32.0524 47.7075 32.3777C47.1841 32.6986 46.5763 32.8589 45.8881 32.8589C45.3347 32.8589 44.849 32.7747 44.431 32.6015C44.0134 32.4284 43.7221 32.2889 43.553 32.1748C43.5402 31.9004 43.5235 31.491 43.5066 30.9548C43.4895 30.4185 43.473 30.0175 43.4559 29.7431C43.4937 27.9992 43.6585 25.2968 43.9582 21.6364Z" fill="#1A1A18"/>
<path d="M57.5708 28.3961L58.3561 28.5015C58.3561 28.8523 58.2502 29.3672 58.0436 30.0429C57.8322 30.7225 57.406 31.3687 56.7558 31.9851C56.1054 32.6015 55.185 32.9097 53.9945 32.9097C53.1332 32.9097 52.4237 32.6859 51.8662 32.2342C51.3092 31.7867 50.9036 31.1869 50.6504 30.4314C50.3972 29.6797 50.2705 28.8436 50.2705 27.9191C50.3212 26.9478 50.4266 26.0358 50.5914 25.1873C50.7558 24.343 51.0136 23.553 51.3557 22.8228C51.7018 22.088 52.1577 21.5011 52.7276 21.0536C53.2934 20.606 53.9776 20.3695 54.78 20.3442C55.4765 20.3442 56.0381 20.4837 56.4686 20.7664C56.8949 21.0496 57.2033 21.4335 57.3889 21.915C57.5749 22.3964 57.6678 22.9453 57.6678 23.5617C57.6678 24.0894 57.5665 24.7946 57.3636 25.6854C55.7044 26.2383 53.9522 26.6227 52.1153 26.8295C52.107 26.8295 52.0734 27.125 52.0186 27.7162C52.1153 30.309 53.002 31.6432 54.6782 31.7192C55.1934 31.7192 55.6749 31.5754 56.1224 31.2841C56.5657 30.9926 56.9202 30.6044 57.178 30.123C57.44 29.6418 57.5708 29.135 57.5708 28.6029V28.3961ZM52.217 26.0146L54.4504 25.6854C54.9784 25.5842 55.3918 25.314 55.6832 24.8748C55.9746 24.4397 56.1224 23.9332 56.1224 23.3546C56.1224 22.7003 56.0422 22.147 55.8774 21.6995C55.7173 21.2521 55.3498 21.0283 54.78 21.0283C53.931 21.0495 53.2934 21.6323 52.8713 22.7804C52.4449 23.925 52.2125 24.9635 52.1664 25.8922C52.1872 25.9175 52.2 25.9474 52.2084 25.9682C52.2125 25.9892 52.217 26.0063 52.217 26.0146Z" fill="#1A1A18"/>
<path d="M39.405 55.8196L43.6059 61.646C44.3914 62.71 45.2863 63.2421 46.2914 63.2421H46.8235V64.2301C45.523 64.0612 44.3661 63.9769 43.3527 63.9769C42.2971 63.9769 41.0685 64.0612 39.6583 64.2301V63.2421H41.0979C41.7903 63.2421 42.1365 63.0732 42.1365 62.7398C42.1365 62.4821 41.9846 62.1529 41.6807 61.7473L38.3071 57.314L35.3474 61.798C35.1659 62.1147 35.0477 62.3936 34.9929 62.634C35.0347 63.0732 35.5499 63.2969 36.5379 63.2969H37.53V64.2301C36.4366 64.1288 35.2967 64.0824 34.1103 64.0824C32.7126 64.0824 31.4627 64.1458 30.3564 64.2808V63.3476C32.092 63.3476 33.3419 62.7819 34.1103 61.646L37.775 56.4572L34.2074 51.7195C33.654 50.9469 33.139 50.4148 32.6662 50.128C32.1934 49.8365 31.4839 49.6888 30.5341 49.6888V48.7008C31.581 48.8316 32.7762 48.9245 34.1103 48.9793C35.5076 48.9163 36.5632 48.8444 37.2767 48.7556V49.7394H36.2847C35.664 49.7394 35.3344 49.866 35.2967 50.1237C35.3727 50.4193 35.5077 50.7062 35.7061 50.9806L38.7167 55.1354L40.9418 51.5635C41.3345 50.8835 41.5287 50.436 41.5287 50.2209C41.5287 49.866 41.1991 49.6888 40.5407 49.6888H39.5022V48.7556C40.4308 48.8569 41.4022 48.9287 42.4154 48.9793C43.5301 48.9287 44.5562 48.8569 45.4806 48.7556V49.7394H44.9489C44.501 49.7394 44.1635 49.773 43.9351 49.8449C43.7073 49.9125 43.5217 50.0308 43.3694 50.1911C43.2174 50.3517 42.9895 50.6597 42.6815 51.1201C42.3731 51.5804 42.0522 52.0237 41.7271 52.4543L39.405 55.8196Z" fill="#1A1A18"/>
</svg>
