<svg width="124" height="59" viewBox="0 0 124 59" fill="none" xmlns="http://www.w3.org/2000/svg">
<line x1="69.5" y1="1" x2="69.5" y2="58" stroke="black" stroke-width="3"/>
<line x1="83.5" y1="1" x2="83.5" y2="58" stroke="black" stroke-width="3"/>
<path d="M61.6596 15.0001C66.5371 15.0001 70.4903 19.9215 70.4903 25.9921C70.4903 32.0624 66.5371 36.9844 61.6596 36.9844C56.7831 36.9844 52.8296 32.0624 52.8296 25.9921C52.8296 19.9215 56.7831 15.0001 61.6596 15.0001Z" fill="#1A1A18" stroke="#1A1A18" stroke-width="0.288" stroke-miterlimit="22.9256"/>
<path fill-rule="evenodd" clip-rule="evenodd" d="M62.0001 55.1782H44C44 44.711 52.0589 36.2265 62.0001 36.2265C71.9411 36.2265 80 44.711 80 55.1782H62.0001Z" fill="#1A1A18"/>
<line x1="76.5" y1="1" x2="76.5" y2="58" stroke="black" stroke-width="3"/>
<line x1="69.5" y1="1" x2="69.5" y2="58" stroke="black" stroke-width="3"/>
<line x1="62.5" y1="1" x2="62.5" y2="58" stroke="black" stroke-width="3"/>
<path d="M25.6596 15.0001C30.5371 15.0001 34.4903 19.9215 34.4903 25.9921C34.4903 32.0624 30.5371 36.9844 25.6596 36.9844C20.7831 36.9844 16.8296 32.0624 16.8296 25.9921C16.8296 19.9215 20.7831 15.0001 25.6596 15.0001Z" fill="#1A1A18" stroke="#1A1A18" stroke-width="0.288" stroke-miterlimit="22.9256"/>
<path fill-rule="evenodd" clip-rule="evenodd" d="M26.0001 55.1782H8C8 44.711 16.0589 36.2265 26.0001 36.2265C35.9411 36.2265 44 44.711 44 55.1782H26.0001Z" fill="#1A1A18"/>
<line x1="35.5" y1="1" x2="35.5" y2="58" stroke="black" stroke-width="3"/>
<line x1="42.5" y1="1" x2="42.5" y2="58" stroke="black" stroke-width="3"/>
<line x1="49.5" y1="1" x2="49.5" y2="58" stroke="black" stroke-width="3"/>
<line x1="116.5" y1="1" x2="116.5" y2="58" stroke="black" stroke-width="3"/>
<line x1="42.5" y1="1" x2="42.5" y2="58" stroke="black" stroke-width="3"/>
<line x1="56.5" y1="1" x2="56.5" y2="58" stroke="black" stroke-width="3"/>
<line x1="7.5" y1="1" x2="7.5" y2="58" stroke="black" stroke-width="3"/>
<line x1="14.5" y1="1" x2="14.5" y2="58" stroke="black" stroke-width="3"/>
<line x1="21.5" y1="1" x2="21.5" y2="58" stroke="black" stroke-width="3"/>
<line x1="14.5" y1="1" x2="14.5" y2="58" stroke="black" stroke-width="3"/>
<line x1="28.5" y1="1" x2="28.5" y2="58" stroke="black" stroke-width="3"/>
<rect x="0.5" y="0.5" width="123" height="58" stroke="black"/>
<path d="M98.6596 15.0001C103.537 15.0001 107.49 19.9215 107.49 25.9921C107.49 32.0624 103.537 36.9844 98.6596 36.9844C93.7831 36.9844 89.8296 32.0624 89.8296 25.9921C89.8296 19.9215 93.7831 15.0001 98.6596 15.0001Z" fill="#1A1A18" stroke="#1A1A18" stroke-width="0.288" stroke-miterlimit="22.9256"/>
<path fill-rule="evenodd" clip-rule="evenodd" d="M99.0001 55.1782H81C81 44.711 89.0589 36.2265 99.0001 36.2265C108.941 36.2265 117 44.711 117 55.1782H99.0001Z" fill="#1A1A18"/>
<line x1="89.5" y1="1" x2="89.5" y2="58" stroke="black" stroke-width="3"/>
<line x1="96.5" y1="1" x2="96.5" y2="58" stroke="black" stroke-width="3"/>
<line x1="103.5" y1="1" x2="103.5" y2="58" stroke="black" stroke-width="3"/>
<line x1="96.5" y1="1" x2="96.5" y2="58" stroke="black" stroke-width="3"/>
<line x1="110.5" y1="1" x2="110.5" y2="58" stroke="black" stroke-width="3"/>
</svg>
