<svg width="76" height="76" viewBox="0 0 76 76" fill="none" xmlns="http://www.w3.org/2000/svg">
<path fill-rule="evenodd" clip-rule="evenodd" d="M0.0820312 0.495196H76.0819V76.4951H0.0820312V0.495196Z" fill="white"/>
<path d="M0.0820312 0.495196H76.0819V76.4951H0.0820312V0.495196Z" stroke="#1A1A18" stroke-width="0.288" stroke-miterlimit="22.9256"/>
<path fill-rule="evenodd" clip-rule="evenodd" d="M38.4573 10.4729L49.0985 20.3076L59.7395 30.1427L55.6749 46.056L51.6104 61.9697H38.4573H25.3039L21.2393 46.056L17.1748 30.1427L27.816 20.3076L38.4573 10.4729Z" fill="#AD4482"/>
<path d="M38.4573 10.4729L49.0985 20.3076L59.7395 30.1427L55.6749 46.056L51.6104 61.9697H38.4573H25.3039L21.2393 46.056L17.1748 30.1427L27.816 20.3076L38.4573 10.4729Z" stroke="#1A1A18" stroke-width="0.288" stroke-miterlimit="22.9256"/>
<path fill-rule="evenodd" clip-rule="evenodd" d="M17.207 30.2198L37.2049 24.8612L37.4803 25.8905L17.4829 31.249L17.207 30.2198Z" fill="white"/>
<path d="M17.207 30.2198L37.2049 24.8612L37.4803 25.8905L17.4829 31.249L17.207 30.2198Z" stroke="#1A1A18" stroke-width="0.288" stroke-miterlimit="22.9256"/>
<path fill-rule="evenodd" clip-rule="evenodd" d="M39.2227 25.8145L59.5648 31.2654L59.8457 30.218L39.5031 24.7676L39.2227 25.8145Z" fill="white"/>
<path d="M39.2227 25.8145L59.5648 31.2654L59.8457 30.218L39.5031 24.7676L39.2227 25.8145Z" stroke="#1A1A18" stroke-width="0.288" stroke-miterlimit="22.9256"/>
<path fill-rule="evenodd" clip-rule="evenodd" d="M36.7822 11.2338H39.9789V62.0254H36.7822V11.2338Z" fill="white"/>
<path d="M36.7822 11.2338H39.9789V62.0254H36.7822V11.2338Z" stroke="#1A1A18" stroke-width="0.288" stroke-miterlimit="22.9256"/>
<path fill-rule="evenodd" clip-rule="evenodd" d="M38.4569 7.27596C39.9703 7.27596 41.1971 8.50286 41.1971 10.0162C41.1971 11.5295 39.9703 12.7563 38.4569 12.7563C36.9436 12.7563 35.7168 11.5295 35.7168 10.0162C35.7168 8.50286 36.9436 7.27596 38.4569 7.27596Z" fill="#D7B469"/>
<path d="M38.4569 7.27596C39.9703 7.27596 41.1971 8.50286 41.1971 10.0162C41.1971 11.5295 39.9703 12.7563 38.4569 12.7563C36.9436 12.7563 35.7168 11.5295 35.7168 10.0162C35.7168 8.50286 36.9436 7.27596 38.4569 7.27596Z" stroke="#1A1A18" stroke-width="0.288" stroke-miterlimit="22.9256"/>
<path fill-rule="evenodd" clip-rule="evenodd" d="M40.3371 17.9552C40.3371 18.7958 39.5936 19.4773 38.6763 19.4773C37.7594 19.4773 37.0156 18.7958 37.0156 17.9552C37.0156 17.1143 37.7594 16.4329 38.6763 16.4329C39.5936 16.4329 40.3371 17.1143 40.3371 17.9552Z" fill="#D7B469"/>
<path d="M40.3371 17.9552C40.3371 18.7958 39.5936 19.4773 38.6763 19.4773C37.7594 19.4773 37.0156 18.7958 37.0156 17.9552C37.0156 17.1143 37.7594 16.4329 38.6763 16.4329C39.5936 16.4329 40.3371 17.1143 40.3371 17.9552Z" stroke="#1A1A18" stroke-width="0.288" stroke-miterlimit="22.9256"/>
<path fill-rule="evenodd" clip-rule="evenodd" d="M40.2785 24.6711C40.2785 25.5117 39.535 26.1931 38.6178 26.1931C37.7005 26.1931 36.957 25.5117 36.957 24.6711C36.957 23.8302 37.7005 23.1488 38.6178 23.1488C39.535 23.1488 40.2785 23.8302 40.2785 24.6711Z" fill="#D7B469"/>
<path d="M40.2785 24.6711C40.2785 25.5117 39.535 26.1931 38.6178 26.1931C37.7005 26.1931 36.957 25.5117 36.957 24.6711C36.957 23.8302 37.7005 23.1488 38.6178 23.1488C39.535 23.1488 40.2785 23.8302 40.2785 24.6711Z" stroke="#1A1A18" stroke-width="0.288" stroke-miterlimit="22.9256"/>
<path fill-rule="evenodd" clip-rule="evenodd" d="M40.2967 31.387C40.2967 32.2279 39.5533 32.9094 38.636 32.9094C37.7191 32.9094 36.9756 32.2279 36.9756 31.387C36.9756 30.5464 37.7191 29.865 38.636 29.865C39.5533 29.865 40.2967 30.5464 40.2967 31.387Z" fill="#D7B469"/>
<path d="M40.2967 31.387C40.2967 32.2279 39.5533 32.9094 38.636 32.9094C37.7191 32.9094 36.9756 32.2279 36.9756 31.387C36.9756 30.5464 37.7191 29.865 38.636 29.865C39.5533 29.865 40.2967 30.5464 40.2967 31.387Z" stroke="#1A1A18" stroke-width="0.288" stroke-miterlimit="22.9256"/>
<path fill-rule="evenodd" clip-rule="evenodd" d="M40.3145 38.0269C40.3145 38.8679 39.5708 39.5493 38.6538 39.5493C37.7365 39.5493 36.9932 38.8679 36.9932 38.0269C36.9932 37.1864 37.7365 36.505 38.6538 36.505C39.5708 36.505 40.3145 37.1864 40.3145 38.0269Z" fill="#D7B469"/>
<path d="M40.3145 38.0269C40.3145 38.8679 39.5708 39.5493 38.6538 39.5493C37.7365 39.5493 36.9932 38.8679 36.9932 38.0269C36.9932 37.1864 37.7365 36.505 38.6538 36.505C39.5708 36.505 40.3145 37.1864 40.3145 38.0269Z" stroke="#1A1A18" stroke-width="0.288" stroke-miterlimit="22.9256"/>
<path fill-rule="evenodd" clip-rule="evenodd" d="M40.4084 44.8188C40.4084 45.6595 39.6651 46.3408 38.7477 46.3408C37.8308 46.3408 37.0869 45.6595 37.0869 44.8188C37.0869 43.9779 37.8308 43.2965 38.7477 43.2965C39.6651 43.2965 40.4084 43.9779 40.4084 44.8188Z" fill="#D7B469"/>
<path d="M40.4084 44.8188C40.4084 45.6595 39.6651 46.3408 38.7477 46.3408C37.8308 46.3408 37.0869 45.6595 37.0869 44.8188C37.0869 43.9779 37.8308 43.2965 38.7477 43.2965C39.6651 43.2965 40.4084 43.9779 40.4084 44.8188Z" stroke="#1A1A18" stroke-width="0.288" stroke-miterlimit="22.9256"/>
<path fill-rule="evenodd" clip-rule="evenodd" d="M40.2736 51.4589C40.2736 52.2996 39.5302 52.981 38.613 52.981C37.6956 52.981 36.9521 52.2996 36.9521 51.4589C36.9521 50.618 37.6956 49.9364 38.613 49.9364C39.5302 49.9364 40.2736 50.618 40.2736 51.4589Z" fill="#D7B469"/>
<path d="M40.2736 51.4589C40.2736 52.2996 39.5302 52.981 38.613 52.981C37.6956 52.981 36.9521 52.2996 36.9521 51.4589C36.9521 50.618 37.6956 49.9364 38.613 49.9364C39.5302 49.9364 40.2736 50.618 40.2736 51.4589Z" stroke="#1A1A18" stroke-width="0.288" stroke-miterlimit="22.9256"/>
<path fill-rule="evenodd" clip-rule="evenodd" d="M40.2912 58.1748C40.2912 59.0153 39.5479 59.6968 38.6305 59.6968C37.7136 59.6968 36.9697 59.0153 36.9697 58.1748C36.9697 57.3339 37.7136 56.6524 38.6305 56.6524C39.5479 56.6524 40.2912 57.3339 40.2912 58.1748Z" fill="#D7B469"/>
<path d="M40.2912 58.1748C40.2912 59.0153 39.5479 59.6968 38.6305 59.6968C37.7136 59.6968 36.9697 59.0153 36.9697 58.1748C36.9697 57.3339 37.7136 56.6524 38.6305 56.6524C39.5479 56.6524 40.2912 57.3339 40.2912 58.1748Z" stroke="#1A1A18" stroke-width="0.288" stroke-miterlimit="22.9256"/>
<path d="M25.1562 61.7629H51.5857V64.1655H25.1562V61.7629Z" stroke="#1A1A18" stroke-width="0.288" stroke-miterlimit="22.9256"/>
</svg>
