<svg width="35" height="33" viewBox="0 0 35 33" fill="none" xmlns="http://www.w3.org/2000/svg">
<path d="M444.447 -73.4065V204.156H-287.589V-73.4065H444.447Z" stroke="#1A1A18" stroke-width="2.6664" stroke-miterlimit="22.9256"/>
<path fill-rule="evenodd" clip-rule="evenodd" d="M17.7941 25.0965C27.3317 25.0965 35.0636 26.7075 35.0636 28.6943C35.0636 30.6816 27.3317 32.2924 17.7941 32.2924C8.25655 32.2924 0.524658 30.6816 0.524658 28.6943C0.524658 26.7075 8.25655 25.0965 17.7941 25.0965Z" fill="#AD4482"/>
<path d="M17.7941 25.0965C27.3317 25.0965 35.0636 26.7075 35.0636 28.6943C35.0636 30.6816 27.3317 32.2924 17.7941 32.2924C8.25655 32.2924 0.524658 30.6816 0.524658 28.6943C0.524658 26.7075 8.25655 25.0965 17.7941 25.0965Z" stroke="#1A1A18" stroke-width="0.288" stroke-miterlimit="22.9256"/>
<path fill-rule="evenodd" clip-rule="evenodd" d="M0.165039 4.07064H34.7613V29.4136H0.165039V4.07064Z" fill="#AD4482"/>
<path fill-rule="evenodd" clip-rule="evenodd" d="M17.4638 0.295329C27.0014 0.295329 34.7331 1.90613 34.7331 3.89307C34.7331 5.8804 27.0014 7.49121 17.4638 7.49121C7.92605 7.49121 0.194336 5.8804 0.194336 3.89307C0.194336 1.90613 7.92605 0.295329 17.4638 0.295329Z" fill="#AD4482"/>
<path d="M17.4638 0.295329C27.0014 0.295329 34.7331 1.90613 34.7331 3.89307C34.7331 5.8804 27.0014 7.49121 17.4638 7.49121C7.92605 7.49121 0.194336 5.8804 0.194336 3.89307C0.194336 1.90613 7.92605 0.295329 17.4638 0.295329Z" stroke="#1A1A18" stroke-width="0.288" stroke-miterlimit="22.9256"/>
</svg>
