<svg width="192" height="150" viewBox="0 0 192 150" fill="none" xmlns="http://www.w3.org/2000/svg">
<g clip-path="url(#clip0_2_22765)">
<path d="M24.3964 139.521L30.1696 146.001L29.9164 140.759C29.9164 140.468 29.8763 140.279 29.7985 140.195C29.7187 140.108 29.5853 140.066 29.3962 140.066H28.9296H28.5297L28.5565 139.521C29.0565 139.573 29.5853 139.613 30.1409 139.642C30.7585 139.615 31.323 139.575 31.8386 139.521V140.039H31.2362C31.014 140.039 30.8632 140.088 30.783 140.184C30.7029 140.282 30.6628 140.441 30.6628 140.668L30.6364 147.884H30.3299L24.0766 140.735L24.103 145.735C24.103 146.204 24.1609 146.562 24.2765 146.808C24.3941 147.055 24.6432 147.177 25.0231 147.177H25.5964V147.641C25.1164 147.57 24.5608 147.535 23.9318 147.535C23.3744 147.535 22.8275 147.561 22.292 147.615V147.121H22.7564C23.0611 147.121 23.2565 147.039 23.3453 146.877C23.4322 146.715 23.4764 146.468 23.4764 146.135V145.895V140.762C23.4764 140.481 23.4364 140.282 23.3566 140.166C23.2765 140.048 23.1121 139.99 22.8653 139.99H22.3056V139.495C22.49 139.535 22.8498 139.575 23.3853 139.615C23.91 139.575 24.2474 139.544 24.3964 139.521Z" fill="#1A1A18"/>
<path d="M32.4365 145.613C32.4476 144.786 32.5345 144.051 32.7008 143.404C32.8656 142.757 33.1789 142.222 33.6388 141.797C34.0988 141.373 34.7432 141.153 35.5721 141.135C35.9009 141.135 36.1719 141.268 36.3809 141.537C36.5917 141.804 36.7452 142.141 36.8385 142.548C36.932 142.952 36.9852 143.375 36.9965 143.813C36.9965 144.544 36.905 145.204 36.7252 145.797C36.543 146.39 36.2429 146.868 35.8253 147.23C35.4077 147.593 34.8608 147.775 34.1853 147.775H33.9321C33.5942 147.735 33.3187 147.655 33.1056 147.53C32.892 147.408 32.7276 147.195 32.6097 146.895C32.4944 146.595 32.4365 146.166 32.4365 145.613ZM33.4631 145.013C33.4631 145.448 33.4855 145.822 33.53 146.137C33.5743 146.451 33.6808 146.724 33.8497 146.955C34.0186 147.184 34.2741 147.31 34.6121 147.335C35.1344 147.335 35.5074 147.046 35.7297 146.471C35.9518 145.895 36.063 145.199 36.063 144.388V144.199C36.063 143.513 35.9564 142.908 35.7452 142.386C35.5342 141.864 35.1877 141.602 34.7032 141.602C34.4053 141.617 34.1653 141.822 33.9832 142.217C33.8009 142.613 33.6721 143.068 33.5965 143.588C33.5209 144.106 33.4763 144.582 33.4631 145.013Z" fill="#1A1A18"/>
<path d="M38.487 141.788L37.6204 141.828V141.255L38.5426 141.282L38.6205 139.988L39.6361 139.748L39.4761 141.282L40.8916 141.255L40.8652 141.802L39.3428 141.788C39.3182 141.844 39.2762 143.11 39.2229 145.586C39.2229 145.977 39.2338 146.275 39.2539 146.479C39.2739 146.681 39.3295 146.848 39.4206 146.972C39.5139 147.099 39.6584 147.166 39.8605 147.175C39.8738 147.161 39.8851 147.153 39.8961 147.151C39.9051 147.148 39.9115 147.146 39.9161 147.146C40.2226 147.117 40.4739 146.97 40.667 146.708C40.8606 146.444 40.9562 146.088 40.9562 145.641H41.3315C41.3315 146.046 41.2537 146.404 41.1029 146.717C40.9517 147.03 40.7362 147.27 40.4603 147.441C40.1847 147.611 39.865 147.695 39.5026 147.695C39.2116 147.695 38.9561 147.651 38.7361 147.559C38.5161 147.468 38.3628 147.395 38.2738 147.335C38.267 147.19 38.2584 146.975 38.2493 146.692C38.2406 146.411 38.2315 146.199 38.2229 146.055C38.2429 145.137 38.3294 143.715 38.487 141.788Z" fill="#1A1A18"/>
<path d="M51.8917 143.761H47.2783V145.268C47.2783 145.808 47.3271 146.266 47.4272 146.639C47.5251 147.015 47.7561 147.201 48.1182 147.201H48.6915V147.668C48.1162 147.597 47.4983 147.561 46.8385 147.561C46.1962 147.561 45.5851 147.597 45.0095 147.668V147.175H45.6384C46.1271 147.175 46.3717 146.846 46.3717 146.188V141.762C46.3717 140.675 46.2518 140.108 46.0141 140.066C45.9249 140.048 45.7718 140.039 45.5583 140.039H45.0095V139.521C45.663 139.593 46.254 139.642 46.7851 139.668C47.3607 139.642 47.9606 139.593 48.5826 139.521V140.039H48.0626C47.8071 140.039 47.6339 140.066 47.5451 140.122C47.4182 140.184 47.3384 140.308 47.3051 140.493C47.2692 140.68 47.2515 140.928 47.2515 141.239V143.135H51.8917V141.733C51.8917 140.644 51.7805 140.079 51.5606 140.042C51.4717 140.024 51.3183 140.015 51.1029 140.015H50.5559V139.495C50.8783 139.535 51.505 139.575 52.4382 139.615C53.2915 139.575 53.8649 139.535 54.1582 139.495V140.015H53.665C53.4472 140.015 53.2738 140.051 53.1449 140.124C53.0406 140.173 52.9691 140.259 52.9337 140.382C52.8958 140.504 52.8694 140.675 52.8517 140.895C52.8694 140.966 52.8781 141.073 52.8781 141.217V145.241C52.8781 145.633 52.8894 145.957 52.9137 146.217C52.9382 146.475 53.0006 146.699 53.1049 146.891C53.2073 147.079 53.3671 147.175 53.5849 147.175H54.2138V147.641C53.425 147.57 52.8426 147.535 52.465 147.535C52.0761 147.535 51.4316 147.57 50.5318 147.641V147.146H51.1849C51.4517 147.146 51.6362 147.061 51.7382 146.893C51.8406 146.726 51.8917 146.481 51.8917 146.159V143.761Z" fill="#1A1A18"/>
<path d="M58.6667 145.346L59.0802 145.401C59.0802 145.586 59.0246 145.857 58.9158 146.212C58.8046 146.57 58.58 146.91 58.238 147.235C57.8956 147.559 57.4115 147.722 56.7849 147.722C56.3313 147.722 55.9579 147.604 55.6646 147.366C55.3712 147.13 55.1582 146.815 55.0247 146.417C54.8913 146.022 54.8247 145.582 54.8247 145.095C54.8512 144.584 54.9068 144.104 54.9938 143.657C55.0803 143.213 55.2159 142.797 55.3959 142.413C55.578 142.026 55.8181 141.717 56.1182 141.482C56.4159 141.246 56.7758 141.122 57.1979 141.108C57.5646 141.108 57.8601 141.181 58.0869 141.33C58.3114 141.479 58.4735 141.681 58.5714 141.935C58.669 142.188 58.718 142.477 58.718 142.801C58.718 143.079 58.6647 143.45 58.5578 143.919C57.6847 144.21 56.7626 144.413 55.7958 144.521C55.7912 144.521 55.7734 144.677 55.7447 144.988C55.7958 146.353 56.2624 147.055 57.1446 147.095C57.4156 147.095 57.6692 147.019 57.9047 146.866C58.1379 146.712 58.3246 146.508 58.4603 146.255C58.5979 146.001 58.6667 145.735 58.6667 145.455V145.346ZM55.849 144.092L57.0248 143.919C57.3023 143.866 57.5203 143.724 57.6734 143.493C57.8268 143.264 57.9047 142.997 57.9047 142.693C57.9047 142.348 57.8623 142.057 57.7758 141.822C57.6911 141.586 57.4981 141.468 57.1979 141.468C56.7513 141.479 56.4159 141.786 56.1938 142.391C55.9693 142.993 55.8467 143.539 55.8226 144.028C55.8335 144.041 55.8403 144.057 55.8448 144.068C55.8467 144.079 55.849 144.088 55.849 144.092Z" fill="#1A1A18"/>
<path d="M64.1046 141.282V142.401C64.0914 142.397 64.0646 142.391 64.0246 142.384C63.9849 142.377 63.9312 142.375 63.8646 142.375C63.4248 142.375 62.9625 142.899 62.4757 143.948C62.2602 144.43 62.0671 144.939 61.8982 145.475C61.727 146.008 61.5913 146.49 61.487 146.924C61.3826 147.355 61.3313 147.604 61.3313 147.668H60.6381L60.9427 142.068L59.6248 142.335V141.802C59.9472 141.795 60.3315 141.733 60.7802 141.615C61.2293 141.499 61.6226 141.364 61.9579 141.215L61.7825 144.575C61.7958 144.544 61.8937 144.304 62.0781 143.853C62.2602 143.402 62.4092 143.046 62.5226 142.79C62.636 142.533 62.7493 142.297 62.8623 142.084C62.9757 141.871 63.0824 141.711 63.1825 141.604C63.3916 141.37 63.6178 141.255 63.8646 141.255C63.9312 141.255 63.9849 141.257 64.0246 141.264C64.0646 141.27 64.0914 141.277 64.1046 141.282Z" fill="#1A1A18"/>
<path d="M68.2003 145.346L68.6137 145.401C68.6137 145.586 68.5581 145.857 68.4493 146.212C68.3381 146.57 68.1137 146.91 67.7716 147.235C67.4292 147.559 66.9451 147.722 66.3184 147.722C65.8648 147.722 65.4915 147.604 65.1981 147.366C64.9048 147.13 64.6917 146.815 64.5583 146.417C64.4248 146.022 64.3584 145.582 64.3584 145.095C64.3848 144.584 64.4404 144.104 64.5273 143.657C64.6139 143.213 64.7495 142.797 64.9295 142.413C65.1116 142.026 65.3516 141.717 65.6517 141.482C65.9495 141.246 66.3093 141.122 66.7315 141.108C67.0981 141.108 67.3937 141.181 67.6204 141.33C67.8449 141.479 68.0071 141.681 68.1049 141.935C68.2025 142.188 68.2516 142.477 68.2516 142.801C68.2516 143.079 68.1984 143.45 68.0913 143.919C67.2183 144.21 66.2961 144.413 65.3293 144.521C65.3248 144.521 65.3069 144.677 65.2783 144.988C65.3293 146.353 65.7961 147.055 66.6783 147.095C66.9492 147.095 67.2028 147.019 67.4383 146.866C67.6715 146.712 67.8581 146.508 67.9939 146.255C68.1315 146.001 68.2003 145.735 68.2003 145.455V145.346ZM65.3825 144.092L66.5584 143.919C66.8359 143.866 67.0539 143.724 67.2069 143.493C67.3604 143.264 67.4383 142.997 67.4383 142.693C67.4383 142.348 67.396 142.057 67.3093 141.822C67.2247 141.586 67.0316 141.468 66.7315 141.468C66.2848 141.479 65.9495 141.786 65.7273 142.391C65.5028 142.993 65.3803 143.539 65.3561 144.028C65.3671 144.041 65.3739 144.057 65.3784 144.068C65.3803 144.079 65.3825 144.088 65.3825 144.092Z" fill="#1A1A18"/>
<path d="M70.0893 141.788L69.2227 141.828V141.255L70.1449 141.282L70.2228 139.988L71.2384 139.748L71.0785 141.282L72.4939 141.255L72.4674 141.802L70.945 141.788C70.9205 141.844 70.8785 143.11 70.8252 145.586C70.8252 145.977 70.8362 146.275 70.8562 146.479C70.8762 146.681 70.9318 146.848 71.0229 146.972C71.1162 147.099 71.2607 147.166 71.4628 147.175C71.4761 147.161 71.4874 147.153 71.4984 147.151C71.5074 147.148 71.5139 147.146 71.5184 147.146C71.8249 147.117 72.0763 146.97 72.2694 146.708C72.4629 146.444 72.5585 146.088 72.5585 145.641H72.9339C72.9339 146.046 72.856 146.404 72.7052 146.717C72.554 147.03 72.3385 147.27 72.0626 147.441C71.787 147.611 71.4673 147.695 71.1049 147.695C70.8139 147.695 70.5584 147.651 70.3384 147.559C70.1185 147.468 69.965 147.395 69.8762 147.335C69.8694 147.19 69.8606 146.975 69.8516 146.692C69.8429 146.411 69.8338 146.199 69.8252 146.055C69.8452 145.137 69.9317 143.715 70.0893 141.788Z" fill="#1A1A18"/>
<path d="M74.5318 142.068L73.3718 142.279V141.802C73.8806 141.744 74.6406 141.548 75.6517 141.215L75.1876 147.666L74.1697 147.881C74.412 146.437 74.5318 144.819 74.5318 143.028V142.068ZM74.3318 138.813C74.3318 138.586 74.3984 138.377 74.5273 138.19C74.6584 138.002 74.8296 137.908 75.0405 137.908C75.243 137.908 75.423 137.988 75.5784 138.151C75.7341 138.313 75.812 138.499 75.812 138.708C75.812 138.937 75.7364 139.139 75.5874 139.315C75.4362 139.49 75.2541 139.581 75.0405 139.588C75.0405 139.584 75.0364 139.582 75.0296 139.579C75.0228 139.577 75.0186 139.575 75.0141 139.575C74.8341 139.575 74.6785 139.497 74.5473 139.341C74.4184 139.188 74.345 139.01 74.3318 138.813Z" fill="#1A1A18"/>
<path d="M78.8916 141.575C78.4226 141.586 78.0761 141.919 77.8515 142.573C77.627 143.226 77.5072 143.97 77.4918 144.804C77.4918 146.259 77.8738 146.988 78.6384 146.988C79.0406 146.955 79.358 146.828 79.5939 146.601C79.8271 146.377 79.9915 146.146 80.0848 145.904C80.1782 145.664 80.2247 145.506 80.2247 145.428H80.5871C80.5871 145.57 80.5271 145.822 80.4072 146.186C80.2871 146.55 80.0603 146.897 79.7251 147.228C79.3894 147.557 78.9227 147.722 78.3206 147.722C77.8806 147.712 77.5227 147.604 77.2473 147.397C76.9739 147.188 76.7763 146.917 76.6583 146.581C76.5404 146.246 76.4762 145.87 76.4648 145.453C76.4648 144.964 76.5116 144.473 76.6051 143.981C76.6984 143.493 76.856 143.028 77.076 142.59C77.2982 142.15 77.5938 141.799 77.965 141.533C78.3361 141.268 78.7851 141.135 79.307 141.135C79.6473 141.135 80.0029 141.237 80.3718 141.441V143.03H79.5717V142.641C79.5717 141.931 79.3448 141.575 78.8916 141.575Z" fill="#1A1A18"/>
<path d="M92.6534 140.644L90.1336 147.615H89.7734L86.5601 140.588L86.2267 146.108C86.2267 146.164 86.2181 146.212 86.2026 146.255C86.2403 146.85 86.4403 147.148 86.8 147.148H87.3734V147.615C86.887 147.561 86.3756 147.535 85.84 147.535C85.3246 147.535 84.818 147.561 84.3203 147.615V147.121H84.9202C85.0982 147.121 85.2313 147.097 85.3246 147.046C85.4157 146.997 85.4849 146.901 85.5312 146.759C85.5759 146.619 85.6091 146.41 85.6247 146.135L86.0382 140.588C86.0382 140.566 86.0446 140.528 86.0536 140.475C86.0623 140.419 86.0691 140.37 86.0691 140.322C86.0691 140.099 85.9379 139.99 85.6802 139.99H85.1336V139.495C85.3003 139.533 85.6579 139.573 86.2026 139.615C86.7335 139.577 87.0956 139.537 87.2914 139.495C87.4203 139.973 87.5493 140.386 87.6803 140.735C87.9537 141.359 88.267 142.075 88.6203 142.879C88.9734 143.681 89.3025 144.426 89.609 145.112C89.9137 145.797 90.069 146.146 90.0781 146.161C90.1246 146.059 90.2111 145.839 90.3423 145.504C90.4711 145.168 90.6579 144.675 90.9024 144.028C91.1447 143.379 91.3446 142.841 91.5022 142.417C91.6602 141.99 91.8291 141.517 92.0113 141.001C92.0934 140.766 92.2222 140.255 92.4002 139.468C92.7113 139.533 93.1202 139.581 93.6267 139.615C94.0489 139.586 94.4223 139.546 94.7466 139.495V140.015H94.1467C93.9532 140.015 93.8111 140.055 93.7155 140.133C93.6222 140.21 93.5734 140.364 93.5734 140.588L94.2802 145.924C94.3043 146.164 94.3334 146.363 94.3644 146.519C94.3976 146.675 94.4668 146.824 94.5711 146.966C94.6778 147.106 94.829 147.177 95.0266 147.177H95.5467V147.641C94.7223 147.57 94.109 147.535 93.7068 147.535C93.3666 147.535 92.8202 147.57 92.0669 147.641V147.148H92.6534C93.1422 147.148 93.3845 146.93 93.3845 146.497V146.255L92.6534 140.644Z" fill="#1A1A18"/>
<path d="M96.2024 145.613C96.2133 144.786 96.3002 144.051 96.4665 143.404C96.6313 142.757 96.9447 142.222 97.4047 141.797C97.8647 141.373 98.5091 141.153 99.3379 141.135C99.6667 141.135 99.9377 141.268 100.147 141.537C100.358 141.804 100.511 142.141 100.604 142.548C100.698 142.952 100.751 143.375 100.762 143.813C100.762 144.544 100.671 145.204 100.491 145.797C100.309 146.39 100.009 146.868 99.5911 147.23C99.1735 147.593 98.6265 147.775 97.9512 147.775H97.6979C97.36 147.735 97.0845 147.655 96.8713 147.53C96.6579 147.408 96.4933 147.195 96.3754 146.895C96.2601 146.595 96.2024 146.166 96.2024 145.613ZM97.2289 145.013C97.2289 145.448 97.2512 145.822 97.2957 146.137C97.34 146.451 97.4465 146.724 97.6156 146.955C97.7845 147.184 98.04 147.31 98.3778 147.335C98.9001 147.335 99.2732 147.046 99.4954 146.471C99.7177 145.895 99.8288 145.199 99.8288 144.388V144.199C99.8288 143.513 99.7223 142.908 99.5109 142.386C99.3001 141.864 98.9534 141.602 98.4689 141.602C98.171 141.617 97.9311 141.822 97.7489 142.217C97.5668 142.613 97.4379 143.068 97.3623 143.588C97.2867 144.106 97.2421 144.582 97.2289 145.013Z" fill="#1A1A18"/>
<path d="M105.536 147.855L105.324 147.693C105.633 146.568 105.806 144.755 105.842 142.255C105.224 142.988 104.804 143.495 104.582 143.777C104.357 144.057 104.122 144.397 103.873 144.799C103.624 145.199 103.415 145.635 103.244 146.108C103.071 146.579 102.951 147.099 102.882 147.668H102.068L102.386 142.013L101.349 142.255V141.732C102.149 141.732 102.869 141.526 103.507 141.108L103.055 145.346C103.331 144.828 103.618 144.35 103.913 143.91C104.211 143.473 104.535 143.044 104.886 142.624C105.235 142.204 105.644 141.748 106.108 141.255H106.84L106.522 146.908L107.482 146.788V147.252C106.818 147.277 106.169 147.477 105.536 147.855Z" fill="#1A1A18"/>
<path d="M112.671 146.937C112.922 146.855 113.148 146.797 113.35 146.764L113.511 147.068C113.064 147.166 112.748 147.25 112.566 147.319C112.382 147.388 112.089 147.53 111.684 147.748C111.669 147.766 111.631 147.773 111.578 147.773C111.542 147.773 111.526 147.722 111.526 147.615C111.624 146.999 111.689 146.548 111.72 146.268C111.748 145.986 111.762 145.653 111.762 145.268V144.588L110.618 146.439C110.393 146.81 110.113 147.117 109.773 147.359C109.433 147.601 109.086 147.722 108.735 147.722C108.231 147.697 107.978 147.217 107.978 146.279C108.006 145.726 108.146 145.146 108.402 144.535C108.658 143.926 108.971 143.361 109.342 142.844C109.715 142.328 110.095 141.908 110.484 141.588C110.873 141.268 111.202 141.108 111.471 141.108C111.551 141.108 111.642 141.126 111.742 141.161C111.842 141.197 111.926 141.215 111.991 141.215L112.937 141.108C112.891 141.668 112.817 142.437 112.724 143.415C112.629 144.392 112.566 145.046 112.538 145.373C112.508 145.701 112.491 146.013 112.482 146.308C112.508 146.726 112.571 146.937 112.671 146.937ZM111.604 141.655C111.564 141.628 111.515 141.615 111.457 141.615C111.266 141.615 111.031 141.739 110.753 141.986C110.473 142.232 110.197 142.561 109.922 142.973C109.648 143.384 109.415 143.833 109.226 144.321C109.037 144.811 108.928 145.281 108.9 145.735C108.9 145.806 108.888 145.87 108.868 145.924C108.911 146.464 109.111 146.735 109.471 146.735C109.766 146.726 110.068 146.532 110.375 146.157C110.684 145.779 110.962 145.326 111.211 144.792C111.46 144.259 111.653 143.759 111.788 143.295C111.869 143.064 111.909 142.755 111.909 142.375C111.909 141.986 111.806 141.746 111.604 141.655Z" fill="#1A1A18"/>
<path d="M118.271 141.282V142.401C118.257 142.397 118.23 142.391 118.19 142.384C118.151 142.377 118.097 142.375 118.031 142.375C117.591 142.375 117.128 142.899 116.642 143.948C116.426 144.43 116.233 144.939 116.064 145.475C115.893 146.008 115.757 146.49 115.653 146.924C115.549 147.355 115.497 147.604 115.497 147.668H114.804L115.109 142.068L113.791 142.335V141.802C114.113 141.795 114.498 141.733 114.946 141.615C115.395 141.499 115.789 141.364 116.124 141.215L115.948 144.575C115.962 144.544 116.06 144.304 116.244 143.853C116.426 143.402 116.575 143.046 116.688 142.79C116.802 142.533 116.915 142.297 117.028 142.084C117.142 141.871 117.248 141.711 117.348 141.604C117.557 141.37 117.784 141.255 118.031 141.255C118.097 141.255 118.151 141.257 118.19 141.264C118.23 141.27 118.257 141.277 118.271 141.282Z" fill="#1A1A18"/>
<path d="M120.922 141.575C120.453 141.586 120.106 141.919 119.882 142.573C119.657 143.226 119.538 143.97 119.522 144.804C119.522 146.259 119.904 146.988 120.669 146.988C121.071 146.955 121.388 146.828 121.624 146.601C121.857 146.377 122.022 146.146 122.115 145.904C122.208 145.664 122.255 145.506 122.255 145.428H122.617C122.617 145.57 122.557 145.822 122.438 146.186C122.317 146.55 122.091 146.897 121.755 147.228C121.42 147.557 120.953 147.722 120.351 147.722C119.911 147.712 119.553 147.604 119.277 147.397C119.004 147.188 118.806 146.917 118.689 146.581C118.571 146.246 118.506 145.87 118.495 145.453C118.495 144.964 118.542 144.473 118.635 143.981C118.729 143.493 118.886 143.028 119.106 142.59C119.328 142.15 119.624 141.799 119.995 141.533C120.366 141.268 120.815 141.135 121.337 141.135C121.677 141.135 122.033 141.237 122.402 141.441V143.03H121.602V142.641C121.602 141.931 121.375 141.575 120.922 141.575Z" fill="#1A1A18"/>
<path d="M123.188 146.441C123.222 145.937 123.248 145.281 123.273 144.475C123.297 143.668 123.326 143.013 123.362 142.508C123.415 141.835 123.48 141.237 123.555 140.713C123.631 140.188 123.722 139.664 123.828 139.135C123.935 138.608 124.059 138.042 124.2 137.433C124.339 136.826 124.471 136.237 124.589 135.668L124.722 135.066H126.175V135.479C126.162 135.484 126.11 135.506 126.019 135.544C125.931 135.582 125.826 135.673 125.706 135.813C125.586 135.955 125.457 136.195 125.319 136.531C125.181 136.868 125.059 137.3 124.95 137.828C124.846 138.384 124.764 138.837 124.706 139.182C124.65 139.526 124.595 139.895 124.546 140.291C124.495 140.684 124.457 141.044 124.426 141.368C124.397 141.693 124.362 142.133 124.322 142.693L124.175 144.882C124.186 144.87 124.262 144.746 124.402 144.51C124.542 144.273 124.693 144.021 124.857 143.753C125.022 143.482 125.193 143.215 125.375 142.948C125.673 142.51 126.175 141.946 126.884 141.255L128.228 141.188V143.135C128.228 144.148 127.959 145.112 127.419 146.024C126.879 146.937 126.164 147.841 125.268 148.735L124.322 149.721L123.933 149.281C124.435 148.935 124.882 148.535 125.273 148.081C125.666 147.628 126.002 147.133 126.279 146.595C126.56 146.057 126.77 145.495 126.917 144.904C127.062 144.313 127.135 143.715 127.135 143.106C127.135 142.613 127.077 142.284 126.962 142.119C126.939 142.086 126.906 142.068 126.868 142.068C126.677 142.068 126.36 142.341 125.915 142.888C125.471 143.435 125.053 144.091 124.66 144.855C124.268 145.619 124.026 146.322 123.935 146.961L123.855 147.535L123.082 147.801C123.131 147.335 123.166 146.881 123.188 146.441Z" fill="#1A1A18"/>
<path d="M129.339 146.082C129.339 146.339 129.393 146.564 129.497 146.762C129.604 146.957 129.748 147.108 129.93 147.212C130.113 147.317 130.311 147.371 130.524 147.375C130.87 147.375 131.166 147.275 131.41 147.073C131.655 146.873 131.777 146.595 131.777 146.241C131.777 145.961 131.711 145.733 131.579 145.55C131.448 145.368 131.248 145.181 130.977 144.988L130.271 144.468C129.755 144.046 129.486 143.539 129.46 142.948C129.46 142.431 129.604 142.01 129.895 141.681C130.186 141.355 130.613 141.173 131.177 141.135C131.339 141.135 131.53 141.159 131.75 141.208C131.972 141.257 132.08 141.282 132.07 141.282V142.693H131.67V142.335C131.67 142.115 131.615 141.919 131.508 141.75C131.401 141.579 131.251 141.495 131.057 141.495C130.846 141.495 130.662 141.597 130.504 141.804C130.348 142.008 130.271 142.215 130.271 142.426C130.299 142.952 130.575 143.408 131.097 143.786L131.699 144.199C132.268 144.59 132.566 145.088 132.59 145.695C132.59 145.961 132.508 146.255 132.344 146.575C132.181 146.895 131.942 147.166 131.628 147.388C131.315 147.61 130.946 147.722 130.524 147.722H130.497C130.088 147.722 129.737 147.666 129.442 147.555C129.148 147.446 128.944 147.353 128.831 147.279L128.99 145.268L129.404 145.322C129.397 145.33 129.388 145.419 129.375 145.584C129.364 145.748 129.353 145.915 129.339 146.082Z" fill="#1A1A18"/>
<path d="M67.4351 18.1276C66.4111 18.1276 65.4972 18.3444 64.7009 18.7818C63.9008 19.2156 63.2752 19.8094 62.8236 20.5631C62.372 21.3134 62.1161 22.1523 62.0556 23.0769C62.0556 24.1615 62.3259 25.1677 62.8663 26.0883C63.4101 27.0129 64.1286 27.742 65.0282 28.2825C65.924 28.8229 66.8911 29.1 67.926 29.1144C67.9792 29.086 68.0503 29.0716 68.1391 29.0716C68.8395 29.0505 69.4226 28.9862 69.8882 28.8795C70.3577 28.7692 70.7523 28.5882 71.0796 28.3357C71.4065 28.0794 71.6768 27.7203 71.8903 27.2582L72.6368 25.6583L73.3409 26.0389L71.3748 29.8857C71.1257 30.4368 69.7961 30.7142 67.3855 30.7142C66.0592 30.6893 64.875 30.3694 63.8369 29.7542C62.7986 29.1354 61.995 28.3108 61.4229 27.2725C60.8502 26.2344 60.5623 25.1001 60.5623 23.8698C60.5767 22.6468 60.8964 21.5197 61.5189 20.4958C62.1411 19.4715 62.9801 18.6609 64.0327 18.0637C65.0849 17.4662 66.219 17.1675 67.4316 17.1675C67.7906 17.1675 68.1497 17.1963 68.5053 17.253C68.8644 17.31 69.3232 17.3951 69.8849 17.5126C70.4502 17.6298 70.8771 17.7118 71.1719 17.7579C71.4671 17.8041 71.7943 17.8256 72.1461 17.8256V20.7945H71.4636C71.4564 20.7479 71.4281 20.5774 71.3711 20.2823C71.3143 19.9837 71.1684 19.6779 70.9337 19.3578C70.699 19.0381 70.2939 18.7568 69.7212 18.5115C69.1491 18.2663 68.3844 18.1382 67.4351 18.1276Z" fill="#1A1A18"/>
<path d="M81.4691 29.2885C81.8708 29.157 82.2332 29.0643 82.5568 29.0111L82.8131 29.4984C82.0983 29.6548 81.5933 29.7897 81.3016 29.9001C81.0068 30.0105 80.5373 30.238 79.8903 30.5865C79.8653 30.6148 79.8049 30.6255 79.7195 30.6255C79.6628 30.6255 79.6379 30.5437 79.6379 30.3729C79.7943 29.388 79.8975 28.6665 79.9469 28.2183C79.9935 27.7669 80.0147 27.2333 80.0147 26.6184V25.5303L78.1835 28.4923C77.8244 29.086 77.3765 29.5765 76.8323 29.9639C76.2884 30.3517 75.734 30.5437 75.172 30.5437C74.3651 30.5044 73.9595 29.7364 73.9595 28.236C74.006 27.3508 74.2297 26.4229 74.6387 25.4451C75.0476 24.4707 75.5488 23.5674 76.1425 22.7394C76.7401 21.9144 77.3481 21.2424 77.9703 20.7302C78.5924 20.2185 79.1185 19.9622 79.5491 19.9622C79.6768 19.9622 79.8227 19.9909 79.9825 20.0476C80.1428 20.1047 80.2777 20.1331 80.3809 20.1331L81.8953 19.9622C81.8209 20.8584 81.7033 22.0885 81.554 23.6529C81.4013 25.2173 81.3016 26.2627 81.2555 26.7855C81.2093 27.3115 81.1811 27.8094 81.1667 28.2826C81.2094 28.9507 81.3088 29.2885 81.4691 29.2885ZM79.7621 20.8372C79.6983 20.7945 79.6202 20.7729 79.5275 20.7729C79.2218 20.7729 78.8449 20.9721 78.4004 21.3666C77.9525 21.7616 77.5115 22.2877 77.0708 22.9455C76.6335 23.6035 76.2601 24.3214 75.9577 25.1034C75.6557 25.8858 75.4815 26.6394 75.435 27.3652C75.435 27.4789 75.4172 27.5817 75.3855 27.6672C75.4528 28.5312 75.7729 28.9651 76.3489 28.9651C76.8217 28.9507 77.3055 28.6415 77.7961 28.0405C78.29 27.4363 78.7346 26.7109 79.133 25.8574C79.5312 25.0041 79.8404 24.204 80.0574 23.4609C80.1855 23.0913 80.2493 22.5969 80.2493 21.9892C80.2493 21.3666 80.0857 20.9826 79.7621 20.8372Z" fill="#1A1A18"/>
<path d="M84.7509 21.0503L83.3643 21.1142V20.1969L84.8397 20.2395L84.9641 18.1703L86.5889 17.7863L86.333 20.2395L88.5977 20.1969L88.5553 21.0718L86.1194 21.0503C86.0805 21.1391 86.0129 23.1656 85.9274 27.1265C85.9274 27.7524 85.9456 28.2287 85.9773 28.5561C86.0094 28.8795 86.0982 29.1464 86.2442 29.3452C86.3934 29.5481 86.6244 29.6547 86.948 29.6687C86.9694 29.6475 86.9872 29.6333 87.005 29.6298C87.0193 29.6265 87.03 29.6226 87.0372 29.6226C87.5277 29.5764 87.9294 29.3417 88.2386 28.9223C88.5482 28.4989 88.7009 27.9301 88.7009 27.2153H89.3018C89.3018 27.8628 89.1775 28.4351 88.9356 28.9366C88.6937 29.4378 88.349 29.8218 87.908 30.0954C87.4672 30.3656 86.955 30.501 86.3757 30.501C85.9097 30.501 85.5012 30.4299 85.1489 30.284C84.7971 30.1382 84.5517 30.021 84.4096 29.925C84.3987 29.6936 84.3846 29.349 84.3702 28.8974C84.356 28.4456 84.342 28.1082 84.3276 27.8769C84.3597 26.4085 84.4984 24.1328 84.7509 21.0503Z" fill="#1A1A18"/>
<path d="M90.258 28.4955C90.3113 27.6886 90.354 26.6394 90.3929 25.3491C90.4322 24.0585 90.4784 23.0095 90.5354 22.2023C90.6205 21.1251 90.7237 20.1684 90.8446 19.3293C90.9656 18.4904 91.1114 17.6514 91.282 16.8051C91.4528 15.9623 91.652 15.0555 91.8757 14.0815C92.0998 13.111 92.3096 12.1687 92.4981 11.2583L92.7113 10.2948H95.0365V10.9563C95.0153 10.9631 94.9337 10.9989 94.7878 11.0591C94.6457 11.1195 94.4782 11.2654 94.2862 11.4895C94.0942 11.7171 93.8882 12.1011 93.6679 12.6378C93.4471 13.1783 93.2518 13.868 93.0776 14.7143C92.9105 15.6032 92.779 16.3284 92.6864 16.8795C92.5976 17.4305 92.5087 18.021 92.4305 18.6541C92.3485 19.2834 92.288 19.8594 92.2385 20.3783C92.192 20.8975 92.1353 21.6014 92.0714 22.4974L91.8368 25.9995C91.8545 25.9818 91.9754 25.7826 92.1992 25.4058C92.4233 25.0252 92.6652 24.6234 92.9282 24.1934C93.1913 23.7594 93.4649 23.3331 93.7568 22.9064C94.2329 22.2056 95.0365 21.3027 96.1708 20.1969L98.322 20.0903V23.205C98.322 24.8265 97.8916 26.3693 97.0276 27.827C96.1636 29.2885 95.0188 30.7356 93.586 32.1647L92.0714 33.7434L91.4489 33.0396C92.2525 32.4848 92.9672 31.845 93.593 31.1196C94.2224 30.3944 94.7594 29.6013 95.2036 28.7408C95.6518 27.8805 95.9897 26.9811 96.224 26.0351C96.4553 25.0893 96.5725 24.1329 96.5725 23.1589C96.5725 22.3694 96.4802 21.8432 96.2954 21.5802C96.2596 21.5268 96.2062 21.4982 96.1458 21.4982C95.8399 21.4982 95.3317 21.9358 94.6207 22.8105C93.9094 23.685 93.2412 24.7338 92.612 25.9569C91.986 27.1799 91.5982 28.3035 91.4528 29.3274L91.3246 30.2447L90.0872 30.6714C90.1654 29.925 90.2225 29.1997 90.258 28.4955Z" fill="#1A1A18"/>
<path d="M105.433 26.7427L106.094 26.8315C106.094 27.1267 106.005 27.5605 105.831 28.1295C105.654 28.702 105.294 29.2459 104.747 29.7648C104.199 30.2841 103.424 30.5437 102.422 30.5437C101.696 30.5437 101.099 30.3552 100.629 29.9745C100.16 29.5977 99.8188 29.0928 99.6056 28.4566C99.3924 27.8236 99.2854 27.1194 99.2854 26.3409C99.3281 25.5234 99.4169 24.7555 99.5557 24.0407C99.6943 23.3295 99.9113 22.6645 100.199 22.0496C100.491 21.4309 100.875 20.9365 101.355 20.5597C101.831 20.1829 102.407 19.9837 103.083 19.9622C103.67 19.9622 104.142 20.0797 104.505 20.3179C104.864 20.556 105.124 20.8799 105.28 21.2851C105.437 21.6903 105.515 22.1524 105.515 22.6717C105.515 23.1162 105.429 23.71 105.259 24.4603C103.862 24.9259 102.386 25.2495 100.839 25.4236C100.832 25.4236 100.804 25.6726 100.758 26.1705C100.839 28.3534 101.586 29.4767 102.998 29.541C103.431 29.541 103.837 29.4201 104.214 29.1748C104.587 28.9295 104.886 28.6022 105.102 28.197C105.323 27.7914 105.433 27.3652 105.433 26.9169V26.7427ZM100.925 24.7373L102.806 24.4603C103.25 24.3748 103.598 24.1473 103.844 23.7776C104.089 23.4115 104.214 22.9847 104.214 22.4975C104.214 21.9465 104.146 21.4804 104.007 21.1036C103.872 20.7268 103.563 20.5382 103.083 20.5382C102.368 20.556 101.831 21.047 101.476 22.0138C101.117 22.9775 100.921 23.8521 100.882 24.6345C100.9 24.6556 100.91 24.6805 100.917 24.6984C100.921 24.7161 100.925 24.7305 100.925 24.7373Z" fill="#1A1A18"/>
<path d="M107.67 16.3784L107.374 15.8235L109.38 14.8424C110.027 15.3651 110.638 15.9374 111.211 16.5526C111.78 17.1714 112.299 17.8644 112.761 18.6431C113.223 19.4183 113.593 20.2929 113.87 21.2706C114.144 22.245 114.283 23.3082 114.283 24.4602C114.283 26.1915 113.977 27.5355 113.365 28.4922C113.238 28.7197 112.96 29.0005 112.53 29.3385C112.096 29.6759 111.595 29.9711 111.019 30.2163C110.443 30.4616 109.867 30.5864 109.291 30.5864C108.768 30.5864 108.338 30.4012 107.997 30.0282C107.659 29.6582 107.41 29.157 107.257 28.5277C107.104 27.8946 107.029 27.2013 107.029 26.4473C107.044 25.5833 107.19 24.7016 107.474 23.7987C107.755 22.8992 108.125 22.1206 108.583 21.4665C109.042 20.8155 109.525 20.4032 110.041 20.2395C110.037 20.2395 110.144 20.1934 110.364 20.1008C110.581 20.0086 110.752 19.9622 110.869 19.9622C111.026 19.9622 111.126 20.0049 111.172 20.0941C111.172 20.1046 111.179 20.1258 111.193 20.1651C111.207 20.2041 111.211 20.2433 111.211 20.2788C111.211 20.3711 111.168 20.4494 111.076 20.5135C110.987 20.5808 110.848 20.6484 110.667 20.7161C110.482 20.7872 110.343 20.8405 110.254 20.8798C109.988 20.9935 109.728 21.3311 109.476 21.8894C109.223 22.4475 109.02 23.1162 108.864 23.8875C108.708 24.6627 108.63 25.3952 108.63 26.085C108.63 27.0839 108.747 27.9123 108.978 28.581C109.212 29.2458 109.664 29.6086 110.336 29.6687C111.929 29.6687 112.761 27.9978 112.832 24.6555C112.832 23.6955 112.679 22.7215 112.374 21.7293C112.068 20.7373 111.673 19.8377 111.182 19.0236C110.695 18.2129 110.169 17.5622 109.607 17.0715C109.042 16.581 108.519 16.3391 108.036 16.3391C107.876 16.3391 107.755 16.35 107.67 16.3784Z" fill="#1A1A18"/>
<path d="M122.428 20.2395V22.0318C122.407 22.0246 122.364 22.0137 122.3 22.0031C122.236 21.9925 122.151 21.9891 122.044 21.9891C121.34 21.9891 120.601 22.8282 119.822 24.5063C119.477 25.2776 119.168 26.0922 118.898 26.949C118.624 27.8025 118.407 28.5738 118.24 29.267C118.073 29.9568 117.991 30.3552 117.991 30.4584H116.882L117.369 21.4983L115.26 21.9248V21.0718C115.776 21.0609 116.391 20.9614 117.109 20.7729C117.827 20.5881 118.457 20.3711 118.994 20.133L118.713 25.509C118.734 25.4591 118.891 25.0752 119.186 24.3533C119.477 23.6317 119.715 23.0629 119.897 22.6539C120.078 22.2415 120.259 21.8644 120.441 21.5232C120.622 21.1818 120.793 20.926 120.953 20.7552C121.287 20.3821 121.65 20.1969 122.044 20.1969C122.151 20.1969 122.236 20.2006 122.3 20.2113C122.364 20.2218 122.407 20.2323 122.428 20.2395Z" fill="#1A1A18"/>
<path d="M130.834 29.2885C131.236 29.157 131.598 29.0643 131.922 29.0111L132.178 29.4984C131.463 29.6548 130.958 29.7897 130.666 29.9001C130.372 30.0105 129.902 30.238 129.255 30.5865C129.23 30.6148 129.17 30.6255 129.084 30.6255C129.028 30.6255 129.003 30.5437 129.003 30.3729C129.159 29.388 129.262 28.6665 129.312 28.2183C129.358 27.7669 129.379 27.2333 129.379 26.6184V25.5303L127.548 28.4923C127.189 29.086 126.741 29.5765 126.197 29.9639C125.653 30.3517 125.099 30.5437 124.537 30.5437C123.73 30.5044 123.324 29.7364 123.324 28.236C123.371 27.3508 123.594 26.4229 124.003 25.4451C124.412 24.4707 124.914 23.5674 125.507 22.7394C126.105 21.9144 126.713 21.2424 127.335 20.7302C127.957 20.2185 128.483 19.9622 128.914 19.9622C129.042 19.9622 129.187 19.9909 129.347 20.0476C129.508 20.1047 129.642 20.1331 129.746 20.1331L131.26 19.9622C131.186 20.8584 131.068 22.0885 130.919 23.6529C130.766 25.2173 130.666 26.2627 130.62 26.7855C130.574 27.3115 130.546 27.8094 130.531 28.2826C130.574 28.9507 130.674 29.2885 130.834 29.2885ZM129.127 20.8372C129.063 20.7945 128.985 20.7729 128.892 20.7729C128.586 20.7729 128.21 20.9721 127.765 21.3666C127.317 21.7616 126.876 22.2877 126.436 22.9455C125.998 23.6035 125.625 24.3214 125.322 25.1034C125.02 25.8858 124.846 26.6394 124.8 27.3652C124.8 27.4789 124.782 27.5817 124.75 27.6672C124.818 28.5312 125.138 28.9651 125.714 28.9651C126.187 28.9507 126.67 28.6415 127.161 28.0405C127.655 27.4363 128.099 26.7109 128.498 25.8574C128.896 25.0041 129.205 24.204 129.422 23.4609C129.55 23.0913 129.614 22.5969 129.614 21.9892C129.614 21.3666 129.45 20.9826 129.127 20.8372Z" fill="#1A1A18"/>
<path d="M135.122 29.5409L137.084 29.157V30.0705C135.787 30.117 134.549 30.3728 133.373 30.8423C133.422 30.1736 133.458 29.5126 133.483 28.8546C133.508 28.197 133.536 27.2725 133.571 26.0778C133.611 24.8869 133.65 23.877 133.689 23.0519C133.732 22.2273 133.788 21.4199 133.863 20.6235C133.966 19.557 134.069 18.6219 134.165 17.8218C134.265 17.0183 134.371 16.2609 134.489 15.5394C134.606 14.8209 134.745 14.0638 134.901 13.2671C135.058 12.4707 135.253 11.5606 135.488 10.5367H137.831V11.1694C137.764 11.2155 137.646 11.301 137.479 11.4291C137.312 11.5573 137.109 11.852 136.871 12.318C136.636 12.7871 136.402 13.4984 136.171 14.4584C136.004 15.1481 135.858 16.2291 135.73 17.7008C135.602 19.173 135.495 20.7944 135.403 22.5614C135.314 24.3286 135.243 25.8963 135.196 27.2691C135.147 28.6377 135.122 29.3951 135.122 29.5409Z" fill="#1A1A18"/>
<path d="M139.008 27.9196C139.008 28.332 139.093 28.6911 139.261 29.0077C139.431 29.3207 139.663 29.5623 139.954 29.7293C140.245 29.8967 140.562 29.9817 140.903 29.9889C141.458 29.9889 141.931 29.8291 142.322 29.5055C142.713 29.1855 142.908 28.7409 142.908 28.1755C142.908 27.7276 142.802 27.3615 142.592 27.07C142.382 26.7783 142.063 26.4796 141.629 26.1705L140.498 25.3382C139.673 24.6627 139.243 23.8521 139.2 22.9065C139.2 22.078 139.431 21.406 139.897 20.8799C140.363 20.3572 141.045 20.0654 141.948 20.0049C142.208 20.0049 142.514 20.0442 142.866 20.1225C143.221 20.2006 143.392 20.2396 143.378 20.2396V22.4975H142.738V21.9249C142.738 21.573 142.649 21.2601 142.478 20.9898C142.308 20.7162 142.066 20.5809 141.756 20.5809C141.419 20.5809 141.124 20.7445 140.871 21.0753C140.623 21.4022 140.498 21.7329 140.498 22.0708C140.544 22.9136 140.985 23.6424 141.821 24.2467L142.784 24.9081C143.694 25.534 144.171 26.3304 144.21 27.3009C144.21 27.7276 144.078 28.1971 143.815 28.7088C143.556 29.221 143.172 29.6548 142.67 30.0105C142.169 30.3657 141.579 30.5437 140.903 30.5437H140.861C140.206 30.5437 139.645 30.4545 139.172 30.2769C138.703 30.1027 138.375 29.9535 138.194 29.8363L138.45 26.6184L139.111 26.7037C139.101 26.7177 139.087 26.8602 139.065 27.1233C139.047 27.3864 139.029 27.6532 139.008 27.9196Z" fill="#1A1A18"/>
<path fill-rule="evenodd" clip-rule="evenodd" d="M114.613 65.5016C123.099 65.5016 129.978 66.9348 129.978 68.703C129.978 70.4706 123.099 71.9038 114.613 71.9038C106.127 71.9038 99.2478 70.4706 99.2478 68.703C99.2478 66.9348 106.127 65.5016 114.613 65.5016Z" fill="#D9DADA"/>
<path d="M114.613 65.5016C123.099 65.5016 129.978 66.9348 129.978 68.703C129.978 70.4706 123.099 71.9038 114.613 71.9038C106.127 71.9038 99.2478 70.4706 99.2478 68.703C99.2478 66.9348 106.127 65.5016 114.613 65.5016Z" stroke="#1A1A18" stroke-width="0.288" stroke-miterlimit="22.9256"/>
<path fill-rule="evenodd" clip-rule="evenodd" d="M151.998 126.475C162.465 126.475 170.951 128.845 170.951 131.771C170.951 134.695 162.465 137.066 151.998 137.066C141.529 137.066 133.044 134.695 133.044 131.771C133.044 128.845 141.529 126.475 151.998 126.475Z" fill="#EF7C00"/>
<path d="M151.998 126.475C162.465 126.475 170.951 128.845 170.951 131.771C170.951 134.695 162.465 137.066 151.998 137.066C141.529 137.066 133.044 134.695 133.044 131.771C133.044 128.845 141.529 126.475 151.998 126.475Z" stroke="#1A1A18" stroke-width="0.288" stroke-miterlimit="22.9256"/>
<path fill-rule="evenodd" clip-rule="evenodd" d="M98.9277 46.7947H129.709V69.3425H98.9277V46.7947Z" fill="#D9DADA"/>
<path fill-rule="evenodd" clip-rule="evenodd" d="M132.649 124.894H170.619V131.212H132.649V124.894Z" fill="#EF7C00"/>
<path fill-rule="evenodd" clip-rule="evenodd" d="M114.319 43.4357C122.805 43.4357 129.684 44.8689 129.684 46.6369C129.684 48.4046 122.805 49.8379 114.319 49.8379C105.833 49.8379 98.9543 48.4046 98.9543 46.6369C98.9543 44.8689 105.833 43.4357 114.319 43.4357Z" fill="#D9DADA"/>
<path d="M114.319 43.4357C122.805 43.4357 129.684 44.8689 129.684 46.6369C129.684 48.4046 122.805 49.8379 114.319 49.8379C105.833 49.8379 98.9543 48.4046 98.9543 46.6369C98.9543 44.8689 105.833 43.4357 114.319 43.4357Z" stroke="#1A1A18" stroke-width="0.288" stroke-miterlimit="22.9256"/>
<path fill-rule="evenodd" clip-rule="evenodd" d="M152.17 121.165C162.637 121.165 171.123 122.933 171.123 125.114C171.123 127.295 162.637 129.063 152.17 129.063C141.701 129.063 133.216 127.295 133.216 125.114C133.216 122.933 141.701 121.165 152.17 121.165Z" fill="#EF7C00"/>
<path d="M152.17 121.165C162.637 121.165 171.123 122.933 171.123 125.114C171.123 127.295 162.637 129.063 152.17 129.063C141.701 129.063 133.216 127.295 133.216 125.114C133.216 122.933 141.701 121.165 152.17 121.165Z" stroke="#1A1A18" stroke-width="0.288" stroke-miterlimit="22.9256"/>
<path fill-rule="evenodd" clip-rule="evenodd" d="M151.862 120.731C162.33 120.731 170.816 122.499 170.816 124.68C170.816 126.861 162.33 128.628 151.862 128.628C141.394 128.628 132.908 126.861 132.908 124.68C132.908 122.499 141.394 120.731 151.862 120.731Z" fill="#AD4482"/>
<path d="M151.862 120.731C162.33 120.731 170.816 122.499 170.816 124.68C170.816 126.861 162.33 128.628 151.862 128.628C141.394 128.628 132.908 126.861 132.908 124.68C132.908 122.499 141.394 120.731 151.862 120.731Z" stroke="#1A1A18" stroke-width="0.288" stroke-miterlimit="22.9256"/>
<path fill-rule="evenodd" clip-rule="evenodd" d="M132.513 119.151H170.484V125.469H132.513V119.151Z" fill="#AD4482"/>
<path fill-rule="evenodd" clip-rule="evenodd" d="M152.034 112.216C162.502 112.216 170.988 114.701 170.988 117.768C170.988 120.834 162.502 123.32 152.034 123.32C141.566 123.32 133.08 120.834 133.08 117.768C133.08 114.701 141.566 112.216 152.034 112.216Z" fill="#AD4482"/>
<path d="M152.034 112.216C162.502 112.216 170.988 114.701 170.988 117.768C170.988 120.834 162.502 123.32 152.034 123.32C141.566 123.32 133.08 120.834 133.08 117.768C133.08 114.701 141.566 112.216 152.034 112.216Z" stroke="#1A1A18" stroke-width="0.288" stroke-miterlimit="22.9256"/>
<path d="M40.4577 51.1807C40.6418 51.3488 41.4098 51.7165 42.7617 52.2688C44.1216 52.8127 45.3854 53.4367 46.5537 54.1246C47.7216 54.8207 48.7534 55.7728 49.6416 56.9887C50.5294 58.2046 50.9777 59.6767 50.9777 61.4126C50.8496 64.1729 50.0894 66.5085 48.6896 68.4127C47.2817 70.3164 45.5294 71.7405 43.4174 72.6767C41.3054 73.6045 39.1697 74.0926 37.0176 74.1326L37.3457 72.4526C38.9054 72.4526 40.4894 72.1087 42.0977 71.4124C43.7054 70.7246 45.0416 69.7567 46.0896 68.5087C47.1377 67.2607 47.6657 65.8607 47.6657 64.2926C47.6657 62.3326 47.2094 60.7648 46.2896 59.5885C45.3696 58.4128 43.9617 57.3568 42.0497 56.4206C40.0016 55.3646 38.7134 54.6367 38.1938 54.2288C37.6737 53.8207 37.3937 53.2688 37.3457 52.5727C37.4738 51.7645 37.5456 51.1727 37.5456 50.8046C38.1458 44.4769 38.4977 41.2608 38.5937 41.1566H49.9217V44.8046H39.9777C39.6254 47.0447 39.4334 48.3566 39.4017 48.7406C39.5216 49.9486 39.8738 50.7565 40.4577 51.1807Z" fill="#1A1A18"/>
<path d="M53.2737 53.2526H62.4977V44.0365H64.7457V53.2526H74.0256V55.6046H64.8497V64.9646H62.4977V55.6046H53.2737V53.2526Z" fill="#1A1A18"/>
<path d="M89.9376 47.6287H84.3775L83.5695 53.4446H89.0815L89.9376 47.6287ZM95.6575 55.7965H91.0416L89.8495 64.9646H87.4015L88.6975 55.7965H83.2735L81.9696 64.9646H79.5216L80.7295 55.7965H76.3135V53.5406H81.1135L81.9696 47.7326H77.4655V45.3805H82.2655L83.4576 36.6367H85.9135L84.6655 45.3805H90.2335L91.4252 36.6367H93.8732L92.6335 45.3805H96.6655V47.7326H92.2975L91.4252 53.5406H95.6575V55.7965Z" fill="#1A1A18"/>
<path d="M88.5227 133.33L102.771 134.818L102.155 136.882C98.9066 136.69 95.2986 136.586 91.3468 136.586C86.7146 136.586 83.1146 136.754 80.5547 137.074L80.2188 134.338C80.7626 134.338 81.1629 134.37 81.4107 134.434C81.7309 134.37 82.1629 134.338 82.7148 134.338C84.1548 134.186 85.4987 133.674 86.7387 132.81C87.9867 131.946 89.0586 130.874 89.9786 129.594C90.8906 128.315 91.5948 126.978 92.0906 125.594C92.5869 124.202 92.8348 122.962 92.8348 121.858C92.8348 120.354 92.4746 119.066 91.7466 117.97C91.0266 116.882 90.0107 116.338 88.7067 116.338C87.3707 116.434 86.2989 116.971 85.4907 117.947C84.6827 118.93 84.2666 120.266 84.2428 121.954C84.2749 122.211 84.2908 122.595 84.2908 123.098H82.8988C82.8988 120.235 83.5149 117.866 84.7466 116.002C85.9708 114.139 87.8586 113.162 90.3868 113.074C91.5066 113.074 92.5146 113.346 93.3945 113.882C94.2669 114.418 94.9626 115.178 95.4665 116.146C95.9706 117.123 96.2428 118.227 96.2908 119.458C96.2908 120.875 96.0666 122.194 95.6267 123.419C95.1868 124.65 94.5945 125.802 93.8586 126.89C93.1227 127.986 92.2746 129.074 91.3068 130.162C90.3468 131.25 89.4189 132.306 88.5227 133.33Z" fill="#1A1A18"/>
<path fill-rule="evenodd" clip-rule="evenodd" d="M26.6882 115.646H72.8926V137.066H26.6882V115.646Z" fill="#AD4482"/>
<path fill-rule="evenodd" clip-rule="evenodd" d="M51.7881 105.429H73.0317V116.139H51.7881V105.429Z" fill="#AD4482"/>
<path fill-rule="evenodd" clip-rule="evenodd" d="M62.1455 92.9671L56.8969 99.1405L51.6482 105.314H62.1455H72.6427L67.3941 99.1405L62.1455 92.9671Z" fill="#AD4482"/>
<path fill-rule="evenodd" clip-rule="evenodd" d="M112.705 108.652L109.481 120.084L98.8655 119.505L107.942 126.348L104.152 137.066L112.986 129.863L121.259 137.066L117.642 125.772L126.545 119.505L115.476 119.729L112.705 108.652Z" fill="#D9DADA"/>
<path d="M112.705 108.652L109.481 120.084L98.8655 119.505L107.942 126.348L104.152 137.066L112.986 129.863L121.259 137.066L117.642 125.772L126.545 119.505L115.476 119.729L112.705 108.652Z" stroke="#1A1A18" stroke-width="0.288" stroke-miterlimit="22.9256"/>
<path d="M11.0444 134.071C14.9574 134.071 18.1296 137.162 18.1296 140.974C18.1296 144.787 14.9574 147.878 11.0444 147.878C7.13144 147.878 3.95972 144.787 3.95972 140.974C3.95972 137.162 7.13144 134.071 11.0444 134.071Z" stroke="#E3000F" stroke-width="2.6664" stroke-miterlimit="22.9256"/>
<path d="M10.8155 141.199L5.0118 145.159C4.17767 143.998 3.73047 142.616 3.73047 141.199C3.73047 137.387 6.9026 134.296 10.8155 134.296C13.1271 134.296 15.2933 135.395 16.619 137.24L10.8155 141.199Z" stroke="#E3000F" stroke-width="2.6664" stroke-miterlimit="22.9256"/>
<path d="M165.121 42L171.681 45.5786L178.242 49.1569L171.681 53.2358L165.181 56.7358L158.561 52.7358L152 49L158.561 45.5786L165.121 42Z" fill="#D7B469" stroke="#1A1A18" stroke-width="0.288" stroke-miterlimit="22.9256"/>
<path d="M152.54 63.6996L152.361 56.468L152.181 49.2358L158.681 52.7358L165.181 56.7358V63.7358V71.2358L158.861 67.4677L152.54 63.6996Z" fill="#D7B469" stroke="#1A1A18" stroke-width="0.288" stroke-miterlimit="22.9256"/>
<path d="M165.181 56.7358L171.861 53.0039L178.181 49.2358L178.002 56.4681L177.822 63.7001L171.502 67.4677L165.181 71.2358V64.2358V56.7358Z" fill="#D7B469" stroke="#1A1A18" stroke-width="0.288" stroke-miterlimit="22.9256"/>
<path d="M94.9393 100.061C95.5251 100.646 96.4749 100.646 97.0607 100.061L106.607 90.5147C107.192 89.9289 107.192 88.9792 106.607 88.3934C106.021 87.8076 105.071 87.8076 104.485 88.3934L96 96.8787L87.5147 88.3934C86.9289 87.8076 85.9792 87.8076 85.3934 88.3934C84.8076 88.9792 84.8076 89.9289 85.3934 90.5147L94.9393 100.061ZM94.5 76V99H97.5V76H94.5Z" fill="black"/>
<path d="M22.5303 97.4697C22.2374 97.1768 21.7626 97.1768 21.4697 97.4697L16.6967 102.243C16.4038 102.536 16.4038 103.01 16.6967 103.303C16.9896 103.596 17.4645 103.596 17.7574 103.303L22 99.0607L26.2426 103.303C26.5355 103.596 27.0104 103.596 27.3033 103.303C27.5962 103.01 27.5962 102.536 27.3033 102.243L22.5303 97.4697ZM22.75 133L22.75 131.542L21.25 131.542L21.25 133L22.75 133ZM22.75 128.625L22.75 125.708L21.25 125.708L21.25 128.625L22.75 128.625ZM22.75 122.792L22.75 119.875L21.25 119.875L21.25 122.792L22.75 122.792ZM22.75 116.958L22.75 114.042L21.25 114.042L21.25 116.958L22.75 116.958ZM22.75 111.125L22.75 108.208L21.25 108.208L21.25 111.125L22.75 111.125ZM22.75 105.292L22.75 102.375L21.25 102.375L21.25 105.292L22.75 105.292ZM22.75 99.4583L22.75 98L21.25 98L21.25 99.4583L22.75 99.4583ZM23.0607 96.9393C22.4749 96.3536 21.5251 96.3536 20.9393 96.9393L11.3934 106.485C10.8076 107.071 10.8076 108.021 11.3934 108.607C11.9792 109.192 12.9289 109.192 13.5147 108.607L22 100.121L30.4853 108.607C31.0711 109.192 32.0208 109.192 32.6066 108.607C33.1924 108.021 33.1924 107.071 32.6066 106.485L23.0607 96.9393ZM23.5 133L23.5 131.542L20.5 131.542L20.5 133L23.5 133ZM23.5 128.625L23.5 125.708L20.5 125.708L20.5 128.625L23.5 128.625ZM23.5 122.792L23.5 119.875L20.5 119.875L20.5 122.792L23.5 122.792ZM23.5 116.958L23.5 114.042L20.5 114.042L20.5 116.958L23.5 116.958ZM23.5 111.125L23.5 108.208L20.5 108.208L20.5 111.125L23.5 111.125ZM23.5 105.292L23.5 102.375L20.5 102.375L20.5 105.292L23.5 105.292ZM23.5 99.4583L23.5 98L20.5 98L20.5 99.4583L23.5 99.4583Z" fill="black"/>
<path d="M132.454 99.4855C132.17 99.7869 132.184 100.262 132.485 100.546L137.397 105.176C137.698 105.46 138.173 105.446 138.457 105.145C138.741 104.844 138.727 104.369 138.426 104.085L134.06 99.9688L138.176 95.6033C138.46 95.3019 138.446 94.8272 138.145 94.5431C137.844 94.2589 137.369 94.2729 137.085 94.5743L132.454 99.4855ZM166.978 98.2503L165.561 98.292L165.605 99.7913L167.022 99.7497L166.978 98.2503ZM162.728 98.3753L159.895 98.4587L159.939 99.958L162.772 99.8747L162.728 98.3753ZM157.061 98.542L154.228 98.6253L154.272 100.125L157.105 100.041L157.061 98.542ZM151.395 98.7087L148.561 98.792L148.605 100.291L151.439 100.208L151.395 98.7087ZM145.728 98.8753L142.895 98.9587L142.939 100.458L145.772 100.375L145.728 98.8753ZM140.061 99.042L137.228 99.1253L137.272 100.625L140.105 100.541L140.061 99.042ZM134.395 99.2087L132.978 99.2503L133.022 100.75L134.439 100.708L134.395 99.2087ZM131.909 98.971C131.34 99.5737 131.368 100.523 131.971 101.091L141.793 110.353C142.396 110.921 143.346 110.893 143.914 110.29C144.482 109.687 144.454 108.738 143.851 108.17L135.12 99.9376L143.353 91.2066C143.921 90.6038 143.893 89.6545 143.29 89.0862C142.687 88.5178 141.738 88.5458 141.17 89.1485L131.909 98.971ZM166.956 97.5006L165.539 97.5423L165.627 100.541L167.044 100.499L166.956 97.5006ZM162.706 97.6256L159.873 97.709L159.961 100.708L162.794 100.624L162.706 97.6256ZM157.039 97.7923L154.206 97.8756L154.294 100.874L157.127 100.791L157.039 97.7923ZM151.373 97.959L148.539 98.0423L148.627 101.041L151.461 100.958L151.373 97.959ZM145.706 98.1256L142.873 98.209L142.961 101.208L145.794 101.124L145.706 98.1256ZM140.039 98.2923L137.206 98.3756L137.294 101.374L140.127 101.291L140.039 98.2923ZM134.373 98.459L132.956 98.5006L133.044 101.499L134.461 101.458L134.373 98.459Z" fill="black"/>
</g>
<defs>
<clipPath id="clip0_2_22765">
<rect width="1122.52" height="1587.4" fill="white" transform="translate(-249 -508)"/>
</clipPath>
</defs>
</svg>
