<svg width="192" height="150" viewBox="0 0 192 150" fill="none" xmlns="http://www.w3.org/2000/svg">
<g clip-path="url(#clip0_2_22765)">
<path d="M82.9797 29.6687L84.4124 29.5373V30.2841C83.3243 30.2025 82.2365 30.1597 81.1449 30.1597C79.8577 30.1597 78.6773 30.2163 77.6069 30.3302V29.4983H78.8656C79.4132 29.4983 79.776 29.3739 79.9503 29.1214C80.1245 28.8723 80.2096 28.4566 80.2096 27.8769V21.4131V20.4104C80.2096 19.1231 80.0108 18.405 79.6124 18.2557C79.3848 18.1454 79.022 18.0886 78.5208 18.0886H77.6069V17.2957C78.7412 17.3562 80.2133 17.4129 82.0196 17.4662C83.8327 17.4166 85.3153 17.3596 86.4601 17.2957L86.4818 20.2395L85.7349 20.2823L85.6921 19.4965C85.6532 18.6963 85.1128 18.2985 84.0674 18.2985H81.6568V23.2905L84.5368 23.2477C84.878 23.2227 85.1378 23.1444 85.3082 23.0163C85.4757 22.8849 85.5607 22.6574 85.5607 22.3304V21.7545H86.2898C86.2898 22.2484 86.2754 22.6324 86.247 22.9026C86.3075 24.2361 86.3642 25.2105 86.4179 25.8291H85.6034V24.8298C85.6034 24.3286 85.2765 24.0795 84.6257 24.0795L81.7028 24.0369V27.4929C81.7028 27.9978 81.7988 28.485 81.9908 28.9578C82.1795 29.4306 82.5102 29.6687 82.9797 29.6687Z" fill="#1A1A18"/>
<path d="M87.3989 27.1694C87.4168 25.8468 87.5555 24.6699 87.8223 23.6351C88.0853 22.6006 88.5866 21.7437 89.3228 21.0645C90.0587 20.3853 91.0897 20.0335 92.4159 20.0048C92.942 20.0048 93.3759 20.2184 93.71 20.6484C94.0479 21.0752 94.2932 21.6157 94.4425 22.2662C94.5917 22.9135 94.6773 23.589 94.695 24.2894C94.695 25.4591 94.5491 26.5151 94.2611 27.4644C93.9697 28.4139 93.4897 29.1782 92.8215 29.7579C92.1528 30.3374 91.2783 30.6287 90.1973 30.6287H89.7917C89.2517 30.5648 88.8107 30.4367 88.4693 30.2379C88.128 30.0421 87.865 29.7009 87.6764 29.2209C87.4916 28.7409 87.3989 28.0548 87.3989 27.1694ZM89.042 26.2094C89.042 26.9063 89.0775 27.5034 89.1485 28.0083C89.2196 28.5099 89.3901 28.9472 89.6603 29.3168C89.9306 29.6831 90.3395 29.8856 90.8799 29.925C91.7156 29.925 92.3129 29.4627 92.6685 28.5417C93.0241 27.621 93.2017 26.5079 93.2017 25.2104V24.908C93.2017 23.8094 93.0312 22.8422 92.6934 22.0068C92.3555 21.1712 91.8009 20.7516 91.0259 20.7516C90.5492 20.7766 90.1652 21.1035 89.8739 21.7366C89.582 22.3694 89.3761 23.0985 89.2551 23.9303C89.1342 24.7587 89.0631 25.5195 89.042 26.2094Z" fill="#1A1A18"/>
<path d="M102.759 20.2395V22.0318C102.738 22.0246 102.695 22.0137 102.631 22.0031C102.567 21.9925 102.481 21.9891 102.375 21.9891C101.671 21.9891 100.931 22.8282 100.153 24.5063C99.8077 25.2776 99.4986 26.0922 99.2284 26.949C98.9544 27.8025 98.7374 28.5738 98.5703 29.267C98.4032 29.9568 98.3216 30.3552 98.3216 30.4584H97.2123L97.6995 21.4983L95.5908 21.9248V21.0718C96.1064 21.0609 96.7218 20.9614 97.4398 20.7729C98.1579 20.5881 98.7872 20.3711 99.3243 20.133L99.0435 25.509C99.0646 25.4591 99.2211 25.0752 99.5163 24.3533C99.8076 23.6317 100.046 23.0629 100.227 22.6539C100.409 22.2415 100.59 21.8644 100.771 21.5232C100.953 21.1818 101.123 20.926 101.283 20.7552C101.617 20.3821 101.98 20.1969 102.375 20.1969C102.481 20.1969 102.567 20.2006 102.631 20.2113C102.695 20.2218 102.738 20.2323 102.759 20.2395Z" fill="#1A1A18"/>
<path d="M105.081 21.0503L103.694 21.1142V20.1969L105.17 20.2395L105.294 18.1703L106.919 17.7863L106.663 20.2395L108.928 20.1969L108.886 21.0718L106.45 21.0503C106.411 21.1391 106.343 23.1656 106.258 27.1265C106.258 27.7524 106.276 28.2287 106.308 28.5561C106.34 28.8795 106.429 29.1464 106.574 29.3452C106.724 29.5481 106.955 29.6547 107.278 29.6687C107.3 29.6475 107.317 29.6333 107.335 29.6298C107.35 29.6265 107.36 29.6226 107.367 29.6226C107.858 29.5764 108.26 29.3417 108.569 28.9223C108.878 28.4989 109.031 27.9301 109.031 27.2153H109.632C109.632 27.8628 109.508 28.4351 109.266 28.9366C109.024 29.4378 108.679 29.8218 108.238 30.0954C107.797 30.3656 107.285 30.501 106.706 30.501C106.24 30.501 105.831 30.4299 105.479 30.284C105.127 30.1382 104.882 30.021 104.74 29.925C104.729 29.6936 104.715 29.349 104.7 28.8974C104.686 28.4456 104.672 28.1082 104.658 27.8769C104.69 26.4085 104.829 24.1328 105.081 21.0503Z" fill="#1A1A18"/>
<path d="M111.211 27.9196C111.211 28.332 111.296 28.6911 111.463 29.0077C111.634 29.3207 111.865 29.5623 112.156 29.7293C112.448 29.8967 112.764 29.9817 113.106 29.9889C113.66 29.9889 114.133 29.8291 114.524 29.5055C114.915 29.1855 115.111 28.7409 115.111 28.1755C115.111 27.7276 115.004 27.3615 114.795 27.07C114.585 26.7783 114.265 26.4796 113.831 26.1705L112.7 25.3382C111.876 24.6627 111.445 23.8521 111.403 22.9065C111.403 22.078 111.634 21.406 112.099 20.8799C112.565 20.3572 113.248 20.0654 114.151 20.0049C114.41 20.0049 114.716 20.0442 115.068 20.1225C115.424 20.2006 115.595 20.2396 115.58 20.2396V22.4975H114.94V21.9249C114.94 21.573 114.852 21.2601 114.681 20.9898C114.51 20.7162 114.268 20.5809 113.959 20.5809C113.621 20.5809 113.326 20.7445 113.074 21.0753C112.825 21.4022 112.7 21.7329 112.7 22.0708C112.747 22.9136 113.187 23.6424 114.023 24.2467L114.986 24.9081C115.897 25.534 116.373 26.3304 116.412 27.3009C116.412 27.7276 116.281 28.1971 116.018 28.7088C115.758 29.221 115.374 29.6548 114.873 30.0105C114.372 30.3657 113.781 30.5437 113.106 30.5437H113.063C112.409 30.5437 111.847 30.4545 111.374 30.2769C110.905 30.1027 110.578 29.9535 110.396 29.8363L110.653 26.6184L111.314 26.7037C111.303 26.7177 111.289 26.8602 111.267 27.1233C111.25 27.3864 111.232 27.6532 111.211 27.9196Z" fill="#1A1A18"/>
<path d="M76.1041 59.25L75.5761 57.4739L80.4319 53.538C82.8319 51.6101 84.032 49.2739 84.032 46.5299C84.032 45.5219 83.6718 44.6183 82.9601 43.8102C82.2401 43.0022 81.3999 42.594 80.4319 42.594H80.2321C79.0801 42.6341 78.1523 43.1462 77.4481 44.1383C76.7519 45.13 76.256 46.1781 75.9839 47.2742C75.7121 48.3619 75.5761 49.0739 75.5761 49.4021L74.1361 48.2099C74.1361 47.9699 74.4641 47.0901 75.112 45.5699C75.7681 44.0423 76.6241 42.6503 77.6881 41.3781C78.7441 40.1063 79.952 39.4743 81.296 39.4743C82.3841 39.4743 83.3441 39.7302 84.1919 40.2341C85.0321 40.7382 85.7041 41.4261 86.2078 42.2981C86.7041 43.1783 87.0001 44.1383 87.0961 45.1859C87.0961 46.4903 86.7041 47.7942 85.9279 49.1141C85.144 50.4259 84.28 51.57 83.3441 52.5542C82.4 53.5301 81.88 54.0179 81.7681 54.0179C81.8641 54.0101 82.024 53.9862 82.256 53.962C82.4801 53.9382 82.7518 53.93 83.0641 53.93C84.3601 53.93 85.5121 54.3139 86.5038 55.0902C87.4959 55.8578 88.016 57.314 88.0561 59.4499C88.0561 61.7702 87.448 63.9381 86.2241 65.9458C85.0078 67.946 83.3921 69.5378 81.3841 70.722C79.376 71.9057 77.2798 72.4979 75.0961 72.4979C74.3998 72.4979 73.7843 72.45 73.2641 72.354C72.7361 72.258 72.4961 72.2021 72.5521 72.2021V70.434C73.2083 70.8501 74.1202 71.058 75.296 71.058C76.6642 71.058 78.0478 70.6898 79.4398 69.9461C80.8318 69.2018 81.9838 68.122 82.8958 66.7058C83.8078 65.29 84.2641 63.618 84.2641 61.698C84.2641 60.3302 84.04 59.2341 83.5921 58.4181C83.1521 57.5942 82.16 57.1221 80.6161 56.9939C79.9678 56.9939 79.3042 57.1622 78.6322 57.4898C77.9518 57.8179 77.36 58.1781 76.8563 58.5701C76.352 58.962 76.1041 59.1861 76.1041 59.25Z" fill="#1A1A18"/>
<path fill-rule="evenodd" clip-rule="evenodd" d="M96.8942 121.267L112.101 125.217L127.308 129.167L112.101 133.117L96.8942 137.066L81.6877 133.117L66.4807 129.167L81.6877 125.217L96.8942 121.267Z" fill="#D9DADA"/>
<path d="M96.8942 121.267L112.101 125.217L127.308 129.167L112.101 133.117L96.8942 137.066L81.6877 133.117L66.4807 129.167L81.6877 125.217L96.8942 121.267Z" stroke="#1A1A18" stroke-width="0.288" stroke-miterlimit="22.9256"/>
<path fill-rule="evenodd" clip-rule="evenodd" d="M127.17 129.88L120.59 116.678H94.3882L100.968 129.88H127.17Z" fill="#D9DADA"/>
<path fill-rule="evenodd" clip-rule="evenodd" d="M65.7952 129.669L72.3745 116.466H98.5765L91.9967 129.669H65.7952Z" fill="#D9DADA"/>
<mask id="mask0_2_22765" style="mask-type:luminance" maskUnits="userSpaceOnUse" x="72" y="109" width="50" height="15">
<path d="M97.1315 109.82L109.305 113.249L121.479 116.678L109.305 120.107L97.1315 123.536L84.9581 120.107L72.7842 116.678L84.9581 113.249L97.1315 109.82Z" fill="white"/>
</mask>
<g mask="url(#mask0_2_22765)">
<path fill-rule="evenodd" clip-rule="evenodd" d="M97.1313 116.678L97.2092 141.974L97.6764 141.968L97.1313 116.678Z" fill="#CCCCCD"/>
<path fill-rule="evenodd" clip-rule="evenodd" d="M97.1313 116.678L97.5986 141.969L97.9882 141.959L97.1313 116.678Z" fill="#CCCCCC"/>
<path fill-rule="evenodd" clip-rule="evenodd" d="M97.1313 116.678L97.9103 141.961L98.2996 141.947L97.1313 116.678Z" fill="#CCCCCC"/>
<path fill-rule="evenodd" clip-rule="evenodd" d="M97.1313 116.678L98.2218 141.95L98.6107 141.931L97.1313 116.678Z" fill="#CBCCCC"/>
<path fill-rule="evenodd" clip-rule="evenodd" d="M97.1313 116.678L98.5329 141.934L98.9218 141.91L97.1313 116.678Z" fill="#CBCBCC"/>
<path fill-rule="evenodd" clip-rule="evenodd" d="M97.1313 116.678L98.8439 141.915L99.2324 141.886L97.1313 116.678Z" fill="#CACBCB"/>
<path fill-rule="evenodd" clip-rule="evenodd" d="M97.1313 116.678L99.1545 141.892L99.5427 141.859L97.1313 116.678Z" fill="#CACACA"/>
<path fill-rule="evenodd" clip-rule="evenodd" d="M97.1313 116.678L99.4653 141.865L99.8527 141.827L97.1313 116.678Z" fill="#CACACA"/>
<path fill-rule="evenodd" clip-rule="evenodd" d="M97.1313 116.678L99.7752 141.835L100.163 141.791L97.1313 116.678Z" fill="#C9C9C9"/>
<path fill-rule="evenodd" clip-rule="evenodd" d="M97.1313 116.678L100.085 141.8L100.472 141.752L97.1313 116.678Z" fill="#C9C9CA"/>
<path fill-rule="evenodd" clip-rule="evenodd" d="M97.1313 116.678L100.394 141.762L100.78 141.709L97.1313 116.678Z" fill="#C8C9C9"/>
<path fill-rule="evenodd" clip-rule="evenodd" d="M97.1313 116.678L100.703 141.72L101.089 141.662L97.1313 116.678Z" fill="#C8C8C9"/>
<path fill-rule="evenodd" clip-rule="evenodd" d="M97.1313 116.678L101.011 141.674L101.396 141.611L97.1313 116.678Z" fill="#C8C8C8"/>
<path fill-rule="evenodd" clip-rule="evenodd" d="M97.1313 116.678L101.319 141.624L101.703 141.557L97.1313 116.678Z" fill="#C7C7C7"/>
<path fill-rule="evenodd" clip-rule="evenodd" d="M97.1313 116.678L101.626 141.571L102.009 141.499L97.1313 116.678Z" fill="#C7C7C7"/>
<path fill-rule="evenodd" clip-rule="evenodd" d="M97.1313 116.678L101.932 141.513L102.314 141.437L97.1313 116.678Z" fill="#C6C7C7"/>
<path fill-rule="evenodd" clip-rule="evenodd" d="M97.1313 116.678L102.238 141.452L102.619 141.371L97.1313 116.678Z" fill="#C6C6C7"/>
<path fill-rule="evenodd" clip-rule="evenodd" d="M97.1313 116.678L102.543 141.387L102.923 141.302L97.1313 116.678Z" fill="#C6C6C6"/>
<path fill-rule="evenodd" clip-rule="evenodd" d="M97.1313 116.678L102.847 141.319L103.226 141.229L97.1313 116.678Z" fill="#C5C5C6"/>
<path fill-rule="evenodd" clip-rule="evenodd" d="M97.1313 116.678L103.15 141.247L103.528 141.152L97.1313 116.678Z" fill="#C4C5C5"/>
<path fill-rule="evenodd" clip-rule="evenodd" d="M97.1313 116.678L103.452 141.171L103.829 141.071L97.1313 116.678Z" fill="#C4C4C4"/>
<path fill-rule="evenodd" clip-rule="evenodd" d="M97.1313 116.678L103.753 141.091L104.129 140.987L97.1313 116.678Z" fill="#C4C4C5"/>
<path fill-rule="evenodd" clip-rule="evenodd" d="M97.1313 116.678L104.054 141.008L104.428 140.899L97.1313 116.678Z" fill="#C4C4C5"/>
<path fill-rule="evenodd" clip-rule="evenodd" d="M97.1313 116.678L104.353 140.92L104.726 140.807L97.1313 116.678Z" fill="#C3C4C4"/>
<path fill-rule="evenodd" clip-rule="evenodd" d="M97.1313 116.678L104.651 140.83L105.022 140.712L97.1313 116.678Z" fill="#C3C3C4"/>
<path fill-rule="evenodd" clip-rule="evenodd" d="M97.1313 116.678L104.948 140.735L105.318 140.613L97.1313 116.678Z" fill="#C3C3C3"/>
<path fill-rule="evenodd" clip-rule="evenodd" d="M97.1313 116.678L105.244 140.637L105.612 140.51L97.1313 116.678Z" fill="#C2C2C2"/>
<path fill-rule="evenodd" clip-rule="evenodd" d="M97.1313 116.678L105.538 140.535L105.905 140.404L97.1313 116.678Z" fill="#C2C2C3"/>
<path fill-rule="evenodd" clip-rule="evenodd" d="M97.1313 116.678L105.832 140.43L106.197 140.294L97.1313 116.678Z" fill="#C1C2C2"/>
<path fill-rule="evenodd" clip-rule="evenodd" d="M97.1313 116.678L106.123 140.321L106.487 140.18L97.1313 116.678Z" fill="#C0C1C2"/>
<path fill-rule="evenodd" clip-rule="evenodd" d="M97.1313 116.678L106.414 140.208L106.776 140.063L97.1313 116.678Z" fill="#C1C1C1"/>
<path fill-rule="evenodd" clip-rule="evenodd" d="M97.1313 116.678L106.703 140.092L107.063 139.942L97.1313 116.678Z" fill="#C0C0C1"/>
<path fill-rule="evenodd" clip-rule="evenodd" d="M97.1313 116.678L106.991 139.972L107.349 139.819L97.1313 116.678Z" fill="#BFC0C0"/>
<path fill-rule="evenodd" clip-rule="evenodd" d="M97.1313 116.678L107.277 139.849L107.633 139.691L97.1313 116.678Z" fill="#BFBFC0"/>
<path fill-rule="evenodd" clip-rule="evenodd" d="M97.1313 116.678L107.562 139.723L107.916 139.56L97.1313 116.678Z" fill="#BFBFC0"/>
<path fill-rule="evenodd" clip-rule="evenodd" d="M97.1313 116.678L107.845 139.592L108.197 139.425L97.1313 116.678Z" fill="#BEBFBF"/>
<path fill-rule="evenodd" clip-rule="evenodd" d="M97.1313 116.678L108.126 139.458L108.476 139.287L97.1313 116.678Z" fill="#BEBEBF"/>
<path fill-rule="evenodd" clip-rule="evenodd" d="M97.1313 116.678L108.406 139.321L108.754 139.145L97.1313 116.678Z" fill="#BDBEBE"/>
<path fill-rule="evenodd" clip-rule="evenodd" d="M97.1313 116.678L108.684 139.181L109.03 139.001L97.1313 116.678Z" fill="#BCBDBD"/>
<path fill-rule="evenodd" clip-rule="evenodd" d="M97.1313 116.678L108.961 139.037L109.304 138.852L97.1313 116.678Z" fill="#BCBDBD"/>
<path fill-rule="evenodd" clip-rule="evenodd" d="M97.1313 116.678L109.235 138.889L109.576 138.701L97.1313 116.678Z" fill="#BCBCBD"/>
<path fill-rule="evenodd" clip-rule="evenodd" d="M97.1313 116.678L109.508 138.738L109.846 138.545L97.1313 116.678Z" fill="#BBBCBD"/>
<path fill-rule="evenodd" clip-rule="evenodd" d="M97.1313 116.678L109.779 138.584L110.115 138.387L97.1313 116.678Z" fill="#BBBCBC"/>
<path fill-rule="evenodd" clip-rule="evenodd" d="M97.1313 116.678L110.048 138.427L110.381 138.226L97.1313 116.678Z" fill="#BABBBB"/>
<path fill-rule="evenodd" clip-rule="evenodd" d="M97.1313 116.678L110.315 138.266L110.646 138.061L97.1313 116.678Z" fill="#BABBBB"/>
<path fill-rule="evenodd" clip-rule="evenodd" d="M97.1313 116.678L110.58 138.102L110.908 137.893L97.1313 116.678Z" fill="#B9BABB"/>
<path fill-rule="evenodd" clip-rule="evenodd" d="M97.1313 116.678L110.843 137.935L111.169 137.722L97.1313 116.678Z" fill="#B9B9BA"/>
<path fill-rule="evenodd" clip-rule="evenodd" d="M97.1313 116.678L111.104 137.764L111.427 137.547L97.1313 116.678Z" fill="#B8B9BA"/>
<path fill-rule="evenodd" clip-rule="evenodd" d="M97.1313 116.678L111.362 137.59L111.683 137.369L97.1313 116.678Z" fill="#B8B9B9"/>
<path fill-rule="evenodd" clip-rule="evenodd" d="M97.1313 116.678L111.619 137.414L111.937 137.188L97.1313 116.678Z" fill="#B7B8B8"/>
<path fill-rule="evenodd" clip-rule="evenodd" d="M97.1313 116.678L111.873 137.233L112.188 137.004L97.1313 116.678Z" fill="#B7B8B8"/>
<path fill-rule="evenodd" clip-rule="evenodd" d="M97.1313 116.678L112.125 137.05L112.437 136.817L97.1313 116.678Z" fill="#B6B7B8"/>
<path fill-rule="evenodd" clip-rule="evenodd" d="M97.1313 116.678L112.375 136.864L112.685 136.628L97.1313 116.678Z" fill="#B5B6B7"/>
<path fill-rule="evenodd" clip-rule="evenodd" d="M97.1313 116.678L112.623 136.675L112.929 136.434L97.1313 116.678Z" fill="#B5B6B6"/>
<path fill-rule="evenodd" clip-rule="evenodd" d="M97.1313 116.678L112.868 136.482L113.171 136.238L97.1313 116.678Z" fill="#B5B6B6"/>
<path fill-rule="evenodd" clip-rule="evenodd" d="M97.1313 116.678L113.11 136.287L113.411 136.039L97.1313 116.678Z" fill="#B4B5B5"/>
<path fill-rule="evenodd" clip-rule="evenodd" d="M97.1313 116.678L113.351 136.088L113.648 135.837L97.1313 116.678Z" fill="#B4B4B5"/>
<path fill-rule="evenodd" clip-rule="evenodd" d="M97.1313 116.678L113.589 135.887L113.883 135.632L97.1313 116.678Z" fill="#B3B4B5"/>
<path fill-rule="evenodd" clip-rule="evenodd" d="M97.1313 116.678L113.824 135.683L114.115 135.424L97.1313 116.678Z" fill="#B3B3B4"/>
<path fill-rule="evenodd" clip-rule="evenodd" d="M97.1313 116.678L114.057 135.476L114.345 135.214L97.1313 116.678Z" fill="#B2B3B3"/>
<path fill-rule="evenodd" clip-rule="evenodd" d="M97.1313 116.678L114.288 135.266L114.572 135L97.1313 116.678Z" fill="#B2B3B3"/>
<path fill-rule="evenodd" clip-rule="evenodd" d="M97.1313 116.678L114.515 135.053L114.797 134.784L97.1313 116.678Z" fill="#B1B2B2"/>
<path fill-rule="evenodd" clip-rule="evenodd" d="M97.1313 116.678L114.74 134.838L115.018 134.565L97.1313 116.678Z" fill="#B1B2B2"/>
<path fill-rule="evenodd" clip-rule="evenodd" d="M97.1313 116.678L114.962 134.619L115.237 134.343L97.1313 116.678Z" fill="#B1B2B2"/>
<path fill-rule="evenodd" clip-rule="evenodd" d="M97.1313 116.678L115.182 134.398L115.453 134.119L97.1313 116.678Z" fill="#B0B1B2"/>
<path fill-rule="evenodd" clip-rule="evenodd" d="M97.1313 116.678L115.399 134.175L115.667 133.892L97.1313 116.678Z" fill="#AFB0B1"/>
<path fill-rule="evenodd" clip-rule="evenodd" d="M97.1313 116.678L115.613 133.948L115.878 133.662L97.1313 116.678Z" fill="#AFB0B1"/>
<path fill-rule="evenodd" clip-rule="evenodd" d="M97.1313 116.678L115.825 133.719L116.085 133.43L97.1313 116.678Z" fill="#AFB0B0"/>
<path fill-rule="evenodd" clip-rule="evenodd" d="M97.1313 116.678L116.033 133.488L116.29 133.195L97.1313 116.678Z" fill="#AEAFAF"/>
<path fill-rule="evenodd" clip-rule="evenodd" d="M97.1313 116.678L116.239 133.253L116.492 132.957L97.1313 116.678Z" fill="#ADAEAF"/>
<path fill-rule="evenodd" clip-rule="evenodd" d="M97.1313 116.678L116.441 133.017L116.691 132.718L97.1313 116.678Z" fill="#ADAEAE"/>
<path fill-rule="evenodd" clip-rule="evenodd" d="M97.1313 116.678L116.641 132.778L116.887 132.476L97.1313 116.678Z" fill="#ADADAE"/>
<path fill-rule="evenodd" clip-rule="evenodd" d="M97.1313 116.678L116.838 132.536L117.081 132.231L97.1313 116.678Z" fill="#ACADAD"/>
<path fill-rule="evenodd" clip-rule="evenodd" d="M97.1313 116.678L117.032 132.292L117.271 131.984L97.1313 116.678Z" fill="#ABACAD"/>
<path fill-rule="evenodd" clip-rule="evenodd" d="M97.1313 116.678L117.223 132.046L117.458 131.735L97.1313 116.678Z" fill="#ABACAC"/>
<path fill-rule="evenodd" clip-rule="evenodd" d="M97.1313 116.678L117.411 131.797L117.642 131.483L97.1313 116.678Z" fill="#AAABAC"/>
<path fill-rule="evenodd" clip-rule="evenodd" d="M97.1313 116.678L117.596 131.546L117.822 131.23L97.1313 116.678Z" fill="#AAABAB"/>
<path fill-rule="evenodd" clip-rule="evenodd" d="M97.1313 116.678L117.777 131.293L118 130.974L97.1313 116.678Z" fill="#A9AAAB"/>
<path fill-rule="evenodd" clip-rule="evenodd" d="M97.1313 116.678L117.955 131.038L118.175 130.716L97.1313 116.678Z" fill="#A8A9AA"/>
<path fill-rule="evenodd" clip-rule="evenodd" d="M97.1313 116.678L118.131 130.78L118.346 130.455L97.1313 116.678Z" fill="#A8A9A9"/>
<path fill-rule="evenodd" clip-rule="evenodd" d="M97.1313 116.678L118.303 130.52L118.514 130.193L97.1313 116.678Z" fill="#A7A8A9"/>
<path fill-rule="evenodd" clip-rule="evenodd" d="M97.1313 116.678L118.472 130.258L118.679 129.928L97.1313 116.678Z" fill="#A7A8A9"/>
<path fill-rule="evenodd" clip-rule="evenodd" d="M97.1313 116.678L118.638 129.994L118.841 129.662L97.1313 116.678Z" fill="#A6A7A8"/>
<path fill-rule="evenodd" clip-rule="evenodd" d="M97.1313 116.678L118.8 129.728L118.999 129.393L97.1313 116.678Z" fill="#A6A7A7"/>
<path fill-rule="evenodd" clip-rule="evenodd" d="M97.1313 116.678L118.959 129.46L119.154 129.123L97.1313 116.678Z" fill="#A5A6A7"/>
<path fill-rule="evenodd" clip-rule="evenodd" d="M97.1313 116.678L119.115 129.19L119.306 128.851L97.1313 116.678Z" fill="#A5A6A6"/>
<path fill-rule="evenodd" clip-rule="evenodd" d="M97.1313 116.678L119.267 128.919L119.454 128.577L97.1313 116.678Z" fill="#A4A5A6"/>
<path fill-rule="evenodd" clip-rule="evenodd" d="M97.1313 116.678L119.417 128.645L119.599 128.301L97.1313 116.678Z" fill="#A3A5A5"/>
<path fill-rule="evenodd" clip-rule="evenodd" d="M97.1313 116.678L119.563 128.369L119.74 128.023L97.1313 116.678Z" fill="#A3A4A5"/>
<path fill-rule="evenodd" clip-rule="evenodd" d="M97.1313 116.678L119.705 128.092L119.878 127.744L97.1313 116.678Z" fill="#A2A3A4"/>
<path fill-rule="evenodd" clip-rule="evenodd" d="M97.1313 116.678L119.844 127.813L120.013 127.462L97.1313 116.678Z" fill="#A2A3A3"/>
<path fill-rule="evenodd" clip-rule="evenodd" d="M97.1313 116.678L119.979 127.533L120.144 127.18L97.1313 116.678Z" fill="#A1A2A3"/>
<path fill-rule="evenodd" clip-rule="evenodd" d="M97.1313 116.678L120.111 127.25L120.271 126.896L97.1313 116.678Z" fill="#A1A2A2"/>
<path fill-rule="evenodd" clip-rule="evenodd" d="M97.1313 116.678L120.24 126.967L120.396 126.609L97.1313 116.678Z" fill="#A0A1A1"/>
<path fill-rule="evenodd" clip-rule="evenodd" d="M97.1313 116.678L120.365 126.681L120.516 126.322L97.1313 116.678Z" fill="#9FA0A1"/>
<path fill-rule="evenodd" clip-rule="evenodd" d="M97.1313 116.678L120.486 126.394L120.633 126.033L97.1313 116.678Z" fill="#9FA0A1"/>
<path fill-rule="evenodd" clip-rule="evenodd" d="M97.1313 116.678L120.604 126.106L120.747 125.743L97.1313 116.678Z" fill="#9E9FA0"/>
<path fill-rule="evenodd" clip-rule="evenodd" d="M97.1313 116.678L120.718 125.816L120.857 125.451L97.1313 116.678Z" fill="#9E9F9F"/>
<path fill-rule="evenodd" clip-rule="evenodd" d="M97.1313 116.678L120.829 125.524L120.963 125.158L97.1313 116.678Z" fill="#9D9E9F"/>
<path fill-rule="evenodd" clip-rule="evenodd" d="M97.1313 116.678L120.936 125.232L121.066 124.864L97.1313 116.678Z" fill="#9D9E9E"/>
<path fill-rule="evenodd" clip-rule="evenodd" d="M97.1313 116.678L121.04 124.938L121.165 124.569L97.1313 116.678Z" fill="#9C9D9E"/>
<path fill-rule="evenodd" clip-rule="evenodd" d="M97.1313 116.678L121.14 124.643L121.26 124.272L97.1313 116.678Z" fill="#9B9C9D"/>
<path fill-rule="evenodd" clip-rule="evenodd" d="M97.1313 116.678L121.236 124.346L121.352 123.974L97.1313 116.678Z" fill="#9A9C9C"/>
<path fill-rule="evenodd" clip-rule="evenodd" d="M97.1313 116.678L121.329 124.049L121.44 123.675L97.1313 116.678Z" fill="#9A9B9B"/>
<path fill-rule="evenodd" clip-rule="evenodd" d="M97.1313 116.678L121.418 123.75L121.524 123.375L97.1313 116.678Z" fill="#9A9A9B"/>
<path fill-rule="evenodd" clip-rule="evenodd" d="M97.1313 116.678L121.503 123.45L121.605 123.074L97.1313 116.678Z" fill="#999A9A"/>
<path fill-rule="evenodd" clip-rule="evenodd" d="M97.1313 116.678L121.585 123.15L121.682 122.772L97.1313 116.678Z" fill="#999A9B"/>
<path fill-rule="evenodd" clip-rule="evenodd" d="M97.1313 116.678L121.662 122.848L121.755 122.469L97.1313 116.678Z" fill="#98999A"/>
<path fill-rule="evenodd" clip-rule="evenodd" d="M97.1313 116.678L121.737 122.545L121.825 122.166L97.1313 116.678Z" fill="#989999"/>
<path fill-rule="evenodd" clip-rule="evenodd" d="M97.1313 116.678L121.807 122.241L121.89 121.861L97.1313 116.678Z" fill="#979898"/>
<path fill-rule="evenodd" clip-rule="evenodd" d="M97.1313 116.678L121.874 121.937L121.952 121.556L97.1313 116.678Z" fill="#969798"/>
<path fill-rule="evenodd" clip-rule="evenodd" d="M97.1313 116.678L121.936 121.632L122.011 121.249L97.1313 116.678Z" fill="#969797"/>
<path fill-rule="evenodd" clip-rule="evenodd" d="M97.1313 116.678L121.996 121.326L122.065 120.942L97.1313 116.678Z" fill="#959697"/>
<path fill-rule="evenodd" clip-rule="evenodd" d="M97.1313 116.678L122.051 121.019L122.116 120.635L97.1313 116.678Z" fill="#959696"/>
<path fill-rule="evenodd" clip-rule="evenodd" d="M97.1313 116.678L122.103 120.712L122.162 120.327L97.1313 116.678Z" fill="#949595"/>
<path fill-rule="evenodd" clip-rule="evenodd" d="M97.1313 116.678L122.15 120.404L122.205 120.018L97.1313 116.678Z" fill="#939495"/>
<path fill-rule="evenodd" clip-rule="evenodd" d="M97.1313 116.678L122.195 120.095L122.245 119.709L97.1313 116.678Z" fill="#929394"/>
<path fill-rule="evenodd" clip-rule="evenodd" d="M97.1313 116.678L122.235 119.786L122.28 119.4L97.1313 116.678Z" fill="#929393"/>
<path fill-rule="evenodd" clip-rule="evenodd" d="M97.1313 116.678L122.271 119.477L122.312 119.09L97.1313 116.678Z" fill="#919393"/>
<path fill-rule="evenodd" clip-rule="evenodd" d="M97.1313 116.678L122.304 119.167L122.34 118.779L97.1313 116.678Z" fill="#919292"/>
<path fill-rule="evenodd" clip-rule="evenodd" d="M97.1313 116.678L122.333 118.857L122.364 118.468L97.1313 116.678Z" fill="#909191"/>
<path fill-rule="evenodd" clip-rule="evenodd" d="M97.1313 116.678L122.358 118.546L122.384 118.157L97.1313 116.678Z" fill="#8F9091"/>
<path fill-rule="evenodd" clip-rule="evenodd" d="M97.1313 116.678L122.379 118.235L122.4 117.846L97.1313 116.678Z" fill="#8F9090"/>
<path fill-rule="evenodd" clip-rule="evenodd" d="M97.1313 116.678L122.396 117.924L122.413 117.535L97.1313 116.678Z" fill="#8E8F8F"/>
<path fill-rule="evenodd" clip-rule="evenodd" d="M97.1313 116.678L122.409 117.613L122.421 117.223L97.1313 116.678Z" fill="#8D8F8F"/>
<path fill-rule="evenodd" clip-rule="evenodd" d="M97.1313 116.678L122.419 117.301L122.426 116.912L97.1313 116.678Z" fill="#8D8E8E"/>
<path fill-rule="evenodd" clip-rule="evenodd" d="M97.1313 116.678L122.424 116.989L122.427 116.6L97.1313 116.678Z" fill="#8C8D8D"/>
<path fill-rule="evenodd" clip-rule="evenodd" d="M97.1313 116.678H122.426L122.424 116.288L97.1313 116.678Z" fill="#8C8D8D"/>
<path fill-rule="evenodd" clip-rule="evenodd" d="M97.1313 116.678L122.424 116.366L122.417 115.977L97.1313 116.678Z" fill="#8B8C8C"/>
<path fill-rule="evenodd" clip-rule="evenodd" d="M97.1313 116.678L122.419 116.055L122.407 115.665L97.1313 116.678Z" fill="#8A8B8B"/>
<path fill-rule="evenodd" clip-rule="evenodd" d="M97.1313 116.678L122.409 115.743L122.392 115.354L97.1313 116.678Z" fill="#898B8B"/>
<path fill-rule="evenodd" clip-rule="evenodd" d="M97.1313 116.678L122.396 115.432L122.374 115.043L97.1313 116.678Z" fill="#898A8A"/>
<path fill-rule="evenodd" clip-rule="evenodd" d="M97.1313 116.678L122.379 115.121L122.352 114.732L97.1313 116.678Z" fill="#888989"/>
<path fill-rule="evenodd" clip-rule="evenodd" d="M97.1313 116.678L122.358 114.81L122.326 114.422L97.1313 116.678Z" fill="#878888"/>
<path fill-rule="evenodd" clip-rule="evenodd" d="M97.1313 116.678L122.333 114.499L122.297 114.111L97.1313 116.678Z" fill="#878888"/>
<path fill-rule="evenodd" clip-rule="evenodd" d="M97.1313 116.678L122.304 114.189L122.263 113.801L97.1313 116.678Z" fill="#868787"/>
<path fill-rule="evenodd" clip-rule="evenodd" d="M97.1313 116.678L122.271 113.879L122.226 113.492L97.1313 116.678Z" fill="#868686"/>
<path fill-rule="evenodd" clip-rule="evenodd" d="M97.1313 116.678L122.235 113.569L122.184 113.183L97.1313 116.678Z" fill="#858686"/>
<path fill-rule="evenodd" clip-rule="evenodd" d="M97.1313 116.678L122.195 113.261L122.139 112.875L97.1313 116.678Z" fill="#848585"/>
<path fill-rule="evenodd" clip-rule="evenodd" d="M97.1313 116.678L122.15 112.952L122.091 112.567L97.1313 116.678Z" fill="#838484"/>
<path fill-rule="evenodd" clip-rule="evenodd" d="M97.1313 116.678L122.103 112.644L122.038 112.26L97.1313 116.678Z" fill="#838383"/>
<path fill-rule="evenodd" clip-rule="evenodd" d="M97.1313 116.678L122.051 112.337L121.982 111.953L97.1313 116.678Z" fill="#828383"/>
<path fill-rule="evenodd" clip-rule="evenodd" d="M97.1313 116.678L121.996 112.03L121.922 111.647L97.1313 116.678Z" fill="#818282"/>
<path fill-rule="evenodd" clip-rule="evenodd" d="M97.1313 116.678L121.936 111.724L121.858 111.342L97.1313 116.678Z" fill="#818282"/>
<path fill-rule="evenodd" clip-rule="evenodd" d="M97.1313 116.678L121.874 111.419L121.79 111.038L97.1313 116.678Z" fill="#808181"/>
<path fill-rule="evenodd" clip-rule="evenodd" d="M97.1313 116.678L121.807 111.115L121.719 110.735L97.1313 116.678Z" fill="#7F8080"/>
<path fill-rule="evenodd" clip-rule="evenodd" d="M97.1313 116.678L121.737 110.811L121.644 110.432L97.1313 116.678Z" fill="#7F7F7F"/>
<path fill-rule="evenodd" clip-rule="evenodd" d="M97.1313 116.678L121.662 110.508L121.565 110.131L97.1313 116.678Z" fill="#7E7E7E"/>
<path fill-rule="evenodd" clip-rule="evenodd" d="M97.1313 116.678L121.585 110.206L121.483 109.83L97.1313 116.678Z" fill="#7E7E7F"/>
<path fill-rule="evenodd" clip-rule="evenodd" d="M97.1313 116.678L121.503 109.905L121.396 109.531L97.1313 116.678Z" fill="#7D7E7E"/>
<path fill-rule="evenodd" clip-rule="evenodd" d="M97.1313 116.678L121.418 109.606L121.306 109.233L97.1313 116.678Z" fill="#7D7D7D"/>
<path fill-rule="evenodd" clip-rule="evenodd" d="M97.1313 116.678L121.329 109.307L121.213 108.935L97.1313 116.678Z" fill="#7C7D7C"/>
<path fill-rule="evenodd" clip-rule="evenodd" d="M97.1313 116.678L121.236 109.01L121.116 108.639L97.1313 116.678Z" fill="#7B7C7B"/>
<path fill-rule="evenodd" clip-rule="evenodd" d="M97.1313 116.678L121.14 108.713L121.015 108.344L97.1313 116.678Z" fill="#7A7B7B"/>
<path fill-rule="evenodd" clip-rule="evenodd" d="M97.1313 116.678L121.04 108.418L120.91 108.051L97.1313 116.678Z" fill="#797A7A"/>
<path fill-rule="evenodd" clip-rule="evenodd" d="M97.1313 116.678L120.936 108.124L120.802 107.758L97.1313 116.678Z" fill="#797979"/>
<path fill-rule="evenodd" clip-rule="evenodd" d="M97.1313 116.678L120.829 107.832L120.691 107.468L97.1313 116.678Z" fill="#787979"/>
<path fill-rule="evenodd" clip-rule="evenodd" d="M97.1313 116.678L120.718 107.54L120.576 107.178L97.1313 116.678Z" fill="#777878"/>
<path fill-rule="evenodd" clip-rule="evenodd" d="M97.1313 116.678L120.604 107.25L120.456 106.89L97.1313 116.678Z" fill="#767777"/>
<path fill-rule="evenodd" clip-rule="evenodd" d="M97.1313 116.678L120.486 106.962L120.334 106.603L97.1313 116.678Z" fill="#767676"/>
<path fill-rule="evenodd" clip-rule="evenodd" d="M97.1313 116.678L120.365 106.675L120.208 106.318L97.1313 116.678Z" fill="#757675"/>
<path fill-rule="evenodd" clip-rule="evenodd" d="M97.1313 116.678L120.24 106.389L120.079 106.034L97.1313 116.678Z" fill="#747574"/>
<path fill-rule="evenodd" clip-rule="evenodd" d="M97.1313 116.678L120.111 106.105L119.946 105.753L97.1313 116.678Z" fill="#737474"/>
<path fill-rule="evenodd" clip-rule="evenodd" d="M97.1313 116.678L119.979 105.823L119.81 105.472L97.1313 116.678Z" fill="#727373"/>
<path fill-rule="evenodd" clip-rule="evenodd" d="M97.1313 116.678L119.844 105.543L119.67 105.194L97.1313 116.678Z" fill="#727272"/>
<path fill-rule="evenodd" clip-rule="evenodd" d="M97.1313 116.678L119.705 105.264L119.527 104.917L97.1313 116.678Z" fill="#717271"/>
<path fill-rule="evenodd" clip-rule="evenodd" d="M97.1313 116.678L119.563 104.986L119.38 104.642L97.1313 116.678Z" fill="#707171"/>
<path fill-rule="evenodd" clip-rule="evenodd" d="M97.1313 116.678L119.417 104.711L119.23 104.369L97.1313 116.678Z" fill="#6F7070"/>
<path fill-rule="evenodd" clip-rule="evenodd" d="M97.1313 116.678L119.267 104.437L119.077 104.097L97.1313 116.678Z" fill="#6E6F6F"/>
<path fill-rule="evenodd" clip-rule="evenodd" d="M97.1313 116.678L119.115 104.166L118.92 103.828L97.1313 116.678Z" fill="#6E6F6E"/>
<path fill-rule="evenodd" clip-rule="evenodd" d="M97.1313 116.678L118.959 103.896L118.76 103.561L97.1313 116.678Z" fill="#6D6E6D"/>
<path fill-rule="evenodd" clip-rule="evenodd" d="M97.1313 116.678L118.8 103.628L118.597 103.295L97.1313 116.678Z" fill="#6C6D6C"/>
<path fill-rule="evenodd" clip-rule="evenodd" d="M97.1313 116.678L118.638 103.362L118.431 103.032L97.1313 116.678Z" fill="#6B6C6B"/>
<path fill-rule="evenodd" clip-rule="evenodd" d="M97.1313 116.678L118.472 103.098L118.261 102.77L97.1313 116.678Z" fill="#6B6B6B"/>
<path fill-rule="evenodd" clip-rule="evenodd" d="M97.1313 116.678L118.303 102.836L118.088 102.511L97.1313 116.678Z" fill="#6A6A6A"/>
<path fill-rule="evenodd" clip-rule="evenodd" d="M97.1313 116.678L118.131 102.576L117.912 102.254L97.1313 116.678Z" fill="#696A69"/>
<path fill-rule="evenodd" clip-rule="evenodd" d="M97.1313 116.678L117.955 102.318L117.732 101.999L97.1313 116.678Z" fill="#686968"/>
<path fill-rule="evenodd" clip-rule="evenodd" d="M97.1313 116.678L117.777 102.063L117.55 101.747L97.1313 116.678Z" fill="#676867"/>
<path fill-rule="evenodd" clip-rule="evenodd" d="M97.1313 116.678L117.596 101.81L117.365 101.496L97.1313 116.678Z" fill="#676766"/>
<path fill-rule="evenodd" clip-rule="evenodd" d="M97.1313 116.678L117.411 101.559L117.176 101.248L97.1313 116.678Z" fill="#666666"/>
<path fill-rule="evenodd" clip-rule="evenodd" d="M97.1313 116.678L117.223 101.31L116.985 101.002L97.1313 116.678Z" fill="#656565"/>
<path fill-rule="evenodd" clip-rule="evenodd" d="M97.1313 116.678L117.032 101.064L116.79 100.759L97.1313 116.678Z" fill="#646564"/>
<path fill-rule="evenodd" clip-rule="evenodd" d="M97.1313 116.678L116.838 100.82L116.592 100.518L97.1313 116.678Z" fill="#636463"/>
<path fill-rule="evenodd" clip-rule="evenodd" d="M97.1313 116.678L116.641 100.578L116.392 100.279L97.1313 116.678Z" fill="#636362"/>
<path fill-rule="evenodd" clip-rule="evenodd" d="M97.1313 116.678L116.441 100.339L116.188 100.043L97.1313 116.678Z" fill="#626261"/>
<path fill-rule="evenodd" clip-rule="evenodd" d="M97.1313 116.678L116.239 100.102L115.982 99.8095L97.1313 116.678Z" fill="#616161"/>
<path fill-rule="evenodd" clip-rule="evenodd" d="M97.1313 116.678L116.033 99.8681L115.772 99.5785L97.1313 116.678Z" fill="#606060"/>
<path fill-rule="evenodd" clip-rule="evenodd" d="M97.1313 116.678L115.825 99.6368L115.56 99.3503L97.1313 116.678Z" fill="#5F5F5F"/>
<path fill-rule="evenodd" clip-rule="evenodd" d="M97.1313 116.678L115.613 99.4078L115.346 99.1247L97.1313 116.678Z" fill="#5E5F5E"/>
<path fill-rule="evenodd" clip-rule="evenodd" d="M97.1313 116.678L115.399 99.1814L115.128 98.9018L97.1313 116.678Z" fill="#5D5E5D"/>
<path fill-rule="evenodd" clip-rule="evenodd" d="M97.1313 116.678L115.182 98.9576L114.908 98.6814L97.1313 116.678Z" fill="#5C5D5C"/>
<path fill-rule="evenodd" clip-rule="evenodd" d="M97.1313 116.678L114.962 98.7366L114.685 98.4636L97.1313 116.678Z" fill="#5C5D5C"/>
<path fill-rule="evenodd" clip-rule="evenodd" d="M97.1313 116.678L114.74 98.518L114.459 98.2485L97.1313 116.678Z" fill="#5C5C5B"/>
<path fill-rule="evenodd" clip-rule="evenodd" d="M97.1313 116.678L114.515 98.3027L114.23 98.0365L97.1313 116.678Z" fill="#5B5B5B"/>
<path fill-rule="evenodd" clip-rule="evenodd" d="M97.1313 116.678L114.288 98.0899L114 97.8276L97.1313 116.678Z" fill="#5A5A5A"/>
<path fill-rule="evenodd" clip-rule="evenodd" d="M97.1313 116.678L114.057 97.8802L113.766 97.6212L97.1313 116.678Z" fill="#595959"/>
<path fill-rule="evenodd" clip-rule="evenodd" d="M97.1313 116.678L113.824 97.6729L113.53 97.4175L97.1313 116.678Z" fill="#585858"/>
<path fill-rule="evenodd" clip-rule="evenodd" d="M97.1313 116.678L113.589 97.4686L113.292 97.2172L97.1313 116.678Z" fill="#575857"/>
<path fill-rule="evenodd" clip-rule="evenodd" d="M97.1313 116.678L113.351 97.2675L113.05 97.0195L97.1313 116.678Z" fill="#575756"/>
<path fill-rule="evenodd" clip-rule="evenodd" d="M97.1313 116.678L113.11 97.0689L112.807 96.8248L97.1313 116.678Z" fill="#565655"/>
<path fill-rule="evenodd" clip-rule="evenodd" d="M97.1313 116.678L112.868 96.8736L112.561 96.6332L97.1313 116.678Z" fill="#555554"/>
<path fill-rule="evenodd" clip-rule="evenodd" d="M97.1313 116.678L112.623 96.6812L112.313 96.4447L97.1313 116.678Z" fill="#545453"/>
<path fill-rule="evenodd" clip-rule="evenodd" d="M97.1313 116.678L112.375 96.4918L112.063 96.2591L97.1313 116.678Z" fill="#535352"/>
<path fill-rule="evenodd" clip-rule="evenodd" d="M97.1313 116.678L112.125 96.3055L111.81 96.0768L97.1313 116.678Z" fill="#525252"/>
<path fill-rule="evenodd" clip-rule="evenodd" d="M97.1313 116.678L111.873 96.1225L111.555 95.8974L97.1313 116.678Z" fill="#515151"/>
<path fill-rule="evenodd" clip-rule="evenodd" d="M97.1313 116.678L111.619 95.9423L111.298 95.7213L97.1313 116.678Z" fill="#505050"/>
<path fill-rule="evenodd" clip-rule="evenodd" d="M97.1313 116.678L111.362 95.7654L111.039 95.5486L97.1313 116.678Z" fill="#4F4F4F"/>
<path fill-rule="evenodd" clip-rule="evenodd" d="M97.1313 116.678L111.104 95.592L110.777 95.3788L97.1313 116.678Z" fill="#4E4F4E"/>
<path fill-rule="evenodd" clip-rule="evenodd" d="M97.1313 116.678L110.843 95.4211L110.514 95.2121L97.1313 116.678Z" fill="#4D4E4D"/>
<path fill-rule="evenodd" clip-rule="evenodd" d="M97.1313 116.678L110.58 95.254L110.249 95.0488L97.1313 116.678Z" fill="#4C4D4C"/>
<path fill-rule="evenodd" clip-rule="evenodd" d="M97.1313 116.678L110.315 95.09L109.981 94.889L97.1313 116.678Z" fill="#4C4C4B"/>
<path fill-rule="evenodd" clip-rule="evenodd" d="M97.1313 116.678L110.048 94.9291L109.712 94.7322L97.1313 116.678Z" fill="#4B4B4A"/>
<path fill-rule="evenodd" clip-rule="evenodd" d="M97.1313 116.678L109.779 94.7718L109.44 94.5791L97.1313 116.678Z" fill="#4A4A49"/>
<path fill-rule="evenodd" clip-rule="evenodd" d="M97.1313 116.678L109.508 94.6177L109.167 94.4289L97.1313 116.678Z" fill="#494948"/>
<path fill-rule="evenodd" clip-rule="evenodd" d="M97.1313 116.678L109.235 94.4668L108.892 94.2824L97.1313 116.678Z" fill="#474847"/>
<path fill-rule="evenodd" clip-rule="evenodd" d="M97.1313 116.678L108.961 94.3193L108.615 94.1391L97.1313 116.678Z" fill="#474746"/>
<path fill-rule="evenodd" clip-rule="evenodd" d="M97.1313 116.678L108.684 94.1754L108.337 93.9992L97.1313 116.678Z" fill="#464645"/>
<path fill-rule="evenodd" clip-rule="evenodd" d="M97.1313 116.678L108.406 94.0344L108.057 93.8632L97.1313 116.678Z" fill="#454544"/>
<path fill-rule="evenodd" clip-rule="evenodd" d="M97.1313 116.678L108.126 93.8976L107.775 93.7301L97.1313 116.678Z" fill="#444443"/>
<path fill-rule="evenodd" clip-rule="evenodd" d="M97.1313 116.678L107.845 93.7637L107.491 93.601L97.1313 116.678Z" fill="#424342"/>
<path fill-rule="evenodd" clip-rule="evenodd" d="M97.1313 116.678L107.562 93.6334L107.206 93.4751L97.1313 116.678Z" fill="#424241"/>
<path fill-rule="evenodd" clip-rule="evenodd" d="M97.1313 116.678L107.277 93.5068L106.919 93.3525L97.1313 116.678Z" fill="#414140"/>
<path fill-rule="evenodd" clip-rule="evenodd" d="M97.1313 116.678L106.991 93.3836L106.631 93.2339L97.1313 116.678Z" fill="#40403F"/>
<path fill-rule="evenodd" clip-rule="evenodd" d="M97.1313 116.678L106.703 93.2637L106.342 93.1187L97.1313 116.678Z" fill="#3E3E3E"/>
<path fill-rule="evenodd" clip-rule="evenodd" d="M97.1313 116.678L106.414 93.1478L106.051 93.0068L97.1313 116.678Z" fill="#3E3D3D"/>
<path fill-rule="evenodd" clip-rule="evenodd" d="M97.1313 116.678L106.123 93.0351L105.759 92.8987L97.1313 116.678Z" fill="#3C3C3B"/>
<path fill-rule="evenodd" clip-rule="evenodd" d="M97.1313 116.678L105.832 92.9258L105.465 92.7944L97.1313 116.678Z" fill="#3B3B3A"/>
<path fill-rule="evenodd" clip-rule="evenodd" d="M97.1313 116.678L105.538 92.8208L105.17 92.6935L97.1313 116.678Z" fill="#3A3A39"/>
<path fill-rule="evenodd" clip-rule="evenodd" d="M97.1313 116.678L105.244 92.7188L104.874 92.5963L97.1313 116.678Z" fill="#393938"/>
<path fill-rule="evenodd" clip-rule="evenodd" d="M97.1313 116.678L104.948 92.6208L104.577 92.5026L97.1313 116.678Z" fill="#383837"/>
<path fill-rule="evenodd" clip-rule="evenodd" d="M97.1313 116.678L104.651 92.5264L104.278 92.4127L97.1313 116.678Z" fill="#373736"/>
<path fill-rule="evenodd" clip-rule="evenodd" d="M97.1313 116.678L104.353 92.4356L103.979 92.3264L97.1313 116.678Z" fill="#363635"/>
<path fill-rule="evenodd" clip-rule="evenodd" d="M97.1313 116.678L104.054 92.3484L103.678 92.244L97.1313 116.678Z" fill="#353534"/>
<path fill-rule="evenodd" clip-rule="evenodd" d="M97.1313 116.678L103.753 92.2648L103.377 92.1655L97.1313 116.678Z" fill="#353534"/>
<path fill-rule="evenodd" clip-rule="evenodd" d="M97.1313 116.678L103.452 92.1851L103.074 92.0903L97.1313 116.678Z" fill="#343433"/>
<path fill-rule="evenodd" clip-rule="evenodd" d="M97.1313 116.678L103.15 92.1091L102.771 92.0188L97.1313 116.678Z" fill="#333332"/>
<path fill-rule="evenodd" clip-rule="evenodd" d="M97.1313 116.678L102.847 92.0369L102.467 91.9511L97.1313 116.678Z" fill="#323130"/>
<path fill-rule="evenodd" clip-rule="evenodd" d="M97.1313 116.678L102.543 91.9686L102.162 91.8872L97.1313 116.678Z" fill="#30302F"/>
<path fill-rule="evenodd" clip-rule="evenodd" d="M97.1313 116.678L102.238 91.9035L101.856 91.8272L97.1313 116.678Z" fill="#2F2F2E"/>
<path fill-rule="evenodd" clip-rule="evenodd" d="M97.1313 116.678L101.932 91.8427L101.549 91.7708L97.1313 116.678Z" fill="#2E2E2D"/>
<path fill-rule="evenodd" clip-rule="evenodd" d="M97.1313 116.678L101.626 91.7852L101.242 91.7183L97.1313 116.678Z" fill="#2D2D2C"/>
<path fill-rule="evenodd" clip-rule="evenodd" d="M97.1313 116.678L101.319 91.7319L100.934 91.6696L97.1313 116.678Z" fill="#2B2B2A"/>
<path fill-rule="evenodd" clip-rule="evenodd" d="M97.1313 116.678L101.011 91.682L100.626 91.6246L97.1313 116.678Z" fill="#2A2A29"/>
<path fill-rule="evenodd" clip-rule="evenodd" d="M97.1313 116.678L100.703 91.6363L100.317 91.5833L97.1313 116.678Z" fill="#292927"/>
<path fill-rule="evenodd" clip-rule="evenodd" d="M97.1313 116.678L100.394 91.5941L100.008 91.5464L97.1313 116.678Z" fill="#272726"/>
<path fill-rule="evenodd" clip-rule="evenodd" d="M97.1313 116.678L100.085 91.5557L99.6978 91.5127L97.1313 116.678Z" fill="#262625"/>
<path fill-rule="evenodd" clip-rule="evenodd" d="M97.1313 116.678L99.7752 91.5214L99.3878 91.4828L97.1313 116.678Z" fill="#252523"/>
<path fill-rule="evenodd" clip-rule="evenodd" d="M97.1313 116.678L99.4653 91.4908L99.0771 91.4573L97.1313 116.678Z" fill="#232322"/>
<path fill-rule="evenodd" clip-rule="evenodd" d="M97.1313 116.678L99.1545 91.464L98.766 91.4348L97.1313 116.678Z" fill="#222220"/>
<path fill-rule="evenodd" clip-rule="evenodd" d="M97.1313 116.678L98.8439 91.441L98.455 91.4166L97.1313 116.678Z" fill="#21211F"/>
<path fill-rule="evenodd" clip-rule="evenodd" d="M97.1313 116.678L98.5329 91.4216L98.1439 91.4024L97.1313 116.678Z" fill="#1F1F1E"/>
<path fill-rule="evenodd" clip-rule="evenodd" d="M97.1313 116.678L98.2218 91.4061L97.8326 91.3917L97.1313 116.678Z" fill="#1E1E1D"/>
<path fill-rule="evenodd" clip-rule="evenodd" d="M97.1313 116.678L97.9103 91.3948L97.5208 91.385L97.1313 116.678Z" fill="#1D1D1B"/>
<path fill-rule="evenodd" clip-rule="evenodd" d="M97.1313 116.678L97.5986 91.3872L97.2092 91.3823L97.1313 116.678Z" fill="#1B1B1A"/>
<path fill-rule="evenodd" clip-rule="evenodd" d="M97.1315 116.678L97.2873 91.3831H96.8977L97.1315 116.678Z" fill="#1A1A18"/>
<path fill-rule="evenodd" clip-rule="evenodd" d="M97.1315 116.678L96.9755 91.3831L96.5862 91.388L97.1315 116.678Z" fill="#1B1B1A"/>
<path fill-rule="evenodd" clip-rule="evenodd" d="M97.1316 116.678L96.6641 91.3872L96.2744 91.3967L97.1316 116.678Z" fill="#1D1D1B"/>
<path fill-rule="evenodd" clip-rule="evenodd" d="M97.1316 116.678L96.3527 91.3948L95.9634 91.4092L97.1316 116.678Z" fill="#1E1E1D"/>
<path fill-rule="evenodd" clip-rule="evenodd" d="M97.1314 116.678L96.0411 91.4061L95.6519 91.4254L97.1314 116.678Z" fill="#1F1F1E"/>
<path fill-rule="evenodd" clip-rule="evenodd" d="M97.1314 116.678L95.7297 91.4216L95.3408 91.4455L97.1314 116.678Z" fill="#21211F"/>
<path fill-rule="evenodd" clip-rule="evenodd" d="M97.1316 116.678L95.4188 91.441L95.0303 91.4696L97.1316 116.678Z" fill="#222220"/>
<path fill-rule="evenodd" clip-rule="evenodd" d="M97.1314 116.678L95.108 91.464L94.7197 91.4972L97.1314 116.678Z" fill="#232322"/>
<path fill-rule="evenodd" clip-rule="evenodd" d="M97.1315 116.678L94.7974 91.4908L94.4099 91.5289L97.1315 116.678Z" fill="#252523"/>
<path fill-rule="evenodd" clip-rule="evenodd" d="M97.1315 116.678L94.4874 91.5214L94.1001 91.5645L97.1315 116.678Z" fill="#262625"/>
<path fill-rule="evenodd" clip-rule="evenodd" d="M97.1315 116.678L94.1776 91.5557L93.7913 91.6037L97.1315 116.678Z" fill="#272726"/>
<path fill-rule="evenodd" clip-rule="evenodd" d="M97.1314 116.678L93.8682 91.5941L93.4824 91.647L97.1314 116.678Z" fill="#292927"/>
<path fill-rule="evenodd" clip-rule="evenodd" d="M97.1313 116.678L93.5594 91.6363L93.1743 91.6937L97.1313 116.678Z" fill="#2A2A29"/>
<path fill-rule="evenodd" clip-rule="evenodd" d="M97.1314 116.678L93.2515 91.682L92.8667 91.7444L97.1314 116.678Z" fill="#2B2B2A"/>
<path fill-rule="evenodd" clip-rule="evenodd" d="M97.1315 116.678L92.9438 91.7319L92.5598 91.7988L97.1315 116.678Z" fill="#2D2D2C"/>
<path fill-rule="evenodd" clip-rule="evenodd" d="M97.1315 116.678L92.6366 91.7852L92.2537 91.8571L97.1315 116.678Z" fill="#2E2E2D"/>
<path fill-rule="evenodd" clip-rule="evenodd" d="M97.1314 116.678L92.3304 91.8427L91.9482 91.9191L97.1314 116.678Z" fill="#2F2F2E"/>
<path fill-rule="evenodd" clip-rule="evenodd" d="M97.1314 116.678L92.0247 91.9035L91.6436 91.9844L97.1314 116.678Z" fill="#30302F"/>
<path fill-rule="evenodd" clip-rule="evenodd" d="M97.1315 116.678L91.7201 91.9686L91.3398 92.054L97.1315 116.678Z" fill="#323130"/>
<path fill-rule="evenodd" clip-rule="evenodd" d="M97.1315 116.678L91.4158 92.0369L91.0371 92.1272L97.1315 116.678Z" fill="#333332"/>
<path fill-rule="evenodd" clip-rule="evenodd" d="M97.1315 116.678L91.1127 92.1091L90.7351 92.2044L97.1315 116.678Z" fill="#343433"/>
<path fill-rule="evenodd" clip-rule="evenodd" d="M97.1314 116.678L90.8106 92.1851L90.4338 92.2848L97.1314 116.678Z" fill="#353534"/>
<path fill-rule="evenodd" clip-rule="evenodd" d="M97.1316 116.678L90.5095 92.2648L90.1343 92.3692L97.1316 116.678Z" fill="#353534"/>
<path fill-rule="evenodd" clip-rule="evenodd" d="M97.1313 116.678L90.2088 92.3484L89.835 92.4573L97.1313 116.678Z" fill="#363635"/>
<path fill-rule="evenodd" clip-rule="evenodd" d="M97.1314 116.678L89.91 92.4356L89.5374 92.5491L97.1314 116.678Z" fill="#373736"/>
<path fill-rule="evenodd" clip-rule="evenodd" d="M97.1315 116.678L89.6118 92.5264L89.2407 92.6443L97.1315 116.678Z" fill="#383837"/>
<path fill-rule="evenodd" clip-rule="evenodd" d="M97.1314 116.678L89.3147 92.6208L88.9451 92.7434L97.1314 116.678Z" fill="#393938"/>
<path fill-rule="evenodd" clip-rule="evenodd" d="M97.1314 116.678L89.0188 92.7188L88.6506 92.8462L97.1314 116.678Z" fill="#3A3A39"/>
<path fill-rule="evenodd" clip-rule="evenodd" d="M97.1316 116.678L88.7244 92.8208L88.3579 92.9523L97.1316 116.678Z" fill="#3B3B3A"/>
<path fill-rule="evenodd" clip-rule="evenodd" d="M97.1316 116.678L88.4312 92.9258L88.0664 93.0623L97.1316 116.678Z" fill="#3C3C3B"/>
<path fill-rule="evenodd" clip-rule="evenodd" d="M97.1313 116.678L88.1391 93.0351L87.7759 93.1758L97.1313 116.678Z" fill="#3E3D3D"/>
<path fill-rule="evenodd" clip-rule="evenodd" d="M97.1313 116.678L87.8486 93.1478L87.4868 93.2928L97.1313 116.678Z" fill="#3E3E3E"/>
<path fill-rule="evenodd" clip-rule="evenodd" d="M97.1315 116.678L87.5596 93.2637L87.1997 93.4135L97.1315 116.678Z" fill="#40403F"/>
<path fill-rule="evenodd" clip-rule="evenodd" d="M97.1316 116.678L87.2716 93.3836L86.9141 93.5373L97.1316 116.678Z" fill="#414140"/>
<path fill-rule="evenodd" clip-rule="evenodd" d="M97.1316 116.678L86.9855 93.5068L86.6299 93.6652L97.1316 116.678Z" fill="#424241"/>
<path fill-rule="evenodd" clip-rule="evenodd" d="M97.1314 116.678L86.7008 93.6334L86.3469 93.7963L97.1314 116.678Z" fill="#424342"/>
<path fill-rule="evenodd" clip-rule="evenodd" d="M97.1315 116.678L86.4178 93.7637L86.0659 93.9308L97.1315 116.678Z" fill="#444443"/>
<path fill-rule="evenodd" clip-rule="evenodd" d="M97.1315 116.678L86.1362 93.8976L85.7866 94.0688L97.1315 116.678Z" fill="#454544"/>
<path fill-rule="evenodd" clip-rule="evenodd" d="M97.1316 116.678L85.8565 94.0344L85.5088 94.2105L97.1316 116.678Z" fill="#464645"/>
<path fill-rule="evenodd" clip-rule="evenodd" d="M97.1315 116.678L85.5784 94.1754L85.2329 94.3554L97.1315 116.678Z" fill="#474746"/>
<path fill-rule="evenodd" clip-rule="evenodd" d="M97.1316 116.678L85.3022 94.3193L84.959 94.5035L97.1316 116.678Z" fill="#474847"/>
<path fill-rule="evenodd" clip-rule="evenodd" d="M97.1314 116.678L85.0272 94.4668L84.6863 94.6553L97.1314 116.678Z" fill="#494948"/>
<path fill-rule="evenodd" clip-rule="evenodd" d="M97.1314 116.678L84.7546 94.6177L84.416 94.8104L97.1314 116.678Z" fill="#4A4A49"/>
<path fill-rule="evenodd" clip-rule="evenodd" d="M97.1314 116.678L84.4837 94.7718L84.1477 94.9683L97.1314 116.678Z" fill="#4B4B4A"/>
<path fill-rule="evenodd" clip-rule="evenodd" d="M97.1316 116.678L84.2151 94.9291L83.8813 95.1302L97.1316 116.678Z" fill="#4C4C4B"/>
<path fill-rule="evenodd" clip-rule="evenodd" d="M97.1314 116.678L83.9478 95.09L83.6167 95.295L97.1314 116.678Z" fill="#4C4D4C"/>
<path fill-rule="evenodd" clip-rule="evenodd" d="M97.1315 116.678L83.6829 95.254L83.3545 95.4631L97.1315 116.678Z" fill="#4D4E4D"/>
<path fill-rule="evenodd" clip-rule="evenodd" d="M97.1314 116.678L83.4202 95.4211L83.094 95.6343L97.1314 116.678Z" fill="#4E4F4E"/>
<path fill-rule="evenodd" clip-rule="evenodd" d="M97.1315 116.678L83.1594 95.592L82.8359 95.809L97.1315 116.678Z" fill="#4F4F4F"/>
<path fill-rule="evenodd" clip-rule="evenodd" d="M97.1315 116.678L82.9005 95.7654L82.5801 95.9866L97.1315 116.678Z" fill="#505050"/>
<path fill-rule="evenodd" clip-rule="evenodd" d="M97.1316 116.678L82.644 95.9423L82.3262 96.1676L97.1316 116.678Z" fill="#515151"/>
<path fill-rule="evenodd" clip-rule="evenodd" d="M97.1313 116.678L82.3894 96.1225L82.0742 96.3516L97.1313 116.678Z" fill="#525252"/>
<path fill-rule="evenodd" clip-rule="evenodd" d="M97.1314 116.678L82.1373 96.3055L81.8252 96.5384L97.1314 116.678Z" fill="#535352"/>
<path fill-rule="evenodd" clip-rule="evenodd" d="M97.1316 116.678L81.8878 96.4918L81.5781 96.7284L97.1316 116.678Z" fill="#545453"/>
<path fill-rule="evenodd" clip-rule="evenodd" d="M97.1314 116.678L81.64 96.6812L81.3335 96.9216L97.1314 116.678Z" fill="#555554"/>
<path fill-rule="evenodd" clip-rule="evenodd" d="M97.1316 116.678L81.3953 96.8736L81.0918 97.1177L97.1316 116.678Z" fill="#565655"/>
<path fill-rule="evenodd" clip-rule="evenodd" d="M97.1314 116.678L81.152 97.0689L80.8516 97.317L97.1314 116.678Z" fill="#575756"/>
<path fill-rule="evenodd" clip-rule="evenodd" d="M97.1314 116.678L80.9116 97.2675L80.6143 97.5191L97.1314 116.678Z" fill="#575857"/>
<path fill-rule="evenodd" clip-rule="evenodd" d="M97.1313 116.678L80.6737 97.4686L80.3794 97.724L97.1313 116.678Z" fill="#585858"/>
<path fill-rule="evenodd" clip-rule="evenodd" d="M97.1314 116.678L80.4384 97.6729L80.1475 97.9319L97.1314 116.678Z" fill="#595959"/>
<path fill-rule="evenodd" clip-rule="evenodd" d="M97.1313 116.678L80.2055 97.8802L79.9175 98.1424L97.1313 116.678Z" fill="#5A5A5A"/>
<path fill-rule="evenodd" clip-rule="evenodd" d="M97.1313 116.678L79.975 98.0899L79.6904 98.3559L97.1313 116.678Z" fill="#5B5B5B"/>
<path fill-rule="evenodd" clip-rule="evenodd" d="M97.1313 116.678L79.7475 98.3027L79.4663 98.5722L97.1313 116.678Z" fill="#5C5C5B"/>
<path fill-rule="evenodd" clip-rule="evenodd" d="M97.1315 116.678L79.5227 98.518L79.2446 98.7909L97.1315 116.678Z" fill="#5C5D5C"/>
<path fill-rule="evenodd" clip-rule="evenodd" d="M97.1316 116.678L79.3003 98.7366L79.0259 99.0128L97.1316 116.678Z" fill="#5C5D5C"/>
<path fill-rule="evenodd" clip-rule="evenodd" d="M97.1314 116.678L79.0806 98.9576L78.8091 99.2374L97.1314 116.678Z" fill="#5D5E5D"/>
<path fill-rule="evenodd" clip-rule="evenodd" d="M97.1316 116.678L78.8638 99.1814L78.5962 99.4642L97.1316 116.678Z" fill="#5E5F5E"/>
<path fill-rule="evenodd" clip-rule="evenodd" d="M97.1316 116.678L78.6493 99.4078L78.3853 99.6939L97.1316 116.678Z" fill="#5F5F5F"/>
<path fill-rule="evenodd" clip-rule="evenodd" d="M97.1315 116.678L78.4381 99.6368L78.1772 99.9262L97.1315 116.678Z" fill="#606060"/>
<path fill-rule="evenodd" clip-rule="evenodd" d="M97.1313 116.678L78.2292 99.8681L77.9722 100.161L97.1313 116.678Z" fill="#616161"/>
<path fill-rule="evenodd" clip-rule="evenodd" d="M97.1314 116.678L78.0238 100.102L77.7705 100.398L97.1314 116.678Z" fill="#626261"/>
<path fill-rule="evenodd" clip-rule="evenodd" d="M97.1314 116.678L77.8212 100.339L77.5713 100.638L97.1314 116.678Z" fill="#636362"/>
<path fill-rule="evenodd" clip-rule="evenodd" d="M97.1315 116.678L77.6213 100.578L77.3752 100.88L97.1315 116.678Z" fill="#636463"/>
<path fill-rule="evenodd" clip-rule="evenodd" d="M97.1316 116.678L77.4244 100.82L77.1821 101.125L97.1316 116.678Z" fill="#646564"/>
<path fill-rule="evenodd" clip-rule="evenodd" d="M97.1315 116.678L77.2305 101.064L76.9919 101.372L97.1315 116.678Z" fill="#656565"/>
<path fill-rule="evenodd" clip-rule="evenodd" d="M97.1313 116.678L77.0396 101.31L76.8047 101.621L97.1313 116.678Z" fill="#666666"/>
<path fill-rule="evenodd" clip-rule="evenodd" d="M97.1315 116.678L76.8518 101.559L76.6208 101.872L97.1315 116.678Z" fill="#676766"/>
<path fill-rule="evenodd" clip-rule="evenodd" d="M97.1315 116.678L76.6672 101.81L76.4402 102.126L97.1315 116.678Z" fill="#676867"/>
<path fill-rule="evenodd" clip-rule="evenodd" d="M97.1315 116.678L76.4855 102.063L76.2625 102.382L97.1315 116.678Z" fill="#686968"/>
<path fill-rule="evenodd" clip-rule="evenodd" d="M97.1314 116.678L76.307 102.318L76.0879 102.64L97.1314 116.678Z" fill="#696A69"/>
<path fill-rule="evenodd" clip-rule="evenodd" d="M97.1315 116.678L76.1318 102.576L75.9167 102.901L97.1315 116.678Z" fill="#6A6A6A"/>
<path fill-rule="evenodd" clip-rule="evenodd" d="M97.1316 116.678L75.9599 102.836L75.7485 103.163L97.1316 116.678Z" fill="#6B6B6B"/>
<path fill-rule="evenodd" clip-rule="evenodd" d="M97.1313 116.678L75.7907 103.098L75.5835 103.428L97.1313 116.678Z" fill="#6B6C6B"/>
<path fill-rule="evenodd" clip-rule="evenodd" d="M97.1314 116.678L75.6248 103.362L75.4219 103.694L97.1314 116.678Z" fill="#6C6D6C"/>
<path fill-rule="evenodd" clip-rule="evenodd" d="M97.1315 116.678L75.4627 103.628L75.2637 103.963L97.1315 116.678Z" fill="#6D6E6D"/>
<path fill-rule="evenodd" clip-rule="evenodd" d="M97.1315 116.678L75.3033 103.896L75.1086 104.233L97.1315 116.678Z" fill="#6E6F6E"/>
<path fill-rule="evenodd" clip-rule="evenodd" d="M97.1314 116.678L75.1475 104.166L74.957 104.505L97.1314 116.678Z" fill="#6E6F6F"/>
<path fill-rule="evenodd" clip-rule="evenodd" d="M97.1315 116.678L74.9953 104.437L74.8088 104.779L97.1315 116.678Z" fill="#6F7070"/>
<path fill-rule="evenodd" clip-rule="evenodd" d="M97.1315 116.678L74.8459 104.711L74.6638 105.055L97.1315 116.678Z" fill="#707171"/>
<path fill-rule="evenodd" clip-rule="evenodd" d="M97.1315 116.678L74.7004 104.986L74.5225 105.333L97.1315 116.678Z" fill="#717271"/>
<path fill-rule="evenodd" clip-rule="evenodd" d="M97.1313 116.678L74.5578 105.264L74.3843 105.612L97.1313 116.678Z" fill="#727272"/>
<path fill-rule="evenodd" clip-rule="evenodd" d="M97.1315 116.678L74.4193 105.543L74.2495 105.893L97.1315 116.678Z" fill="#727373"/>
<path fill-rule="evenodd" clip-rule="evenodd" d="M97.1314 116.678L74.2834 105.823L74.1187 106.176L97.1314 116.678Z" fill="#737474"/>
<path fill-rule="evenodd" clip-rule="evenodd" d="M97.1314 116.678L74.1516 106.105L73.991 106.46L97.1314 116.678Z" fill="#747574"/>
<path fill-rule="evenodd" clip-rule="evenodd" d="M97.1314 116.678L74.023 106.389L73.8667 106.746L97.1314 116.678Z" fill="#757675"/>
<path fill-rule="evenodd" clip-rule="evenodd" d="M97.1315 116.678L73.8981 106.675L73.7461 107.034L97.1315 116.678Z" fill="#767676"/>
<path fill-rule="evenodd" clip-rule="evenodd" d="M97.1315 116.678L73.7768 106.962L73.6294 107.323L97.1315 116.678Z" fill="#767777"/>
<path fill-rule="evenodd" clip-rule="evenodd" d="M97.1314 116.678L73.6588 107.25L73.5159 107.613L97.1314 116.678Z" fill="#777878"/>
<path fill-rule="evenodd" clip-rule="evenodd" d="M97.1313 116.678L73.5442 107.54L73.4058 107.905L97.1313 116.678Z" fill="#787979"/>
<path fill-rule="evenodd" clip-rule="evenodd" d="M97.1315 116.678L73.4335 107.832L73.2998 108.197L97.1315 116.678Z" fill="#797979"/>
<path fill-rule="evenodd" clip-rule="evenodd" d="M97.1315 116.678L73.3262 108.124L73.197 108.492L97.1315 116.678Z" fill="#797A7A"/>
<path fill-rule="evenodd" clip-rule="evenodd" d="M97.1314 116.678L73.2225 108.418L73.0979 108.787L97.1314 116.678Z" fill="#7A7B7B"/>
<path fill-rule="evenodd" clip-rule="evenodd" d="M97.1316 116.678L73.123 108.713L73.0024 109.084L97.1316 116.678Z" fill="#7B7C7B"/>
<path fill-rule="evenodd" clip-rule="evenodd" d="M97.1315 116.678L73.0264 109.01L72.9109 109.382L97.1315 116.678Z" fill="#7C7D7C"/>
<path fill-rule="evenodd" clip-rule="evenodd" d="M97.1315 116.678L72.9339 109.307L72.8228 109.681L97.1315 116.678Z" fill="#7D7D7D"/>
<path fill-rule="evenodd" clip-rule="evenodd" d="M97.1313 116.678L72.845 109.606L72.7383 109.981L97.1313 116.678Z" fill="#7D7E7E"/>
<path fill-rule="evenodd" clip-rule="evenodd" d="M97.1315 116.678L72.7597 109.905L72.6577 110.281L97.1315 116.678Z" fill="#7E7E7F"/>
<path fill-rule="evenodd" clip-rule="evenodd" d="M97.1314 116.678L72.678 110.206L72.5808 110.583L97.1314 116.678Z" fill="#7E7E7E"/>
<path fill-rule="evenodd" clip-rule="evenodd" d="M97.1315 116.678L72.6002 110.508L72.5076 110.887L97.1315 116.678Z" fill="#7F7F7F"/>
<path fill-rule="evenodd" clip-rule="evenodd" d="M97.1314 116.678L72.526 110.811L72.438 111.19L97.1314 116.678Z" fill="#7F8080"/>
<path fill-rule="evenodd" clip-rule="evenodd" d="M97.1313 116.678L72.4556 111.115L72.3721 111.495L97.1313 116.678Z" fill="#808181"/>
<path fill-rule="evenodd" clip-rule="evenodd" d="M97.1315 116.678L72.3888 111.419L72.3103 111.8L97.1315 116.678Z" fill="#818282"/>
<path fill-rule="evenodd" clip-rule="evenodd" d="M97.1314 116.678L72.3261 111.724L72.252 112.107L97.1314 116.678Z" fill="#818282"/>
<path fill-rule="evenodd" clip-rule="evenodd" d="M97.1316 116.678L72.2669 112.03L72.1978 112.413L97.1316 116.678Z" fill="#828383"/>
<path fill-rule="evenodd" clip-rule="evenodd" d="M97.1315 116.678L72.2117 112.337L72.147 112.721L97.1315 116.678Z" fill="#838383"/>
<path fill-rule="evenodd" clip-rule="evenodd" d="M97.1314 116.678L72.1597 112.644L72.1001 113.029L97.1314 116.678Z" fill="#838484"/>
<path fill-rule="evenodd" clip-rule="evenodd" d="M97.1316 116.678L72.1123 112.952L72.0571 113.338L97.1316 116.678Z" fill="#848585"/>
<path fill-rule="evenodd" clip-rule="evenodd" d="M97.1315 116.678L72.0681 113.261L72.0178 113.647L97.1315 116.678Z" fill="#858686"/>
<path fill-rule="evenodd" clip-rule="evenodd" d="M97.1313 116.678L72.0278 113.569L71.9824 113.956L97.1313 116.678Z" fill="#868686"/>
<path fill-rule="evenodd" clip-rule="evenodd" d="M97.1313 116.678L71.9915 113.879L71.9507 114.266L97.1313 116.678Z" fill="#868787"/>
<path fill-rule="evenodd" clip-rule="evenodd" d="M97.1315 116.678L71.9591 114.189L71.9229 114.577L97.1315 116.678Z" fill="#878888"/>
<path fill-rule="evenodd" clip-rule="evenodd" d="M97.1314 116.678L71.93 114.499L71.8989 114.888L97.1314 116.678Z" fill="#878888"/>
<path fill-rule="evenodd" clip-rule="evenodd" d="M97.1314 116.678L71.9054 114.81L71.8789 115.199L97.1314 116.678Z" fill="#888989"/>
<path fill-rule="evenodd" clip-rule="evenodd" d="M97.1316 116.678L71.8844 115.121L71.8628 115.51L97.1316 116.678Z" fill="#898A8A"/>
<path fill-rule="evenodd" clip-rule="evenodd" d="M97.1315 116.678L71.867 115.432L71.8503 115.821L97.1315 116.678Z" fill="#898B8B"/>
<path fill-rule="evenodd" clip-rule="evenodd" d="M97.1316 116.678L71.8535 115.743L71.8418 116.133L97.1316 116.678Z" fill="#8A8B8B"/>
<path fill-rule="evenodd" clip-rule="evenodd" d="M97.1314 116.678L71.8438 116.055L71.8367 116.444L97.1314 116.678Z" fill="#8B8C8C"/>
<path fill-rule="evenodd" clip-rule="evenodd" d="M97.1314 116.678L71.8381 116.366L71.8354 116.756L97.1314 116.678Z" fill="#8C8D8D"/>
<path fill-rule="evenodd" clip-rule="evenodd" d="M97.1316 116.678H71.8364L71.8387 117.068L97.1316 116.678Z" fill="#8C8D8D"/>
<path fill-rule="evenodd" clip-rule="evenodd" d="M97.1314 116.678L71.8381 116.989L71.8453 117.379L97.1314 116.678Z" fill="#8D8E8E"/>
<path fill-rule="evenodd" clip-rule="evenodd" d="M97.1313 116.678L71.8438 117.301L71.8558 117.691L97.1313 116.678Z" fill="#8D8F8F"/>
<path fill-rule="evenodd" clip-rule="evenodd" d="M97.1316 116.678L71.8535 117.613L71.8704 118.002L97.1316 116.678Z" fill="#8E8F8F"/>
<path fill-rule="evenodd" clip-rule="evenodd" d="M97.1314 116.678L71.8669 117.924L71.8884 118.313L97.1314 116.678Z" fill="#8F9090"/>
<path fill-rule="evenodd" clip-rule="evenodd" d="M97.1314 116.678L71.8843 118.235L71.9104 118.624L97.1314 116.678Z" fill="#8F9091"/>
<path fill-rule="evenodd" clip-rule="evenodd" d="M97.1315 116.678L71.9055 118.546L71.9364 118.934L97.1315 116.678Z" fill="#909191"/>
<path fill-rule="evenodd" clip-rule="evenodd" d="M97.1316 116.678L71.9302 118.857L71.9664 119.245L97.1316 116.678Z" fill="#919292"/>
<path fill-rule="evenodd" clip-rule="evenodd" d="M97.1313 116.678L71.959 119.167L71.9995 119.555L97.1313 116.678Z" fill="#919393"/>
<path fill-rule="evenodd" clip-rule="evenodd" d="M97.1315 116.678L71.9917 119.477L72.037 119.864L97.1315 116.678Z" fill="#929393"/>
<path fill-rule="evenodd" clip-rule="evenodd" d="M97.1314 116.678L72.0278 119.786L72.0781 120.173L97.1314 116.678Z" fill="#929394"/>
<path fill-rule="evenodd" clip-rule="evenodd" d="M97.1315 116.678L72.0681 120.095L72.1231 120.481L97.1315 116.678Z" fill="#939495"/>
<path fill-rule="evenodd" clip-rule="evenodd" d="M97.1316 116.678L72.1123 120.404L72.172 120.789L97.1316 116.678Z" fill="#949595"/>
<path fill-rule="evenodd" clip-rule="evenodd" d="M97.1313 116.678L72.1597 120.712L72.2243 121.096L97.1313 116.678Z" fill="#959696"/>
<path fill-rule="evenodd" clip-rule="evenodd" d="M97.1315 116.678L72.2117 121.019L72.2808 121.403L97.1315 116.678Z" fill="#959697"/>
<path fill-rule="evenodd" clip-rule="evenodd" d="M97.1315 116.678L72.2668 121.326L72.3409 121.709L97.1315 116.678Z" fill="#969797"/>
<path fill-rule="evenodd" clip-rule="evenodd" d="M97.1315 116.678L72.3262 121.632L72.4047 122.013L97.1315 116.678Z" fill="#969798"/>
<path fill-rule="evenodd" clip-rule="evenodd" d="M97.1313 116.678L72.3887 121.937L72.4723 122.318L97.1313 116.678Z" fill="#979898"/>
<path fill-rule="evenodd" clip-rule="evenodd" d="M97.1315 116.678L72.4558 122.241L72.5438 122.621L97.1315 116.678Z" fill="#989999"/>
<path fill-rule="evenodd" clip-rule="evenodd" d="M97.1313 116.678L72.5259 122.545L72.6186 122.924L97.1313 116.678Z" fill="#98999A"/>
<path fill-rule="evenodd" clip-rule="evenodd" d="M97.1314 116.678L72.6001 122.848L72.6976 123.225L97.1314 116.678Z" fill="#999A9B"/>
<path fill-rule="evenodd" clip-rule="evenodd" d="M97.1314 116.678L72.678 123.15L72.78 123.525L97.1314 116.678Z" fill="#999A9A"/>
<path fill-rule="evenodd" clip-rule="evenodd" d="M97.1316 116.678L72.7598 123.45L72.8663 123.825L97.1316 116.678Z" fill="#9A9A9B"/>
<path fill-rule="evenodd" clip-rule="evenodd" d="M97.1316 116.678L72.8452 123.75L72.9563 124.123L97.1316 116.678Z" fill="#9A9B9B"/>
<path fill-rule="evenodd" clip-rule="evenodd" d="M97.1314 116.678L72.9338 124.049L73.0495 124.421L97.1314 116.678Z" fill="#9A9C9C"/>
<path fill-rule="evenodd" clip-rule="evenodd" d="M97.1314 116.678L73.0264 124.346L73.1469 124.717L97.1314 116.678Z" fill="#9B9C9D"/>
<path fill-rule="evenodd" clip-rule="evenodd" d="M97.1314 116.678L73.1228 124.643L73.2479 125.011L97.1314 116.678Z" fill="#9C9D9E"/>
<path fill-rule="evenodd" clip-rule="evenodd" d="M97.1316 116.678L73.2227 124.938L73.3525 125.305L97.1316 116.678Z" fill="#9D9E9E"/>
<path fill-rule="evenodd" clip-rule="evenodd" d="M97.1315 116.678L73.3262 125.232L73.4604 125.598L97.1315 116.678Z" fill="#9D9E9F"/>
<path fill-rule="evenodd" clip-rule="evenodd" d="M97.1316 116.678L73.4336 125.524L73.572 125.888L97.1316 116.678Z" fill="#9E9F9F"/>
<path fill-rule="evenodd" clip-rule="evenodd" d="M97.1316 116.678L73.5444 125.816L73.6873 126.178L97.1316 116.678Z" fill="#9E9FA0"/>
<path fill-rule="evenodd" clip-rule="evenodd" d="M97.1313 116.678L73.6587 126.106L73.8061 126.466L97.1313 116.678Z" fill="#9FA0A1"/>
<path fill-rule="evenodd" clip-rule="evenodd" d="M97.1316 116.678L73.7769 126.394L73.9288 126.753L97.1316 116.678Z" fill="#9FA0A1"/>
<path fill-rule="evenodd" clip-rule="evenodd" d="M97.1313 116.678L73.8979 126.681L74.0543 127.038L97.1313 116.678Z" fill="#A0A1A1"/>
<path fill-rule="evenodd" clip-rule="evenodd" d="M97.1313 116.678L74.0229 126.967L74.1837 127.322L97.1313 116.678Z" fill="#A1A2A2"/>
<path fill-rule="evenodd" clip-rule="evenodd" d="M97.1314 116.678L74.1516 127.25L74.3164 127.603L97.1314 116.678Z" fill="#A1A2A3"/>
<path fill-rule="evenodd" clip-rule="evenodd" d="M97.1314 116.678L74.2834 127.533L74.4528 127.883L97.1314 116.678Z" fill="#A2A3A3"/>
<path fill-rule="evenodd" clip-rule="evenodd" d="M97.1314 116.678L74.4192 127.813L74.5927 128.162L97.1314 116.678Z" fill="#A2A3A4"/>
<path fill-rule="evenodd" clip-rule="evenodd" d="M97.1314 116.678L74.5579 128.092L74.7358 128.439L97.1314 116.678Z" fill="#A3A4A5"/>
<path fill-rule="evenodd" clip-rule="evenodd" d="M97.1315 116.678L74.7004 128.369L74.8826 128.714L97.1315 116.678Z" fill="#A3A5A5"/>
<path fill-rule="evenodd" clip-rule="evenodd" d="M97.1315 116.678L74.8459 128.645L75.0323 128.987L97.1315 116.678Z" fill="#A4A5A6"/>
<path fill-rule="evenodd" clip-rule="evenodd" d="M97.1313 116.678L74.9951 128.919L75.1856 129.259L97.1313 116.678Z" fill="#A5A6A6"/>
<path fill-rule="evenodd" clip-rule="evenodd" d="M97.1314 116.678L75.1475 129.19L75.3425 129.528L97.1314 116.678Z" fill="#A5A6A7"/>
<path fill-rule="evenodd" clip-rule="evenodd" d="M97.1314 116.678L75.3032 129.46L75.5024 129.795L97.1314 116.678Z" fill="#A6A7A7"/>
<path fill-rule="evenodd" clip-rule="evenodd" d="M97.1314 116.678L75.4626 129.728L75.6657 130.061L97.1314 116.678Z" fill="#A6A7A8"/>
<path fill-rule="evenodd" clip-rule="evenodd" d="M97.1314 116.678L75.6248 129.994L75.832 130.324L97.1314 116.678Z" fill="#A7A8A9"/>
<path fill-rule="evenodd" clip-rule="evenodd" d="M97.1314 116.678L75.7908 130.258L76.0017 130.586L97.1314 116.678Z" fill="#A7A8A9"/>
<path fill-rule="evenodd" clip-rule="evenodd" d="M97.1314 116.678L75.9597 130.52L76.1748 130.845L97.1314 116.678Z" fill="#A8A9A9"/>
<path fill-rule="evenodd" clip-rule="evenodd" d="M97.1315 116.678L76.1318 130.78L76.351 131.102L97.1315 116.678Z" fill="#A8A9AA"/>
<path fill-rule="evenodd" clip-rule="evenodd" d="M97.1315 116.678L76.3071 131.038L76.5301 131.357L97.1315 116.678Z" fill="#A9AAAB"/>
<path fill-rule="evenodd" clip-rule="evenodd" d="M97.1313 116.678L76.4854 131.293L76.7126 131.609L97.1313 116.678Z" fill="#AAABAB"/>
<path fill-rule="evenodd" clip-rule="evenodd" d="M97.1315 116.678L76.6672 131.546L76.8982 131.86L97.1315 116.678Z" fill="#AAABAC"/>
<path fill-rule="evenodd" clip-rule="evenodd" d="M97.1315 116.678L76.8518 131.797L77.0865 132.108L97.1315 116.678Z" fill="#ABACAC"/>
<path fill-rule="evenodd" clip-rule="evenodd" d="M97.1313 116.678L77.0396 132.046L77.2779 132.354L97.1313 116.678Z" fill="#ABACAD"/>
<path fill-rule="evenodd" clip-rule="evenodd" d="M97.1315 116.678L77.2305 132.292L77.4727 132.597L97.1315 116.678Z" fill="#ACADAD"/>
<path fill-rule="evenodd" clip-rule="evenodd" d="M97.1315 116.678L77.4243 132.536L77.6705 132.838L97.1315 116.678Z" fill="#ADADAE"/>
<path fill-rule="evenodd" clip-rule="evenodd" d="M97.1313 116.678L77.6211 132.778L77.871 133.077L97.1313 116.678Z" fill="#ADAEAE"/>
<path fill-rule="evenodd" clip-rule="evenodd" d="M97.1315 116.678L77.8213 133.017L78.0745 133.313L97.1315 116.678Z" fill="#ADAEAF"/>
<path fill-rule="evenodd" clip-rule="evenodd" d="M97.1316 116.678L78.0239 133.254L78.2808 133.546L97.1316 116.678Z" fill="#AEAFAF"/>
<path fill-rule="evenodd" clip-rule="evenodd" d="M97.1316 116.678L78.2295 133.488L78.4903 133.777L97.1316 116.678Z" fill="#AFB0B0"/>
<path fill-rule="evenodd" clip-rule="evenodd" d="M97.1314 116.678L78.438 133.719L78.7021 134.006L97.1314 116.678Z" fill="#AFB0B1"/>
<path fill-rule="evenodd" clip-rule="evenodd" d="M97.1314 116.678L78.6492 133.948L78.9172 134.231L97.1314 116.678Z" fill="#AFB0B1"/>
<path fill-rule="evenodd" clip-rule="evenodd" d="M97.1316 116.678L78.8638 134.175L79.1347 134.454L97.1316 116.678Z" fill="#B0B1B2"/>
<path fill-rule="evenodd" clip-rule="evenodd" d="M97.1314 116.678L79.0806 134.398L79.3549 134.675L97.1314 116.678Z" fill="#B1B2B2"/>
<path fill-rule="evenodd" clip-rule="evenodd" d="M97.1316 116.678L79.3003 134.619L79.5785 134.892L97.1316 116.678Z" fill="#B1B2B2"/>
<path fill-rule="evenodd" clip-rule="evenodd" d="M97.1315 116.678L79.5227 134.838L79.804 135.107L97.1315 116.678Z" fill="#B1B2B2"/>
<path fill-rule="evenodd" clip-rule="evenodd" d="M97.1314 116.678L79.7476 135.053L80.0321 135.319L97.1314 116.678Z" fill="#B2B3B3"/>
<path fill-rule="evenodd" clip-rule="evenodd" d="M97.1314 116.678L79.9751 135.266L80.263 135.528L97.1314 116.678Z" fill="#B2B3B3"/>
<path fill-rule="evenodd" clip-rule="evenodd" d="M97.1314 116.678L80.2056 135.476L80.4967 135.735L97.1314 116.678Z" fill="#B3B3B4"/>
<path fill-rule="evenodd" clip-rule="evenodd" d="M97.1315 116.678L80.4385 135.683L80.7326 135.938L97.1315 116.678Z" fill="#B3B4B5"/>
<path fill-rule="evenodd" clip-rule="evenodd" d="M97.1314 116.678L80.6738 135.887L80.9714 136.139L97.1314 116.678Z" fill="#B4B4B5"/>
<path fill-rule="evenodd" clip-rule="evenodd" d="M97.1314 116.678L80.9116 136.088L81.2122 136.336L97.1314 116.678Z" fill="#B4B5B5"/>
<path fill-rule="evenodd" clip-rule="evenodd" d="M97.1315 116.678L81.1521 136.287L81.4556 136.531L97.1315 116.678Z" fill="#B5B6B6"/>
<path fill-rule="evenodd" clip-rule="evenodd" d="M97.1313 116.678L81.395 136.482L81.7011 136.723L97.1313 116.678Z" fill="#B5B6B6"/>
<path fill-rule="evenodd" clip-rule="evenodd" d="M97.1316 116.678L81.6401 136.675L81.9496 136.911L97.1316 116.678Z" fill="#B5B6B7"/>
<path fill-rule="evenodd" clip-rule="evenodd" d="M97.1315 116.678L81.8877 136.864L82.1998 137.097L97.1315 116.678Z" fill="#B6B7B8"/>
<path fill-rule="evenodd" clip-rule="evenodd" d="M97.1313 116.678L82.1372 137.05L82.4525 137.279L97.1313 116.678Z" fill="#B7B8B8"/>
<path fill-rule="evenodd" clip-rule="evenodd" d="M97.1316 116.678L82.3896 137.233L82.7075 137.459L97.1316 116.678Z" fill="#B7B8B8"/>
<path fill-rule="evenodd" clip-rule="evenodd" d="M97.1316 116.678L82.644 137.414L82.9648 137.635L97.1316 116.678Z" fill="#B8B9B9"/>
<path fill-rule="evenodd" clip-rule="evenodd" d="M97.1314 116.678L82.9004 137.59L83.224 137.807L97.1314 116.678Z" fill="#B8B9BA"/>
<path fill-rule="evenodd" clip-rule="evenodd" d="M97.1315 116.678L83.1594 137.764L83.4853 137.977L97.1315 116.678Z" fill="#B9B9BA"/>
<path fill-rule="evenodd" clip-rule="evenodd" d="M97.1314 116.678L83.4202 137.935L83.7485 138.144L97.1314 116.678Z" fill="#B9BABB"/>
<path fill-rule="evenodd" clip-rule="evenodd" d="M97.1315 116.678L83.6829 138.102L84.0143 138.307L97.1315 116.678Z" fill="#BABBBB"/>
<path fill-rule="evenodd" clip-rule="evenodd" d="M97.1314 116.678L83.9478 138.266L84.2815 138.467L97.1314 116.678Z" fill="#BABBBB"/>
<path fill-rule="evenodd" clip-rule="evenodd" d="M97.1313 116.678L84.2148 138.427L84.5509 138.623L97.1313 116.678Z" fill="#BBBCBC"/>
<path fill-rule="evenodd" clip-rule="evenodd" d="M97.1316 116.678L84.4839 138.584L84.8226 138.777L97.1316 116.678Z" fill="#BBBCBD"/>
<path fill-rule="evenodd" clip-rule="evenodd" d="M97.1314 116.678L84.7546 138.738L85.0956 138.927L97.1314 116.678Z" fill="#BCBCBD"/>
<path fill-rule="evenodd" clip-rule="evenodd" d="M97.1316 116.678L85.0273 138.889L85.3705 139.073L97.1316 116.678Z" fill="#BCBDBD"/>
<path fill-rule="evenodd" clip-rule="evenodd" d="M97.1314 116.678L85.302 139.037L85.6475 139.217L97.1314 116.678Z" fill="#BCBDBD"/>
<path fill-rule="evenodd" clip-rule="evenodd" d="M97.1315 116.678L85.5784 139.181L85.9261 139.356L97.1315 116.678Z" fill="#BDBEBE"/>
<path fill-rule="evenodd" clip-rule="evenodd" d="M97.1315 116.678L85.8564 139.321L86.2061 139.493L97.1315 116.678Z" fill="#BEBEBF"/>
<path fill-rule="evenodd" clip-rule="evenodd" d="M97.1315 116.678L86.1362 139.458L86.488 139.626L97.1315 116.678Z" fill="#BEBFBF"/>
<path fill-rule="evenodd" clip-rule="evenodd" d="M97.1314 116.678L86.4177 139.592L86.7715 139.755L97.1314 116.678Z" fill="#BFBFC0"/>
<path fill-rule="evenodd" clip-rule="evenodd" d="M97.1313 116.678L86.7007 139.723L87.0563 139.881L97.1313 116.678Z" fill="#BFBFC0"/>
<path fill-rule="evenodd" clip-rule="evenodd" d="M97.1314 116.678L86.9854 139.849L87.3433 140.003L97.1314 116.678Z" fill="#BFC0C0"/>
<path fill-rule="evenodd" clip-rule="evenodd" d="M97.1314 116.678L87.2715 139.972L87.6313 140.122L97.1314 116.678Z" fill="#C0C0C1"/>
<path fill-rule="evenodd" clip-rule="evenodd" d="M97.1315 116.678L87.5596 140.092L87.9209 140.237L97.1315 116.678Z" fill="#C1C1C1"/>
<path fill-rule="evenodd" clip-rule="evenodd" d="M97.1314 116.678L87.8486 140.208L88.2118 140.349L97.1314 116.678Z" fill="#C0C1C2"/>
<path fill-rule="evenodd" clip-rule="evenodd" d="M97.1314 116.678L88.1392 140.321L88.504 140.457L97.1314 116.678Z" fill="#C1C2C2"/>
<path fill-rule="evenodd" clip-rule="evenodd" d="M97.1315 116.678L88.4312 140.43L88.7977 140.562L97.1315 116.678Z" fill="#C2C2C3"/>
<path fill-rule="evenodd" clip-rule="evenodd" d="M97.1315 116.678L88.7244 140.535L89.0924 140.662L97.1315 116.678Z" fill="#C2C2C2"/>
<path fill-rule="evenodd" clip-rule="evenodd" d="M97.1314 116.678L89.0188 140.637L89.3888 140.76L97.1314 116.678Z" fill="#C3C3C3"/>
<path fill-rule="evenodd" clip-rule="evenodd" d="M97.1314 116.678L89.3147 140.735L89.6859 140.853L97.1314 116.678Z" fill="#C3C3C4"/>
<path fill-rule="evenodd" clip-rule="evenodd" d="M97.1315 116.678L89.6118 140.829L89.9845 140.943L97.1315 116.678Z" fill="#C3C4C4"/>
<path fill-rule="evenodd" clip-rule="evenodd" d="M97.1316 116.678L89.9102 140.92L90.2839 141.03L97.1316 116.678Z" fill="#C4C4C5"/>
<path fill-rule="evenodd" clip-rule="evenodd" d="M97.1315 116.678L90.209 141.007L90.5843 141.112L97.1315 116.678Z" fill="#C4C4C5"/>
<path fill-rule="evenodd" clip-rule="evenodd" d="M97.1313 116.678L90.5093 141.091L90.8857 141.19L97.1313 116.678Z" fill="#C4C4C4"/>
<path fill-rule="evenodd" clip-rule="evenodd" d="M97.1313 116.678L90.8105 141.171L91.1881 141.266L97.1313 116.678Z" fill="#C4C5C5"/>
<path fill-rule="evenodd" clip-rule="evenodd" d="M97.1316 116.678L91.1128 141.247L91.4919 141.337L97.1316 116.678Z" fill="#C5C5C6"/>
<path fill-rule="evenodd" clip-rule="evenodd" d="M97.1315 116.678L91.4158 141.319L91.7961 141.405L97.1315 116.678Z" fill="#C6C6C6"/>
<path fill-rule="evenodd" clip-rule="evenodd" d="M97.1314 116.678L91.72 141.387L92.1009 141.469L97.1314 116.678Z" fill="#C6C6C7"/>
<path fill-rule="evenodd" clip-rule="evenodd" d="M97.1314 116.678L92.0247 141.452L92.4067 141.529L97.1314 116.678Z" fill="#C6C7C7"/>
<path fill-rule="evenodd" clip-rule="evenodd" d="M97.1316 116.678L92.3306 141.513L92.7134 141.585L97.1316 116.678Z" fill="#C7C7C7"/>
<path fill-rule="evenodd" clip-rule="evenodd" d="M97.1316 116.678L92.6367 141.571L93.0207 141.638L97.1316 116.678Z" fill="#C7C7C7"/>
<path fill-rule="evenodd" clip-rule="evenodd" d="M97.1315 116.678L92.9438 141.624L93.3282 141.686L97.1315 116.678Z" fill="#C8C8C8"/>
<path fill-rule="evenodd" clip-rule="evenodd" d="M97.1314 116.678L93.2515 141.674L93.6366 141.731L97.1314 116.678Z" fill="#C8C8C9"/>
<path fill-rule="evenodd" clip-rule="evenodd" d="M97.1315 116.678L93.5596 141.72L93.9454 141.772L97.1315 116.678Z" fill="#C8C9C9"/>
<path fill-rule="evenodd" clip-rule="evenodd" d="M97.1313 116.678L93.8682 141.762L94.2549 141.81L97.1313 116.678Z" fill="#C9C9CA"/>
<path fill-rule="evenodd" clip-rule="evenodd" d="M97.1314 116.678L94.1775 141.8L94.5648 141.843L97.1314 116.678Z" fill="#C9C9C9"/>
<path fill-rule="evenodd" clip-rule="evenodd" d="M97.1314 116.678L94.4873 141.835L94.8751 141.873L97.1314 116.678Z" fill="#CACACA"/>
<path fill-rule="evenodd" clip-rule="evenodd" d="M97.1314 116.678L94.7974 141.865L95.1855 141.899L97.1314 116.678Z" fill="#CACACA"/>
<path fill-rule="evenodd" clip-rule="evenodd" d="M97.1313 116.678L95.1079 141.892L95.4964 141.921L97.1313 116.678Z" fill="#CACBCB"/>
<path fill-rule="evenodd" clip-rule="evenodd" d="M97.1315 116.678L95.4187 141.915L95.8077 141.939L97.1315 116.678Z" fill="#CBCBCC"/>
<path fill-rule="evenodd" clip-rule="evenodd" d="M97.1314 116.678L95.7297 141.934L96.1189 141.954L97.1314 116.678Z" fill="#CBCCCC"/>
<path fill-rule="evenodd" clip-rule="evenodd" d="M97.1313 116.678L96.041 141.95L96.4303 141.964L97.1313 116.678Z" fill="#CCCCCC"/>
<path fill-rule="evenodd" clip-rule="evenodd" d="M97.1314 116.678L96.3525 141.961L96.7419 141.971L97.1314 116.678Z" fill="#CCCCCC"/>
<path fill-rule="evenodd" clip-rule="evenodd" d="M97.1315 116.678L96.6641 141.969L97.0534 141.974L97.1315 116.678Z" fill="#CCCCCD"/>
<path fill-rule="evenodd" clip-rule="evenodd" d="M97.1316 116.678L96.9756 141.973H97.2874L97.1316 116.678Z" fill="#CCCCCC"/>
</g>
<path d="M97.1315 109.82L109.305 113.249L121.479 116.678L109.305 120.107L97.1315 123.536L84.9581 120.107L72.7842 116.678L84.9581 113.249L97.1315 109.82Z" stroke="#1A1A18" stroke-width="0.288" stroke-miterlimit="22.9256"/>
<path d="M96.9393 100.061C97.5251 100.646 98.4749 100.646 99.0607 100.061L108.607 90.5147C109.192 89.9289 109.192 88.9792 108.607 88.3934C108.021 87.8076 107.071 87.8076 106.485 88.3934L98 96.8787L89.5147 88.3934C88.9289 87.8076 87.9792 87.8076 87.3934 88.3934C86.8076 88.9792 86.8076 89.9289 87.3934 90.5147L96.9393 100.061ZM96.5 76V99H99.5V76H96.5Z" fill="black"/>
<path d="M111.121 42L117.681 45.5786L124.242 49.1569L117.681 53.2358L111.181 56.7358L104.561 52.7358L98 49L104.561 45.5786L111.121 42Z" fill="#D7B469" stroke="#1A1A18" stroke-width="0.288" stroke-miterlimit="22.9256"/>
<path d="M98.5404 63.6996L98.3606 56.468L98.1814 49.2358L104.681 52.7358L111.181 56.7358V63.7358V71.2358L104.861 67.4677L98.5404 63.6996Z" fill="#D7B469" stroke="#1A1A18" stroke-width="0.288" stroke-miterlimit="22.9256"/>
<path d="M111.181 56.7358L117.861 53.0039L124.181 49.2358L124.002 56.4681L123.822 63.7001L117.502 67.4677L111.181 71.2358V64.2358V56.7358Z" fill="#D7B469" stroke="#1A1A18" stroke-width="0.288" stroke-miterlimit="22.9256"/>
</g>
<defs>
<clipPath id="clip0_2_22765">
<rect width="1122.52" height="1587.4" fill="white" transform="translate(-833 -508)"/>
</clipPath>
</defs>
</svg>
