<svg width="192" height="150" viewBox="0 0 192 150" fill="none" xmlns="http://www.w3.org/2000/svg">
<g clip-path="url(#clip0_2_22765)">
<path d="M79.6028 24.5952C79.2154 24.5952 78.7815 24.5097 78.3015 24.3393V23.589C78.4864 23.6673 78.7493 23.7312 79.0873 23.781C79.2044 23.7526 79.3183 23.7383 79.432 23.7383C80.3603 23.6673 80.9895 23.397 81.3131 22.9348C81.6365 22.4725 81.8003 21.8289 81.8003 21.0114C81.8003 20.0442 81.5512 19.3294 81.0572 18.8673C80.5628 18.4016 79.802 18.1704 78.7709 18.1704C78.6889 18.1704 78.5468 18.1774 78.3443 18.1918C78.1379 18.2058 77.9885 18.213 77.896 18.213L77.8536 27.621C77.8536 28.2431 77.9496 28.7303 78.1379 29.0894C78.3264 29.4483 78.7316 29.6265 79.3469 29.6265H80.5594V30.4156C79.7558 30.3018 78.8243 30.2448 77.7644 30.2448C76.7761 30.2448 75.6241 30.3162 74.3123 30.4584V29.6725H75.2295C75.7416 29.6725 76.0613 29.5089 76.1895 29.1854C76.3176 28.8618 76.3815 28.3962 76.3815 27.7914L76.4243 20.1969C76.3815 19.4716 76.2677 18.9454 76.0792 18.6182C75.8909 18.2913 75.5957 18.1276 75.1903 18.1276L74.3333 18.1704V17.4662C74.5931 17.4771 75.0304 17.4983 75.6524 17.5338C76.2749 17.5694 76.7654 17.5981 77.1317 17.6158C78.1556 17.5588 78.8953 17.5089 79.3469 17.4662C79.5995 17.4378 79.7948 17.4238 79.9407 17.4238C80.5628 17.4238 81.1423 17.5694 81.6755 17.8574C82.2125 18.1491 82.6355 18.5436 82.9484 19.038C83.2652 19.5358 83.4213 20.076 83.4213 20.6664C83.4213 21.7616 83.1087 22.6929 82.4795 23.4574C81.8497 24.2217 80.9573 24.6129 79.7948 24.6345C79.7377 24.6057 79.6739 24.5952 79.6028 24.5952Z" fill="#1A1A18"/>
<path d="M91.8908 29.2885C92.2926 29.157 92.6551 29.0643 92.9786 29.0111L93.2348 29.4984C92.5202 29.6548 92.0152 29.7897 91.7233 29.9001C91.4285 30.0105 90.9592 30.238 90.3122 30.5865C90.2872 30.6148 90.2267 30.6255 90.1414 30.6255C90.0846 30.6255 90.0597 30.5437 90.0597 30.3729C90.2162 29.388 90.3193 28.6665 90.3688 28.2183C90.4153 27.7669 90.4364 27.2333 90.4364 26.6184V25.5303L88.6054 28.4923C88.2463 29.086 87.7984 29.5765 87.2542 29.9639C86.7103 30.3517 86.1558 30.5437 85.5938 30.5437C84.7868 30.5044 84.3813 29.7364 84.3813 28.236C84.4277 27.3508 84.6515 26.4229 85.0604 25.4451C85.4694 24.4707 85.9706 23.5674 86.5643 22.7394C87.1619 21.9144 87.77 21.2424 88.3922 20.7302C89.0143 20.2185 89.5403 19.9622 89.9708 19.9622C90.0986 19.9622 90.2444 19.9909 90.4043 20.0476C90.5646 20.1047 90.6995 20.1331 90.8027 20.1331L92.3172 19.9622C92.2427 20.8584 92.1252 22.0885 91.9759 23.6529C91.8232 25.2173 91.7234 26.2627 91.6774 26.7855C91.6312 27.3115 91.6028 27.8094 91.5884 28.2826C91.6312 28.9507 91.7306 29.2885 91.8908 29.2885ZM90.184 20.8372C90.1202 20.7945 90.0419 20.7729 89.9494 20.7729C89.6435 20.7729 89.2667 20.9721 88.8223 21.3666C88.3744 21.7616 87.9334 22.2877 87.4926 22.9455C87.0554 23.6035 86.6819 24.3214 86.3795 25.1034C86.0775 25.8858 85.9034 26.6394 85.8569 27.3652C85.8569 27.4789 85.8391 27.5817 85.8074 27.6672C85.8746 28.5312 86.1947 28.9651 86.7707 28.9651C87.2435 28.9507 87.7274 28.6415 88.2179 28.0405C88.7119 27.4363 89.1563 26.7109 89.5547 25.8574C89.9531 25.0041 90.2623 24.204 90.4792 23.4609C90.6074 23.0913 90.6712 22.5969 90.6712 21.9892C90.6712 21.3666 90.5075 20.9826 90.184 20.8372Z" fill="#1A1A18"/>
<path d="M96.1787 29.5409L98.1413 29.157V30.0705C96.8435 30.117 95.6061 30.3728 94.4294 30.8423C94.479 30.1736 94.5145 29.5126 94.5395 28.8546C94.5644 28.197 94.5928 27.2725 94.6283 26.0778C94.6676 24.8869 94.7065 23.877 94.7458 23.0519C94.7885 22.2273 94.8453 21.4199 94.9201 20.6235C95.0233 19.557 95.1261 18.6219 95.2221 17.8218C95.3219 17.0183 95.4284 16.2609 95.5456 15.5394C95.6632 14.8209 95.8018 14.0638 95.9584 13.2671C96.1148 12.4707 96.3103 11.5606 96.5449 10.5367H98.8879V11.1694C98.8205 11.2155 98.7031 11.301 98.536 11.4291C98.3689 11.5573 98.1664 11.852 97.9279 12.318C97.6932 12.7871 97.4588 13.4984 97.2275 14.4584C97.0604 15.1481 96.9145 16.2291 96.7868 17.7008C96.6587 19.173 96.5521 20.7944 96.4595 22.5614C96.3707 24.3286 96.2996 25.8963 96.2532 27.2691C96.2036 28.6377 96.1787 29.3951 96.1787 29.5409Z" fill="#1A1A18"/>
<path d="M106.76 29.2885C107.162 29.157 107.524 29.0643 107.848 29.0111L108.104 29.4984C107.39 29.6548 106.885 29.7897 106.593 29.9001C106.298 30.0105 105.829 30.238 105.182 30.5865C105.157 30.6148 105.096 30.6255 105.011 30.6255C104.954 30.6255 104.929 30.5437 104.929 30.3729C105.086 29.388 105.189 28.6665 105.238 28.2183C105.285 27.7669 105.306 27.2333 105.306 26.6184V25.5303L103.475 28.4923C103.116 29.086 102.668 29.5765 102.124 29.9639C101.58 30.3517 101.025 30.5437 100.463 30.5437C99.6563 30.5044 99.2507 29.7364 99.2507 28.236C99.2973 27.3508 99.521 26.4229 99.9299 25.4451C100.339 24.4707 100.84 23.5674 101.434 22.7394C102.031 21.9144 102.64 21.2424 103.262 20.7302C103.884 20.2185 104.41 19.9622 104.84 19.9622C104.968 19.9622 105.114 19.9909 105.274 20.0476C105.434 20.1047 105.569 20.1331 105.672 20.1331L107.187 19.9622C107.112 20.8584 106.995 22.0885 106.845 23.6529C106.693 25.2173 106.593 26.2627 106.547 26.7855C106.501 27.3115 106.472 27.8094 106.458 28.2826C106.501 28.9507 106.6 29.2885 106.76 29.2885ZM105.053 20.8372C104.99 20.7945 104.911 20.7729 104.819 20.7729C104.513 20.7729 104.136 20.9721 103.692 21.3666C103.244 21.7616 102.803 22.2877 102.362 22.9455C101.925 23.6035 101.551 24.3214 101.249 25.1034C100.947 25.8858 100.773 26.6394 100.726 27.3652C100.726 27.4789 100.708 27.5817 100.677 27.6672C100.744 28.5312 101.064 28.9651 101.64 28.9651C102.113 28.9507 102.597 28.6415 103.087 28.0405C103.581 27.4363 104.026 26.7109 104.424 25.8574C104.822 25.0041 105.132 24.204 105.349 23.4609C105.477 23.0913 105.541 22.5969 105.541 21.9892C105.541 21.3666 105.377 20.9826 105.053 20.8372Z" fill="#1A1A18"/>
<path d="M112.541 20.7091C111.791 20.7268 111.237 21.2601 110.877 22.3054C110.518 23.3509 110.326 24.5419 110.301 25.8753C110.301 28.2043 110.913 29.3703 112.136 29.3703C112.78 29.3169 113.288 29.1144 113.665 28.7515C114.038 28.3924 114.302 28.0228 114.451 27.6351C114.6 27.2511 114.675 26.9989 114.675 26.8743H115.254C115.254 27.1017 115.158 27.5035 114.966 28.0867C114.774 28.6699 114.412 29.2246 113.875 29.7542C113.338 30.2806 112.591 30.5437 111.627 30.5437C110.924 30.5294 110.351 30.3552 109.91 30.0244C109.473 29.6904 109.156 29.2564 108.968 28.7197C108.78 28.1827 108.676 27.5817 108.659 26.9134C108.659 26.1311 108.734 25.3454 108.883 24.5596C109.032 23.7776 109.285 23.0342 109.636 22.3338C109.992 21.6297 110.465 21.0681 111.059 20.6414C111.652 20.2185 112.371 20.0049 113.206 20.0049C113.75 20.0049 114.319 20.1685 114.909 20.4958V23.038H113.63V22.4154C113.63 21.2778 113.267 20.7091 112.541 20.7091Z" fill="#1A1A18"/>
<path d="M122.337 26.7427L122.998 26.8315C122.998 27.1267 122.909 27.5605 122.735 28.1295C122.558 28.702 122.199 29.2459 121.651 29.7648C121.103 30.2841 120.328 30.5437 119.326 30.5437C118.6 30.5437 118.003 30.3552 117.533 29.9745C117.065 29.5977 116.723 29.0928 116.51 28.4566C116.296 27.8236 116.189 27.1194 116.189 26.3409C116.232 25.5234 116.321 24.7555 116.46 24.0407C116.599 23.3295 116.815 22.6645 117.103 22.0496C117.395 21.4309 117.779 20.9365 118.259 20.5597C118.735 20.1829 119.311 19.9837 119.987 19.9622C120.574 19.9622 121.047 20.0797 121.409 20.3179C121.768 20.556 122.028 20.8799 122.184 21.2851C122.341 21.6903 122.419 22.1524 122.419 22.6717C122.419 23.1162 122.333 23.71 122.163 24.4603C120.766 24.9259 119.29 25.2495 117.743 25.4236C117.737 25.4236 117.708 25.6726 117.662 26.1705C117.743 28.3534 118.49 29.4767 119.902 29.541C120.335 29.541 120.741 29.4201 121.118 29.1748C121.491 28.9295 121.79 28.6022 122.007 28.197C122.227 27.7914 122.337 27.3652 122.337 26.9169V26.7427ZM117.829 24.7373L119.71 24.4603C120.154 24.3748 120.502 24.1473 120.748 23.7776C120.993 23.4115 121.118 22.9847 121.118 22.4975C121.118 21.9465 121.05 21.4804 120.911 21.1036C120.776 20.7268 120.467 20.5382 119.987 20.5382C119.272 20.556 118.735 21.047 118.38 22.0138C118.021 22.9775 117.825 23.8521 117.786 24.6345C117.804 24.6556 117.814 24.6805 117.821 24.6984C117.825 24.7161 117.829 24.7305 117.829 24.7373Z" fill="#1A1A18"/>
<path d="M124.748 27.9196C124.748 28.332 124.833 28.6911 125 29.0077C125.171 29.3207 125.402 29.5623 125.693 29.7293C125.985 29.8967 126.301 29.9817 126.643 29.9889C127.197 29.9889 127.67 29.8291 128.061 29.5055C128.452 29.1855 128.648 28.7409 128.648 28.1755C128.648 27.7276 128.541 27.3615 128.332 27.07C128.122 26.7783 127.802 26.4796 127.368 26.1705L126.237 25.3382C125.413 24.6627 124.982 23.8521 124.94 22.9065C124.94 22.078 125.171 21.406 125.636 20.8799C126.102 20.3572 126.785 20.0654 127.688 20.0049C127.948 20.0049 128.253 20.0442 128.606 20.1225C128.961 20.2006 129.132 20.2396 129.117 20.2396V22.4975H128.477V21.9249C128.477 21.573 128.389 21.2601 128.218 20.9898C128.047 20.7162 127.805 20.5809 127.496 20.5809C127.158 20.5809 126.863 20.7445 126.611 21.0753C126.362 21.4022 126.237 21.7329 126.237 22.0708C126.284 22.9136 126.724 23.6424 127.56 24.2467L128.524 24.9081C129.434 25.534 129.91 26.3304 129.95 27.3009C129.95 27.7276 129.818 28.1971 129.555 28.7088C129.295 29.221 128.911 29.6548 128.41 30.0105C127.909 30.3657 127.318 30.5437 126.643 30.5437H126.6C125.946 30.5437 125.384 30.4545 124.911 30.2769C124.442 30.1027 124.115 29.9535 123.933 29.8363L124.189 26.6184L124.851 26.7037C124.84 26.7177 124.826 26.8602 124.804 27.1233C124.787 27.3864 124.769 27.6532 124.748 27.9196Z" fill="#1A1A18"/>
<path fill-rule="evenodd" clip-rule="evenodd" d="M119.752 65.5016C128.238 65.5016 135.117 66.9348 135.117 68.703C135.117 70.4706 128.238 71.9038 119.752 71.9038C111.267 71.9038 104.387 70.4706 104.387 68.703C104.387 66.9348 111.267 65.5016 119.752 65.5016Z" fill="#D9DADA"/>
<path d="M119.752 65.5016C128.238 65.5016 135.117 66.9348 135.117 68.703C135.117 70.4706 128.238 71.9038 119.752 71.9038C111.267 71.9038 104.387 70.4706 104.387 68.703C104.387 66.9348 111.267 65.5016 119.752 65.5016Z" stroke="#1A1A18" stroke-width="0.288" stroke-miterlimit="22.9256"/>
<path fill-rule="evenodd" clip-rule="evenodd" d="M166.429 126.475C176.897 126.475 185.383 128.845 185.383 131.771C185.383 134.695 176.897 137.066 166.429 137.066C155.961 137.066 147.475 134.695 147.475 131.771C147.475 128.845 155.961 126.475 166.429 126.475Z" fill="#EF7C00"/>
<path d="M166.429 126.475C176.897 126.475 185.383 128.845 185.383 131.771C185.383 134.695 176.897 137.066 166.429 137.066C155.961 137.066 147.475 134.695 147.475 131.771C147.475 128.845 155.961 126.475 166.429 126.475Z" stroke="#1A1A18" stroke-width="0.288" stroke-miterlimit="22.9256"/>
<path fill-rule="evenodd" clip-rule="evenodd" d="M104.067 46.7947H134.848V69.3425H104.067V46.7947Z" fill="#D9DADA"/>
<path fill-rule="evenodd" clip-rule="evenodd" d="M147.08 124.894H185.051V131.212H147.08V124.894Z" fill="#EF7C00"/>
<path fill-rule="evenodd" clip-rule="evenodd" d="M119.458 43.4357C127.944 43.4357 134.823 44.8689 134.823 46.6369C134.823 48.4046 127.944 49.8379 119.458 49.8379C110.973 49.8379 104.094 48.4046 104.094 46.6369C104.094 44.8689 110.973 43.4357 119.458 43.4357Z" fill="#D9DADA"/>
<path d="M119.458 43.4357C127.944 43.4357 134.823 44.8689 134.823 46.6369C134.823 48.4046 127.944 49.8379 119.458 49.8379C110.973 49.8379 104.094 48.4046 104.094 46.6369C104.094 44.8689 110.973 43.4357 119.458 43.4357Z" stroke="#1A1A18" stroke-width="0.288" stroke-miterlimit="22.9256"/>
<path fill-rule="evenodd" clip-rule="evenodd" d="M166.601 121.165C177.069 121.165 185.555 122.933 185.555 125.114C185.555 127.295 177.069 129.063 166.601 129.063C156.133 129.063 147.647 127.295 147.647 125.114C147.647 122.933 156.133 121.165 166.601 121.165Z" fill="#EF7C00"/>
<path d="M166.601 121.165C177.069 121.165 185.555 122.933 185.555 125.114C185.555 127.295 177.069 129.063 166.601 129.063C156.133 129.063 147.647 127.295 147.647 125.114C147.647 122.933 156.133 121.165 166.601 121.165Z" stroke="#1A1A18" stroke-width="0.288" stroke-miterlimit="22.9256"/>
<path d="M95.9393 100.061C96.5251 100.646 97.4749 100.646 98.0607 100.061L107.607 90.5147C108.192 89.9289 108.192 88.9792 107.607 88.3934C107.021 87.8076 106.071 87.8076 105.485 88.3934L97 96.8787L88.5147 88.3934C87.9289 87.8076 86.9792 87.8076 86.3934 88.3934C85.8076 88.9792 85.8076 89.9289 86.3934 90.5147L95.9393 100.061ZM95.5 76V99H98.5V76H95.5Z" fill="black"/>
<path fill-rule="evenodd" clip-rule="evenodd" d="M166.294 120.731C176.762 120.731 185.247 122.499 185.247 124.68C185.247 126.861 176.762 128.628 166.294 128.628C155.826 128.628 147.34 126.861 147.34 124.68C147.34 122.499 155.826 120.731 166.294 120.731Z" fill="#AD4482"/>
<path d="M166.294 120.731C176.762 120.731 185.247 122.499 185.247 124.68C185.247 126.861 176.762 128.628 166.294 128.628C155.826 128.628 147.34 126.861 147.34 124.68C147.34 122.499 155.826 120.731 166.294 120.731Z" stroke="#1A1A18" stroke-width="0.288" stroke-miterlimit="22.9256"/>
<path fill-rule="evenodd" clip-rule="evenodd" d="M146.945 119.151H184.915V125.469H146.945V119.151Z" fill="#AD4482"/>
<path fill-rule="evenodd" clip-rule="evenodd" d="M166.465 112.216C176.933 112.216 185.419 114.701 185.419 117.768C185.419 120.834 176.933 123.32 166.465 123.32C155.997 123.32 147.512 120.834 147.512 117.768C147.512 114.701 155.997 112.216 166.465 112.216Z" fill="#AD4482"/>
<path d="M166.465 112.216C176.933 112.216 185.419 114.701 185.419 117.768C185.419 120.834 176.933 123.32 166.465 123.32C155.997 123.32 147.512 120.834 147.512 117.768C147.512 114.701 155.997 112.216 166.465 112.216Z" stroke="#1A1A18" stroke-width="0.288" stroke-miterlimit="22.9256"/>
<path d="M45.5974 51.1807C45.7814 51.3488 46.5494 51.7165 47.9014 52.2688C49.2612 52.8127 50.5251 53.4367 51.6934 54.1246C52.8612 54.8207 53.893 55.7728 54.7812 56.9887C55.669 58.2046 56.1172 59.6767 56.1172 61.4126C55.9891 64.1729 55.2291 66.5085 53.8291 68.4127C52.4212 70.3164 50.6691 71.7405 48.5571 72.6767C46.4451 73.6045 44.3092 74.0926 42.1572 74.1326L42.4852 72.4526C44.0451 72.4526 45.6291 72.1087 47.2372 71.4124C48.8451 70.7246 50.1811 69.7567 51.2292 68.5087C52.2772 67.2607 52.8052 65.8607 52.8052 64.2926C52.8052 62.3326 52.3491 60.7648 51.4291 59.5885C50.5093 58.4128 49.1014 57.3568 47.1892 56.4206C45.1411 55.3646 43.8531 54.6367 43.3334 54.2288C42.8134 53.8207 42.5332 53.2688 42.4852 52.5727C42.6134 51.7645 42.6852 51.1727 42.6852 50.8046C43.2854 44.4769 43.6372 41.2608 43.7332 41.1566H55.0612V44.8046H45.1174C44.7651 47.0447 44.5731 48.3566 44.5414 48.7406C44.6611 49.9486 45.0134 50.7565 45.5974 51.1807Z" fill="#1A1A18"/>
<path d="M58.4133 53.2526H67.6372V44.0365H69.8853V53.2526H79.1652V55.6046H69.9892V64.9646H67.6372V55.6046H58.4133V53.2526Z" fill="#1A1A18"/>
<path d="M95.0769 47.6287H89.5169L88.7087 53.4446H94.2209L95.0769 47.6287ZM100.797 55.7965H96.1809L94.9889 64.9646H92.5409L93.8369 55.7965H88.4129L87.1089 64.9646H84.6609L85.8689 55.7965H81.4529V53.5406H86.2529L87.1089 47.7326H82.6049V45.3805H87.4049L88.5969 36.6367H91.0529L89.8049 45.3805H95.3729L96.5645 36.6367H99.0125L97.7729 45.3805H101.805V47.7326H97.4369L96.5645 53.5406H100.797V55.7965Z" fill="#1A1A18"/>
<path d="M65.9637 115.514L64.1798 115.427V113.642C65.9879 113.874 68.0435 114.018 70.3638 114.074C72.7475 114.018 74.8675 113.874 76.7078 113.642V115.514H74.5958C73.6196 115.514 72.9638 115.73 72.6278 116.162C72.2918 116.594 72.0998 117.338 72.0518 118.403L71.3718 130.882C71.3718 131.45 71.3477 131.946 71.2838 132.37C71.4035 134.315 72.0597 135.282 73.2518 135.282H75.8997V136.97C73.7718 136.778 71.5797 136.682 69.3158 136.682C67.0835 136.682 64.8597 136.778 62.6438 136.97V135.194H64.9958C65.7558 135.194 66.3239 135.138 66.6837 135.026C67.0518 134.914 67.3478 134.634 67.5798 134.162C67.8035 133.698 67.9559 132.923 68.0198 131.842L68.8358 118.49C68.8358 117.274 68.6358 116.483 68.2439 116.13C67.8437 115.771 67.0835 115.562 65.9637 115.514Z" fill="#1A1A18"/>
<path d="M93.4117 125.546H78.7717V122.426H93.4117V125.546Z" fill="#1A1A18"/>
<path d="M104.028 133.514L118.276 135.002L117.66 137.066C114.411 136.874 110.804 136.77 106.852 136.77C102.219 136.77 98.6195 136.938 96.0597 137.258L95.7236 134.522C96.2675 134.522 96.6678 134.554 96.9158 134.618C97.2359 134.554 97.6679 134.522 98.2196 134.522C99.6596 134.37 101.004 133.858 102.244 132.994C103.492 132.13 104.564 131.058 105.484 129.778C106.396 128.498 107.1 127.162 107.595 125.778C108.092 124.386 108.34 123.146 108.34 122.042C108.34 120.538 107.979 119.25 107.252 118.154C106.532 117.067 105.516 116.522 104.212 116.522C102.876 116.618 101.804 117.155 100.996 118.13C100.188 119.114 99.7715 120.45 99.7478 122.138C99.7799 122.395 99.7958 122.779 99.7958 123.282H98.4038C98.4038 120.419 99.0198 118.05 100.252 116.186C101.476 114.323 103.364 113.346 105.892 113.258C107.012 113.258 108.02 113.53 108.899 114.066C109.772 114.602 110.468 115.362 110.971 116.33C111.476 117.307 111.748 118.411 111.796 119.642C111.796 121.058 111.572 122.378 111.132 123.602C110.692 124.834 110.1 125.986 109.364 127.074C108.628 128.17 107.78 129.258 106.812 130.346C105.852 131.434 104.924 132.49 104.028 133.514Z" fill="#1A1A18"/>
<path fill-rule="evenodd" clip-rule="evenodd" d="M13.8069 115.646H60.0112V137.066H13.8069V115.646Z" fill="#D7B469"/>
<path fill-rule="evenodd" clip-rule="evenodd" d="M38.9067 105.429H60.1504V116.139H38.9067V105.429Z" fill="#D7B469"/>
<path fill-rule="evenodd" clip-rule="evenodd" d="M49.8274 92.9671L44.5787 99.1405L39.3301 105.314H49.8274H60.3246L55.0761 99.1405L49.8274 92.9671Z" fill="#D7B469"/>
<path fill-rule="evenodd" clip-rule="evenodd" d="M128.545 108.652L125.321 120.084L114.705 119.505L123.782 126.348L119.991 137.066L128.825 129.863L137.098 137.066L133.481 125.772L142.385 119.505L131.315 119.729L128.545 108.652Z" fill="#D9DADA"/>
<path d="M128.545 108.652L125.321 120.084L114.705 119.505L123.782 126.348L119.991 137.066L128.825 129.863L137.098 137.066L133.481 125.772L142.385 119.505L131.315 119.729L128.545 108.652Z" stroke="#1A1A18" stroke-width="0.288" stroke-miterlimit="22.9256"/>
<path d="M10.5303 101.47C10.2374 101.177 9.76256 101.177 9.46967 101.47L4.6967 106.243C4.40381 106.536 4.40381 107.01 4.6967 107.303C4.98959 107.596 5.46447 107.596 5.75736 107.303L10 103.061L14.2426 107.303C14.5355 107.596 15.0104 107.596 15.3033 107.303C15.5962 107.01 15.5962 106.536 15.3033 106.243L10.5303 101.47ZM10.75 133L10.75 131.45L9.25 131.45L9.25 133L10.75 133ZM10.75 128.35L10.75 125.25L9.25 125.25L9.25 128.35L10.75 128.35ZM10.75 122.15L10.75 119.05L9.25 119.05L9.25 122.15L10.75 122.15ZM10.75 115.95L10.75 112.85L9.25 112.85L9.25 115.95L10.75 115.95ZM10.75 109.75L10.75 106.65L9.25 106.65L9.25 109.75L10.75 109.75ZM10.75 103.55L10.75 102L9.25 102L9.25 103.55L10.75 103.55ZM11.0607 100.939C10.4749 100.354 9.52513 100.354 8.93934 100.939L-0.606601 110.485C-1.19239 111.071 -1.19239 112.021 -0.606601 112.607C-0.0208142 113.192 0.928933 113.192 1.51472 112.607L10 104.121L18.4853 112.607C19.0711 113.192 20.0208 113.192 20.6066 112.607C21.1924 112.021 21.1924 111.071 20.6066 110.485L11.0607 100.939ZM11.5 133L11.5 131.45L8.5 131.45L8.5 133L11.5 133ZM11.5 128.35L11.5 125.25L8.5 125.25L8.5 128.35L11.5 128.35ZM11.5 122.15L11.5 119.05L8.5 119.05L8.5 122.15L11.5 122.15ZM11.5 115.95L11.5 112.85L8.5 112.85L8.5 115.95L11.5 115.95ZM11.5 109.75L11.5 106.65L8.5 106.65L8.5 109.75L11.5 109.75ZM11.5 103.55L11.5 102L8.5 102L8.5 103.55L11.5 103.55Z" fill="black"/>
<path d="M185.544 100.516C185.829 100.215 185.817 99.7404 185.516 99.4555L180.616 94.8133C180.315 94.5284 179.84 94.5412 179.555 94.8419C179.27 95.1426 179.283 95.6173 179.584 95.9022L183.94 100.029L179.813 104.384C179.528 104.685 179.541 105.16 179.842 105.445C180.143 105.73 180.617 105.717 180.902 105.416L185.544 100.516ZM147.456 100.484C147.171 100.785 147.183 101.26 147.484 101.544L152.384 106.187C152.685 106.472 153.16 106.459 153.445 106.158C153.73 105.857 153.717 105.383 153.416 105.098L149.06 100.971L153.187 96.6156C153.472 96.3149 153.459 95.8402 153.158 95.5554C152.857 95.2705 152.383 95.2833 152.098 95.584L147.456 100.484ZM184.98 99.2503L183.438 99.2919L183.479 100.791L185.02 100.75L184.98 99.2503ZM180.355 99.3753L177.271 99.4586L177.312 100.958L180.395 100.875L180.355 99.3753ZM174.188 99.5419L171.105 99.6253L171.145 101.125L174.229 101.041L174.188 99.5419ZM168.021 99.7086L164.938 99.7919L164.979 101.291L168.062 101.208L168.021 99.7086ZM161.855 99.8753L158.771 99.9586L158.812 101.458L161.895 101.375L161.855 99.8753ZM155.688 100.042L152.605 100.125L152.645 101.625L155.729 101.541L155.688 100.042ZM149.521 100.209L147.98 100.25L148.02 101.75L149.562 101.708L149.521 100.209ZM186.089 101.032C186.659 100.43 186.633 99.4808 186.032 98.9111L176.231 89.6265C175.63 89.0568 174.68 89.0824 174.111 89.6838C173.541 90.2852 173.567 91.2346 174.168 91.8044L182.879 100.057L174.627 108.769C174.057 109.37 174.082 110.32 174.684 110.889C175.285 111.459 176.235 111.433 176.804 110.832L186.089 101.032ZM146.911 99.9684C146.341 100.57 146.367 101.519 146.968 102.089L156.769 111.373C157.37 111.943 158.32 111.918 158.889 111.316C159.459 110.715 159.433 109.765 158.832 109.196L150.121 100.943L158.373 92.2313C158.943 91.6299 158.918 90.6805 158.316 90.1107C157.715 89.541 156.765 89.5666 156.196 90.168L146.911 99.9684ZM184.959 98.5005L183.418 98.5422L183.499 101.541L185.041 101.499L184.959 98.5005ZM180.334 98.6255L177.251 98.7089L177.332 101.708L180.416 101.624L180.334 98.6255ZM174.168 98.7922L171.084 98.8755L171.166 101.874L174.249 101.791L174.168 98.7922ZM168.001 98.9589L164.918 99.0422L164.999 102.041L168.082 101.958L168.001 98.9589ZM161.834 99.1255L158.751 99.2089L158.832 102.208L161.916 102.124L161.834 99.1255ZM155.668 99.2922L152.584 99.3755L152.666 102.374L155.749 102.291L155.668 99.2922ZM149.501 99.4589L147.959 99.5005L148.041 102.499L149.582 102.458L149.501 99.4589Z" fill="black"/>
<path d="M159.121 42L165.681 45.5786L172.242 49.1569L165.681 53.2358L159.181 56.7358L152.561 52.7358L146 49L152.561 45.5786L159.121 42Z" fill="#D7B469" stroke="#1A1A18" stroke-width="0.288" stroke-miterlimit="22.9256"/>
<path d="M146.54 63.6996L146.361 56.468L146.181 49.2358L152.681 52.7358L159.181 56.7358V63.7358V71.2358L152.861 67.4677L146.54 63.6996Z" fill="#D7B469" stroke="#1A1A18" stroke-width="0.288" stroke-miterlimit="22.9256"/>
<path d="M159.181 56.7358L165.861 53.0039L172.181 49.2358L172.002 56.4681L171.822 63.7001L165.502 67.4677L159.181 71.2358V64.2358V56.7358Z" fill="#D7B469" stroke="#1A1A18" stroke-width="0.288" stroke-miterlimit="22.9256"/>
</g>
<defs>
<clipPath id="clip0_2_22765">
<rect width="1122.52" height="1587.4" fill="white" transform="translate(-443 -508)"/>
</clipPath>
</defs>
</svg>
