<svg width="96" height="48" viewBox="0 0 96 48" fill="none" xmlns="http://www.w3.org/2000/svg">
<path d="M-0.29541 0.234007H95.7046V48.234H-0.29541V0.234007Z" fill="#A60C0C" stroke="#1A1A18" stroke-width="0.288" stroke-miterlimit="22.9256"/>
<path d="M14.9921 17.0216C14.0964 17.0216 13.2965 17.2113 12.5996 17.5937C11.8997 17.9732 11.352 18.493 10.957 19.1524C10.5621 19.809 10.338 20.5429 10.285 21.3521C10.285 22.3008 10.5216 23.1815 10.9945 23.9868C11.4702 24.796 12.0988 25.4336 12.8861 25.9065C13.67 26.3793 14.5162 26.622 15.4214 26.6344C15.4682 26.6095 15.5302 26.5973 15.6081 26.5973C16.2212 26.5785 16.731 26.5225 17.1388 26.4292C17.5493 26.3328 17.8948 26.1741 18.1809 25.9533C18.4673 25.7292 18.7036 25.4152 18.8902 25.0108L19.5437 23.6104L20.1594 23.9434L18.439 27.3099C18.2213 27.7918 17.058 28.0344 14.9486 28.0344C13.7882 28.0128 12.7524 27.7328 11.8437 27.1945C10.9352 26.6533 10.2321 25.9315 9.73128 25.0232C9.23048 24.1147 8.97852 23.1221 8.97852 22.0457C8.99092 20.9757 9.27105 19.9892 9.81519 19.0935C10.3599 18.1973 11.0938 17.488 12.0149 16.9652C12.9356 16.4425 13.9281 16.1814 14.989 16.1814C15.3031 16.1814 15.6176 16.2063 15.9286 16.2563C16.2426 16.3057 16.6441 16.3806 17.1358 16.483C17.6301 16.5858 18.0036 16.6572 18.2617 16.6976C18.5199 16.7381 18.8064 16.7571 19.1144 16.7571V19.3547H18.5169C18.5108 19.3143 18.4858 19.165 18.436 18.9068C18.3865 18.6452 18.2586 18.3776 18.0534 18.098C17.8482 17.8179 17.4933 17.5719 16.9925 17.3572C16.4918 17.143 15.8228 17.0307 14.9921 17.0216Z" fill="white"/>
<path d="M20.7007 24.9329C20.7162 23.7756 20.8375 22.7456 21.0711 21.8404C21.3012 20.9353 21.7396 20.1854 22.3837 19.5913C23.0277 18.9968 23.9299 18.689 25.0905 18.6641C25.5509 18.6641 25.9304 18.8508 26.2229 19.2273C26.5185 19.6004 26.7332 20.0732 26.8636 20.6428C26.9943 21.2089 27.0692 21.8 27.0847 22.4126C27.0847 23.4365 26.9569 24.3602 26.7052 25.191C26.4501 26.0217 26.0297 26.6904 25.4451 27.1976C24.86 27.7048 24.095 27.9598 23.149 27.9598H22.7945C22.3217 27.904 21.9359 27.7917 21.6372 27.6174C21.3387 27.4466 21.1081 27.148 20.9433 26.7277C20.7816 26.3078 20.7007 25.7073 20.7007 24.9329ZM22.138 24.0927C22.138 24.7027 22.1691 25.2255 22.2313 25.6668C22.2937 26.1056 22.4431 26.4881 22.6792 26.812C22.9159 27.1321 23.2733 27.3098 23.7465 27.3438C24.4776 27.3438 25.0003 26.9395 25.3113 26.1336C25.6224 25.3279 25.7781 24.3542 25.7781 23.2185V22.9542C25.7781 21.9928 25.6288 21.1465 25.3332 20.4156C25.0377 19.6846 24.5524 19.3172 23.874 19.3172C23.457 19.3392 23.1211 19.6253 22.866 20.1789C22.6108 20.7326 22.4305 21.3706 22.3247 22.0986C22.2189 22.8234 22.1565 23.4891 22.138 24.0927Z" fill="white"/>
<path d="M33.7675 28.0717L33.472 27.8446C33.9042 26.2703 34.1469 23.7317 34.1968 20.2318C33.3317 21.2587 32.7436 21.9678 32.4325 22.3631C32.1185 22.755 31.7885 23.2309 31.4404 23.7941C31.092 24.3542 30.7995 24.9638 30.5599 25.6263C30.3172 26.2859 30.1493 27.0142 30.0527 27.8106H28.9142L29.359 19.8929L27.9062 20.2318V19.5009C29.0261 19.5009 30.0341 19.2114 30.9268 18.6267L30.2952 24.5594C30.6812 23.8345 31.0825 23.1655 31.4964 22.5498C31.9133 21.9367 32.3672 21.3362 32.8589 20.7485C33.3472 20.1603 33.9198 19.5227 34.5698 18.8319H35.5934L35.1485 26.7466L36.4925 26.5785V27.2289C35.5624 27.2629 34.6541 27.543 33.7675 28.0717Z" fill="white"/>
<path d="M38.434 19.5788L37.2207 19.6348V18.832L38.5119 18.8693L38.6207 17.0587L40.0426 16.7227L39.8184 18.8693L41.8 18.832L41.7626 19.5973L39.6318 19.5788C39.5974 19.6563 39.5384 21.4296 39.4635 24.8955C39.4635 25.4431 39.4794 25.86 39.5074 26.1462C39.5354 26.4292 39.6132 26.6624 39.7406 26.8367C39.8714 27.0143 40.0735 27.1072 40.3567 27.1198C40.3751 27.1012 40.3907 27.0887 40.4066 27.0857C40.419 27.0827 40.428 27.0793 40.4344 27.0793C40.8639 27.0388 41.2153 26.8336 41.4859 26.4667C41.7565 26.0963 41.8904 25.5984 41.8904 24.9733H42.4162C42.4162 25.5395 42.3072 26.0403 42.0956 26.4791C41.8839 26.9175 41.5823 27.2535 41.1964 27.4931C40.8109 27.7297 40.3627 27.848 39.8559 27.848C39.448 27.848 39.0904 27.7856 38.7824 27.6579C38.4744 27.5305 38.2598 27.4277 38.1354 27.3439C38.1259 27.1416 38.1135 26.84 38.101 26.4447C38.0886 26.0497 38.076 25.7541 38.0636 25.552C38.0916 24.2669 38.2128 22.2759 38.434 19.5788Z" fill="white"/>
<path d="M44.6534 19.9709L43.0293 20.2663V19.5974C43.7418 19.5164 44.8057 19.2428 46.2212 18.776L45.571 27.8077L44.1462 28.1093C44.4852 26.0873 44.6534 23.8222 44.6534 21.3149V19.9709ZM44.3733 15.4131C44.3733 15.0955 44.4666 14.8034 44.647 14.5419C44.8306 14.2772 45.0702 14.1469 45.3658 14.1469C45.6489 14.1469 45.901 14.2589 46.1188 14.4859C46.3364 14.7131 46.4453 14.9742 46.4453 15.2668C46.4453 15.5872 46.3395 15.8703 46.1312 16.116C45.9196 16.3616 45.6644 16.4895 45.3658 16.4989C45.3658 16.4925 45.3594 16.4895 45.3504 16.4864C45.3409 16.483 45.3345 16.4801 45.3284 16.4801C45.0764 16.4801 44.8586 16.3711 44.6749 16.1535C44.4946 15.9389 44.3918 15.6901 44.3733 15.4131Z" fill="white"/>
<path d="M53.165 28.0717L52.8695 27.8446C53.3019 26.2703 53.5445 23.7317 53.5944 20.2318C52.7293 21.2587 52.1412 21.9678 51.8301 22.3631C51.516 22.755 51.1861 23.2309 50.838 23.7941C50.4894 24.3542 50.1969 24.9638 49.9573 25.6263C49.7146 26.2859 49.5469 27.0142 49.4501 27.8106H48.3117L48.7567 19.8929L47.3037 20.2318V19.5009C48.4236 19.5009 49.4316 19.2114 50.3244 18.6267L49.6928 24.5594C50.0787 23.8345 50.4801 23.1655 50.8938 22.5498C51.3108 21.9367 51.7647 21.3362 52.2564 20.7485C52.7448 20.1603 53.3173 19.5227 53.9674 18.8319H54.9909L54.5461 26.7466L55.8901 26.5785V27.2289C54.96 27.2629 54.0517 27.543 53.165 28.0717Z" fill="white"/>
<path d="M61.4746 19.3577C61.3967 19.3171 61.316 19.2987 61.235 19.2987C60.9674 19.2987 60.6503 19.454 60.2799 19.762C59.9095 20.07 59.5521 20.4899 59.2096 21.0251C58.8645 21.5603 58.5781 22.1794 58.3573 22.8824C58.1332 23.5858 58.0213 24.3137 58.0213 25.0666C58.0213 26.1117 58.2516 26.6343 58.7153 26.6343C58.9764 26.6343 59.3 26.3951 59.6889 25.9158C60.0778 25.4335 60.4573 24.855 60.8212 24.1735C61.1886 23.4925 61.4682 22.8825 61.6614 22.3411C61.8356 21.8434 61.9225 21.2712 61.9225 20.6238C61.9225 19.9083 61.7733 19.4854 61.4746 19.3577ZM61.5865 25.3278V23.8005L60.1646 26.1679C59.8692 26.6718 59.5052 27.0856 59.0728 27.406C58.6374 27.7266 58.1861 27.885 57.7227 27.885C57.3029 27.8634 57.0073 27.6613 56.8297 27.2723C56.6523 26.8865 56.5654 26.4166 56.5654 25.8659C56.6029 25.0915 56.7831 24.2858 57.1066 23.4486C57.4333 22.6087 57.8441 21.8279 58.3418 21.103C58.8395 20.3751 59.3498 19.7934 59.8786 19.3577C60.4044 18.9193 60.8741 18.7011 61.288 18.7011C61.4029 18.7011 61.5366 18.723 61.6864 18.7665C61.8386 18.8103 61.9535 18.8319 62.0378 18.8319L63.1921 18.7011L63.0424 24.2483C63.0054 26.0153 62.8157 27.5615 62.4702 28.887C62.1247 30.2154 61.6209 31.2419 60.958 31.9669C60.2954 32.6918 59.4866 33.0558 58.5256 33.0558C58.0089 33.0558 57.6105 32.9499 57.3307 32.7383C57.0507 32.5266 56.861 32.247 56.7582 31.8985C56.6588 31.5501 56.5994 31.1206 56.5839 30.6105C56.6338 29.9354 56.6554 29.4127 56.6554 29.0423L57.9498 29.1886C57.869 29.3722 57.8066 29.6773 57.7601 30.1033C57.8066 30.6259 57.8939 31.0178 58.0213 31.2794L57.2559 31.3352C57.259 31.3818 57.2809 31.5066 57.3119 31.7054C57.3433 31.9015 57.4487 32.0851 57.6263 32.2561C57.8035 32.4302 58.0927 32.5266 58.4911 32.5515C59.0637 32.5515 59.555 32.3309 59.9594 31.889C60.3638 31.4473 60.6844 30.8655 60.924 30.1501C61.1636 29.4313 61.3314 28.6567 61.4342 27.823C61.5366 26.9923 61.5865 26.1585 61.5865 25.3278Z" fill="white"/>
<path d="M69.4263 24.5595L70.005 24.6374C70.005 24.8955 69.9271 25.275 69.7748 25.7727C69.6191 26.2735 69.3051 26.7498 68.8258 27.2041C68.347 27.6579 67.6686 27.8851 66.7913 27.8851C66.1567 27.8851 65.634 27.7203 65.2235 27.3874C64.8127 27.0578 64.5142 26.6159 64.3274 26.0592C64.1407 25.5051 64.0474 24.8895 64.0474 24.208C64.0847 23.4926 64.1626 22.8206 64.2839 22.195C64.4052 21.573 64.595 20.9913 64.8471 20.4531C65.1022 19.9114 65.4382 19.4791 65.8582 19.1495C66.275 18.8195 66.7788 18.6453 67.3699 18.6269C67.8832 18.6269 68.2971 18.7297 68.6146 18.9378C68.9286 19.1465 69.1558 19.4295 69.2926 19.7841C69.4294 20.1386 69.4978 20.543 69.4978 20.9972C69.4978 21.3862 69.4234 21.9059 69.274 22.5625C68.0514 22.9698 66.7603 23.253 65.4069 23.4052C65.4009 23.4052 65.3759 23.623 65.3354 24.0587C65.4068 25.9688 66.0603 26.9519 67.2955 27.0079C67.675 27.0079 68.0295 26.902 68.3594 26.6874C68.6859 26.4727 68.9471 26.1866 69.1372 25.8321C69.33 25.4771 69.4263 25.1042 69.4263 24.7118V24.5595ZM65.4816 22.8051L67.1272 22.5625C67.5162 22.4875 67.8212 22.2884 68.0359 21.9648C68.2506 21.6443 68.3594 21.2714 68.3594 20.845C68.3594 20.3627 68.3 19.9552 68.1787 19.6254C68.0608 19.2958 67.7898 19.1306 67.3699 19.1306C66.7448 19.1464 66.275 19.5754 65.9639 20.4217C65.6495 21.2649 65.4787 22.0302 65.4443 22.7147C65.4598 22.7333 65.4693 22.7551 65.4753 22.7707C65.4787 22.7862 65.4816 22.7986 65.4816 22.8051Z" fill="white"/>
<path d="M76.6661 28.0717L76.3704 27.8446C76.8028 26.2703 77.0455 23.7317 77.0954 20.2318C76.2303 21.2587 75.6422 21.9678 75.3311 22.3631C75.0171 22.755 74.6871 23.2309 74.339 23.7941C73.9906 24.3542 73.698 24.9638 73.4583 25.6263C73.2158 26.2859 73.0479 27.0142 72.9511 27.8106H71.8127L72.2576 19.8929L70.8047 20.2318V19.5009C71.9246 19.5009 72.9326 19.2114 73.8254 18.6267L73.1938 24.5594C73.5796 23.8345 73.9811 23.1655 74.395 22.5498C74.8118 21.9367 75.2658 21.3362 75.7575 20.7485C76.2458 20.1603 76.8183 19.5227 77.4684 18.8319H78.4919L78.0471 26.7466L79.3911 26.5785V27.2289C78.461 27.2629 77.5527 27.543 76.6661 28.0717Z" fill="white"/>
<path d="M81.3328 19.5788L80.1196 19.6348V18.832L81.4107 18.8693L81.5196 17.0587L82.9415 16.7227L82.7174 18.8693L84.6989 18.832L84.6615 19.5973L82.5306 19.5788C82.4963 19.6563 82.4372 21.4296 82.3624 24.8955C82.3624 25.4431 82.3783 25.86 82.4063 26.1462C82.4343 26.4292 82.5122 26.6624 82.6395 26.8367C82.7703 27.0143 82.9724 27.1072 83.2555 27.1198C83.274 27.1012 83.2895 27.0887 83.3055 27.0857C83.3179 27.0827 83.3269 27.0793 83.3333 27.0793C83.7627 27.0388 84.1143 26.8336 84.3848 26.4667C84.6555 26.0963 84.7892 25.5984 84.7892 24.9733H85.3149C85.3149 25.5395 85.2061 26.0403 84.9945 26.4791C84.7828 26.9175 84.4812 27.2535 84.0953 27.4931C83.7099 27.7297 83.2616 27.848 82.7547 27.848C82.3469 27.848 81.9894 27.7856 81.6814 27.6579C81.3734 27.5305 81.1587 27.4277 81.0343 27.3439C81.0248 27.1416 81.0124 26.84 80.9999 26.4447C80.9875 26.0497 80.975 25.7541 80.9626 25.552C80.9904 24.2669 81.1117 22.2759 81.3328 19.5788Z" fill="white"/>
</svg>
