<svg width="35" height="33" viewBox="0 0 35 33" fill="none" xmlns="http://www.w3.org/2000/svg">
<path d="M444.447 -33.4065V244.156H-287.589V-33.4065H444.447Z" stroke="#1A1A18" stroke-width="2.6664" stroke-miterlimit="22.9256"/>
<path fill-rule="evenodd" clip-rule="evenodd" d="M17.9062 25.5842C27.4438 25.5842 35.1753 27.1947 35.1753 29.1819C35.1753 31.1689 27.4438 32.7797 17.9062 32.7797C8.36817 32.7797 0.636719 31.1689 0.636719 29.1819C0.636719 27.1947 8.36817 25.5842 17.9062 25.5842Z" fill="#D9DADA"/>
<path d="M17.9062 25.5842C27.4438 25.5842 35.1753 27.1947 35.1753 29.1819C35.1753 31.1689 27.4438 32.7797 17.9062 32.7797C8.36817 32.7797 0.636719 31.1689 0.636719 29.1819C0.636719 27.1947 8.36817 25.5842 17.9062 25.5842Z" stroke="#1A1A18" stroke-width="0.288" stroke-miterlimit="22.9256"/>
<path fill-rule="evenodd" clip-rule="evenodd" d="M0.276855 4.55806H34.8731V29.901H0.276855V4.55806Z" fill="#D9DADA"/>
<path fill-rule="evenodd" clip-rule="evenodd" d="M17.5755 0.78304C27.1135 0.78304 34.8448 2.39344 34.8448 4.38078C34.8448 6.36758 27.1135 7.97852 17.5755 7.97852C8.03775 7.97852 0.306396 6.36758 0.306396 4.38078C0.306396 2.39344 8.03775 0.78304 17.5755 0.78304Z" fill="#D9DADA"/>
<path d="M17.5755 0.78304C27.1135 0.78304 34.8448 2.39344 34.8448 4.38078C34.8448 6.36758 27.1135 7.97852 17.5755 7.97852C8.03775 7.97852 0.306396 6.36758 0.306396 4.38078C0.306396 2.39344 8.03775 0.78304 17.5755 0.78304Z" stroke="#1A1A18" stroke-width="0.288" stroke-miterlimit="22.9256"/>
</svg>
