<svg width="312" height="216" viewBox="0 0 312 216" fill="none" xmlns="http://www.w3.org/2000/svg">
<mask id="mask0_2_35103" style="mask-type:luminance" maskUnits="userSpaceOnUse" x="0" y="-1" width="313" height="217">
<path d="M0.20752 187.727V27.8265C0.20752 12.3988 13.2306 -0.223395 29.1476 -0.223395H283.267C299.185 -0.223395 312.208 12.3988 312.208 27.8265V187.727C312.208 203.155 299.185 215.777 283.267 215.777H29.1476C13.2306 215.777 0.20752 203.155 0.20752 187.727Z" fill="white"/>
</mask>
<g mask="url(#mask0_2_35103)">
<path fill-rule="evenodd" clip-rule="evenodd" d="M156.207 107.777L-33.5366 108.361L-33.4932 111.867L156.207 107.777Z" fill="#D09C02"/>
<path fill-rule="evenodd" clip-rule="evenodd" d="M156.207 107.777L-33.5005 111.283L-33.4288 114.204L156.207 107.777Z" fill="#D19C03"/>
<path fill-rule="evenodd" clip-rule="evenodd" d="M156.207 107.777L-33.4429 113.62L-33.3349 116.54L156.207 107.777Z" fill="#D19D05"/>
<path fill-rule="evenodd" clip-rule="evenodd" d="M156.207 107.777L-33.3564 115.956L-33.2128 118.874L156.207 107.777Z" fill="#D19E07"/>
<path fill-rule="evenodd" clip-rule="evenodd" d="M156.208 107.777L-33.2412 118.291L-33.0613 121.207L156.208 107.777Z" fill="#D29F08"/>
<path fill-rule="evenodd" clip-rule="evenodd" d="M156.207 107.777L-33.0977 120.624L-32.8819 123.538L156.207 107.777Z" fill="#D29F0A"/>
<path fill-rule="evenodd" clip-rule="evenodd" d="M156.207 107.777L-32.9248 122.955L-32.6731 125.866L156.207 107.777Z" fill="#D4A10B"/>
<path fill-rule="evenodd" clip-rule="evenodd" d="M156.207 107.777L-32.7236 125.284L-32.436 128.191L156.207 107.777Z" fill="#D4A10C"/>
<path fill-rule="evenodd" clip-rule="evenodd" d="M156.207 107.777L-32.4937 127.61L-32.1705 130.514L156.207 107.777Z" fill="#D4A110"/>
<path fill-rule="evenodd" clip-rule="evenodd" d="M156.208 107.777L-32.2349 129.933L-31.8758 132.833L156.208 107.777Z" fill="#D5A313"/>
<path fill-rule="evenodd" clip-rule="evenodd" d="M156.207 107.777L-31.9478 132.253L-31.5528 135.148L156.207 107.777Z" fill="#D5A317"/>
<path fill-rule="evenodd" clip-rule="evenodd" d="M156.207 107.777L-31.6318 134.569L-31.2013 137.459L156.207 107.777Z" fill="#D5A41A"/>
<path fill-rule="evenodd" clip-rule="evenodd" d="M156.207 107.777L-31.2876 136.881L-30.8216 139.766L156.207 107.777Z" fill="#D6A41E"/>
<path fill-rule="evenodd" clip-rule="evenodd" d="M156.208 107.777L-30.9146 139.189L-30.4131 142.068L156.208 107.777Z" fill="#D6A521"/>
<path fill-rule="evenodd" clip-rule="evenodd" d="M156.207 107.777L-30.5137 141.492L-29.977 144.364L156.207 107.777Z" fill="#D7A624"/>
<path fill-rule="evenodd" clip-rule="evenodd" d="M156.207 107.777L-30.084 143.79L-29.5117 146.655L156.207 107.777Z" fill="#D7A627"/>
<path fill-rule="evenodd" clip-rule="evenodd" d="M156.207 107.777L-29.626 146.082L-29.0186 148.94L156.207 107.777Z" fill="#D7A72A"/>
<path fill-rule="evenodd" clip-rule="evenodd" d="M156.207 107.777L-29.1401 148.368L-28.4976 151.219L156.207 107.777Z" fill="#D8A82C"/>
<path fill-rule="evenodd" clip-rule="evenodd" d="M156.207 107.777L-28.626 150.649L-27.9482 153.491L156.207 107.777Z" fill="#D8A82F"/>
<path fill-rule="evenodd" clip-rule="evenodd" d="M156.207 107.777L-28.084 152.922L-27.3712 155.756L156.207 107.777Z" fill="#D8A931"/>
<path fill-rule="evenodd" clip-rule="evenodd" d="M156.207 107.777L-27.5137 155.19L-26.7661 158.014L156.207 107.777Z" fill="#D9AA33"/>
<path fill-rule="evenodd" clip-rule="evenodd" d="M156.208 107.777L-26.9155 157.45L-26.1331 160.264L156.208 107.777Z" fill="#D9AB36"/>
<path fill-rule="evenodd" clip-rule="evenodd" d="M156.207 107.777L-26.29 159.702L-25.4728 162.507L156.207 107.777Z" fill="#D9AB38"/>
<path fill-rule="evenodd" clip-rule="evenodd" d="M156.208 107.777L-25.6362 161.946L-24.7846 164.741L156.208 107.777Z" fill="#DAAD3A"/>
<path fill-rule="evenodd" clip-rule="evenodd" d="M156.207 107.777L-24.9551 164.182L-24.0695 166.967L156.207 107.777Z" fill="#DAAD3C"/>
<path fill-rule="evenodd" clip-rule="evenodd" d="M156.208 107.777L-24.2461 166.41L-23.3261 169.183L156.208 107.777Z" fill="#DBAE3F"/>
<path fill-rule="evenodd" clip-rule="evenodd" d="M156.207 107.777L-23.5103 168.628L-22.5563 171.39L156.207 107.777Z" fill="#DBAF41"/>
<path fill-rule="evenodd" clip-rule="evenodd" d="M156.207 107.777L-22.7471 170.838L-21.7591 173.588L156.207 107.777Z" fill="#DBAF43"/>
<path fill-rule="evenodd" clip-rule="evenodd" d="M156.207 107.777L-21.9565 173.038L-20.9345 175.775L156.207 107.777Z" fill="#DCB045"/>
<path fill-rule="evenodd" clip-rule="evenodd" d="M156.207 107.777L-21.1392 175.228L-20.0836 177.952L156.207 107.777Z" fill="#DCB147"/>
<path fill-rule="evenodd" clip-rule="evenodd" d="M156.207 107.777L-20.2949 177.407L-19.2056 180.119L156.207 107.777Z" fill="#DCB149"/>
<path fill-rule="evenodd" clip-rule="evenodd" d="M156.208 107.777L-19.4233 179.576L-18.3008 182.274L156.208 107.777Z" fill="#DEB24B"/>
<path fill-rule="evenodd" clip-rule="evenodd" d="M156.208 107.777L-18.5254 181.735L-17.3699 184.419L156.208 107.777Z" fill="#DEB34D"/>
<path fill-rule="evenodd" clip-rule="evenodd" d="M156.207 107.777L-17.6011 183.881L-16.4128 186.551L156.207 107.777Z" fill="#DFB44F"/>
<path fill-rule="evenodd" clip-rule="evenodd" d="M156.207 107.777L-16.6504 186.017L-15.4288 188.672L156.207 107.777Z" fill="#DFB551"/>
<path fill-rule="evenodd" clip-rule="evenodd" d="M156.207 107.777L-15.6733 188.141L-14.4194 190.78L156.207 107.777Z" fill="#DFB553"/>
<path fill-rule="evenodd" clip-rule="evenodd" d="M156.207 107.777L-14.6704 190.252L-13.3839 192.876L156.207 107.777Z" fill="#E0B655"/>
<path fill-rule="evenodd" clip-rule="evenodd" d="M156.208 107.777L-13.6411 192.351L-12.3223 194.959L156.208 107.777Z" fill="#E0B757"/>
<path fill-rule="evenodd" clip-rule="evenodd" d="M156.207 107.777L-12.5864 194.437L-11.236 197.028L156.207 107.777Z" fill="#E0B759"/>
<path fill-rule="evenodd" clip-rule="evenodd" d="M156.207 107.777L-11.5059 196.51L-10.1237 199.084L156.207 107.777Z" fill="#E0B85B"/>
<path fill-rule="evenodd" clip-rule="evenodd" d="M156.207 107.777L-10.3999 198.57L-8.9859 201.127L156.207 107.777Z" fill="#E1B95D"/>
<path fill-rule="evenodd" clip-rule="evenodd" d="M156.208 107.777L-9.26855 200.615L-7.82322 203.155L156.208 107.777Z" fill="#E1B95F"/>
<path fill-rule="evenodd" clip-rule="evenodd" d="M156.208 107.777L-8.1123 202.647L-6.63564 205.168L156.208 107.777Z" fill="#E1BA61"/>
<path fill-rule="evenodd" clip-rule="evenodd" d="M156.207 107.777L-6.93164 204.664L-5.42405 207.167L156.207 107.777Z" fill="#E1BB63"/>
<path fill-rule="evenodd" clip-rule="evenodd" d="M156.207 107.777L-5.72559 206.666L-4.18732 209.151L156.207 107.777Z" fill="#E3BC65"/>
<path fill-rule="evenodd" clip-rule="evenodd" d="M156.208 107.777L-4.49463 208.654L-2.92584 211.119L156.208 107.777Z" fill="#E3BD67"/>
<path fill-rule="evenodd" clip-rule="evenodd" d="M156.207 107.777L-3.23975 210.626L-1.64107 213.072L156.207 107.777Z" fill="#E3BE69"/>
<path fill-rule="evenodd" clip-rule="evenodd" d="M156.208 107.777L-1.96045 212.583L-0.331502 215.008L156.208 107.777Z" fill="#E4BE6B"/>
<path fill-rule="evenodd" clip-rule="evenodd" d="M156.208 107.777L-0.657227 214.523L1.00159 216.929L156.208 107.777Z" fill="#E4BF6D"/>
<path fill-rule="evenodd" clip-rule="evenodd" d="M156.207 107.777L0.669434 216.447L2.35783 218.832L156.207 107.777Z" fill="#E4C06F"/>
<path fill-rule="evenodd" clip-rule="evenodd" d="M156.207 107.777L2.02002 218.355L3.73775 220.72L156.207 107.777Z" fill="#E5C171"/>
<path fill-rule="evenodd" clip-rule="evenodd" d="M156.207 107.777L3.39404 220.247L5.14056 222.589L156.207 107.777Z" fill="#E5C173"/>
<path fill-rule="evenodd" clip-rule="evenodd" d="M156.207 107.777L4.7915 222.121L6.56645 224.442L156.207 107.777Z" fill="#E6C375"/>
<path fill-rule="evenodd" clip-rule="evenodd" d="M156.207 107.777L6.21143 223.978L8.01504 226.276L156.207 107.777Z" fill="#E5C377"/>
<path fill-rule="evenodd" clip-rule="evenodd" d="M156.208 107.777L7.65479 225.817L9.48665 228.093L156.208 107.777Z" fill="#E6C479"/>
<path fill-rule="evenodd" clip-rule="evenodd" d="M156.207 107.777L9.11963 227.638L10.9796 229.891L156.207 107.777Z" fill="#E6C47B"/>
<path fill-rule="evenodd" clip-rule="evenodd" d="M156.208 107.777L10.6079 229.441L12.4951 231.671L156.208 107.777Z" fill="#E6C57D"/>
<path fill-rule="evenodd" clip-rule="evenodd" d="M156.207 107.777L12.1177 231.225L14.0323 233.432L156.207 107.777Z" fill="#E7C67F"/>
<path fill-rule="evenodd" clip-rule="evenodd" d="M156.207 107.777L13.6494 232.991L15.5909 235.174L156.207 107.777Z" fill="#E8C781"/>
<path fill-rule="evenodd" clip-rule="evenodd" d="M156.208 107.777L15.2031 234.738L17.1715 236.897L156.208 107.777Z" fill="#E8C882"/>
<path fill-rule="evenodd" clip-rule="evenodd" d="M156.207 107.777L16.7773 236.465L18.7725 238.6L156.207 107.777Z" fill="#E8C884"/>
<path fill-rule="evenodd" clip-rule="evenodd" d="M156.207 107.777L18.3735 238.173L20.3949 240.284L156.207 107.777Z" fill="#E9C986"/>
<path fill-rule="evenodd" clip-rule="evenodd" d="M156.208 107.777L19.9907 239.861L22.0377 241.946L156.208 107.777Z" fill="#E9CA88"/>
<path fill-rule="evenodd" clip-rule="evenodd" d="M156.207 107.777L21.6279 241.53L23.7002 243.589L156.207 107.777Z" fill="#EACB8A"/>
<path fill-rule="evenodd" clip-rule="evenodd" d="M156.207 107.777L23.2861 243.177L25.3837 245.211L156.207 107.777Z" fill="#EACB8C"/>
<path fill-rule="evenodd" clip-rule="evenodd" d="M156.207 107.777L24.9644 244.805L27.087 246.813L156.207 107.777Z" fill="#EACC8E"/>
<path fill-rule="evenodd" clip-rule="evenodd" d="M156.207 107.777L26.6626 246.411L28.8097 248.393L156.207 107.777Z" fill="#EACD90"/>
<path fill-rule="evenodd" clip-rule="evenodd" d="M156.207 107.777L28.3804 247.996L30.5517 249.951L156.207 107.777Z" fill="#EACE91"/>
<path fill-rule="evenodd" clip-rule="evenodd" d="M156.207 107.777L30.1172 249.561L32.3124 251.489L156.207 107.777Z" fill="#EACE93"/>
<path fill-rule="evenodd" clip-rule="evenodd" d="M156.208 107.777L31.874 251.103L34.093 253.004L156.208 107.777Z" fill="#EBD095"/>
<path fill-rule="evenodd" clip-rule="evenodd" d="M156.207 107.777L33.6484 252.624L35.8908 254.498L156.207 107.777Z" fill="#ECD097"/>
<path fill-rule="evenodd" clip-rule="evenodd" d="M156.208 107.777L35.4429 254.123L37.7079 255.969L156.208 107.777Z" fill="#EDD199"/>
<path fill-rule="evenodd" clip-rule="evenodd" d="M156.207 107.777L37.2544 255.6L39.5423 257.418L156.207 107.777Z" fill="#EDD29B"/>
<path fill-rule="evenodd" clip-rule="evenodd" d="M156.208 107.777L39.085 257.054L41.395 258.843L156.208 107.777Z" fill="#EDD29C"/>
<path fill-rule="evenodd" clip-rule="evenodd" d="M156.207 107.777L40.9326 258.485L43.2642 260.246L156.207 107.777Z" fill="#EED49E"/>
<path fill-rule="evenodd" clip-rule="evenodd" d="M156.207 107.777L42.7979 259.894L45.1515 261.626L156.207 107.777Z" fill="#EED4A0"/>
<path fill-rule="evenodd" clip-rule="evenodd" d="M156.207 107.777L44.6807 261.28L47.0553 262.983L156.207 107.777Z" fill="#EED5A2"/>
<path fill-rule="evenodd" clip-rule="evenodd" d="M156.207 107.777L46.5801 262.642L48.9755 264.316L156.207 107.777Z" fill="#EED6A4"/>
<path fill-rule="evenodd" clip-rule="evenodd" d="M156.208 107.777L48.4966 263.981L50.9125 265.625L156.208 107.777Z" fill="#EED6A6"/>
<path fill-rule="evenodd" clip-rule="evenodd" d="M156.207 107.777L50.4292 265.296L52.8647 266.91L156.207 107.777Z" fill="#EED7A7"/>
<path fill-rule="evenodd" clip-rule="evenodd" d="M156.207 107.777L52.3774 266.587L54.833 268.171L156.207 107.777Z" fill="#EFD8AA"/>
<path fill-rule="evenodd" clip-rule="evenodd" d="M156.207 107.777L54.3423 267.854L56.8171 269.408L156.207 107.777Z" fill="#EFD8AB"/>
<path fill-rule="evenodd" clip-rule="evenodd" d="M156.208 107.777L56.3223 269.097L58.816 270.62L156.208 107.777Z" fill="#F1DAAD"/>
<path fill-rule="evenodd" clip-rule="evenodd" d="M156.207 107.777L58.3169 270.315L60.8296 271.807L156.207 107.777Z" fill="#F1DBAF"/>
<path fill-rule="evenodd" clip-rule="evenodd" d="M156.207 107.777L60.3267 271.509L62.8571 272.97L156.207 107.777Z" fill="#F1DBB1"/>
<path fill-rule="evenodd" clip-rule="evenodd" d="M156.207 107.777L62.3511 272.678L64.8996 274.108L156.207 107.777Z" fill="#F2DCB3"/>
<path fill-rule="evenodd" clip-rule="evenodd" d="M156.207 107.777L64.3896 273.822L66.9555 275.22L156.207 107.777Z" fill="#F2DDB5"/>
<path fill-rule="evenodd" clip-rule="evenodd" d="M156.207 107.777L66.4424 274.94L69.0253 276.307L156.207 107.777Z" fill="#F2DDB6"/>
<path fill-rule="evenodd" clip-rule="evenodd" d="M156.207 107.777L68.5088 276.033L71.1084 277.368L156.207 107.777Z" fill="#F2DFB8"/>
<path fill-rule="evenodd" clip-rule="evenodd" d="M156.208 107.777L70.5884 277.101L73.2042 278.403L156.208 107.777Z" fill="#F2E0BA"/>
<path fill-rule="evenodd" clip-rule="evenodd" d="M156.207 107.777L72.6807 278.143L75.3123 279.413L156.207 107.777Z" fill="#F3E0BC"/>
<path fill-rule="evenodd" clip-rule="evenodd" d="M156.207 107.777L74.7856 279.159L77.4329 280.397L156.207 107.777Z" fill="#F3E1BE"/>
<path fill-rule="evenodd" clip-rule="evenodd" d="M156.207 107.777L76.9033 280.149L79.5653 281.354L156.207 107.777Z" fill="#F3E2C0"/>
<path fill-rule="evenodd" clip-rule="evenodd" d="M156.207 107.777L79.0332 281.113L81.7099 282.285L156.207 107.777Z" fill="#F4E3C2"/>
<path fill-rule="evenodd" clip-rule="evenodd" d="M156.207 107.777L81.1743 282.051L83.8652 283.189L156.207 107.777Z" fill="#F4E3C3"/>
<path fill-rule="evenodd" clip-rule="evenodd" d="M156.207 107.777L83.3271 282.962L86.0318 284.067L156.207 107.777Z" fill="#F4E4C5"/>
<path fill-rule="evenodd" clip-rule="evenodd" d="M156.207 107.777L85.4907 283.846L88.2086 284.919L156.207 107.777Z" fill="#F5E5C7"/>
<path fill-rule="evenodd" clip-rule="evenodd" d="M156.207 107.777L87.665 284.704L90.3961 285.743L156.207 107.777Z" fill="#F5E6C9"/>
<path fill-rule="evenodd" clip-rule="evenodd" d="M156.207 107.777L89.8501 285.535L92.5937 286.54L156.207 107.777Z" fill="#F5E6CA"/>
<path fill-rule="evenodd" clip-rule="evenodd" d="M156.207 107.777L92.0449 286.339L94.8009 287.31L156.207 107.777Z" fill="#F6E8CD"/>
<path fill-rule="evenodd" clip-rule="evenodd" d="M156.207 107.777L94.25 287.116L97.0173 288.053L156.207 107.777Z" fill="#F6E9CE"/>
<path fill-rule="evenodd" clip-rule="evenodd" d="M156.207 107.777L96.4639 287.866L99.2431 288.769L156.207 107.777Z" fill="#F7E9D0"/>
<path fill-rule="evenodd" clip-rule="evenodd" d="M156.207 107.777L98.687 288.588L101.477 289.457L156.207 107.777Z" fill="#F7EAD2"/>
<path fill-rule="evenodd" clip-rule="evenodd" d="M156.207 107.777L100.919 289.283L103.72 290.117L156.207 107.777Z" fill="#F7EBD4"/>
<path fill-rule="evenodd" clip-rule="evenodd" d="M156.207 107.777L103.159 289.95L105.97 290.75L156.207 107.777Z" fill="#F7ECD6"/>
<path fill-rule="evenodd" clip-rule="evenodd" d="M156.208 107.777L105.408 290.59L108.228 291.355L156.208 107.777Z" fill="#F7EDD7"/>
<path fill-rule="evenodd" clip-rule="evenodd" d="M156.207 107.777L107.664 291.202L110.493 291.932L156.207 107.777Z" fill="#F7EDD9"/>
<path fill-rule="evenodd" clip-rule="evenodd" d="M156.207 107.777L109.927 291.786L112.765 292.481L156.207 107.777Z" fill="#F8EEDB"/>
<path fill-rule="evenodd" clip-rule="evenodd" d="M156.207 107.777L112.197 292.342L115.044 293.003L156.207 107.777Z" fill="#F9EFDD"/>
<path fill-rule="evenodd" clip-rule="evenodd" d="M156.207 107.777L114.475 292.871L117.329 293.496L156.207 107.777Z" fill="#F9F1DF"/>
<path fill-rule="evenodd" clip-rule="evenodd" d="M156.208 107.777L116.758 293.371L119.62 293.961L156.208 107.777Z" fill="#F9F1E1"/>
<path fill-rule="evenodd" clip-rule="evenodd" d="M156.207 107.777L119.047 293.842L121.916 294.397L156.207 107.777Z" fill="#F9F2E2"/>
<path fill-rule="evenodd" clip-rule="evenodd" d="M156.207 107.777L121.343 294.286L124.218 294.805L156.207 107.777Z" fill="#FAF3E5"/>
<path fill-rule="evenodd" clip-rule="evenodd" d="M156.207 107.777L123.643 294.701L126.525 295.185L156.207 107.777Z" fill="#FAF3E6"/>
<path fill-rule="evenodd" clip-rule="evenodd" d="M156.207 107.777L125.948 295.089L128.835 295.537L156.207 107.777Z" fill="#FAF4E8"/>
<path fill-rule="evenodd" clip-rule="evenodd" d="M156.207 107.777L128.258 295.447L131.151 295.86L156.207 107.777Z" fill="#FBF6EA"/>
<path fill-rule="evenodd" clip-rule="evenodd" d="M156.207 107.777L130.572 295.777L133.47 296.154L156.207 107.777Z" fill="#FBF6EC"/>
<path fill-rule="evenodd" clip-rule="evenodd" d="M156.207 107.777L132.891 296.079L135.793 296.42L156.207 107.777Z" fill="#FBF7ED"/>
<path fill-rule="evenodd" clip-rule="evenodd" d="M156.207 107.777L135.212 296.352L138.118 296.657L156.207 107.777Z" fill="#FCF7EF"/>
<path fill-rule="evenodd" clip-rule="evenodd" d="M156.207 107.777L137.537 296.596L140.446 296.866L156.207 107.777Z" fill="#FCF8F1"/>
<path fill-rule="evenodd" clip-rule="evenodd" d="M156.207 107.777L139.864 296.812L142.777 297.046L156.207 107.777Z" fill="#FCFAF3"/>
<path fill-rule="evenodd" clip-rule="evenodd" d="M156.207 107.777L142.194 296.999L145.11 297.197L156.207 107.777Z" fill="#FDFAF5"/>
<path fill-rule="evenodd" clip-rule="evenodd" d="M156.208 107.777L144.527 297.157L147.444 297.319L156.208 107.777Z" fill="#FDFBF6"/>
<path fill-rule="evenodd" clip-rule="evenodd" d="M156.207 107.777L146.86 297.287L149.78 297.413L156.207 107.777Z" fill="#FEFDF9"/>
<path fill-rule="evenodd" clip-rule="evenodd" d="M156.207 107.777L149.196 297.387L152.117 297.477L156.207 107.777Z" fill="#FEFDFA"/>
<path fill-rule="evenodd" clip-rule="evenodd" d="M156.207 107.777L151.532 297.459L154.454 297.514L156.207 107.777Z" fill="#FEFDFC"/>
<path fill-rule="evenodd" clip-rule="evenodd" d="M156.207 107.777L153.87 297.502L156.792 297.521L156.207 107.777Z" fill="#FFFFFE"/>
<path fill-rule="evenodd" clip-rule="evenodd" d="M156.208 107.777V297.517L159.129 297.499L156.208 107.777Z" fill="white"/>
<path fill-rule="evenodd" clip-rule="evenodd" d="M156.208 107.777L158.545 297.502L161.467 297.448L156.208 107.777Z" fill="white"/>
<path fill-rule="evenodd" clip-rule="evenodd" d="M156.208 107.777L160.882 297.459L163.803 297.37L156.208 107.777Z" fill="#FEFEFE"/>
<path fill-rule="evenodd" clip-rule="evenodd" d="M156.208 107.777L163.218 297.387L166.138 297.261L156.208 107.777Z" fill="#FEFEFE"/>
<path fill-rule="evenodd" clip-rule="evenodd" d="M156.208 107.777L165.554 297.287L168.472 297.125L156.208 107.777Z" fill="#FEFEFE"/>
<path fill-rule="evenodd" clip-rule="evenodd" d="M156.208 107.777L167.888 297.157L170.803 296.959L156.208 107.777Z" fill="#FEFEFE"/>
<path fill-rule="evenodd" clip-rule="evenodd" d="M156.208 107.777L170.22 296.999L173.133 296.765L156.208 107.777Z" fill="#FEFEFE"/>
<path fill-rule="evenodd" clip-rule="evenodd" d="M156.208 107.777L172.551 296.812L175.46 296.542L156.208 107.777Z" fill="#FEFEFE"/>
<path fill-rule="evenodd" clip-rule="evenodd" d="M156.208 107.777L174.878 296.596L177.784 296.291L156.208 107.777Z" fill="#FEFEFE"/>
<path fill-rule="evenodd" clip-rule="evenodd" d="M156.208 107.777L177.203 296.352L180.105 296.01L156.208 107.777Z" fill="#FEFEFE"/>
<path fill-rule="evenodd" clip-rule="evenodd" d="M156.208 107.777L179.524 296.079L182.422 295.702L156.208 107.777Z" fill="#FEFEFE"/>
<path fill-rule="evenodd" clip-rule="evenodd" d="M156.208 107.777L181.842 295.777L184.735 295.365L156.208 107.777Z" fill="#FEFEFE"/>
<path fill-rule="evenodd" clip-rule="evenodd" d="M156.208 107.777L184.157 295.447L187.044 294.999L156.208 107.777Z" fill="#FDFDFD"/>
<path fill-rule="evenodd" clip-rule="evenodd" d="M156.208 107.777L186.466 295.089L189.348 294.605L156.208 107.777Z" fill="#FDFDFD"/>
<path fill-rule="evenodd" clip-rule="evenodd" d="M156.208 107.777L188.772 294.702L191.647 294.183L156.208 107.777Z" fill="#FDFDFD"/>
<path fill-rule="evenodd" clip-rule="evenodd" d="M156.208 107.777L191.072 294.286L193.941 293.732L156.208 107.777Z" fill="#FDFDFD"/>
<path fill-rule="evenodd" clip-rule="evenodd" d="M156.208 107.777L193.367 293.842L196.229 293.253L156.208 107.777Z" fill="#FDFDFD"/>
<path fill-rule="evenodd" clip-rule="evenodd" d="M156.208 107.777L195.657 293.371L198.511 292.746L156.208 107.777Z" fill="#FCFCFC"/>
<path fill-rule="evenodd" clip-rule="evenodd" d="M156.208 107.777L197.94 292.871L200.787 292.21L156.208 107.777Z" fill="#FCFCFC"/>
<path fill-rule="evenodd" clip-rule="evenodd" d="M156.208 107.777L200.217 292.342L203.056 291.647L156.208 107.777Z" fill="#FCFCFC"/>
<path fill-rule="evenodd" clip-rule="evenodd" d="M156.208 107.777L202.488 291.786L205.317 291.056L156.208 107.777Z" fill="#FCFCFC"/>
<path fill-rule="evenodd" clip-rule="evenodd" d="M156.208 107.777L204.751 291.202L207.571 290.437L156.208 107.777Z" fill="#FCFCFC"/>
<path fill-rule="evenodd" clip-rule="evenodd" d="M156.208 107.777L207.007 290.59L209.818 289.79L156.208 107.777Z" fill="#FBFBFB"/>
<path fill-rule="evenodd" clip-rule="evenodd" d="M156.208 107.777L209.255 289.95L212.056 289.116L156.208 107.777Z" fill="#FBFBFB"/>
<path fill-rule="evenodd" clip-rule="evenodd" d="M156.208 107.777L211.496 289.283L214.286 288.414L156.208 107.777Z" fill="#FBFBFB"/>
<path fill-rule="evenodd" clip-rule="evenodd" d="M156.208 107.777L213.728 288.588L216.507 287.685L156.208 107.777Z" fill="#FBFBFB"/>
<path fill-rule="evenodd" clip-rule="evenodd" d="M156.208 107.777L215.951 287.866L218.719 286.929L156.208 107.777Z" fill="#FBFBFB"/>
<path fill-rule="evenodd" clip-rule="evenodd" d="M156.208 107.777L218.165 287.116L220.921 286.145L156.208 107.777Z" fill="#FBFBFB"/>
<path fill-rule="evenodd" clip-rule="evenodd" d="M156.208 107.777L220.37 286.339L223.113 285.334L156.208 107.777Z" fill="#FBFBFB"/>
<path fill-rule="evenodd" clip-rule="evenodd" d="M156.208 107.777L222.565 285.535L225.296 284.496L156.208 107.777Z" fill="#FBFBFB"/>
<path fill-rule="evenodd" clip-rule="evenodd" d="M156.208 107.777L224.75 284.704L227.468 283.632L156.208 107.777Z" fill="#FBFBFB"/>
<path fill-rule="evenodd" clip-rule="evenodd" d="M156.208 107.777L226.924 283.846L229.629 282.741L156.208 107.777Z" fill="#FBFBFB"/>
<path fill-rule="evenodd" clip-rule="evenodd" d="M156.208 107.777L229.088 282.962L231.779 281.823L156.208 107.777Z" fill="#FAFAFA"/>
<path fill-rule="evenodd" clip-rule="evenodd" d="M156.208 107.777L231.241 282.051L233.917 280.879L156.208 107.777Z" fill="#FAFAFA"/>
<path fill-rule="evenodd" clip-rule="evenodd" d="M156.208 107.777L233.382 281.113L236.044 279.908L156.208 107.777Z" fill="#FAFAFA"/>
<path fill-rule="evenodd" clip-rule="evenodd" d="M156.208 107.777L235.511 280.149L238.158 278.911L156.208 107.777Z" fill="#FAFAFA"/>
<path fill-rule="evenodd" clip-rule="evenodd" d="M156.208 107.777L237.629 279.159L240.26 277.889L156.208 107.777Z" fill="#FAFAFA"/>
<path fill-rule="evenodd" clip-rule="evenodd" d="M156.208 107.777L239.734 278.143L242.35 276.841L156.208 107.777Z" fill="#F9F9F9"/>
<path fill-rule="evenodd" clip-rule="evenodd" d="M156.208 107.777L241.827 277.101L244.426 275.766L156.208 107.777Z" fill="#F9F9F9"/>
<path fill-rule="evenodd" clip-rule="evenodd" d="M156.208 107.777L243.906 276.033L246.489 274.667L156.208 107.777Z" fill="#F9F9F9"/>
<path fill-rule="evenodd" clip-rule="evenodd" d="M156.208 107.777L245.972 274.94L248.538 273.542L156.208 107.777Z" fill="#F9F9F9"/>
<path fill-rule="evenodd" clip-rule="evenodd" d="M156.208 107.777L248.025 273.822L250.573 272.392L156.208 107.777Z" fill="#F9F9F9"/>
<path fill-rule="evenodd" clip-rule="evenodd" d="M156.208 107.777L250.064 272.678L252.594 271.217L156.208 107.777Z" fill="#F8F8F8"/>
<path fill-rule="evenodd" clip-rule="evenodd" d="M156.208 107.777L252.088 271.509L254.6 270.017L156.208 107.777Z" fill="#F8F8F8"/>
<path fill-rule="evenodd" clip-rule="evenodd" d="M156.208 107.777L254.098 270.315L256.592 268.793L156.208 107.777Z" fill="#F8F8F8"/>
<path fill-rule="evenodd" clip-rule="evenodd" d="M156.208 107.777L256.093 269.097L258.568 267.544L156.208 107.777Z" fill="#F8F8F8"/>
<path fill-rule="evenodd" clip-rule="evenodd" d="M156.208 107.777L258.073 267.854L260.528 266.27L156.208 107.777Z" fill="#F8F8F8"/>
<path fill-rule="evenodd" clip-rule="evenodd" d="M156.208 107.777L260.037 266.587L262.473 264.973L156.208 107.777Z" fill="#F8F8F8"/>
<path fill-rule="evenodd" clip-rule="evenodd" d="M156.208 107.777L261.986 265.296L264.401 263.652L156.208 107.777Z" fill="#F8F8F8"/>
<path fill-rule="evenodd" clip-rule="evenodd" d="M156.208 107.777L263.918 263.981L266.313 262.307L156.208 107.777Z" fill="#F8F8F8"/>
<path fill-rule="evenodd" clip-rule="evenodd" d="M156.208 107.777L265.835 262.642L268.209 260.939L156.208 107.777Z" fill="#F8F8F8"/>
<path fill-rule="evenodd" clip-rule="evenodd" d="M156.208 107.777L267.734 261.28L270.087 259.548L156.208 107.777Z" fill="#F7F7F7"/>
<path fill-rule="evenodd" clip-rule="evenodd" d="M156.208 107.777L269.617 259.894L271.948 258.133L156.208 107.777Z" fill="#F7F7F7"/>
<path fill-rule="evenodd" clip-rule="evenodd" d="M156.208 107.777L271.482 258.485L273.792 256.696L156.208 107.777Z" fill="#F7F7F7"/>
<path fill-rule="evenodd" clip-rule="evenodd" d="M156.208 107.777L273.33 257.054L275.618 255.236L156.208 107.777Z" fill="#F7F7F7"/>
<path fill-rule="evenodd" clip-rule="evenodd" d="M156.208 107.777L275.16 255.6L277.425 253.754L156.208 107.777Z" fill="#F7F7F7"/>
<path fill-rule="evenodd" clip-rule="evenodd" d="M156.208 107.777L276.972 254.123L279.214 252.25L156.208 107.777Z" fill="#F6F6F6"/>
<path fill-rule="evenodd" clip-rule="evenodd" d="M156.208 107.777L278.766 252.624L280.985 250.723L156.208 107.777Z" fill="#F6F6F6"/>
<path fill-rule="evenodd" clip-rule="evenodd" d="M156.208 107.777L280.541 251.103L282.737 249.175L156.208 107.777Z" fill="#F6F6F6"/>
<path fill-rule="evenodd" clip-rule="evenodd" d="M156.208 107.777L282.297 249.561L284.469 247.605L156.208 107.777Z" fill="#F6F6F6"/>
<path fill-rule="evenodd" clip-rule="evenodd" d="M156.208 107.777L284.034 247.996L286.182 246.015L156.208 107.777Z" fill="#F6F6F6"/>
<path fill-rule="evenodd" clip-rule="evenodd" d="M156.208 107.777L285.752 246.411L287.875 244.403L156.208 107.777Z" fill="#F5F6F6"/>
<path fill-rule="evenodd" clip-rule="evenodd" d="M156.208 107.777L287.45 244.805L289.548 242.77L156.208 107.777Z" fill="#F5F6F6"/>
<path fill-rule="evenodd" clip-rule="evenodd" d="M156.208 107.777L289.129 243.177L291.201 241.118L156.208 107.777Z" fill="#F5F6F6"/>
<path fill-rule="evenodd" clip-rule="evenodd" d="M156.208 107.777L290.787 241.53L292.834 239.444L156.208 107.777Z" fill="#F5F6F6"/>
<path fill-rule="evenodd" clip-rule="evenodd" d="M156.208 107.777L292.424 239.861L294.446 237.751L156.208 107.777Z" fill="#F5F6F6"/>
<path fill-rule="evenodd" clip-rule="evenodd" d="M156.208 107.777L294.041 238.173L296.036 236.038L156.208 107.777Z" fill="#F5F5F5"/>
<path fill-rule="evenodd" clip-rule="evenodd" d="M156.208 107.777L295.637 236.465L297.606 234.306L156.208 107.777Z" fill="#F5F5F5"/>
<path fill-rule="evenodd" clip-rule="evenodd" d="M156.208 107.777L297.212 234.738L299.154 232.554L156.208 107.777Z" fill="#F5F5F5"/>
<path fill-rule="evenodd" clip-rule="evenodd" d="M156.208 107.777L298.765 232.991L300.68 230.784L156.208 107.777Z" fill="#F5F5F5"/>
<path fill-rule="evenodd" clip-rule="evenodd" d="M156.208 107.777L300.297 231.225L302.185 228.994L156.208 107.777Z" fill="#F5F5F5"/>
<path fill-rule="evenodd" clip-rule="evenodd" d="M156.208 107.777L301.807 229.441L303.667 227.187L156.208 107.777Z" fill="#F4F4F4"/>
<path fill-rule="evenodd" clip-rule="evenodd" d="M156.208 107.777L303.295 227.638L305.127 225.361L156.208 107.777Z" fill="#F4F4F4"/>
<path fill-rule="evenodd" clip-rule="evenodd" d="M156.208 107.777L304.76 225.817L306.564 223.518L156.208 107.777Z" fill="#F4F4F4"/>
<path fill-rule="evenodd" clip-rule="evenodd" d="M156.208 107.777L306.203 223.978L307.979 221.656L156.208 107.777Z" fill="#F4F4F4"/>
<path fill-rule="evenodd" clip-rule="evenodd" d="M156.208 107.777L307.624 222.121L309.37 219.778L156.208 107.777Z" fill="#F4F4F4"/>
<path fill-rule="evenodd" clip-rule="evenodd" d="M156.208 107.777L309.021 220.247L310.738 217.883L156.208 107.777Z" fill="#F3F3F3"/>
<path fill-rule="evenodd" clip-rule="evenodd" d="M156.208 107.777L310.395 218.355L312.083 215.971L156.208 107.777Z" fill="#F3F3F3"/>
<path fill-rule="evenodd" clip-rule="evenodd" d="M156.208 107.777L311.745 216.448L313.404 214.042L156.208 107.777Z" fill="#F3F3F3"/>
<path fill-rule="evenodd" clip-rule="evenodd" d="M156.208 107.777L313.072 214.523L314.701 212.097L156.208 107.777Z" fill="#F3F3F3"/>
<path fill-rule="evenodd" clip-rule="evenodd" d="M156.208 107.777L314.375 212.583L315.975 210.137L156.208 107.777Z" fill="#F3F3F3"/>
<path fill-rule="evenodd" clip-rule="evenodd" d="M156.208 107.777L315.654 210.626L317.223 208.161L156.208 107.777Z" fill="#F2F3F3"/>
<path fill-rule="evenodd" clip-rule="evenodd" d="M156.208 107.777L316.91 208.654L318.448 206.17L156.208 107.777Z" fill="#F2F3F3"/>
<path fill-rule="evenodd" clip-rule="evenodd" d="M156.208 107.777L318.14 206.667L319.648 204.163L156.208 107.777Z" fill="#F2F3F3"/>
<path fill-rule="evenodd" clip-rule="evenodd" d="M156.208 107.777L319.346 204.664L320.823 202.142L156.208 107.777Z" fill="#F2F3F3"/>
<path fill-rule="evenodd" clip-rule="evenodd" d="M156.208 107.777L320.527 202.647L321.973 200.108L156.208 107.777Z" fill="#F2F3F3"/>
<path fill-rule="evenodd" clip-rule="evenodd" d="M156.208 107.777L321.684 200.615L323.098 198.058L156.208 107.777Z" fill="#F2F2F2"/>
<path fill-rule="evenodd" clip-rule="evenodd" d="M156.208 107.777L322.815 198.57L324.197 195.995L156.208 107.777Z" fill="#F2F2F2"/>
<path fill-rule="evenodd" clip-rule="evenodd" d="M156.208 107.777L323.921 196.51L325.271 193.919L156.208 107.777Z" fill="#F2F2F2"/>
<path fill-rule="evenodd" clip-rule="evenodd" d="M156.208 107.777L325.001 194.437L326.32 191.83L156.208 107.777Z" fill="#F2F2F2"/>
<path fill-rule="evenodd" clip-rule="evenodd" d="M156.208 107.777L326.056 192.351L327.342 189.727L156.208 107.777Z" fill="#F2F2F2"/>
<path fill-rule="evenodd" clip-rule="evenodd" d="M156.208 107.777L327.085 190.252L328.339 187.613L156.208 107.777Z" fill="#F1F1F1"/>
<path fill-rule="evenodd" clip-rule="evenodd" d="M156.208 107.777L328.088 188.141L329.31 185.486L156.208 107.777Z" fill="#F1F1F1"/>
<path fill-rule="evenodd" clip-rule="evenodd" d="M156.208 107.777L329.065 186.017L330.254 183.348L156.208 107.777Z" fill="#F1F1F1"/>
<path fill-rule="evenodd" clip-rule="evenodd" d="M156.208 107.777L330.016 183.882L331.172 181.198L156.208 107.777Z" fill="#F1F1F1"/>
<path fill-rule="evenodd" clip-rule="evenodd" d="M156.208 107.777L330.94 181.735L332.063 179.037L156.208 107.777Z" fill="#F1F1F1"/>
<path fill-rule="evenodd" clip-rule="evenodd" d="M156.208 107.777L331.838 179.576L332.927 176.865L156.208 107.777Z" fill="#F0F0F0"/>
<path fill-rule="evenodd" clip-rule="evenodd" d="M156.208 107.777L332.71 177.407L333.765 174.683L156.208 107.777Z" fill="#F0F0F0"/>
<path fill-rule="evenodd" clip-rule="evenodd" d="M156.208 107.777L333.554 175.228L334.576 172.49L156.208 107.777Z" fill="#F0F0F0"/>
<path fill-rule="evenodd" clip-rule="evenodd" d="M156.208 107.777L334.371 173.038L335.359 170.288L156.208 107.777Z" fill="#F0F0F0"/>
<path fill-rule="evenodd" clip-rule="evenodd" d="M156.208 107.777L335.162 170.838L336.116 168.076L156.208 107.777Z" fill="#F0F0F0"/>
<path fill-rule="evenodd" clip-rule="evenodd" d="M156.208 107.777L335.925 168.628L336.845 165.855L156.208 107.777Z" fill="#F0F0F0"/>
<path fill-rule="evenodd" clip-rule="evenodd" d="M156.208 107.777L336.661 166.409L337.547 163.625L156.208 107.777Z" fill="#F0F0F0"/>
<path fill-rule="evenodd" clip-rule="evenodd" d="M156.208 107.777L337.37 164.182L338.221 161.387L156.208 107.777Z" fill="#F0F0F0"/>
<path fill-rule="evenodd" clip-rule="evenodd" d="M156.208 107.777L338.051 161.946L338.868 159.14L156.208 107.777Z" fill="#F0F0F0"/>
<path fill-rule="evenodd" clip-rule="evenodd" d="M156.208 107.777L338.705 159.702L339.487 156.886L156.208 107.777Z" fill="#EFEFEF"/>
<path fill-rule="evenodd" clip-rule="evenodd" d="M156.208 107.777L339.33 157.45L340.078 154.625L156.208 107.777Z" fill="#EFEFEF"/>
<path fill-rule="evenodd" clip-rule="evenodd" d="M156.208 107.777L339.928 155.19L340.641 152.356L156.208 107.777Z" fill="#EFEFEF"/>
<path fill-rule="evenodd" clip-rule="evenodd" d="M156.208 107.777L340.499 152.922L341.176 150.08L156.208 107.777Z" fill="#EFEFEF"/>
<path fill-rule="evenodd" clip-rule="evenodd" d="M156.208 107.777L341.041 150.649L341.684 147.799L156.208 107.777Z" fill="#EFEFEF"/>
<path fill-rule="evenodd" clip-rule="evenodd" d="M156.208 107.777L341.555 148.368L342.162 145.51L156.208 107.777Z" fill="#EEEEEE"/>
<path fill-rule="evenodd" clip-rule="evenodd" d="M156.208 107.777L342.041 146.082L342.613 143.216L156.208 107.777Z" fill="#EEEEEE"/>
<path fill-rule="evenodd" clip-rule="evenodd" d="M156.208 107.777L342.499 143.79L343.036 140.917L156.208 107.777Z" fill="#EEEEEE"/>
<path fill-rule="evenodd" clip-rule="evenodd" d="M156.208 107.777L342.928 141.492L343.43 138.613L156.208 107.777Z" fill="#EEEEEE"/>
<path fill-rule="evenodd" clip-rule="evenodd" d="M156.208 107.777L343.33 139.189L343.796 136.304L156.208 107.777Z" fill="#EEEEEE"/>
<path fill-rule="evenodd" clip-rule="evenodd" d="M156.208 107.777L343.702 136.881L344.133 133.991L156.208 107.777Z" fill="#EDEEEE"/>
<path fill-rule="evenodd" clip-rule="evenodd" d="M156.208 107.777L344.047 134.569L344.442 131.674L156.208 107.777Z" fill="#EDEEEE"/>
<path fill-rule="evenodd" clip-rule="evenodd" d="M156.208 107.777L344.363 132.253L344.722 129.353L156.208 107.777Z" fill="#EDEEEE"/>
<path fill-rule="evenodd" clip-rule="evenodd" d="M156.208 107.777L344.65 129.933L344.973 127.029L156.208 107.777Z" fill="#EDEEEE"/>
<path fill-rule="evenodd" clip-rule="evenodd" d="M156.208 107.777L344.908 127.61L345.196 124.702L156.208 107.777Z" fill="#EDEEEE"/>
<path fill-rule="evenodd" clip-rule="evenodd" d="M156.208 107.777L345.138 125.284L345.39 122.372L156.208 107.777Z" fill="#EDEDED"/>
<path fill-rule="evenodd" clip-rule="evenodd" d="M156.208 107.777L345.34 122.955L345.555 120.041L156.208 107.777Z" fill="#EDEDED"/>
<path fill-rule="evenodd" clip-rule="evenodd" d="M156.208 107.777L345.512 120.624L345.692 117.707L156.208 107.777Z" fill="#EDEDED"/>
<path fill-rule="evenodd" clip-rule="evenodd" d="M156.208 107.777L345.656 118.291L345.8 115.372L156.208 107.777Z" fill="#EDEDED"/>
<path fill-rule="evenodd" clip-rule="evenodd" d="M156.208 107.777L345.772 115.956L345.879 113.036L156.208 107.777Z" fill="#EDEDED"/>
<path fill-rule="evenodd" clip-rule="evenodd" d="M156.208 107.777L345.858 113.62L345.93 110.699L156.208 107.777Z" fill="#ECECEC"/>
<path fill-rule="evenodd" clip-rule="evenodd" d="M156.208 107.777L345.915 111.283L345.952 108.361L156.208 107.777Z" fill="#ECECEC"/>
<path fill-rule="evenodd" clip-rule="evenodd" d="M156.208 107.777L345.944 108.945V106.023L156.208 107.777Z" fill="#ECEDED"/>
<path fill-rule="evenodd" clip-rule="evenodd" d="M156.208 107.777L345.944 106.608L345.908 103.686L156.208 107.777Z" fill="#ECECEC"/>
<path fill-rule="evenodd" clip-rule="evenodd" d="M156.208 107.777L345.915 104.27L345.843 101.349L156.208 107.777Z" fill="#ECECEC"/>
<path fill-rule="evenodd" clip-rule="evenodd" d="M156.208 107.777L345.858 101.934L345.75 99.0134L156.208 107.777Z" fill="#EDEDED"/>
<path fill-rule="evenodd" clip-rule="evenodd" d="M156.208 107.777L345.772 99.5978L345.628 96.6793L156.208 107.777Z" fill="#EDEDED"/>
<path fill-rule="evenodd" clip-rule="evenodd" d="M156.208 107.777L345.656 97.2627L345.476 94.3464L156.208 107.777Z" fill="#EDEDED"/>
<path fill-rule="evenodd" clip-rule="evenodd" d="M156.208 107.777L345.512 94.9297L345.296 92.0156L156.208 107.777Z" fill="#EDEDED"/>
<path fill-rule="evenodd" clip-rule="evenodd" d="M156.208 107.777L345.34 92.5985L345.088 89.6874L156.208 107.777Z" fill="#EDEDED"/>
<path fill-rule="evenodd" clip-rule="evenodd" d="M156.208 107.777L345.138 90.2695L344.851 87.3619L156.208 107.777Z" fill="#EDEEEE"/>
<path fill-rule="evenodd" clip-rule="evenodd" d="M156.208 107.777L344.908 87.9435L344.585 85.0394L156.208 107.777Z" fill="#EDEEEE"/>
<path fill-rule="evenodd" clip-rule="evenodd" d="M156.208 107.777L344.65 85.6204L344.291 82.7203L156.208 107.777Z" fill="#EDEEEE"/>
<path fill-rule="evenodd" clip-rule="evenodd" d="M156.208 107.777L344.363 83.3005L343.968 80.405L156.208 107.777Z" fill="#EDEEEE"/>
<path fill-rule="evenodd" clip-rule="evenodd" d="M156.208 107.777L344.047 80.9843L343.616 78.0941L156.208 107.777Z" fill="#EDEEEE"/>
<path fill-rule="evenodd" clip-rule="evenodd" d="M156.208 107.777L343.702 78.672L343.236 75.7875L156.208 107.777Z" fill="#EEEEEE"/>
<path fill-rule="evenodd" clip-rule="evenodd" d="M156.208 107.777L343.33 76.3642L342.828 73.4858L156.208 107.777Z" fill="#EEEEEE"/>
<path fill-rule="evenodd" clip-rule="evenodd" d="M156.208 107.777L342.928 74.0614L342.392 71.1893L156.208 107.777Z" fill="#EEEEEE"/>
<path fill-rule="evenodd" clip-rule="evenodd" d="M156.208 107.777L342.499 71.7638L341.927 68.8982L156.208 107.777Z" fill="#EEEEEE"/>
<path fill-rule="evenodd" clip-rule="evenodd" d="M156.208 107.777L342.041 69.4715L341.433 66.6134L156.208 107.777Z" fill="#EEEEEE"/>
<path fill-rule="evenodd" clip-rule="evenodd" d="M156.208 107.777L341.555 67.1849L340.912 64.3343L156.208 107.777Z" fill="#EFEFEF"/>
<path fill-rule="evenodd" clip-rule="evenodd" d="M156.208 107.777L341.041 64.9047L340.363 62.0621L156.208 107.777Z" fill="#EFEFEF"/>
<path fill-rule="evenodd" clip-rule="evenodd" d="M156.208 107.777L340.499 62.631L339.786 59.797L156.208 107.777Z" fill="#EFEFEF"/>
<path fill-rule="evenodd" clip-rule="evenodd" d="M156.208 107.777L339.928 60.3637L339.181 57.5391L156.208 107.777Z" fill="#EFEFEF"/>
<path fill-rule="evenodd" clip-rule="evenodd" d="M156.208 107.777L339.33 58.1038L338.548 55.2889L156.208 107.777Z" fill="#EFEFEF"/>
<path fill-rule="evenodd" clip-rule="evenodd" d="M156.208 107.777L338.705 55.8516L337.888 53.0465L156.208 107.777Z" fill="#F0F0F0"/>
<path fill-rule="evenodd" clip-rule="evenodd" d="M156.208 107.777L338.051 53.6073L337.2 50.8123L156.208 107.777Z" fill="#F0F0F0"/>
<path fill-rule="evenodd" clip-rule="evenodd" d="M156.208 107.777L337.37 51.3714L336.484 48.5866L156.208 107.777Z" fill="#F0F0F0"/>
<path fill-rule="evenodd" clip-rule="evenodd" d="M156.208 107.777L336.661 49.1436L335.741 46.3704L156.208 107.777Z" fill="#F0F0F0"/>
<path fill-rule="evenodd" clip-rule="evenodd" d="M156.208 107.777L335.925 46.9251L334.971 44.163L156.208 107.777Z" fill="#F0F0F0"/>
<path fill-rule="evenodd" clip-rule="evenodd" d="M156.208 107.777L335.162 44.7157L334.174 41.9656L156.208 107.777Z" fill="#F0F0F0"/>
<path fill-rule="evenodd" clip-rule="evenodd" d="M156.208 107.777L334.371 42.5155L333.349 39.7781L156.208 107.777Z" fill="#F0F0F0"/>
<path fill-rule="evenodd" clip-rule="evenodd" d="M156.208 107.777L333.554 40.3257L332.498 37.601L156.208 107.777Z" fill="#F0F0F0"/>
<path fill-rule="evenodd" clip-rule="evenodd" d="M156.208 107.777L332.71 38.1461L331.62 35.4346L156.208 107.777Z" fill="#F0F0F0"/>
<path fill-rule="evenodd" clip-rule="evenodd" d="M156.208 107.777L331.838 35.977L330.716 33.2791L156.208 107.777Z" fill="#F1F1F1"/>
<path fill-rule="evenodd" clip-rule="evenodd" d="M156.208 107.777L330.94 33.8184L329.785 31.1346L156.208 107.777Z" fill="#F1F1F1"/>
<path fill-rule="evenodd" clip-rule="evenodd" d="M156.208 107.777L330.016 31.6716L328.828 29.0022L156.208 107.777Z" fill="#F1F1F1"/>
<path fill-rule="evenodd" clip-rule="evenodd" d="M156.208 107.777L329.065 29.536L327.844 26.8815L156.208 107.777Z" fill="#F1F1F1"/>
<path fill-rule="evenodd" clip-rule="evenodd" d="M156.208 107.777L328.088 27.4126L326.834 24.7733L156.208 107.777Z" fill="#F1F1F1"/>
<path fill-rule="evenodd" clip-rule="evenodd" d="M156.208 107.777L327.085 25.301L325.799 22.6775L156.208 107.777Z" fill="#F2F2F2"/>
<path fill-rule="evenodd" clip-rule="evenodd" d="M156.208 107.777L326.056 23.2022L324.737 20.5947L156.208 107.777Z" fill="#F2F2F2"/>
<path fill-rule="evenodd" clip-rule="evenodd" d="M156.208 107.777L325.001 21.1162L323.651 18.525L156.208 107.777Z" fill="#F2F2F2"/>
<path fill-rule="evenodd" clip-rule="evenodd" d="M156.208 107.777L323.921 19.0431L322.538 16.469L156.208 107.777Z" fill="#F2F2F2"/>
<path fill-rule="evenodd" clip-rule="evenodd" d="M156.208 107.777L322.815 16.9836L321.401 14.4264L156.208 107.777Z" fill="#F2F2F2"/>
<path fill-rule="evenodd" clip-rule="evenodd" d="M156.208 107.777L321.684 14.9382L320.238 12.3988L156.208 107.777Z" fill="#F2F3F3"/>
<path fill-rule="evenodd" clip-rule="evenodd" d="M156.208 107.777L320.527 12.9063L319.051 10.385L156.208 107.777Z" fill="#F2F3F3"/>
<path fill-rule="evenodd" clip-rule="evenodd" d="M156.208 107.777L319.346 10.8892L317.839 8.38647L156.208 107.777Z" fill="#F2F3F3"/>
<path fill-rule="evenodd" clip-rule="evenodd" d="M156.208 107.777L318.14 8.88688L316.602 6.40258L156.208 107.777Z" fill="#F2F3F3"/>
<path fill-rule="evenodd" clip-rule="evenodd" d="M156.208 107.777L316.91 6.89949L315.341 4.43416L156.208 107.777Z" fill="#F2F3F3"/>
<path fill-rule="evenodd" clip-rule="evenodd" d="M156.208 107.777L315.654 4.92741L314.056 2.48169L156.208 107.777Z" fill="#F3F3F3"/>
<path fill-rule="evenodd" clip-rule="evenodd" d="M156.208 107.777L314.375 2.9707L312.746 0.545L156.208 107.777Z" fill="#F3F3F3"/>
<path fill-rule="evenodd" clip-rule="evenodd" d="M156.208 107.777L313.072 1.03035L311.413 -1.37541L156.208 107.777Z" fill="#F3F3F3"/>
<path fill-rule="evenodd" clip-rule="evenodd" d="M156.208 107.777L311.745 -0.894209L310.057 -3.27914L156.208 107.777Z" fill="#F3F3F3"/>
<path fill-rule="evenodd" clip-rule="evenodd" d="M156.208 107.777L310.395 -2.80209L308.677 -5.16618L156.208 107.777Z" fill="#F3F3F3"/>
<path fill-rule="evenodd" clip-rule="evenodd" d="M156.208 107.777L309.021 -4.69344L307.274 -7.03597L156.208 107.777Z" fill="#F4F4F4"/>
<path fill-rule="evenodd" clip-rule="evenodd" d="M156.208 107.777L307.624 -6.5673L305.848 -8.88835L156.208 107.777Z" fill="#F4F4F4"/>
<path fill-rule="evenodd" clip-rule="evenodd" d="M156.208 107.777L306.203 -8.42424L304.4 -10.7229L156.208 107.777Z" fill="#F4F4F4"/>
<path fill-rule="evenodd" clip-rule="evenodd" d="M156.208 107.777L304.76 -10.2633L302.928 -12.5396L156.208 107.777Z" fill="#F4F4F4"/>
<path fill-rule="evenodd" clip-rule="evenodd" d="M156.208 107.777L303.295 -12.0842L301.435 -14.338L156.208 107.777Z" fill="#F4F4F4"/>
<path fill-rule="evenodd" clip-rule="evenodd" d="M156.208 107.777L301.807 -13.8875L299.92 -16.1182L156.208 107.777Z" fill="#F5F5F5"/>
<path fill-rule="evenodd" clip-rule="evenodd" d="M156.208 107.777L300.297 -15.6718L298.382 -17.879L156.208 107.777Z" fill="#F5F5F5"/>
<path fill-rule="evenodd" clip-rule="evenodd" d="M156.208 107.777L298.765 -17.4375L296.824 -19.621L156.208 107.777Z" fill="#F5F5F5"/>
<path fill-rule="evenodd" clip-rule="evenodd" d="M156.208 107.777L297.212 -19.1845L295.243 -21.3437L156.208 107.777Z" fill="#F5F5F5"/>
<path fill-rule="evenodd" clip-rule="evenodd" d="M156.208 107.777L295.637 -20.9117L293.642 -23.0467L156.208 107.777Z" fill="#F5F5F5"/>
<path fill-rule="evenodd" clip-rule="evenodd" d="M156.208 107.777L294.041 -22.6197L292.02 -24.7302L156.208 107.777Z" fill="#F5F6F6"/>
<path fill-rule="evenodd" clip-rule="evenodd" d="M156.208 107.777L292.424 -24.3081L290.377 -26.3932L156.208 107.777Z" fill="#F5F6F6"/>
<path fill-rule="evenodd" clip-rule="evenodd" d="M156.208 107.777L290.787 -25.9763L288.714 -28.0358L156.208 107.777Z" fill="#F5F6F6"/>
<path fill-rule="evenodd" clip-rule="evenodd" d="M156.208 107.777L289.129 -27.6238L287.031 -29.658L156.208 107.777Z" fill="#F5F6F6"/>
<path fill-rule="evenodd" clip-rule="evenodd" d="M156.208 107.777L287.45 -29.2513L285.328 -31.2593L156.208 107.777Z" fill="#F5F6F6"/>
<path fill-rule="evenodd" clip-rule="evenodd" d="M156.208 107.777L285.752 -30.8575L283.605 -32.8395L156.208 107.777Z" fill="#F6F6F6"/>
<path fill-rule="evenodd" clip-rule="evenodd" d="M156.208 107.777L284.034 -32.443L281.863 -34.3982L156.208 107.777Z" fill="#F6F6F6"/>
<path fill-rule="evenodd" clip-rule="evenodd" d="M156.208 107.777L282.297 -34.0074L280.102 -35.9357L156.208 107.777Z" fill="#F6F6F6"/>
<path fill-rule="evenodd" clip-rule="evenodd" d="M156.208 107.777L280.541 -35.5498L278.322 -37.451L156.208 107.777Z" fill="#F6F6F6"/>
<path fill-rule="evenodd" clip-rule="evenodd" d="M156.208 107.777L278.766 -37.0708L276.524 -38.9442L156.208 107.777Z" fill="#F6F6F6"/>
<path fill-rule="evenodd" clip-rule="evenodd" d="M156.208 107.777L276.972 -38.5697L274.707 -40.4157L156.208 107.777Z" fill="#F7F7F7"/>
<path fill-rule="evenodd" clip-rule="evenodd" d="M156.208 107.777L275.16 -40.0464L272.872 -41.8643L156.208 107.777Z" fill="#F7F7F7"/>
<path fill-rule="evenodd" clip-rule="evenodd" d="M156.208 107.777L273.33 -41.5008L271.02 -43.2899L156.208 107.777Z" fill="#F7F7F7"/>
<path fill-rule="evenodd" clip-rule="evenodd" d="M156.208 107.777L271.482 -42.9321L269.15 -44.6929L156.208 107.777Z" fill="#F7F7F7"/>
<path fill-rule="evenodd" clip-rule="evenodd" d="M156.208 107.777L269.617 -44.3407L267.263 -46.0728L156.208 107.777Z" fill="#F7F7F7"/>
<path fill-rule="evenodd" clip-rule="evenodd" d="M156.208 107.777L267.734 -45.7266L265.36 -47.4292L156.208 107.777Z" fill="#F8F8F8"/>
<path fill-rule="evenodd" clip-rule="evenodd" d="M156.208 107.777L265.835 -47.0887L263.439 -48.7624L156.208 107.777Z" fill="#F8F8F8"/>
<path fill-rule="evenodd" clip-rule="evenodd" d="M156.208 107.777L263.918 -48.4274L261.502 -50.0716L156.208 107.777Z" fill="#F8F8F8"/>
<path fill-rule="evenodd" clip-rule="evenodd" d="M156.208 107.777L261.986 -49.7427L259.55 -51.3566L156.208 107.777Z" fill="#F8F8F8"/>
<path fill-rule="evenodd" clip-rule="evenodd" d="M156.208 107.777L260.037 -51.0339L257.582 -52.6178L156.208 107.777Z" fill="#F8F8F8"/>
<path fill-rule="evenodd" clip-rule="evenodd" d="M156.208 107.777L258.073 -52.3011L255.598 -53.8545L156.208 107.777Z" fill="#F8F8F8"/>
<path fill-rule="evenodd" clip-rule="evenodd" d="M156.208 107.777L256.093 -53.5438L253.599 -55.0666L156.208 107.777Z" fill="#F8F8F8"/>
<path fill-rule="evenodd" clip-rule="evenodd" d="M156.208 107.777L254.098 -54.7619L251.585 -56.2541L156.208 107.777Z" fill="#F8F8F8"/>
<path fill-rule="evenodd" clip-rule="evenodd" d="M156.208 107.777L252.088 -55.9559L249.558 -57.4167L156.208 107.777Z" fill="#F8F8F8"/>
<path fill-rule="evenodd" clip-rule="evenodd" d="M156.208 107.777L250.064 -57.1245L247.515 -58.5544L156.208 107.777Z" fill="#F9F9F9"/>
<path fill-rule="evenodd" clip-rule="evenodd" d="M156.208 107.777L248.025 -58.2682L245.459 -59.6667L156.208 107.777Z" fill="#F9F9F9"/>
<path fill-rule="evenodd" clip-rule="evenodd" d="M156.208 107.777L245.972 -59.387L243.39 -60.7533L156.208 107.777Z" fill="#F9F9F9"/>
<path fill-rule="evenodd" clip-rule="evenodd" d="M156.208 107.777L243.906 -60.48L241.307 -61.8145L156.208 107.777Z" fill="#F9F9F9"/>
<path fill-rule="evenodd" clip-rule="evenodd" d="M156.208 107.777L241.827 -61.5477L239.211 -62.8501L156.208 107.777Z" fill="#F9F9F9"/>
<path fill-rule="evenodd" clip-rule="evenodd" d="M156.208 107.777L239.734 -62.5897L237.103 -63.8597L156.208 107.777Z" fill="#FAFAFA"/>
<path fill-rule="evenodd" clip-rule="evenodd" d="M156.208 107.777L237.629 -63.6056L234.982 -64.8434L156.208 107.777Z" fill="#FAFAFA"/>
<path fill-rule="evenodd" clip-rule="evenodd" d="M156.208 107.777L235.511 -64.5959L232.85 -65.8008L156.208 107.777Z" fill="#FAFAFA"/>
<path fill-rule="evenodd" clip-rule="evenodd" d="M156.208 107.777L233.382 -65.5597L230.705 -66.7316L156.208 107.777Z" fill="#FAFAFA"/>
<path fill-rule="evenodd" clip-rule="evenodd" d="M156.208 107.777L231.241 -66.4974L228.55 -67.6362L156.208 107.777Z" fill="#FAFAFA"/>
<path fill-rule="evenodd" clip-rule="evenodd" d="M156.208 107.777L229.088 -67.4085L226.383 -68.514L156.208 107.777Z" fill="#FBFBFB"/>
<path fill-rule="evenodd" clip-rule="evenodd" d="M156.208 107.777L226.924 -68.293L224.206 -69.3652L156.208 107.777Z" fill="#FBFBFB"/>
<path fill-rule="evenodd" clip-rule="evenodd" d="M156.208 107.777L224.75 -69.151L222.018 -70.1896L156.208 107.777Z" fill="#FBFBFB"/>
<path fill-rule="evenodd" clip-rule="evenodd" d="M156.208 107.777L222.565 -69.9816L219.821 -70.987L156.208 107.777Z" fill="#FBFBFB"/>
<path fill-rule="evenodd" clip-rule="evenodd" d="M156.208 107.777L220.37 -70.786L217.614 -71.757L156.208 107.777Z" fill="#FBFBFB"/>
<path fill-rule="evenodd" clip-rule="evenodd" d="M156.208 107.777L218.165 -71.5627L215.398 -72.5L156.208 107.777Z" fill="#FBFBFB"/>
<path fill-rule="evenodd" clip-rule="evenodd" d="M156.208 107.777L215.951 -72.3127L213.172 -73.2155L156.208 107.777Z" fill="#FBFBFB"/>
<path fill-rule="evenodd" clip-rule="evenodd" d="M156.208 107.777L213.728 -73.0348L210.938 -73.9035L156.208 107.777Z" fill="#FBFBFB"/>
<path fill-rule="evenodd" clip-rule="evenodd" d="M156.208 107.777L211.496 -73.73L208.695 -74.5641L156.208 107.777Z" fill="#FBFBFB"/>
<path fill-rule="evenodd" clip-rule="evenodd" d="M156.208 107.777L209.255 -74.397L206.445 -75.1968L156.208 107.777Z" fill="#FBFBFB"/>
<path fill-rule="evenodd" clip-rule="evenodd" d="M156.208 107.777L207.007 -75.037L204.187 -75.8018L156.208 107.777Z" fill="#FCFCFC"/>
<path fill-rule="evenodd" clip-rule="evenodd" d="M156.208 107.777L204.751 -75.6488L201.922 -76.3791L156.208 107.777Z" fill="#FCFCFC"/>
<path fill-rule="evenodd" clip-rule="evenodd" d="M156.208 107.777L202.488 -76.2331L199.65 -76.9281L156.208 107.777Z" fill="#FCFCFC"/>
<path fill-rule="evenodd" clip-rule="evenodd" d="M156.208 107.777L200.217 -76.7891L197.371 -77.4492L156.208 107.777Z" fill="#FCFCFC"/>
<path fill-rule="evenodd" clip-rule="evenodd" d="M156.208 107.777L197.94 -77.3174L195.086 -77.9426L156.208 107.777Z" fill="#FCFCFC"/>
<path fill-rule="evenodd" clip-rule="evenodd" d="M156.208 107.777L195.657 -77.8174L192.795 -78.4074L156.208 107.777Z" fill="#FDFDFD"/>
<path fill-rule="evenodd" clip-rule="evenodd" d="M156.208 107.777L193.367 -78.2891L190.498 -78.8439L156.208 107.777Z" fill="#FDFDFD"/>
<path fill-rule="evenodd" clip-rule="evenodd" d="M156.208 107.777L191.072 -78.7329L188.197 -79.2523L156.208 107.777Z" fill="#FDFDFD"/>
<path fill-rule="evenodd" clip-rule="evenodd" d="M156.208 107.777L188.772 -79.1483L185.89 -79.632L156.208 107.777Z" fill="#FDFDFD"/>
<path fill-rule="evenodd" clip-rule="evenodd" d="M156.208 107.777L186.466 -79.5353L183.579 -79.9836L156.208 107.777Z" fill="#FDFDFD"/>
<path fill-rule="evenodd" clip-rule="evenodd" d="M156.208 107.777L184.157 -79.8939L181.264 -80.3066L156.208 107.777Z" fill="#FEFEFE"/>
<path fill-rule="evenodd" clip-rule="evenodd" d="M156.208 107.777L181.842 -80.2238L178.945 -80.6011L156.208 107.777Z" fill="#FEFEFE"/>
<path fill-rule="evenodd" clip-rule="evenodd" d="M156.208 107.777L179.524 -80.5254L176.622 -80.8667L156.208 107.777Z" fill="#FEFEFE"/>
<path fill-rule="evenodd" clip-rule="evenodd" d="M156.208 107.777L177.203 -80.7983L174.297 -81.1037L156.208 107.777Z" fill="#FEFEFE"/>
<path fill-rule="evenodd" clip-rule="evenodd" d="M156.208 107.777L174.878 -81.0428L171.968 -81.3123L156.208 107.777Z" fill="#FEFEFE"/>
<path fill-rule="evenodd" clip-rule="evenodd" d="M156.208 107.777L172.551 -81.2583L169.638 -81.4922L156.208 107.777Z" fill="#FEFEFE"/>
<path fill-rule="evenodd" clip-rule="evenodd" d="M156.208 107.777L170.22 -81.4455L167.305 -81.6434L156.208 107.777Z" fill="#FEFEFE"/>
<path fill-rule="evenodd" clip-rule="evenodd" d="M156.208 107.777L167.888 -81.6038L164.971 -81.7655L156.208 107.777Z" fill="#FEFEFE"/>
<path fill-rule="evenodd" clip-rule="evenodd" d="M156.208 107.777L165.554 -81.7334L162.635 -81.8592L156.208 107.777Z" fill="#FEFEFE"/>
<path fill-rule="evenodd" clip-rule="evenodd" d="M156.208 107.777L163.218 -81.834L160.298 -81.924L156.208 107.777Z" fill="#FEFEFE"/>
<path fill-rule="evenodd" clip-rule="evenodd" d="M156.208 107.777L160.882 -81.9061L157.961 -81.9601L156.208 107.777Z" fill="white"/>
<path fill-rule="evenodd" clip-rule="evenodd" d="M156.207 107.777L158.545 -81.9492L155.623 -81.9675L156.207 107.777Z" fill="white"/>
<path fill-rule="evenodd" clip-rule="evenodd" d="M156.207 107.777V-81.9635L153.285 -81.9455L156.207 107.777Z" fill="#FFFFFE"/>
<path fill-rule="evenodd" clip-rule="evenodd" d="M156.207 107.777L153.87 -81.9492L150.948 -81.8952L156.207 107.777Z" fill="#FEFDFC"/>
<path fill-rule="evenodd" clip-rule="evenodd" d="M156.207 107.777L151.532 -81.9061L148.612 -81.8162L156.207 107.777Z" fill="#FEFDFA"/>
<path fill-rule="evenodd" clip-rule="evenodd" d="M156.207 107.777L149.196 -81.834L146.277 -81.708L156.207 107.777Z" fill="#FEFDF9"/>
<path fill-rule="evenodd" clip-rule="evenodd" d="M156.207 107.777L146.86 -81.7334L143.943 -81.5713L156.207 107.777Z" fill="#FDFBF6"/>
<path fill-rule="evenodd" clip-rule="evenodd" d="M156.207 107.777L144.527 -81.6038L141.611 -81.4056L156.207 107.777Z" fill="#FDFAF5"/>
<path fill-rule="evenodd" clip-rule="evenodd" d="M156.207 107.777L142.194 -81.4455L139.282 -81.2118L156.207 107.777Z" fill="#FCFAF3"/>
<path fill-rule="evenodd" clip-rule="evenodd" d="M156.208 107.777L139.865 -81.2583L136.955 -80.9889L156.208 107.777Z" fill="#FCF8F1"/>
<path fill-rule="evenodd" clip-rule="evenodd" d="M156.208 107.777L137.537 -81.0428L134.631 -80.7375L156.208 107.777Z" fill="#FCF7EF"/>
<path fill-rule="evenodd" clip-rule="evenodd" d="M156.207 107.777L135.212 -80.7983L132.31 -80.457L156.207 107.777Z" fill="#FBF7ED"/>
<path fill-rule="evenodd" clip-rule="evenodd" d="M156.208 107.777L132.891 -80.5254L129.993 -80.1486L156.208 107.777Z" fill="#FBF6EC"/>
<path fill-rule="evenodd" clip-rule="evenodd" d="M156.207 107.777L130.572 -80.2238L127.68 -79.8115L156.207 107.777Z" fill="#FBF6EA"/>
<path fill-rule="evenodd" clip-rule="evenodd" d="M156.208 107.777L128.258 -79.8939L125.371 -79.4456L156.208 107.777Z" fill="#FAF4E8"/>
<path fill-rule="evenodd" clip-rule="evenodd" d="M156.207 107.777L125.948 -79.5353L123.066 -79.0514L156.207 107.777Z" fill="#FAF3E6"/>
<path fill-rule="evenodd" clip-rule="evenodd" d="M156.207 107.777L123.643 -79.1483L120.768 -78.6289L156.207 107.777Z" fill="#FAF3E5"/>
<path fill-rule="evenodd" clip-rule="evenodd" d="M156.207 107.777L121.343 -78.7329L118.474 -78.1784L156.207 107.777Z" fill="#F9F2E2"/>
<path fill-rule="evenodd" clip-rule="evenodd" d="M156.208 107.777L119.048 -78.2891L116.186 -77.6995L156.208 107.777Z" fill="#F9F1E1"/>
<path fill-rule="evenodd" clip-rule="evenodd" d="M156.207 107.777L116.758 -77.8174L113.904 -77.1924L156.207 107.777Z" fill="#F9F1DF"/>
<path fill-rule="evenodd" clip-rule="evenodd" d="M156.207 107.777L114.474 -77.3174L111.628 -76.6571L156.207 107.777Z" fill="#F9EFDD"/>
<path fill-rule="evenodd" clip-rule="evenodd" d="M156.207 107.777L112.197 -76.7891L109.359 -76.0939L156.207 107.777Z" fill="#F8EEDB"/>
<path fill-rule="evenodd" clip-rule="evenodd" d="M156.207 107.777L109.927 -76.2331L107.098 -75.5029L156.207 107.777Z" fill="#F7EDD9"/>
<path fill-rule="evenodd" clip-rule="evenodd" d="M156.208 107.777L107.664 -75.6488L104.844 -74.8838L156.208 107.777Z" fill="#F7EDD7"/>
<path fill-rule="evenodd" clip-rule="evenodd" d="M156.208 107.777L105.408 -75.037L102.597 -74.2371L156.208 107.777Z" fill="#F7ECD6"/>
<path fill-rule="evenodd" clip-rule="evenodd" d="M156.208 107.777L103.16 -74.397L100.359 -73.5628L156.208 107.777Z" fill="#F7EBD4"/>
<path fill-rule="evenodd" clip-rule="evenodd" d="M156.208 107.777L100.919 -73.73L98.1294 -72.861L156.208 107.777Z" fill="#F7EAD2"/>
<path fill-rule="evenodd" clip-rule="evenodd" d="M156.208 107.777L98.6873 -73.0348L95.9082 -72.132L156.208 107.777Z" fill="#F7E9D0"/>
<path fill-rule="evenodd" clip-rule="evenodd" d="M156.208 107.777L96.464 -72.3127L93.6963 -71.3753L156.208 107.777Z" fill="#F6E9CE"/>
<path fill-rule="evenodd" clip-rule="evenodd" d="M156.208 107.777L94.2501 -71.5627L91.4941 -70.5916L156.208 107.777Z" fill="#F6E8CD"/>
<path fill-rule="evenodd" clip-rule="evenodd" d="M156.207 107.777L92.0449 -70.786L89.3013 -69.7809L156.207 107.777Z" fill="#F5E6CA"/>
<path fill-rule="evenodd" clip-rule="evenodd" d="M156.207 107.777L89.8502 -69.9816L87.1191 -68.9432L156.207 107.777Z" fill="#F5E6C9"/>
<path fill-rule="evenodd" clip-rule="evenodd" d="M156.207 107.777L87.665 -69.151L84.9468 -68.0788L156.207 107.777Z" fill="#F5E5C7"/>
<path fill-rule="evenodd" clip-rule="evenodd" d="M156.207 107.777L85.4908 -68.293L82.7861 -67.1872L156.207 107.777Z" fill="#F4E4C5"/>
<path fill-rule="evenodd" clip-rule="evenodd" d="M156.208 107.777L83.3273 -67.4085L80.6362 -66.2694L156.208 107.777Z" fill="#F4E3C3"/>
<path fill-rule="evenodd" clip-rule="evenodd" d="M156.207 107.777L81.1742 -66.4974L78.4976 -65.3252L156.207 107.777Z" fill="#F4E3C2"/>
<path fill-rule="evenodd" clip-rule="evenodd" d="M156.208 107.777L79.0333 -65.5597L76.3711 -64.3548L156.208 107.777Z" fill="#F3E2C0"/>
<path fill-rule="evenodd" clip-rule="evenodd" d="M156.207 107.777L76.9032 -64.5959L74.2563 -63.3581L156.207 107.777Z" fill="#F3E1BE"/>
<path fill-rule="evenodd" clip-rule="evenodd" d="M156.207 107.777L74.7856 -63.6056L72.1543 -62.3356L156.207 107.777Z" fill="#F3E0BC"/>
<path fill-rule="evenodd" clip-rule="evenodd" d="M156.207 107.777L72.6804 -62.5897L70.0649 -61.2873L156.207 107.777Z" fill="#F2E0BA"/>
<path fill-rule="evenodd" clip-rule="evenodd" d="M156.208 107.777L70.5884 -61.5477L67.9888 -60.2132L156.208 107.777Z" fill="#F2DFB8"/>
<path fill-rule="evenodd" clip-rule="evenodd" d="M156.207 107.777L68.5087 -60.48L65.9258 -59.1136L156.207 107.777Z" fill="#F2DDB6"/>
<path fill-rule="evenodd" clip-rule="evenodd" d="M156.207 107.777L66.4425 -59.387L63.8765 -57.9884L156.207 107.777Z" fill="#F2DDB5"/>
<path fill-rule="evenodd" clip-rule="evenodd" d="M156.208 107.777L64.3899 -58.2682L61.8418 -56.8385L156.208 107.777Z" fill="#F2DCB3"/>
<path fill-rule="evenodd" clip-rule="evenodd" d="M156.207 107.777L62.3512 -57.1245L59.8208 -55.6634L156.207 107.777Z" fill="#F1DBB1"/>
<path fill-rule="evenodd" clip-rule="evenodd" d="M156.207 107.777L60.3266 -55.9559L57.8145 -54.4637L156.207 107.777Z" fill="#F1DBAF"/>
<path fill-rule="evenodd" clip-rule="evenodd" d="M156.208 107.777L58.317 -54.7619L55.8232 -53.2391L156.208 107.777Z" fill="#F1DAAD"/>
<path fill-rule="evenodd" clip-rule="evenodd" d="M156.207 107.777L56.3221 -53.5438L53.8472 -51.9904L156.207 107.777Z" fill="#EFD8AB"/>
<path fill-rule="evenodd" clip-rule="evenodd" d="M156.207 107.777L54.3423 -52.3011L51.8867 -50.7171L156.207 107.777Z" fill="#EFD8AA"/>
<path fill-rule="evenodd" clip-rule="evenodd" d="M156.208 107.777L52.3778 -51.0339L49.9424 -49.4199L156.208 107.777Z" fill="#EED7A7"/>
<path fill-rule="evenodd" clip-rule="evenodd" d="M156.208 107.777L50.4295 -49.7427L48.0137 -48.0986L156.208 107.777Z" fill="#EED6A6"/>
<path fill-rule="evenodd" clip-rule="evenodd" d="M156.208 107.777L48.4966 -48.4274L46.1016 -46.7539L156.208 107.777Z" fill="#EED6A4"/>
<path fill-rule="evenodd" clip-rule="evenodd" d="M156.208 107.777L46.5804 -47.0887L44.2061 -45.3857L156.208 107.777Z" fill="#EED5A2"/>
<path fill-rule="evenodd" clip-rule="evenodd" d="M156.208 107.777L44.6808 -45.7266L42.3276 -43.9945L156.208 107.777Z" fill="#EED4A0"/>
<path fill-rule="evenodd" clip-rule="evenodd" d="M156.207 107.777L42.7979 -44.3407L40.4663 -42.5798L156.207 107.777Z" fill="#EED49E"/>
<path fill-rule="evenodd" clip-rule="evenodd" d="M156.208 107.777L40.933 -42.9321L38.623 -41.1427L156.208 107.777Z" fill="#EDD29C"/>
<path fill-rule="evenodd" clip-rule="evenodd" d="M156.207 107.777L39.0846 -41.5008L36.7969 -39.6828L156.207 107.777Z" fill="#EDD29B"/>
<path fill-rule="evenodd" clip-rule="evenodd" d="M156.207 107.777L37.2543 -40.0464L34.9893 -38.2005L156.207 107.777Z" fill="#EDD199"/>
<path fill-rule="evenodd" clip-rule="evenodd" d="M156.207 107.777L35.4426 -38.5697L33.2002 -36.6962L156.207 107.777Z" fill="#ECD097"/>
<path fill-rule="evenodd" clip-rule="evenodd" d="M156.207 107.777L33.6486 -37.0708L31.4297 -35.1697L156.207 107.777Z" fill="#EBD095"/>
<path fill-rule="evenodd" clip-rule="evenodd" d="M156.207 107.777L31.8738 -35.5498L29.6782 -33.6215L156.207 107.777Z" fill="#EACE93"/>
<path fill-rule="evenodd" clip-rule="evenodd" d="M156.208 107.777L30.1175 -34.0074L27.9458 -32.0519L156.208 107.777Z" fill="#EACE91"/>
<path fill-rule="evenodd" clip-rule="evenodd" d="M156.207 107.777L28.3804 -32.443L26.2329 -30.4614L156.207 107.777Z" fill="#EACD90"/>
<path fill-rule="evenodd" clip-rule="evenodd" d="M156.208 107.777L26.6627 -30.8575L24.54 -28.8495L156.208 107.777Z" fill="#EACC8E"/>
<path fill-rule="evenodd" clip-rule="evenodd" d="M156.207 107.777L24.9643 -29.2513L22.8667 -27.2171L156.207 107.777Z" fill="#EACB8C"/>
<path fill-rule="evenodd" clip-rule="evenodd" d="M156.207 107.777L23.2862 -27.6238L21.2134 -25.564L156.207 107.777Z" fill="#EACB8A"/>
<path fill-rule="evenodd" clip-rule="evenodd" d="M156.207 107.777L21.628 -25.9763L19.5811 -23.8907L156.207 107.777Z" fill="#E9CA88"/>
<path fill-rule="evenodd" clip-rule="evenodd" d="M156.207 107.777L19.9906 -24.3081L17.9692 -22.1979L156.207 107.777Z" fill="#E9C986"/>
<path fill-rule="evenodd" clip-rule="evenodd" d="M156.207 107.777L18.3737 -22.6197L16.3789 -20.485L156.207 107.777Z" fill="#E8C884"/>
<path fill-rule="evenodd" clip-rule="evenodd" d="M156.207 107.777L16.7775 -20.9117L14.8091 -18.7525L156.207 107.777Z" fill="#E8C882"/>
<path fill-rule="evenodd" clip-rule="evenodd" d="M156.208 107.777L15.2031 -19.1845L13.2612 -17.001L156.208 107.777Z" fill="#E8C781"/>
<path fill-rule="evenodd" clip-rule="evenodd" d="M156.207 107.777L13.6494 -17.4375L11.7344 -15.2303L156.207 107.777Z" fill="#E7C67F"/>
<path fill-rule="evenodd" clip-rule="evenodd" d="M156.208 107.777L12.1179 -15.6718L10.2305 -13.4412L156.208 107.777Z" fill="#E6C57D"/>
<path fill-rule="evenodd" clip-rule="evenodd" d="M156.208 107.777L10.6079 -13.8875L8.74805 -11.6338L156.208 107.777Z" fill="#E6C47B"/>
<path fill-rule="evenodd" clip-rule="evenodd" d="M156.208 107.777L9.11995 -12.0842L7.28809 -9.80778L156.208 107.777Z" fill="#E6C479"/>
<path fill-rule="evenodd" clip-rule="evenodd" d="M156.207 107.777L7.65468 -10.2633L5.85107 -7.9642L156.207 107.777Z" fill="#E5C377"/>
<path fill-rule="evenodd" clip-rule="evenodd" d="M156.208 107.777L6.21173 -8.42424L4.43652 -6.10311L156.208 107.777Z" fill="#E6C375"/>
<path fill-rule="evenodd" clip-rule="evenodd" d="M156.207 107.777L4.79144 -6.5673L3.04492 -4.22478L156.207 107.777Z" fill="#E5C173"/>
<path fill-rule="evenodd" clip-rule="evenodd" d="M156.207 107.777L3.3941 -4.69344L1.67676 -2.32927L156.207 107.777Z" fill="#E5C171"/>
<path fill-rule="evenodd" clip-rule="evenodd" d="M156.207 107.777L2.02002 -2.80209L0.332031 -0.41724L156.207 107.777Z" fill="#E4C06F"/>
<path fill-rule="evenodd" clip-rule="evenodd" d="M156.207 107.777L0.669556 -0.894209L-0.989258 1.51139L156.207 107.777Z" fill="#E4BF6D"/>
<path fill-rule="evenodd" clip-rule="evenodd" d="M156.208 107.777L-0.657206 1.03035L-2.28613 3.45605L156.208 107.777Z" fill="#E4BE6B"/>
<path fill-rule="evenodd" clip-rule="evenodd" d="M156.208 107.777L-1.96051 2.9707L-3.55957 5.4165L156.208 107.777Z" fill="#E3BE69"/>
<path fill-rule="evenodd" clip-rule="evenodd" d="M156.207 107.777L-3.23966 4.92741L-4.80859 7.39233L156.207 107.777Z" fill="#E3BD67"/>
<path fill-rule="evenodd" clip-rule="evenodd" d="M156.207 107.777L-4.49493 6.89949L-6.0332 9.38379L156.207 107.777Z" fill="#E3BC65"/>
<path fill-rule="evenodd" clip-rule="evenodd" d="M156.208 107.777L-5.72522 8.88688L-7.23242 11.3901L156.208 107.777Z" fill="#E1BB63"/>
<path fill-rule="evenodd" clip-rule="evenodd" d="M156.207 107.777L-6.93144 10.8892L-8.40771 13.4109L156.207 107.777Z" fill="#E1BA61"/>
<path fill-rule="evenodd" clip-rule="evenodd" d="M156.208 107.777L-8.11228 12.9063L-9.55762 15.4458L156.208 107.777Z" fill="#E1B95F"/>
<path fill-rule="evenodd" clip-rule="evenodd" d="M156.207 107.777L-9.26884 14.9382L-10.6831 17.4951L156.207 107.777Z" fill="#E1B95D"/>
<path fill-rule="evenodd" clip-rule="evenodd" d="M156.207 107.777L-10.4002 16.9836L-11.7827 19.5579L156.207 107.777Z" fill="#E0B85B"/>
<path fill-rule="evenodd" clip-rule="evenodd" d="M156.208 107.777L-11.5056 19.0431L-12.8564 21.6344L156.208 107.777Z" fill="#E0B759"/>
<path fill-rule="evenodd" clip-rule="evenodd" d="M156.207 107.777L-12.5866 21.1162L-13.9053 23.7238L156.207 107.777Z" fill="#E0B757"/>
<path fill-rule="evenodd" clip-rule="evenodd" d="M156.208 107.777L-13.6411 23.2022L-14.9272 25.8259L156.208 107.777Z" fill="#E0B655"/>
<path fill-rule="evenodd" clip-rule="evenodd" d="M156.207 107.777L-14.6706 25.301L-15.9243 27.9402L156.207 107.777Z" fill="#DFB553"/>
<path fill-rule="evenodd" clip-rule="evenodd" d="M156.207 107.777L-15.6733 27.4126L-16.8945 30.0669L156.207 107.777Z" fill="#DFB551"/>
<path fill-rule="evenodd" clip-rule="evenodd" d="M156.207 107.777L-16.6506 29.536L-17.8389 32.2054L156.207 107.777Z" fill="#DFB44F"/>
<path fill-rule="evenodd" clip-rule="evenodd" d="M156.208 107.777L-17.6009 31.6716L-18.7563 34.3555L156.208 107.777Z" fill="#DEB34D"/>
<path fill-rule="evenodd" clip-rule="evenodd" d="M156.208 107.777L-18.5254 33.8184L-19.6479 36.5164L156.208 107.777Z" fill="#DEB24B"/>
<path fill-rule="evenodd" clip-rule="evenodd" d="M156.208 107.777L-19.4234 35.977L-20.5122 38.6883L156.208 107.777Z" fill="#DCB149"/>
<path fill-rule="evenodd" clip-rule="evenodd" d="M156.207 107.777L-20.295 38.1461L-21.3506 40.8708L156.207 107.777Z" fill="#DCB147"/>
<path fill-rule="evenodd" clip-rule="evenodd" d="M156.207 107.777L-21.1391 40.3257L-22.1611 43.0632L156.207 107.777Z" fill="#DCB045"/>
<path fill-rule="evenodd" clip-rule="evenodd" d="M156.208 107.777L-21.9565 42.5155L-22.9443 45.2655L156.208 107.777Z" fill="#DBAF43"/>
<path fill-rule="evenodd" clip-rule="evenodd" d="M156.207 107.777L-22.7469 44.7157L-23.7012 47.4773L156.207 107.777Z" fill="#DBAF41"/>
<path fill-rule="evenodd" clip-rule="evenodd" d="M156.207 107.777L-23.5103 46.9251L-24.4302 49.6986L156.207 107.777Z" fill="#DBAE3F"/>
<path fill-rule="evenodd" clip-rule="evenodd" d="M156.207 107.777L-24.2464 49.1436L-25.1323 51.9281L156.207 107.777Z" fill="#DAAD3C"/>
<path fill-rule="evenodd" clip-rule="evenodd" d="M156.208 107.777L-24.9547 51.3714L-25.8062 54.1663L156.208 107.777Z" fill="#DAAD3A"/>
<path fill-rule="evenodd" clip-rule="evenodd" d="M156.207 107.777L-25.6365 53.6073L-26.4531 56.4128L156.207 107.777Z" fill="#D9AB38"/>
<path fill-rule="evenodd" clip-rule="evenodd" d="M156.207 107.777L-26.2899 55.8516L-27.0723 58.667L156.207 107.777Z" fill="#D9AB36"/>
<path fill-rule="evenodd" clip-rule="evenodd" d="M156.208 107.777L-26.9155 58.1038L-27.6631 60.9286L156.208 107.777Z" fill="#D9AA33"/>
<path fill-rule="evenodd" clip-rule="evenodd" d="M156.207 107.777L-27.5136 60.3637L-28.2266 63.1975L156.207 107.777Z" fill="#D8A931"/>
<path fill-rule="evenodd" clip-rule="evenodd" d="M156.207 107.777L-28.0841 62.631L-28.7617 65.4731L156.207 107.777Z" fill="#D8A82F"/>
<path fill-rule="evenodd" clip-rule="evenodd" d="M156.208 107.777L-28.6258 64.9047L-29.2686 67.7549L156.208 107.777Z" fill="#D8A82C"/>
<path fill-rule="evenodd" clip-rule="evenodd" d="M156.208 107.777L-29.1398 67.1849L-29.7476 70.043L156.208 107.777Z" fill="#D7A72A"/>
<path fill-rule="evenodd" clip-rule="evenodd" d="M156.207 107.777L-29.626 69.4715L-30.1982 72.3368L156.207 107.777Z" fill="#D7A627"/>
<path fill-rule="evenodd" clip-rule="evenodd" d="M156.208 107.777L-30.0839 71.7638L-30.6206 74.6358L156.208 107.777Z" fill="#D7A624"/>
<path fill-rule="evenodd" clip-rule="evenodd" d="M156.207 107.777L-30.5135 74.0614L-31.0151 76.9402L156.207 107.777Z" fill="#D6A521"/>
<path fill-rule="evenodd" clip-rule="evenodd" d="M156.207 107.777L-30.9149 76.3642L-31.3809 79.2491L156.207 107.777Z" fill="#D6A41E"/>
<path fill-rule="evenodd" clip-rule="evenodd" d="M156.208 107.777L-31.2872 78.672L-31.7178 81.5622L156.208 107.777Z" fill="#D5A41A"/>
<path fill-rule="evenodd" clip-rule="evenodd" d="M156.207 107.777L-31.6318 80.9843L-32.0264 83.8794L156.207 107.777Z" fill="#D5A317"/>
<path fill-rule="evenodd" clip-rule="evenodd" d="M156.207 107.777L-31.9476 83.3005L-32.3066 86.2L156.207 107.777Z" fill="#D5A313"/>
<path fill-rule="evenodd" clip-rule="evenodd" d="M156.207 107.777L-32.235 85.6204L-32.5581 88.5241L156.207 107.777Z" fill="#D4A110"/>
<path fill-rule="evenodd" clip-rule="evenodd" d="M156.207 107.777L-32.4937 87.9435L-32.7812 90.8512L156.207 107.777Z" fill="#D4A10C"/>
<path fill-rule="evenodd" clip-rule="evenodd" d="M156.207 107.777L-32.7238 90.2695L-32.9751 93.1808L156.207 107.777Z" fill="#D4A10B"/>
<path fill-rule="evenodd" clip-rule="evenodd" d="M156.207 107.777L-32.9248 92.5985L-33.1406 95.5125L156.207 107.777Z" fill="#D29F0A"/>
<path fill-rule="evenodd" clip-rule="evenodd" d="M156.207 107.777L-33.0973 94.9297L-33.2773 97.8464L156.207 107.777Z" fill="#D29F08"/>
<path fill-rule="evenodd" clip-rule="evenodd" d="M156.208 107.777L-33.2413 97.2627L-33.3853 100.181L156.208 107.777Z" fill="#D19E07"/>
<path fill-rule="evenodd" clip-rule="evenodd" d="M156.208 107.777L-33.3562 99.5978L-33.4644 102.517L156.208 107.777Z" fill="#D19D05"/>
<path fill-rule="evenodd" clip-rule="evenodd" d="M156.207 107.777L-33.4428 101.934L-33.5146 104.855L156.207 107.777Z" fill="#D19C03"/>
<path fill-rule="evenodd" clip-rule="evenodd" d="M156.207 107.777L-33.5004 104.27L-33.5366 107.192L156.207 107.777Z" fill="#D09C02"/>
<path fill-rule="evenodd" clip-rule="evenodd" d="M156.208 107.777L-33.5293 106.608V108.945L156.208 107.777Z" fill="#CF9A00"/>
</g>
<path d="M0.20752 187.727V27.8265C0.20752 12.3988 13.2306 -0.223395 29.1476 -0.223395H283.267C299.185 -0.223395 312.208 12.3988 312.208 27.8265V187.727C312.208 203.155 299.185 215.777 283.267 215.777H29.1476C13.2306 215.777 0.20752 203.155 0.20752 187.727Z" stroke="#1A1A18" stroke-width="0.288" stroke-miterlimit="22.9256"/>
<path fill-rule="evenodd" clip-rule="evenodd" d="M159.587 52.5045C158.004 52.5045 154.139 53.0827 154.139 56.0651C154.139 57.8609 155.935 58.1349 155.935 58.1349V74.7829H162.752V58.1349C162.752 58.1349 164.853 57.2523 164.853 55.9741C164.853 53.9043 162.265 52.5045 159.587 52.5045Z" fill="white"/>
<path d="M159.587 52.5045C158.004 52.5045 154.139 53.0827 154.139 56.0651C154.139 57.8609 155.935 58.1349 155.935 58.1349V74.7829H162.752V58.1349C162.752 58.1349 164.853 57.2523 164.853 55.9741C164.853 53.9043 162.265 52.5045 159.587 52.5045Z" stroke="#1A1A18" stroke-width="1.248" stroke-miterlimit="22.9256"/>
<path fill-rule="evenodd" clip-rule="evenodd" d="M159.587 59.0782C156.665 59.0782 154.261 57.6481 154.261 55.8826C154.261 54.087 156.665 52.6564 159.587 52.6564C162.54 52.6564 164.913 54.087 164.913 55.8826C164.913 57.6481 162.54 59.0782 159.587 59.0782Z" fill="white"/>
<path d="M159.587 59.0782C156.665 59.0782 154.261 57.6481 154.261 55.8826C154.261 54.087 156.665 52.6564 159.587 52.6564C162.54 52.6564 164.913 54.087 164.913 55.8826C164.913 57.6481 162.54 59.0782 159.587 59.0782Z" stroke="#1A1A18" stroke-width="1.248" stroke-miterlimit="22.9256"/>
<path d="M155.935 59.048L162.752 62.2133" stroke="#1A1A18" stroke-width="1.248" stroke-miterlimit="22.9256"/>
<path d="M155.935 61.7261L162.752 64.8915" stroke="#1A1A18" stroke-width="1.248" stroke-miterlimit="22.9256"/>
<path d="M155.935 64.1001L162.752 67.2654" stroke="#1A1A18" stroke-width="1.248" stroke-miterlimit="22.9256"/>
<path d="M155.935 66.5654L162.752 69.7307" stroke="#1A1A18" stroke-width="1.248" stroke-miterlimit="22.9256"/>
<path d="M155.935 69.0309L162.752 72.1962" stroke="#1A1A18" stroke-width="1.248" stroke-miterlimit="22.9256"/>
<path d="M155.935 71.709L162.752 74.8744" stroke="#1A1A18" stroke-width="1.248" stroke-miterlimit="22.9256"/>
<path d="M160.987 58.9262L162.752 59.8395" stroke="#1A1A18" stroke-width="1.248" stroke-miterlimit="22.9256"/>
<path d="M156.178 58.2871V74.7829" stroke="#1A1A18" stroke-width="1.248" stroke-miterlimit="22.9256"/>
<path fill-rule="evenodd" clip-rule="evenodd" d="M158.887 74.8439L162.478 74.783C162.478 74.783 166.618 75.0876 168.596 75.6659C170.574 76.2744 174.348 77.2484 174.348 79.744C174.348 81.5093 174.044 83.6094 171.761 83.6094C169.692 83.6094 169.783 82.2094 169.692 81.4179C169.6 80.6268 169.783 80.2312 169.783 80.2312C169.783 80.2312 169.387 79.4398 166.922 79.4398C165.339 79.4398 158.887 79.3483 158.887 79.3483C158.887 79.3483 152.283 79.4398 150.67 79.4398C148.204 79.4398 147.808 80.2312 147.808 80.2312C147.808 80.2312 148.022 80.6268 147.9 81.4179C147.808 82.2094 147.9 83.6094 145.83 83.6094C143.548 83.6094 143.243 81.5093 143.243 79.744C143.243 77.2484 147.017 76.2744 148.996 75.6659C150.974 75.0876 155.143 74.783 155.143 74.783L158.887 74.8439Z" fill="white"/>
<path d="M158.887 74.8439L162.478 74.783C162.478 74.783 166.618 75.0876 168.596 75.6659C170.574 76.2744 174.348 77.2484 174.348 79.744C174.348 81.5093 174.044 83.6094 171.761 83.6094C169.692 83.6094 169.783 82.2094 169.692 81.4179C169.6 80.6268 169.783 80.2312 169.783 80.2312C169.783 80.2312 169.387 79.4398 166.922 79.4398C165.339 79.4398 158.887 79.3483 158.887 79.3483C158.887 79.3483 152.283 79.4398 150.67 79.4398C148.204 79.4398 147.808 80.2312 147.808 80.2312C147.808 80.2312 148.022 80.6268 147.9 81.4179C147.808 82.2094 147.9 83.6094 145.83 83.6094C143.548 83.6094 143.243 81.5093 143.243 79.744C143.243 77.2484 147.017 76.2744 148.996 75.6659C150.974 75.0876 155.143 74.783 155.143 74.783L158.887 74.8439Z" stroke="#1A1A18" stroke-width="1.248" stroke-miterlimit="22.9256"/>
<path fill-rule="evenodd" clip-rule="evenodd" d="M155.234 79.3482V159.454C155.234 159.454 155.295 161.676 159.343 162.863C159.343 162.863 163.148 161.889 163.056 159.454C163.056 159.393 163.056 79.4397 163.056 79.4397L155.234 79.3482Z" fill="white"/>
<path d="M155.234 79.3482V159.454C155.234 159.454 155.295 161.676 159.343 162.863C159.343 162.863 163.148 161.889 163.056 159.454C163.056 159.393 163.056 79.4397 163.056 79.4397L155.234 79.3482Z" stroke="#1A1A18" stroke-width="0.864" stroke-miterlimit="22.9256"/>
<path d="M159.343 82.6658V162.863" stroke="#1A1A18" stroke-width="0.384" stroke-miterlimit="22.9256"/>
<path d="M163.056 79.4397L159.343 82.6658L155.234 79.3482" stroke="#1A1A18" stroke-width="1.248" stroke-miterlimit="22.9256"/>
<path d="M101.101 90.9264V89.1503C104.037 89.3182 107.412 89.4301 111.221 89.4864C115.052 89.4301 118.46 89.3182 121.453 89.1503L121.789 95.7741L120.1 95.8701L119.917 94.0861C119.829 93.0623 119.468 92.3501 118.836 91.9741C118.204 91.5983 117.348 91.4064 116.261 91.4064H109.989V102.638L117.133 102.446C117.932 102.382 118.533 102.238 118.932 102.014C119.332 101.782 119.533 101.278 119.533 100.478V99.1741H121.156C121.156 100.486 121.125 101.518 121.06 102.262C121.173 104.39 121.269 106.198 121.357 107.678H119.62V105.998C119.62 104.886 118.892 104.326 117.421 104.326L110.173 104.126V111.91C110.173 112.87 110.236 113.646 110.357 114.246C110.484 114.846 110.772 115.326 111.212 115.686C111.661 116.046 112.316 116.222 113.197 116.222H118.132C119.748 116.222 120.837 115.678 121.413 114.598C121.981 113.518 122.3 112.214 122.365 110.702H124.132L123.22 118.478C118.677 118.222 115.301 118.094 113.093 118.094C109.58 118.094 105.58 118.254 101.101 118.574V116.702H103.885C105.108 116.702 105.924 116.414 106.317 115.83C106.709 115.246 106.909 114.326 106.909 113.054V98.4141C106.909 96.4861 106.828 94.9262 106.677 93.7421C106.517 92.5583 106.149 91.7503 105.565 91.3103C105.357 91.0541 104.62 90.9264 103.357 90.9264H101.101Z" fill="#1A1A18"/>
<path d="M127.94 98.318L128.036 104.03H126.404L126.604 95.342C127.964 95.478 130.212 95.6221 133.364 95.7741C136.764 95.6221 139.164 95.478 140.572 95.342L140.852 96.446C140.212 96.6542 139.484 97.2223 138.668 98.158C137.852 99.0943 137.076 100.254 136.34 101.638C135.604 103.022 135.004 104.51 134.54 106.118C134.076 107.718 133.844 109.246 133.844 110.702C133.996 114.382 135.436 116.222 138.172 116.222C139.98 116.222 141.604 115.598 143.028 114.35C144.46 113.094 145.564 111.478 146.348 109.502C147.132 107.526 147.516 105.494 147.516 103.406V95.342H151.844C151.172 97.1342 150.788 98.942 150.692 100.766C150.788 102.422 151.172 104.198 151.844 106.094C151.588 106.094 151.332 106.126 151.084 106.182C150.476 106.094 149.908 105.87 149.396 105.518C148.62 109.318 146.972 112.374 144.452 114.694C141.924 117.014 138.988 118.278 135.628 118.478H131.876C131.044 117.046 130.508 115.998 130.26 115.326C130.004 114.654 129.86 113.638 129.812 112.286C129.812 110.526 130.276 108.606 131.196 106.526C132.116 104.454 133.124 102.59 134.212 100.934C135.3 99.278 135.932 98.406 136.108 98.318H127.94Z" fill="#1A1A18"/>
<path d="M167.692 110.214L169.18 110.414C169.18 111.078 168.98 112.054 168.588 113.334C168.188 114.622 167.38 115.846 166.148 117.014C164.916 118.182 163.172 118.766 160.916 118.766C159.284 118.766 157.94 118.342 156.884 117.486C155.828 116.638 155.06 115.502 154.58 114.07C154.1 112.646 153.86 111.062 153.86 109.31C153.956 107.47 154.156 105.742 154.468 104.134C154.78 102.534 155.268 101.038 155.916 99.6541C156.572 98.2621 157.436 97.1502 158.516 96.3022C159.588 95.4543 160.884 95.0062 162.404 94.9582C163.724 94.9582 164.788 95.2223 165.604 95.7581C166.412 96.2941 166.996 97.0222 167.348 97.9342C167.7 98.8462 167.876 99.8861 167.876 101.054C167.876 102.054 167.684 103.39 167.3 105.078C164.156 106.126 160.836 106.854 157.356 107.246C157.34 107.246 157.276 107.806 157.172 108.926C157.356 113.838 159.036 116.366 162.212 116.51C163.188 116.51 164.1 116.238 164.948 115.686C165.788 115.134 166.46 114.398 166.948 113.486C167.444 112.574 167.692 111.614 167.692 110.606V110.214ZM157.548 105.702L161.78 105.078C162.78 104.886 163.564 104.374 164.116 103.542C164.668 102.718 164.948 101.758 164.948 100.662C164.948 99.4221 164.796 98.3744 164.484 97.5263C164.18 96.6782 163.484 96.2541 162.404 96.2541C160.796 96.2941 159.588 97.3981 158.788 99.5744C157.98 101.742 157.54 103.71 157.452 105.47C157.492 105.518 157.516 105.574 157.532 105.614C157.54 105.654 157.548 105.686 157.548 105.702Z" fill="#1A1A18"/>
<path d="M186.308 119.246L185.548 118.662C186.66 114.614 187.284 108.086 187.412 99.0861C185.188 101.726 183.676 103.55 182.876 104.566C182.068 105.574 181.22 106.798 180.324 108.246C179.428 109.686 178.676 111.254 178.06 112.958C177.436 114.654 177.004 116.526 176.756 118.574H173.828L174.972 98.214L171.236 99.0861V97.2061C174.116 97.2061 176.708 96.4622 179.004 94.9581L177.38 110.214C178.372 108.35 179.404 106.63 180.468 105.046C181.54 103.47 182.708 101.926 183.972 100.414C185.228 98.9023 186.7 97.2621 188.372 95.4861H191.003L189.86 115.838L193.316 115.406V117.078C190.924 117.166 188.588 117.886 186.308 119.246Z" fill="#1A1A18"/>
<path d="M198.308 97.4062L195.188 97.5501V95.4862L198.508 95.5821L198.788 90.9264L202.444 90.0624L201.868 95.5821L206.964 95.4862L206.868 97.4542L201.388 97.4062C201.3 97.6064 201.148 102.166 200.956 111.078C200.956 112.486 200.996 113.558 201.068 114.294C201.14 115.022 201.34 115.622 201.668 116.07C202.004 116.526 202.524 116.766 203.252 116.798C203.3 116.75 203.34 116.718 203.38 116.71C203.412 116.702 203.436 116.694 203.452 116.694C204.556 116.59 205.46 116.062 206.156 115.118C206.852 114.166 207.196 112.886 207.196 111.278H208.548C208.548 112.734 208.268 114.022 207.724 115.15C207.18 116.278 206.404 117.142 205.412 117.758C204.42 118.366 203.268 118.67 201.964 118.67C200.916 118.67 199.996 118.51 199.204 118.182C198.412 117.854 197.86 117.59 197.54 117.374C197.516 116.854 197.484 116.078 197.452 115.062C197.42 114.046 197.388 113.286 197.356 112.766C197.428 109.462 197.74 104.342 198.308 97.4062Z" fill="#1A1A18"/>
</svg>
