<svg width="53" height="24" viewBox="0 0 53 24" fill="none" xmlns="http://www.w3.org/2000/svg">
<path d="M307.447 -198.407V79.1559H-424.589V-198.407H307.447Z" stroke="#1A1A18" stroke-width="2.6664" stroke-miterlimit="22.9256"/>
<path fill-rule="evenodd" clip-rule="evenodd" d="M26.2031 10.557L38.8448 13.8406L51.4866 17.1239L38.8448 20.4076L26.2031 23.6913L13.5616 20.4076L0.919922 17.1239L13.5616 13.8406L26.2031 10.557Z" fill="#B1B2B2"/>
<path d="M26.2031 10.557L38.8448 13.8406L51.4866 17.1239L38.8448 20.4076L26.2031 23.6913L13.5616 20.4076L0.919922 17.1239L13.5616 13.8406L26.2031 10.557Z" stroke="#1A1A18" stroke-width="0.288" stroke-miterlimit="22.9256"/>
<path fill-rule="evenodd" clip-rule="evenodd" d="M51.3711 17.7174L45.9016 6.74207H24.1199L29.5892 17.7174H51.3711Z" fill="#B1B2B2"/>
<path fill-rule="evenodd" clip-rule="evenodd" d="M0.350098 17.5411L5.81982 6.5658H27.6017L22.132 17.5411H0.350098Z" fill="#B1B2B2"/>
<mask id="mask0_2_29689" style="mask-type:luminance" maskUnits="userSpaceOnUse" x="6" y="1" width="41" height="12">
<path d="M26.4006 1.04053L36.5207 3.89148L46.6403 6.742L36.5207 9.59294L26.4006 12.4435L16.2805 9.59294L6.1604 6.742L16.2805 3.89148L26.4006 1.04053Z" fill="white"/>
</mask>
<g mask="url(#mask0_2_29689)">
<path fill-rule="evenodd" clip-rule="evenodd" d="M26.4006 6.74196L26.4653 27.7705L26.8538 27.7656L26.4006 6.74196Z" fill="#CCCCCD"/>
<path fill-rule="evenodd" clip-rule="evenodd" d="M26.4006 6.74192L26.7891 27.7667L27.1128 27.7583L26.4006 6.74192Z" fill="#CCCCCC"/>
<path fill-rule="evenodd" clip-rule="evenodd" d="M26.4006 6.74196L27.0481 27.7604L27.3715 27.7482L26.4006 6.74196Z" fill="#CCCCCC"/>
<path fill-rule="evenodd" clip-rule="evenodd" d="M26.4006 6.74207L27.307 27.7506L27.6305 27.7347L26.4006 6.74207Z" fill="#CBCCCC"/>
<path fill-rule="evenodd" clip-rule="evenodd" d="M26.4006 6.74202L27.5658 27.738L27.889 27.718L26.4006 6.74202Z" fill="#CBCBCC"/>
<path fill-rule="evenodd" clip-rule="evenodd" d="M26.4006 6.74207L27.8243 27.7218L28.1471 27.6981L26.4006 6.74207Z" fill="#CACBCB"/>
<path fill-rule="evenodd" clip-rule="evenodd" d="M26.4006 6.74207L28.0825 27.703L28.4053 27.675L26.4006 6.74207Z" fill="#CACACA"/>
<path fill-rule="evenodd" clip-rule="evenodd" d="M26.4006 6.742L28.3406 27.6805L28.663 27.6484L26.4006 6.742Z" fill="#CACACA"/>
<path fill-rule="evenodd" clip-rule="evenodd" d="M26.4006 6.74196L28.5985 27.6549L28.9205 27.6189L26.4006 6.74196Z" fill="#C9C9C9"/>
<path fill-rule="evenodd" clip-rule="evenodd" d="M26.4006 6.74196L28.8562 27.6261L29.1774 27.5865L26.4006 6.74196Z" fill="#C9C9CA"/>
<path fill-rule="evenodd" clip-rule="evenodd" d="M26.4006 6.74194L29.1133 27.5944L29.4341 27.5505L26.4006 6.74194Z" fill="#C8C9C9"/>
<path fill-rule="evenodd" clip-rule="evenodd" d="M26.4006 6.74196L29.3698 27.5596L29.6903 27.5116L26.4006 6.74196Z" fill="#C8C8C9"/>
<path fill-rule="evenodd" clip-rule="evenodd" d="M26.4006 6.742L29.6261 27.5215L29.9458 27.4697L26.4006 6.742Z" fill="#C8C8C8"/>
<path fill-rule="evenodd" clip-rule="evenodd" d="M26.4006 6.74198L29.882 27.4799L30.201 27.4244L26.4006 6.74198Z" fill="#C7C7C7"/>
<path fill-rule="evenodd" clip-rule="evenodd" d="M26.4006 6.74192L30.1372 27.4357L30.4553 27.3759L26.4006 6.74192Z" fill="#C7C7C7"/>
<path fill-rule="evenodd" clip-rule="evenodd" d="M26.4006 6.74204L30.3918 27.3881L30.7093 27.3246L26.4006 6.74204Z" fill="#C6C7C7"/>
<path fill-rule="evenodd" clip-rule="evenodd" d="M26.4006 6.74196L30.6458 27.337L30.9625 27.2697L26.4006 6.74196Z" fill="#C6C6C7"/>
<path fill-rule="evenodd" clip-rule="evenodd" d="M26.4006 6.74198L30.899 27.2833L31.215 27.2119L26.4006 6.74198Z" fill="#C6C6C6"/>
<path fill-rule="evenodd" clip-rule="evenodd" d="M26.4006 6.74192L31.1519 27.2262L31.4668 27.151L26.4006 6.74192Z" fill="#C5C5C6"/>
<path fill-rule="evenodd" clip-rule="evenodd" d="M26.4006 6.742L31.4039 27.1661L31.7181 27.0872L26.4006 6.742Z" fill="#C4C5C5"/>
<path fill-rule="evenodd" clip-rule="evenodd" d="M26.4006 6.74196L31.6553 27.103L31.9682 27.0202L26.4006 6.74196Z" fill="#C4C4C4"/>
<path fill-rule="evenodd" clip-rule="evenodd" d="M26.4006 6.74204L31.9056 27.037L32.2177 26.9501L26.4006 6.74204Z" fill="#C4C4C5"/>
<path fill-rule="evenodd" clip-rule="evenodd" d="M26.4006 6.74207L32.1554 26.9674L32.4661 26.8771L26.4006 6.74207Z" fill="#C4C4C5"/>
<path fill-rule="evenodd" clip-rule="evenodd" d="M26.4006 6.74196L32.4041 26.8948L32.7135 26.8006L26.4006 6.74196Z" fill="#C3C4C4"/>
<path fill-rule="evenodd" clip-rule="evenodd" d="M26.4006 6.74196L32.6515 26.8196L32.9604 26.7213L26.4006 6.74196Z" fill="#C3C3C4"/>
<path fill-rule="evenodd" clip-rule="evenodd" d="M26.4006 6.74202L32.8988 26.7411L33.2061 26.639L26.4006 6.74202Z" fill="#C3C3C3"/>
<path fill-rule="evenodd" clip-rule="evenodd" d="M26.4006 6.74196L33.1445 26.6593L33.4506 26.5536L26.4006 6.74196Z" fill="#C2C2C2"/>
<path fill-rule="evenodd" clip-rule="evenodd" d="M26.4006 6.74202L33.3894 26.5747L33.6939 26.4655L26.4006 6.74202Z" fill="#C2C2C3"/>
<path fill-rule="evenodd" clip-rule="evenodd" d="M26.4006 6.74196L33.6331 26.4873L33.9366 26.374L26.4006 6.74196Z" fill="#C1C2C2"/>
<path fill-rule="evenodd" clip-rule="evenodd" d="M26.4006 6.74192L33.8758 26.3966L34.1778 26.2794L26.4006 6.74192Z" fill="#C0C1C2"/>
<path fill-rule="evenodd" clip-rule="evenodd" d="M26.4006 6.74192L34.1173 26.3029L34.4178 26.1823L26.4006 6.74192Z" fill="#C1C1C1"/>
<path fill-rule="evenodd" clip-rule="evenodd" d="M26.4006 6.742L34.3577 26.2065L34.657 26.0823L26.4006 6.742Z" fill="#C0C0C1"/>
<path fill-rule="evenodd" clip-rule="evenodd" d="M26.4006 6.742L34.5969 26.1068L34.8943 25.9791L26.4006 6.742Z" fill="#BFC0C0"/>
<path fill-rule="evenodd" clip-rule="evenodd" d="M26.4006 6.74198L34.835 26.0044L35.131 25.8728L26.4006 6.74198Z" fill="#BFBFC0"/>
<path fill-rule="evenodd" clip-rule="evenodd" d="M26.4006 6.74194L35.0717 25.8993L35.3657 25.7635L26.4006 6.74194Z" fill="#BFBFC0"/>
<path fill-rule="evenodd" clip-rule="evenodd" d="M26.4006 6.74196L35.3071 25.7908L35.5997 25.6517L26.4006 6.74196Z" fill="#BEBFBF"/>
<path fill-rule="evenodd" clip-rule="evenodd" d="M26.4006 6.74207L35.541 25.6798L35.8317 25.5373L26.4006 6.74207Z" fill="#BEBEBF"/>
<path fill-rule="evenodd" clip-rule="evenodd" d="M26.4006 6.74194L35.7736 25.5656L36.0626 25.4197L26.4006 6.74194Z" fill="#BDBEBE"/>
<path fill-rule="evenodd" clip-rule="evenodd" d="M26.4006 6.74204L36.0048 25.4489L36.2921 25.2991L26.4006 6.74204Z" fill="#BCBDBD"/>
<path fill-rule="evenodd" clip-rule="evenodd" d="M26.4006 6.74204L36.2346 25.329L36.5199 25.1759L26.4006 6.74204Z" fill="#BCBDBD"/>
<path fill-rule="evenodd" clip-rule="evenodd" d="M26.4006 6.742L36.4629 25.2065L36.7463 25.0496L26.4006 6.742Z" fill="#BCBCBD"/>
<path fill-rule="evenodd" clip-rule="evenodd" d="M26.4006 6.74198L36.6897 25.0811L36.9709 24.9208L26.4006 6.74198Z" fill="#BBBCBD"/>
<path fill-rule="evenodd" clip-rule="evenodd" d="M26.4006 6.74207L36.9145 24.953L37.1942 24.7893L26.4006 6.74207Z" fill="#BBBCBC"/>
<path fill-rule="evenodd" clip-rule="evenodd" d="M26.4006 6.742L37.1383 24.8221L37.4157 24.6551L26.4006 6.742Z" fill="#BABBBB"/>
<path fill-rule="evenodd" clip-rule="evenodd" d="M26.4006 6.74194L37.3601 24.6884L37.6353 24.5178L26.4006 6.74194Z" fill="#BABBBB"/>
<path fill-rule="evenodd" clip-rule="evenodd" d="M26.4006 6.742L37.5805 24.5519L37.8538 24.378L26.4006 6.742Z" fill="#B9BABB"/>
<path fill-rule="evenodd" clip-rule="evenodd" d="M26.4006 6.74202L37.7989 24.4128L38.0699 24.2356L26.4006 6.74202Z" fill="#B9B9BA"/>
<path fill-rule="evenodd" clip-rule="evenodd" d="M26.4006 6.74204L38.016 24.2711L38.2846 24.0905L26.4006 6.74204Z" fill="#B8B9BA"/>
<path fill-rule="evenodd" clip-rule="evenodd" d="M26.4006 6.74192L38.2309 24.1266L38.4974 23.943L26.4006 6.74192Z" fill="#B8B9B9"/>
<path fill-rule="evenodd" clip-rule="evenodd" d="M26.4006 6.742L38.4441 23.9797L38.7083 23.7925L26.4006 6.742Z" fill="#B7B8B8"/>
<path fill-rule="evenodd" clip-rule="evenodd" d="M26.4006 6.74194L38.6554 23.83L38.9177 23.6394L26.4006 6.74194Z" fill="#B7B8B8"/>
<path fill-rule="evenodd" clip-rule="evenodd" d="M26.4006 6.74198L38.8652 23.6777L39.1248 23.4841L26.4006 6.74198Z" fill="#B6B7B8"/>
<path fill-rule="evenodd" clip-rule="evenodd" d="M26.4006 6.74202L39.073 23.5228L39.3301 23.3262L26.4006 6.74202Z" fill="#B5B6B7"/>
<path fill-rule="evenodd" clip-rule="evenodd" d="M26.4006 6.742L39.2786 23.3655L39.5334 23.1656L26.4006 6.742Z" fill="#B5B6B6"/>
<path fill-rule="evenodd" clip-rule="evenodd" d="M26.4006 6.74196L39.4823 23.2056L39.7349 23.0026L26.4006 6.74196Z" fill="#B5B6B6"/>
<path fill-rule="evenodd" clip-rule="evenodd" d="M26.4006 6.74202L39.6842 23.0431L39.934 22.8371L26.4006 6.74202Z" fill="#B4B5B5"/>
<path fill-rule="evenodd" clip-rule="evenodd" d="M26.4006 6.74202L39.8841 22.8783L40.1313 22.669L26.4006 6.74202Z" fill="#B4B4B5"/>
<path fill-rule="evenodd" clip-rule="evenodd" d="M26.4006 6.742L40.0818 22.7109L40.3263 22.4988L26.4006 6.742Z" fill="#B3B4B5"/>
<path fill-rule="evenodd" clip-rule="evenodd" d="M26.4006 6.74192L40.2775 22.5411L40.5194 22.3257L26.4006 6.74192Z" fill="#B3B3B4"/>
<path fill-rule="evenodd" clip-rule="evenodd" d="M26.4006 6.74196L40.471 22.3688L40.7104 22.1508L26.4006 6.74196Z" fill="#B2B3B3"/>
<path fill-rule="evenodd" clip-rule="evenodd" d="M26.4006 6.74202L40.6628 22.1947L40.8993 21.9735L26.4006 6.74202Z" fill="#B2B3B3"/>
<path fill-rule="evenodd" clip-rule="evenodd" d="M26.4006 6.74196L40.8521 22.0177L41.0857 21.7936L26.4006 6.74196Z" fill="#B1B2B2"/>
<path fill-rule="evenodd" clip-rule="evenodd" d="M26.4006 6.742L41.0391 21.8381L41.2701 21.6115L26.4006 6.742Z" fill="#B1B2B2"/>
<path fill-rule="evenodd" clip-rule="evenodd" d="M26.4006 6.74204L41.224 21.6569L41.4522 21.4274L26.4006 6.74204Z" fill="#B1B2B2"/>
<path fill-rule="evenodd" clip-rule="evenodd" d="M26.4006 6.74194L41.4065 21.473L41.6318 21.2406L26.4006 6.74194Z" fill="#B0B1B2"/>
<path fill-rule="evenodd" clip-rule="evenodd" d="M26.4006 6.74202L41.5868 21.2872L41.8094 21.052L26.4006 6.74202Z" fill="#AFB0B1"/>
<path fill-rule="evenodd" clip-rule="evenodd" d="M26.4006 6.74207L41.7647 21.099L41.9843 20.8613L26.4006 6.74207Z" fill="#AFB0B1"/>
<path fill-rule="evenodd" clip-rule="evenodd" d="M26.4006 6.74192L41.9406 20.9083L42.1571 20.6679L26.4006 6.74192Z" fill="#AFB0B0"/>
<path fill-rule="evenodd" clip-rule="evenodd" d="M26.4006 6.74194L42.1141 20.7159L42.3276 20.4726L26.4006 6.74194Z" fill="#AEAFAF"/>
<path fill-rule="evenodd" clip-rule="evenodd" d="M26.4006 6.742L42.2849 20.5215L42.4954 20.2753L26.4006 6.742Z" fill="#ADAEAF"/>
<path fill-rule="evenodd" clip-rule="evenodd" d="M26.4006 6.742L42.4534 20.325L42.6609 20.0762L26.4006 6.742Z" fill="#ADAEAE"/>
<path fill-rule="evenodd" clip-rule="evenodd" d="M26.4006 6.74196L42.6194 20.1261L42.8242 19.8748L26.4006 6.74196Z" fill="#ADADAE"/>
<path fill-rule="evenodd" clip-rule="evenodd" d="M26.4006 6.74198L42.783 19.925L42.9845 19.6713L26.4006 6.74198Z" fill="#ACADAD"/>
<path fill-rule="evenodd" clip-rule="evenodd" d="M26.4006 6.742L42.9443 19.7224L43.1429 19.4661L26.4006 6.742Z" fill="#ABACAD"/>
<path fill-rule="evenodd" clip-rule="evenodd" d="M26.4006 6.74196L43.1031 19.5176L43.2982 19.259L26.4006 6.74196Z" fill="#ABACAC"/>
<path fill-rule="evenodd" clip-rule="evenodd" d="M26.4006 6.74198L43.2593 19.3108L43.4513 19.05L26.4006 6.74198Z" fill="#AAABAC"/>
<path fill-rule="evenodd" clip-rule="evenodd" d="M26.4006 6.74202L43.4126 19.1022L43.6013 18.8388L26.4006 6.74202Z" fill="#AAABAB"/>
<path fill-rule="evenodd" clip-rule="evenodd" d="M26.4006 6.74198L43.5636 18.8917L43.749 18.626L26.4006 6.74198Z" fill="#A9AAAB"/>
<path fill-rule="evenodd" clip-rule="evenodd" d="M26.4006 6.74198L43.7121 18.6793L43.8942 18.4113L26.4006 6.74198Z" fill="#A8A9AA"/>
<path fill-rule="evenodd" clip-rule="evenodd" d="M26.4006 6.74202L43.858 18.465L44.0366 18.1951L26.4006 6.74202Z" fill="#A8A9A9"/>
<path fill-rule="evenodd" clip-rule="evenodd" d="M26.4006 6.74194L44.0007 18.2491L44.1765 17.977L26.4006 6.74194Z" fill="#A7A8A9"/>
<path fill-rule="evenodd" clip-rule="evenodd" d="M26.4006 6.74202L44.1414 18.0315L44.3133 17.7571L26.4006 6.74202Z" fill="#A7A8A9"/>
<path fill-rule="evenodd" clip-rule="evenodd" d="M26.4006 6.74202L44.2789 17.8119L44.448 17.5356L26.4006 6.74202Z" fill="#A6A7A8"/>
<path fill-rule="evenodd" clip-rule="evenodd" d="M26.4006 6.742L44.4142 17.5908L44.5794 17.3123L26.4006 6.742Z" fill="#A6A7A7"/>
<path fill-rule="evenodd" clip-rule="evenodd" d="M26.4006 6.74202L44.5465 17.3682L44.7083 17.0878L26.4006 6.74202Z" fill="#A5A6A7"/>
<path fill-rule="evenodd" clip-rule="evenodd" d="M26.4006 6.74207L44.6758 17.1437L44.8342 16.8614L26.4006 6.74207Z" fill="#A5A6A6"/>
<path fill-rule="evenodd" clip-rule="evenodd" d="M26.4006 6.742L44.8027 16.9176L44.9578 16.6335L26.4006 6.742Z" fill="#A4A5A6"/>
<path fill-rule="evenodd" clip-rule="evenodd" d="M26.4006 6.742L44.9268 16.6906L45.078 16.404L26.4006 6.742Z" fill="#A3A5A5"/>
<path fill-rule="evenodd" clip-rule="evenodd" d="M26.4006 6.74207L45.0477 16.4615L45.1958 16.1731L26.4006 6.74207Z" fill="#A3A4A5"/>
<path fill-rule="evenodd" clip-rule="evenodd" d="M26.4006 6.74202L45.1659 16.231L45.3103 15.9411L26.4006 6.74202Z" fill="#A2A3A4"/>
<path fill-rule="evenodd" clip-rule="evenodd" d="M26.4006 6.74196L45.2817 15.9988L45.4222 15.7074L26.4006 6.74196Z" fill="#A2A3A3"/>
<path fill-rule="evenodd" clip-rule="evenodd" d="M26.4006 6.74202L45.3943 15.7656L45.5315 15.4724L26.4006 6.74202Z" fill="#A1A2A3"/>
<path fill-rule="evenodd" clip-rule="evenodd" d="M26.4006 6.74194L45.5039 15.5309L45.6373 15.2361L26.4006 6.74194Z" fill="#A1A2A2"/>
<path fill-rule="evenodd" clip-rule="evenodd" d="M26.4006 6.74196L45.6109 15.295L45.7405 14.9984L26.4006 6.74196Z" fill="#A0A1A1"/>
<path fill-rule="evenodd" clip-rule="evenodd" d="M26.4006 6.742L45.7148 15.0577L45.841 14.7595L26.4006 6.742Z" fill="#9FA0A1"/>
<path fill-rule="evenodd" clip-rule="evenodd" d="M26.4006 6.742L45.8157 14.8192L45.9382 14.5192L26.4006 6.742Z" fill="#9FA0A1"/>
<path fill-rule="evenodd" clip-rule="evenodd" d="M26.4006 6.74202L45.9135 14.5792L46.0326 14.278L26.4006 6.74202Z" fill="#9E9FA0"/>
<path fill-rule="evenodd" clip-rule="evenodd" d="M26.4006 6.742L46.0089 14.3381L46.1237 14.0357L26.4006 6.742Z" fill="#9E9F9F"/>
<path fill-rule="evenodd" clip-rule="evenodd" d="M26.4006 6.74204L46.1006 14.0963L46.2122 13.7921L26.4006 6.74204Z" fill="#9D9E9F"/>
<path fill-rule="evenodd" clip-rule="evenodd" d="M26.4006 6.74198L46.1898 13.8528L46.2976 13.5475L26.4006 6.74198Z" fill="#9D9E9E"/>
<path fill-rule="evenodd" clip-rule="evenodd" d="M26.4006 6.74196L46.2761 13.6086L46.38 13.3017L26.4006 6.74196Z" fill="#9C9D9E"/>
<path fill-rule="evenodd" clip-rule="evenodd" d="M26.4006 6.74198L46.3591 13.3629L46.4594 13.0553L26.4006 6.74198Z" fill="#9B9C9D"/>
<path fill-rule="evenodd" clip-rule="evenodd" d="M26.4006 6.742L46.4393 13.1169L46.5353 12.8074L26.4006 6.742Z" fill="#9A9C9C"/>
<path fill-rule="evenodd" clip-rule="evenodd" d="M26.4006 6.74192L46.5161 12.8693L46.6086 12.559L26.4006 6.74192Z" fill="#9A9B9B"/>
<path fill-rule="evenodd" clip-rule="evenodd" d="M26.4006 6.74202L46.5901 12.6211L46.6789 12.3096L26.4006 6.74202Z" fill="#9A9A9B"/>
<path fill-rule="evenodd" clip-rule="evenodd" d="M26.4006 6.74194L46.6611 12.3719L46.7458 12.0594L26.4006 6.74194Z" fill="#999A9A"/>
<path fill-rule="evenodd" clip-rule="evenodd" d="M26.4006 6.74196L46.7289 12.1217L46.8097 11.8084L26.4006 6.74196Z" fill="#999A9B"/>
<path fill-rule="evenodd" clip-rule="evenodd" d="M26.4006 6.742L46.7934 11.8712L46.8706 11.5564L26.4006 6.742Z" fill="#98999A"/>
<path fill-rule="evenodd" clip-rule="evenodd" d="M26.4006 6.74202L46.855 11.6195L46.9283 11.3039L26.4006 6.74202Z" fill="#989999"/>
<path fill-rule="evenodd" clip-rule="evenodd" d="M26.4006 6.74198L46.9137 11.3671L46.9832 11.0507L26.4006 6.74198Z" fill="#979898"/>
<path fill-rule="evenodd" clip-rule="evenodd" d="M26.4006 6.742L46.9693 11.1141L47.0346 10.7967L26.4006 6.742Z" fill="#969798"/>
<path fill-rule="evenodd" clip-rule="evenodd" d="M26.4006 6.74196L47.0214 10.8601L47.083 10.5422L26.4006 6.74196Z" fill="#969797"/>
<path fill-rule="evenodd" clip-rule="evenodd" d="M26.4006 6.74196L47.0705 10.6058L47.1283 10.2872L26.4006 6.74196Z" fill="#959697"/>
<path fill-rule="evenodd" clip-rule="evenodd" d="M26.4006 6.742L47.1166 10.3511L47.1703 10.0317L26.4006 6.742Z" fill="#959696"/>
<path fill-rule="evenodd" clip-rule="evenodd" d="M26.4006 6.74198L47.1597 10.0956L47.2093 9.77545L26.4006 6.74198Z" fill="#949595"/>
<path fill-rule="evenodd" clip-rule="evenodd" d="M26.4006 6.74202L47.1994 9.83936L47.2452 9.51884L26.4006 6.74202Z" fill="#939495"/>
<path fill-rule="evenodd" clip-rule="evenodd" d="M26.4006 6.74207L47.2361 9.58313L47.2777 9.26194L26.4006 6.74207Z" fill="#929394"/>
<path fill-rule="evenodd" clip-rule="evenodd" d="M26.4006 6.74202L47.2693 9.32617L47.3071 9.00444L26.4006 6.74202Z" fill="#929393"/>
<path fill-rule="evenodd" clip-rule="evenodd" d="M26.4006 6.74204L47.2996 9.06873L47.3335 8.74672L26.4006 6.74204Z" fill="#919393"/>
<path fill-rule="evenodd" clip-rule="evenodd" d="M26.4006 6.74207L47.3267 8.8114L47.3566 8.48901L26.4006 6.74207Z" fill="#919292"/>
<path fill-rule="evenodd" clip-rule="evenodd" d="M26.4006 6.74202L47.3506 8.55322L47.3766 8.23043L26.4006 6.74202Z" fill="#909191"/>
<path fill-rule="evenodd" clip-rule="evenodd" d="M26.4006 6.74196L47.3714 8.29504L47.3933 7.97184L26.4006 6.74196Z" fill="#8F9091"/>
<path fill-rule="evenodd" clip-rule="evenodd" d="M26.4006 6.74196L47.3888 8.0365L47.4069 7.7133L26.4006 6.74196Z" fill="#8F9090"/>
<path fill-rule="evenodd" clip-rule="evenodd" d="M26.4006 6.74194L47.4032 7.77795L47.4172 7.45435L26.4006 6.74194Z" fill="#8E8F8F"/>
<path fill-rule="evenodd" clip-rule="evenodd" d="M26.4006 6.74196L47.4145 7.51904L47.4242 7.19558L26.4006 6.74196Z" fill="#8D8F8F"/>
<path fill-rule="evenodd" clip-rule="evenodd" d="M26.4006 6.74198L47.4224 7.26013L47.4285 6.93626L26.4006 6.74198Z" fill="#8D8E8E"/>
<path fill-rule="evenodd" clip-rule="evenodd" d="M26.4006 6.74192L47.4273 7.00085L47.4292 6.67727L26.4006 6.74192Z" fill="#8C8D8D"/>
<path fill-rule="evenodd" clip-rule="evenodd" d="M26.4006 6.74207H47.4288L47.4265 6.41821L26.4006 6.74207Z" fill="#8C8D8D"/>
<path fill-rule="evenodd" clip-rule="evenodd" d="M26.4006 6.74207L47.4273 6.48313L47.4213 6.15928L26.4006 6.74207Z" fill="#8B8C8C"/>
<path fill-rule="evenodd" clip-rule="evenodd" d="M26.4006 6.74207L47.4224 6.22394L47.4122 5.90033L26.4006 6.74207Z" fill="#8A8B8B"/>
<path fill-rule="evenodd" clip-rule="evenodd" d="M26.4006 6.74207L47.4145 5.96501L47.4005 5.64154L26.4006 6.74207Z" fill="#898B8B"/>
<path fill-rule="evenodd" clip-rule="evenodd" d="M26.4006 6.74207L47.4032 5.70607L47.3853 5.383L26.4006 6.74207Z" fill="#898A8A"/>
<path fill-rule="evenodd" clip-rule="evenodd" d="M26.4006 6.74207L47.3888 5.44753L47.3669 5.12447L26.4006 6.74207Z" fill="#888989"/>
<path fill-rule="evenodd" clip-rule="evenodd" d="M26.4006 6.74207L47.3714 5.18915L47.3453 4.86633L26.4006 6.74207Z" fill="#878888"/>
<path fill-rule="evenodd" clip-rule="evenodd" d="M26.4006 6.74207L47.3506 4.93087L47.3208 4.60848L26.4006 6.74207Z" fill="#878888"/>
<path fill-rule="evenodd" clip-rule="evenodd" d="M26.4006 6.74207L47.3267 4.67273L47.2928 4.35075L26.4006 6.74207Z" fill="#868787"/>
<path fill-rule="evenodd" clip-rule="evenodd" d="M26.4006 6.74207L47.2996 4.41541L47.2618 4.09381L26.4006 6.74207Z" fill="#868686"/>
<path fill-rule="evenodd" clip-rule="evenodd" d="M26.4006 6.74207L47.2693 4.15808L47.2277 3.83673L26.4006 6.74207Z" fill="#858686"/>
<path fill-rule="evenodd" clip-rule="evenodd" d="M26.4006 6.74207L47.2361 3.901L47.1903 3.58046L26.4006 6.74207Z" fill="#848585"/>
<path fill-rule="evenodd" clip-rule="evenodd" d="M26.4006 6.74207L47.1994 3.64473L47.1495 3.32461L26.4006 6.74207Z" fill="#838484"/>
<path fill-rule="evenodd" clip-rule="evenodd" d="M26.4006 6.74207L47.1597 3.38847L47.1061 3.06913L26.4006 6.74207Z" fill="#838383"/>
<path fill-rule="evenodd" clip-rule="evenodd" d="M26.4006 6.74207L47.1166 3.133L47.0592 2.81435L26.4006 6.74207Z" fill="#828383"/>
<path fill-rule="evenodd" clip-rule="evenodd" d="M26.4006 6.74207L47.0705 2.87819L47.0093 2.56049L26.4006 6.74207Z" fill="#818282"/>
<path fill-rule="evenodd" clip-rule="evenodd" d="M26.4006 6.74207L47.0214 2.62392L46.9559 2.30686L26.4006 6.74207Z" fill="#818282"/>
<path fill-rule="evenodd" clip-rule="evenodd" d="M26.4006 6.74207L46.9693 2.36993L46.9001 2.05393L26.4006 6.74207Z" fill="#808181"/>
<path fill-rule="evenodd" clip-rule="evenodd" d="M26.4006 6.74207L46.9137 2.11713L46.8407 1.80153L26.4006 6.74207Z" fill="#7F8080"/>
<path fill-rule="evenodd" clip-rule="evenodd" d="M26.4006 6.74207L46.855 1.8646L46.7784 1.55019L26.4006 6.74207Z" fill="#7F7F7F"/>
<path fill-rule="evenodd" clip-rule="evenodd" d="M26.4006 6.74207L46.7934 1.61285L46.7126 1.29954L26.4006 6.74207Z" fill="#7E7E7E"/>
<path fill-rule="evenodd" clip-rule="evenodd" d="M26.4006 6.74207L46.7289 1.36232L46.6442 1.04966L26.4006 6.74207Z" fill="#7E7E7F"/>
<path fill-rule="evenodd" clip-rule="evenodd" d="M26.4006 6.74207L46.6611 1.11208L46.5723 0.800598L26.4006 6.74207Z" fill="#7D7E7E"/>
<path fill-rule="evenodd" clip-rule="evenodd" d="M26.4006 6.74207L46.5901 0.863017L46.4976 0.552754L26.4006 6.74207Z" fill="#7D7D7D"/>
<path fill-rule="evenodd" clip-rule="evenodd" d="M26.4006 6.74207L46.5161 0.614726L46.4201 0.305521L26.4006 6.74207Z" fill="#7C7D7C"/>
<path fill-rule="evenodd" clip-rule="evenodd" d="M26.4006 6.74207L46.4393 0.367533L46.3392 0.0595498L26.4006 6.74207Z" fill="#7B7C7B"/>
<path fill-rule="evenodd" clip-rule="evenodd" d="M26.4006 6.74207L46.3591 0.121155L46.2553 -0.185812L26.4006 6.74207Z" fill="#7A7B7B"/>
<path fill-rule="evenodd" clip-rule="evenodd" d="M26.4006 6.74207L46.2761 -0.124614L46.1683 -0.429912L26.4006 6.74207Z" fill="#797A7A"/>
<path fill-rule="evenodd" clip-rule="evenodd" d="M26.4006 6.74207L46.1898 -0.368713L46.0783 -0.672994L26.4006 6.74207Z" fill="#797979"/>
<path fill-rule="evenodd" clip-rule="evenodd" d="M26.4006 6.74207L46.1006 -0.612081L45.9858 -0.914449L26.4006 6.74207Z" fill="#787979"/>
<path fill-rule="evenodd" clip-rule="evenodd" d="M26.4006 6.74207L46.0089 -0.854065L45.8898 -1.15525L26.4006 6.74207Z" fill="#777878"/>
<path fill-rule="evenodd" clip-rule="evenodd" d="M26.4006 6.74207L45.9135 -1.09511L45.7911 -1.39488L26.4006 6.74207Z" fill="#767777"/>
<path fill-rule="evenodd" clip-rule="evenodd" d="M26.4006 6.74207L45.8157 -1.33474L45.6894 -1.633L26.4006 6.74207Z" fill="#767676"/>
<path fill-rule="evenodd" clip-rule="evenodd" d="M26.4006 6.74207L45.7148 -1.57367L45.5848 -1.87034L26.4006 6.74207Z" fill="#757675"/>
<path fill-rule="evenodd" clip-rule="evenodd" d="M26.4006 6.74207L45.6109 -1.81097L45.477 -2.10581L26.4006 6.74207Z" fill="#747574"/>
<path fill-rule="evenodd" clip-rule="evenodd" d="M26.4006 6.74207L45.5039 -2.04685L45.3667 -2.34007L26.4006 6.74207Z" fill="#737474"/>
<path fill-rule="evenodd" clip-rule="evenodd" d="M26.4006 6.74207L45.3943 -2.28152L45.2533 -2.57326L26.4006 6.74207Z" fill="#727373"/>
<path fill-rule="evenodd" clip-rule="evenodd" d="M26.4006 6.74207L45.2817 -2.51471L45.1373 -2.80459L26.4006 6.74207Z" fill="#727272"/>
<path fill-rule="evenodd" clip-rule="evenodd" d="M26.4006 6.74207L45.1659 -2.74685L45.0182 -3.03485L26.4006 6.74207Z" fill="#717271"/>
<path fill-rule="evenodd" clip-rule="evenodd" d="M26.4006 6.74207L45.0477 -2.9774L44.8961 -3.26353L26.4006 6.74207Z" fill="#707171"/>
<path fill-rule="evenodd" clip-rule="evenodd" d="M26.4006 6.74207L44.9268 -3.20608L44.7718 -3.49058L26.4006 6.74207Z" fill="#6F7070"/>
<path fill-rule="evenodd" clip-rule="evenodd" d="M26.4006 6.74207L44.8027 -3.43353L44.6441 -3.71621L26.4006 6.74207Z" fill="#6E6F6F"/>
<path fill-rule="evenodd" clip-rule="evenodd" d="M26.4006 6.74207L44.6758 -3.65953L44.5141 -3.94004L26.4006 6.74207Z" fill="#6E6F6E"/>
<path fill-rule="evenodd" clip-rule="evenodd" d="M26.4006 6.74207L44.5465 -3.88405L44.381 -4.16221L26.4006 6.74207Z" fill="#6D6E6D"/>
<path fill-rule="evenodd" clip-rule="evenodd" d="M26.4006 6.74207L44.4142 -4.10671L44.2453 -4.383L26.4006 6.74207Z" fill="#6C6D6C"/>
<path fill-rule="evenodd" clip-rule="evenodd" d="M26.4006 6.74207L44.2789 -4.32778L44.107 -4.60219L26.4006 6.74207Z" fill="#6B6C6B"/>
<path fill-rule="evenodd" clip-rule="evenodd" d="M26.4006 6.74207L44.1414 -4.54738L43.9657 -4.81952L26.4006 6.74207Z" fill="#6B6B6B"/>
<path fill-rule="evenodd" clip-rule="evenodd" d="M26.4006 6.74207L44.0007 -4.76512L43.8219 -5.03485L26.4006 6.74207Z" fill="#6A6A6A"/>
<path fill-rule="evenodd" clip-rule="evenodd" d="M26.4006 6.74207L43.858 -4.98086L43.6757 -5.24847L26.4006 6.74207Z" fill="#696A69"/>
<path fill-rule="evenodd" clip-rule="evenodd" d="M26.4006 6.74207L43.7121 -5.19513L43.5265 -5.46047L26.4006 6.74207Z" fill="#686968"/>
<path fill-rule="evenodd" clip-rule="evenodd" d="M26.4006 6.74207L43.5636 -5.40753L43.3749 -5.67059L26.4006 6.74207Z" fill="#676867"/>
<path fill-rule="evenodd" clip-rule="evenodd" d="M26.4006 6.74207L43.4126 -5.61806L43.2206 -5.87885L26.4006 6.74207Z" fill="#676766"/>
<path fill-rule="evenodd" clip-rule="evenodd" d="M26.4006 6.74207L43.2593 -5.82672L43.0638 -6.08486L26.4006 6.74207Z" fill="#666666"/>
<path fill-rule="evenodd" clip-rule="evenodd" d="M26.4006 6.74207L43.1031 -6.03351L42.9047 -6.28941L26.4006 6.74207Z" fill="#656565"/>
<path fill-rule="evenodd" clip-rule="evenodd" d="M26.4006 6.74207L42.9443 -6.23794L42.7429 -6.49152L26.4006 6.74207Z" fill="#646564"/>
<path fill-rule="evenodd" clip-rule="evenodd" d="M26.4006 6.74207L42.783 -6.44086L42.5785 -6.69192L26.4006 6.74207Z" fill="#636463"/>
<path fill-rule="evenodd" clip-rule="evenodd" d="M26.4006 6.74207L42.6194 -6.64166L42.4118 -6.89032L26.4006 6.74207Z" fill="#636362"/>
<path fill-rule="evenodd" clip-rule="evenodd" d="M26.4006 6.74207L42.4534 -6.84048L42.2425 -7.08645L26.4006 6.74207Z" fill="#626261"/>
<path fill-rule="evenodd" clip-rule="evenodd" d="M26.4006 6.74207L42.2849 -7.03725L42.0713 -7.28074L26.4006 6.74207Z" fill="#616161"/>
<path fill-rule="evenodd" clip-rule="evenodd" d="M26.4006 6.74207L42.1141 -7.23191L41.8971 -7.47272L26.4006 6.74207Z" fill="#606060"/>
<path fill-rule="evenodd" clip-rule="evenodd" d="M26.4006 6.74207L41.9406 -7.42434L41.721 -7.66246L26.4006 6.74207Z" fill="#5F5F5F"/>
<path fill-rule="evenodd" clip-rule="evenodd" d="M26.4006 6.74207L41.7647 -7.61485L41.5422 -7.84991L26.4006 6.74207Z" fill="#5E5F5E"/>
<path fill-rule="evenodd" clip-rule="evenodd" d="M26.4006 6.74207L41.5868 -7.803L41.3615 -8.03554L26.4006 6.74207Z" fill="#5D5E5D"/>
<path fill-rule="evenodd" clip-rule="evenodd" d="M26.4006 6.74207L41.4065 -7.98899L41.1782 -8.21885L26.4006 6.74207Z" fill="#5C5D5C"/>
<path fill-rule="evenodd" clip-rule="evenodd" d="M26.4006 6.74207L41.224 -8.17271L40.9926 -8.39952L26.4006 6.74207Z" fill="#5C5D5C"/>
<path fill-rule="evenodd" clip-rule="evenodd" d="M26.4006 6.74207L41.0391 -8.35406L40.8051 -8.57819L26.4006 6.74207Z" fill="#5C5C5B"/>
<path fill-rule="evenodd" clip-rule="evenodd" d="M26.4006 6.74207L40.8521 -8.53326L40.6154 -8.75433L26.4006 6.74207Z" fill="#5B5B5B"/>
<path fill-rule="evenodd" clip-rule="evenodd" d="M26.4006 6.74207L40.6628 -8.71019L40.4234 -8.92861L26.4006 6.74207Z" fill="#5A5A5A"/>
<path fill-rule="evenodd" clip-rule="evenodd" d="M26.4006 6.74207L40.471 -8.88475L40.2292 -9.1002L26.4006 6.74207Z" fill="#595959"/>
<path fill-rule="evenodd" clip-rule="evenodd" d="M26.4006 6.74207L40.2775 -9.05711L40.033 -9.26915L26.4006 6.74207Z" fill="#585858"/>
<path fill-rule="evenodd" clip-rule="evenodd" d="M26.4006 6.74207L40.0818 -9.22687L39.8346 -9.43581L26.4006 6.74207Z" fill="#575857"/>
<path fill-rule="evenodd" clip-rule="evenodd" d="M26.4006 6.74207L39.8841 -9.39419L39.6344 -9.6002L26.4006 6.74207Z" fill="#575756"/>
<path fill-rule="evenodd" clip-rule="evenodd" d="M26.4006 6.74207L39.6842 -9.55898L39.4321 -9.76194L26.4006 6.74207Z" fill="#565655"/>
<path fill-rule="evenodd" clip-rule="evenodd" d="M26.4006 6.74207L39.4823 -9.72154L39.2275 -9.92153L26.4006 6.74207Z" fill="#555554"/>
<path fill-rule="evenodd" clip-rule="evenodd" d="M26.4006 6.74207L39.2786 -9.88141L39.0213 -10.0779L26.4006 6.74207Z" fill="#545453"/>
<path fill-rule="evenodd" clip-rule="evenodd" d="M26.4006 6.74207L39.073 -10.0386L38.8134 -10.2322L26.4006 6.74207Z" fill="#535352"/>
<path fill-rule="evenodd" clip-rule="evenodd" d="M26.4006 6.74207L38.8652 -10.1937L38.6033 -10.3836L26.4006 6.74207Z" fill="#525252"/>
<path fill-rule="evenodd" clip-rule="evenodd" d="M26.4006 6.74207L38.6554 -10.3459L38.3912 -10.533L26.4006 6.74207Z" fill="#515151"/>
<path fill-rule="evenodd" clip-rule="evenodd" d="M26.4006 6.74207L38.4441 -10.4955L38.1777 -10.6793L26.4006 6.74207Z" fill="#505050"/>
<path fill-rule="evenodd" clip-rule="evenodd" d="M26.4006 6.74207L38.2309 -10.6426L37.9618 -10.8233L26.4006 6.74207Z" fill="#4F4F4F"/>
<path fill-rule="evenodd" clip-rule="evenodd" d="M26.4006 6.74207L38.016 -10.787L37.7449 -10.9642L26.4006 6.74207Z" fill="#4E4F4E"/>
<path fill-rule="evenodd" clip-rule="evenodd" d="M26.4006 6.74207L37.7989 -10.9287L37.5257 -11.1026L26.4006 6.74207Z" fill="#4D4E4D"/>
<path fill-rule="evenodd" clip-rule="evenodd" d="M26.4006 6.74207L37.5805 -11.0678L37.305 -11.2383L26.4006 6.74207Z" fill="#4C4D4C"/>
<path fill-rule="evenodd" clip-rule="evenodd" d="M26.4006 6.74207L37.3601 -11.2042L37.0828 -11.3713L26.4006 6.74207Z" fill="#4C4C4B"/>
<path fill-rule="evenodd" clip-rule="evenodd" d="M26.4006 6.74207L37.1383 -11.3381L36.8586 -11.5016L26.4006 6.74207Z" fill="#4B4B4A"/>
<path fill-rule="evenodd" clip-rule="evenodd" d="M26.4006 6.74207L36.9145 -11.4689L36.6333 -11.6291L26.4006 6.74207Z" fill="#4A4A49"/>
<path fill-rule="evenodd" clip-rule="evenodd" d="M26.4006 6.74207L36.6897 -11.597L36.4062 -11.7538L26.4006 6.74207Z" fill="#494948"/>
<path fill-rule="evenodd" clip-rule="evenodd" d="M26.4006 6.74207L36.4629 -11.7225L36.1775 -11.8755L26.4006 6.74207Z" fill="#474847"/>
<path fill-rule="evenodd" clip-rule="evenodd" d="M26.4006 6.74207L36.2346 -11.8449L35.9474 -11.9946L26.4006 6.74207Z" fill="#474746"/>
<path fill-rule="evenodd" clip-rule="evenodd" d="M26.4006 6.74207L36.0048 -11.9647L35.7157 -12.1106L26.4006 6.74207Z" fill="#464645"/>
<path fill-rule="evenodd" clip-rule="evenodd" d="M26.4006 6.74207L35.7736 -12.0815L35.4829 -12.2239L26.4006 6.74207Z" fill="#454544"/>
<path fill-rule="evenodd" clip-rule="evenodd" d="M26.4006 6.74207L35.541 -12.1957L35.2485 -12.3347L26.4006 6.74207Z" fill="#444443"/>
<path fill-rule="evenodd" clip-rule="evenodd" d="M26.4006 6.74207L35.3071 -12.3067L35.0126 -12.4421L26.4006 6.74207Z" fill="#424342"/>
<path fill-rule="evenodd" clip-rule="evenodd" d="M26.4006 6.74207L35.0717 -12.4149L34.7757 -12.5467L26.4006 6.74207Z" fill="#424241"/>
<path fill-rule="evenodd" clip-rule="evenodd" d="M26.4006 6.74207L34.835 -12.5203L34.5376 -12.6485L26.4006 6.74207Z" fill="#414140"/>
<path fill-rule="evenodd" clip-rule="evenodd" d="M26.4006 6.74207L34.5969 -12.6227L34.2979 -12.747L26.4006 6.74207Z" fill="#40403F"/>
<path fill-rule="evenodd" clip-rule="evenodd" d="M26.4006 6.74207L34.3577 -12.7225L34.0573 -12.843L26.4006 6.74207Z" fill="#3E3E3E"/>
<path fill-rule="evenodd" clip-rule="evenodd" d="M26.4006 6.74207L34.1173 -12.8189L33.8153 -12.9361L26.4006 6.74207Z" fill="#3E3D3D"/>
<path fill-rule="evenodd" clip-rule="evenodd" d="M26.4006 6.74207L33.8758 -12.9126L33.5726 -13.0257L26.4006 6.74207Z" fill="#3C3C3B"/>
<path fill-rule="evenodd" clip-rule="evenodd" d="M26.4006 6.74207L33.6331 -13.0029L33.3285 -13.1126L26.4006 6.74207Z" fill="#3B3B3A"/>
<path fill-rule="evenodd" clip-rule="evenodd" d="M26.4006 6.74207L33.3894 -13.0906L33.0833 -13.1965L26.4006 6.74207Z" fill="#3A3A39"/>
<path fill-rule="evenodd" clip-rule="evenodd" d="M26.4006 6.74207L33.1445 -13.1753L32.8372 -13.2772L26.4006 6.74207Z" fill="#393938"/>
<path fill-rule="evenodd" clip-rule="evenodd" d="M26.4006 6.74207L32.8988 -13.2569L32.59 -13.3551L26.4006 6.74207Z" fill="#383837"/>
<path fill-rule="evenodd" clip-rule="evenodd" d="M26.4006 6.74207L32.6515 -13.3355L32.3421 -13.4297L26.4006 6.74207Z" fill="#373736"/>
<path fill-rule="evenodd" clip-rule="evenodd" d="M26.4006 6.74207L32.4041 -13.4107L32.093 -13.5014L26.4006 6.74207Z" fill="#363635"/>
<path fill-rule="evenodd" clip-rule="evenodd" d="M26.4006 6.74207L32.1554 -13.4833L31.8431 -13.5698L26.4006 6.74207Z" fill="#353534"/>
<path fill-rule="evenodd" clip-rule="evenodd" d="M26.4006 6.74207L31.9056 -13.5529L31.5926 -13.6357L26.4006 6.74207Z" fill="#353534"/>
<path fill-rule="evenodd" clip-rule="evenodd" d="M26.4006 6.74207L31.6553 -13.619L31.3413 -13.6979L26.4006 6.74207Z" fill="#343433"/>
<path fill-rule="evenodd" clip-rule="evenodd" d="M26.4006 6.74207L31.4039 -13.6821L31.0887 -13.7573L26.4006 6.74207Z" fill="#333332"/>
<path fill-rule="evenodd" clip-rule="evenodd" d="M26.4006 6.74207L31.1519 -13.7422L30.8359 -13.8133L26.4006 6.74207Z" fill="#323130"/>
<path fill-rule="evenodd" clip-rule="evenodd" d="M26.4006 6.74207L30.899 -13.7993L30.5824 -13.8666L26.4006 6.74207Z" fill="#30302F"/>
<path fill-rule="evenodd" clip-rule="evenodd" d="M26.4006 6.74207L30.6458 -13.853L30.3283 -13.9164L26.4006 6.74207Z" fill="#2F2F2E"/>
<path fill-rule="evenodd" clip-rule="evenodd" d="M26.4006 6.74207L30.3918 -13.9039L30.0736 -13.9633L26.4006 6.74207Z" fill="#2E2E2D"/>
<path fill-rule="evenodd" clip-rule="evenodd" d="M26.4006 6.74207L30.1372 -13.9515L29.8181 -14.0071L26.4006 6.74207Z" fill="#2D2D2C"/>
<path fill-rule="evenodd" clip-rule="evenodd" d="M26.4006 6.74207L29.882 -13.9958L29.5622 -14.0475L26.4006 6.74207Z" fill="#2B2B2A"/>
<path fill-rule="evenodd" clip-rule="evenodd" d="M26.4006 6.74207L29.6261 -14.037L29.3059 -14.085L26.4006 6.74207Z" fill="#2A2A29"/>
<path fill-rule="evenodd" clip-rule="evenodd" d="M26.4006 6.74207L29.3698 -14.0751L29.049 -14.119L26.4006 6.74207Z" fill="#292927"/>
<path fill-rule="evenodd" clip-rule="evenodd" d="M26.4006 6.74207L29.1133 -14.1103L28.792 -14.15L26.4006 6.74207Z" fill="#272726"/>
<path fill-rule="evenodd" clip-rule="evenodd" d="M26.4006 6.74207L28.8562 -14.1421L28.5342 -14.1779L26.4006 6.74207Z" fill="#262625"/>
<path fill-rule="evenodd" clip-rule="evenodd" d="M26.4006 6.74207L28.5985 -14.1709L28.2765 -14.2026L26.4006 6.74207Z" fill="#252523"/>
<path fill-rule="evenodd" clip-rule="evenodd" d="M26.4006 6.74207L28.3406 -14.1965L28.0184 -14.2241L26.4006 6.74207Z" fill="#232322"/>
<path fill-rule="evenodd" clip-rule="evenodd" d="M26.4006 6.74207L28.0825 -14.2189L27.7598 -14.2426L26.4006 6.74207Z" fill="#222220"/>
<path fill-rule="evenodd" clip-rule="evenodd" d="M26.4006 6.74207L27.8243 -14.2377L27.5013 -14.2578L26.4006 6.74207Z" fill="#21211F"/>
<path fill-rule="evenodd" clip-rule="evenodd" d="M26.4006 6.74207L27.5658 -14.2535L27.2424 -14.2698L26.4006 6.74207Z" fill="#1F1F1E"/>
<path fill-rule="evenodd" clip-rule="evenodd" d="M26.4006 6.74207L27.307 -14.2665L26.9834 -14.2785L26.4006 6.74207Z" fill="#1E1E1D"/>
<path fill-rule="evenodd" clip-rule="evenodd" d="M26.4006 6.74207L27.0481 -14.2762L26.7246 -14.2842L26.4006 6.74207Z" fill="#1D1D1B"/>
<path fill-rule="evenodd" clip-rule="evenodd" d="M26.4006 6.74207L26.7891 -14.2823L26.4653 -14.2865L26.4006 6.74207Z" fill="#1B1B1A"/>
<path fill-rule="evenodd" clip-rule="evenodd" d="M26.4006 6.74207L26.5303 -14.2857H26.2063L26.4006 6.74207Z" fill="#1A1A18"/>
<path fill-rule="evenodd" clip-rule="evenodd" d="M26.4008 6.74207L26.2711 -14.2857L25.9473 -14.2815L26.4008 6.74207Z" fill="#1B1B1A"/>
<path fill-rule="evenodd" clip-rule="evenodd" d="M26.4006 6.74207L26.0121 -14.2823L25.6882 -14.2743L26.4006 6.74207Z" fill="#1D1D1B"/>
<path fill-rule="evenodd" clip-rule="evenodd" d="M26.4006 6.74207L25.7528 -14.2762L25.4292 -14.2642L26.4006 6.74207Z" fill="#1E1E1D"/>
<path fill-rule="evenodd" clip-rule="evenodd" d="M26.4006 6.74207L25.4939 -14.2665L25.1707 -14.2506L26.4006 6.74207Z" fill="#1F1F1E"/>
<path fill-rule="evenodd" clip-rule="evenodd" d="M26.4005 6.74207L25.2353 -14.2535L24.9121 -14.2339L26.4005 6.74207Z" fill="#21211F"/>
<path fill-rule="evenodd" clip-rule="evenodd" d="M26.4006 6.74207L24.9769 -14.2377L24.6538 -14.2139L26.4006 6.74207Z" fill="#222220"/>
<path fill-rule="evenodd" clip-rule="evenodd" d="M26.4007 6.74207L24.7184 -14.2189L24.396 -14.1909L26.4007 6.74207Z" fill="#232322"/>
<path fill-rule="evenodd" clip-rule="evenodd" d="M26.4006 6.74207L24.4602 -14.1965L24.1382 -14.1643L26.4006 6.74207Z" fill="#252523"/>
<path fill-rule="evenodd" clip-rule="evenodd" d="M26.4006 6.74207L24.2024 -14.1709L23.8809 -14.1349L26.4006 6.74207Z" fill="#262625"/>
<path fill-rule="evenodd" clip-rule="evenodd" d="M26.4006 6.74207L23.9451 -14.1421L23.6238 -14.1023L26.4006 6.74207Z" fill="#272726"/>
<path fill-rule="evenodd" clip-rule="evenodd" d="M26.4007 6.74207L23.6881 -14.1103L23.3672 -14.0665L26.4007 6.74207Z" fill="#292927"/>
<path fill-rule="evenodd" clip-rule="evenodd" d="M26.4006 6.74207L23.4314 -14.0751L23.1108 -14.0275L26.4006 6.74207Z" fill="#2A2A29"/>
<path fill-rule="evenodd" clip-rule="evenodd" d="M26.4007 6.74207L23.1752 -14.037L22.8555 -13.9857L26.4007 6.74207Z" fill="#2B2B2A"/>
<path fill-rule="evenodd" clip-rule="evenodd" d="M26.4006 6.74207L22.9193 -13.9958L22.6003 -13.9402L26.4006 6.74207Z" fill="#2D2D2C"/>
<path fill-rule="evenodd" clip-rule="evenodd" d="M26.4006 6.74207L22.6641 -13.9515L22.3455 -13.8919L26.4006 6.74207Z" fill="#2E2E2D"/>
<path fill-rule="evenodd" clip-rule="evenodd" d="M26.4005 6.74207L22.4093 -13.9039L22.0918 -13.8405L26.4005 6.74207Z" fill="#2F2F2E"/>
<path fill-rule="evenodd" clip-rule="evenodd" d="M26.4008 6.74207L22.1557 -13.853L21.8389 -13.7857L26.4008 6.74207Z" fill="#30302F"/>
<path fill-rule="evenodd" clip-rule="evenodd" d="M26.4006 6.74207L21.9018 -13.7993L21.5859 -13.7278L26.4006 6.74207Z" fill="#323130"/>
<path fill-rule="evenodd" clip-rule="evenodd" d="M26.4006 6.74207L21.6494 -13.7422L21.3342 -13.667L26.4006 6.74207Z" fill="#333332"/>
<path fill-rule="evenodd" clip-rule="evenodd" d="M26.4006 6.74207L21.3973 -13.6821L21.0833 -13.6031L26.4006 6.74207Z" fill="#343433"/>
<path fill-rule="evenodd" clip-rule="evenodd" d="M26.4006 6.74207L21.146 -13.619L20.833 -13.5362L26.4006 6.74207Z" fill="#353534"/>
<path fill-rule="evenodd" clip-rule="evenodd" d="M26.4006 6.74207L20.8954 -13.5529L20.5835 -13.4659L26.4006 6.74207Z" fill="#353534"/>
<path fill-rule="evenodd" clip-rule="evenodd" d="M26.4007 6.74207L20.646 -13.4833L20.335 -13.3926L26.4007 6.74207Z" fill="#363635"/>
<path fill-rule="evenodd" clip-rule="evenodd" d="M26.4008 6.74207L20.3974 -13.4107L20.0874 -13.3166L26.4008 6.74207Z" fill="#373736"/>
<path fill-rule="evenodd" clip-rule="evenodd" d="M26.4006 6.74207L20.1492 -13.3355L19.8408 -13.2372L26.4006 6.74207Z" fill="#383837"/>
<path fill-rule="evenodd" clip-rule="evenodd" d="M26.4006 6.74207L19.9024 -13.2569L19.5952 -13.1548L26.4006 6.74207Z" fill="#393938"/>
<path fill-rule="evenodd" clip-rule="evenodd" d="M26.4005 6.74207L19.6563 -13.1753L19.3506 -13.0694L26.4005 6.74207Z" fill="#3A3A39"/>
<path fill-rule="evenodd" clip-rule="evenodd" d="M26.4007 6.74207L19.412 -13.0906L19.1069 -12.981L26.4007 6.74207Z" fill="#3B3B3A"/>
<path fill-rule="evenodd" clip-rule="evenodd" d="M26.4008 6.74207L19.1682 -13.0029L18.8647 -12.8899L26.4008 6.74207Z" fill="#3C3C3B"/>
<path fill-rule="evenodd" clip-rule="evenodd" d="M26.4006 6.74207L18.925 -12.9126L18.623 -12.7954L26.4006 6.74207Z" fill="#3E3D3D"/>
<path fill-rule="evenodd" clip-rule="evenodd" d="M26.4006 6.74207L18.6835 -12.8189L18.3831 -12.6983L26.4006 6.74207Z" fill="#3E3E3E"/>
<path fill-rule="evenodd" clip-rule="evenodd" d="M26.4005 6.74207L18.4431 -12.7225L18.144 -12.5978L26.4005 6.74207Z" fill="#40403F"/>
<path fill-rule="evenodd" clip-rule="evenodd" d="M26.4006 6.74207L18.2039 -12.6227L17.9065 -12.4946L26.4006 6.74207Z" fill="#414140"/>
<path fill-rule="evenodd" clip-rule="evenodd" d="M26.4007 6.74207L17.9663 -12.5203L17.6704 -12.3887L26.4007 6.74207Z" fill="#424241"/>
<path fill-rule="evenodd" clip-rule="evenodd" d="M26.4007 6.74207L17.7297 -12.4149L17.4353 -12.2795L26.4007 6.74207Z" fill="#424342"/>
<path fill-rule="evenodd" clip-rule="evenodd" d="M26.4006 6.74207L17.4942 -12.3067L17.2017 -12.1677L26.4006 6.74207Z" fill="#444443"/>
<path fill-rule="evenodd" clip-rule="evenodd" d="M26.4006 6.74207L17.2602 -12.1957L16.9692 -12.0531L26.4006 6.74207Z" fill="#454544"/>
<path fill-rule="evenodd" clip-rule="evenodd" d="M26.4006 6.74207L17.0273 -12.0815L16.7385 -11.9352L26.4006 6.74207Z" fill="#464645"/>
<path fill-rule="evenodd" clip-rule="evenodd" d="M26.4006 6.74207L16.7965 -11.9647L16.5093 -11.815L26.4006 6.74207Z" fill="#474746"/>
<path fill-rule="evenodd" clip-rule="evenodd" d="M26.4006 6.74207L16.5667 -11.8449L16.2812 -11.6918L26.4006 6.74207Z" fill="#474847"/>
<path fill-rule="evenodd" clip-rule="evenodd" d="M26.4007 6.74207L16.3384 -11.7225L16.0549 -11.5655L26.4007 6.74207Z" fill="#494948"/>
<path fill-rule="evenodd" clip-rule="evenodd" d="M26.4006 6.74207L16.1117 -11.597L15.8301 -11.4367L26.4006 6.74207Z" fill="#4A4A49"/>
<path fill-rule="evenodd" clip-rule="evenodd" d="M26.4006 6.74207L15.8863 -11.4689L15.6069 -11.3051L26.4006 6.74207Z" fill="#4B4B4A"/>
<path fill-rule="evenodd" clip-rule="evenodd" d="M26.4006 6.74207L15.663 -11.3381L15.3855 -11.171L26.4006 6.74207Z" fill="#4C4C4B"/>
<path fill-rule="evenodd" clip-rule="evenodd" d="M26.4005 6.74207L15.441 -11.2042L15.1655 -11.0338L26.4005 6.74207Z" fill="#4C4D4C"/>
<path fill-rule="evenodd" clip-rule="evenodd" d="M26.4006 6.74207L15.2207 -11.0678L14.9475 -10.8939L26.4006 6.74207Z" fill="#4D4E4D"/>
<path fill-rule="evenodd" clip-rule="evenodd" d="M26.4006 6.74207L15.0023 -10.9287L14.731 -10.7515L26.4006 6.74207Z" fill="#4E4F4E"/>
<path fill-rule="evenodd" clip-rule="evenodd" d="M26.4006 6.74207L14.7854 -10.787L14.5166 -10.6063L26.4006 6.74207Z" fill="#4F4F4F"/>
<path fill-rule="evenodd" clip-rule="evenodd" d="M26.4006 6.74207L14.5703 -10.6426L14.3035 -10.4588L26.4006 6.74207Z" fill="#505050"/>
<path fill-rule="evenodd" clip-rule="evenodd" d="M26.4006 6.74207L14.3571 -10.4955L14.0925 -10.3085L26.4006 6.74207Z" fill="#515151"/>
<path fill-rule="evenodd" clip-rule="evenodd" d="M26.4006 6.74207L14.1455 -10.3459L13.8835 -10.1554L26.4006 6.74207Z" fill="#525252"/>
<path fill-rule="evenodd" clip-rule="evenodd" d="M26.4007 6.74207L13.9361 -10.1937L13.6765 -10.0001L26.4007 6.74207Z" fill="#535352"/>
<path fill-rule="evenodd" clip-rule="evenodd" d="M26.4005 6.74207L13.7281 -10.0386L13.4707 -9.84206L26.4005 6.74207Z" fill="#545453"/>
<path fill-rule="evenodd" clip-rule="evenodd" d="M26.4008 6.74207L13.5227 -9.88141L13.2681 -9.68154L26.4008 6.74207Z" fill="#555554"/>
<path fill-rule="evenodd" clip-rule="evenodd" d="M26.4006 6.74207L13.3185 -9.72154L13.0664 -9.51821L26.4006 6.74207Z" fill="#565655"/>
<path fill-rule="evenodd" clip-rule="evenodd" d="M26.4005 6.74207L13.1166 -9.55898L12.8667 -9.35301L26.4005 6.74207Z" fill="#575756"/>
<path fill-rule="evenodd" clip-rule="evenodd" d="M26.4006 6.74207L12.9171 -9.39419L12.6699 -9.18488L26.4006 6.74207Z" fill="#575857"/>
<path fill-rule="evenodd" clip-rule="evenodd" d="M26.4006 6.74207L12.7192 -9.22687L12.4746 -9.01434L26.4006 6.74207Z" fill="#585858"/>
<path fill-rule="evenodd" clip-rule="evenodd" d="M26.4005 6.74207L12.5235 -9.05711L12.2812 -8.84165L26.4005 6.74207Z" fill="#595959"/>
<path fill-rule="evenodd" clip-rule="evenodd" d="M26.4006 6.74207L12.3298 -8.88475L12.0906 -8.66673L26.4006 6.74207Z" fill="#5A5A5A"/>
<path fill-rule="evenodd" clip-rule="evenodd" d="M26.4006 6.74207L12.1385 -8.71019L11.9019 -8.48899L26.4006 6.74207Z" fill="#5B5B5B"/>
<path fill-rule="evenodd" clip-rule="evenodd" d="M26.4007 6.74207L11.9493 -8.53326L11.7153 -8.30951L26.4007 6.74207Z" fill="#5C5C5B"/>
<path fill-rule="evenodd" clip-rule="evenodd" d="M26.4006 6.74207L11.7622 -8.35406L11.5312 -8.12738L26.4006 6.74207Z" fill="#5C5D5C"/>
<path fill-rule="evenodd" clip-rule="evenodd" d="M26.4008 6.74207L11.5774 -8.17271L11.3491 -7.94285L26.4008 6.74207Z" fill="#5C5D5C"/>
<path fill-rule="evenodd" clip-rule="evenodd" d="M26.4007 6.74207L11.3948 -7.98899L11.1692 -7.75661L26.4007 6.74207Z" fill="#5D5E5D"/>
<path fill-rule="evenodd" clip-rule="evenodd" d="M26.4006 6.74207L11.2145 -7.803L10.9919 -7.56793L26.4006 6.74207Z" fill="#5E5F5E"/>
<path fill-rule="evenodd" clip-rule="evenodd" d="M26.4006 6.74207L11.036 -7.61485L10.8164 -7.37673L26.4006 6.74207Z" fill="#5F5F5F"/>
<path fill-rule="evenodd" clip-rule="evenodd" d="M26.4006 6.74207L10.8608 -7.42434L10.6438 -7.18394L26.4006 6.74207Z" fill="#606060"/>
<path fill-rule="evenodd" clip-rule="evenodd" d="M26.4006 6.74207L10.6873 -7.23191L10.4736 -6.98859L26.4006 6.74207Z" fill="#616161"/>
<path fill-rule="evenodd" clip-rule="evenodd" d="M26.4008 6.74207L10.5166 -7.03725L10.3057 -6.79128L26.4008 6.74207Z" fill="#626261"/>
<path fill-rule="evenodd" clip-rule="evenodd" d="M26.4006 6.74207L10.3478 -6.84048L10.1399 -6.59206L26.4006 6.74207Z" fill="#636362"/>
<path fill-rule="evenodd" clip-rule="evenodd" d="M26.4006 6.74207L10.1815 -6.64166L9.97705 -6.3906L26.4006 6.74207Z" fill="#636463"/>
<path fill-rule="evenodd" clip-rule="evenodd" d="M26.4006 6.74207L10.0179 -6.44086L9.81641 -6.18728L26.4006 6.74207Z" fill="#646564"/>
<path fill-rule="evenodd" clip-rule="evenodd" d="M26.4006 6.74207L9.85685 -6.23794L9.65845 -5.98208L26.4006 6.74207Z" fill="#656565"/>
<path fill-rule="evenodd" clip-rule="evenodd" d="M26.4007 6.74207L9.69824 -6.03351L9.50317 -5.775L26.4007 6.74207Z" fill="#666666"/>
<path fill-rule="evenodd" clip-rule="evenodd" d="M26.4006 6.74207L9.54207 -5.82672L9.3501 -5.56594L26.4006 6.74207Z" fill="#676766"/>
<path fill-rule="evenodd" clip-rule="evenodd" d="M26.4007 6.74207L9.38867 -5.61806L9.19971 -5.35472L26.4007 6.74207Z" fill="#676867"/>
<path fill-rule="evenodd" clip-rule="evenodd" d="M26.4006 6.74207L9.23739 -5.40753L9.05176 -5.14195L26.4006 6.74207Z" fill="#686968"/>
<path fill-rule="evenodd" clip-rule="evenodd" d="M26.4006 6.74207L9.08927 -5.19513L8.90674 -4.92727L26.4006 6.74207Z" fill="#696A69"/>
<path fill-rule="evenodd" clip-rule="evenodd" d="M26.4007 6.74207L8.94344 -4.98086L8.76465 -4.711L26.4007 6.74207Z" fill="#6A6A6A"/>
<path fill-rule="evenodd" clip-rule="evenodd" d="M26.4006 6.74207L8.80009 -4.76512L8.62476 -4.49298L26.4006 6.74207Z" fill="#6B6B6B"/>
<path fill-rule="evenodd" clip-rule="evenodd" d="M26.4006 6.74207L8.65995 -4.54738L8.48755 -4.27301L26.4006 6.74207Z" fill="#6B6C6B"/>
<path fill-rule="evenodd" clip-rule="evenodd" d="M26.4007 6.74207L8.52201 -4.32778L8.35352 -4.05153L26.4007 6.74207Z" fill="#6C6D6C"/>
<path fill-rule="evenodd" clip-rule="evenodd" d="M26.4005 6.74207L8.38688 -4.10671L8.22168 -3.82806L26.4005 6.74207Z" fill="#6D6E6D"/>
<path fill-rule="evenodd" clip-rule="evenodd" d="M26.4006 6.74207L8.25476 -3.88405L8.09302 -3.60366L26.4006 6.74207Z" fill="#6E6F6E"/>
<path fill-rule="evenodd" clip-rule="evenodd" d="M26.4007 6.74207L8.1252 -3.65953L7.9668 -3.37726L26.4007 6.74207Z" fill="#6E6F6F"/>
<path fill-rule="evenodd" clip-rule="evenodd" d="M26.4006 6.74207L7.99845 -3.43353L7.84351 -3.14927L26.4006 6.74207Z" fill="#6F7070"/>
<path fill-rule="evenodd" clip-rule="evenodd" d="M26.4008 6.74207L7.87459 -3.20608L7.72314 -2.91994L26.4008 6.74207Z" fill="#707171"/>
<path fill-rule="evenodd" clip-rule="evenodd" d="M26.4007 6.74207L7.75334 -2.9774L7.60547 -2.68899L26.4007 6.74207Z" fill="#717271"/>
<path fill-rule="evenodd" clip-rule="evenodd" d="M26.4006 6.74207L7.63489 -2.74685L7.49048 -2.45685L26.4006 6.74207Z" fill="#727272"/>
<path fill-rule="evenodd" clip-rule="evenodd" d="M26.4007 6.74207L7.51973 -2.51471L7.37866 -2.22341L26.4007 6.74207Z" fill="#727373"/>
<path fill-rule="evenodd" clip-rule="evenodd" d="M26.4006 6.74207L7.40698 -2.28152L7.26978 -1.98818L26.4006 6.74207Z" fill="#737474"/>
<path fill-rule="evenodd" clip-rule="evenodd" d="M26.4007 6.74207L7.29744 -2.04685L7.16357 -1.75165L26.4007 6.74207Z" fill="#747574"/>
<path fill-rule="evenodd" clip-rule="evenodd" d="M26.4007 6.74207L7.19055 -1.81097L7.06055 -1.51434L26.4007 6.74207Z" fill="#757675"/>
<path fill-rule="evenodd" clip-rule="evenodd" d="M26.4006 6.74207L7.08647 -1.57367L6.96021 -1.27541L26.4006 6.74207Z" fill="#767676"/>
<path fill-rule="evenodd" clip-rule="evenodd" d="M26.4008 6.74207L6.98568 -1.33474L6.86328 -1.03501L26.4008 6.74207Z" fill="#767777"/>
<path fill-rule="evenodd" clip-rule="evenodd" d="M26.4006 6.74207L6.88725 -1.09511L6.76855 -0.793925L26.4006 6.74207Z" fill="#777878"/>
<path fill-rule="evenodd" clip-rule="evenodd" d="M26.4007 6.74207L6.79256 -0.854065L6.67725 -0.55125L26.4007 6.74207Z" fill="#787979"/>
<path fill-rule="evenodd" clip-rule="evenodd" d="M26.4006 6.74207L6.70015 -0.612081L6.58911 -0.307922L26.4006 6.74207Z" fill="#797979"/>
<path fill-rule="evenodd" clip-rule="evenodd" d="M26.4006 6.74207L6.611 -0.368713L6.50366 -0.063375L26.4006 6.74207Z" fill="#797A7A"/>
<path fill-rule="evenodd" clip-rule="evenodd" d="M26.4008 6.74207L6.52539 -0.124614L6.42139 0.182353L26.4008 6.74207Z" fill="#7A7B7B"/>
<path fill-rule="evenodd" clip-rule="evenodd" d="M26.4005 6.74207L6.44194 0.121155L6.3418 0.429138L26.4005 6.74207Z" fill="#7B7C7B"/>
<path fill-rule="evenodd" clip-rule="evenodd" d="M26.4007 6.74207L6.36202 0.367533L6.26562 0.676737L26.4007 6.74207Z" fill="#7C7D7C"/>
<path fill-rule="evenodd" clip-rule="evenodd" d="M26.4006 6.74207L6.28487 0.614726L6.19263 0.924988L26.4006 6.74207Z" fill="#7D7D7D"/>
<path fill-rule="evenodd" clip-rule="evenodd" d="M26.4006 6.74207L6.2111 0.863017L6.12231 1.17446L26.4006 6.74207Z" fill="#7D7E7E"/>
<path fill-rule="evenodd" clip-rule="evenodd" d="M26.4006 6.74207L6.1401 1.11208L6.05542 1.42462L26.4006 6.74207Z" fill="#7E7E7F"/>
<path fill-rule="evenodd" clip-rule="evenodd" d="M26.4007 6.74207L6.07255 1.36232L5.99121 1.67568L26.4007 6.74207Z" fill="#7E7E7E"/>
<path fill-rule="evenodd" clip-rule="evenodd" d="M26.4005 6.74207L6.00724 1.61285L5.93018 1.92767L26.4005 6.74207Z" fill="#7F7F7F"/>
<path fill-rule="evenodd" clip-rule="evenodd" d="M26.4006 6.74207L5.94572 1.8646L5.8728 2.1802L26.4006 6.74207Z" fill="#7F8080"/>
<path fill-rule="evenodd" clip-rule="evenodd" d="M26.4007 6.74207L5.88733 2.11713L5.81812 2.43341L26.4007 6.74207Z" fill="#808181"/>
<path fill-rule="evenodd" clip-rule="evenodd" d="M26.4005 6.74207L5.83191 2.36993L5.7666 2.6874L26.4005 6.74207Z" fill="#818282"/>
<path fill-rule="evenodd" clip-rule="evenodd" d="M26.4006 6.74207L5.77946 2.62392L5.71826 2.94179L26.4006 6.74207Z" fill="#818282"/>
<path fill-rule="evenodd" clip-rule="evenodd" d="M26.4005 6.74207L5.73018 2.87819L5.67285 3.19688L26.4005 6.74207Z" fill="#828383"/>
<path fill-rule="evenodd" clip-rule="evenodd" d="M26.4005 6.74207L5.6842 3.133L5.63086 3.45233L26.4005 6.74207Z" fill="#838383"/>
<path fill-rule="evenodd" clip-rule="evenodd" d="M26.4008 6.74207L5.64168 3.38847L5.5918 3.7086L26.4008 6.74207Z" fill="#838484"/>
<path fill-rule="evenodd" clip-rule="evenodd" d="M26.4006 6.74207L5.60185 3.64473L5.55615 3.96527L26.4006 6.74207Z" fill="#848585"/>
<path fill-rule="evenodd" clip-rule="evenodd" d="M26.4006 6.74207L5.56519 3.901L5.52319 4.22221L26.4006 6.74207Z" fill="#858686"/>
<path fill-rule="evenodd" clip-rule="evenodd" d="M26.4005 6.74207L5.53178 4.15808L5.49365 4.47968L26.4005 6.74207Z" fill="#868686"/>
<path fill-rule="evenodd" clip-rule="evenodd" d="M26.4007 6.74207L5.50151 4.41541L5.46777 4.73741L26.4007 6.74207Z" fill="#868787"/>
<path fill-rule="evenodd" clip-rule="evenodd" d="M26.4006 6.74207L5.47445 4.67273L5.44458 4.99554L26.4006 6.74207Z" fill="#878888"/>
<path fill-rule="evenodd" clip-rule="evenodd" d="M26.4006 6.74207L5.45072 4.93087L5.42456 5.25368L26.4006 6.74207Z" fill="#878888"/>
<path fill-rule="evenodd" clip-rule="evenodd" d="M26.4008 6.74207L5.43005 5.18915L5.4082 5.51221L26.4008 6.74207Z" fill="#888989"/>
<path fill-rule="evenodd" clip-rule="evenodd" d="M26.4006 6.74207L5.41219 5.44753L5.39429 5.77073L26.4006 6.74207Z" fill="#898A8A"/>
<path fill-rule="evenodd" clip-rule="evenodd" d="M26.4006 6.74207L5.39779 5.70607L5.38379 6.02966L26.4006 6.74207Z" fill="#898B8B"/>
<path fill-rule="evenodd" clip-rule="evenodd" d="M26.4005 6.74207L5.38672 5.96501L5.37646 6.28888L26.4005 6.74207Z" fill="#8A8B8B"/>
<path fill-rule="evenodd" clip-rule="evenodd" d="M26.4006 6.74207L5.37878 6.22394L5.3728 6.54781L26.4006 6.74207Z" fill="#8B8C8C"/>
<path fill-rule="evenodd" clip-rule="evenodd" d="M26.4006 6.74196L5.37394 6.48303L5.37207 6.80664L26.4006 6.74196Z" fill="#8C8D8D"/>
<path fill-rule="evenodd" clip-rule="evenodd" d="M26.4007 6.74192H5.37256L5.37443 7.0658L26.4007 6.74192Z" fill="#8C8D8D"/>
<path fill-rule="evenodd" clip-rule="evenodd" d="M26.4007 6.74202L5.37402 7.00096L5.38017 7.32483L26.4007 6.74202Z" fill="#8D8E8E"/>
<path fill-rule="evenodd" clip-rule="evenodd" d="M26.4007 6.742L5.37891 7.26015L5.38879 7.58374L26.4007 6.742Z" fill="#8D8F8F"/>
<path fill-rule="evenodd" clip-rule="evenodd" d="M26.4005 6.74198L5.38672 7.51906L5.40072 7.84265L26.4005 6.74198Z" fill="#8E8F8F"/>
<path fill-rule="evenodd" clip-rule="evenodd" d="M26.4008 6.742L5.39795 7.77802L5.41606 8.10107L26.4008 6.742Z" fill="#8F9090"/>
<path fill-rule="evenodd" clip-rule="evenodd" d="M26.4005 6.742L5.41211 8.03654L5.43396 8.35962L26.4005 6.742Z" fill="#8F9091"/>
<path fill-rule="evenodd" clip-rule="evenodd" d="M26.4006 6.74207L5.42993 8.29515L5.45569 8.6178L26.4006 6.74207Z" fill="#909191"/>
<path fill-rule="evenodd" clip-rule="evenodd" d="M26.4006 6.742L5.45068 8.5532L5.48055 8.87561L26.4006 6.742Z" fill="#919292"/>
<path fill-rule="evenodd" clip-rule="evenodd" d="M26.4008 6.74196L5.47461 8.8113L5.50834 9.1333L26.4008 6.74196Z" fill="#919393"/>
<path fill-rule="evenodd" clip-rule="evenodd" d="M26.4007 6.74198L5.50146 9.06866L5.53959 9.39026L26.4007 6.74198Z" fill="#929393"/>
<path fill-rule="evenodd" clip-rule="evenodd" d="M26.4007 6.742L5.53198 9.32615L5.57361 9.64734L26.4007 6.742Z" fill="#929394"/>
<path fill-rule="evenodd" clip-rule="evenodd" d="M26.4006 6.74196L5.56519 9.58303L5.61092 9.90356L26.4006 6.74196Z" fill="#939495"/>
<path fill-rule="evenodd" clip-rule="evenodd" d="M26.4008 6.74207L5.60205 9.8394L5.65153 10.1595L26.4008 6.74207Z" fill="#949595"/>
<path fill-rule="evenodd" clip-rule="evenodd" d="M26.4007 6.74198L5.6416 10.0956L5.69531 10.4149L26.4007 6.74198Z" fill="#959696"/>
<path fill-rule="evenodd" clip-rule="evenodd" d="M26.4006 6.74207L5.68433 10.3511L5.74202 10.6698L26.4006 6.74207Z" fill="#959697"/>
<path fill-rule="evenodd" clip-rule="evenodd" d="M26.4008 6.74194L5.73047 10.6058L5.7922 10.924L26.4008 6.74194Z" fill="#969797"/>
<path fill-rule="evenodd" clip-rule="evenodd" d="M26.4006 6.74202L5.77954 10.8602L5.84489 11.1774L26.4006 6.74202Z" fill="#969798"/>
<path fill-rule="evenodd" clip-rule="evenodd" d="M26.4006 6.742L5.83203 11.1141L5.90125 11.4305L26.4006 6.742Z" fill="#979898"/>
<path fill-rule="evenodd" clip-rule="evenodd" d="M26.4006 6.74207L5.88721 11.3671L5.96053 11.6827L26.4006 6.74207Z" fill="#989999"/>
<path fill-rule="evenodd" clip-rule="evenodd" d="M26.4006 6.74194L5.9458 11.6194L6.02287 11.934L26.4006 6.74194Z" fill="#98999A"/>
<path fill-rule="evenodd" clip-rule="evenodd" d="M26.4006 6.74202L6.00732 11.8712L6.08826 12.1846L26.4006 6.74202Z" fill="#999A9B"/>
<path fill-rule="evenodd" clip-rule="evenodd" d="M26.4007 6.74204L6.07251 12.1218L6.15719 12.4344L26.4007 6.74204Z" fill="#999A9A"/>
<path fill-rule="evenodd" clip-rule="evenodd" d="M26.4007 6.742L6.14014 12.372L6.22864 12.6835L26.4007 6.742Z" fill="#9A9A9B"/>
<path fill-rule="evenodd" clip-rule="evenodd" d="M26.4007 6.74194L6.21118 12.621L6.30347 12.9313L26.4007 6.74194Z" fill="#9A9B9B"/>
<path fill-rule="evenodd" clip-rule="evenodd" d="M26.4007 6.74204L6.28491 12.8694L6.38131 13.1786L26.4007 6.74204Z" fill="#9A9C9C"/>
<path fill-rule="evenodd" clip-rule="evenodd" d="M26.4005 6.74202L6.36182 13.117L6.46195 13.4246L26.4005 6.74202Z" fill="#9B9C9D"/>
<path fill-rule="evenodd" clip-rule="evenodd" d="M26.4007 6.74192L6.44214 13.3629L6.5461 13.6698L26.4007 6.74192Z" fill="#9C9D9E"/>
<path fill-rule="evenodd" clip-rule="evenodd" d="M26.4008 6.74194L6.52539 13.6086L6.63273 13.9139L26.4008 6.74194Z" fill="#9D9E9E"/>
<path fill-rule="evenodd" clip-rule="evenodd" d="M26.4005 6.74202L6.61084 13.8528L6.72233 14.1571L26.4005 6.74202Z" fill="#9D9E9F"/>
<path fill-rule="evenodd" clip-rule="evenodd" d="M26.4006 6.74198L6.7002 14.0963L6.81555 14.3989L26.4006 6.74198Z" fill="#9E9F9F"/>
<path fill-rule="evenodd" clip-rule="evenodd" d="M26.4006 6.74194L6.79248 14.3381L6.91113 14.6393L26.4006 6.74194Z" fill="#9E9FA0"/>
<path fill-rule="evenodd" clip-rule="evenodd" d="M26.4006 6.74196L6.88721 14.5792L7.01013 14.8789L26.4006 6.74196Z" fill="#9FA0A1"/>
<path fill-rule="evenodd" clip-rule="evenodd" d="M26.4007 6.74196L6.9856 14.8192L7.11186 15.1174L26.4007 6.74196Z" fill="#9FA0A1"/>
<path fill-rule="evenodd" clip-rule="evenodd" d="M26.4006 6.74196L7.08643 15.0577L7.21643 15.3544L26.4006 6.74196Z" fill="#A0A1A1"/>
<path fill-rule="evenodd" clip-rule="evenodd" d="M26.4006 6.74196L7.19043 15.295L7.32377 15.5898L26.4006 6.74196Z" fill="#A1A2A2"/>
<path fill-rule="evenodd" clip-rule="evenodd" d="M26.4006 6.74207L7.29736 15.531L7.43416 15.8243L26.4006 6.74207Z" fill="#A1A2A3"/>
<path fill-rule="evenodd" clip-rule="evenodd" d="M26.4006 6.74202L7.40698 15.7656L7.54753 16.0575L26.4006 6.74202Z" fill="#A2A3A3"/>
<path fill-rule="evenodd" clip-rule="evenodd" d="M26.4005 6.74202L7.51953 15.9988L7.6639 16.2887L26.4005 6.74202Z" fill="#A2A3A4"/>
<path fill-rule="evenodd" clip-rule="evenodd" d="M26.4005 6.74198L7.63477 16.2309L7.78288 16.5189L26.4005 6.74198Z" fill="#A3A4A5"/>
<path fill-rule="evenodd" clip-rule="evenodd" d="M26.4008 6.74207L7.75342 16.4615L7.90487 16.7477L26.4008 6.74207Z" fill="#A3A5A5"/>
<path fill-rule="evenodd" clip-rule="evenodd" d="M26.4007 6.74207L7.87451 16.6906L8.02958 16.9747L26.4007 6.74207Z" fill="#A4A5A6"/>
<path fill-rule="evenodd" clip-rule="evenodd" d="M26.4007 6.74202L7.99854 16.9176L8.15694 17.2004L26.4007 6.74202Z" fill="#A5A6A6"/>
<path fill-rule="evenodd" clip-rule="evenodd" d="M26.4005 6.74204L8.125 17.1437L8.28711 17.4242L26.4005 6.74204Z" fill="#A5A6A7"/>
<path fill-rule="evenodd" clip-rule="evenodd" d="M26.4008 6.74192L8.25488 17.3681L8.42045 17.6466L26.4008 6.74192Z" fill="#A6A7A7"/>
<path fill-rule="evenodd" clip-rule="evenodd" d="M26.4006 6.74198L8.38696 17.5908L8.55591 17.8671L26.4006 6.74198Z" fill="#A6A7A8"/>
<path fill-rule="evenodd" clip-rule="evenodd" d="M26.4007 6.74202L8.52197 17.8119L8.69438 18.0863L26.4007 6.74202Z" fill="#A7A8A9"/>
<path fill-rule="evenodd" clip-rule="evenodd" d="M26.4006 6.74198L8.65991 18.0315L8.83525 18.3036L26.4006 6.74198Z" fill="#A7A8A9"/>
<path fill-rule="evenodd" clip-rule="evenodd" d="M26.4006 6.74196L8.80005 18.2492L8.97925 18.519L26.4006 6.74196Z" fill="#A8A9A9"/>
<path fill-rule="evenodd" clip-rule="evenodd" d="M26.4006 6.742L8.94336 18.4649L9.12549 18.7325L26.4006 6.742Z" fill="#A8A9AA"/>
<path fill-rule="evenodd" clip-rule="evenodd" d="M26.4007 6.74192L9.08936 18.6793L9.27458 18.9445L26.4007 6.74192Z" fill="#A9AAAB"/>
<path fill-rule="evenodd" clip-rule="evenodd" d="M26.4005 6.74198L9.2373 18.8917L9.42594 19.1548L26.4005 6.74198Z" fill="#AAABAB"/>
<path fill-rule="evenodd" clip-rule="evenodd" d="M26.4007 6.74198L9.38867 19.1021L9.58024 19.3629L26.4007 6.74198Z" fill="#AAABAC"/>
<path fill-rule="evenodd" clip-rule="evenodd" d="M26.4006 6.74202L9.54199 19.3108L9.73706 19.569L26.4006 6.74202Z" fill="#ABACAC"/>
<path fill-rule="evenodd" clip-rule="evenodd" d="M26.4007 6.74196L9.69824 19.5176L9.89665 19.7734L26.4007 6.74196Z" fill="#ABACAD"/>
<path fill-rule="evenodd" clip-rule="evenodd" d="M26.4007 6.74198L9.85693 19.7224L10.0584 19.9756L26.4007 6.74198Z" fill="#ACADAD"/>
<path fill-rule="evenodd" clip-rule="evenodd" d="M26.4008 6.74202L10.0181 19.9251L10.2225 20.176L26.4008 6.74202Z" fill="#ADADAE"/>
<path fill-rule="evenodd" clip-rule="evenodd" d="M26.4007 6.74198L10.1816 20.1261L10.3895 20.3744L26.4007 6.74198Z" fill="#ADAEAE"/>
<path fill-rule="evenodd" clip-rule="evenodd" d="M26.4005 6.74202L10.3477 20.325L10.5582 20.5706L26.4005 6.74202Z" fill="#ADAEAF"/>
<path fill-rule="evenodd" clip-rule="evenodd" d="M26.4008 6.74196L10.5166 20.5214L10.7301 20.7648L26.4008 6.74196Z" fill="#AEAFAF"/>
<path fill-rule="evenodd" clip-rule="evenodd" d="M26.4006 6.74198L10.6873 20.716L10.9038 20.9568L26.4006 6.74198Z" fill="#AFB0B0"/>
<path fill-rule="evenodd" clip-rule="evenodd" d="M26.4007 6.74207L10.8608 20.9085L11.0804 21.1466L26.4007 6.74207Z" fill="#AFB0B1"/>
<path fill-rule="evenodd" clip-rule="evenodd" d="M26.4007 6.74194L11.0361 21.0989L11.2588 21.3344L26.4007 6.74194Z" fill="#AFB0B1"/>
<path fill-rule="evenodd" clip-rule="evenodd" d="M26.4005 6.74204L11.2144 21.2873L11.4397 21.5197L26.4005 6.74204Z" fill="#B0B1B2"/>
<path fill-rule="evenodd" clip-rule="evenodd" d="M26.4007 6.74207L11.3948 21.4731L11.623 21.703L26.4007 6.74207Z" fill="#B1B2B2"/>
<path fill-rule="evenodd" clip-rule="evenodd" d="M26.4005 6.74204L11.5771 21.6569L11.8081 21.8839L26.4005 6.74204Z" fill="#B1B2B2"/>
<path fill-rule="evenodd" clip-rule="evenodd" d="M26.4006 6.74198L11.7622 21.8381L11.9961 22.0623L26.4006 6.74198Z" fill="#B1B2B2"/>
<path fill-rule="evenodd" clip-rule="evenodd" d="M26.4006 6.74196L11.9492 22.0177L12.1858 22.2388L26.4006 6.74196Z" fill="#B2B3B3"/>
<path fill-rule="evenodd" clip-rule="evenodd" d="M26.4007 6.74204L12.1387 22.1947L12.3778 22.4127L26.4007 6.74204Z" fill="#B2B3B3"/>
<path fill-rule="evenodd" clip-rule="evenodd" d="M26.4006 6.74196L12.3298 22.3688L12.5721 22.5842L26.4006 6.74196Z" fill="#B3B3B4"/>
<path fill-rule="evenodd" clip-rule="evenodd" d="M26.4006 6.74196L12.5237 22.5412L12.7682 22.7532L26.4006 6.74196Z" fill="#B3B4B5"/>
<path fill-rule="evenodd" clip-rule="evenodd" d="M26.4007 6.74192L12.7192 22.7109L12.9664 22.9198L26.4007 6.74192Z" fill="#B4B4B5"/>
<path fill-rule="evenodd" clip-rule="evenodd" d="M26.4005 6.74196L12.917 22.8782L13.1665 23.0842L26.4005 6.74196Z" fill="#B4B5B5"/>
<path fill-rule="evenodd" clip-rule="evenodd" d="M26.4006 6.74207L13.1167 23.0431L13.3692 23.2462L26.4006 6.74207Z" fill="#B5B6B6"/>
<path fill-rule="evenodd" clip-rule="evenodd" d="M26.4006 6.74202L13.3186 23.2056L13.5733 23.4056L26.4006 6.74202Z" fill="#B5B6B6"/>
<path fill-rule="evenodd" clip-rule="evenodd" d="M26.4005 6.742L13.5225 23.3655L13.7795 23.562L26.4005 6.742Z" fill="#B5B6B7"/>
<path fill-rule="evenodd" clip-rule="evenodd" d="M26.4007 6.74192L13.7283 23.5227L13.988 23.7162L26.4007 6.74192Z" fill="#B6B7B8"/>
<path fill-rule="evenodd" clip-rule="evenodd" d="M26.4006 6.74202L13.936 23.6778L14.198 23.8682L26.4006 6.74202Z" fill="#B7B8B8"/>
<path fill-rule="evenodd" clip-rule="evenodd" d="M26.4006 6.74202L14.1455 23.83L14.4096 24.0171L26.4006 6.74202Z" fill="#B7B8B8"/>
<path fill-rule="evenodd" clip-rule="evenodd" d="M26.4007 6.74198L14.3572 23.9797L14.6237 24.1633L26.4007 6.74198Z" fill="#B8B9B9"/>
<path fill-rule="evenodd" clip-rule="evenodd" d="M26.4006 6.74202L14.5703 24.1267L14.839 24.3074L26.4006 6.74202Z" fill="#B8B9BA"/>
<path fill-rule="evenodd" clip-rule="evenodd" d="M26.4006 6.74196L14.7854 24.271L15.0564 24.4484L26.4006 6.74196Z" fill="#B9B9BA"/>
<path fill-rule="evenodd" clip-rule="evenodd" d="M26.4007 6.742L15.0024 24.4128L15.2753 24.5867L26.4007 6.742Z" fill="#B9BABB"/>
<path fill-rule="evenodd" clip-rule="evenodd" d="M26.4006 6.742L15.2207 24.5519L15.4959 24.7224L26.4006 6.742Z" fill="#BABBBB"/>
<path fill-rule="evenodd" clip-rule="evenodd" d="M26.4006 6.742L15.4412 24.6884L15.7186 24.8553L26.4006 6.742Z" fill="#BABBBB"/>
<path fill-rule="evenodd" clip-rule="evenodd" d="M26.4007 6.74198L15.6631 24.8221L15.9424 24.9857L26.4007 6.74198Z" fill="#BBBCBC"/>
<path fill-rule="evenodd" clip-rule="evenodd" d="M26.4005 6.74194L15.8862 24.9529L16.1678 25.1132L26.4005 6.74194Z" fill="#BBBCBD"/>
<path fill-rule="evenodd" clip-rule="evenodd" d="M26.4008 6.74204L16.1118 25.0811L16.3953 25.2379L26.4008 6.74204Z" fill="#BCBCBD"/>
<path fill-rule="evenodd" clip-rule="evenodd" d="M26.4007 6.742L16.3384 25.2065L16.6239 25.3596L26.4007 6.742Z" fill="#BCBDBD"/>
<path fill-rule="evenodd" clip-rule="evenodd" d="M26.4006 6.74196L16.5667 25.3289L16.8539 25.4786L26.4006 6.74196Z" fill="#BCBDBD"/>
<path fill-rule="evenodd" clip-rule="evenodd" d="M26.4006 6.74202L16.7964 25.4488L17.0852 25.5951L26.4006 6.74202Z" fill="#BDBEBE"/>
<path fill-rule="evenodd" clip-rule="evenodd" d="M26.4006 6.742L17.0273 25.5656L17.3184 25.708L26.4006 6.742Z" fill="#BEBEBF"/>
<path fill-rule="evenodd" clip-rule="evenodd" d="M26.4007 6.74192L17.2603 25.6797L17.5528 25.8187L26.4007 6.74192Z" fill="#BEBFBF"/>
<path fill-rule="evenodd" clip-rule="evenodd" d="M26.4006 6.742L17.4941 25.7908L17.7881 25.9261L26.4006 6.742Z" fill="#BFBFC0"/>
<path fill-rule="evenodd" clip-rule="evenodd" d="M26.4007 6.74196L17.7297 25.8993L18.0253 26.0308L26.4007 6.74196Z" fill="#BFBFC0"/>
<path fill-rule="evenodd" clip-rule="evenodd" d="M26.4007 6.74202L17.9663 26.0044L18.2638 26.1326L26.4007 6.74202Z" fill="#BFC0C0"/>
<path fill-rule="evenodd" clip-rule="evenodd" d="M26.4006 6.74196L18.2039 26.1068L18.5028 26.2314L26.4006 6.74196Z" fill="#C0C0C1"/>
<path fill-rule="evenodd" clip-rule="evenodd" d="M26.4007 6.74207L18.4434 26.2066L18.7438 26.3273L26.4007 6.74207Z" fill="#C1C1C1"/>
<path fill-rule="evenodd" clip-rule="evenodd" d="M26.4007 6.74202L18.6836 26.303L18.9856 26.4202L26.4007 6.74202Z" fill="#C0C1C2"/>
<path fill-rule="evenodd" clip-rule="evenodd" d="M26.4006 6.74202L18.925 26.3967L19.2285 26.5098L26.4006 6.74202Z" fill="#C1C2C2"/>
<path fill-rule="evenodd" clip-rule="evenodd" d="M26.4005 6.742L19.168 26.4873L19.4726 26.5967L26.4005 6.742Z" fill="#C2C2C3"/>
<path fill-rule="evenodd" clip-rule="evenodd" d="M26.4006 6.742L19.4119 26.5747L19.7176 26.6805L26.4006 6.742Z" fill="#C2C2C2"/>
<path fill-rule="evenodd" clip-rule="evenodd" d="M26.4006 6.742L19.6565 26.6593L19.9641 26.7615L26.4006 6.742Z" fill="#C3C3C3"/>
<path fill-rule="evenodd" clip-rule="evenodd" d="M26.4005 6.74202L19.9023 26.7411L20.2111 26.8394L26.4005 6.74202Z" fill="#C3C3C4"/>
<path fill-rule="evenodd" clip-rule="evenodd" d="M26.4008 6.74196L20.1494 26.8196L20.4594 26.9137L26.4008 6.74196Z" fill="#C3C4C4"/>
<path fill-rule="evenodd" clip-rule="evenodd" d="M26.4006 6.74198L20.3972 26.8948L20.7083 26.9856L26.4006 6.74198Z" fill="#C4C4C5"/>
<path fill-rule="evenodd" clip-rule="evenodd" d="M26.4007 6.74204L20.646 26.9674L20.9581 27.0543L26.4007 6.74204Z" fill="#C4C4C5"/>
<path fill-rule="evenodd" clip-rule="evenodd" d="M26.4007 6.742L20.8955 27.0369L21.2088 27.1198L26.4007 6.742Z" fill="#C4C4C4"/>
<path fill-rule="evenodd" clip-rule="evenodd" d="M26.4007 6.74198L21.146 27.103L21.4601 27.1821L26.4007 6.74198Z" fill="#C4C5C5"/>
<path fill-rule="evenodd" clip-rule="evenodd" d="M26.4006 6.74198L21.3972 27.1661L21.712 27.2415L26.4006 6.74198Z" fill="#C5C5C6"/>
<path fill-rule="evenodd" clip-rule="evenodd" d="M26.4006 6.74198L21.6494 27.2263L21.965 27.2977L26.4006 6.74198Z" fill="#C6C6C6"/>
<path fill-rule="evenodd" clip-rule="evenodd" d="M26.4007 6.74202L21.9019 27.2834L22.2187 27.3507L26.4007 6.74202Z" fill="#C6C6C7"/>
<path fill-rule="evenodd" clip-rule="evenodd" d="M26.4006 6.74196L22.1555 27.337L22.473 27.4005L26.4006 6.74196Z" fill="#C6C7C7"/>
<path fill-rule="evenodd" clip-rule="evenodd" d="M26.4006 6.74204L22.4094 27.3881L22.7277 27.4474L26.4006 6.74204Z" fill="#C7C7C7"/>
<path fill-rule="evenodd" clip-rule="evenodd" d="M26.4005 6.742L22.6641 27.4358L22.983 27.4912L26.4005 6.742Z" fill="#C7C7C7"/>
<path fill-rule="evenodd" clip-rule="evenodd" d="M26.4006 6.742L22.9192 27.4799L23.2389 27.5317L26.4006 6.742Z" fill="#C8C8C8"/>
<path fill-rule="evenodd" clip-rule="evenodd" d="M26.4006 6.74202L23.175 27.5215L23.4952 27.5691L26.4006 6.74202Z" fill="#C8C8C9"/>
<path fill-rule="evenodd" clip-rule="evenodd" d="M26.4006 6.74196L23.4314 27.5596L23.752 27.603L26.4006 6.74196Z" fill="#C8C9C9"/>
<path fill-rule="evenodd" clip-rule="evenodd" d="M26.4006 6.74202L23.688 27.5944L24.0092 27.6342L26.4006 6.74202Z" fill="#C9C9CA"/>
<path fill-rule="evenodd" clip-rule="evenodd" d="M26.4006 6.74196L23.9451 27.6261L24.2667 27.6621L26.4006 6.74196Z" fill="#C9C9C9"/>
<path fill-rule="evenodd" clip-rule="evenodd" d="M26.4006 6.74207L24.2024 27.655L24.5248 27.6871L26.4006 6.74207Z" fill="#CACACA"/>
<path fill-rule="evenodd" clip-rule="evenodd" d="M26.4006 6.74198L24.4602 27.6805L24.783 27.7081L26.4006 6.74198Z" fill="#CACACA"/>
<path fill-rule="evenodd" clip-rule="evenodd" d="M26.4006 6.742L24.7183 27.7029L25.0415 27.7267L26.4006 6.742Z" fill="#CACBCB"/>
<path fill-rule="evenodd" clip-rule="evenodd" d="M26.4006 6.74194L24.9768 27.7217L25.3 27.7418L26.4006 6.74194Z" fill="#CBCBCC"/>
<path fill-rule="evenodd" clip-rule="evenodd" d="M26.4006 6.74202L25.2354 27.738L25.5588 27.7539L26.4006 6.74202Z" fill="#CBCCCC"/>
<path fill-rule="evenodd" clip-rule="evenodd" d="M26.4006 6.74202L25.4939 27.7506L25.8178 27.7627L26.4006 6.74202Z" fill="#CCCCCC"/>
<path fill-rule="evenodd" clip-rule="evenodd" d="M26.4007 6.74192L25.7529 27.7603L26.0768 27.7682L26.4007 6.74192Z" fill="#CCCCCC"/>
<path fill-rule="evenodd" clip-rule="evenodd" d="M26.4008 6.74196L26.0122 27.7668L26.3358 27.7705L26.4008 6.74196Z" fill="#CCCCCD"/>
<path fill-rule="evenodd" clip-rule="evenodd" d="M26.4006 6.74192L26.271 27.7697H26.5304L26.4006 6.74192Z" fill="#CCCCCC"/>
</g>
<path d="M26.4006 1.04053L36.5207 3.89148L46.6403 6.742L36.5207 9.59294L26.4006 12.4435L16.2805 9.59294L6.1604 6.742L16.2805 3.89148L26.4006 1.04053Z" stroke="#1A1A18" stroke-width="0.288" stroke-miterlimit="22.9256"/>
</svg>
