<svg width="40" height="27" viewBox="0 0 40 27" fill="none" xmlns="http://www.w3.org/2000/svg">
<path d="M445.447 -111.407V166.156H-286.589V-111.407H445.447Z" stroke="#1A1A18" stroke-width="2.6664" stroke-miterlimit="22.9256"/>
<path fill-rule="evenodd" clip-rule="evenodd" d="M19.6002 15.2203C30.336 15.2203 39.0388 17.6521 39.0388 20.6519C39.0388 23.6514 30.336 26.0831 19.6002 26.0831C8.86489 26.0831 0.162109 23.6514 0.162109 20.6519C0.162109 17.6521 8.86489 15.2203 19.6002 15.2203Z" fill="#EF7C00"/>
<path d="M19.6002 15.2203C30.336 15.2203 39.0388 17.6521 39.0388 20.6519C39.0388 23.6514 30.336 26.0831 19.6002 26.0831C8.86489 26.0831 0.162109 23.6514 0.162109 20.6519C0.162109 17.6521 8.86489 15.2203 19.6002 15.2203Z" stroke="#1A1A18" stroke-width="0.288" stroke-miterlimit="22.9256"/>
<path fill-rule="evenodd" clip-rule="evenodd" d="M-0.24292 13.5996H38.6983V20.079H-0.24292V13.5996Z" fill="#EF7C00"/>
<path fill-rule="evenodd" clip-rule="evenodd" d="M19.7765 9.77592C30.5122 9.77592 39.215 11.589 39.215 13.8254C39.215 16.0621 30.5122 17.8751 19.7765 17.8751C9.04116 17.8751 0.338379 16.0621 0.338379 13.8254C0.338379 11.589 9.04116 9.77592 19.7765 9.77592Z" fill="#EF7C00"/>
<path d="M19.7765 9.77592C30.5122 9.77592 39.215 11.589 39.215 13.8254C39.215 16.0621 30.5122 17.8751 19.7765 17.8751C9.04116 17.8751 0.338379 16.0621 0.338379 13.8254C0.338379 11.589 9.04116 9.77592 19.7765 9.77592Z" stroke="#1A1A18" stroke-width="0.288" stroke-miterlimit="22.9256"/>
<path fill-rule="evenodd" clip-rule="evenodd" d="M19.4618 9.33044C30.1971 9.33044 38.8999 11.1435 38.8999 13.3802C38.8999 15.617 30.1971 17.4301 19.4618 17.4301C8.72602 17.4301 0.0231934 15.617 0.0231934 13.3802C0.0231934 11.1435 8.72602 9.33044 19.4618 9.33044Z" fill="#AD4482"/>
<path d="M19.4618 9.33044C30.1971 9.33044 38.8999 11.1435 38.8999 13.3802C38.8999 15.617 30.1971 17.4301 19.4618 17.4301C8.72602 17.4301 0.0231934 15.617 0.0231934 13.3802C0.0231934 11.1435 8.72602 9.33044 19.4618 9.33044Z" stroke="#1A1A18" stroke-width="0.288" stroke-miterlimit="22.9256"/>
<path fill-rule="evenodd" clip-rule="evenodd" d="M-0.381592 7.70976H38.5597V14.1891H-0.381592V7.70976Z" fill="#AD4482"/>
<path fill-rule="evenodd" clip-rule="evenodd" d="M19.6378 0.597086C30.3732 0.597086 39.076 3.14641 39.076 6.29134C39.076 9.43587 30.3732 11.9852 19.6378 11.9852C8.90248 11.9852 0.199707 9.43587 0.199707 6.29134C0.199707 3.14641 8.90248 0.597086 19.6378 0.597086Z" fill="#AD4482"/>
<path d="M19.6378 0.597086C30.3732 0.597086 39.076 3.14641 39.076 6.29134C39.076 9.43587 30.3732 11.9852 19.6378 11.9852C8.90248 11.9852 0.199707 9.43587 0.199707 6.29134C0.199707 3.14641 8.90248 0.597086 19.6378 0.597086Z" stroke="#1A1A18" stroke-width="0.288" stroke-miterlimit="22.9256"/>
</svg>
