<svg width="211" height="66" viewBox="0 0 211 66" fill="none" xmlns="http://www.w3.org/2000/svg">
<g clip-path="url(#clip0_2_22765)">
<path d="M147.815 2.00004H208.515V60.5675H147.815V2.00004Z" stroke="#1A1A18" stroke-width="0.288" stroke-miterlimit="22.9256"/>
<path d="M8.16699 18.5671V17.7814C8.47273 17.8098 9.40779 17.8563 10.9617 17.9272C12.4761 17.8631 13.4183 17.817 13.7955 17.7814V18.6099H12.9171C12.4621 18.6099 12.1458 18.7486 11.9749 19.0222C11.8041 19.2963 11.7081 19.7014 11.6835 20.2347C11.7118 20.2918 11.7258 20.3734 11.7258 20.4906V26.9725C11.7258 27.8721 11.7935 28.6044 11.9287 29.1732C12.0637 29.7387 12.3945 30.0229 12.9171 30.0229H13.9233V30.7698C13.0807 30.656 12.1207 30.599 11.0433 30.599C9.96952 30.599 9.00953 30.656 8.16699 30.7698V29.9768H9.12326C9.87726 29.9768 10.2541 29.4507 10.2541 28.398V21.3191C10.2541 20.5332 10.2258 19.8934 10.1653 19.4028C10.1082 18.9123 9.95886 18.6488 9.72419 18.6099C9.60699 18.5815 9.36179 18.5671 8.97779 18.5671H8.16699Z" fill="#1A1A18"/>
<path d="M15.8043 28.2738C15.8043 28.6861 15.8893 29.0451 16.0567 29.3619C16.2272 29.6749 16.4585 29.9163 16.7499 30.0834C17.0413 30.2509 17.358 30.3359 17.6994 30.3431C18.2538 30.3431 18.7265 30.1831 19.1177 29.8597C19.5089 29.5395 19.7044 29.0951 19.7044 28.5297C19.7044 28.0818 19.5977 27.7155 19.388 27.4242C19.1783 27.1323 18.8586 26.8338 18.4246 26.5246L17.2938 25.6923C16.4691 25.017 16.0385 24.2062 15.9963 23.2606C15.9963 22.4322 16.2272 21.7602 16.6928 21.2341C17.1588 20.7113 17.8415 20.4195 18.7444 20.3591C19.004 20.3591 19.3098 20.3983 19.662 20.4766C20.0174 20.5549 20.1881 20.5938 20.1737 20.5938V22.8517H19.5339V22.2791C19.5339 21.9271 19.4451 21.6142 19.2743 21.3441C19.1037 21.0703 18.8619 20.9351 18.5524 20.9351C18.2148 20.9351 17.9196 21.0987 17.6672 21.4294C17.4185 21.7563 17.2938 22.0871 17.2938 22.425C17.3403 23.2678 17.7809 23.9965 18.6165 24.6009L19.58 25.2622C20.4902 25.8882 20.9667 26.6845 21.006 27.6552C21.006 28.0818 20.8742 28.5512 20.6111 29.063C20.3518 29.5752 19.9677 30.009 19.4663 30.3646C18.9651 30.72 18.3747 30.8979 17.6994 30.8979H17.6565C17.0024 30.8979 16.4407 30.8087 15.9675 30.6311C15.4985 30.4569 15.1712 30.3075 14.9897 30.1903L15.246 26.9725L15.9071 27.0579C15.8966 27.0719 15.8826 27.2144 15.861 27.4774C15.8432 27.7405 15.8255 28.0073 15.8043 28.2738Z" fill="#1A1A18"/>
<path d="M22.798 28.2738C22.798 28.6861 22.8831 29.0451 23.0506 29.3619C23.221 29.6749 23.4523 29.9163 23.7436 30.0834C24.0351 30.2509 24.3518 30.3359 24.6931 30.3431C25.2476 30.3431 25.7204 30.1831 26.1116 29.8597C26.5027 29.5395 26.6982 29.0951 26.6982 28.5297C26.6982 28.0818 26.5916 27.7155 26.3818 27.4242C26.172 27.1323 25.8523 26.8338 25.4184 26.5246L24.2876 25.6923C23.4628 25.017 23.0324 24.2062 22.99 23.2606C22.99 22.4322 23.221 21.7602 23.6866 21.2341C24.1527 20.7113 24.8352 20.4195 25.7382 20.3591C25.9978 20.3591 26.3036 20.3983 26.6558 20.4766C27.0111 20.5549 27.1819 20.5938 27.1676 20.5938V22.8517H26.5276V22.2791C26.5276 21.9271 26.4388 21.6142 26.268 21.3441C26.0976 21.0703 25.8556 20.9351 25.5462 20.9351C25.2087 20.9351 24.9135 21.0987 24.661 21.4294C24.4123 21.7563 24.2876 22.0871 24.2876 22.425C24.334 23.2678 24.7747 23.9965 25.6104 24.6009L26.5738 25.2622C27.4839 25.8882 27.9606 26.6845 27.9998 27.6552C27.9998 28.0818 27.8679 28.5512 27.6048 29.063C27.3456 29.5752 26.9616 30.009 26.46 30.3646C25.9588 30.72 25.3686 30.8979 24.6931 30.8979H24.6504C23.9962 30.8979 23.4346 30.8087 22.9614 30.6311C22.4923 30.4569 22.165 30.3075 21.9836 30.1903L22.2398 26.9725L22.9008 27.0579C22.8903 27.0719 22.8763 27.2144 22.8547 27.4774C22.837 27.7405 22.8192 28.0073 22.798 28.2738Z" fill="#1A1A18"/>
<path d="M32.0707 20.1885L32.3693 20.4905C31.7577 22.7911 31.452 25.5929 31.452 28.8959C32.1275 28.1565 32.7923 27.3209 33.4396 26.3859C34.0867 25.4541 34.6484 24.4871 35.1284 23.4843C35.605 22.4781 35.9463 21.5039 36.1416 20.5511H37.5317L36.9773 29.4684L38.6625 29.1093V29.9768C37.2687 29.9768 36.0706 30.3146 35.0751 30.9829C35.5656 28.3662 35.8287 25.9912 35.868 23.8577C34.3355 26.4891 32.7212 28.807 31.0254 30.8124H29.8734L30.4065 21.5964L28.8279 21.9771V21.1912C29.4572 21.1557 30.0015 21.0597 30.4671 20.91C30.9293 20.7608 31.4625 20.5227 32.0707 20.1885Z" fill="#1A1A18"/>
<path d="M45.6206 27.0969L46.2817 27.1857C46.2817 27.4809 46.1929 27.9148 46.0186 28.4836C45.841 29.0562 45.482 29.6001 44.9344 30.119C44.3866 30.6382 43.6114 30.8979 42.6092 30.8979C41.8834 30.8979 41.2864 30.7093 40.8169 30.3287C40.3478 29.9519 40.0062 29.447 39.793 28.8109C39.5798 28.1778 39.4729 27.4737 39.4729 26.6951C39.5156 25.8775 39.6044 25.1095 39.7432 24.3949C39.8818 23.6835 40.0988 23.0187 40.3868 22.4038C40.6782 21.7851 41.0622 21.2907 41.5422 20.9139C42.0188 20.5371 42.5948 20.3379 43.2702 20.3163C43.8572 20.3163 44.33 20.4339 44.6924 20.6721C45.0514 20.9101 45.3112 21.2341 45.4676 21.6392C45.6241 22.0444 45.7024 22.5066 45.7024 23.026C45.7024 23.4704 45.6169 24.0642 45.4464 24.8143C44.0492 25.2801 42.5736 25.6035 41.0266 25.7778C41.0198 25.7778 40.9912 26.0269 40.945 26.5246C41.0266 28.7077 41.7734 29.831 43.1852 29.8951C43.6186 29.8951 44.0242 29.7742 44.401 29.529C44.7744 29.2837 45.073 28.9563 45.29 28.5511C45.5104 28.1457 45.6206 27.7193 45.6206 27.2712V27.0969ZM41.1121 25.0914L42.9932 24.8143C43.4376 24.729 43.7857 24.5014 44.0314 24.1318C44.2766 23.7655 44.401 23.3389 44.401 22.8517C44.401 22.3006 44.3333 21.8346 44.1946 21.4578C44.0597 21.081 43.7502 20.8923 43.2702 20.8923C42.5554 20.9101 42.0188 21.4012 41.6632 22.368C41.3041 23.3317 41.1086 24.2062 41.0693 24.9886C41.0872 25.0098 41.0977 25.0348 41.1049 25.0525C41.1086 25.0702 41.1121 25.0846 41.1121 25.0914Z" fill="#1A1A18"/>
<path d="M63.3481 24.562H55.9672V26.9725C55.9672 27.8365 56.0453 28.569 56.2053 29.1661C56.3617 29.7672 56.7313 30.0657 57.3112 30.0657H58.2284V30.8125C57.3073 30.6988 56.3191 30.6417 55.2631 30.6417C54.2353 30.6417 53.2576 30.6988 52.3369 30.8125V30.023H53.343C54.1253 30.023 54.5161 29.4969 54.5161 28.4447V21.3619C54.5161 19.6232 54.3241 18.7165 53.944 18.6489C53.8018 18.6205 53.5561 18.6065 53.2149 18.6065H52.3369V17.7781C53.382 17.8918 54.328 17.9701 55.1776 18.0124C56.0986 17.9701 57.0587 17.8918 58.0543 17.7781V18.6065H57.222C56.8133 18.6065 56.536 18.6489 56.3935 18.7381C56.1909 18.8375 56.0632 19.0367 56.0095 19.3319C55.9528 19.6304 55.9244 20.0284 55.9244 20.5261V23.5592H63.3481V21.3157C63.3481 19.5733 63.1705 18.6704 62.8187 18.61C62.6761 18.5816 62.4309 18.5672 62.0863 18.5672H61.2112V17.7353C61.7268 17.7992 62.7295 17.8632 64.2228 17.9273C65.5883 17.8632 66.5056 17.7992 66.975 17.7353V18.5672H66.1854C65.837 18.5672 65.56 18.6244 65.3536 18.7415C65.1865 18.8197 65.0728 18.9584 65.0157 19.1538C64.9552 19.3496 64.9125 19.6232 64.8841 19.9752C64.9125 20.0889 64.9269 20.2597 64.9269 20.4906V26.9299C64.9269 27.5557 64.9447 28.0747 64.984 28.4908C65.0229 28.9032 65.1222 29.2621 65.2897 29.568C65.453 29.8703 65.7093 30.023 66.0577 30.023H67.0639V30.7699C65.8015 30.6561 64.8703 30.599 64.2655 30.599C63.6433 30.599 62.6123 30.6561 61.1723 30.7699V29.9769H62.2177C62.6444 29.9769 62.9392 29.842 63.1029 29.5717C63.2665 29.3049 63.3481 28.9137 63.3481 28.3981V24.562Z" fill="#1A1A18"/>
<path d="M68.0415 27.5235C68.0592 26.2011 68.198 25.0241 68.4648 23.9892C68.7279 22.9548 69.2291 22.098 69.9652 21.4188C70.7012 20.7396 71.7322 20.3877 73.0584 20.359C73.5846 20.359 74.0184 20.5725 74.3526 21.0026C74.6904 21.4293 74.9358 21.9699 75.0851 22.6203C75.2343 23.2677 75.3198 23.9431 75.3375 24.6435C75.3375 25.8132 75.1916 26.8692 74.9036 27.8186C74.6122 28.7681 74.1322 29.5323 73.464 30.1121C72.7954 30.6915 71.9208 30.9829 70.8399 30.9829H70.4343C69.8943 30.919 69.4532 30.7909 69.1119 30.5921C68.7706 30.3963 68.5075 30.0551 68.319 29.5751C68.1342 29.0951 68.0415 28.4091 68.0415 27.5235ZM69.6844 26.5635C69.6844 27.2604 69.72 27.8576 69.7911 28.3625C69.8622 28.8641 70.0326 29.3013 70.3028 29.6711C70.5731 30.0372 70.982 30.2399 71.5224 30.2791C72.3582 30.2791 72.9552 29.8169 73.311 28.8959C73.6666 27.9751 73.8442 26.862 73.8442 25.5645V25.2621C73.8442 24.1635 73.6738 23.1962 73.3359 22.361C72.998 21.5253 72.4435 21.1059 71.6683 21.1059C71.1918 21.1308 70.8078 21.4577 70.5163 22.0908C70.2246 22.7234 70.0186 23.4525 69.8976 24.2844C69.7767 25.1129 69.7056 25.8737 69.6844 26.5635Z" fill="#1A1A18"/>
<path d="M78.7297 29.8952L80.6923 29.5112V30.4248C79.3945 30.4712 78.1571 30.7272 76.9805 31.1965C77.0301 30.528 77.0655 29.8669 77.0905 29.2089C77.1154 28.5512 77.1438 27.6268 77.1793 26.4321C77.2186 25.2412 77.2575 24.2312 77.2969 23.4061C77.3395 22.5815 77.3962 21.7741 77.4711 20.9779C77.5743 19.9112 77.6771 18.9762 77.7731 18.1761C77.8729 17.3725 77.9794 16.6152 78.0966 15.8936C78.2142 15.1752 78.3529 14.4181 78.5093 13.6213C78.6658 12.825 78.8613 11.9149 79.0959 10.891H81.4389V11.5237C81.3715 11.5699 81.2541 11.6552 81.087 11.7833C80.9199 11.9115 80.7173 12.2063 80.4789 12.6724C80.2441 13.1413 80.0098 13.8527 79.7785 14.8127C79.6114 15.5024 79.4655 16.5833 79.3378 18.0552C79.2097 19.5272 79.1031 21.1486 79.0105 22.9156C78.9217 24.6829 78.8506 26.2507 78.8041 27.6233C78.7546 28.992 78.7297 29.7493 78.7297 29.8952Z" fill="#1A1A18"/>
<path d="M89.6099 20.3592C90.2854 20.4196 90.808 20.7718 91.1743 21.4222C91.5404 22.0693 91.7219 22.8552 91.7219 23.7762C91.6115 26.016 91.2668 27.9503 90.6871 29.5857C90.1076 31.2215 89.4214 32.5228 88.6283 33.4828C87.832 34.4461 87.0428 35.1465 86.2499 35.5804C85.4603 36.0143 84.7744 36.2312 84.1946 36.2312H82.2323C82.0508 35.8152 81.9371 35.1465 81.8872 34.2259C81.9194 34.1404 81.9334 34.0054 81.9334 33.8202C82.0471 32.5545 82.2035 31.6089 82.4027 30.983H83.8499C83.8499 30.9334 83.7539 31.3671 83.5584 32.2847C83.3594 33.202 83.2527 33.9484 83.2312 34.5244C83.2595 34.919 83.3344 35.2002 83.4515 35.3634C83.5724 35.5305 83.8072 35.6125 84.1523 35.6125C84.7034 35.6125 85.322 35.4168 86.0046 35.0293C86.6906 34.642 87.352 34.0339 87.9956 33.2053C88.6355 32.3769 89.162 31.3032 89.5706 29.9841C89.9795 28.6651 90.1859 27.1218 90.1859 25.3549V24.6047C90.1859 22.8979 89.8518 22.0089 89.1798 21.9379C88.888 21.9379 88.6038 22.0909 88.337 22.4001C88.0667 22.7096 87.8286 23.1076 87.6188 23.5876C87.4124 24.0713 87.2454 24.576 87.1211 25.0986C86.9963 25.6213 86.9219 26.0836 86.9003 26.4853C86.9003 26.6668 86.8864 26.8444 86.858 27.0152C86.9363 28.6045 87.1283 29.7709 87.434 30.514L86.2394 31.0257L83.3627 21.7246L81.7414 22.0267L81.699 21.2764C82.8116 21.1876 83.7327 20.8678 84.4686 20.3164L86.3032 25.7816C86.3032 25.4898 86.4203 24.8889 86.6588 23.9821C86.897 23.0792 87.2488 22.2473 87.7148 21.4933C88.1839 20.7364 88.7564 20.3592 89.4356 20.3592H89.6099Z" fill="#1A1A18"/>
<path d="M24.4422 37.0465H24.0972V36.2573C24.9256 36.3317 25.722 36.3817 26.4865 36.4066C26.9061 36.3994 27.5532 36.3745 28.4277 36.3283C29.2989 36.2822 30.124 36.2573 30.9025 36.2573C31.9941 36.2573 32.9613 36.4243 33.8037 36.7622C34.6465 37.0997 35.3506 37.5658 35.9085 38.1595C36.4668 38.7567 36.8901 39.4537 37.1744 40.2572C37.4589 41.0573 37.601 41.9141 37.601 42.8277C37.601 43.7558 37.4624 44.6305 37.1886 45.4589C36.915 46.2837 36.5026 47.0127 35.9478 47.6491C35.393 48.2818 34.6965 48.7762 33.8502 49.1353C33.0074 49.4944 32.0402 49.6757 30.9453 49.6757C30.4686 49.6757 29.9142 49.6369 29.2777 49.5586C28.6413 49.4803 28.0014 49.4021 27.3649 49.3238C26.7285 49.2457 26.1702 49.2063 25.6974 49.2063C25.1886 49.2063 24.6554 49.249 24.0972 49.3345V48.4987H25.1425C25.4484 48.4987 25.7042 48.4066 25.914 48.2251C26.1241 48.0403 26.2306 47.7985 26.2306 47.4998V47.1158V40.2428C26.2306 39.2261 26.1914 38.5042 26.1097 38.0741C26.0316 37.644 25.875 37.3628 25.6404 37.235C25.4056 37.1104 25.0077 37.0465 24.4422 37.0465ZM27.8094 37.1707V46.3263C27.8094 47.1477 28.0476 47.7701 28.5276 48.2002C29.0076 48.6303 29.8005 48.8438 30.9025 48.8438C31.7594 48.8083 32.499 48.6376 33.1177 48.3246C33.7326 48.0154 34.2342 47.5993 34.6216 47.0837C35.0056 46.5649 35.2902 45.9745 35.475 45.3058C35.6598 44.641 35.7558 43.9263 35.7665 43.1655C35.7665 42.3586 35.6316 41.5834 35.3613 40.8475C35.0945 40.1078 34.7033 39.4502 34.1949 38.8777C33.6828 38.3017 33.0713 37.8538 32.3569 37.5302C31.6422 37.2063 30.8493 37.0465 29.9853 37.0465H29.4697L27.8094 37.1707Z" fill="#1A1A18"/>
<path d="M44.6235 45.6187L45.2844 45.7077C45.2844 46.0027 45.1956 46.4367 45.0215 47.0055C44.8437 47.5781 44.4847 48.1219 43.9371 48.6409C43.3895 49.1602 42.6142 49.4198 41.6118 49.4198C40.8862 49.4198 40.289 49.2313 39.8196 48.8506C39.3505 48.4738 39.0089 47.9689 38.7957 47.3329C38.5825 46.6997 38.4756 45.9957 38.4756 45.217C38.5184 44.3995 38.6072 43.6315 38.7458 42.9169C38.8845 42.2055 39.1014 41.5408 39.3894 40.9258C39.6809 40.307 40.0649 39.8127 40.5449 39.4358C41.0214 39.059 41.5975 38.8598 42.2729 38.8383C42.8599 38.8383 43.3326 38.9558 43.6952 39.1939C44.0542 39.4321 44.3138 39.7559 44.4704 40.1611C44.6268 40.5663 44.705 41.0286 44.705 41.5478C44.705 41.9923 44.6196 42.5861 44.4492 43.3363C43.0518 43.8019 41.5764 44.1255 40.0294 44.2997C40.0225 44.2997 39.9938 44.5489 39.9477 45.0466C40.0294 47.2297 40.7762 48.3529 42.1878 48.4172C42.6214 48.4172 43.0269 48.2962 43.4037 48.0509C43.7772 47.8057 44.0757 47.4784 44.2927 47.0732C44.5131 46.6677 44.6235 46.2413 44.6235 45.793V45.6187ZM40.1148 43.6134L41.9958 43.3363C42.4404 43.2509 42.7884 43.0234 43.0341 42.6538C43.2795 42.2875 43.4037 41.8609 43.4037 41.3737C43.4037 40.8226 43.3361 40.3566 43.1974 39.9797C43.0625 39.6029 42.7529 39.4143 42.2729 39.4143C41.5583 39.4321 41.0215 39.923 40.6659 40.8898C40.3068 41.8537 40.1114 42.7282 40.0721 43.5106C40.0898 43.5317 40.1004 43.5567 40.1076 43.5745C40.1115 43.5922 40.1148 43.6066 40.1148 43.6134Z" fill="#1A1A18"/>
<path d="M50.1449 39.5851C49.3946 39.6029 48.8402 40.1362 48.4807 41.1817C48.1217 42.227 47.9297 43.418 47.9047 44.7514C47.9047 47.0804 48.5162 48.2463 49.7397 48.2463C50.383 48.193 50.8917 47.9905 51.2685 47.6277C51.6419 47.2686 51.905 46.8989 52.0543 46.5111C52.2035 46.1271 52.2781 45.875 52.2781 45.7503H52.8578C52.8578 45.9778 52.7618 46.3797 52.5698 46.9627C52.3778 47.5459 52.015 48.1009 51.4783 48.6303C50.9413 49.1569 50.1947 49.4198 49.231 49.4198C48.5273 49.4055 47.9546 49.2313 47.5139 48.9006C47.0762 48.5665 46.7599 48.1326 46.5717 47.5958C46.3831 47.0588 46.2799 46.4578 46.2622 45.7897C46.2622 45.0073 46.337 44.2215 46.4863 43.4357C46.6355 42.6538 46.8881 41.9104 47.2399 41.21C47.5955 40.5058 48.0683 39.9442 48.6622 39.5175C49.2559 39.0946 49.9741 38.881 50.8097 38.881C51.3539 38.881 51.9227 39.0447 52.5127 39.3719V41.9141H51.233V41.2917C51.233 40.1539 50.8702 39.5851 50.1449 39.5851Z" fill="#1A1A18"/>
<path d="M60.8969 39.1156V40.9078C60.8757 40.9008 60.833 40.8897 60.7691 40.8792C60.7049 40.8686 60.6194 40.8652 60.5129 40.8652C59.8091 40.8652 59.0694 41.7042 58.2909 43.3824C57.9458 44.1537 57.6366 44.9682 57.3665 45.825C57.0923 46.6785 56.8754 47.4498 56.7083 48.143C56.5414 48.8328 56.4597 49.2312 56.4597 49.3344H55.3505L55.8375 40.3742L53.729 40.8009V39.9478C54.2445 39.9369 54.8598 39.8376 55.5779 39.6489C56.2961 39.4641 56.9254 39.2472 57.4625 39.009L57.1815 44.385C57.2027 44.3351 57.3593 43.9512 57.6545 43.2293C57.9458 42.5077 58.1839 41.9389 58.3654 41.5299C58.5467 41.1177 58.7282 40.7405 58.9093 40.3992C59.0906 40.0578 59.2614 39.8019 59.4214 39.6311C59.7554 39.2581 60.1183 39.0729 60.5129 39.0729C60.6194 39.0729 60.7049 39.0767 60.7691 39.0873C60.833 39.0978 60.8757 39.1085 60.8969 39.1156Z" fill="#1A1A18"/>
<path d="M67.4502 45.6187L68.1113 45.7077C68.1113 46.0027 68.0225 46.4367 67.8482 47.0055C67.6705 47.5781 67.3115 48.1219 66.7638 48.6409C66.2162 49.1602 65.441 49.4198 64.4386 49.4198C63.713 49.4198 63.1158 49.2313 62.6465 48.8506C62.1774 48.4738 61.8357 47.9689 61.6225 47.3329C61.4094 46.6997 61.3025 45.9957 61.3025 45.217C61.3452 44.3995 61.434 43.6315 61.5726 42.9169C61.7114 42.2055 61.9283 41.5408 62.2163 40.9258C62.5077 40.307 62.8917 39.8127 63.3717 39.4358C63.8484 39.059 64.4243 38.8598 65.0997 38.8383C65.6866 38.8383 66.1596 38.9558 66.522 39.1939C66.881 39.4321 67.1406 39.7559 67.2971 40.1611C67.4535 40.5663 67.5318 41.0286 67.5318 41.5478C67.5318 41.9923 67.4465 42.5861 67.276 43.3363C65.8786 43.8019 64.4032 44.1255 62.8562 44.2997C62.8494 44.2997 62.8206 44.5489 62.7745 45.0466C62.8562 47.2297 63.603 48.3529 65.0146 48.4172C65.4482 48.4172 65.8537 48.2962 66.2305 48.0509C66.604 47.8057 66.9025 47.4784 67.1195 47.0732C67.3398 46.6677 67.4502 46.2413 67.4502 45.793V45.6187ZM62.9415 43.6134L64.8226 43.3363C65.2672 43.2509 65.6153 43.0234 65.8609 42.6538C66.1062 42.2875 66.2305 41.8609 66.2305 41.3737C66.2305 40.8226 66.1629 40.3566 66.0242 39.9797C65.8893 39.6029 65.5797 39.4143 65.0997 39.4143C64.385 39.4321 63.8483 39.923 63.4926 40.8898C63.1335 41.8537 62.9382 42.7282 62.8989 43.5106C62.9166 43.5317 62.9273 43.5567 62.9345 43.5745C62.9382 43.5922 62.9415 43.6066 62.9415 43.6134Z" fill="#1A1A18"/>
<path d="M75.1941 45.6187L75.8552 45.7077C75.8552 46.0027 75.7664 46.4367 75.5921 47.0055C75.4145 47.5781 75.0554 48.1219 74.5077 48.6409C73.9601 49.1602 73.1849 49.4198 72.1825 49.4198C71.4569 49.4198 70.8597 49.2313 70.3904 48.8506C69.9213 48.4738 69.5796 47.9689 69.3665 47.3329C69.1533 46.6997 69.0464 45.9957 69.0464 45.217C69.0891 44.3995 69.1778 43.6315 69.3165 42.9169C69.4553 42.2055 69.6722 41.5408 69.9602 40.9258C70.2516 40.307 70.6356 39.8127 71.1156 39.4358C71.5922 39.059 72.1683 38.8598 72.8436 38.8383C73.4305 38.8383 73.9034 38.9558 74.2658 39.1939C74.6249 39.4321 74.8845 39.7559 75.0411 40.1611C75.1975 40.5663 75.2757 41.0286 75.2757 41.5478C75.2757 41.9923 75.1904 42.5861 75.0199 43.3363C73.6225 43.8019 72.1471 44.1255 70.6001 44.2997C70.5933 44.2997 70.5645 44.5489 70.5185 45.0466C70.6001 47.2297 71.3469 48.3529 72.7585 48.4172C73.1921 48.4172 73.5976 48.2962 73.9745 48.0509C74.3478 47.8057 74.6465 47.4784 74.8634 47.0732C75.0837 46.6677 75.1941 46.2413 75.1941 45.793V45.6187ZM70.6854 43.6134L72.5665 43.3363C73.011 43.2509 73.3592 43.0234 73.6048 42.6538C73.8501 42.2875 73.9745 41.8609 73.9745 41.3737C73.9745 40.8226 73.9068 40.3566 73.7681 39.9797C73.6332 39.6029 73.3236 39.4143 72.8436 39.4143C72.1289 39.4321 71.5922 39.923 71.2365 40.8898C70.8774 41.8537 70.6821 42.7282 70.6428 43.5106C70.6605 43.5317 70.6712 43.5567 70.6784 43.5745C70.6821 43.5922 70.6854 43.6066 70.6854 43.6134Z" fill="#1A1A18"/>
<path d="M8.31098 63.8123C8.09325 63.959 7.91526 64.0655 7.77552 64.132C7.63526 64.199 7.43073 64.2654 7.16206 64.3319C7.05086 63.9411 6.93752 63.4634 6.82192 62.8987C6.70659 62.3322 6.61099 61.7211 6.53312 61.0588C6.45526 60.399 6.41553 59.7432 6.41553 59.0924V58.7591C6.43113 58.1899 6.47112 57.6388 6.53312 57.1032C6.59779 56.5699 6.68432 56.0544 6.79539 55.559C6.90432 55.0656 7.03538 54.5834 7.18658 54.1167C7.33552 53.648 7.51085 53.1658 7.70859 52.6656L8.12206 52.9458C7.91979 53.5523 7.75766 54.1167 7.63112 54.6458C7.50632 55.1723 7.41299 55.6946 7.35099 56.2147C7.29086 56.7325 7.25312 57.31 7.24219 57.9456C7.25992 58.1055 7.26859 58.35 7.26859 58.679C7.29085 59.179 7.33552 59.6722 7.39979 60.1567C7.46672 60.639 7.54646 61.1031 7.64206 61.5434C7.73766 61.9856 7.84419 62.3987 7.95992 62.7854C8.07739 63.172 8.19312 63.5144 8.31098 63.8123Z" fill="#1A1A18"/>
<path d="M8.68188 62.5831V62.0922C8.72642 62.0922 8.81762 62.1101 8.96188 62.1433C9.49975 62.1187 9.89095 61.7968 10.1373 61.1701C11.3619 58.0988 12.0241 55.9392 12.122 54.6946C12.3128 54.6677 12.4595 54.6481 12.5641 54.6322C12.6685 54.6145 12.7751 54.5902 12.884 54.5525C12.9951 54.5169 13.1263 54.4614 13.2796 54.3858C13.8599 56.1146 14.2464 57.2635 14.4396 57.8346C14.6353 58.4034 14.8572 59.0123 15.1063 59.6635C15.3085 60.2365 15.4707 60.6923 15.5908 61.0321C15.7129 61.3722 15.8285 61.6301 15.9397 61.8035C16.0508 61.9789 16.182 62.0654 16.3328 62.0654H16.9352V62.5054C16.5331 62.4875 16.004 62.4789 15.3463 62.4789C14.982 62.4789 14.3463 62.4966 13.4396 62.5322V62.0654L14.1485 62.0922C14.5107 62.0922 14.6928 61.9679 14.6928 61.7166C14.6928 61.6942 14.6887 61.661 14.6796 61.6122C14.6709 61.5654 14.6664 61.5343 14.6664 61.5189L14.0152 59.5589H11.3596L10.6843 61.33C10.6643 61.4188 10.6373 61.5344 10.6019 61.6788C10.6019 61.9388 10.8464 62.0854 11.3351 62.1187C11.5864 62.0831 11.7596 62.0654 11.8552 62.0654V62.5831C11.0909 62.5145 10.5619 62.4789 10.2708 62.4789C9.93975 62.4789 9.41095 62.5145 8.68188 62.5831ZM12.6129 55.5034L11.5487 59.0656H13.8262L12.6129 55.5034Z" fill="#1A1A18"/>
<path d="M21.9059 56.1723V57.2922C21.8927 57.2876 21.8659 57.2813 21.8258 57.2745C21.7862 57.2677 21.7324 57.2658 21.6659 57.2658C21.226 57.2658 20.7638 57.79 20.277 58.8388C20.0615 59.3211 19.8684 59.8302 19.6995 60.3654C19.5283 60.899 19.3926 61.3809 19.2883 61.8145C19.1839 62.2457 19.1326 62.4943 19.1326 62.559H18.4394L18.744 56.9588L17.426 57.2256V56.6924C17.7484 56.6856 18.1328 56.6233 18.5815 56.5057C19.0304 56.3901 19.4239 56.2543 19.7592 56.1054L19.5838 59.4654C19.5971 59.4344 19.695 59.1944 19.8794 58.7431C20.0615 58.2923 20.2104 57.9366 20.3239 57.6811C20.4372 57.4234 20.5506 57.1879 20.6636 56.9743C20.777 56.7612 20.8836 56.6014 20.9838 56.4943C21.1927 56.2611 21.4191 56.1455 21.6659 56.1455C21.7324 56.1455 21.7862 56.1478 21.8258 56.1546C21.8659 56.161 21.8927 56.1678 21.9059 56.1723Z" fill="#1A1A18"/>
<path d="M24.5574 56.4656C24.0885 56.4766 23.7418 56.8099 23.5174 57.4634C23.2929 58.1166 23.173 58.8611 23.1576 59.6944C23.1576 61.15 23.5397 61.8787 24.3042 61.8787C24.7064 61.8454 25.0238 61.7188 25.2597 61.492C25.4929 61.2679 25.6573 61.0366 25.7506 60.7943C25.8441 60.5543 25.8905 60.3967 25.8905 60.3188H26.253C26.253 60.461 26.1929 60.7123 26.073 61.0767C25.9529 61.441 25.7261 61.7876 25.3909 62.1187C25.0553 62.4479 24.5885 62.6123 23.9863 62.6123C23.5465 62.6032 23.1885 62.4943 22.913 62.2876C22.6397 62.079 22.4421 61.8076 22.3242 61.472C22.2062 61.1367 22.1419 60.7611 22.1306 60.3434C22.1306 59.8543 22.1776 59.3634 22.2709 58.872C22.3642 58.3834 22.5218 57.9188 22.7418 57.4812C22.9641 57.0412 23.2595 56.6902 23.6307 56.4232C24.0019 56.1591 24.4509 56.0256 24.9729 56.0256C25.313 56.0256 25.6686 56.1278 26.0375 56.3322V57.9211H25.2374V57.5322C25.2374 56.8213 25.0106 56.4656 24.5574 56.4656Z" fill="#1A1A18"/>
<path d="M26.824 61.3321C26.8572 60.8275 26.8837 60.1721 26.9082 59.3656C26.9328 58.5586 26.9616 57.9033 26.997 57.3988C27.0504 56.7256 27.1149 56.1277 27.1905 55.6034C27.2661 55.0789 27.3573 54.5546 27.4638 54.0254C27.5704 53.499 27.6948 52.9325 27.8349 52.3236C27.9748 51.7166 28.106 51.1277 28.2238 50.5589L28.3569 49.9567H29.8105V50.37C29.7969 50.3745 29.7458 50.3968 29.6548 50.4345C29.566 50.4724 29.4617 50.5634 29.3414 50.7033C29.2217 50.8458 29.0928 51.0858 28.9549 51.4214C28.8169 51.7589 28.6948 52.1901 28.586 52.7189C28.4817 53.2745 28.3993 53.7277 28.3414 54.0723C28.2858 54.4166 28.2304 54.7855 28.1816 55.1813C28.1305 55.5743 28.0928 55.9345 28.0613 56.2587C28.0326 56.5834 27.9972 57.0234 27.957 57.5832L27.8104 59.7722C27.8213 59.7609 27.8969 59.6366 28.0372 59.4012C28.177 59.1634 28.3282 58.9121 28.4926 58.6433C28.657 58.3723 28.8282 58.1054 29.0104 57.8386C29.3082 57.401 29.8105 56.8368 30.5192 56.1454L31.8636 56.0789V58.0253C31.8636 59.0386 31.5949 60.0031 31.0548 60.9145C30.5146 61.8275 29.7992 62.7319 28.9038 63.6254L27.957 64.6119L27.5681 64.172C28.0704 63.8254 28.5172 63.4256 28.9084 62.972C29.3014 62.5189 29.637 62.0233 29.9149 61.4856C30.1949 60.9477 30.4058 60.3853 30.5525 59.7942C30.6972 59.2034 30.7705 58.6056 30.7705 57.9966C30.7705 57.5034 30.7126 57.1746 30.597 57.0098C30.5748 56.9765 30.5414 56.9587 30.5037 56.9587C30.3125 56.9587 29.9949 57.2321 29.5505 57.7789C29.106 58.3254 28.688 58.9811 28.2949 59.7454C27.9037 60.5099 27.6614 61.2122 27.5704 61.8521L27.4902 62.4254L26.717 62.6919C26.7661 62.2255 26.8017 61.7719 26.824 61.3321Z" fill="#1A1A18"/>
<path d="M33.4902 56.8523L32.4014 57.1191V56.5212C33.1614 56.4656 33.8904 56.3012 34.5836 56.0256C34.5548 56.2501 34.508 56.5835 34.4438 57.0299C34.3814 57.4744 34.3346 57.8568 34.3012 58.1743C34.268 58.4921 34.248 58.8164 34.2394 59.1479C34.2748 59.4631 34.2926 59.6989 34.2926 59.852C34.2926 59.7677 34.3768 59.5168 34.548 59.0943C34.7171 58.6744 34.9392 58.2257 35.2126 57.7499C35.4835 57.2744 35.8014 56.8613 36.168 56.5121C36.5323 56.1632 36.908 55.9833 37.2924 55.9724C37.5615 55.9724 37.7323 56.0589 37.8056 56.2343C37.8812 56.41 37.9191 56.65 37.9191 56.9588V58.4657C37.9191 59.0168 37.8635 59.5364 37.7502 60.0232C37.6367 60.5123 37.4659 60.9477 37.2323 61.3367C37.0014 61.7233 36.7103 62.0367 36.357 62.2744C36.0059 62.5121 35.597 62.65 35.1302 62.692L35.0791 62.3723C35.4215 62.3167 35.688 62.2233 35.8792 62.0921C36.2035 61.8431 36.4548 61.39 36.6348 60.73C36.8147 60.072 36.9058 59.3697 36.9058 58.6256V57.1455C36.9058 56.8655 36.817 56.7142 36.6394 56.6924C36.4882 56.6924 36.2523 56.9032 35.9326 57.3255C35.6124 57.7476 35.3014 58.2855 34.9948 58.9389C34.6879 59.592 34.4635 60.2523 34.3168 60.9168C34.2458 61.2875 34.1638 61.7211 34.068 62.212C33.9724 62.7056 33.8904 63.1743 33.819 63.6187C33.7503 64.0632 33.6902 64.5364 33.6368 65.0387L33.5458 66.1321L32.8394 66.4121C32.9368 65.6653 33.0192 64.892 33.0835 64.0919C33.1504 63.2921 33.197 62.6164 33.2279 62.0631C33.257 61.5097 33.2994 60.6768 33.3503 59.5656C33.4036 58.4544 33.4502 57.55 33.4902 56.8523Z" fill="#1A1A18"/>
<path d="M42.9723 56.1723V57.2922C42.9591 57.2876 42.9322 57.2813 42.8922 57.2745C42.8524 57.2677 42.7988 57.2658 42.7323 57.2658C42.2923 57.2658 41.8302 57.79 41.3434 58.8388C41.1279 59.3211 40.9347 59.8302 40.7658 60.3654C40.5946 60.899 40.4588 61.3809 40.3546 61.8145C40.2503 62.2457 40.1988 62.4943 40.1988 62.559H39.5058L39.8103 56.9588L38.4924 57.2256V56.6924C38.8148 56.6856 39.1992 56.6233 39.6478 56.5057C40.0968 56.3901 40.4903 56.2543 40.8255 56.1054L40.6502 59.4654C40.6634 59.4344 40.7612 59.1944 40.9458 58.7431C41.1279 58.2923 41.2768 57.9366 41.3902 57.6811C41.5035 57.4234 41.617 57.1879 41.7299 56.9743C41.8434 56.7612 41.9499 56.6014 42.05 56.4943C42.2591 56.2611 42.4855 56.1455 42.7323 56.1455C42.7988 56.1455 42.8524 56.1478 42.8922 56.1546C42.9322 56.161 42.9591 56.1678 42.9723 56.1723Z" fill="#1A1A18"/>
<path d="M47.0679 60.2365L47.4814 60.292C47.4814 60.4764 47.4259 60.7478 47.317 61.1031C47.2059 61.461 46.9814 61.8012 46.6394 62.1255C46.2969 62.4498 45.8127 62.6123 45.1861 62.6123C44.7326 62.6123 44.3591 62.4943 44.0659 62.2566C43.7726 62.0211 43.5594 61.7055 43.4259 61.3076C43.2926 60.9123 43.2261 60.4723 43.2261 59.9855C43.2525 59.4746 43.3081 58.9946 43.395 58.5478C43.4815 58.1032 43.6173 57.6879 43.7971 57.3035C43.9793 56.9168 44.2193 56.6078 44.5194 56.3723C44.8173 56.1368 45.177 56.0124 45.5993 55.9988C45.9658 55.9988 46.2614 56.0722 46.4882 56.2211C46.7127 56.37 46.8749 56.5722 46.9727 56.8254C47.0702 57.0791 47.1194 57.3677 47.1194 57.692C47.1194 57.9699 47.0661 58.341 46.9591 58.81C46.0861 59.1011 45.1638 59.3032 44.197 59.4121C44.1925 59.4121 44.1747 59.5679 44.1459 59.879C44.197 61.2434 44.6638 61.9455 45.5459 61.9856C45.8169 61.9856 46.0705 61.91 46.3059 61.7566C46.5391 61.6031 46.7259 61.3987 46.8615 61.1454C46.9991 60.8922 47.0679 60.6254 47.0679 60.3456V60.2365ZM44.2503 58.9831L45.4261 58.81C45.7035 58.7568 45.9217 58.6143 46.0747 58.3834C46.2282 58.1543 46.3059 57.8879 46.3059 57.5833C46.3059 57.239 46.2637 56.9479 46.1771 56.7124C46.0925 56.4766 45.8993 56.3591 45.5993 56.3591C45.1525 56.37 44.8173 56.6768 44.595 57.2812C44.3705 57.8834 44.2481 58.4299 44.2238 58.919C44.2349 58.9322 44.2417 58.9477 44.2462 58.959C44.2481 58.9699 44.2503 58.979 44.2503 58.9831Z" fill="#1A1A18"/>
<path d="M49.586 61.9856L50.8128 61.7456V62.3167C50.0017 62.3454 49.2284 62.5054 48.4929 62.799C48.5239 62.381 48.5461 61.9679 48.5617 61.5567C48.5772 61.1454 48.5949 60.5679 48.6172 59.8211C48.6418 59.0766 48.666 58.4458 48.6905 57.9302C48.7174 57.4147 48.7529 56.91 48.7994 56.4123C48.864 55.7456 48.9282 55.1614 48.9884 54.6613C49.0504 54.159 49.1173 53.6858 49.1905 53.2346C49.2638 52.7859 49.3505 52.3123 49.4484 51.8146C49.5463 51.3168 49.6682 50.7479 49.8149 50.108H51.2796V50.5034C51.2372 50.5326 51.1638 50.5858 51.0596 50.6655C50.9549 50.7456 50.8282 50.9302 50.6793 51.2211C50.5326 51.5144 50.386 51.959 50.2417 52.5591C50.1373 52.9901 50.0458 53.6658 49.9661 54.5857C49.886 55.5057 49.8195 56.519 49.7617 57.6233C49.7061 58.7277 49.6614 59.7076 49.6328 60.5656C49.6018 61.421 49.586 61.8946 49.586 61.9856Z" fill="#1A1A18"/>
<path d="M56.1988 61.8276C56.4501 61.7456 56.6765 61.6877 56.8788 61.6545L57.0391 61.9588C56.5923 62.0566 56.2767 62.1409 56.0945 62.2097C55.9101 62.2789 55.6168 62.4209 55.2124 62.6387C55.1969 62.6564 55.1591 62.6632 55.1059 62.6632C55.0703 62.6632 55.0544 62.6123 55.0544 62.5053C55.1523 61.89 55.2169 61.4387 55.2479 61.1587C55.2767 60.8767 55.2903 60.5433 55.2903 60.1589V59.479L54.1459 61.3299C53.9213 61.7009 53.6412 62.0074 53.3011 62.2497C52.9613 62.492 52.6147 62.6123 52.2636 62.6123C51.7591 62.5876 51.5059 62.1076 51.5059 61.17C51.5345 60.6167 51.6748 60.0365 51.9303 59.4253C52.1857 58.8164 52.4991 58.2521 52.8703 57.7344C53.2436 57.2188 53.6235 56.7989 54.0124 56.4788C54.4013 56.1591 54.7301 55.9988 54.9988 55.9988C55.0789 55.9988 55.17 56.0165 55.2703 56.0521C55.37 56.0876 55.4547 56.1053 55.5189 56.1053L56.4657 55.9988C56.4188 56.5589 56.3455 57.3277 56.2521 58.3055C56.1569 59.2832 56.0945 59.9367 56.0659 60.2632C56.0367 60.5921 56.0189 60.903 56.0103 61.1986C56.0367 61.6166 56.0991 61.8276 56.1988 61.8276ZM55.1323 56.5457C55.0921 56.5189 55.0435 56.5056 54.9856 56.5056C54.7944 56.5056 54.5589 56.63 54.2811 56.8768C54.0011 57.1232 53.7255 57.452 53.45 57.8632C53.1767 58.2745 52.9436 58.7235 52.7545 59.2121C52.5656 59.7012 52.4567 60.1721 52.428 60.6253C52.428 60.6968 52.4167 60.761 52.3967 60.8142C52.4389 61.3544 52.6389 61.6253 52.9991 61.6253C53.2947 61.6167 53.5967 61.4232 53.9036 61.0474C54.2123 60.67 54.4901 60.2168 54.7388 59.6831C54.9879 59.1499 55.1813 58.6501 55.3167 58.1856C55.3968 57.9544 55.4369 57.6456 55.4369 57.2657C55.4369 56.8768 55.3344 56.6368 55.1323 56.5457Z" fill="#1A1A18"/>
<path d="M58.25 56.6788L57.3833 56.7188V56.1455L58.3056 56.1723L58.3834 54.8789L59.3989 54.6389L59.239 56.1723L60.6545 56.1455L60.6281 56.6924L59.1057 56.6788C59.081 56.7343 59.0392 58.0012 58.9858 60.4764C58.9858 60.8676 58.9968 61.1655 59.0168 61.3699C59.0369 61.5721 59.0924 61.7388 59.1836 61.8631C59.2769 61.9897 59.4213 62.0567 59.6234 62.0653C59.6366 62.0521 59.648 62.0434 59.6589 62.0412C59.6681 62.0389 59.6745 62.0367 59.679 62.0367C59.9856 62.0075 60.2369 61.8608 60.43 61.5989C60.6236 61.3344 60.7192 60.9786 60.7192 60.532H61.0944C61.0944 60.9368 61.0166 61.2943 60.8658 61.6076C60.7146 61.9209 60.4992 62.1609 60.2233 62.3321C59.9477 62.501 59.628 62.5853 59.2656 62.5853C58.9745 62.5853 58.719 62.5412 58.499 62.4497C58.279 62.3587 58.1256 62.2853 58.0368 62.2256C58.03 62.0808 58.0213 61.8653 58.0122 61.583C58.0036 61.301 57.9945 61.0899 57.9858 60.9455C58.0058 60.0277 58.0924 58.6056 58.25 56.6788Z" fill="#1A1A18"/>
<path d="M65.4144 60.2365L65.828 60.292C65.828 60.4764 65.7724 60.7478 65.6636 61.1031C65.5524 61.461 65.3278 61.8012 64.9858 62.1255C64.6434 62.4498 64.1593 62.6123 63.5326 62.6123C63.079 62.6123 62.7057 62.4943 62.4124 62.2566C62.119 62.0211 61.9058 61.7055 61.7725 61.3076C61.639 60.9123 61.5725 60.4723 61.5725 59.9855C61.599 59.4746 61.6545 58.9946 61.7414 58.5478C61.8281 58.1032 61.9637 57.6879 62.1436 57.3035C62.3258 56.9168 62.5658 56.6078 62.8658 56.3723C63.1637 56.1368 63.5236 56.0124 63.9457 55.9988C64.3124 55.9988 64.6078 56.0722 64.8346 56.2211C65.0592 56.37 65.2213 56.5722 65.3192 56.8254C65.4166 57.0791 65.4658 57.3677 65.4658 57.692C65.4658 57.9699 65.4125 58.341 65.3056 58.81C64.4325 59.1011 63.5104 59.3032 62.5436 59.4121C62.5389 59.4121 62.5212 59.5679 62.4925 59.879C62.5436 61.2434 63.0102 61.9455 63.8924 61.9856C64.1634 61.9856 64.417 61.91 64.6525 61.7566C64.8857 61.6031 65.0724 61.3987 65.2081 61.1454C65.3457 60.8922 65.4144 60.6254 65.4144 60.3456V60.2365ZM62.5968 58.9831L63.7726 58.81C64.05 58.7568 64.2681 58.6143 64.4212 58.3834C64.5746 58.1543 64.6525 57.8879 64.6525 57.5833C64.6525 57.239 64.6101 56.9479 64.5236 56.7124C64.4389 56.4766 64.2458 56.3591 63.9457 56.3591C63.4989 56.37 63.1637 56.6768 62.9414 57.2812C62.717 57.8834 62.5945 58.4299 62.5704 58.919C62.5813 58.9322 62.5881 58.9477 62.5926 58.959C62.5945 58.9699 62.5968 58.979 62.5968 58.9831Z" fill="#1A1A18"/>
<path d="M69.5613 60.5032C69.5722 59.6766 69.6592 58.9411 69.8256 58.2945C69.9904 57.6478 70.3035 57.1122 70.7635 56.6878C71.2235 56.2633 71.868 56.0434 72.6968 56.0256C73.0257 56.0256 73.2966 56.159 73.5057 56.4277C73.7165 56.6946 73.8699 57.0321 73.9633 57.4388C74.0566 57.8432 74.1099 58.2653 74.1213 58.7034C74.1213 59.4343 74.0298 60.0942 73.85 60.6877C73.6678 61.281 73.3677 61.7588 72.9501 62.1209C72.5324 62.4833 71.9855 62.6654 71.3101 62.6654H71.0569C70.719 62.6254 70.4434 62.5453 70.2303 62.4209C70.0167 62.2989 69.8524 62.0853 69.7344 61.7853C69.6192 61.4855 69.5613 61.0565 69.5613 60.5032ZM70.5878 59.9034C70.5878 60.3387 70.6101 60.7122 70.6547 61.0278C70.6989 61.3412 70.8056 61.6144 70.9745 61.8453C71.1434 62.0744 71.3989 62.201 71.7368 62.2255C72.2592 62.2255 72.6322 61.9364 72.8543 61.3612C73.0766 60.7856 73.1878 60.0897 73.1878 59.2786V59.0901C73.1878 58.4033 73.0812 57.799 72.87 57.2766C72.659 56.7543 72.3125 56.4924 71.828 56.4924C71.5301 56.5078 71.2901 56.7124 71.108 57.1077C70.9257 57.5034 70.7969 57.9589 70.7213 58.4789C70.6457 58.9967 70.601 59.4722 70.5878 59.9034Z" fill="#1A1A18"/>
<path d="M78.8946 62.7454L78.6832 62.5831C78.992 61.4587 79.1655 59.6458 79.2011 57.1455C78.5831 57.8788 78.1632 58.3856 77.9409 58.6679C77.7164 58.9476 77.4809 59.2878 77.2323 59.6899C76.9832 60.0898 76.7743 60.5256 76.6034 60.9988C76.4299 61.47 76.3101 61.9898 76.2409 62.559H75.4276L75.7455 56.9032L74.708 57.1455V56.6233C75.5077 56.6233 76.2277 56.4168 76.8657 55.9988L76.4144 60.2365C76.6899 59.7191 76.9768 59.241 77.272 58.801C77.5699 58.3634 77.8944 57.9343 78.2456 57.5144C78.5944 57.0946 79.0034 56.6391 79.4675 56.1455H80.1988L79.8809 61.799L80.8409 61.6787V62.1432C80.1765 62.1678 79.5276 62.3678 78.8946 62.7454Z" fill="#1A1A18"/>
<path d="M82.8563 61.9856L84.0831 61.7456V62.3167C83.272 62.3454 82.4987 62.5054 81.7632 62.799C81.7941 62.381 81.8165 61.9679 81.832 61.5567C81.8475 61.1454 81.8652 60.5679 81.8876 59.8211C81.9121 59.0766 81.9363 58.4458 81.9608 57.9302C81.9877 57.4147 82.0232 56.91 82.0697 56.4123C82.1344 55.7456 82.1985 55.1614 82.2587 54.6613C82.3207 54.159 82.3876 53.6858 82.4609 53.2346C82.5343 52.7859 82.6208 52.3123 82.7187 51.8146C82.8165 51.3168 82.9387 50.7479 83.0853 50.108H84.5499V50.5034C84.5075 50.5326 84.4341 50.5858 84.3299 50.6655C84.2252 50.7456 84.0985 50.9302 83.9496 51.2211C83.8029 51.5144 83.6564 51.959 83.512 52.5591C83.4076 52.9901 83.3161 53.6658 83.2364 54.5857C83.1563 55.5057 83.0899 56.519 83.032 57.6233C82.9764 58.7277 82.9319 59.7076 82.9031 60.5656C82.8721 61.421 82.8563 61.8946 82.8563 61.9856Z" fill="#1A1A18"/>
<path d="M89.6561 56.0256C90.0782 56.0635 90.4051 56.2835 90.6338 56.6901C90.8629 57.0945 90.9762 57.5855 90.9762 58.1611C90.907 59.5611 90.6917 60.7701 90.3295 61.7921C89.9671 62.8144 89.5385 63.6277 89.0426 64.2276C88.5449 64.8297 88.0517 65.2677 87.5562 65.5387C87.0629 65.8097 86.6339 65.9453 86.2718 65.9453H85.045C84.9317 65.6853 84.8606 65.2677 84.8295 64.6921C84.8497 64.6388 84.8583 64.5541 84.8583 64.4389C84.9298 63.6479 85.0273 63.0566 85.1517 62.6654H86.0561C86.0561 62.6341 85.9963 62.9055 85.8739 63.4789C85.7495 64.0523 85.683 64.5187 85.6694 64.8788C85.6871 65.1252 85.7341 65.3009 85.8074 65.4031C85.883 65.5077 86.0295 65.5588 86.245 65.5588C86.5894 65.5588 86.9764 65.4366 87.4028 65.1944C87.8317 64.9521 88.2451 64.5719 88.6473 64.0541C89.0471 63.5367 89.3759 62.8654 89.6318 62.0412C89.8874 61.2164 90.0162 60.2523 90.0162 59.1479V58.6789C90.0162 57.6122 89.8073 57.0567 89.3873 57.0121C89.2051 57.0121 89.0271 57.1077 88.8605 57.3012C88.6915 57.4944 88.543 57.7435 88.4118 58.0432C88.283 58.3455 88.1782 58.6611 88.1007 58.9876C88.0229 59.3143 87.9761 59.6033 87.9629 59.8542C87.9629 59.9677 87.9541 60.0788 87.9359 60.1853C87.9851 61.1787 88.1049 61.9077 88.2962 62.3723L87.5494 62.692L85.7518 56.8791L84.7385 57.0676L84.7117 56.5991C85.4075 56.5435 85.9827 56.3434 86.4427 55.9988L87.5894 59.4144C87.5894 59.2323 87.6627 58.8565 87.8117 58.29C87.9606 57.7257 88.1805 57.2056 88.4715 56.7343C88.7653 56.2611 89.1227 56.0256 89.5471 56.0256H89.6561Z" fill="#1A1A18"/>
<path d="M91.6006 53.1858C91.8161 53.03 91.9941 52.919 92.1339 52.8547C92.2738 52.79 92.4782 52.7258 92.7473 52.6656C92.8671 53.0368 92.9873 53.4968 93.1049 54.0434C93.225 54.5902 93.3249 55.1832 93.4027 55.8258C93.4829 56.4702 93.5228 57.1032 93.5228 57.7299C93.5228 57.7876 93.5206 57.8678 93.5161 57.9744C93.5115 58.081 93.5093 58.1611 93.5093 58.2122C93.4829 59.3788 93.3649 60.4346 93.1539 61.3808C92.9405 62.3276 92.623 63.3123 92.2005 64.3319L91.7873 64.0387C92.0938 63.1543 92.3138 62.3386 92.4518 61.5922C92.587 60.8454 92.6562 60.021 92.6562 59.1166C92.6562 58.4344 92.6184 57.7544 92.5428 57.0814C92.4672 56.4078 92.3517 55.7479 92.1962 55.099C92.0429 54.4523 91.8451 53.8147 91.6006 53.1858Z" fill="#1A1A18"/>
<path d="M179 5C193.359 5 205 16.6407 205 31C205 45.3594 193.359 57 179 57C164.641 57 153 45.3594 153 31C153 16.6407 164.641 5 179 5Z" stroke="#1A1A18" stroke-width="2.6664" stroke-miterlimit="22.9256" stroke-dasharray="13.33 13.33"/>
<path fill-rule="evenodd" clip-rule="evenodd" d="M123.137 41.4012C131.623 41.4012 138.502 42.8344 138.502 44.6024C138.502 46.3701 131.623 47.8033 123.137 47.8033C114.652 47.8033 107.772 46.3701 107.772 44.6024C107.772 42.8344 114.652 41.4012 123.137 41.4012Z" fill="#AD4482"/>
<path d="M123.137 41.4012C131.623 41.4012 138.502 42.8344 138.502 44.6024C138.502 46.3701 131.623 47.8033 123.137 47.8033C114.652 47.8033 107.772 46.3701 107.772 44.6024C107.772 42.8344 114.652 41.4012 123.137 41.4012Z" stroke="#1A1A18" stroke-width="0.288" stroke-miterlimit="22.9256"/>
<path fill-rule="evenodd" clip-rule="evenodd" d="M107.452 22.694H138.233V45.2418H107.452V22.694Z" fill="#AD4482"/>
<path fill-rule="evenodd" clip-rule="evenodd" d="M122.843 19.3351C131.329 19.3351 138.208 20.7683 138.208 22.5365C138.208 24.3042 131.329 25.7374 122.843 25.7374C114.358 25.7374 107.479 24.3042 107.479 22.5365C107.479 20.7683 114.358 19.3351 122.843 19.3351Z" fill="#AD4482"/>
<path d="M122.843 19.3351C131.329 19.3351 138.208 20.7683 138.208 22.5365C138.208 24.3042 131.329 25.7374 122.843 25.7374C114.358 25.7374 107.479 24.3042 107.479 22.5365C107.479 20.7683 114.358 19.3351 122.843 19.3351Z" stroke="#1A1A18" stroke-width="0.288" stroke-miterlimit="22.9256"/>
</g>
<defs>
<clipPath id="clip0_2_22765">
<rect width="1122.52" height="1587.4" fill="white" transform="translate(-101 -983)"/>
</clipPath>
</defs>
</svg>
