<svg width="120" height="59" viewBox="0 0 120 59" fill="none" xmlns="http://www.w3.org/2000/svg">
<g clip-path="url(#clip0_2_22765)">
<mask id="mask0_2_22765" style="mask-type:luminance" maskUnits="userSpaceOnUse" x="-1" y="0" width="122" height="59">
<path d="M0.847918 0.365192H2.85622V0.865192H4.86453V0.365192H6.87284V0.865192H8.88115V0.365192H10.8895V0.865192H12.8978V0.365192H14.9061V0.865192H16.9144V0.365192H18.9227V0.865192H20.931V0.365192H22.9393V0.865192H24.9476V0.365192H26.9559V0.865192H28.9642V0.365192H30.9725V0.865192H32.9808V0.365192H34.9892V0.865192H36.9975V0.365192H39.0058V0.865192H41.0141V0.365192H43.0224V0.865192H45.0307V0.365192H47.039V0.865192H49.0473V0.365192H51.0556V0.865192H53.0639V0.365192H55.0722V0.865192H57.0806V0.365192H59.0889V0.865192H61.0972V0.365192H63.1055V0.865192H65.1138V0.365192H67.1221V0.865192H69.1304V0.365192H71.1387V0.865192H73.147V0.365192H75.1553V0.865192H77.1636V0.365192H79.1719V0.865192H81.1803V0.365192H83.1886V0.865192H85.1969V0.365192H87.2052V0.865192H89.2135V0.365192H91.2218V0.865192H93.2301V0.365192H95.2384V0.865192H97.2467V0.365192H99.255V0.865192H101.263V0.365192H103.272V0.865192H105.28V0.365192H107.288V0.865192H109.297V0.365192H111.305V0.865192H113.313V0.365192H115.321V0.865192H117.33V0.365192H119.338V0.865192H119.842V1.34132H120.342V3.29357H119.842V5.24582H120.342V7.19807H119.842V9.15033H120.342V11.1026H119.842V13.0548H120.342V15.0071H119.842V16.9593H120.342V18.9116H119.842V20.8638H120.342V22.8161H119.842V24.7683H120.342V26.7206H119.842V28.6728H120.342V30.6251H119.842V32.5773H120.342V34.5296H119.842V36.4818H120.342V38.4341H119.842V40.3863H120.342V42.3386H119.842V44.2909H120.342V46.2431H119.842V48.1954H120.342V50.1476H119.842V52.0999H120.342V54.0521H119.842V56.0044H120.342V57.9566H119.842V58.4327H119.338V58.9327H117.33V58.4327H115.321V58.9327H113.313V58.4327H111.305V58.9327H109.297V58.4327H107.288V58.9327H105.28V58.4327H103.272V58.9327H101.263V58.4327H99.255V58.9327H97.2467V58.4327H95.2384V58.9327H93.2301V58.4327H91.2218V58.9327H89.2135V58.4327H87.2052V58.9327H85.1969V58.4327H83.1886V58.9327H81.1802V58.4327H79.1719V58.9327H77.1636V58.4327H75.1553V58.9327H73.147V58.4327H71.1387V58.9327H69.1304V58.4327H67.1221V58.9327H65.1138V58.4327H63.1055V58.9327H61.0972V58.4327H59.0889V58.9327H57.0805V58.4327H55.0722V58.9327H53.0639V58.4327H51.0556V58.9327H49.0473V58.4327H47.039V58.9327H45.0307V58.4327H43.0224V58.9327H41.0141V58.4327H39.0058V58.9327H36.9975V58.4327H34.9892V58.9327H32.9808V58.4327H30.9725V58.9327H28.9642V58.4327H26.9559V58.9327H24.9476V58.4327H22.9393V58.9327H20.931V58.4327H18.9227V58.9327H16.9144V58.4327H14.9061V58.9327H12.8978V58.4327H10.8894V58.9327H8.88114V58.4327H6.87283V58.9327H4.86452V58.4327H2.85621V58.9327H0.847904V58.4327H0.34375V57.9566H-0.15625V56.0044H0.34375V54.0521H-0.15625V52.0999H0.34375V50.1476H-0.15625V48.1954H0.34375V46.2431H-0.15625V44.2909H0.34375V42.3386H-0.15625V40.3863H0.34375V38.4341H-0.15625V36.4818H0.34375V34.5296H-0.15625V32.5773H0.34375V30.6251H-0.15625V28.6728H0.34375V26.7206H-0.15625V24.7683H0.34375V22.8161H-0.15625V20.8638H0.34375V18.9116H-0.15625V16.9593H0.34375V15.0071H-0.15625V13.0548H0.34375V11.1026H-0.15625V9.15033H0.34375V7.19807H-0.15625V5.24582H0.34375V3.29357H-0.15625V1.34132H0.34375V0.865192H0.847918V0.365192Z" stroke="white" stroke-dasharray="2 2"/>
</mask>
<g mask="url(#mask0_2_22765)">
<path d="M125.932 65.5353H123.906V65.0353H121.88V65.5353H119.855V65.0353H117.829V65.5353H115.803V65.0353H113.777V65.5353H111.751V65.0353H109.725V65.5353H107.7V65.0353H105.674V65.5353H103.648V65.0353H101.622V65.5353H99.5964V65.0353H97.5706V65.5353H95.5448V65.0353H93.5189V65.5353H91.4931V65.0353H89.4673V65.5353H87.4415V65.0353H85.4157V65.5353H83.3899V65.0353H81.3641V65.5353H79.3382V65.0353H77.3124V65.5353H75.2866V65.0353H73.2608V65.5353H71.235V65.0353H69.2092V65.5353H67.1834V65.0353H65.1576V65.5353H63.1317V65.0353H61.1059V65.5353H59.0801V65.0353H57.0543V65.5353H55.0285V65.0353H53.0027V65.5353H50.9769V65.0353H48.9511V65.5353H46.9253V65.0353H44.8994V65.5353H42.8736V65.0353H40.8478V65.5353H38.822V65.0353H36.7962V65.5353H34.7704V65.0353H32.7446V65.5353H30.7188V65.0353H28.693V65.5353H26.6671V65.0353H24.6413V65.5353H22.6155V65.0353H20.5897V65.5353H18.5639V65.0353H16.5381V65.5353H14.5123V65.0353H12.4865V65.5353H10.4607V65.0353H8.43486V65.5353H6.40905V65.0353H4.38324V65.5353H2.35743V65.0353H0.331622V65.5353H-1.6942V65.0353H-3.72002V65.5353H-5.74584V65.0353H-6.25879V64.5384H-6.75879V62.5447H-6.25879V60.5511H-6.75879V58.5574H-6.25879V56.5637H-6.75879V54.57H-6.25879V52.5763H-6.75879V50.5826H-6.25879V48.5889H-6.75879V46.5953H-6.25879V44.6016H-6.75879V42.6079H-6.25879V40.6142H-6.75879V38.6205H-6.25879V36.6268H-6.75879V34.6331H-6.25879V32.6395H-6.75879V30.6458H-6.25879V28.6521H-6.75879V26.6584H-6.25879V24.6647H-6.75879V22.671H-6.25879V20.6773H-6.75879V18.6837H-6.25879V16.69H-6.75879V14.6963H-6.25879V12.7026H-6.75879V10.7089H-6.25879V8.71522H-6.75879V6.72153H-6.25879V4.72784H-6.75879V2.73416H-6.25879V0.740471H-6.75879V-1.25321H-6.25879V-3.24689H-6.75879V-5.24058H-6.25879V-5.73741H-5.74588V-6.23741H-3.72007V-5.73741H-1.69426V-6.23741H0.331557V-5.73741H2.35737V-6.23741H4.38318V-5.73741H6.409V-6.23741H8.43481V-5.73741H10.4606V-6.23741H12.4864V-5.73741H14.5122V-6.23741H16.5381V-5.73741H18.5639V-6.23741H20.5897V-5.73741H22.6155V-6.23741H24.6413V-5.73741H26.6671V-6.23741H28.6929V-5.73741H30.7188V-6.23741H32.7446V-5.73741H34.7704V-6.23741H36.7962V-5.73741H38.822V-6.23741H40.8478V-5.73741H42.8736V-6.23741H44.8995V-5.73741H46.9253V-6.23741H48.9511V-5.73741H50.9769V-6.23741H53.0027V-5.73741H55.0285V-6.23741H57.0543V-5.73741H59.0802V-6.23741H61.106V-5.73741H63.1318V-6.23741H65.1576V-5.73741H67.1834V-6.23741H69.2092V-5.73741H71.235V-6.23741H73.2608V-5.73741H75.2866V-6.23741H77.3124V-5.73741H79.3383V-6.23741H81.3641V-5.73741H83.3899V-6.23741H85.4157V-5.73741H87.4415V-6.23741H89.4673V-5.73741H91.4931V-6.23741H93.5189V-5.73741H95.5447V-6.23741H97.5705V-5.73741H99.5964V-6.23741H101.622V-5.73741H103.648V-6.23741H105.674V-5.73741H107.7V-6.23741H109.725V-5.73741H111.751V-6.23741H113.777V-5.73741H115.803V-6.23741H117.829V-5.73741H119.854V-6.23741H121.88V-5.73741H123.906V-6.23741H125.932V-5.73741H126.445V-5.24057H126.945V-3.24688H126.445V-1.2532H126.945V0.740486H126.445V2.73418H126.945V4.72786H126.445V6.72155H126.945V8.71523H126.445V10.7089H126.945V12.7026H126.445V14.6963H126.945V16.69H126.445V18.6837H126.945V20.6774H126.445V22.671H126.945V24.6647H126.445V26.6584H126.945V28.6521H126.445V30.6458H126.945V32.6395H126.445V34.6332H126.945V36.6268H126.445V38.6205H126.945V40.6142H126.445V42.6079H126.945V44.6016H126.445V46.5953H126.945V48.589H126.445V50.5826H126.945V52.5763H126.445V54.57H126.945V56.5637H126.445V58.5574H126.945V60.5511H126.445V62.5448H126.945V64.5384H126.445V65.0353H125.932V65.5353Z" stroke="#2DD9FF" stroke-dasharray="2 2"/>
</g>
<path fill-rule="evenodd" clip-rule="evenodd" d="M43.5207 26.3771C46.5255 26.3771 48.9609 29.0937 48.9609 32.4446C48.9609 35.7954 46.5255 38.5123 43.5207 38.5123C40.5164 38.5123 38.0808 35.7954 38.0808 32.4446C38.0808 29.0937 40.5164 26.3771 43.5207 26.3771Z" fill="#1A1A18"/>
<path d="M43.5207 26.3771C46.5255 26.3771 48.9609 29.0937 48.9609 32.4446C48.9609 35.7954 46.5255 38.5123 43.5207 38.5123C40.5164 38.5123 38.0808 35.7954 38.0808 32.4446C38.0808 29.0937 40.5164 26.3771 43.5207 26.3771Z" stroke="#1A1A18" stroke-width="0.288" stroke-miterlimit="22.9256"/>
<path d="M90.845 23.4061C94.123 23.4061 96.7801 26.37 96.7801 30.0257C96.7801 33.6822 94.123 36.646 90.845 36.646C87.567 36.646 84.9097 33.6822 84.9097 30.0257C84.9097 26.37 87.567 23.4061 90.845 23.4061Z" stroke="#1A1A18" stroke-width="0.288" stroke-miterlimit="22.9256"/>
<path fill-rule="evenodd" clip-rule="evenodd" d="M43.7301 48.5553H32.6409C32.6409 42.7774 37.6057 38.094 43.7301 38.094C49.8543 38.094 54.8192 42.7774 54.8192 48.5553H43.7301Z" fill="#1A1A18"/>
<path d="M43.7301 48.5553H32.6409C32.6409 42.7774 37.6057 38.094 43.7301 38.094C49.8543 38.094 54.8192 42.7774 54.8192 48.5553H43.7301Z" stroke="#1A1A18" stroke-width="0.288" stroke-miterlimit="22.9256"/>
<path d="M91.0733 47.6029H78.9746C78.9746 41.2993 84.3915 36.1895 91.0733 36.1895C97.7552 36.1895 103.172 41.2993 103.172 47.6029H91.0733Z" stroke="#1A1A18" stroke-width="0.288" stroke-miterlimit="22.9256"/>
<path d="M90.3801 5.35522C104.74 5.35522 116.38 16.9959 116.38 31.3553C116.38 45.7146 104.74 57.3552 90.3801 57.3552C76.0208 57.3552 64.3801 45.7146 64.3801 31.3553C64.3801 16.9959 76.0208 5.35522 90.3801 5.35522Z" stroke="#1A1A18" stroke-width="2.6664" stroke-miterlimit="22.9256" stroke-dasharray="13.33 13.33"/>
</g>
<defs>
<clipPath id="clip0_2_22765">
<rect width="1122.52" height="1587.4" fill="white" transform="translate(-304 -93)"/>
</clipPath>
</defs>
</svg>
