<svg width="61" height="58" viewBox="0 0 61 58" fill="none" xmlns="http://www.w3.org/2000/svg">
<g clip-path="url(#clip0_2_22765)">
<path d="M34 3C48.3594 3 60 14.6407 60 29C60 43.3594 48.3594 55 34 55C19.6406 55 8 43.3594 8 29C8 14.6407 19.6406 3 34 3Z" stroke="#E3000F" stroke-width="2.6664" stroke-miterlimit="22.9256" stroke-dasharray="13.33 13.33"/>
<path fill-rule="evenodd" clip-rule="evenodd" d="M30.3809 14.506L27.157 25.9382L16.541 25.3592L25.618 32.2017L21.8274 42.9204L30.6614 35.717L38.9343 42.9204L35.3174 31.6261L44.2207 25.3592L33.1513 25.5827L30.3809 14.506Z" fill="#D9DADA"/>
<path d="M30.3809 14.506L27.157 25.9382L16.541 25.3592L25.618 32.2017L21.8274 42.9204L30.6614 35.717L38.9343 42.9204L35.3174 31.6261L44.2207 25.3592L33.1513 25.5827L30.3809 14.506Z" stroke="#1A1A18" stroke-width="0.288" stroke-miterlimit="22.9256"/>
<path d="M1.12744 52.0295L0.90332 51.3896C1.77252 50.2882 2.58599 49.1521 3.34066 47.9789C4.09506 46.8081 4.82866 45.5601 5.54346 44.2375L6.75932 44.4269L6.43652 50.9255L8.69519 50.7655L8.3433 51.6481L6.34318 51.6803L6.19918 54.5894L4.99919 55.3093C5.14839 54.1975 5.22331 53.0053 5.22331 51.7415H4.5033C3.60183 51.7415 2.47397 51.8375 1.12744 52.0295ZM5.51131 45.5816L1.97253 50.9255H5.22331L5.51131 45.5816Z" fill="#1A1A18"/>
<path fill-rule="evenodd" clip-rule="evenodd" d="M11.8539 46.5979C12.9722 46.5979 13.879 47.6093 13.879 48.8565C13.879 50.1042 12.9722 51.1151 11.8539 51.1151C10.7355 51.1151 9.82886 50.1042 9.82886 48.8565C9.82886 47.6093 10.7355 46.5979 11.8539 46.5979Z" fill="#1A1A18"/>
<path d="M11.8539 46.5979C12.9722 46.5979 13.879 47.6093 13.879 48.8565C13.879 50.1042 12.9722 51.1151 11.8539 51.1151C10.7355 51.1151 9.82886 50.1042 9.82886 48.8565C9.82886 47.6093 10.7355 46.5979 11.8539 46.5979Z" stroke="#1A1A18" stroke-width="0.288" stroke-miterlimit="22.9256"/>
<path fill-rule="evenodd" clip-rule="evenodd" d="M11.8941 54.5524H7.76611C7.76611 52.4017 9.61439 50.6578 11.8941 50.6578C14.174 50.6578 16.0221 52.4017 16.0221 54.5524H11.8941Z" fill="#1A1A18"/>
<path d="M11.8941 54.5524H7.76611C7.76611 52.4017 9.61439 50.6578 11.8941 50.6578C14.174 50.6578 16.0221 52.4017 16.0221 54.5524H11.8941Z" stroke="#1A1A18" stroke-width="0.288" stroke-miterlimit="22.9256"/>
</g>
<defs>
<clipPath id="clip0_2_22765">
<rect width="1122.52" height="1587.4" fill="white" transform="translate(-532 -830)"/>
</clipPath>
</defs>
</svg>
