<svg width="61" height="58" viewBox="0 0 61 58" fill="none" xmlns="http://www.w3.org/2000/svg">
<g clip-path="url(#clip0_2_22765)">
<path d="M31 3C45.3594 3 57 14.6407 57 29C57 43.3594 45.3594 55 31 55C16.6406 55 5 43.3594 5 29C5 14.6407 16.6406 3 31 3Z" stroke="#E3000F" stroke-width="2.6664" stroke-miterlimit="22.9256" stroke-dasharray="13.33 13.33"/>
<path fill-rule="evenodd" clip-rule="evenodd" d="M30.3103 37.9283C38.796 37.9283 45.675 39.3615 45.675 41.1296C45.675 42.8974 38.796 44.3306 30.3103 44.3306C21.8244 44.3306 14.9453 42.8974 14.9453 41.1296C14.9453 39.3615 21.8244 37.9283 30.3103 37.9283Z" fill="#D9DADA"/>
<path d="M30.3103 37.9283C38.796 37.9283 45.675 39.3615 45.675 41.1296C45.675 42.8974 38.796 44.3306 30.3103 44.3306C21.8244 44.3306 14.9453 42.8974 14.9453 41.1296C14.9453 39.3615 21.8244 37.9283 30.3103 37.9283Z" stroke="#1A1A18" stroke-width="0.288" stroke-miterlimit="22.9256"/>
<path fill-rule="evenodd" clip-rule="evenodd" d="M14.625 19.2213H45.4058V41.7692H14.625V19.2213Z" fill="#D9DADA"/>
<path fill-rule="evenodd" clip-rule="evenodd" d="M30.0159 15.8623C38.5018 15.8623 45.3809 17.2955 45.3809 19.0636C45.3809 20.8312 38.5018 22.2644 30.0159 22.2644C21.5302 22.2644 14.6514 20.8312 14.6514 19.0636C14.6514 17.2955 21.5302 15.8623 30.0159 15.8623Z" fill="#D9DADA"/>
<path d="M30.0159 15.8623C38.5018 15.8623 45.3809 17.2955 45.3809 19.0636C45.3809 20.8312 38.5018 22.2644 30.0159 22.2644C21.5302 22.2644 14.6514 20.8312 14.6514 19.0636C14.6514 17.2955 21.5302 15.8623 30.0159 15.8623Z" stroke="#1A1A18" stroke-width="0.288" stroke-miterlimit="22.9256"/>
</g>
<defs>
<clipPath id="clip0_2_22765">
<rect width="1122.52" height="1587.4" fill="white" transform="translate(-411 -830)"/>
</clipPath>
</defs>
</svg>
