<svg width="225" height="62" viewBox="0 0 225 62" fill="none" xmlns="http://www.w3.org/2000/svg">
<g clip-path="url(#clip0_2_22765)">
<path fill-rule="evenodd" clip-rule="evenodd" d="M199.314 33.7575C209.782 33.7575 218.268 35.5252 218.268 37.7064C218.268 39.8872 209.782 41.6548 199.314 41.6548C188.846 41.6548 180.36 39.8872 180.36 37.7064C180.36 35.5252 188.846 33.7575 199.314 33.7575Z" fill="#AD4482"/>
<path d="M199.314 33.7575C209.782 33.7575 218.268 35.5252 218.268 37.7064C218.268 39.8872 209.782 41.6548 199.314 41.6548C188.846 41.6548 180.36 39.8872 180.36 37.7064C180.36 35.5252 188.846 33.7575 199.314 33.7575Z" stroke="#1A1A18" stroke-width="0.288" stroke-miterlimit="22.9256"/>
<path d="M23.9948 26.5692C23.6073 26.5692 23.1734 26.4837 22.6934 26.3133V25.5631C22.8782 25.6413 23.1413 25.7052 23.4792 25.755C23.5964 25.7268 23.7101 25.7124 23.8238 25.7124C24.7521 25.6413 25.3814 25.3711 25.7049 24.9089C26.0285 24.4467 26.1921 23.8029 26.1921 22.9854C26.1921 22.0182 25.943 21.3036 25.449 20.8413C24.9548 20.3757 24.194 20.1444 23.1629 20.1444C23.0808 20.1444 22.9388 20.1516 22.7361 20.166C22.5298 20.1799 22.3805 20.187 22.2878 20.187L22.2456 29.5951C22.2456 30.2172 22.3416 30.7044 22.5298 31.0635C22.7184 31.4225 23.1236 31.6005 23.7389 31.6005H24.9513V32.3897C24.1478 32.2759 23.2161 32.2188 22.1564 32.2188C21.168 32.2188 20.016 32.2902 18.7041 32.4324V31.6466H19.6214C20.1336 31.6466 20.4533 31.4829 20.5814 31.1594C20.7096 30.8358 20.7734 30.3702 20.7734 29.7655L20.8161 22.1709C20.7734 21.4457 20.6597 20.9196 20.471 20.5923C20.2829 20.2654 19.9877 20.1017 19.5821 20.1017L18.7253 20.1444V19.4403C18.9849 19.4512 19.4222 19.4723 20.0444 19.5078C20.6669 19.5434 21.1574 19.5721 21.5237 19.59C22.5476 19.5329 23.2872 19.4829 23.7389 19.4403C23.9913 19.4119 24.1868 19.3979 24.3326 19.3979C24.9548 19.3979 25.5341 19.5435 26.0674 19.8315C26.6045 20.1232 27.0274 20.5179 27.3404 21.0121C27.657 21.51 27.8132 22.05 27.8132 22.6404C27.8132 23.7357 27.5006 24.6669 26.8713 25.4316C26.2417 26.1957 25.3493 26.5869 24.1868 26.6085C24.1297 26.5797 24.0658 26.5692 23.9948 26.5692Z" fill="#1A1A18"/>
<path d="M31.8667 21.8085L32.1652 22.1105C31.5538 24.411 31.2479 27.2129 31.2479 30.5157C31.9234 29.7765 32.5882 28.9409 33.2356 28.0059C33.8827 27.0741 34.4443 26.1069 34.9243 25.1042C35.4008 24.0981 35.7422 23.1237 35.9376 22.1709H37.3276L36.7732 31.0884L38.4586 30.7293V31.5968C37.0647 31.5968 35.8666 31.9346 34.871 32.6028C35.3616 29.9862 35.6247 27.6112 35.6639 25.4777C34.1314 28.1089 32.5171 30.4269 30.8212 32.4324H29.6692L30.2026 23.2164L28.6238 23.5969V22.8112C29.2531 22.7757 29.7974 22.6797 30.263 22.5299C30.7252 22.3807 31.2586 22.1426 31.8667 21.8085Z" fill="#1A1A18"/>
<path d="M45.9461 32.731L45.6086 32.4714C46.1025 30.6723 46.38 27.771 46.437 23.7712C45.4484 24.9444 44.7764 25.7551 44.421 26.2068C44.0616 26.6547 43.6848 27.1985 43.2868 27.8421C42.8885 28.482 42.5544 29.1789 42.2804 29.9364C42.0033 30.69 41.8113 31.5222 41.7009 32.4324H40.3996L40.908 23.3835L39.2476 23.7712V22.9355C40.5277 22.9355 41.6794 22.6049 42.6998 21.9363L41.9784 28.7168C42.419 27.8883 42.8778 27.124 43.3506 26.4198C43.8273 25.7196 44.3462 25.0332 44.9078 24.3612C45.4661 23.6892 46.1204 22.9605 46.8634 22.1709H48.0332L47.5248 31.2166L49.0608 31.0245V31.7676C47.9976 31.8065 46.9594 32.1267 45.9461 32.731Z" fill="#1A1A18"/>
<path d="M51.6459 23.4722L49.7898 23.8101V23.046C50.6039 22.9533 51.8202 22.6403 53.4378 22.107L52.6947 32.4286L51.0662 32.7737C51.4539 30.4625 51.6459 27.8742 51.6459 25.0082V23.4722ZM51.3258 18.2638C51.3258 17.901 51.4325 17.5668 51.6387 17.2681C51.8486 16.9659 52.1222 16.8165 52.4601 16.8165C52.7835 16.8165 53.0715 16.9447 53.3203 17.2039C53.5694 17.4636 53.6937 17.7621 53.6937 18.0967C53.6937 18.4625 53.5727 18.7864 53.3346 19.0672C53.0927 19.348 52.8014 19.494 52.4601 19.5046C52.4601 19.4974 52.4529 19.494 52.4423 19.4902C52.4317 19.4868 52.4246 19.4829 52.4174 19.4829C52.1294 19.4829 51.8806 19.3586 51.6705 19.1099C51.4646 18.8646 51.347 18.58 51.3258 18.2638Z" fill="#1A1A18"/>
<path d="M55.5109 29.8937C55.5109 30.306 55.596 30.6651 55.7635 30.9819C55.9339 31.2948 56.1652 31.5362 56.4567 31.7033C56.748 31.8708 57.0647 31.9557 57.406 31.9629C57.9605 31.9629 58.4333 31.803 58.8245 31.4796C59.2156 31.1594 59.4111 30.7149 59.4111 30.1496C59.4111 29.7017 59.3045 29.3354 59.0947 29.0439C58.8849 28.7522 58.5652 28.4537 58.1313 28.1445L57.0005 27.3123C56.1757 26.6369 55.7453 25.8261 55.7029 24.8805C55.7029 24.052 55.9339 23.38 56.3996 22.854C56.8656 22.3312 57.5481 22.0395 58.4511 21.9789C58.7107 21.9789 59.0165 22.0182 59.3687 22.0965C59.724 22.1748 59.8948 22.2137 59.8805 22.2137V24.4716H59.2407V23.8989C59.2407 23.5471 59.1517 23.2341 58.9809 22.9639C58.8105 22.6903 58.5687 22.5549 58.2591 22.5549C57.9216 22.5549 57.6264 22.7186 57.3739 23.0493C57.1252 23.3762 57.0005 23.7069 57.0005 24.0449C57.0469 24.8877 57.4876 25.6164 58.3233 26.2208L59.2867 26.8821C60.1968 27.5079 60.6735 28.3044 60.7127 29.2749C60.7127 29.7017 60.5808 30.171 60.3177 30.6828C60.0585 31.1949 59.6745 31.6289 59.1729 31.9845C58.6717 32.3397 58.0815 32.5178 57.406 32.5178H57.3633C56.7091 32.5178 56.1475 32.4286 55.6743 32.2509C55.2052 32.0768 54.8779 31.9274 54.6965 31.8102L54.9527 28.5924L55.6137 28.6778C55.6032 28.6917 55.5892 28.8343 55.5676 29.0973C55.5499 29.3604 55.5321 29.6272 55.5109 29.8937Z" fill="#1A1A18"/>
<path d="M61.6688 30.4696C61.7222 29.6627 61.7648 28.6135 61.8038 27.3231C61.8431 26.0324 61.8892 24.9836 61.9463 24.1763C62.0314 23.0991 62.1344 22.1425 62.2555 21.3035C62.3764 20.4644 62.5223 19.6254 62.6927 18.7791C62.8635 17.9363 63.0627 17.0297 63.2864 16.0557C63.5106 15.085 63.7204 14.1429 63.909 13.2323L64.1222 12.2688H66.4474V12.9303C66.4262 12.9371 66.3446 12.973 66.1986 13.0331C66.0566 13.0937 65.8891 13.2395 65.6971 13.4636C65.5051 13.6911 65.2991 14.0751 65.0787 14.6117C64.858 15.1523 64.6626 15.842 64.4884 16.6883C64.3214 17.5772 64.1898 18.3025 64.0972 18.8536C64.0084 19.4047 63.9195 19.9949 63.8414 20.628C63.7594 21.2573 63.6989 21.8334 63.6494 22.3523C63.6029 22.8716 63.5462 23.5754 63.4823 24.4715L63.2475 27.9736C63.2654 27.9558 63.3863 27.7567 63.61 27.3798C63.8342 26.9993 64.076 26.5975 64.3391 26.1674C64.6022 25.7335 64.8758 25.3071 65.1675 24.8805C65.6438 24.1797 66.4474 23.2768 67.5815 22.1708L69.7328 22.0643V25.179C69.7328 26.8004 69.3023 28.3432 68.4383 29.8009C67.5743 31.2625 66.4295 32.7097 64.9967 34.1387L63.4823 35.7175L62.8598 35.0138C63.6634 34.4588 64.378 33.8189 65.0039 33.0938C65.6332 32.3684 66.1703 31.5755 66.6143 30.7148C67.0626 29.8547 67.4006 28.9551 67.6348 28.0091C67.8662 27.0635 67.9834 26.1068 67.9834 25.1328C67.9834 24.3433 67.8911 23.8173 67.7063 23.5542C67.6703 23.5009 67.6171 23.4722 67.5566 23.4722C67.2508 23.4722 66.7424 23.9099 66.0315 24.7844C65.3203 25.659 64.652 26.7078 64.0227 27.9308C63.3968 29.1539 63.0091 30.2776 62.8635 31.3015L62.7355 32.2187L61.498 32.6455C61.5763 31.899 61.6334 31.1738 61.6688 30.4696Z" fill="#1A1A18"/>
<path d="M4.54795 38.6664H4.20288V37.8772C5.03128 37.9516 5.82768 38.0014 6.59221 38.0265C7.01181 38.0193 7.65888 37.9943 8.53342 37.9482C9.40462 37.9021 10.2297 37.8772 11.0082 37.8772C12.0998 37.8772 13.067 38.0442 13.9094 38.382C14.7522 38.7195 15.4564 39.1856 16.0142 39.7794C16.5725 40.3765 16.9958 41.0734 17.2799 41.877C17.5646 42.6771 17.7068 43.5339 17.7068 44.4474C17.7068 45.3757 17.568 46.2503 17.2944 47.0787C17.0208 47.9034 16.6083 48.6325 16.0535 49.269C15.4987 49.9017 14.8021 50.3961 13.956 50.7552C13.113 51.1142 12.1459 51.2955 11.051 51.2955C10.5743 51.2955 10.02 51.2566 9.38342 51.1785C8.74702 51.1002 8.10702 51.0219 7.47062 50.9436C6.83409 50.8654 6.27595 50.8262 5.80302 50.8262C5.29435 50.8262 4.76101 50.8688 4.20288 50.9543V50.1186H5.24822C5.55395 50.1186 5.80995 50.0265 6.01968 49.845C6.22982 49.6602 6.33635 49.4183 6.33635 49.1197V48.7356V41.8626C6.33635 40.8459 6.29702 40.1241 6.21542 39.694C6.13716 39.2638 5.98075 38.9826 5.74595 38.8549C5.51128 38.7302 5.11329 38.6664 4.54795 38.6664ZM7.91502 38.7906V47.9462C7.91502 48.7674 8.15315 49.39 8.63315 49.8201C9.11315 50.2502 9.90609 50.4637 11.0082 50.4637C11.865 50.4282 12.6048 50.2574 13.2234 49.9444C13.8384 49.6353 14.34 49.2192 14.7273 48.7036C15.1113 48.1846 15.3959 47.5943 15.5807 46.9257C15.7655 46.2609 15.8615 45.5462 15.8721 44.7854C15.8721 43.9785 15.7372 43.2033 15.467 42.4674C15.2001 41.7277 14.8089 41.0701 14.3006 40.4974C13.7885 39.9214 13.1769 39.4736 12.4626 39.1501C11.7479 38.8262 10.955 38.6664 10.091 38.6664H9.57542L7.91502 38.7906Z" fill="#1A1A18"/>
<path d="M20.3735 41.9942L18.5173 42.3321V41.5678C19.3315 41.4753 20.5477 41.1624 22.1653 40.629L21.4223 50.9505L19.7937 51.2955C20.1815 48.9843 20.3735 46.3962 20.3735 43.5302V41.9942ZM20.0533 36.7855C20.0533 36.4227 20.1599 36.0886 20.3663 35.7901C20.576 35.4877 20.8497 35.3385 21.1876 35.3385C21.5111 35.3385 21.7991 35.4666 22.0477 35.7258C22.2968 35.9854 22.4212 36.2841 22.4212 36.6186C22.4212 36.9843 22.3003 37.3084 22.0621 37.5892C21.8203 37.87 21.5288 38.0158 21.1876 38.0265C21.1876 38.0193 21.1804 38.0158 21.1699 38.0121C21.1592 38.0086 21.152 38.0048 21.1448 38.0048C20.8568 38.0048 20.6081 37.8805 20.398 37.6318C20.192 37.3866 20.0745 37.1019 20.0533 36.7855Z" fill="#1A1A18"/>
<path d="M24.2384 48.4156C24.2384 48.828 24.3234 49.187 24.4909 49.5037C24.6613 49.8166 24.8926 50.0582 25.184 50.2253C25.4754 50.3926 25.7921 50.4777 26.1334 50.4849C26.6878 50.4849 27.1606 50.325 27.5518 50.0014C27.943 49.6814 28.1385 49.2369 28.1385 48.6714C28.1385 48.2236 28.0318 47.8574 27.8221 47.566C27.6124 47.2742 27.2926 46.9755 26.8588 46.6665L25.7278 45.8342C24.9032 45.1587 24.4726 44.3481 24.4304 43.4025C24.4304 42.5739 24.6613 41.9019 25.1269 41.3758C25.5929 40.8531 26.2756 40.5614 27.1785 40.5009C27.4381 40.5009 27.7438 40.5402 28.0961 40.6184C28.4514 40.6966 28.6222 40.7356 28.6078 40.7356V42.9934H27.968V42.4209C27.968 42.069 27.8792 41.7561 27.7084 41.4858C27.5378 41.2122 27.296 41.0769 26.9865 41.0769C26.6489 41.0769 26.3538 41.2404 26.1013 41.5712C25.8526 41.8982 25.7278 42.2289 25.7278 42.5668C25.7744 43.4096 26.215 44.1384 27.0508 44.7426L28.0141 45.4041C28.9242 46.03 29.4008 46.8264 29.4401 47.7969C29.4401 48.2236 29.3082 48.693 29.0452 49.2047C28.7858 49.7168 28.4018 50.1507 27.9004 50.5065C27.3992 50.8617 26.8088 51.0397 26.1334 51.0397H26.0908C25.4365 51.0397 24.8749 50.9505 24.4017 50.7729C23.9326 50.5986 23.6053 50.4494 23.4238 50.3322L23.6801 47.1144L24.3412 47.1997C24.3306 47.2137 24.3166 47.3562 24.295 47.6193C24.2773 47.8823 24.2596 48.1492 24.2384 48.4156Z" fill="#1A1A18"/>
<path d="M31.2319 48.4156C31.2319 48.828 31.3169 49.187 31.4844 49.5037C31.6548 49.8166 31.8861 50.0582 32.1776 50.2253C32.4689 50.3926 32.7858 50.4777 33.127 50.4849C33.6815 50.4849 34.1543 50.325 34.5455 50.0014C34.9365 49.6814 35.132 49.2369 35.132 48.6714C35.132 48.2236 35.0255 47.8574 34.8156 47.566C34.6059 47.2742 34.2862 46.9755 33.8523 46.6665L32.7215 45.8342C31.8967 45.1587 31.4663 44.3481 31.4239 43.4025C31.4239 42.5739 31.6548 41.9019 32.1205 41.3758C32.5865 40.8531 33.2691 40.5614 34.172 40.5009C34.4316 40.5009 34.7375 40.5402 35.0898 40.6184C35.445 40.6966 35.6157 40.7356 35.6015 40.7356V42.9934H34.9616V42.4209C34.9616 42.069 34.8727 41.7561 34.7019 41.4858C34.5315 41.2122 34.2896 41.0769 33.98 41.0769C33.6425 41.0769 33.3474 41.2404 33.0948 41.5712C32.8462 41.8982 32.7215 42.2289 32.7215 42.5668C32.7679 43.4096 33.2085 44.1384 34.0443 44.7426L35.0076 45.4041C35.9178 46.03 36.3944 46.8264 36.4337 47.7969C36.4337 48.2236 36.3018 48.693 36.0387 49.2047C35.7795 49.7168 35.3955 50.1507 34.8939 50.5065C34.3927 50.8617 33.8024 51.0397 33.127 51.0397H33.0843C32.43 51.0397 31.8684 50.9505 31.3952 50.7729C30.9261 50.5986 30.5988 50.4494 30.4175 50.3322L30.6737 47.1144L31.3347 47.1997C31.3242 47.2137 31.3101 47.3562 31.2885 47.6193C31.2708 47.8823 31.2531 48.1492 31.2319 48.4156Z" fill="#1A1A18"/>
<path d="M43.5589 47.2386L44.2199 47.3274C44.2199 47.6226 44.1311 48.0565 43.9569 48.6254C43.7793 49.198 43.4202 49.7418 42.8726 50.2608C42.3249 50.7801 41.5497 51.0397 40.5474 51.0397C39.8217 51.0397 39.2246 50.8512 38.7551 50.4705C38.2861 50.0937 37.9445 49.5887 37.7313 48.9526C37.5181 48.3195 37.4111 47.6154 37.4111 46.8369C37.4538 46.0194 37.5426 45.2514 37.6814 44.5366C37.8201 43.8254 38.037 43.1605 38.325 42.5455C38.6165 41.9269 39.0005 41.4325 39.4805 41.0557C39.957 40.6789 40.533 40.4797 41.2085 40.4582C41.7954 40.4582 42.2682 40.5757 42.6306 40.8138C42.9897 41.052 43.2494 41.3758 43.4058 41.781C43.5623 42.1862 43.6406 42.6484 43.6406 43.1677C43.6406 43.6122 43.5551 44.2059 43.3846 44.9562C41.9874 45.4218 40.5118 45.7454 38.9649 45.9196C38.9581 45.9196 38.9294 46.1686 38.8833 46.6665C38.9649 48.8494 39.7117 49.9727 41.1234 50.037C41.5569 50.037 41.9625 49.9161 42.3393 49.6708C42.7126 49.4254 43.0113 49.0982 43.2282 48.693C43.4486 48.2874 43.5589 47.8611 43.5589 47.4129V47.2386ZM39.0503 45.2333L40.9314 44.9562C41.3758 44.8707 41.7239 44.6433 41.9697 44.2736C42.2149 43.9074 42.3393 43.4806 42.3393 42.9934C42.3393 42.4425 42.2715 41.9764 42.1329 41.5996C41.9979 41.2228 41.6885 41.0342 41.2085 41.0342C40.4937 41.052 39.957 41.5428 39.6014 42.5096C39.2423 43.4734 39.0469 44.3481 39.0075 45.1305C39.0254 45.1516 39.0359 45.1765 39.0431 45.1944C39.0469 45.2121 39.0503 45.2265 39.0503 45.2333Z" fill="#1A1A18"/>
<path d="M51.8323 51.2529L51.4947 50.9933C51.9887 49.1943 52.2662 46.2931 52.3233 42.2932C51.3345 43.4664 50.6625 44.2771 50.3073 44.7287C49.9478 45.1765 49.571 45.7204 49.173 46.3641C48.7746 47.004 48.4406 47.7009 48.1665 48.4584C47.8895 49.212 47.6975 50.0442 47.5871 50.9543H46.2858L46.7942 41.9054L45.1338 42.2932V41.4574C46.4139 41.4574 47.5655 41.1268 48.5861 40.4583L47.8646 47.2387C48.3053 46.4103 48.7641 45.6459 49.2369 44.9418C49.7135 44.2414 50.2325 43.5552 50.7941 42.8832C51.3523 42.2112 52.0065 41.4826 52.7495 40.693H53.9194L53.411 49.7385L54.947 49.5465V50.2895C53.8838 50.3284 52.8455 50.6485 51.8323 51.2529Z" fill="#1A1A18"/>
<path d="M57.166 41.5464L55.7793 41.6103V40.693L57.2548 40.7356L57.3792 38.6664L59.004 38.2824L58.7481 40.7356L61.0128 40.693L60.9705 41.5679L58.5345 41.5464C58.4956 41.6352 58.428 43.6617 58.3425 47.6226C58.3425 48.2485 58.3606 48.7248 58.3925 49.0521C58.4246 49.3755 58.5134 49.6425 58.6593 49.8413C58.8086 50.0442 59.0396 50.1508 59.363 50.1648C59.3846 50.1436 59.4024 50.1293 59.4201 50.1258C59.4345 50.1225 59.445 50.1187 59.4522 50.1187C59.9428 50.0725 60.3446 49.8378 60.6537 49.4184C60.9633 48.995 61.116 48.4262 61.116 47.7114H61.7169C61.7169 48.3589 61.5926 48.9312 61.3506 49.4326C61.1088 49.9338 60.7641 50.3179 60.323 50.5915C59.8824 50.8617 59.3702 50.9971 58.7908 50.9971C58.3248 50.9971 57.9162 50.926 57.564 50.7801C57.2121 50.6342 56.9668 50.5171 56.8246 50.4211C56.8137 50.1897 56.7997 49.8451 56.7854 49.3935C56.771 48.9417 56.757 48.6042 56.7426 48.3729C56.7748 46.9045 56.9136 44.6289 57.166 41.5464Z" fill="#1A1A18"/>
<path d="M68.6289 47.2386L69.29 47.3274C69.29 47.6226 69.2012 48.0565 69.0269 48.6254C68.8493 49.198 68.4903 49.7418 67.9425 50.2608C67.3949 50.7801 66.6197 51.0397 65.6175 51.0397C64.8917 51.0397 64.2945 50.8512 63.8252 50.4705C63.3561 50.0937 63.0144 49.5887 62.8013 48.9526C62.5881 48.3195 62.4812 47.6154 62.4812 46.8369C62.5239 46.0194 62.6127 45.2514 62.7515 44.5366C62.8901 43.8254 63.1071 43.1605 63.3951 42.5455C63.6864 41.9269 64.0704 41.4325 64.5504 41.0557C65.0271 40.6789 65.6031 40.4797 66.2784 40.4582C66.8655 40.4582 67.3383 40.5757 67.7007 40.8138C68.0597 41.052 68.3195 41.3758 68.4759 41.781C68.6324 42.1862 68.7105 42.6484 68.7105 43.1677C68.7105 43.6122 68.6252 44.2059 68.4547 44.9562C67.0575 45.4218 65.5819 45.7454 64.0349 45.9196C64.0281 45.9196 63.9995 46.1686 63.9533 46.6665C64.0349 48.8494 64.7817 49.9727 66.1935 50.037C66.6269 50.037 67.0325 49.9161 67.4093 49.6708C67.7827 49.4254 68.0813 49.0982 68.2983 48.693C68.5185 48.2874 68.6289 47.8611 68.6289 47.4129V47.2386ZM64.1204 45.2333L66.0015 44.9562C66.4459 44.8707 66.794 44.6433 67.0396 44.2736C67.2849 43.9074 67.4093 43.4806 67.4093 42.9934C67.4093 42.4425 67.3416 41.9764 67.2029 41.5996C67.068 41.2228 66.7584 41.0342 66.2784 41.0342C65.5637 41.052 65.0271 41.5428 64.6715 42.5096C64.3124 43.4734 64.1169 44.3481 64.0776 45.1305C64.0955 45.1516 64.106 45.1765 64.1132 45.1944C64.1169 45.2121 64.1204 45.2265 64.1204 45.2333Z" fill="#1A1A18"/>
<path d="M77.329 40.7356V42.5278C77.3078 42.5206 77.2651 42.5097 77.2013 42.4992C77.137 42.4885 77.0515 42.4852 76.945 42.4852C76.2413 42.4852 75.5015 43.3242 74.723 45.0024C74.3779 45.7737 74.0687 46.5883 73.7985 47.4451C73.5245 48.2985 73.3075 49.0698 73.1405 49.763C72.9734 50.4528 72.8918 50.8511 72.8918 50.9543H71.7825L72.2697 41.9942L70.1611 42.4209V41.5679C70.6766 41.5569 71.2919 41.4574 72.0101 41.2689C72.7282 41.0841 73.3574 40.8672 73.8945 40.6291L73.6137 46.005C73.6349 45.9552 73.7914 45.5712 74.0865 44.8493C74.3779 44.1277 74.6161 43.5589 74.7974 43.15C74.9789 42.7376 75.1603 42.3604 75.3413 42.0192C75.5227 41.6779 75.6935 41.422 75.8534 41.2512C76.1875 40.8782 76.5503 40.693 76.945 40.693C77.0515 40.693 77.137 40.6967 77.2013 40.7074C77.2651 40.7179 77.3078 40.7284 77.329 40.7356Z" fill="#1A1A18"/>
<path d="M79.0395 48.4156C79.0395 48.828 79.1246 49.187 79.292 49.5037C79.4624 49.8166 79.6938 50.0582 79.9852 50.2253C80.2766 50.3926 80.5933 50.4777 80.9346 50.4849C81.4891 50.4849 81.9619 50.325 82.3531 50.0014C82.7443 49.6814 82.9396 49.2369 82.9396 48.6714C82.9396 48.2236 82.8331 47.8574 82.6234 47.566C82.4135 47.2742 82.0938 46.9755 81.6599 46.6665L80.5291 45.8342C79.7044 45.1587 79.2739 44.3481 79.2315 43.4025C79.2315 42.5739 79.4624 41.9019 79.9282 41.3758C80.3942 40.8531 81.0767 40.5614 81.9796 40.5009C82.2394 40.5009 82.5451 40.5402 82.8974 40.6184C83.2526 40.6966 83.4235 40.7356 83.4091 40.7356V42.9934H82.7692V42.4209C82.7692 42.069 82.6804 41.7561 82.5095 41.4858C82.3391 41.2122 82.0972 41.0769 81.7876 41.0769C81.4502 41.0769 81.155 41.2404 80.9024 41.5712C80.6538 41.8982 80.5291 42.2289 80.5291 42.5668C80.5755 43.4096 81.0163 44.1384 81.8519 44.7426L82.8154 45.4041C83.7254 46.03 84.202 46.8264 84.2414 47.7969C84.2414 48.2236 84.1094 48.693 83.8463 49.2047C83.5871 49.7168 83.2031 50.1507 82.7015 50.5065C82.2004 50.8617 81.61 51.0397 80.9346 51.0397H80.8919C80.2376 51.0397 79.676 50.9505 79.2028 50.7729C78.7338 50.5986 78.4064 50.4494 78.2251 50.3322L78.4814 47.1144L79.1423 47.1997C79.1318 47.2137 79.1178 47.3562 79.0963 47.6193C79.0784 47.8823 79.0607 48.1492 79.0395 48.4156Z" fill="#1A1A18"/>
<path fill-rule="evenodd" clip-rule="evenodd" d="M120.605 39.5349C131.073 39.5349 139.559 41.9057 139.559 44.8308C139.559 47.7557 131.073 50.1266 120.605 50.1266C110.137 50.1266 101.651 47.7557 101.651 44.8308C101.651 41.9057 110.137 39.5349 120.605 39.5349Z" fill="#EF7C00"/>
<path d="M120.605 39.5349C131.073 39.5349 139.559 41.9057 139.559 44.8308C139.559 47.7557 131.073 50.1266 120.605 50.1266C110.137 50.1266 101.651 47.7557 101.651 44.8308C101.651 41.9057 110.137 39.5349 120.605 39.5349Z" stroke="#1A1A18" stroke-width="0.288" stroke-miterlimit="22.9256"/>
<path fill-rule="evenodd" clip-rule="evenodd" d="M199.449 39.5008C209.917 39.5008 218.403 41.8716 218.403 44.7967C218.403 47.7216 209.917 50.0925 199.449 50.0925C188.981 50.0925 180.496 47.7216 180.496 44.7967C180.496 41.8716 188.981 39.5008 199.449 39.5008Z" fill="#AD4482"/>
<path d="M199.449 39.5008C209.917 39.5008 218.403 41.8716 218.403 44.7967C218.403 47.7216 209.917 50.0925 199.449 50.0925C188.981 50.0925 180.496 47.7216 180.496 44.7967C180.496 41.8716 188.981 39.5008 199.449 39.5008Z" stroke="#1A1A18" stroke-width="0.288" stroke-miterlimit="22.9256"/>
<path fill-rule="evenodd" clip-rule="evenodd" d="M101.256 37.9546H139.227V44.2725H101.256V37.9546Z" fill="#EF7C00"/>
<path fill-rule="evenodd" clip-rule="evenodd" d="M180.1 37.9207H218.071V44.2385H180.1V37.9207Z" fill="#AD4482"/>
<path fill-rule="evenodd" clip-rule="evenodd" d="M120.777 34.2257C131.245 34.2257 139.73 35.9934 139.73 38.1746C139.73 40.3554 131.245 42.123 120.777 42.123C110.309 42.123 101.823 40.3554 101.823 38.1746C101.823 35.9934 110.309 34.2257 120.777 34.2257Z" fill="#EF7C00"/>
<path d="M120.777 34.2257C131.245 34.2257 139.73 35.9934 139.73 38.1746C139.73 40.3554 131.245 42.123 120.777 42.123C110.309 42.123 101.823 40.3554 101.823 38.1746C101.823 35.9934 110.309 34.2257 120.777 34.2257Z" stroke="#1A1A18" stroke-width="0.288" stroke-miterlimit="22.9256"/>
<path fill-rule="evenodd" clip-rule="evenodd" d="M199.621 34.1917C210.089 34.1917 218.575 35.9594 218.575 38.1406C218.575 40.3214 210.089 42.089 199.621 42.089C189.153 42.089 180.667 40.3214 180.667 38.1406C180.667 35.9594 189.153 34.1917 199.621 34.1917Z" fill="#EF7C00"/>
<path d="M199.621 34.1917C210.089 34.1917 218.575 35.9594 218.575 38.1406C218.575 40.3214 210.089 42.089 199.621 42.089C189.153 42.089 180.667 40.3214 180.667 38.1406C180.667 35.9594 189.153 34.1917 199.621 34.1917Z" stroke="#1A1A18" stroke-width="0.288" stroke-miterlimit="22.9256"/>
<path fill-rule="evenodd" clip-rule="evenodd" d="M120.47 33.7913C130.937 33.7913 139.423 35.5591 139.423 37.7403C139.423 39.9211 130.937 41.6887 120.47 41.6887C110.001 41.6887 101.516 39.9211 101.516 37.7403C101.516 35.5591 110.001 33.7913 120.47 33.7913Z" fill="#AD4482"/>
<path d="M120.47 33.7913C130.937 33.7913 139.423 35.5591 139.423 37.7403C139.423 39.9211 130.937 41.6887 120.47 41.6887C110.001 41.6887 101.516 39.9211 101.516 37.7403C101.516 35.5591 110.001 33.7913 120.47 33.7913Z" stroke="#1A1A18" stroke-width="0.288" stroke-miterlimit="22.9256"/>
<path fill-rule="evenodd" clip-rule="evenodd" d="M101.121 32.2113H139.092V38.5292H101.121V32.2113Z" fill="#AD4482"/>
<path fill-rule="evenodd" clip-rule="evenodd" d="M179.965 32.1772H217.936V38.4951H179.965V32.1772Z" fill="#EF7C00"/>
<path fill-rule="evenodd" clip-rule="evenodd" d="M120.641 25.2759C131.109 25.2759 139.595 27.7616 139.595 30.828C139.595 33.8942 131.109 36.3801 120.641 36.3801C110.173 36.3801 101.688 33.8942 101.688 30.828C101.688 27.7616 110.173 25.2759 120.641 25.2759Z" fill="#AD4482"/>
<path d="M120.641 25.2759C131.109 25.2759 139.595 27.7616 139.595 30.828C139.595 33.8942 131.109 36.3801 120.641 36.3801C110.173 36.3801 101.688 33.8942 101.688 30.828C101.688 27.7616 110.173 25.2759 120.641 25.2759Z" stroke="#1A1A18" stroke-width="0.288" stroke-miterlimit="22.9256"/>
<path fill-rule="evenodd" clip-rule="evenodd" d="M199.486 25.2418C209.954 25.2418 218.44 27.7275 218.44 30.7939C218.44 33.8602 209.954 36.3461 199.486 36.3461C189.018 36.3461 180.532 33.8602 180.532 30.7939C180.532 27.7275 189.018 25.2418 199.486 25.2418Z" fill="#EF7C00"/>
<path d="M199.486 25.2418C209.954 25.2418 218.44 27.7275 218.44 30.7939C218.44 33.8602 209.954 36.3461 199.486 36.3461C189.018 36.3461 180.532 33.8602 180.532 30.7939C180.532 27.7275 189.018 25.2418 199.486 25.2418Z" stroke="#1A1A18" stroke-width="0.288" stroke-miterlimit="22.9256"/>
<path d="M99.4543 14.4855C99.1702 14.7869 99.1841 15.2615 99.4855 15.5457L104.397 20.1763C104.698 20.4604 105.173 20.4465 105.457 20.1451C105.741 19.8437 105.727 19.3691 105.426 19.0849L101.06 14.9688L105.176 10.6033C105.46 10.3019 105.446 9.82724 105.145 9.54308C104.844 9.25892 104.369 9.27288 104.085 9.57426L99.4543 14.4855ZM133.978 13.2503L132.561 13.292L132.605 14.7913L134.022 14.7497L133.978 13.2503ZM129.728 13.3753L126.895 13.4587L126.939 14.958L129.772 14.8747L129.728 13.3753ZM124.061 13.542L121.228 13.6253L121.272 15.1247L124.105 15.0413L124.061 13.542ZM118.395 13.7087L115.561 13.792L115.605 15.2913L118.439 15.208L118.395 13.7087ZM112.728 13.8753L109.895 13.9587L109.939 15.458L112.772 15.3747L112.728 13.8753ZM107.061 14.042L104.228 14.1253L104.272 15.6247L107.105 15.5413L107.061 14.042ZM101.395 14.2087L99.978 14.2503L100.022 15.7497L101.439 15.708L101.395 14.2087ZM98.9086 13.971C98.3403 14.5737 98.3682 15.5231 98.971 16.0914L108.793 25.3526C109.396 25.9209 110.346 25.8929 110.914 25.2902C111.482 24.6874 111.454 23.7381 110.851 23.1698L102.12 14.9376L110.353 6.20656C110.921 5.60381 110.893 4.65447 110.29 4.08616C109.687 3.51785 108.738 3.54577 108.17 4.14852L98.9086 13.971ZM133.956 12.5006L132.539 12.5423L132.627 15.541L134.044 15.4994L133.956 12.5006ZM129.706 12.6256L126.873 12.709L126.961 15.7077L129.794 15.6244L129.706 12.6256ZM124.039 12.7923L121.206 12.8756L121.294 15.8744L124.127 15.791L124.039 12.7923ZM118.373 12.959L115.539 13.0423L115.627 16.041L118.461 15.9577L118.373 12.959ZM112.706 13.1256L109.873 13.209L109.961 16.2077L112.794 16.1244L112.706 13.1256ZM107.039 13.2923L104.206 13.3756L104.294 16.3744L107.127 16.291L107.039 13.2923ZM101.373 13.459L99.9559 13.5006L100.044 16.4994L101.461 16.4577L101.373 13.459Z" fill="black"/>
<path d="M218.53 14.5303C218.823 14.2374 218.823 13.7626 218.53 13.4697L213.757 8.6967C213.464 8.40381 212.99 8.40381 212.697 8.6967C212.404 8.98959 212.404 9.46447 212.697 9.75736L216.939 14L212.697 18.2426C212.404 18.5355 212.404 19.0104 212.697 19.3033C212.99 19.5962 213.464 19.5962 213.757 19.3033L218.53 14.5303ZM180 14.75L181.583 14.75L181.583 13.25L180 13.25L180 14.75ZM184.75 14.75L187.917 14.75L187.917 13.25L184.75 13.25L184.75 14.75ZM191.083 14.75L194.25 14.75L194.25 13.25L191.083 13.25L191.083 14.75ZM197.417 14.75L200.583 14.75L200.583 13.25L197.417 13.25L197.417 14.75ZM203.75 14.75L206.917 14.75L206.917 13.25L203.75 13.25L203.75 14.75ZM210.083 14.75L213.25 14.75L213.25 13.25L210.083 13.25L210.083 14.75ZM216.417 14.75L218 14.75L218 13.25L216.417 13.25L216.417 14.75ZM219.061 15.0607C219.646 14.4749 219.646 13.5251 219.061 12.9393L209.515 3.3934C208.929 2.80761 207.979 2.80761 207.393 3.3934C206.808 3.97919 206.808 4.92893 207.393 5.51472L215.879 14L207.393 22.4853C206.808 23.0711 206.808 24.0208 207.393 24.6066C207.979 25.1924 208.929 25.1924 209.515 24.6066L219.061 15.0607ZM180 15.5L181.583 15.5L181.583 12.5L180 12.5L180 15.5ZM184.75 15.5L187.917 15.5L187.917 12.5L184.75 12.5L184.75 15.5ZM191.083 15.5L194.25 15.5L194.25 12.5L191.083 12.5L191.083 15.5ZM197.417 15.5L200.583 15.5L200.583 12.5L197.417 12.5L197.417 15.5ZM203.75 15.5L206.917 15.5L206.917 12.5L203.75 12.5L203.75 15.5ZM210.083 15.5L213.25 15.5L213.25 12.5L210.083 12.5L210.083 15.5ZM216.417 15.5L218 15.5L218 12.5L216.417 12.5L216.417 15.5Z" fill="black"/>
<path d="M158.121 23L164.681 26.5786L171.242 30.1569L164.681 34.2358L158.181 37.7358L151.561 33.7358L145 30L151.561 26.5786L158.121 23Z" fill="#FFF7B2" stroke="#1A1A18" stroke-width="0.288" stroke-miterlimit="22.9256"/>
<path d="M145.54 44.6996L145.361 37.468L145.181 30.2358L151.681 33.7358L158.181 37.7358V44.7358V52.2358L151.861 48.4677L145.54 44.6996Z" fill="#FFF7B2" stroke="#1A1A18" stroke-width="0.288" stroke-miterlimit="22.9256"/>
<path d="M158.181 37.7358L164.861 34.0039L171.181 30.2358L171.002 37.4681L170.822 44.7001L164.502 48.4677L158.181 52.2358V45.2358V37.7358Z" fill="#FFF7B2" stroke="#1A1A18" stroke-width="0.288" stroke-miterlimit="22.9256"/>
</g>
<defs>
<clipPath id="clip0_2_22765">
<rect width="1122.52" height="1587.4" fill="white" transform="translate(-101 -826)"/>
</clipPath>
</defs>
</svg>
