<svg width="61" height="58" viewBox="0 0 61 58" fill="none" xmlns="http://www.w3.org/2000/svg">
<g clip-path="url(#clip0_2_22765)">
<path d="M32 3C46.3594 3 58 14.6407 58 29C58 43.3594 46.3594 55 32 55C17.6406 55 6 43.3594 6 29C6 14.6407 17.6406 3 32 3Z" stroke="#E3000F" stroke-width="2.6664" stroke-miterlimit="22.9256" stroke-dasharray="13.33 13.33"/>
<path d="M14.1254 39.235L13.5974 37.459L18.4534 33.523C20.8534 31.595 22.0534 29.2589 22.0534 26.515C22.0534 25.507 21.6931 24.6033 20.9814 23.7953C20.2614 22.9872 19.4213 22.579 18.4534 22.579H18.2534C17.1014 22.619 16.1735 23.1311 15.4694 24.1232C14.7732 25.115 14.2774 26.1632 14.0053 27.2592C13.7334 28.3469 13.5974 29.059 13.5974 29.387L12.1574 28.195C12.1574 27.955 12.4854 27.0751 13.1332 25.555C13.7894 24.0272 14.6454 22.6353 15.7094 21.3632C16.7654 20.0913 17.9734 19.4594 19.3174 19.4594C20.4054 19.4594 21.3654 19.7153 22.2132 20.219C23.0534 20.7233 23.7254 21.4111 24.2293 22.283C24.7254 23.1633 25.0214 24.1233 25.1174 25.171C25.1174 26.4753 24.7254 27.7793 23.9491 29.099C23.1652 30.4109 22.3012 31.555 21.3654 32.5391C20.4214 33.515 19.9012 34.003 19.7894 34.003C19.8854 33.995 20.0453 33.9712 20.2774 33.947C20.5014 33.9232 20.7733 33.9149 21.0854 33.9149C22.3814 33.9149 23.5334 34.2988 24.5251 35.0752C25.5173 35.8428 26.0374 37.2991 26.0774 39.4349C26.0774 41.7551 25.4692 43.9231 24.2454 45.9307C23.0292 47.9308 21.4134 49.5229 19.4054 50.707C17.3974 51.8907 15.3012 52.483 13.1174 52.483C12.4212 52.483 11.8055 52.435 11.2854 52.339C10.7574 52.243 10.5174 52.187 10.5734 52.187V50.419C11.2295 50.8351 12.1415 51.043 13.3174 51.043C14.6855 51.043 16.0692 50.6749 17.4612 49.931C18.8532 49.1869 20.0053 48.107 20.9173 46.6909C21.8293 45.275 22.2854 43.603 22.2854 41.683C22.2854 40.3151 22.0612 39.2191 21.6134 38.4031C21.1734 37.5791 20.1814 37.1072 18.6374 36.979C17.9893 36.979 17.3255 37.1472 16.6535 37.4749C15.9732 37.8029 15.3814 38.1631 14.8775 38.555C14.3734 38.947 14.1254 39.1711 14.1254 39.235Z" fill="#1A1A18"/>
<path fill-rule="evenodd" clip-rule="evenodd" d="M40.2839 15.4206L37.0599 26.8529L26.4441 26.2738L35.5209 33.1163L31.7305 43.835L40.5643 36.6317L48.8374 43.835L45.2203 32.5407L54.1238 26.2738L43.0544 26.4972L40.2839 15.4206Z" fill="#D9DADA"/>
<path d="M40.2839 15.4206L37.0599 26.8529L26.4441 26.2738L35.5209 33.1163L31.7305 43.835L40.5643 36.6317L48.8374 43.835L45.2203 32.5407L54.1238 26.2738L43.0544 26.4972L40.2839 15.4206Z" stroke="#1A1A18" stroke-width="0.288" stroke-miterlimit="22.9256"/>
</g>
<defs>
<clipPath id="clip0_2_22765">
<rect width="1122.52" height="1587.4" fill="white" transform="translate(-350 -830)"/>
</clipPath>
</defs>
</svg>
