<svg width="116" height="58" viewBox="0 0 116 58" fill="none" xmlns="http://www.w3.org/2000/svg">
<g clip-path="url(#clip0_2_22765)">
<path d="M86 4C100.359 4 112 15.6407 112 30C112 44.3594 100.359 56 86 56C71.6406 56 60 44.3594 60 30C60 15.6407 71.6406 4 86 4Z" stroke="#1A1A18" stroke-width="2.6664" stroke-miterlimit="22.9256" stroke-dasharray="13.33 13.33"/>
<path d="M9.73997 41.0431L11.1728 40.9116V41.6584C10.0846 41.5768 8.9969 41.534 7.90544 41.534C6.6181 41.534 5.4377 41.5909 4.36743 41.7046V40.8727H5.62598C6.17358 40.8727 6.5365 40.7483 6.71063 40.4959C6.8849 40.2469 6.96997 39.8311 6.96997 39.2512V32.7875V31.7848C6.96997 30.4975 6.77118 29.7794 6.37278 29.63C6.14532 29.5198 5.78238 29.4631 5.28131 29.4631H4.36743V28.67C5.50156 28.7305 6.9737 28.7872 8.77997 28.8406C10.593 28.7911 12.0757 28.734 13.2205 28.67L13.2421 31.614L12.4953 31.6567L12.4525 30.8709C12.4136 30.0708 11.8732 29.6729 10.8277 29.6729H8.41718V34.6649L11.2972 34.6221C11.6384 34.5971 11.8981 34.519 12.0685 34.3909C12.236 34.2593 12.321 34.0318 12.321 33.7048V33.1288H13.0501C13.0501 33.6228 13.0357 34.0068 13.0074 34.2769C13.0678 35.6104 13.1245 36.5849 13.1782 37.2035H12.3637V36.2042C12.3637 35.7031 12.0368 35.454 11.386 35.454L8.4633 35.4112V38.8673C8.4633 39.3722 8.5593 39.8594 8.7513 40.3322C8.93984 40.805 9.2705 41.0431 9.73997 41.0431Z" fill="#1A1A18"/>
<path d="M17.7221 34.8392C17.8146 34.8497 17.9568 34.8641 18.1454 34.8781C18.3302 34.8923 18.4689 34.9064 18.5544 34.9208C19.1837 34.9064 19.7313 34.7998 20.2004 34.5971C20.6697 34.3981 21.0327 34.1066 21.2851 33.7298C21.5409 33.3491 21.669 32.9012 21.669 32.3858C21.669 32.0512 21.587 31.6711 21.42 31.2443C21.2529 30.8177 20.9649 30.4409 20.5597 30.1173C20.1542 29.7938 19.6209 29.6301 18.9633 29.6301C18.7997 29.6301 18.5437 29.6372 18.2021 29.6512C17.8574 29.6656 17.6976 29.6729 17.7221 29.6729V34.8392ZM19.3008 35.4967H17.6797V39.1232C17.6797 39.6992 17.7897 40.1369 18.0067 40.4354C18.2237 40.7341 18.6255 40.8939 19.2157 40.9154H19.9622V41.7473C18.828 41.6335 17.9712 41.5769 17.3846 41.5769C17.0682 41.5769 16.716 41.5874 16.332 41.6123C15.9447 41.6335 15.4785 41.669 14.9313 41.7151C14.387 41.7617 14.0779 41.7866 14.0103 41.7901V41.047H15.2084C15.5856 41.047 15.8486 40.9117 15.9906 40.6486C16.1366 40.3821 16.2077 39.9589 16.2077 39.3794V38.9101V32.6594C16.2077 31.024 16.044 30.0569 15.717 29.7617C15.6317 29.6445 15.4185 29.5874 15.0768 29.5874H14.1596V28.7982C14.4691 28.8338 14.7748 28.855 15.0768 28.8655C15.3792 28.8765 15.6956 28.8872 16.0228 28.8905C16.3497 28.8977 16.6128 28.901 16.8048 28.9049C17.772 28.9049 18.5616 28.8693 19.1765 28.7982C19.4006 28.7696 19.5854 28.7556 19.7276 28.7556C20.3285 28.7556 20.8901 28.8905 21.4128 29.1573C21.9356 29.4275 22.3517 29.8006 22.6575 30.2771C22.9665 30.7571 23.1197 31.2872 23.1197 31.8702C23.1197 32.6061 22.9416 33.2426 22.5897 33.7832C22.2379 34.3236 21.7224 34.7287 21.0504 35.0023C22.5081 37.9429 24.357 40.5953 26.6006 42.9632L25.9569 43.326C25.3026 42.796 24.6518 42.1952 24.0086 41.5232C23.3684 40.855 22.7462 40.1474 22.149 39.4078C21.5481 38.6681 21.036 37.9999 20.6093 37.4023C20.1792 36.8051 19.7453 36.1687 19.3008 35.4967Z" fill="#1A1A18"/>
<path d="M26.5078 29.5446V28.7555C27.8129 28.83 29.3134 28.8799 31.0058 28.9048C32.7089 28.8799 34.2234 28.83 35.5534 28.7555L35.7026 31.6993L34.9525 31.742L34.8704 30.9491C34.8316 30.494 34.6716 30.1778 34.3904 30.0107C34.1096 29.8432 33.7294 29.7581 33.2455 29.7581H30.4582V34.7499L33.6334 34.6648C33.9886 34.636 34.2555 34.5721 34.4331 34.4728C34.6111 34.3696 34.7 34.1454 34.7 33.7898V33.2104H35.4218C35.4218 33.7936 35.4076 34.252 35.3792 34.5828C35.4286 35.5288 35.4714 36.3323 35.5106 36.99H34.7389V36.2434C34.7389 35.749 34.4154 35.5 33.7611 35.5L30.5398 35.4112V38.8711C30.5398 39.2973 30.5686 39.6424 30.6218 39.9092C30.6785 40.1758 30.8066 40.3892 31.0021 40.549C31.2013 40.7089 31.4926 40.7872 31.8838 40.7872H34.0778C34.796 40.7872 35.2794 40.5453 35.5355 40.0653C35.7877 39.5853 35.9302 39.006 35.9585 38.334H36.7443L36.3392 41.79C34.3194 41.6761 32.8189 41.6191 31.8377 41.6191C30.2768 41.6191 28.4989 41.6905 26.5078 41.8326V41.0008H27.7453C28.2891 41.0008 28.6519 40.8726 28.8262 40.6129C29.0005 40.3533 29.0893 39.9448 29.0893 39.3794V32.8725C29.0893 32.0157 29.0537 31.3226 28.9861 30.7964C28.915 30.27 28.7514 29.9109 28.4921 29.7155C28.3996 29.6017 28.0726 29.5446 27.5105 29.5446H26.5078Z" fill="#1A1A18"/>
<path d="M37.5195 29.5446V28.7555C38.8246 28.83 40.325 28.8799 42.0175 28.9048C43.7206 28.8799 45.235 28.83 46.565 28.7555L46.7143 31.6993L45.9641 31.742L45.8821 30.9491C45.8431 30.494 45.6833 30.1778 45.4021 30.0107C45.1213 29.8432 44.741 29.7581 44.2573 29.7581H41.4698V34.7499L44.645 34.6648C45.0003 34.636 45.2671 34.5721 45.4447 34.4728C45.6227 34.3696 45.7115 34.1454 45.7115 33.7898V33.2104H46.4335C46.4335 33.7936 46.4191 34.252 46.3907 34.5828C46.4403 35.5288 46.483 36.3323 46.5223 36.99H45.7505V36.2434C45.7505 35.749 45.427 35.5 44.7727 35.5L41.5515 35.4112V38.8711C41.5515 39.2973 41.5802 39.6424 41.6335 39.9092C41.6902 40.1758 41.8183 40.3892 42.0137 40.549C42.2129 40.7089 42.5043 40.7872 42.8955 40.7872H45.0895C45.8075 40.7872 46.291 40.5453 46.5473 40.0653C46.7994 39.5853 46.9418 39.006 46.9702 38.334H47.7559L47.3507 41.79C45.331 41.6761 43.8305 41.6191 42.8494 41.6191C41.2885 41.6191 39.5105 41.6905 37.5195 41.8326V41.0008H38.7569C39.3007 41.0008 39.6635 40.8726 39.8378 40.6129C40.0121 40.3533 40.1009 39.9448 40.1009 39.3794V32.8725C40.1009 32.0157 40.0654 31.3226 39.9977 30.7964C39.9266 30.27 39.763 29.9109 39.5037 29.7155C39.4111 29.6017 39.0842 29.5446 38.5222 29.5446H37.5195Z" fill="#1A1A18"/>
<path fill-rule="evenodd" clip-rule="evenodd" d="M87.1105 41.7299C95.5963 41.7299 102.475 43.163 102.475 44.931C102.475 46.6988 95.5963 48.132 87.1105 48.132C78.6247 48.132 71.7456 46.6988 71.7456 44.931C71.7456 43.163 78.6247 41.7299 87.1105 41.7299Z" fill="#D9DADA"/>
<path d="M87.1105 41.7299C95.5963 41.7299 102.475 43.163 102.475 44.931C102.475 46.6988 95.5963 48.132 87.1105 48.132C78.6247 48.132 71.7456 46.6988 71.7456 44.931C71.7456 43.163 78.6247 41.7299 87.1105 41.7299Z" stroke="#1A1A18" stroke-width="0.288" stroke-miterlimit="22.9256"/>
<path fill-rule="evenodd" clip-rule="evenodd" d="M71.4253 23.0227H102.206V45.5706H71.4253V23.0227Z" fill="#D9DADA"/>
<path fill-rule="evenodd" clip-rule="evenodd" d="M86.8162 19.6639C95.3021 19.6639 102.181 21.0971 102.181 22.8651C102.181 24.6328 95.3021 26.066 86.8162 26.066C78.3305 26.066 71.4517 24.6328 71.4517 22.8651C71.4517 21.0971 78.3305 19.6639 86.8162 19.6639Z" fill="#D9DADA"/>
<path d="M86.8162 19.6639C95.3021 19.6639 102.181 21.0971 102.181 22.8651C102.181 24.6328 95.3021 26.066 86.8162 26.066C78.3305 26.066 71.4517 24.6328 71.4517 22.8651C71.4517 21.0971 78.3305 19.6639 86.8162 19.6639Z" stroke="#1A1A18" stroke-width="0.288" stroke-miterlimit="22.9256"/>
</g>
<defs>
<clipPath id="clip0_2_22765">
<rect width="1122.52" height="1587.4" fill="white" transform="translate(-249 -243)"/>
</clipPath>
</defs>
</svg>
