<svg width="141" height="58" viewBox="0 0 141 58" fill="none" xmlns="http://www.w3.org/2000/svg">
<g clip-path="url(#clip0_2_22765)">
<path d="M113 3C127.359 3 139 14.6407 139 29C139 43.3594 127.359 55 113 55C98.6406 55 87 43.3594 87 29C87 14.6407 98.6406 3 113 3Z" stroke="#1A1A18" stroke-width="2.6664" stroke-miterlimit="22.9256" stroke-dasharray="13.33 13.33"/>
<path fill-rule="evenodd" clip-rule="evenodd" d="M123.596 39.4104C132.081 39.4104 138.961 40.8437 138.961 42.6117C138.961 44.3794 132.081 45.8126 123.596 45.8126C115.11 45.8126 108.231 44.3794 108.231 42.6117C108.231 40.8437 115.11 39.4104 123.596 39.4104Z" fill="#D9DADA"/>
<path d="M123.596 39.4104C132.081 39.4104 138.961 40.8437 138.961 42.6117C138.961 44.3794 132.081 45.8126 123.596 45.8126C115.11 45.8126 108.231 44.3794 108.231 42.6117C108.231 40.8437 115.11 39.4104 123.596 39.4104Z" stroke="#1A1A18" stroke-width="0.288" stroke-miterlimit="22.9256"/>
<path fill-rule="evenodd" clip-rule="evenodd" d="M107.911 20.7032H138.692V43.2511H107.911V20.7032Z" fill="#D9DADA"/>
<path fill-rule="evenodd" clip-rule="evenodd" d="M123.302 17.3443C131.787 17.3443 138.667 18.7775 138.667 20.5457C138.667 22.3134 131.787 23.7466 123.302 23.7466C114.816 23.7466 107.937 22.3134 107.937 20.5457C107.937 18.7775 114.816 17.3443 123.302 17.3443Z" fill="#D9DADA"/>
<path d="M123.302 17.3443C131.787 17.3443 138.667 18.7775 138.667 20.5457C138.667 22.3134 131.787 23.7466 123.302 23.7466C114.816 23.7466 107.937 22.3134 107.937 20.5457C107.937 18.7775 114.816 17.3443 123.302 17.3443Z" stroke="#1A1A18" stroke-width="0.288" stroke-miterlimit="22.9256"/>
<path d="M93.8274 42.2605L108.075 43.7485L107.459 45.8125C104.211 45.6205 100.603 45.5166 96.6514 45.5166C92.0193 45.5166 88.4193 45.6844 85.8595 46.0045L85.5234 43.2685C86.0673 43.2685 86.4676 43.3007 86.7155 43.3645C87.0356 43.3007 87.4676 43.2685 88.0194 43.2685C89.4595 43.1165 90.8035 42.6044 92.0435 41.7404C93.2915 40.8764 94.3633 39.8045 95.2833 38.5244C96.1953 37.2446 96.8994 35.9087 97.3953 34.5245C97.8916 33.1325 98.1394 31.8925 98.1394 30.7885C98.1394 29.2847 97.7793 27.9965 97.0513 26.9005C96.3313 25.8128 95.3154 25.2685 94.0114 25.2685C92.6754 25.3645 91.6036 25.9008 90.7955 26.8767C89.9875 27.8605 89.5713 29.1966 89.5474 30.8846C89.5796 31.1408 89.5955 31.5248 89.5955 32.0285H88.2035C88.2035 29.1648 88.8196 26.7965 90.0513 24.9325C91.2754 23.0688 93.1633 22.0925 95.6914 22.0045C96.8113 22.0045 97.8193 22.2767 98.6992 22.8125C99.5716 23.3485 100.267 24.1085 100.771 25.0765C101.275 26.0528 101.547 27.1568 101.595 28.3885C101.595 29.8047 101.371 31.1245 100.931 32.3487C100.491 33.5804 99.8992 34.7324 99.1633 35.8205C98.4275 36.9166 97.5793 38.0044 96.6115 39.0925C95.6515 40.1806 94.7236 41.2367 93.8274 42.2605Z" fill="#1A1A18"/>
<path d="M12.6552 32.951L12.1272 31.1751L16.9831 27.2391C19.3831 25.3112 20.583 22.9751 20.583 20.2311C20.583 19.2231 20.2229 18.3195 19.5112 17.5114C18.7912 16.7034 17.9511 16.295 16.9831 16.295H16.7832C15.6312 16.3352 14.7033 16.8473 13.9992 17.8395C13.3029 18.8312 12.807 19.8792 12.5349 20.9753C12.2632 22.063 12.1272 22.7751 12.1272 23.1032L10.6872 21.9111C10.6872 21.6711 11.0152 20.7912 11.663 19.271C12.3192 17.7434 13.1752 16.3515 14.2392 15.0792C15.2952 13.8075 16.503 13.1755 17.847 13.1755C18.9352 13.1755 19.8952 13.4313 20.7429 13.9352C21.5832 14.4393 22.2552 15.1272 22.7589 15.9992C23.2552 16.8795 23.5512 17.8395 23.6472 18.8871C23.6472 20.1915 23.2552 21.4954 22.4789 22.8152C21.695 24.1271 20.831 25.2711 19.8952 26.2553C18.951 27.2312 18.4311 27.719 18.3192 27.719C18.4152 27.7112 18.575 27.6873 18.807 27.6632C19.0312 27.6393 19.3029 27.6311 19.6152 27.6311C20.9112 27.6311 22.0632 28.015 23.0549 28.7913C24.047 29.559 24.567 31.0152 24.6072 33.1511C24.6072 35.4713 23.999 37.6392 22.7752 39.6469C21.5589 41.6471 19.9432 43.2391 17.9352 44.4231C15.927 45.6069 13.8309 46.1991 11.6472 46.1991C10.9509 46.1991 10.3353 46.1511 9.81516 46.0551C9.28716 45.9591 9.04717 45.9032 9.10317 45.9032V44.1351C9.7593 44.5512 10.6713 44.7591 11.847 44.7591C13.2153 44.7591 14.5989 44.391 15.9909 43.6472C17.3829 42.903 18.5349 41.8232 19.4469 40.407C20.3589 38.9912 20.8152 37.319 20.8152 35.399C20.8152 34.0313 20.591 32.9352 20.1432 32.1192C19.7032 31.2953 18.711 30.8232 17.1672 30.695C16.5189 30.695 15.8553 30.8633 15.1833 31.191C14.5029 31.519 13.911 31.8792 13.4073 32.2712C12.903 32.6631 12.6552 32.8872 12.6552 32.951Z" fill="#1A1A18"/>
<path d="M44.1211 20L50.6815 23.5786L57.2424 27.1569L50.6814 31.2358L44.1814 34.7358L37.5605 30.7358L31 27L37.5605 23.5786L44.1211 20Z" fill="#D7B469" stroke="#1A1A18" stroke-width="0.288" stroke-miterlimit="22.9256"/>
<path d="M31.5404 41.6996L31.3606 34.468L31.1814 27.2358L37.6814 30.7358L44.1812 34.7358V41.7358V49.2358L37.8609 45.4677L31.5404 41.6996Z" fill="#D7B469" stroke="#1A1A18" stroke-width="0.288" stroke-miterlimit="22.9256"/>
<path d="M44.1814 34.7358L50.8609 31.0039L57.1814 27.2358L57.0018 34.4681L56.8224 41.7001L50.5019 45.4677L44.1814 49.2358V42.2358V34.7358Z" fill="#D7B469" stroke="#1A1A18" stroke-width="0.288" stroke-miterlimit="22.9256"/>
<path d="M86.0607 33.0607C86.6464 32.4749 86.6464 31.5251 86.0607 30.9393L76.5147 21.3934C75.9289 20.8076 74.9792 20.8076 74.3934 21.3934C73.8076 21.9792 73.8076 22.9289 74.3934 23.5147L82.8787 32L74.3934 40.4853C73.8076 41.0711 73.8076 42.0208 74.3934 42.6066C74.9792 43.1924 75.9289 43.1924 76.5147 42.6066L86.0607 33.0607ZM60 33.5H85V30.5H60V33.5Z" fill="black"/>
</g>
<defs>
<clipPath id="clip0_2_22765">
<rect width="1122.52" height="1587.4" fill="white" transform="translate(-477 -243)"/>
</clipPath>
</defs>
</svg>
