<svg width="143" height="58" viewBox="0 0 143 58" fill="none" xmlns="http://www.w3.org/2000/svg">
<g clip-path="url(#clip0_2_22765)">
<path d="M114 3C128.359 3 140 14.6407 140 29C140 43.3594 128.359 55 114 55C99.6406 55 88 43.3594 88 29C88 14.6407 99.6406 3 114 3Z" stroke="#1A1A18" stroke-width="2.6664" stroke-miterlimit="22.9256" stroke-dasharray="13.33 13.33"/>
<path d="M11.3585 29.7961L10.8305 28.0202L15.6864 24.0841C18.0864 22.1563 19.2864 19.8202 19.2864 17.0762C19.2864 16.0682 18.9263 15.1646 18.2145 14.3564C17.4945 13.5484 16.6544 13.1401 15.6864 13.1401H15.4866C14.3346 13.1803 13.4067 13.6924 12.7025 14.6846C12.0064 15.6763 11.5104 16.7243 11.2384 17.8205C10.9666 18.9082 10.8305 19.6202 10.8305 19.9483L9.39056 18.7562C9.39056 18.5162 9.71853 17.6363 10.3664 16.1161C11.0225 14.5885 11.8786 13.1966 12.9426 11.9243C13.9986 10.6526 15.2064 10.0206 16.5504 10.0206C17.6385 10.0206 18.5986 10.2764 19.4464 10.7803C20.2866 11.2844 20.9586 11.9723 21.4624 12.8443C21.9586 13.7246 22.2546 14.6846 22.3506 15.7322C22.3506 17.0366 21.9585 18.3405 21.1823 19.6603C20.3984 20.9722 19.5344 22.1162 18.5985 23.1004C17.6544 24.0763 17.1344 24.5642 17.0226 24.5642C17.1186 24.5563 17.2784 24.5324 17.5104 24.5083C17.7345 24.4844 18.0064 24.4762 18.3185 24.4762C19.6145 24.4762 20.7665 24.8602 21.7583 25.6365C22.7504 26.4041 23.2704 27.8603 23.3106 29.9962C23.3106 32.3164 22.7024 34.4843 21.4785 36.492C20.2624 38.4922 18.6465 40.084 16.6385 41.2681C14.6304 42.4519 12.5344 43.0442 10.3506 43.0442C9.65443 43.0442 9.03867 42.9961 8.51853 42.9001C7.99053 42.8041 7.75054 42.7483 7.80654 42.7483V40.9801C8.46267 41.3963 9.37466 41.6042 10.5504 41.6042C11.9187 41.6042 13.3024 41.236 14.6944 40.4923C16.0864 39.748 17.2384 38.6683 18.1504 37.252C19.0624 35.8363 19.5185 34.1641 19.5185 32.2441C19.5185 30.8764 19.2944 29.7803 18.8465 28.9643C18.4065 28.1404 17.4144 27.6683 15.8705 27.5402C15.2224 27.5402 14.5587 27.7085 13.8867 28.0361C13.2064 28.3642 12.6144 28.7243 12.1107 29.1163C11.6064 29.5082 11.3585 29.7323 11.3585 29.7961Z" fill="#1A1A18"/>
<path d="M90.8909 35.4849C90.8909 37.9887 91.3466 40.1728 92.2586 42.037C93.179 43.8927 94.5309 44.8448 96.3149 44.8928C98.3229 44.8928 99.6827 43.813 100.387 41.6447C101.099 39.4847 101.451 36.8367 101.451 33.7009C101.451 28.973 99.7387 26.6048 96.3149 26.6048C95.7309 26.6048 95.1069 26.7009 94.4429 26.9011L94.5467 25.4528C94.4746 25.4528 94.8348 25.3488 95.6266 25.141C96.4109 24.9331 97.1066 24.8289 97.7148 24.8289C99.2746 24.8289 100.595 25.2609 101.683 26.1332C102.763 27.005 103.571 28.1329 104.099 29.5169C104.627 30.901 104.915 32.3568 104.955 33.9008C104.955 35.9488 104.579 37.9249 103.827 39.8369C103.083 41.7569 101.987 43.3088 100.563 44.5008C99.1306 45.6928 97.4589 46.2849 95.5548 46.2849C93.7388 46.2849 92.219 45.829 90.9869 44.917C89.7468 44.005 88.8348 42.7967 88.235 41.3007C87.6348 39.8049 87.3389 38.1728 87.3389 36.3968C87.3389 35.7568 87.3547 35.2769 87.3869 34.9569C87.9549 30.173 89.1548 26.2689 90.9788 23.261C92.8028 20.2529 94.7709 18.0528 96.8909 16.645C99.0107 15.245 100.867 14.333 102.475 13.901C104.083 13.477 105.179 13.2691 105.779 13.2691L105.963 14.8931C105.426 14.8931 104.475 15.0851 103.107 15.4609C101.747 15.8449 100.171 16.7009 98.3708 18.029C96.5786 19.3651 94.9546 21.4609 93.4988 24.317C92.0429 27.1729 91.1709 30.901 90.8909 35.4849Z" fill="#1A1A18"/>
<path d="M41.1211 17L47.6815 20.5786L54.2424 24.1569L47.6814 28.2358L41.1814 31.7358L34.5605 27.7358L28 24L34.5605 20.5786L41.1211 17Z" fill="#D7B469" stroke="#1A1A18" stroke-width="0.288" stroke-miterlimit="22.9256"/>
<path d="M28.5404 38.6996L28.3606 31.468L28.1814 24.2358L34.6814 27.7358L41.1812 31.7358V38.7358V46.2358L34.8609 42.4677L28.5404 38.6996Z" fill="#D7B469" stroke="#1A1A18" stroke-width="0.288" stroke-miterlimit="22.9256"/>
<path d="M41.1814 31.7358L47.8609 28.0039L54.1814 24.2358L54.0018 31.4681L53.8224 38.7001L47.5019 42.4677L41.1814 46.2358V39.2358V31.7358Z" fill="#D7B469" stroke="#1A1A18" stroke-width="0.288" stroke-miterlimit="22.9256"/>
<path d="M83.0607 32.0607C83.6464 31.4749 83.6464 30.5251 83.0607 29.9393L73.5147 20.3934C72.9289 19.8076 71.9792 19.8076 71.3934 20.3934C70.8076 20.9792 70.8076 21.9289 71.3934 22.5147L79.8787 31L71.3934 39.4853C70.8076 40.0711 70.8076 41.0208 71.3934 41.6066C71.9792 42.1924 72.9289 42.1924 73.5147 41.6066L83.0607 32.0607ZM57 32.5H82V29.5H57V32.5Z" fill="black"/>
<path d="M123.121 14L129.681 17.5786L136.242 21.1569L129.681 25.2358L123.181 28.7358L116.561 24.7358L110 21L116.561 17.5786L123.121 14Z" fill="#D9DADA" stroke="#1A1A18" stroke-width="0.288" stroke-miterlimit="22.9256"/>
<path d="M110.54 35.6996L110.361 28.468L110.181 21.2358L116.681 24.7358L123.181 28.7358V35.7358V43.2358L116.861 39.4677L110.54 35.6996Z" fill="#D9DADA" stroke="#1A1A18" stroke-width="0.288" stroke-miterlimit="22.9256"/>
<path d="M123.181 28.7358L129.861 25.0039L136.181 21.2358L136.002 28.4681L135.822 35.7001L129.502 39.4677L123.181 43.2358V36.2358V28.7358Z" fill="#D9DADA" stroke="#1A1A18" stroke-width="0.288" stroke-miterlimit="22.9256"/>
</g>
<defs>
<clipPath id="clip0_2_22765">
<rect width="1122.52" height="1587.4" fill="white" transform="translate(-617 -330)"/>
</clipPath>
</defs>
</svg>
