<svg width="44" height="17" viewBox="0 0 44 17" fill="none" xmlns="http://www.w3.org/2000/svg">
<path d="M704.447 -37.4065V240.156H-27.5886V-37.4065H704.447Z" stroke="#1A1A18" stroke-width="2.6664" stroke-miterlimit="22.9256"/>
<path fill-rule="evenodd" clip-rule="evenodd" d="M21.8461 7.19031C33.4021 7.19031 42.7695 9.14218 42.7695 11.5496C42.7695 13.9572 33.4021 15.9086 21.8461 15.9086C10.2902 15.9086 0.922607 13.9572 0.922607 11.5496C0.922607 9.14218 10.2902 7.19031 21.8461 7.19031Z" fill="#D9DADA"/>
<path d="M21.8461 7.19031C33.4021 7.19031 42.7695 9.14217 42.7695 11.5496C42.7695 13.9572 33.4021 15.9086 21.8461 15.9086C10.2902 15.9086 0.922607 13.9572 0.922607 11.5496C0.922607 9.14217 10.2902 7.19031 21.8461 7.19031Z" stroke="#1A1A18" stroke-width="0.288" stroke-miterlimit="22.9256"/>
<path fill-rule="evenodd" clip-rule="evenodd" d="M0.486328 5.44613H42.4033V12.4204H0.486328V5.44613Z" fill="#D9DADA"/>
<path fill-rule="evenodd" clip-rule="evenodd" d="M22.0358 1.32971C33.5918 1.32971 42.9592 3.28117 42.9592 5.68864C42.9592 8.09624 33.5918 10.048 22.0358 10.048C10.4799 10.048 1.1123 8.09624 1.1123 5.68864C1.1123 3.28117 10.4799 1.32971 22.0358 1.32971Z" fill="#D9DADA"/>
<path d="M22.0358 1.32971C33.5918 1.32971 42.9592 3.28117 42.9592 5.68864C42.9592 8.09624 33.5918 10.048 22.0358 10.048C10.4799 10.048 1.1123 8.09624 1.1123 5.68864C1.1123 3.28117 10.4799 1.32971 22.0358 1.32971Z" stroke="#1A1A18" stroke-width="0.288" stroke-miterlimit="22.9256"/>
</svg>
