<svg width="96" height="48" viewBox="0 0 96 48" fill="none" xmlns="http://www.w3.org/2000/svg">
<path d="M0.409668 -0.0393081H96.4097V47.9607H0.409668V-0.0393081Z" stroke="#1A1A18" stroke-width="0.288" stroke-miterlimit="22.9256"/>
<path fill-rule="evenodd" clip-rule="evenodd" d="M15.0449 23.6956C15.0449 24.6466 15.3923 26.9688 17.1841 26.9688C18.2632 26.9688 18.4276 25.8901 18.4276 25.8901H28.4297V21.7942H18.4276C18.4276 21.7942 17.8973 20.5326 17.1293 20.5326C15.8858 20.5326 15.0449 22.0867 15.0449 23.6956Z" fill="white"/>
<path d="M15.0449 23.6956C15.0449 24.6466 15.3923 26.9688 17.1841 26.9688C18.2632 26.9688 18.4276 25.8901 18.4276 25.8901H28.4297V21.7942H18.4276C18.4276 21.7942 17.8973 20.5326 17.1293 20.5326C15.8858 20.5326 15.0449 22.0867 15.0449 23.6956Z" stroke="#1A1A18" stroke-width="1.248" stroke-miterlimit="22.9256"/>
<path fill-rule="evenodd" clip-rule="evenodd" d="M18.9949 23.6958C18.9949 25.4514 18.1354 26.896 17.0749 26.896C15.9958 26.896 15.1367 25.4514 15.1367 23.6958C15.1367 21.9221 15.9958 20.4961 17.0749 20.4961C18.1354 20.4961 18.9949 21.9221 18.9949 23.6958Z" fill="white"/>
<path d="M18.9949 23.6958C18.9949 25.4514 18.1354 26.896 17.0749 26.896C15.9958 26.896 15.1367 25.4514 15.1367 23.6958C15.1367 21.9221 15.9958 20.4961 17.0749 20.4961C18.1354 20.4961 18.9949 21.9221 18.9949 23.6958Z" stroke="#1A1A18" stroke-width="1.248" stroke-miterlimit="22.9256"/>
<path d="M18.9761 25.8901L20.8779 21.7943" stroke="#1A1A18" stroke-width="1.248" stroke-miterlimit="22.9256"/>
<path d="M20.5854 25.8901L22.4869 21.7943" stroke="#1A1A18" stroke-width="1.248" stroke-miterlimit="22.9256"/>
<path d="M22.0117 25.8901L23.9132 21.7943" stroke="#1A1A18" stroke-width="1.248" stroke-miterlimit="22.9256"/>
<path d="M23.4927 25.8901L25.3946 21.7943" stroke="#1A1A18" stroke-width="1.248" stroke-miterlimit="22.9256"/>
<path d="M24.9741 25.8901L26.876 21.7943" stroke="#1A1A18" stroke-width="1.248" stroke-miterlimit="22.9256"/>
<path d="M26.583 25.8901L28.4845 21.7943" stroke="#1A1A18" stroke-width="1.248" stroke-miterlimit="22.9256"/>
<path d="M18.9033 22.8547L19.4517 21.7942" stroke="#1A1A18" stroke-width="1.248" stroke-miterlimit="22.9256"/>
<path d="M18.5195 25.7439H28.4302" stroke="#1A1A18" stroke-width="1.248" stroke-miterlimit="22.9256"/>
<path fill-rule="evenodd" clip-rule="evenodd" d="M28.4663 24.1163L28.4297 21.9586C28.4297 21.9586 28.6126 19.472 28.96 18.2834C29.3258 17.0947 29.9109 14.8274 31.4102 14.8274C32.4708 14.8274 33.7323 15.0103 33.7323 16.3815C33.7323 17.625 32.8914 17.5702 32.416 17.625C31.9405 17.6798 31.7028 17.5702 31.7028 17.5702C31.7028 17.5702 31.2273 17.8079 31.2273 19.2891C31.2273 20.2397 31.1725 24.1163 31.1725 24.1163C31.1725 24.1163 31.2273 28.0845 31.2273 29.0535C31.2273 30.5343 31.7028 30.7721 31.7028 30.7721C31.7028 30.7721 31.9405 30.6444 32.416 30.7173C32.8914 30.7721 33.7323 30.7172 33.7323 31.9607C33.7323 33.3323 32.4708 33.5149 31.4102 33.5149C29.9109 33.5149 29.3258 31.2475 28.96 30.0592C28.6126 28.8706 28.4297 26.3656 28.4297 26.3656L28.4663 24.1163Z" fill="white"/>
<path d="M28.4663 24.1163L28.4297 21.9586C28.4297 21.9586 28.6126 19.472 28.96 18.2834C29.3258 17.0947 29.9109 14.8274 31.4102 14.8274C32.4708 14.8274 33.7323 15.0103 33.7323 16.3815C33.7323 17.625 32.8914 17.5702 32.416 17.625C31.9405 17.6798 31.7028 17.5702 31.7028 17.5702C31.7028 17.5702 31.2273 17.8079 31.2273 19.2891C31.2273 20.2397 31.1725 24.1163 31.1725 24.1163C31.1725 24.1163 31.2273 28.0845 31.2273 29.0535C31.2273 30.5343 31.7028 30.7721 31.7028 30.7721C31.7028 30.7721 31.9405 30.6444 32.416 30.7173C32.8914 30.7721 33.7323 30.7172 33.7323 31.9607C33.7323 33.3323 32.4708 33.5149 31.4102 33.5149C29.9109 33.5149 29.3258 31.2475 28.96 30.0592C28.6126 28.8706 28.4297 26.3656 28.4297 26.3656L28.4663 24.1163Z" stroke="#1A1A18" stroke-width="1.248" stroke-miterlimit="22.9256"/>
<path fill-rule="evenodd" clip-rule="evenodd" d="M31.1729 26.3108H79.2998C79.2998 26.3108 80.6347 26.2742 81.3479 23.842C81.3479 23.842 80.7629 21.5565 79.2998 21.6113C79.2631 21.6113 31.2277 21.6113 31.2277 21.6113L31.1729 26.3108Z" fill="white"/>
<path d="M31.1729 26.3108H79.2998C79.2998 26.3108 80.6347 26.2742 81.3479 23.842C81.3479 23.842 80.7629 21.5565 79.2998 21.6113C79.2631 21.6113 31.2277 21.6113 31.2277 21.6113L31.1729 26.3108Z" stroke="#1A1A18" stroke-width="0.864" stroke-miterlimit="22.9256"/>
<path d="M33.1655 23.842H81.3477" stroke="#1A1A18" stroke-width="0.384" stroke-miterlimit="22.9256"/>
<path d="M31.2277 21.6113L33.1658 23.842L31.1729 26.3108" stroke="#1A1A18" stroke-width="1.248" stroke-miterlimit="22.9256"/>
<path d="M37.387 18.2041L36.1977 18.1456V16.9561C37.4029 17.1107 38.7739 17.2067 40.3204 17.2441C41.9097 17.2067 43.3232 17.1107 44.5497 16.9561V18.2041H43.1418C42.4909 18.2041 42.0537 18.3481 41.83 18.6361C41.6059 18.9241 41.4777 19.4199 41.446 20.1294L40.9924 28.4493C40.9924 28.828 40.9765 29.1587 40.9338 29.4414C41.014 30.7374 41.4512 31.3826 42.2457 31.3826H44.011V32.5081C42.5922 32.3799 41.1311 32.3161 39.622 32.3161C38.134 32.3161 36.6512 32.3799 35.1738 32.5081V31.324H36.742C37.2484 31.324 37.627 31.2866 37.867 31.2121C38.1124 31.1373 38.3097 30.9506 38.4642 30.6361C38.614 30.3266 38.7152 29.8096 38.758 29.0896L39.3018 20.188C39.3018 19.3773 39.1684 18.8493 38.9072 18.615C38.6404 18.375 38.134 18.2362 37.387 18.2041Z" fill="#1A1A18"/>
<path d="M45.9258 24.1882C45.9579 23.1266 46.171 22.1027 46.5656 21.1269C46.9606 20.1453 47.5098 19.2813 48.2139 18.5295C48.9123 17.7827 49.7388 17.1909 50.6936 16.7641C51.643 16.3374 52.6722 16.1242 53.7708 16.1242C55.2858 16.1242 56.6456 16.4868 57.8456 17.2173C59.0456 17.9482 59.9844 18.9294 60.6564 20.1615C61.3284 21.3986 61.675 22.7426 61.7015 24.1882C61.7015 25.724 61.3818 27.1374 60.7415 28.4176C60.1068 29.6973 59.1896 30.716 57.9948 31.4733C56.8055 32.2254 55.4135 32.6148 53.8295 32.636C52.2828 32.636 50.9071 32.2466 49.7071 31.4733C48.5019 30.6948 47.5736 29.6599 46.9126 28.3695C46.2564 27.0789 45.9258 25.6816 45.9258 24.1882ZM48.4539 24.1293C48.4539 25.2654 48.6564 26.3799 49.0616 27.4575C49.4671 28.5399 50.059 29.4255 50.8376 30.1239C51.6162 30.8171 52.5282 31.1748 53.5736 31.196C53.7018 31.1532 53.8188 31.132 53.9255 31.132C54.955 31.036 55.8243 30.8013 56.5284 30.428C57.2322 30.0549 57.7818 29.5801 58.1763 29.0041C58.5708 28.4281 58.8536 27.7827 59.0297 27.0627C59.2001 26.3373 59.2908 25.5319 59.3015 24.6361C59.3015 22.6893 58.8162 21.052 57.8403 19.7296C56.8644 18.4014 55.4829 17.7241 53.6964 17.692C52.5228 17.692 51.547 17.9853 50.779 18.5776C50.011 19.1694 49.4403 19.9533 49.0721 20.9295C48.6991 21.9054 48.4962 22.972 48.4539 24.1293Z" fill="#1A1A18"/>
</svg>
