<svg width="96" height="48" viewBox="0 0 96 48" fill="none" xmlns="http://www.w3.org/2000/svg">
<path d="M0.409668 -0.0393081H96.4097V47.9607H0.409668V-0.0393081Z" stroke="#1A1A18" stroke-width="0.288" stroke-miterlimit="22.9256"/>
<path fill-rule="evenodd" clip-rule="evenodd" d="M15.0449 23.6956C15.0449 24.6466 15.3923 26.9688 17.1841 26.9688C18.2632 26.9688 18.4276 25.8901 18.4276 25.8901H28.4297V21.7942H18.4276C18.4276 21.7942 17.8973 20.5326 17.1293 20.5326C15.8858 20.5326 15.0449 22.0867 15.0449 23.6956Z" fill="white"/>
<path d="M15.0449 23.6956C15.0449 24.6466 15.3923 26.9688 17.1841 26.9688C18.2632 26.9688 18.4276 25.8901 18.4276 25.8901H28.4297V21.7942H18.4276C18.4276 21.7942 17.8973 20.5326 17.1293 20.5326C15.8858 20.5326 15.0449 22.0867 15.0449 23.6956Z" stroke="#1A1A18" stroke-width="1.248" stroke-miterlimit="22.9256"/>
<path fill-rule="evenodd" clip-rule="evenodd" d="M18.9949 23.6958C18.9949 25.4514 18.1354 26.896 17.0749 26.896C15.9958 26.896 15.1367 25.4514 15.1367 23.6958C15.1367 21.9221 15.9958 20.4961 17.0749 20.4961C18.1354 20.4961 18.9949 21.9221 18.9949 23.6958Z" fill="white"/>
<path d="M18.9949 23.6958C18.9949 25.4514 18.1354 26.896 17.0749 26.896C15.9958 26.896 15.1367 25.4514 15.1367 23.6958C15.1367 21.9221 15.9958 20.4961 17.0749 20.4961C18.1354 20.4961 18.9949 21.9221 18.9949 23.6958Z" stroke="#1A1A18" stroke-width="1.248" stroke-miterlimit="22.9256"/>
<path d="M18.9761 25.8901L20.8779 21.7943" stroke="#1A1A18" stroke-width="1.248" stroke-miterlimit="22.9256"/>
<path d="M20.5854 25.8901L22.4869 21.7943" stroke="#1A1A18" stroke-width="1.248" stroke-miterlimit="22.9256"/>
<path d="M22.0117 25.8901L23.9132 21.7943" stroke="#1A1A18" stroke-width="1.248" stroke-miterlimit="22.9256"/>
<path d="M23.4927 25.8901L25.3946 21.7943" stroke="#1A1A18" stroke-width="1.248" stroke-miterlimit="22.9256"/>
<path d="M24.9741 25.8901L26.876 21.7943" stroke="#1A1A18" stroke-width="1.248" stroke-miterlimit="22.9256"/>
<path d="M26.5835 25.8901L28.485 21.7943" stroke="#1A1A18" stroke-width="1.248" stroke-miterlimit="22.9256"/>
<path d="M18.9033 22.8547L19.4517 21.7942" stroke="#1A1A18" stroke-width="1.248" stroke-miterlimit="22.9256"/>
<path d="M18.5195 25.7439H28.4302" stroke="#1A1A18" stroke-width="1.248" stroke-miterlimit="22.9256"/>
<path fill-rule="evenodd" clip-rule="evenodd" d="M28.4668 24.1163L28.4302 21.9586C28.4302 21.9586 28.6131 19.472 28.9604 18.2834C29.3263 17.0947 29.9114 14.8274 31.4107 14.8274C32.4713 14.8274 33.7328 15.0103 33.7328 16.3815C33.7328 17.625 32.8919 17.5702 32.4165 17.625C31.941 17.6798 31.7032 17.5702 31.7032 17.5702C31.7032 17.5702 31.2278 17.8079 31.2278 19.2891C31.2278 20.2397 31.173 24.1163 31.173 24.1163C31.173 24.1163 31.2278 28.0845 31.2278 29.0535C31.2278 30.5343 31.7032 30.7721 31.7032 30.7721C31.7032 30.7721 31.941 30.6444 32.4165 30.7173C32.8919 30.7721 33.7328 30.7172 33.7328 31.9607C33.7328 33.3323 32.4713 33.5149 31.4107 33.5149C29.9114 33.5149 29.3263 31.2475 28.9604 30.0592C28.6131 28.8706 28.4302 26.3656 28.4302 26.3656L28.4668 24.1163Z" fill="white"/>
<path d="M28.4668 24.1163L28.4302 21.9586C28.4302 21.9586 28.6131 19.472 28.9604 18.2834C29.3263 17.0947 29.9114 14.8274 31.4107 14.8274C32.4713 14.8274 33.7328 15.0103 33.7328 16.3815C33.7328 17.625 32.8919 17.5702 32.4165 17.625C31.941 17.6798 31.7032 17.5702 31.7032 17.5702C31.7032 17.5702 31.2278 17.8079 31.2278 19.2891C31.2278 20.2397 31.173 24.1163 31.173 24.1163C31.173 24.1163 31.2278 28.0845 31.2278 29.0535C31.2278 30.5343 31.7032 30.7721 31.7032 30.7721C31.7032 30.7721 31.941 30.6444 32.4165 30.7173C32.8919 30.7721 33.7328 30.7172 33.7328 31.9607C33.7328 33.3323 32.4713 33.5149 31.4107 33.5149C29.9114 33.5149 29.3263 31.2475 28.9604 30.0592C28.6131 28.8706 28.4302 26.3656 28.4302 26.3656L28.4668 24.1163Z" stroke="#1A1A18" stroke-width="1.248" stroke-miterlimit="22.9256"/>
<path fill-rule="evenodd" clip-rule="evenodd" d="M31.1729 26.3108H79.2998C79.2998 26.3108 80.6347 26.2742 81.3479 23.842C81.3479 23.842 80.7629 21.5565 79.2998 21.6113C79.2631 21.6113 31.2277 21.6113 31.2277 21.6113L31.1729 26.3108Z" fill="white"/>
<path d="M31.1729 26.3108H79.2998C79.2998 26.3108 80.6347 26.2742 81.3479 23.842C81.3479 23.842 80.7629 21.5565 79.2998 21.6113C79.2631 21.6113 31.2277 21.6113 31.2277 21.6113L31.1729 26.3108Z" stroke="#1A1A18" stroke-width="0.864" stroke-miterlimit="22.9256"/>
<path d="M33.1655 23.842H81.3477" stroke="#1A1A18" stroke-width="0.384" stroke-miterlimit="22.9256"/>
<path d="M31.2277 21.6113L33.1658 23.842L31.1729 26.3108" stroke="#1A1A18" stroke-width="1.248" stroke-miterlimit="22.9256"/>
<path d="M37.387 18.2041L36.1977 18.1456V16.9561C37.4029 17.1107 38.7739 17.2067 40.3204 17.2441C41.9097 17.2067 43.3232 17.1107 44.5497 16.9561V18.2041H43.1418C42.4909 18.2041 42.0537 18.3481 41.83 18.6361C41.6059 18.9241 41.4777 19.4199 41.446 20.1294L40.9924 28.4493C40.9924 28.828 40.9765 29.1587 40.9338 29.4414C41.014 30.7374 41.4512 31.3826 42.2457 31.3826H44.011V32.5081C42.5922 32.3799 41.1311 32.3161 39.622 32.3161C38.134 32.3161 36.6512 32.3799 35.1738 32.5081V31.324H36.742C37.2484 31.324 37.627 31.2866 37.867 31.2121C38.1124 31.1373 38.3097 30.9506 38.4642 30.6361C38.614 30.3266 38.7152 29.8096 38.758 29.0896L39.3018 20.188C39.3018 19.3773 39.1684 18.8493 38.9072 18.615C38.6404 18.375 38.134 18.2362 37.387 18.2041Z" fill="#1A1A18"/>
<path d="M51.4352 30.2039L60.9336 31.1958L60.523 32.5718C58.3578 32.4438 55.9525 32.3746 53.3178 32.3746C50.23 32.3746 47.83 32.4865 46.123 32.7L45.8989 30.8759C46.2619 30.8759 46.5286 30.8971 46.6938 30.9398C46.9069 30.8971 47.1949 30.8759 47.563 30.8759C48.523 30.7747 49.4192 30.433 50.2458 29.8574C51.0777 29.2814 51.7924 28.5668 52.4058 27.7133C53.014 26.8598 53.4829 25.9694 53.8137 25.0465C54.1444 24.1186 54.3096 23.2919 54.3096 22.5561C54.3096 21.5534 54.0696 20.6947 53.5842 19.964C53.1042 19.2384 52.4269 18.8759 51.5577 18.8759C50.6672 18.9398 49.9525 19.2974 49.414 19.9478C48.8749 20.604 48.598 21.4945 48.5817 22.62C48.6032 22.7905 48.6139 23.0467 48.6139 23.3827H47.686C47.686 21.4733 48.0964 19.8946 48.9177 18.6518C49.7337 17.4091 50.9922 16.7587 52.678 16.7C53.4244 16.7 54.0964 16.8812 54.6829 17.2388C55.2642 17.5958 55.7284 18.1027 56.0644 18.7478C56.4004 19.3987 56.5818 20.1346 56.6136 20.9558C56.6136 21.8999 56.4642 22.7798 56.1709 23.5958C55.8777 24.4171 55.483 25.1851 54.9925 25.9105C54.5016 26.6414 53.9365 27.3668 53.2909 28.092C52.651 28.8173 52.0324 29.5214 51.4352 30.2039Z" fill="#1A1A18"/>
</svg>
