<svg width="96" height="48" viewBox="0 0 96 48" fill="none" xmlns="http://www.w3.org/2000/svg">
<path d="M0.409668 -0.0393081H96.4097V47.9607H0.409668V-0.0393081Z" stroke="#1A1A18" stroke-width="0.288" stroke-miterlimit="22.9256"/>
<path fill-rule="evenodd" clip-rule="evenodd" d="M15.0449 24.3067C15.0449 25.2577 15.3923 27.5798 17.1841 27.5798C18.2632 27.5798 18.4276 26.5011 18.4276 26.5011H28.4297V22.4053H18.4276C18.4276 22.4053 17.8973 21.1436 17.1293 21.1436C15.8858 21.1436 15.0449 22.6978 15.0449 24.3067Z" fill="white"/>
<path d="M15.0449 24.3067C15.0449 25.2577 15.3923 27.5798 17.1841 27.5798C18.2632 27.5798 18.4276 26.5011 18.4276 26.5011H28.4297V22.4053H18.4276C18.4276 22.4053 17.8973 21.1436 17.1293 21.1436C15.8858 21.1436 15.0449 22.6978 15.0449 24.3067Z" stroke="#1A1A18" stroke-width="1.248" stroke-miterlimit="22.9256"/>
<path fill-rule="evenodd" clip-rule="evenodd" d="M18.9949 24.3067C18.9949 26.0623 18.1354 27.5068 17.0748 27.5068C15.9958 27.5068 15.1367 26.0623 15.1367 24.3067C15.1367 22.533 15.9958 21.107 17.0748 21.107C18.1354 21.107 18.9949 22.533 18.9949 24.3067Z" fill="white"/>
<path d="M18.9949 24.3067C18.9949 26.0623 18.1354 27.5068 17.0748 27.5068C15.9958 27.5068 15.1367 26.0623 15.1367 24.3067C15.1367 22.533 15.9958 21.107 17.0748 21.107C18.1354 21.107 18.9949 22.533 18.9949 24.3067Z" stroke="#1A1A18" stroke-width="1.248" stroke-miterlimit="22.9256"/>
<path d="M18.9761 26.5012L20.878 22.4054" stroke="#1A1A18" stroke-width="1.248" stroke-miterlimit="22.9256"/>
<path d="M20.5854 26.5012L22.4869 22.4054" stroke="#1A1A18" stroke-width="1.248" stroke-miterlimit="22.9256"/>
<path d="M22.0117 26.5012L23.9132 22.4054" stroke="#1A1A18" stroke-width="1.248" stroke-miterlimit="22.9256"/>
<path d="M23.4927 26.5012L25.3946 22.4054" stroke="#1A1A18" stroke-width="1.248" stroke-miterlimit="22.9256"/>
<path d="M24.9741 26.5012L26.876 22.4054" stroke="#1A1A18" stroke-width="1.248" stroke-miterlimit="22.9256"/>
<path d="M26.5835 26.5012L28.485 22.4054" stroke="#1A1A18" stroke-width="1.248" stroke-miterlimit="22.9256"/>
<path d="M18.9033 23.4658L19.4517 22.4053" stroke="#1A1A18" stroke-width="1.248" stroke-miterlimit="22.9256"/>
<path d="M18.519 26.355H28.4297" stroke="#1A1A18" stroke-width="1.248" stroke-miterlimit="22.9256"/>
<path fill-rule="evenodd" clip-rule="evenodd" d="M28.4663 24.7275L28.4297 22.5698C28.4297 22.5698 28.6126 20.0833 28.96 18.8946C29.3258 17.7059 29.9109 15.4386 31.4102 15.4386C32.4708 15.4386 33.7324 15.6216 33.7324 16.9928C33.7324 18.2362 32.8914 18.1814 32.416 18.2362C31.9405 18.291 31.7028 18.1814 31.7028 18.1814C31.7028 18.1814 31.2273 18.4192 31.2273 19.9004C31.2273 20.8509 31.1725 24.7275 31.1725 24.7275C31.1725 24.7275 31.2273 28.6957 31.2273 29.6648C31.2273 31.1457 31.7028 31.3835 31.7028 31.3835C31.7028 31.3835 31.9405 31.2556 32.416 31.3285C32.8914 31.3835 33.7324 31.3285 33.7324 32.5719C33.7324 33.9435 32.4708 34.1262 31.4102 34.1262C29.9109 34.1262 29.3258 31.8589 28.96 30.6705C28.6126 29.4818 28.4297 26.9767 28.4297 26.9767L28.4663 24.7275Z" fill="white"/>
<path d="M28.4663 24.7275L28.4297 22.5698C28.4297 22.5698 28.6126 20.0833 28.96 18.8946C29.3258 17.7059 29.9109 15.4386 31.4102 15.4386C32.4708 15.4386 33.7324 15.6216 33.7324 16.9928C33.7324 18.2362 32.8914 18.1814 32.416 18.2362C31.9405 18.291 31.7028 18.1814 31.7028 18.1814C31.7028 18.1814 31.2273 18.4192 31.2273 19.9004C31.2273 20.8509 31.1725 24.7275 31.1725 24.7275C31.1725 24.7275 31.2273 28.6957 31.2273 29.6648C31.2273 31.1457 31.7028 31.3835 31.7028 31.3835C31.7028 31.3835 31.9405 31.2556 32.416 31.3285C32.8914 31.3835 33.7324 31.3285 33.7324 32.5719C33.7324 33.9435 32.4708 34.1262 31.4102 34.1262C29.9109 34.1262 29.3258 31.8589 28.96 30.6705C28.6126 29.4818 28.4297 26.9767 28.4297 26.9767L28.4663 24.7275Z" stroke="#1A1A18" stroke-width="1.248" stroke-miterlimit="22.9256"/>
<path fill-rule="evenodd" clip-rule="evenodd" d="M31.1729 26.9219H79.2998C79.2998 26.9219 80.6347 26.8852 81.3479 24.453C81.3479 24.453 80.7629 22.1676 79.2998 22.2224C79.2631 22.2224 31.2277 22.2224 31.2277 22.2224L31.1729 26.9219Z" fill="white"/>
<path d="M31.1729 26.9219H79.2998C79.2998 26.9219 80.6347 26.8852 81.3479 24.453C81.3479 24.453 80.7629 22.1676 79.2998 22.2224C79.2631 22.2224 31.2277 22.2224 31.2277 22.2224L31.1729 26.9219Z" stroke="#1A1A18" stroke-width="0.864" stroke-miterlimit="22.9256"/>
<path d="M33.1655 24.4531H81.3477" stroke="#1A1A18" stroke-width="0.384" stroke-miterlimit="22.9256"/>
<path d="M31.2277 22.2224L33.1658 24.453L31.1729 26.9219" stroke="#1A1A18" stroke-width="1.248" stroke-miterlimit="22.9256"/>
<path d="M41.0542 18.3039L39.8647 18.2452V17.0559C41.07 17.2104 42.4408 17.3064 43.9875 17.3439C45.5767 17.3064 46.9903 17.2104 48.2167 17.0559V18.3039H46.8088C46.158 18.3039 45.7207 18.4478 45.497 18.7358C45.2728 19.0238 45.1447 19.5198 45.113 20.2291L44.6595 28.5491C44.6595 28.9277 44.6436 29.2584 44.6008 29.5411C44.681 30.8371 45.1183 31.4823 45.9127 31.4823H47.6782V32.6079C46.2594 32.4798 44.7982 32.4159 43.289 32.4159C41.801 32.4159 40.3183 32.4798 38.8408 32.6079V31.4237H40.409C40.9155 31.4237 41.2942 31.3862 41.5342 31.3118C41.7795 31.237 41.9767 31.0502 42.1314 30.7358C42.281 30.4262 42.3823 29.9092 42.425 29.1892L42.9688 20.2878C42.9688 19.4771 42.8355 18.9491 42.5743 18.7147C42.3075 18.4747 41.801 18.336 41.0542 18.3039Z" fill="#1A1A18"/>
<path d="M51.7311 23.4827C51.8539 23.5945 52.366 23.8398 53.267 24.2079C54.1737 24.5703 55.0165 24.9865 55.7952 25.4453C56.5737 25.9092 57.262 26.5437 57.8539 27.3543C58.4457 28.1651 58.7443 29.1466 58.7443 30.304C58.6593 32.1438 58.1524 33.701 57.2193 34.9705C56.2804 36.2397 55.1125 37.1892 53.7047 37.8132C52.2964 38.4318 50.8727 38.7572 49.438 38.7837L49.6564 37.6638C50.6965 37.6638 51.7525 37.4343 52.8244 36.9702C53.8966 36.5118 54.7872 35.8662 55.486 35.0343C56.1844 34.2025 56.5367 33.269 56.5367 32.224C56.5367 30.917 56.2324 29.872 55.6191 29.0877C55.006 28.3039 54.0672 27.5997 52.7927 26.9757C51.4272 26.2719 50.5684 25.7866 50.2219 25.5145C49.8753 25.2424 49.6885 24.8746 49.6564 24.4105C49.7419 23.8719 49.7899 23.4773 49.7899 23.2321C50.1897 19.0133 50.4244 16.8692 50.4886 16.8001H58.0405V19.2319H51.4113C51.1765 20.7252 51.0484 21.6001 51.0273 21.856C51.1075 22.6613 51.3417 23.2 51.7311 23.4827Z" fill="#1A1A18"/>
</svg>
