<svg width="378" height="378" viewBox="0 0 378 378" fill="none" xmlns="http://www.w3.org/2000/svg">
<path fill-rule="evenodd" clip-rule="evenodd" d="M-0.0708008 0.47236H377.882V378.486H-0.0708008V0.47236Z" fill="#009EE3"/>
<path d="M-0.0708008 0.47236H377.882V378.486H-0.0708008V0.47236Z" stroke="#1A1A18" stroke-width="0.288" stroke-miterlimit="22.9256"/>
<path d="M136.108 72.807C135.297 72.807 134.594 73.0791 133.991 73.6283C133.388 74.1726 133.074 74.8393 133.041 75.6178C133.041 77.2071 133.895 78.4336 135.607 79.2976L137.559 80.2576C138.844 80.8763 139.857 81.7618 140.599 82.9138C141.34 84.0711 141.714 85.287 141.714 86.5618C141.714 87.6548 141.516 88.6365 141.116 89.511C140.716 90.3803 140.103 91.0682 139.266 91.5857C138.433 92.103 137.383 92.3698 136.108 92.391C135.26 92.391 134.3 92.2149 133.223 91.8577C132.146 91.5002 131.457 91.2231 131.153 91.0202C131.153 90.759 131.164 90.3856 131.186 89.9108C131.207 89.4308 131.217 89.0631 131.217 88.8068C131.217 87.7138 131.153 86.679 131.02 85.7031H132.402V87.0203C132.402 88.1136 132.764 89.0736 133.49 89.9003C134.215 90.7268 135.111 91.143 136.178 91.143C137.207 91.143 138.076 90.8123 138.785 90.1562C139.5 89.4951 139.857 88.6311 139.857 87.5588C139.799 85.8576 138.775 84.4868 136.78 83.4312L134.546 82.1833C132.236 80.8551 131.084 79.0633 131.084 76.8073C131.148 75.7459 131.404 74.8446 131.863 74.0977C132.316 73.3513 132.919 72.7964 133.66 72.4287C134.402 72.0606 135.239 71.8791 136.178 71.8791C136.706 71.8791 137.623 72.0072 138.93 72.2631C139.164 72.2631 139.319 72.2847 139.404 72.327H139.986V76.1991H138.732V75.9432C138.732 75.5271 138.668 75.0846 138.535 74.6098C138.401 74.1298 138.14 73.7136 137.745 73.3512C137.351 72.9884 136.807 72.807 136.108 72.807Z" fill="#1A1A18"/>
<path d="M152.503 86.3056L153.495 86.439C153.495 86.8816 153.361 87.5324 153.1 88.3857C152.833 89.2441 152.295 90.0601 151.473 90.8391C150.652 91.6176 149.489 92.007 147.985 92.007C146.897 92.007 146.001 91.7243 145.297 91.1536C144.593 90.5881 144.081 89.8311 143.761 88.8764C143.441 87.927 143.281 86.871 143.281 85.7031C143.345 84.4763 143.479 83.3243 143.686 82.2524C143.895 81.1857 144.22 80.1884 144.652 79.2657C145.089 78.3379 145.665 77.5964 146.385 77.0309C147.1 76.4659 147.964 76.1669 148.977 76.1352C149.857 76.1352 150.567 76.3109 151.111 76.6685C151.649 77.0256 152.038 77.5109 152.273 78.1191C152.508 78.7272 152.625 79.4204 152.625 80.1989C152.625 80.8656 152.497 81.7565 152.241 82.8816C150.145 83.5805 147.932 84.0657 145.612 84.3269C145.601 84.3269 145.558 84.7004 145.489 85.4468C145.612 88.7218 146.732 90.4071 148.849 90.5031C149.5 90.5031 150.108 90.3216 150.673 89.9536C151.233 89.5857 151.681 89.0948 152.007 88.4871C152.337 87.8789 152.503 87.2391 152.503 86.5671V86.3056ZM145.74 83.2977L148.561 82.8816C149.228 82.7536 149.751 82.4123 150.118 81.8577C150.487 81.3083 150.673 80.6684 150.673 79.9377C150.673 79.1112 150.572 78.4124 150.364 77.847C150.161 77.2819 149.697 76.9992 148.977 76.9992C147.905 77.0256 147.1 77.7619 146.566 79.2125C146.028 80.6577 145.735 81.9696 145.676 83.1432C145.702 83.175 145.719 83.2124 145.729 83.2392C145.735 83.2656 145.74 83.2872 145.74 83.2977Z" fill="#1A1A18"/>
<path d="M166.161 90.1244C166.764 89.9271 167.308 89.7884 167.793 89.7083L168.177 90.4388C167.105 90.6736 166.348 90.8762 165.91 91.0416C165.468 91.2068 164.764 91.5481 163.793 92.0708C163.756 92.1136 163.665 92.1298 163.537 92.1298C163.452 92.1298 163.414 92.0069 163.414 91.7511C163.649 90.2736 163.804 89.1908 163.879 88.5188C163.948 87.8416 163.98 87.0417 163.98 86.1188V84.4868L161.233 88.9296C160.695 89.8201 160.023 90.5564 159.207 91.1376C158.391 91.7189 157.558 92.007 156.716 92.007C155.505 91.9484 154.897 90.7964 154.897 88.5456C154.966 87.2176 155.302 85.8256 155.916 84.3591C156.529 82.8976 157.281 81.543 158.172 80.3003C159.068 79.0632 159.98 78.0552 160.913 77.2872C161.847 76.5192 162.636 76.1352 163.281 76.1352C163.473 76.1352 163.692 76.1779 163.932 76.2629C164.172 76.3484 164.374 76.3911 164.529 76.3911L166.801 76.1352C166.689 77.4792 166.513 79.3244 166.289 81.6711C166.06 84.0177 165.91 85.5856 165.841 86.3698C165.772 87.159 165.729 87.9058 165.708 88.6148C165.772 89.6176 165.921 90.1244 166.161 90.1244ZM163.601 77.4471C163.505 77.3832 163.388 77.3511 163.249 77.3511C162.79 77.3511 162.225 77.6496 161.559 78.2419C160.887 78.8337 160.225 79.6229 159.564 80.6097C158.908 81.5963 158.348 82.6738 157.894 83.847C157.441 85.0206 157.18 86.151 157.111 87.2391C157.111 87.4096 157.084 87.5645 157.036 87.6923C157.137 88.9883 157.617 89.6391 158.481 89.6391C159.19 89.6176 159.916 89.1537 160.652 88.2524C161.393 87.3456 162.06 86.2576 162.657 84.9777C163.255 83.6976 163.719 82.4976 164.044 81.3831C164.236 80.8283 164.332 80.0871 164.332 79.1751C164.332 78.2419 164.086 77.6659 163.601 77.4471Z" fill="#1A1A18"/>
<path d="M176.214 73.4472V72.263C178.172 72.3749 180.423 72.4497 182.961 72.4872C185.516 72.4497 187.788 72.3749 189.782 72.263L190.006 76.679L188.881 76.7429L188.758 75.5538C188.7 74.8709 188.46 74.3963 188.038 74.1456C187.617 73.8951 187.046 73.7669 186.321 73.7669H182.14V81.2549L186.902 81.1272C187.436 81.0845 187.836 80.9885 188.102 80.8392C188.369 80.6842 188.502 80.3482 188.502 79.8149V78.9456H189.585C189.585 79.8202 189.564 80.5085 189.521 81.0044C189.595 82.4232 189.66 83.6285 189.718 84.6149H188.561V83.495C188.561 82.7536 188.076 82.3805 187.094 82.3805L182.262 82.247V87.4364C182.262 88.0762 182.305 88.5936 182.385 88.9936C182.47 89.3937 182.662 89.7136 182.956 89.9536C183.254 90.1936 183.692 90.311 184.278 90.311H187.569C188.646 90.311 189.372 89.9482 189.756 89.2282C190.134 88.5082 190.348 87.6389 190.39 86.6309H191.569L190.961 91.8149C187.932 91.6441 185.681 91.559 184.209 91.559C181.868 91.559 179.201 91.6656 176.214 91.8788V90.6308H178.07C178.886 90.6308 179.43 90.4388 179.692 90.0496C179.953 89.6602 180.087 89.0468 180.087 88.1991V78.4392C180.087 77.1537 180.033 76.1136 179.932 75.3245C179.825 74.5349 179.58 73.9964 179.19 73.703C179.052 73.5322 178.561 73.4472 177.718 73.4472H176.214Z" fill="#1A1A18"/>
<path d="M196.667 90.503L199.611 89.927V91.2975C197.665 91.367 195.809 91.751 194.043 92.4547C194.118 91.452 194.171 90.4603 194.209 89.4735C194.246 88.487 194.289 87.1003 194.342 85.3085C194.401 83.5215 194.459 82.007 194.518 80.7695C194.582 79.5322 194.667 78.3215 194.78 77.1269C194.934 75.527 195.089 74.1245 195.233 72.9245C195.382 71.7191 195.542 70.583 195.718 69.5006C195.894 68.423 196.102 67.2873 196.337 66.0926C196.571 64.8978 196.865 63.5323 197.217 61.9963H200.731V62.9457C200.63 63.0153 200.454 63.143 200.204 63.335C199.953 63.527 199.649 63.9695 199.292 64.6685C198.939 65.3726 198.588 66.4391 198.241 67.8791C197.99 68.9135 197.771 70.535 197.579 72.743C197.387 74.951 197.228 77.3831 197.089 80.0337C196.955 82.6843 196.849 85.0363 196.779 87.095C196.705 89.1481 196.667 90.2842 196.667 90.503Z" fill="#1A1A18"/>
<path d="M202.364 78.375L202.427 82.1832H201.339L201.473 76.3911C202.379 76.4817 203.878 76.5777 205.979 76.6791C208.246 76.5777 209.846 76.4817 210.785 76.3911L210.971 77.127C210.545 77.2656 210.059 77.6444 209.515 78.2684C208.971 78.8924 208.454 79.6656 207.963 80.5883C207.473 81.5112 207.073 82.5029 206.763 83.5752C206.454 84.6417 206.299 85.6604 206.299 86.6309C206.401 89.0843 207.361 90.3111 209.185 90.3111C210.39 90.3111 211.473 89.8949 212.422 89.0631C213.377 88.2256 214.113 87.1484 214.635 85.8308C215.158 84.5136 215.414 83.1591 215.414 81.7671V76.3911H218.299C217.851 77.5857 217.595 78.7911 217.531 80.007C217.595 81.111 217.851 82.2951 218.299 83.559C218.129 83.559 217.958 83.5805 217.793 83.6176C217.387 83.5589 217.008 83.4096 216.667 83.1749C216.15 85.7084 215.051 87.7456 213.371 89.2922C211.686 90.8391 209.729 91.6816 207.489 91.8149H204.987C204.433 90.8603 204.075 90.1618 203.91 89.7136C203.739 89.2656 203.643 88.5884 203.611 87.6869C203.611 86.5137 203.921 85.2336 204.534 83.847C205.148 82.4656 205.82 81.2232 206.545 80.1192C207.27 79.0152 207.692 78.4336 207.809 78.375H202.364Z" fill="#1A1A18"/>
<path d="M228.865 86.3056L229.857 86.439C229.857 86.8816 229.723 87.5324 229.462 88.3857C229.195 89.2441 228.657 90.0601 227.835 90.8391C227.014 91.6176 225.851 92.007 224.347 92.007C223.259 92.007 222.363 91.7243 221.659 91.1536C220.955 90.5881 220.444 89.8311 220.123 88.8764C219.803 87.927 219.643 86.871 219.643 85.7031C219.707 84.4763 219.841 83.3243 220.048 82.2524C220.257 81.1857 220.582 80.1884 221.014 79.2657C221.451 78.3379 222.027 77.5964 222.747 77.0309C223.462 76.4659 224.326 76.1669 225.339 76.1352C226.219 76.1352 226.929 76.3109 227.472 76.6685C228.011 77.0256 228.4 77.5109 228.635 78.1191C228.87 78.7272 228.987 79.4204 228.987 80.1989C228.987 80.8656 228.859 81.7565 228.603 82.8816C226.507 83.5805 224.294 84.0657 221.974 84.3269C221.963 84.3269 221.92 84.7004 221.851 85.4468C221.974 88.7218 223.094 90.4071 225.211 90.5031C225.862 90.5031 226.47 90.3216 227.035 89.9536C227.595 89.5857 228.043 89.0948 228.369 88.4871C228.699 87.8789 228.865 87.2391 228.865 86.5671V86.3056ZM222.102 83.2977L224.923 82.8816C225.59 82.7536 226.113 82.4123 226.48 81.8577C226.849 81.3083 227.035 80.6684 227.035 79.9377C227.035 79.1112 226.934 78.4124 226.726 77.847C226.523 77.2819 226.059 76.9992 225.339 76.9992C224.267 77.0256 223.462 77.7619 222.928 79.2125C222.39 80.6577 222.097 81.9696 222.038 83.1432C222.064 83.175 222.081 83.2124 222.091 83.2392C222.097 83.2656 222.102 83.2872 222.102 83.2977Z" fill="#1A1A18"/>
<path d="M232.48 88.071C232.48 88.6896 232.608 89.2283 232.859 89.703C233.115 90.1724 233.462 90.5348 233.899 90.7857C234.336 91.0364 234.811 91.1642 235.323 91.1751C236.155 91.1751 236.865 90.9351 237.451 90.4497C238.038 89.9697 238.331 89.3031 238.331 88.455C238.331 87.783 238.171 87.2337 237.856 86.7965C237.542 86.3588 237.062 85.911 236.411 85.4468L234.715 84.1988C233.478 83.1856 232.833 81.9696 232.768 80.5512C232.768 79.3086 233.115 78.3005 233.814 77.5109C234.513 76.7271 235.536 76.2898 236.891 76.1991C237.28 76.1991 237.739 76.2576 238.267 76.3752C238.8 76.4924 239.056 76.5509 239.035 76.5509V79.9377H238.075V79.0791C238.075 78.5511 237.942 78.0816 237.686 77.6766C237.43 77.2656 237.067 77.0631 236.603 77.0631C236.097 77.0631 235.654 77.3084 235.275 77.8043C234.902 78.2952 234.715 78.7911 234.715 79.2976C234.784 80.5617 235.446 81.6552 236.699 82.5616L238.144 83.5536C239.51 84.4926 240.225 85.6868 240.283 87.1431C240.283 87.7829 240.086 88.4871 239.691 89.2551C239.302 90.0231 238.726 90.6736 237.974 91.2068C237.222 91.7402 236.337 92.007 235.323 92.007H235.259C234.278 92.007 233.435 91.8736 232.726 91.6071C232.022 91.3456 231.531 91.1217 231.259 90.9456L231.643 86.1188L232.635 86.2469C232.619 86.2685 232.598 86.4816 232.566 86.8763C232.539 87.2708 232.512 87.6711 232.48 88.071Z" fill="#1A1A18"/>
<path fill-rule="evenodd" clip-rule="evenodd" d="M187.165 298.417H206.442V317.001H187.165V298.417Z" fill="#F6B1B5"/>
<path d="M187.165 298.417H206.442V317.001H187.165V298.417Z" stroke="#1A1A18" stroke-width="0.288" stroke-miterlimit="22.9256"/>
<path fill-rule="evenodd" clip-rule="evenodd" d="M164.487 298.417H183.765V317.001H164.487V298.417Z" fill="#D7B469"/>
<path d="M164.487 298.417H183.765V317.001H164.487V298.417Z" stroke="#1A1A18" stroke-width="0.288" stroke-miterlimit="22.9256"/>
<path fill-rule="evenodd" clip-rule="evenodd" d="M148.116 277.869H217.726V280.315H148.116V277.869Z" fill="white"/>
<path fill-rule="evenodd" clip-rule="evenodd" d="M118.014 263.294H245.348V265.74H118.014V263.294Z" fill="white"/>
<path fill-rule="evenodd" clip-rule="evenodd" d="M104.135 250.708H264.617V253.154H104.135V250.708Z" fill="white"/>
<path fill-rule="evenodd" clip-rule="evenodd" d="M83.2767 227.881H294.315V230.327H83.2767V227.881Z" fill="white"/>
<path fill-rule="evenodd" clip-rule="evenodd" d="M253.133 161.657H254.233V221.126H253.133V161.657ZM203.93 131.125H206.391V224.504H203.93V131.125ZM102.25 162.181H102.983V201.722H102.25V162.181Z" fill="#1A1A18"/>
<path d="M253.133 161.657H254.233V221.126H253.133V161.657ZM203.93 131.125H206.391V224.504H203.93V131.125ZM102.25 162.181H102.983V201.722H102.25V162.181Z" stroke="#1A1A18" stroke-width="0.261859" stroke-linejoin="bevel"/>
<path fill-rule="evenodd" clip-rule="evenodd" d="M107.848 188.724C116.387 186.181 124.087 184.455 134.329 189.588C129.196 197.263 130.899 206.666 136.032 211.775L105.306 209.209L104.442 198.535L107.848 188.724Z" fill="#7F6B65"/>
<path d="M107.848 188.724C116.387 186.181 124.087 184.455 134.329 189.588C129.196 197.263 130.899 206.666 136.032 211.775L105.306 209.209L104.442 198.535L107.848 188.724Z" stroke="#1A1A18" stroke-width="0.239866" stroke-linejoin="bevel"/>
<path d="M187.171 217.302V223.456M168.788 215.286V224.137M150.432 211.489L150.458 213.924M125.293 205.047V207.823M92.4301 196.432C129.038 204.157 176.251 224.137 214.457 215.207C214.457 219.738 214.561 228.589 214.561 233.145C167.61 245.086 129.876 213.506 93.268 203.267C93.268 198.71 92.4301 200.989 92.4301 196.432Z" stroke="#1A1A18" stroke-width="0.733206" stroke-linejoin="bevel"/>
<path fill-rule="evenodd" clip-rule="evenodd" d="M248.132 161.265L255.726 177.605L255.542 184.544L232.656 172.394C236.82 170.718 245.696 166.135 248.132 161.265ZM231.687 172.368L255.726 184.937V191.719L223.438 185.303C228.388 183.156 231.713 175.483 231.687 172.368ZM223.412 185.565L255.726 191.771L255.909 198.711C244.309 197.48 232.708 196.249 221.134 195.018C223.622 192.845 224.538 188.603 223.412 185.565ZM221.632 194.625L255.647 198.763L259.261 206.121L220.061 209.159C221.396 203.817 223.91 199.365 221.632 194.625ZM175.125 124.788L208.382 144.27L208.041 156.996L156.926 146.574C166.772 141.652 171.721 133.612 175.125 124.788ZM155.696 146.6L208.382 157.703V170.115L150.746 163.281C154.438 158.332 155.696 152.152 155.696 146.6ZM150.118 163.91L208.382 170.115L208.748 182.842L145.797 178.102C148.887 171.923 150.746 169.487 150.118 163.91ZM145.168 178.128L209.796 183.104L211.236 195.935L145.168 193.552C147.028 187.372 146.4 183.078 145.168 178.128ZM144.54 193.578L211.943 195.935L214.064 208.347L144.54 206.54C145.797 201.591 145.797 197.27 144.54 193.578ZM98.9244 161.919L103.978 172.786L103.847 177.395L88.6333 169.33C91.409 168.204 97.3269 165.166 98.9244 161.919ZM88.0048 169.33L103.978 177.683V182.187L82.5057 177.919C85.8051 176.505 88.0048 171.399 88.0048 169.33ZM82.4796 178.102L103.978 182.214L104.109 186.822C96.3842 186.01 88.6594 185.173 80.9871 184.361C82.6368 182.92 83.2653 180.092 82.4796 178.102ZM81.3011 184.099L103.926 186.874L106.309 191.745L80.2539 193.761C81.1704 190.2 82.8201 187.267 81.3011 184.099Z" fill="#FDD490"/>
<path d="M208.382 170.115V157.703L155.696 146.6C155.696 152.152 154.438 158.332 150.746 163.281L208.382 170.115ZM208.382 170.115L150.118 163.91C150.746 169.487 148.887 171.923 145.797 178.102L208.748 182.842L208.382 170.115ZM248.132 161.265L255.726 177.605L255.542 184.544L232.656 172.394C236.82 170.718 245.696 166.135 248.132 161.265ZM231.687 172.368L255.726 184.937V191.719L223.438 185.303C228.388 183.156 231.713 175.483 231.687 172.368ZM223.412 185.565L255.726 191.771L255.909 198.711C244.309 197.48 232.708 196.249 221.134 195.018C223.622 192.845 224.538 188.603 223.412 185.565ZM221.632 194.625L255.647 198.763L259.261 206.121L220.061 209.159C221.396 203.817 223.91 199.365 221.632 194.625ZM175.125 124.788L208.382 144.27L208.041 156.996L156.926 146.574C166.772 141.652 171.721 133.612 175.125 124.788ZM145.168 178.128L209.796 183.104L211.236 195.935L145.168 193.552C147.028 187.372 146.4 183.078 145.168 178.128ZM144.54 193.578L211.943 195.935L214.064 208.347L144.54 206.54C145.797 201.591 145.797 197.27 144.54 193.578ZM98.9244 161.919L103.978 172.786L103.847 177.395L88.6333 169.33C91.409 168.204 97.3269 165.166 98.9244 161.919ZM88.0048 169.33L103.978 177.683V182.187L82.5057 177.919C85.8051 176.505 88.0048 171.399 88.0048 169.33ZM82.4796 178.102L103.978 182.214L104.109 186.822C96.3842 186.01 88.6594 185.173 80.9871 184.361C82.6368 182.92 83.2653 180.092 82.4796 178.102ZM81.3011 184.099L103.926 186.874L106.309 191.745L80.2539 193.761C81.1704 190.2 82.8201 187.267 81.3011 184.099Z" stroke="#1A1A18" stroke-width="0.261859" stroke-linejoin="bevel"/>
<path fill-rule="evenodd" clip-rule="evenodd" d="M106.146 216.036C163.915 226.278 221.657 228.845 280.372 216.036C264.99 224.575 265.044 239.063 249.636 240.79H130.205L106.146 216.036Z" fill="#1A1A18"/>
<path d="M106.146 216.036C163.915 226.278 221.657 228.845 280.372 216.036C264.99 224.575 265.044 239.063 249.636 240.79H130.205L106.146 216.036Z" stroke="#1A1A18" stroke-width="0.254641" stroke-linejoin="bevel"/>
<path fill-rule="evenodd" clip-rule="evenodd" d="M106.146 216.045C163.915 225.57 221.657 227.957 280.372 216.045C264.99 223.987 265.044 237.46 249.636 239.066H130.205L106.146 216.045Z" fill="#A64A22"/>
<path d="M106.146 216.045C163.915 225.57 221.657 227.957 280.372 216.045C264.99 223.987 265.044 237.46 249.636 239.066H130.205L106.146 216.045Z" stroke="#1A1A18" stroke-width="0.245562" stroke-linejoin="bevel"/>
<path fill-rule="evenodd" clip-rule="evenodd" d="M106.146 216.047C163.915 224.158 221.657 226.191 280.372 216.047C264.99 222.81 265.044 234.283 249.636 235.651H130.205L106.146 216.047Z" fill="#A74B3D"/>
<path d="M106.146 216.047C163.915 224.158 221.657 226.191 280.372 216.047C264.99 222.81 265.044 234.283 249.636 235.651H130.205L106.146 216.047Z" stroke="#1A1A18" stroke-width="0.226611" stroke-linejoin="bevel"/>
<path fill-rule="evenodd" clip-rule="evenodd" d="M110.39 219.457C168.159 223.328 217.413 224.298 276.127 219.457C260.746 222.684 265.044 229.909 249.636 230.562H130.205L110.39 219.457Z" fill="#A97044"/>
<path d="M110.39 219.457C168.159 223.328 217.413 224.298 276.127 219.457C260.746 222.684 265.044 229.909 249.636 230.562H130.205L110.39 219.457Z" stroke="#1A1A18" stroke-width="0.156543" stroke-linejoin="bevel"/>
<path fill-rule="evenodd" clip-rule="evenodd" d="M218.699 208.164L260.518 205.257L259.575 206.854L218.358 209.29L218.699 208.164ZM220.767 194.023L256.878 198.056L257.087 199.496L220.322 195.437L220.767 194.023ZM223.334 184.858L256.799 191.352L256.825 192.531L223.176 186.063L223.334 184.858ZM232.446 171.896L256.563 184.439L255.961 185.434L231.425 172.498L232.446 171.896ZM248.551 160.715L256.459 177.133L256.04 178.731L247.32 160.924L248.551 160.715ZM143.1 193.238L213.959 195.097L212.99 197.925L142.131 196.066L143.1 193.238ZM142.786 176.95L211.367 181.952L210.476 184.753L141.896 179.752L142.786 176.95ZM148.861 160.95L209.272 168.937L209.376 171.818L147.971 163.674L148.861 160.95ZM156.193 145.108L209.167 156.315L209.376 159.17L155.041 147.805L156.193 145.108ZM175.256 123.19L209.298 142.646L208.015 144.846L173.973 125.416L175.256 123.19ZM79.3633 193.133L107.147 191.195L106.518 192.243L79.1541 193.866L79.3633 193.133ZM80.7251 183.706L104.712 186.429L104.868 187.372L80.4371 184.649L80.7251 183.706ZM82.427 177.605L104.712 181.925L104.685 182.711L82.3223 178.416L82.427 177.605ZM88.5021 168.963L104.528 177.317L104.135 177.998L87.8215 169.382L88.5021 168.963ZM99.2124 161.579L104.476 172.498L104.188 173.546L98.4006 161.71L99.2124 161.579Z" fill="white"/>
<path d="M218.699 208.164L260.518 205.257L259.575 206.854L218.358 209.29L218.699 208.164ZM220.767 194.023L256.878 198.056L257.087 199.496L220.322 195.437L220.767 194.023ZM223.334 184.858L256.799 191.352L256.825 192.531L223.176 186.063L223.334 184.858ZM232.446 171.896L256.563 184.439L255.961 185.434L231.425 172.498L232.446 171.896ZM248.551 160.715L256.459 177.133L256.04 178.731L247.32 160.924L248.551 160.715ZM143.1 193.238L213.959 195.097L212.99 197.925L142.131 196.066L143.1 193.238ZM142.786 176.95L211.367 181.952L210.476 184.753L141.896 179.752L142.786 176.95ZM148.861 160.95L209.272 168.937L209.376 171.818L147.971 163.674L148.861 160.95ZM156.193 145.108L209.167 156.315L209.376 159.17L155.041 147.805L156.193 145.108ZM175.256 123.19L209.298 142.646L208.015 144.846L173.973 125.416L175.256 123.19ZM79.3633 193.133L107.147 191.195L106.518 192.243L79.1541 193.866L79.3633 193.133ZM80.7251 183.706L104.712 186.429L104.868 187.372L80.4371 184.649L80.7251 183.706ZM82.427 177.605L104.712 181.925L104.685 182.711L82.3223 178.416L82.427 177.605ZM88.5021 168.963L104.528 177.317L104.135 177.998L87.8215 169.382L88.5021 168.963ZM99.2124 161.579L104.476 172.498L104.188 173.546L98.4006 161.71L99.2124 161.579Z" stroke="#1A1A18" stroke-width="0.261859" stroke-linejoin="bevel"/>
<path fill-rule="evenodd" clip-rule="evenodd" d="M106.323 216.006C163.747 225.623 219.155 224.153 282.096 216.247V218.814C222.562 224.128 167.584 230.127 106.323 218.572C106.323 217.732 106.323 216.869 106.323 216.006Z" fill="#1A1A18"/>
<path d="M106.323 216.006C163.747 225.623 219.155 224.153 282.096 216.247V218.814C222.562 224.128 167.584 230.127 106.323 218.572C106.323 217.732 106.323 216.869 106.323 216.006Z" stroke="#1A1A18" stroke-width="0.241708" stroke-linejoin="bevel"/>
<path fill-rule="evenodd" clip-rule="evenodd" d="M91.6284 199.831L105.301 202.488V206.758L91.6284 204.101V199.831Z" fill="#814941"/>
<path fill-rule="evenodd" clip-rule="evenodd" d="M102.717 201.537L155.652 215.185V224.587L103.551 218.615L102.717 201.537Z" fill="#814941"/>
<path d="M102.717 201.537L155.652 215.185V224.587L103.551 218.615L102.717 201.537Z" stroke="#1A1A18" stroke-width="0.218274" stroke-linejoin="bevel"/>
<path fill-rule="evenodd" clip-rule="evenodd" d="M107.658 204.316L150.732 215.794L150.217 221.733L107.638 215.256L107.658 204.316Z" fill="#574744"/>
<path d="M107.658 204.316L150.732 215.794L150.217 221.733L107.638 215.256L107.658 204.316Z" stroke="#1A1A18" stroke-width="0.160316" stroke-linejoin="bevel"/>
<path fill-rule="evenodd" clip-rule="evenodd" d="M95.395 238.837H279.6V241.283H95.395V238.837Z" fill="white"/>
</svg>
