<svg width="59" height="59" viewBox="0 0 59 59" fill="none" xmlns="http://www.w3.org/2000/svg">
<path d="M54.9632 28.7785C54.9632 42.4635 43.3309 53.5571 28.9816 53.5571C14.6323 53.5571 3 42.4635 3 28.7785C3 15.0936 14.6323 4 28.9816 4C43.3309 4 54.9632 15.0936 54.9632 28.7785Z" stroke="#1A1A18" stroke-width="1.92" stroke-miterlimit="22.9256" stroke-dasharray="9.6 5.76"/>
<path fill-rule="evenodd" clip-rule="evenodd" d="M29.1995 42C38.1463 42 45.3988 43.5111 45.3988 45.3751C45.3988 47.2388 38.1463 48.7499 29.1995 48.7499C20.2525 48.7499 13 47.2388 13 45.3751C13 43.5111 20.2525 42 29.1995 42Z" fill="white"/>
<path d="M29.1995 42C38.1463 42 45.3988 43.5111 45.3988 45.3751C45.3988 47.2388 38.1463 48.7499 29.1995 48.7499C20.2525 48.7499 13 47.2388 13 45.3751C13 43.5111 20.2525 42 29.1995 42Z" stroke="#1A1A18" stroke-width="0.288" stroke-miterlimit="22.9256"/>
<path fill-rule="evenodd" clip-rule="evenodd" d="M13 40L45.4528 40V45.3997L13 45.3997L13 40Z" fill="white"/>
<path fill-rule="evenodd" clip-rule="evenodd" d="M29.1993 36C38.1458 36 45.3988 37.5111 45.3988 39.3747C45.3988 41.2388 38.1458 42.7499 29.1993 42.7499C20.2525 42.7499 13 41.2388 13 39.3747C13 37.5111 20.2525 36 29.1993 36Z" fill="white"/>
<path d="M29.1993 36C38.1458 36 45.3988 37.5111 45.3988 39.3747C45.3988 41.2388 38.1458 42.7499 29.1993 42.7499C20.2525 42.7499 13 41.2388 13 39.3747C13 37.5111 20.2525 36 29.1993 36Z" stroke="#1A1A18" stroke-width="0.288" stroke-miterlimit="22.9256"/>
<path d="M12 20.7464V20.0423C13.3795 20.11 14.0939 20.1455 14.1543 20.1492C14.5066 20.1349 14.9793 20.11 15.5732 20.0744C16.1702 20.0389 16.6435 20.014 16.9883 20C17.6636 20 18.2861 20.1171 18.8621 20.3552C19.4381 20.59 19.8965 20.9312 20.2344 21.3757C20.5757 21.8201 20.7465 22.3429 20.7465 22.9439C20.7465 23.4416 20.6184 23.9288 20.3625 24.4051C20.1063 24.8779 19.7223 25.2407 19.2068 25.4825C19.1712 25.4825 19.1322 25.5536 19.0824 25.6957C19.1501 25.8379 19.2033 25.9092 19.2494 25.9092C20.1312 26.0657 20.7711 26.4709 21.1623 27.1251C21.5569 27.7793 21.7667 28.4975 21.7916 29.2799C21.7916 30.0761 21.6423 30.7765 21.3438 31.3741C21.0452 31.9712 20.597 32.4369 20.0031 32.7676C19.4094 33.1021 18.6842 33.2763 17.8239 33.2903C17.3262 33.2903 16.679 33.212 15.8789 33.0556C15.0825 32.8991 14.4283 32.8209 13.9163 32.8209C13.5961 32.8209 13.2015 32.8424 12.7287 32.8851C12.2592 32.9279 12.014 32.9528 12 32.9528V32.1988H13.1339C13.8131 32.1988 14.1543 31.8397 14.1543 31.1179L14.1543 23.8611C14.1543 22.2575 13.9622 21.2903 13.5821 20.96C13.4717 20.8175 13.2264 20.7464 12.8352 20.7464H12ZM15.5411 26.4425V31.1144C15.5411 31.5695 15.7402 31.9213 16.1348 32.1704C16.5293 32.4191 17.0237 32.5439 17.6103 32.5439C18.1296 32.5261 18.5881 32.4157 18.9864 32.2093C19.3848 31.9996 19.6973 31.6904 19.9215 31.2743C20.1456 30.8585 20.2556 30.3499 20.2556 29.7455C20.2416 29.0701 20.0852 28.4797 19.7865 27.9785C19.4876 27.4808 19.0858 27.0968 18.5813 26.8371C18.0762 26.5741 17.5181 26.4425 16.9065 26.4425H15.5411ZM15.5411 20.9172V25.6957H16.7323C17.39 25.6957 17.9448 25.4504 18.3999 24.9632C18.855 24.476 19.0824 23.8755 19.0824 23.1571C19.043 22.3784 18.7766 21.8131 18.2789 21.454C17.7812 21.0949 17.1591 20.9172 16.4156 20.9172H15.5411Z" fill="#1A1A18"/>
<path d="M25.2429 22L25.5414 22.302C24.93 24.6025 24.6241 27.4044 24.6241 30.7073C25.2996 29.968 25.9644 29.1324 26.6119 28.1973C27.259 27.2656 27.8205 26.2985 28.3005 25.2957C28.7771 24.2896 29.1184 23.3153 29.3139 22.3625H30.7039L30.1495 31.2799L31.8348 30.9208V31.7883C30.4408 31.7883 29.2428 32.1261 28.2472 32.7944C28.7378 30.1777 29.0008 27.8027 29.0401 25.6692C27.5076 28.3039 25.8933 30.6185 24.1974 32.6239H23.0455L23.5788 23.4079L22 23.7885V23.0027C22.6293 22.9672 23.1736 22.8712 23.6392 22.7215C24.1014 22.5723 24.6348 22.3341 25.2429 22Z" fill="#1A1A18"/>
<path d="M33.8561 23.6557L32 23.9936V23.2295C32.8141 23.1368 34.0303 22.8239 35.6479 22.2905L34.9049 32.6121L33.2764 32.9572C33.6641 30.646 33.8561 28.0577 33.8561 25.1917V23.6557ZM33.536 18.4472C33.536 18.0844 33.6425 17.7503 33.8489 17.4516C34.0586 17.1493 34.3324 17 34.6702 17C34.9937 17 35.2817 17.1281 35.5304 17.3875C35.7796 17.6471 35.9038 17.9456 35.9038 18.2801C35.9038 18.646 35.7829 18.9699 35.5448 19.2507C35.3029 19.5316 35.0116 19.6775 34.6702 19.688C34.6702 19.6808 34.663 19.6775 34.6525 19.6736C34.6418 19.6703 34.6347 19.6665 34.6276 19.6665C34.3396 19.6665 34.0907 19.5421 33.8806 19.2935C33.6746 19.0481 33.5572 18.7636 33.536 18.4472Z" fill="#1A1A18"/>
<path d="M38.749 32.0041L40.7118 31.6201V32.5337C39.414 32.5801 38.1765 32.8361 37 33.3055C37.0495 32.6407 37.0849 31.9759 37.1099 31.3179C37.1349 30.6601 37.1632 29.7357 37.1988 28.5411C37.238 27.3501 37.2769 26.3401 37.3162 25.5151C37.359 24.6904 37.4157 23.8831 37.4905 23.0868C37.5937 22.0201 37.6965 21.0885 37.7925 20.2851C37.8922 19.4815 37.9989 18.7241 38.116 18.0025C38.2336 17.2841 38.3723 16.5271 38.5288 15.7303C38.6852 14.934 38.8806 14.0239 39.1153 13H41.4583V13.6327C41.3911 13.6788 41.2734 13.7641 41.1064 13.8923C40.9393 14.0204 40.7367 14.3152 40.4982 14.7812C40.2635 15.2503 40.0292 15.9616 39.798 16.9216C39.6309 17.6113 39.4849 18.6923 39.3572 20.1641C39.229 21.6361 39.1225 23.2576 39.0299 25.0245C38.941 26.7919 38.87 28.3596 38.8236 29.7323C38.774 31.1009 38.749 31.8583 38.749 32.0041Z" fill="#1A1A18"/>
<path d="M41.6403 18.536L41.3451 17.9812L43.3505 17C43.9976 17.5227 44.609 18.0949 45.1813 18.7103C45.7505 19.3289 46.2694 20.0221 46.7317 20.8007C47.194 21.5759 47.5636 22.4505 47.8409 23.4283C48.1146 24.4025 48.2533 25.4657 48.2533 26.6177C48.2533 28.3492 47.9476 29.6932 47.336 30.6497C47.2083 30.8773 46.9309 31.1581 46.5004 31.496C46.0669 31.8335 45.5653 32.1287 44.9893 32.374C44.4133 32.6193 43.8373 32.744 43.2613 32.744C42.739 32.744 42.3085 32.5588 41.9672 32.1857C41.6293 31.8157 41.3807 31.3145 41.2276 30.6853C41.075 30.0523 41 29.3591 41 28.6051C41.0144 27.7411 41.1602 26.8593 41.4445 25.9564C41.7253 25.0568 42.0953 24.2783 42.5539 23.624C43.0127 22.9732 43.496 22.5643 44.0116 22.3972C44.0081 22.3972 44.1148 22.3511 44.335 22.2585C44.552 22.1663 44.7229 22.1197 44.84 22.1197C44.9965 22.1197 45.0963 22.1625 45.1424 22.2516C45.1424 22.2623 45.1496 22.2835 45.1636 22.3227C45.178 22.3616 45.1813 22.4009 45.1813 22.4365C45.1813 22.5287 45.1387 22.6069 45.0464 22.6712C44.9576 22.7385 44.8189 22.8061 44.6375 22.8737C44.4527 22.9448 44.314 22.9981 44.2251 23.0375C43.9583 23.1512 43.6987 23.4887 43.4465 24.0469C43.1941 24.6052 42.991 25.2737 42.835 26.0452C42.6785 26.8204 42.6003 27.5528 42.6003 28.2425C42.6003 29.2415 42.7175 30.07 42.9488 30.7385C43.1831 31.4035 43.6348 31.7663 44.3068 31.8264C45.8999 31.8264 46.7317 30.1555 46.8028 26.8132C46.8028 25.8532 46.6501 24.8792 46.3442 23.8871C46.0385 22.8949 45.6436 21.9955 45.1529 21.1813C44.6658 20.3705 44.1397 19.7197 43.5781 19.2292C43.0127 18.7385 42.49 18.4967 42.0065 18.4967C41.8462 18.4967 41.7254 18.5076 41.6403 18.536Z" fill="#1A1A18"/>
</svg>
