<svg width="189" height="77" viewBox="0 0 189 77" fill="none" xmlns="http://www.w3.org/2000/svg">
<path d="M729.346 -286.99L729.346 279.939L-65.2583 279.939L-65.2583 -286.99L729.346 -286.99Z" stroke="#1A1A18" stroke-width="0.288" stroke-miterlimit="22.9256"/>
<path d="M31.1768 6.70927C30.153 6.70927 29.2391 6.9262 28.4429 7.3634C27.6427 7.7974 27.0171 8.39113 26.5655 9.14473C26.1138 9.895 25.8579 10.734 25.7975 11.6584C25.7975 12.7466 26.0678 13.7494 26.6082 14.67C27.1521 15.5944 27.8706 16.3235 28.7701 16.8641C29.6658 17.4045 30.633 17.6815 31.6679 17.6959C31.7211 17.6675 31.7922 17.6532 31.881 17.6532C32.5814 17.632 33.1646 17.5678 33.6302 17.4613C34.0997 17.3509 34.4942 17.1698 34.8215 16.9174C35.1485 16.6611 35.4187 16.3021 35.6322 15.8398L36.3787 14.2399L37.0828 14.6204L35.1167 18.4674C34.8677 19.0183 33.5379 19.2958 31.1274 19.2958C29.8011 19.2708 28.617 18.9511 27.5789 18.3358C26.5406 17.7171 25.737 16.8925 25.1649 15.8542C24.5922 14.8159 24.3042 13.6816 24.3042 12.4514C24.3186 11.2284 24.6383 10.1014 25.2609 9.07751C25.8829 8.05325 26.7219 7.24245 27.7746 6.64539C28.8268 6.04779 29.961 5.74927 31.1735 5.74927C31.5326 5.74927 31.8917 5.77793 32.2473 5.83459C32.6063 5.89166 33.0651 5.97672 33.6269 6.09432C34.1922 6.21139 34.6188 6.29352 34.9138 6.33952C35.2088 6.38565 35.5362 6.40727 35.8881 6.40727V9.37606H35.2055C35.1983 9.32952 35.1699 9.15913 35.1129 8.86393C35.0562 8.5654 34.9103 8.25955 34.6757 7.93941C34.4409 7.61968 34.0358 7.33846 33.4631 7.09326C32.8909 6.84793 32.1263 6.7198 31.1768 6.70927Z" fill="#1A1A18"/>
<path d="M37.7012 15.7509C37.7189 14.4284 37.8575 13.2515 38.1245 12.2167C38.3875 11.1823 38.8886 10.3255 39.6249 9.64628C40.3607 8.96708 41.3918 8.61523 42.7181 8.58643C43.2442 8.58643 43.6781 8.80001 44.0122 9.23014C44.3501 9.65681 44.5954 10.1973 44.7446 10.8477C44.894 11.4952 44.9794 12.1706 44.9972 12.871C44.9972 14.0407 44.8513 15.0967 44.5633 16.0461C44.2718 16.9955 43.7918 17.7597 43.1237 18.3395C42.455 18.9189 41.5805 19.2103 40.4996 19.2103H40.094C39.5538 19.1464 39.1128 19.0183 38.7716 18.8195C38.4302 18.6238 38.1671 18.2824 37.9785 17.8024C37.7937 17.3224 37.7012 16.6364 37.7012 15.7509ZM39.3441 14.7909C39.3441 15.4879 39.3797 16.0851 39.4506 16.59C39.5217 17.0915 39.6922 17.5288 39.9625 17.8984C40.2326 18.2647 40.6416 18.4674 41.1821 18.5066C42.0177 18.5066 42.6149 18.0444 42.9705 17.1233C43.3262 16.2025 43.5038 15.0895 43.5038 13.792V13.4896C43.5038 12.391 43.3334 11.4238 42.9956 10.5884C42.6576 9.75282 42.1032 9.33333 41.328 9.33333C40.8514 9.35827 40.4674 9.68521 40.1759 10.3183C39.8842 10.9509 39.6782 11.68 39.5573 12.5119C39.4364 13.3404 39.3653 14.1012 39.3441 14.7909Z" fill="#1A1A18"/>
<path d="M52.6346 19.3384L52.297 19.0788C52.791 17.2797 53.0684 14.3785 53.1255 10.3787C52.1367 11.5519 51.4647 12.3625 51.1095 12.8142C50.75 13.2621 50.3732 13.806 49.9752 14.4496C49.5768 15.0895 49.2427 15.7864 48.9687 16.5439C48.6918 17.2975 48.4998 18.1297 48.3894 19.0398H47.0881L47.5964 9.99093L45.936 10.3787V9.54305C47.2162 9.54305 48.3678 9.21237 49.3883 8.5437L48.6667 15.3243C49.1075 14.4957 49.5663 13.7314 50.0391 13.0273C50.5158 12.327 51.0346 11.6406 51.5963 10.9686C52.1546 10.2966 52.8087 9.56796 53.5518 8.77836H54.7215L54.2133 17.824L55.7492 17.632V18.375C54.686 18.414 53.6478 18.7341 52.6346 19.3384Z" fill="#1A1A18"/>
<path d="M57.3565 16.5012C57.3565 16.9135 57.4415 17.2726 57.6089 17.5894C57.7795 17.9023 58.0107 18.1438 58.3021 18.3108C58.5935 18.4783 58.9103 18.5634 59.2516 18.5704C59.806 18.5704 60.2788 18.4105 60.67 18.0871C61.0612 17.7669 61.2566 17.3224 61.2566 16.7571C61.2566 16.3092 61.15 15.943 60.9403 15.6515C60.7304 15.3598 60.4107 15.0612 59.9768 14.752L58.846 13.9198C58.0214 13.2444 57.5908 12.4336 57.5485 11.488C57.5485 10.6595 57.7795 9.98747 58.2451 9.46147C58.7111 8.93867 59.3936 8.64696 60.2965 8.58643C60.5563 8.58643 60.862 8.62575 61.2143 8.70402C61.5695 8.78229 61.7404 8.82121 61.726 8.82121V11.0791H61.0861V10.5064C61.0861 10.1546 60.9973 9.84164 60.8264 9.57137C60.656 9.29777 60.4141 9.16243 60.1045 9.16243C59.7671 9.16243 59.4719 9.32949 59.2195 9.65682C58.9707 9.98375 58.846 10.3183 58.846 10.6524C58.8926 11.4986 59.3332 12.2239 60.1688 12.8283L61.1323 13.4896C62.0424 14.1155 62.5189 14.9119 62.5583 15.8824C62.5583 16.3092 62.4264 16.7786 62.1633 17.2903C61.904 17.8024 61.52 18.2364 61.0184 18.592C60.5173 18.9473 59.927 19.1254 59.2516 19.1254H59.2088C58.5546 19.1254 57.9929 19.0361 57.5197 18.8584C57.0507 18.6843 56.7235 18.535 56.542 18.4178L56.7983 15.1999L57.4594 15.2854C57.4487 15.2994 57.4347 15.4418 57.4132 15.7048C57.3955 15.9679 57.3776 16.2347 57.3565 16.5012Z" fill="#1A1A18"/>
<path d="M67.4613 9.29057C66.711 9.30843 66.1566 9.84162 65.7972 10.8871C65.4381 11.9324 65.2461 13.1234 65.2212 14.4568C65.2212 16.7858 65.8326 17.9517 67.0561 17.9517C67.6994 17.8984 68.2081 17.6959 68.5849 17.3331C68.9583 16.974 69.2214 16.6044 69.3706 16.2166C69.5199 15.8326 69.5945 15.5804 69.5945 15.4558H70.1742C70.1742 15.6834 70.0782 16.0851 69.8862 16.6683C69.6942 17.2514 69.3314 17.8063 68.7946 18.3357C68.2575 18.8623 67.5111 19.1254 66.5474 19.1254C65.8437 19.111 65.271 18.9367 64.8304 18.606C64.3926 18.2719 64.0763 17.838 63.8881 17.3014C63.6995 16.7643 63.5963 16.1633 63.5786 15.4951C63.5786 14.7127 63.6534 13.927 63.8026 13.1412C63.9519 12.3592 64.2045 11.6158 64.5564 10.9154C64.912 10.2114 65.3847 9.64961 65.9786 9.22294C66.5723 8.80001 67.2905 8.58643 68.1261 8.58643C68.6704 8.58643 69.2391 8.75014 69.8291 9.07747V11.6195L68.5494 11.6195V10.9971C68.5494 9.85934 68.1866 9.29057 67.4613 9.29057Z" fill="#1A1A18"/>
<path d="M78.2133 8.82125V10.6135C78.1921 10.6063 78.1494 10.5954 78.0855 10.5847C78.0213 10.5742 77.9358 10.5707 77.8293 10.5707C77.1255 10.5707 76.3858 11.4098 75.6073 13.0879C75.2622 13.8594 74.953 14.6738 74.6827 15.5306C74.4087 16.3841 74.1918 17.1554 74.0247 17.8486C73.8577 18.5383 73.7761 18.9367 73.7761 19.0399H72.6667L73.1539 10.0798L71.0454 10.5065V9.65352C71.5609 9.64246 72.1762 9.54312 72.8943 9.35445C73.6125 9.16965 74.2417 8.95273 74.7787 8.7146L74.498 14.0906C74.5192 14.0407 74.6757 13.6567 74.9707 12.9349C75.2622 12.2134 75.5003 11.6444 75.6817 11.2355C75.8631 10.8232 76.0446 10.4461 76.2255 10.1047C76.407 9.7634 76.5778 9.50751 76.7377 9.33671C77.0718 8.96364 77.4346 8.77844 77.8293 8.77844C77.9358 8.77844 78.0213 8.78231 78.0855 8.79285C78.1494 8.80338 78.1921 8.81405 78.2133 8.82125Z" fill="#1A1A18"/>
<path d="M80.9016 10.0798L79.0454 10.4176V9.65352C79.8595 9.56086 81.0757 9.24793 82.6934 8.7146L81.9504 19.0362L80.3217 19.3813C80.7096 17.0701 80.9016 14.4818 80.9016 11.6158V10.0798ZM80.5814 4.87126C80.5814 4.50846 80.688 4.17432 80.8944 3.87565C81.1041 3.57338 81.3777 3.42407 81.7157 3.42407C82.0392 3.42407 82.3271 3.5522 82.5758 3.8114C82.8249 4.07113 82.9493 4.36965 82.9493 4.70418C82.9493 5.07005 82.8283 5.39392 82.5902 5.67472C82.3483 5.95552 82.0569 6.10153 81.7157 6.11206C81.7157 6.10486 81.7085 6.10152 81.6978 6.09766C81.6873 6.09432 81.6801 6.09045 81.6729 6.09045C81.3849 6.09045 81.1362 5.9662 80.9261 5.71753C80.7201 5.4722 80.6025 5.18752 80.5814 4.87126Z" fill="#1A1A18"/>
<path d="M85.5916 9.90934L83.8496 10.336V9.37935C85.0655 9.29055 86.2315 9.02749 87.3412 8.58643C87.2947 8.94549 87.2201 9.47921 87.1171 10.1935C87.0172 10.9048 86.9428 11.5164 86.8895 12.0247C86.8362 12.5331 86.8042 13.0524 86.7898 13.5823C86.8468 14.0868 86.8751 14.464 86.8751 14.7094C86.8751 14.574 87.0104 14.1723 87.2841 13.4968C87.5543 12.8248 87.91 12.1067 88.3472 11.3455C88.7808 10.5847 89.2895 9.92335 89.8761 9.36548C90.4592 8.80721 91.0602 8.5192 91.6751 8.50146C92.1052 8.50146 92.3792 8.63974 92.4964 8.92094C92.6174 9.20174 92.6779 9.58575 92.6779 10.0798V12.4907C92.6779 13.3724 92.5891 14.2044 92.4076 14.983C92.2261 15.7654 91.9525 16.4623 91.5791 17.0844C91.2095 17.7031 90.7435 18.2043 90.1784 18.5848C89.6164 18.9651 88.9621 19.1858 88.2157 19.2531L88.1337 18.7413C88.6813 18.6521 89.1081 18.5028 89.4139 18.2931C89.9328 17.8951 90.3345 17.1698 90.6225 16.1138C90.9105 15.0612 91.0564 13.9375 91.0564 12.7465V10.3787C91.0564 9.93044 90.9143 9.68895 90.6297 9.65348C90.3881 9.65348 90.0109 9.99093 89.4992 10.6667C88.9871 11.3421 88.4894 12.2027 87.9988 13.2478C87.5082 14.2932 87.1492 15.3492 86.9144 16.4124C86.8007 17.0062 86.6692 17.6993 86.5162 18.4851C86.363 19.2745 86.2315 20.0248 86.1178 20.7358C86.0078 21.4471 85.9117 22.2041 85.8263 23.0076L85.6804 24.7572L84.55 25.2051C84.7064 24.0103 84.838 22.7733 84.9412 21.4932C85.0477 20.2131 85.1221 19.1321 85.1721 18.2469C85.2181 17.3617 85.2859 16.0284 85.3675 14.2504C85.4529 12.4729 85.5277 11.0257 85.5916 9.90934Z" fill="#1A1A18"/>
<path d="M95.085 9.63192L93.6982 9.6958V8.77844L95.1738 8.82125L95.2981 6.75191L96.9229 6.36792L96.667 8.82125L98.9318 8.77844L98.8894 9.65352L96.4535 9.63192C96.4146 9.72072 96.3469 11.7474 96.2616 15.7083C96.2616 16.3342 96.2797 16.8103 96.3114 17.1377C96.3436 17.4613 96.4323 17.728 96.5782 17.9268C96.7275 18.1298 96.9585 18.2365 97.282 18.2503C97.3036 18.2293 97.3213 18.2149 97.339 18.2114C97.3534 18.2081 97.3641 18.2043 97.3712 18.2043C97.8618 18.1582 98.2636 17.9234 98.5728 17.5039C98.8822 17.0806 99.0349 16.5118 99.0349 15.7971H99.636C99.636 16.4445 99.5116 17.0167 99.2697 17.5183C99.0278 18.0194 98.683 18.4034 98.2419 18.6771C97.8013 18.9474 97.2891 19.0826 96.7098 19.0826C96.2438 19.0826 95.8352 19.0115 95.4829 18.8656C95.131 18.7198 94.8859 18.6026 94.7437 18.5066C94.7328 18.2754 94.7187 17.9306 94.7043 17.479C94.6899 17.0274 94.6761 16.6898 94.6617 16.4585C94.6938 14.9902 94.8325 12.7145 95.085 9.63192Z" fill="#1A1A18"/>
<path d="M114.821 17.5428C115.084 17.3118 115.28 16.9633 115.415 16.5012C115.546 16.0426 115.614 15.7365 115.614 15.5873L116.488 15.904C116.19 16.6114 115.884 17.6283 115.571 18.9544C113.936 18.8691 112.129 18.8263 110.152 18.8263C108.41 18.8263 106.885 18.8691 105.569 18.9544V18.1653H106.483C106.945 18.1653 107.258 18.0337 107.418 17.7669C107.578 17.5039 107.657 17.1093 107.657 16.5865V9.54639C107.657 8.88159 107.625 8.3484 107.564 7.93933C107.504 7.5304 107.372 7.22836 107.166 7.0293C107.027 6.87276 106.636 6.79451 105.996 6.79451H105.569V5.96265C105.935 6.02998 106.938 6.09426 108.57 6.15466C110.206 6.09426 111.194 6.04772 111.536 6.00879V6.83732H110.494C109.569 6.83732 109.107 7.46318 109.107 8.71798V15.1998C109.107 15.8325 109.157 16.3269 109.257 16.6788C109.356 17.0344 109.498 17.2902 109.687 17.454C109.879 17.6142 110.131 17.7385 110.451 17.824C111.002 17.9733 111.699 18.0727 112.542 18.1225C113.711 18.0727 114.472 17.8806 114.821 17.5428Z" fill="#1A1A18"/>
<path d="M123.553 15.3243L124.215 15.413C124.215 15.7082 124.126 16.1421 123.951 16.7109C123.774 17.2834 123.415 17.8273 122.867 18.3462C122.32 18.8656 121.544 19.1253 120.542 19.1253C119.816 19.1253 119.219 18.9366 118.75 18.5561C118.281 18.1793 117.939 17.6742 117.726 17.0382C117.513 16.4052 117.406 15.701 117.406 14.9224C117.448 14.1049 117.537 13.3369 117.676 12.6256C117.815 11.9109 118.032 11.2461 118.32 10.6312C118.611 10.0124 118.995 9.51812 119.475 9.14132C119.952 8.76438 120.528 8.5653 121.203 8.5437C121.79 8.5437 122.263 8.66129 122.625 8.89929C122.984 9.13743 123.244 9.46143 123.4 9.8665C123.557 10.2717 123.635 10.734 123.635 11.2533C123.635 11.6977 123.55 12.2914 123.379 13.0417C121.982 13.5073 120.507 13.8309 118.959 14.0052C118.953 14.0052 118.924 14.2543 118.878 14.752C118.96 16.9351 119.706 18.0583 121.118 18.1225C121.551 18.1225 121.957 18.0016 122.334 17.7564C122.707 17.5111 123.006 17.1837 123.223 16.7785C123.443 16.3731 123.553 15.9466 123.553 15.4984V15.3243ZM119.045 13.3188L120.926 13.0417C121.371 12.9564 121.719 12.7288 121.964 12.3592C122.209 11.9929 122.334 11.5663 122.334 11.0791C122.334 10.528 122.266 10.062 122.128 9.68518C121.993 9.30838 121.683 9.11971 121.203 9.11971C120.488 9.13744 119.952 9.62836 119.596 10.5953C119.237 11.559 119.041 12.4336 119.002 13.216C119.02 13.2409 119.031 13.2621 119.038 13.2798C119.041 13.2976 119.045 13.312 119.045 13.3188Z" fill="#1A1A18"/>
<path d="M125.491 10.0375L125.534 12.5758H124.809L124.898 8.7146C125.502 8.77513 126.501 8.83898 127.902 8.90658C129.413 8.83898 130.48 8.77513 131.106 8.7146L131.23 9.20524C130.946 9.29777 130.622 9.55033 130.26 9.96606C129.897 10.3822 129.552 10.8976 129.225 11.513C128.898 12.1279 128.631 12.7894 128.425 13.5041C128.219 14.215 128.115 14.8942 128.115 15.5413C128.183 17.1766 128.823 17.9945 130.039 17.9945C130.842 17.9945 131.564 17.7171 132.197 17.1626C132.834 16.6045 133.324 15.8863 133.673 15.0079C134.021 14.1295 134.192 13.2266 134.192 12.2987V8.7146H136.116C135.817 9.511 135.646 10.3144 135.603 11.1252C135.646 11.8648 135.817 12.6506 136.116 13.4931C136.001 13.4931 135.888 13.5074 135.778 13.5325C135.507 13.4931 135.255 13.3937 135.027 13.2373C134.682 14.9263 133.95 16.2843 132.83 17.3154C131.706 18.3463 130.402 18.9085 128.908 18.9973H127.241C126.871 18.3607 126.633 17.8951 126.523 17.5965C126.409 17.2975 126.345 16.8463 126.324 16.2454C126.324 15.463 126.53 14.6095 126.938 13.6851C127.347 12.7645 127.795 11.9359 128.279 11.2001C128.763 10.4638 129.043 10.0764 129.122 10.0375H125.491Z" fill="#1A1A18"/>
<path d="M138.803 10.0798L136.947 10.4176V9.65352C137.761 9.56086 138.978 9.24793 140.595 8.7146L139.852 19.0362L138.224 19.3813C138.611 17.0701 138.803 14.4818 138.803 11.6158V10.0798ZM138.483 4.87126C138.483 4.50846 138.59 4.17432 138.796 3.87565C139.006 3.57338 139.28 3.42407 139.618 3.42407C139.941 3.42407 140.229 3.5522 140.478 3.8114C140.727 4.07113 140.851 4.36965 140.851 4.70418C140.851 5.07005 140.73 5.39392 140.492 5.67472C140.25 5.95552 139.959 6.10153 139.618 6.11206C139.618 6.10486 139.61 6.10152 139.6 6.09766C139.589 6.09432 139.582 6.09045 139.575 6.09045C139.287 6.09045 139.038 5.9662 138.828 5.71753C138.622 5.4722 138.504 5.18752 138.483 4.87126Z" fill="#1A1A18"/>
<path d="M148.001 15.3243L148.662 15.413C148.662 15.7082 148.573 16.1421 148.399 16.7109C148.222 17.2834 147.863 17.8273 147.315 18.3462C146.767 18.8656 145.992 19.1253 144.99 19.1253C144.264 19.1253 143.667 18.9366 143.198 18.5561C142.728 18.1793 142.387 17.6742 142.174 17.0382C141.96 16.4052 141.854 15.701 141.854 14.9224C141.896 14.1049 141.985 13.3369 142.124 12.6256C142.262 11.9109 142.479 11.2461 142.767 10.6312C143.059 10.0124 143.443 9.51812 143.923 9.14132C144.399 8.76438 144.975 8.5653 145.651 8.5437C146.238 8.5437 146.711 8.66129 147.073 8.89929C147.432 9.13743 147.692 9.46143 147.848 9.8665C148.005 10.2717 148.083 10.734 148.083 11.2533C148.083 11.6977 147.997 12.2914 147.827 13.0417C146.43 13.5073 144.954 13.8309 143.407 14.0052C143.4 14.0052 143.372 14.2543 143.326 14.752C143.407 16.9351 144.154 18.0583 145.566 18.1225C145.999 18.1225 146.405 18.0016 146.782 17.7564C147.155 17.5111 147.454 17.1837 147.671 16.7785C147.891 16.3731 148.001 15.9466 148.001 15.4984V15.3243ZM143.493 13.3188L145.374 13.0417C145.818 12.9564 146.166 12.7288 146.412 12.3592C146.657 11.9929 146.782 11.5663 146.782 11.0791C146.782 10.528 146.714 10.062 146.575 9.68518C146.44 9.30838 146.131 9.11971 145.651 9.11971C144.936 9.13744 144.399 9.62836 144.044 10.5953C143.685 11.559 143.489 12.4336 143.45 13.216C143.468 13.2409 143.478 13.2621 143.486 13.2798C143.489 13.2976 143.493 13.312 143.493 13.3188Z" fill="#1A1A18"/>
<path d="M150.412 16.5012C150.412 16.9135 150.497 17.2726 150.665 17.5894C150.835 17.9023 151.066 18.1438 151.358 18.3108C151.649 18.4783 151.966 18.5634 152.307 18.5704C152.862 18.5704 153.334 18.4105 153.726 18.0871C154.117 17.7669 154.312 17.3224 154.312 16.7571C154.312 16.3092 154.206 15.943 153.996 15.6515C153.786 15.3598 153.466 15.0612 153.032 14.752L151.902 13.9198C151.077 13.2444 150.646 12.4336 150.604 11.488C150.604 10.6595 150.835 9.98747 151.301 9.46147C151.767 8.93867 152.449 8.64696 153.352 8.58643C153.612 8.58643 153.918 8.62575 154.27 8.70402C154.625 8.78229 154.796 8.82121 154.782 8.82121V11.0791H154.142V10.5064C154.142 10.1546 154.053 9.84164 153.882 9.57137C153.712 9.29777 153.47 9.16243 153.16 9.16243C152.823 9.16243 152.528 9.32949 152.275 9.65682C152.026 9.98375 151.902 10.3183 151.902 10.6524C151.948 11.4986 152.389 12.2239 153.224 12.8283L154.188 13.4896C155.098 14.1155 155.575 14.9119 155.614 15.8824C155.614 16.3092 155.482 16.7786 155.219 17.2903C154.96 17.8024 154.576 18.2364 154.074 18.592C153.573 18.9473 152.983 19.1254 152.307 19.1254H152.264C151.61 19.1254 151.049 19.0361 150.575 18.8584C150.107 18.6843 149.779 18.535 149.598 18.4178L149.854 15.1999L150.515 15.2854C150.504 15.2994 150.49 15.4418 150.469 15.7048C150.451 15.9679 150.433 16.2347 150.412 16.5012Z" fill="#1A1A18"/>
<path d="M28.5786 46.3822H24.8721L24.3334 50.2595H28.0079L28.5786 46.3822ZM32.3918 51.8277H29.3145L28.5201 57.9395H26.8881L27.7521 51.8277H24.1362L23.2665 57.9395H21.6345L22.4399 51.8277H19.4961V50.3234H22.6962L23.2665 46.4517H20.2641V44.8835H23.4642L24.2586 39.0544H25.896L25.0641 44.8835H28.776L29.5708 39.0544H31.2028L30.3758 44.8835H33.0638V46.4517H30.1521L29.5708 50.3234H32.3918V51.8277Z" fill="#1A1A18"/>
<path d="M89.0585 50.8616L88.7063 49.6775L91.9439 47.0533C93.5437 45.7683 94.3439 44.2108 94.3439 42.3815C94.3439 41.7095 94.1039 41.1071 93.6291 40.568C93.1491 40.0295 92.5889 39.7578 91.9439 39.7578H91.8104C91.0424 39.7842 90.4238 40.1255 89.9543 40.7869C89.4906 41.4483 89.1599 42.1468 88.9784 42.8778C88.797 43.6031 88.7063 44.0777 88.7063 44.2961L87.7463 43.5017C87.7463 43.3415 87.9651 42.755 88.3971 41.7416C88.8344 40.7231 89.4051 39.7948 90.1146 38.9471C90.8183 38.099 91.6238 37.6775 92.5199 37.6775C93.2451 37.6775 93.885 37.8483 94.4504 38.1843C95.0106 38.5203 95.4584 38.9788 95.7944 39.5604C96.1251 40.1471 96.3224 40.787 96.3863 41.4858C96.3863 42.3551 96.1251 43.2243 95.6077 44.1042C95.0849 44.9788 94.509 45.7415 93.885 46.3976C93.2558 47.048 92.9091 47.3735 92.8343 47.3735C92.8986 47.3682 93.0051 47.3523 93.1598 47.336C93.309 47.3202 93.4904 47.3149 93.6983 47.3149C94.5623 47.3149 95.3303 47.5708 95.9918 48.0881C96.6531 48.6003 96.9998 49.5709 97.0262 50.9951C97.0262 52.5469 96.6209 53.9869 95.8049 55.3256C94.9943 56.6587 93.9171 57.7199 92.5784 58.5095C91.2398 59.2987 89.8424 59.6936 88.3865 59.6936C87.9224 59.6936 87.5116 59.6615 87.1649 59.5976C86.8131 59.5333 86.6532 59.4959 86.6903 59.4959V58.3175C87.1276 58.595 87.7358 58.7336 88.5196 58.7336C89.4316 58.7336 90.3546 58.4879 91.2824 57.992C92.2103 57.4962 92.9783 56.7762 93.5864 55.832C94.1945 54.8883 94.4984 53.7733 94.4984 52.4936C94.4984 51.5816 94.3491 50.8511 94.0506 50.3068C93.757 49.7576 93.0959 49.4428 92.0663 49.3573C91.6343 49.3573 91.1918 49.4696 90.7439 49.688C90.2903 49.907 89.8958 50.1469 89.5598 50.408C89.2238 50.6696 89.0585 50.8189 89.0585 50.8616Z" fill="#1A1A18"/>
<path d="M122.363 42.2481H118.656L118.118 46.1256H121.792L122.363 42.2481ZM126.176 47.6937H123.099L122.304 53.8056H120.672L121.536 47.6937H117.92L117.051 53.8056H115.419L116.224 47.6937H113.28V46.1895H116.48L117.051 42.3177H114.048V40.7496H117.248L118.043 34.9204H119.68L118.848 40.7496H122.56L123.355 34.9204H124.987L124.16 40.7496H126.848V42.3177H123.936L123.355 46.1895H126.176V47.6937Z" fill="#1A1A18"/>
<path d="M105.739 46.7653L109.277 51.6722C109.938 52.5679 110.692 53.0162 111.538 53.0162H111.986V53.8481C110.891 53.7061 109.917 53.6346 109.064 53.6346C108.175 53.6346 107.14 53.7061 105.953 53.8481V53.0162H107.165C107.748 53.0162 108.04 52.8738 108.04 52.593C108.04 52.376 107.912 52.0986 107.656 51.7573L104.815 48.0242L102.322 51.7999C102.169 52.0669 102.07 52.3015 102.024 52.5041C102.059 52.8775 102.493 53.0623 103.325 53.0623H104.16V53.8481C103.24 53.7627 102.28 53.7238 101.28 53.7238C100.104 53.7238 99.0512 53.777 98.1196 53.8909V53.105C99.5811 53.105 100.633 52.6285 101.28 51.6722L104.367 47.3023L101.362 43.313C100.896 42.6622 100.463 42.2143 100.065 41.9725C99.6661 41.7271 99.069 41.6029 98.269 41.6029V40.771C99.1507 40.881 100.157 40.9591 101.28 41.0057C102.457 40.9519 103.346 40.8919 103.947 40.817V41.6455H103.112C102.589 41.6455 102.312 41.7521 102.28 41.969C102.344 42.2181 102.457 42.4597 102.624 42.691L105.16 46.1893L107.033 43.1815C107.364 42.609 107.528 42.2321 107.528 42.0507C107.528 41.7521 107.25 41.6029 106.696 41.6029H105.821V40.817C106.603 40.9025 107.421 40.963 108.274 41.0057C109.213 40.963 110.077 40.9025 110.855 40.817V41.6455H110.408C110.031 41.6455 109.746 41.6739 109.554 41.7343C109.362 41.7914 109.206 41.8909 109.078 42.0261C108.95 42.161 108.758 42.4241 108.498 42.8081C108.239 43.1959 107.969 43.569 107.695 43.9318L105.739 46.7653Z" fill="#1A1A18"/>
<path d="M155.649 20.2825C169.334 20.2825 180.428 31.9147 180.428 46.2641C180.428 60.6135 169.334 72.2457 155.649 72.2457C141.964 72.2457 130.871 60.6135 130.871 46.2641C130.871 31.9147 141.964 20.2825 155.649 20.2825Z" stroke="#1A1A18" stroke-width="1.92" stroke-miterlimit="22.9256" stroke-dasharray="9.6 5.76"/>
<path fill-rule="evenodd" clip-rule="evenodd" d="M48.0909 32.7849L45.0374 43.6113L34.9844 43.0633L43.5805 49.5433L39.9906 59.694L48.3566 52.8722L56.1913 59.694L52.7658 48.9978L61.1976 43.0633L50.7144 43.2745L48.0909 32.7849Z" fill="white"/>
<path d="M48.0909 32.7849L45.0374 43.6113L34.9844 43.0633L43.5805 49.5433L39.9906 59.694L48.3566 52.8722L56.1913 59.694L52.7658 48.9978L61.1976 43.0633L50.7144 43.2745L48.0909 32.7849Z" stroke="#1A1A18" stroke-width="0.288" stroke-miterlimit="22.9256"/>
<path d="M156.121 32L162.681 35.5786L169.242 39.1569L162.681 43.2358L156.181 46.7358L149.561 42.7358L143 39L149.561 35.5786L156.121 32Z" fill="#B1B2B2" stroke="#1A1A18" stroke-width="0.288" stroke-miterlimit="22.9256"/>
<path d="M143.541 53.6996L143.361 46.468L143.182 39.2358L149.682 42.7358L156.181 46.7358V53.7358V61.2358L149.861 57.4677L143.541 53.6996Z" fill="#B1B2B2" stroke="#1A1A18" stroke-width="0.288" stroke-miterlimit="22.9256"/>
<path d="M156.182 46.7358L162.861 43.0039L169.182 39.2358L169.002 46.4681L168.823 53.7001L162.502 57.4677L156.182 61.2358V54.2358V46.7358Z" fill="#B1B2B2" stroke="#1A1A18" stroke-width="0.288" stroke-miterlimit="22.9256"/>
<path d="M82.0607 49.0607C82.6464 48.4749 82.6464 47.5251 82.0607 46.9393L72.5147 37.3934C71.9289 36.8076 70.9792 36.8076 70.3934 37.3934C69.8076 37.9792 69.8076 38.9289 70.3934 39.5147L78.8787 48L70.3934 56.4853C69.8076 57.0711 69.8076 58.0208 70.3934 58.6066C70.9792 59.1924 71.9289 59.1924 72.5147 58.6066L82.0607 49.0607ZM64 49.5H81V46.5H64V49.5Z" fill="black"/>
</svg>
