<svg width="74" height="85" viewBox="0 0 74 85" fill="none" xmlns="http://www.w3.org/2000/svg">
<path d="M250.346 -476.99L250.346 89.9393L-544.258 89.9393L-544.258 -476.99L250.346 -476.99Z" stroke="#1A1A18" stroke-width="0.288" stroke-miterlimit="22.9256"/>
<path d="M250.501 -100.973L250.501 90.7076L-13.3506 90.7076L-13.3506 -100.973L250.501 -100.973Z" stroke="#1A1A18" stroke-width="2.6664" stroke-miterlimit="22.9256"/>
<path d="M2.94906 9.10742H2.604V8.31836C3.4324 8.39276 4.22879 8.4426 4.99333 8.46753C5.41293 8.46033 6.06004 8.4354 6.93457 8.3894C7.80577 8.34327 8.63081 8.31836 9.40934 8.31836C10.5009 8.31836 11.468 8.48538 12.3105 8.82324C13.1533 9.16071 13.8575 9.62673 14.4154 10.2205C14.9736 10.8177 15.3969 11.5146 15.6811 12.3182C15.9657 13.1183 16.1079 13.9751 16.1079 14.8886C16.1079 15.8169 15.9691 16.6914 15.6955 17.5199C15.4219 18.3446 15.0095 19.0737 14.4547 19.7102C13.8999 20.3429 13.2032 20.8373 12.3571 21.1964C11.5142 21.5553 10.5469 21.7367 9.45199 21.7367C8.97545 21.7367 8.42112 21.6978 7.78459 21.6195C7.14805 21.5414 6.50814 21.4631 5.87174 21.3848C5.23521 21.3066 4.67712 21.2673 4.20418 21.2673C3.69552 21.2673 3.16214 21.3101 2.604 21.3954V20.5598H3.64933C3.95507 20.5598 4.21095 20.4675 4.42082 20.2862C4.63095 20.1014 4.73747 19.8594 4.73747 19.5609V19.1768L4.73747 12.3038C4.73747 11.2871 4.69814 10.5653 4.61654 10.1352C4.53827 9.70504 4.38185 9.42379 4.14705 9.29606C3.91239 9.17126 3.51439 9.10742 2.94906 9.10742ZM6.31616 9.23177L6.31616 18.3873C6.31616 19.2086 6.55426 19.8311 7.03426 20.2612C7.51426 20.6912 8.30721 20.9049 9.40934 20.9049C10.2661 20.8694 11.0058 20.6984 11.6245 20.3855C12.2394 20.0763 12.7411 19.6604 13.1284 19.1448C13.5124 18.6258 13.7971 18.0354 13.9819 17.3669C14.1667 16.7021 14.2627 15.9873 14.2732 15.2265C14.2732 14.4195 14.1383 13.6443 13.868 12.9084C13.6012 12.1688 13.21 11.5146 12.7017 10.9386C12.1896 10.3626 11.578 9.91478 10.8638 9.59131C10.1491 9.26731 9.35602 9.10742 8.49202 9.10742H7.97656L6.31616 9.23177Z" fill="#1A1A18"/>
<path d="M18.7746 12.4353L16.9185 12.7733V12.009C17.7326 11.9164 18.9489 11.6034 20.5665 11.0702L19.8234 21.3917L18.1947 21.7367C18.5826 19.4255 18.7746 16.8374 18.7746 13.9713V12.4353ZM18.4544 7.22673C18.4544 6.86393 18.561 6.52982 18.7674 6.23128C18.9771 5.92888 19.2507 5.77954 19.5887 5.77954C19.9122 5.77954 20.2002 5.90766 20.4489 6.16699C20.698 6.42659 20.8223 6.72525 20.8223 7.05965C20.8223 7.42552 20.7014 7.74955 20.4633 8.03035C20.2214 8.31115 19.9299 8.457 19.5887 8.46753C19.5887 8.46033 19.5815 8.45702 19.5709 8.45329C19.5603 8.44982 19.5531 8.44604 19.5459 8.44604C19.2579 8.44604 19.0093 8.32166 18.7992 8.073C18.5932 7.82766 18.4756 7.54313 18.4544 7.22673Z" fill="#1A1A18"/>
<path d="M22.6397 18.8569C22.6397 19.2693 22.7248 19.6283 22.8921 19.945C23.0626 20.2579 23.294 20.4994 23.5853 20.6664C23.8768 20.8339 24.1934 20.919 24.5347 20.9262C25.0891 20.9262 25.5619 20.7663 25.9531 20.4427C26.3443 20.1226 26.5398 19.6782 26.5398 19.1127C26.5398 18.6648 26.4332 18.2986 26.2235 18.0072C26.0137 17.7154 25.694 17.4168 25.2601 17.1076L24.1292 16.2754C23.3045 15.6001 22.874 14.7893 22.8317 13.8436C22.8317 13.0152 23.0626 12.3432 23.5282 11.8171C23.9942 11.2944 24.6769 11.0025 25.5798 10.9421C25.8394 10.9421 26.1451 10.9815 26.4974 11.0597C26.8527 11.1379 27.0236 11.1768 27.0092 11.1768V13.4347H26.3693V12.8621C26.3693 12.5103 26.2805 12.1974 26.1097 11.9271C25.9392 11.6535 25.6973 11.5181 25.3879 11.5181C25.0503 11.5181 24.755 11.6853 24.5026 12.0125C24.2539 12.3394 24.1292 12.6739 24.1292 13.0081C24.1757 13.8543 24.6163 14.5795 25.4521 15.1839L26.4154 15.8454C27.3256 16.4712 27.8021 17.2675 27.8414 18.2381C27.8414 18.6648 27.7096 19.1343 27.4465 19.646C27.1872 20.1581 26.8031 20.592 26.3017 20.9476C25.8005 21.3029 25.2101 21.481 24.5347 21.481H24.4921C23.8378 21.481 23.2761 21.3917 22.8029 21.2141C22.334 21.0398 22.0067 20.8906 21.8252 20.7735L22.0815 17.5555L22.7425 17.641C22.732 17.655 22.718 17.7975 22.6964 18.0604C22.6786 18.3235 22.6609 18.5905 22.6397 18.8569Z" fill="#1A1A18"/>
<path d="M30.4577 12.2648L28.7158 12.6915V11.7349C29.9317 11.6461 31.0976 11.383 32.2074 10.942C32.1608 11.301 32.0864 11.8347 31.9832 12.5491C31.8834 13.2603 31.8089 13.8719 31.7557 14.3803C31.7024 14.8886 31.6702 15.4079 31.6558 15.9377C31.7129 16.4423 31.7413 16.8194 31.7413 17.0648C31.7413 16.9294 31.8766 16.5278 32.1502 15.8523C32.4205 15.1803 32.7761 14.4623 33.2135 13.7011C33.6469 12.9403 34.1557 12.2788 34.7423 11.7209C35.3255 11.1627 35.9264 10.8747 36.5413 10.8569C36.9715 10.8569 37.2454 10.9952 37.3626 11.2764C37.4836 11.5573 37.544 11.9414 37.544 12.4352V14.8463C37.544 15.728 37.4551 16.5598 37.2737 17.3384C37.0923 18.1208 36.8186 18.8177 36.4453 19.4399C36.0757 20.0585 35.6096 20.5597 35.0447 20.9403C34.4827 21.3205 33.8284 21.5414 33.0819 21.6086L32.9998 21.0968C33.5476 21.0076 33.9742 20.8583 34.2799 20.6485C34.7989 20.2505 35.2007 19.5253 35.4887 18.4693C35.7767 17.4167 35.9227 16.2931 35.9227 15.1021V12.7343C35.9227 12.286 35.7805 12.0444 35.4958 12.009C35.2544 12.009 34.8772 12.3464 34.3655 13.0222C33.8533 13.6976 33.3556 14.5583 32.8649 15.6032C32.3744 16.6487 32.0153 17.7046 31.7807 18.7678C31.6668 19.3616 31.5353 20.0548 31.3822 20.8405C31.2292 21.6301 31.0976 22.3803 30.9839 23.0912C30.8739 23.8026 30.7779 24.5596 30.6925 25.3632L30.5466 27.1126L29.4161 27.5605C29.5726 26.3659 29.7041 25.1288 29.8073 23.8486C29.9138 22.5685 29.9884 21.4876 30.0382 20.6024C30.0844 19.7173 30.152 18.3838 30.2336 16.606C30.319 14.8284 30.3938 13.3813 30.4577 12.2648Z" fill="#1A1A18"/>
<path d="M46.0349 20.2258C46.4368 20.0944 46.7992 20.0017 47.1228 19.9485L47.3789 20.4355C46.6642 20.5921 46.1593 20.727 45.8676 20.8374C45.5728 20.9477 45.1033 21.1753 44.4562 21.5237C44.4313 21.5521 44.3709 21.5627 44.2854 21.5627C44.2287 21.5627 44.2039 21.481 44.2039 21.3102C44.3603 20.3253 44.4634 19.6072 44.5129 19.1554C44.5594 18.7042 44.5806 18.1705 44.5806 17.5556V16.4674L42.7494 19.4296C42.3904 20.0233 41.9425 20.5138 41.3982 20.9013C40.8543 21.289 40.2999 21.481 39.7378 21.481C38.9309 21.4417 38.5254 20.6737 38.5254 19.1733C38.5719 18.2881 38.7957 17.3602 39.2046 16.3825C39.6135 15.4081 40.1148 14.5047 40.7085 13.6766C41.306 12.8515 41.9141 12.1795 42.5362 11.6674C43.1583 11.1557 43.6845 10.8994 44.1149 10.8994C44.2428 10.8994 44.3886 10.9282 44.5485 10.9849C44.7088 11.0419 44.8437 11.0704 44.9469 11.0704L46.4613 10.8994C46.3869 11.7955 46.2693 13.0259 46.12 14.5903C45.9673 16.1545 45.8676 17.2 45.8215 17.7227C45.7753 18.2488 45.7469 18.7465 45.7327 19.2197C45.7753 19.888 45.8748 20.2258 46.0349 20.2258ZM44.3281 11.7745C44.2643 11.7317 44.186 11.7102 44.0934 11.7102C43.7877 11.7102 43.4109 11.9094 42.9664 12.304C42.5185 12.6989 42.0775 13.225 41.6368 13.8826C41.1995 14.5406 40.8259 15.2588 40.5237 16.0408C40.2217 16.8232 40.0474 17.5768 40.0009 18.3025C40.0009 18.4162 39.9831 18.519 39.9514 18.6045C40.0187 19.4685 40.3389 19.9023 40.9149 19.9023C41.3877 19.8879 41.8714 19.5788 42.362 18.9779C42.856 18.3736 43.3005 17.6482 43.6989 16.7948C44.0972 15.9414 44.4064 15.1413 44.6233 14.3982C44.7514 14.0285 44.8153 13.5342 44.8153 12.9265C44.8153 12.304 44.6517 11.92 44.3281 11.7745Z" fill="#1A1A18"/>
<path d="M49.3165 11.9874L47.9297 12.0513V11.134L49.4054 11.1768L49.5296 9.10742L51.1545 8.72339L50.8987 11.1768L53.1633 11.134L53.1209 12.009L50.6851 11.9874C50.6461 12.0763 50.5785 14.1029 50.4931 18.0638C50.4931 18.6897 50.5112 19.1659 50.5429 19.4932C50.575 19.8167 50.6639 20.0835 50.8097 20.2823C50.9591 20.4854 51.19 20.592 51.5136 20.606C51.5351 20.5848 51.5528 20.5703 51.5706 20.567C51.5849 20.5635 51.5956 20.5598 51.6026 20.5598C52.0933 20.5137 52.4951 20.279 52.8043 19.8594C53.1137 19.4362 53.2665 18.8673 53.2665 18.1526H53.8674C53.8674 18.8001 53.7431 19.3723 53.5012 19.8738C53.2594 20.375 52.9146 20.759 52.4736 21.0326C52.0328 21.3029 51.5207 21.4382 50.9413 21.4382C50.4753 21.4382 50.0667 21.3671 49.7145 21.2213C49.3627 21.0753 49.1173 20.9582 48.9752 20.8622C48.9642 20.6309 48.9503 20.2862 48.9359 19.8345C48.9216 19.3829 48.9075 19.0454 48.8931 18.814C48.9253 17.3456 49.064 15.0701 49.3165 11.9874Z" fill="#1A1A18"/>
<path d="M58.557 11.6463C57.8067 11.6641 57.2523 12.1973 56.8928 13.2427C56.5338 14.2881 56.3417 15.4791 56.3168 16.8124C56.3168 19.1415 56.9283 20.3074 58.1518 20.3074C58.7951 20.2542 59.3038 20.0515 59.6806 19.6887C60.054 19.3297 60.3171 18.96 60.4665 18.5723C60.6157 18.1883 60.6902 17.9362 60.6902 17.8114H61.2699C61.2699 18.039 61.1739 18.4407 60.9819 19.0239C60.7899 19.6071 60.4271 20.1619 59.8905 20.6913C59.3534 21.2179 58.6068 21.481 57.6431 21.481C56.9393 21.4666 56.3667 21.2924 55.926 20.9616C55.4883 20.6275 55.1721 20.1936 54.9838 19.657C54.7953 19.1199 54.692 18.5189 54.6743 17.8507C54.6743 17.0684 54.7491 16.2826 54.8984 15.4968C55.0476 14.7148 55.3002 13.9713 55.652 13.2711C56.0076 12.5669 56.4804 12.0053 57.0743 11.5785C57.668 11.1556 58.3862 10.9421 59.2218 10.9421C59.766 10.9421 60.3348 11.1058 60.9248 11.4331V13.9752L59.6451 13.9752V13.3527C59.6451 12.2151 59.2823 11.6463 58.557 11.6463Z" fill="#1A1A18"/>
<path d="M62.184 19.4328C62.2373 18.6258 62.28 17.5767 62.3189 16.2865C62.3583 14.9957 62.4044 13.9468 62.4615 13.1395C62.5466 12.0624 62.6497 11.1058 62.7707 10.2667C62.8916 9.42762 63.0374 8.58857 63.2078 7.74243C63.3788 6.8995 63.5779 5.9928 63.8018 5.0188C64.0258 4.04827 64.2356 3.10601 64.4242 2.19548L64.6374 1.23218L66.9626 1.23218V1.89364C66.9414 1.90044 66.8598 1.93629 66.7138 1.99642C66.5718 2.05682 66.4043 2.20271 66.2123 2.42684C66.0203 2.65444 65.8143 3.03846 65.5939 3.57886C65.3732 4.11552 65.1777 4.80532 65.0036 5.65145C64.8365 6.54038 64.7049 7.26575 64.6124 7.81681C64.5236 8.36788 64.4348 8.95832 64.3565 9.59139C64.2745 10.2206 64.214 10.7966 64.1646 11.3155C64.118 11.8348 64.0613 12.5424 63.9975 13.4347L63.7628 16.9368C63.7805 16.9191 63.9015 16.7199 64.1252 16.3431C64.3494 15.9624 64.5912 15.5607 64.8542 15.1305C65.1173 14.6967 65.3909 14.2704 65.6828 13.8436C66.1589 13.1429 66.9625 12.2433 68.0967 11.1341L70.248 11.0275V14.1423C70.248 15.7636 69.8176 17.3065 68.9536 18.7643C68.0896 20.2258 66.9447 21.673 65.5119 23.1021L63.9975 24.6807L63.3749 23.977C64.1785 23.4222 64.8932 22.7823 65.519 22.057C66.1484 21.3316 66.6855 20.5387 67.1296 19.6781C67.5778 18.8179 67.9157 17.9184 68.15 16.9724C68.3813 16.0267 68.4985 15.0702 68.4985 14.0962C68.4985 13.3066 68.4063 12.7804 68.2215 12.5175C68.1857 12.4642 68.1323 12.4354 68.0718 12.4354C67.766 12.4354 67.2577 12.8731 66.5468 13.7476C65.8355 14.6223 65.1672 15.6711 64.5378 16.8941C63.912 18.1172 63.5243 19.2408 63.3788 20.2646L63.2507 21.182L62.0132 21.6087C62.0915 20.8623 62.1485 20.1369 62.184 19.4328Z" fill="#1A1A18"/>
<path d="M63.1619 55.9892C63.1619 69.6741 51.5297 80.7677 37.1803 80.7677C22.831 80.7677 11.1987 69.6741 11.1987 55.9892C11.1987 42.3042 22.831 31.2104 37.1803 31.2104C51.5297 31.2104 63.1619 42.3042 63.1619 55.9892Z" stroke="#1A1A18" stroke-width="1.92" stroke-miterlimit="22.9256" stroke-dasharray="9.6 5.76"/>
<path fill-rule="evenodd" clip-rule="evenodd" d="M35.9347 39.5924L35.6508 39.5452L34.8001 39.498L33.6182 39.5924L32.5308 39.8759L31.3958 40.2543L30.4033 40.6799L29.316 41.2471L28.3704 41.8617L27.472 42.6656L26.6684 43.4219L25.9591 44.3203L25.25 45.2655L24.7298 46.3056L24.2571 47.3931L23.8788 48.4331L23.6425 49.5681L23.548 50.75L23.4536 51.9319L23.548 53.0664L23.6897 54.2483L24.0209 55.3358L24.3516 56.4231L24.8716 57.4632L25.25 58.1249L32.6253 66.966H34.7528L29.694 55.9979L29.4577 55.383L29.2684 54.7684L29.0793 54.2011L28.9376 53.5866L28.8432 52.9247L28.7958 52.2629L28.7486 50.9862L28.8432 49.7571L28.9376 48.4808L29.0793 47.8659L29.221 47.2514L29.3632 46.5895L29.5522 46.0221L29.7412 45.4548L30.0251 44.7931L30.3085 44.2731L30.6396 43.6584L31.3486 42.6182L31.5852 42.2872L31.9159 41.9089L32.3415 41.5781L32.6725 41.2471L33.0981 40.916L33.5234 40.6326L33.9489 40.396L34.4217 40.1125L34.8473 39.9235L35.3674 39.7341L35.9347 39.5924Z" fill="white"/>
<path d="M35.9347 39.5924L35.6508 39.5452L34.8001 39.498L33.6182 39.5924L32.5308 39.8759L31.3958 40.2543L30.4033 40.6799L29.316 41.2471L28.3704 41.8617L27.472 42.6656L26.6684 43.4219L25.9591 44.3203L25.25 45.2655L24.7298 46.3056L24.2571 47.3931L23.8788 48.4331L23.6425 49.5681L23.548 50.75L23.4536 51.9319L23.548 53.0664L23.6897 54.2483L24.0209 55.3358L24.3516 56.4231L24.8716 57.4632L25.25 58.1249L32.6253 66.966H34.7528L29.694 55.9979L29.4577 55.383L29.2684 54.7684L29.0793 54.2011L28.9376 53.5866L28.8432 52.9247L28.7958 52.2629L28.7486 50.9862L28.8432 49.7571L28.9376 48.4808L29.0793 47.8659L29.221 47.2514L29.3632 46.5895L29.5522 46.0221L29.7412 45.4548L30.0251 44.7931L30.3085 44.2731L30.6396 43.6584L31.3486 42.6182L31.5852 42.2872L31.9159 41.9089L32.3415 41.5781L32.6725 41.2471L33.0981 40.916L33.5234 40.6326L33.9489 40.396L34.4217 40.1125L34.8473 39.9235L35.3674 39.7341L35.9347 39.5924Z" stroke="black" stroke-width="0.999733" stroke-miterlimit="22.9256"/>
<path fill-rule="evenodd" clip-rule="evenodd" d="M34.7527 66.9658H35.9819L35.9819 39.5923L35.3673 39.734L34.8945 39.9233L34.4216 40.1124L33.9488 40.3958L33.5233 40.5852L33.1453 40.9159L32.7198 41.2469L32.3414 41.578L31.9635 41.8615L31.5851 42.287L31.3486 42.5706L30.6395 43.6583L30.3084 44.2256L30.025 44.7929L29.7411 45.4075L29.5522 45.9748L29.4104 46.5894L29.2209 47.2039L29.0793 47.8184L28.9375 48.4329L28.8431 49.7569L28.7485 50.986L28.7957 52.2628L28.8431 52.9246L28.9375 53.5392L29.0793 54.2009L29.2683 54.7682L29.4576 55.3828L29.6939 55.9977L29.9304 56.6122L34.7527 66.9658Z" fill="white"/>
<path d="M34.7527 66.9658H35.9819L35.9819 39.5923L35.3673 39.734L34.8945 39.9233L34.4216 40.1124L33.9488 40.3958L33.5233 40.5852L33.1453 40.9159L32.7198 41.2469L32.3414 41.578L31.9635 41.8615L31.5851 42.287L31.3486 42.5706L30.6395 43.6583L30.3084 44.2256L30.025 44.7929L29.7411 45.4075L29.5522 45.9748L29.4104 46.5894L29.2209 47.2039L29.0793 47.8184L28.9375 48.4329L28.8431 49.7569L28.7485 50.986L28.7957 52.2628L28.8431 52.9246L28.9375 53.5392L29.0793 54.2009L29.2683 54.7682L29.4576 55.3828L29.6939 55.9977L29.9304 56.6122L34.7527 66.9658Z" stroke="black" stroke-width="0.999733" stroke-miterlimit="22.9256"/>
<path fill-rule="evenodd" clip-rule="evenodd" d="M35.9346 39.5452L36.2656 39.4507H37.0693L38.2511 39.5924L39.3857 39.7815L40.4731 40.1597L41.5605 40.5854L42.5534 41.1527L43.4989 41.8145L44.3974 42.6182L45.2008 43.4219L46.0048 44.3203L46.6194 45.2183L47.1394 46.2584L47.6121 47.3458L47.9902 48.3859L48.274 49.5206L48.4158 50.7028V51.8373L48.3212 52.972L48.1795 54.1539L47.8957 55.2884L47.5177 56.3285L47.045 57.4159L46.6666 58.0777L39.2439 66.966H37.1165L41.7498 57.1798L41.9387 56.5179L42.2226 55.9503L42.4588 55.3358L42.6954 54.7211L42.7899 54.1539L42.9316 53.5394L43.0262 52.8775L43.1206 52.2629L43.1679 50.9862L43.0734 49.6627L42.9316 48.3859L42.7899 47.7713L42.6954 47.1568L42.5534 46.5423L42.3643 45.9277L42.1278 45.4076L41.8915 44.7931L41.5605 44.1781L41.2769 43.6108L40.5203 42.5235L40.3314 42.24L39.5751 41.4833L39.1967 41.1999L38.8184 40.8688L38.3928 40.5854L37.9203 40.3015L37.4949 40.0652L37.0221 39.8759L36.5491 39.7341L35.9346 39.5452Z" fill="white"/>
<path d="M35.9346 39.5452L36.2656 39.4507H37.0693L38.2511 39.5924L39.3857 39.7815L40.4731 40.1597L41.5605 40.5854L42.5534 41.1527L43.4989 41.8145L44.3974 42.6182L45.2008 43.4219L46.0048 44.3203L46.6194 45.2183L47.1394 46.2584L47.6121 47.3458L47.9902 48.3859L48.274 49.5206L48.4158 50.7028V51.8373L48.3212 52.972L48.1795 54.1539L47.8957 55.2884L47.5177 56.3285L47.045 57.4159L46.6666 58.0777L39.2439 66.966H37.1165L41.7498 57.1798L41.9387 56.5179L42.2226 55.9503L42.4588 55.3358L42.6954 54.7211L42.7899 54.1539L42.9316 53.5394L43.0262 52.8775L43.1206 52.2629L43.1679 50.9862L43.0734 49.6627L42.9316 48.3859L42.7899 47.7713L42.6954 47.1568L42.5534 46.5423L42.3643 45.9277L42.1278 45.4076L41.8915 44.7931L41.5605 44.1781L41.2769 43.6108L40.5203 42.5235L40.3314 42.24L39.5751 41.4833L39.1967 41.1999L38.8184 40.8688L38.3928 40.5854L37.9203 40.3015L37.4949 40.0652L37.0221 39.8759L36.5491 39.7341L35.9346 39.5452Z" stroke="black" stroke-width="0.999733" stroke-miterlimit="22.9256"/>
<path fill-rule="evenodd" clip-rule="evenodd" d="M37.1165 66.9659H35.9346L35.9346 39.5452L36.5491 39.6868L37.0221 39.8758L37.4949 40.0651L37.9203 40.3014L38.3928 40.5853L38.7711 40.8687L39.1967 41.1526L39.5751 41.4832L39.953 41.8144L40.3314 42.1927L40.5203 42.5234L41.2297 43.6108L41.5605 44.1309L41.8443 44.793L42.1278 45.3604L42.3171 45.8804L42.506 46.4949L42.6954 47.1567L42.7899 47.7712L42.9316 48.3858L43.0734 49.6626L43.1206 50.9389V52.2153L43.0262 52.8302L42.9316 53.4919L42.7899 54.1064L42.6954 54.721L42.4588 55.3357L42.2226 55.9502L41.9387 56.5178L41.7498 57.1323L37.1165 66.9659Z" fill="white"/>
<path d="M37.1165 66.9659H35.9346L35.9346 39.5452L36.5491 39.6868L37.0221 39.8758L37.4949 40.0651L37.9203 40.3014L38.3928 40.5853L38.7711 40.8687L39.1967 41.1526L39.5751 41.4832L39.953 41.8144L40.3314 42.1927L40.5203 42.5234L41.2297 43.6108L41.5605 44.1309L41.8443 44.793L42.1278 45.3604L42.3171 45.8804L42.506 46.4949L42.6954 47.1567L42.7899 47.7712L42.9316 48.3858L43.0734 49.6626L43.1206 50.9389V52.2153L43.0262 52.8302L42.9316 53.4919L42.7899 54.1064L42.6954 54.721L42.4588 55.3357L42.2226 55.9502L41.9387 56.5178L41.7498 57.1323L37.1165 66.9659Z" stroke="black" stroke-width="0.999733" stroke-miterlimit="22.9256"/>
<path fill-rule="evenodd" clip-rule="evenodd" d="M39.244 66.9658L38.6768 69.5662H33.0981L32.5781 66.9658H39.244Z" fill="white"/>
<path d="M39.244 66.9658L38.6768 69.5662H33.0981L32.5781 66.9658H39.244Z" stroke="black" stroke-width="0.999733" stroke-miterlimit="22.9256"/>
<path d="M37.6838 72.9701L37.5894 72.0246V71.5522L37.495 71.3628L37.4004 71.1265L37.3056 70.9373L37.1638 70.7483L36.8331 70.3699L36.5965 70.2754L36.4548 70.181L36.2657 70.1336L36.0292 70.0864H35.4618L35.2256 70.181L35.0362 70.2754L34.8473 70.3699L34.7056 70.5592L34.5635 70.7483L34.3273 71.0793L34.2799 71.3155L34.2327 71.5046L34.1383 71.741L34.0907 72.0246L34.0435 72.4973V72.9701H37.6838Z" stroke="black" stroke-width="0.999733" stroke-miterlimit="22.9256"/>
<path fill-rule="evenodd" clip-rule="evenodd" d="M37.731 72.9702V75.6652H34.0435V72.9702H37.731Z" fill="white"/>
<path d="M37.731 72.9702V75.6652H34.0435V72.9702H37.731Z" stroke="black" stroke-width="0.999733" stroke-miterlimit="22.9256"/>
</svg>
