<svg xmlns="http://www.w3.org/2000/svg" xmlns:xlink="http://www.w3.org/1999/xlink" version="1.1" width="841.8898pt" height="1190.5512pt" viewBox="0 0 841.8898 1190.5512">
<g id="layer_1" data-name="">
<path transform="matrix(1,0,0,-1,0,1190.5512)" d="M71.5887 1133.3836H354.7162V850.2559H71.5887Z" fill="#009ee3" fill-rule="evenodd"/>
<path transform="matrix(1,0,0,-1,0,1190.5512)" stroke-width=".216" stroke-linecap="butt" stroke-miterlimit="22.925585" stroke-linejoin="miter" fill="none" stroke="#1a1a18" d="M71.5887 1133.3836H354.7162V850.2559H71.5887Z"/>
<path transform="matrix(1,0,0,-1,0,1190.5512)" d="M425.1969 1133.3836H708.6614V850.2559H425.1969Z" fill="#009ee3" fill-rule="evenodd"/>
<path transform="matrix(1,0,0,-1,0,1190.5512)" stroke-width=".216" stroke-linecap="butt" stroke-miterlimit="22.925585" stroke-linejoin="miter" fill="none" stroke="#1a1a18" d="M425.1969 1133.3836H708.6614V850.2559H425.1969Z"/>
<path transform="matrix(1,0,0,-1,0,1190.5512)" d="M71.5887 779.0601H354.7162V495.9326H71.5887Z" fill="#009ee3" fill-rule="evenodd"/>
<path transform="matrix(1,0,0,-1,0,1190.5512)" stroke-width=".216" stroke-linecap="butt" stroke-miterlimit="22.925585" stroke-linejoin="miter" fill="none" stroke="#1a1a18" d="M71.5887 779.0601H354.7162V495.9326H71.5887Z"/>
<path transform="matrix(1,0,0,-1,0,1190.5512)" d="M425.1969 779.0601H708.6614V495.9326H425.1969Z" fill="#009ee3" fill-rule="evenodd"/>
<path transform="matrix(1,0,0,-1,0,1190.5512)" stroke-width=".216" stroke-linecap="butt" stroke-miterlimit="22.925585" stroke-linejoin="miter" fill="none" stroke="#1a1a18" d="M425.1969 779.0601H708.6614V495.9326H425.1969Z"/>
</g>
</svg>
