<svg width="192" height="150" viewBox="0 0 192 150" fill="none" xmlns="http://www.w3.org/2000/svg">
<g clip-path="url(#clip0_2_22765)">
<path d="M65.6064 17.7436C65.066 17.7436 64.5969 17.9251 64.195 18.2913C63.7933 18.6541 63.5835 19.0982 63.5619 19.6174C63.5619 20.6769 64.1309 21.4948 65.2722 22.0708L66.5736 22.7106C67.4304 23.1234 68.1061 23.7134 68.6001 24.4814C69.0945 25.2532 69.3435 26.0634 69.3435 26.9134C69.3435 27.6422 69.2117 28.2964 68.9451 28.8796C68.6783 29.459 68.2694 29.9179 67.7115 30.2625C67.1567 30.6076 66.4564 30.7853 65.6064 30.7996C65.0413 30.7996 64.401 30.6825 63.683 30.444C62.9649 30.2059 62.5059 30.0211 62.3034 29.8857C62.3034 29.7115 62.3106 29.4628 62.3246 29.1465C62.339 28.8264 62.3461 28.581 62.3461 28.4102C62.3461 27.6814 62.3034 26.9917 62.2146 26.3409H63.1353V27.2193C63.1353 27.948 63.3771 28.5883 63.8606 29.1393C64.3443 29.6904 64.9416 29.9677 65.6529 29.9677C66.3389 29.9677 66.9186 29.7471 67.3914 29.3097C67.8677 28.8691 68.106 28.293 68.106 27.5784C68.0668 26.4441 67.3842 25.5302 66.0546 24.8265L64.5648 23.9942C63.0253 23.109 62.2572 21.9143 62.2572 20.4105C62.3 19.7029 62.4705 19.102 62.7762 18.6042C63.0786 18.1065 63.4804 17.7364 63.9744 17.4912C64.4688 17.2459 65.027 17.1249 65.6529 17.1249C66.0048 17.1249 66.6162 17.2104 67.4874 17.3812C67.6439 17.3812 67.747 17.3952 67.8038 17.4238H68.1916V20.0049H67.356V19.8346C67.356 19.5571 67.3132 19.2619 67.2244 18.9455C67.1356 18.6255 66.9613 18.3484 66.6979 18.1065C66.4349 17.8645 66.0724 17.7436 65.6064 17.7436Z" fill="#1A1A18"/>
<path d="M70.3674 28.4955C70.4207 27.6886 70.4633 26.6394 70.5023 25.3491C70.5416 24.0585 70.5877 23.0095 70.6448 22.2023C70.7298 21.1251 70.8329 20.1684 70.9539 19.3293C71.0749 18.4904 71.2208 17.6514 71.3912 16.8051C71.562 15.9623 71.7612 15.0555 71.9849 14.0815C72.2091 13.111 72.4189 12.1687 72.6074 11.2583L72.8206 10.2948H75.1458V10.9563C75.1246 10.9631 75.0429 10.9989 74.8971 11.0591C74.7549 11.1195 74.5876 11.2654 74.3956 11.4895C74.2036 11.7171 73.9976 12.1011 73.7772 12.6378C73.5565 13.1783 73.3611 13.868 73.1869 14.7143C73.0199 15.6032 72.8883 16.3284 72.7957 16.8795C72.7069 17.4305 72.618 18.021 72.5399 18.6541C72.4579 19.2834 72.3974 19.8594 72.3479 20.3783C72.3014 20.8975 72.2447 21.6014 72.1808 22.4974L71.946 25.9995C71.9638 25.9818 72.0848 25.7826 72.3085 25.4058C72.5326 25.0252 72.7745 24.6234 73.0376 24.1934C73.3007 23.7594 73.5742 23.3331 73.866 22.9064C74.3422 22.2056 75.1459 21.3027 76.28 20.1969L78.4313 20.0903V23.205C78.4313 24.8265 78.0008 26.3693 77.1368 27.827C76.2728 29.2885 75.128 30.7356 73.6952 32.1647L72.1808 33.7434L71.5583 33.0396C72.3619 32.4848 73.0765 31.845 73.7024 31.1196C74.3317 30.3944 74.8688 29.6013 75.3128 28.7408C75.7611 27.8805 76.0989 26.9811 76.3333 26.0351C76.5647 25.0893 76.6819 24.1329 76.6819 23.1589C76.6819 22.3694 76.5896 21.8432 76.4048 21.5802C76.3688 21.5268 76.3156 21.4982 76.255 21.4982C75.9493 21.4982 75.4409 21.9358 74.73 22.8105C74.0188 23.685 73.3505 24.7338 72.7212 25.9569C72.0953 27.1799 71.7076 28.3035 71.562 29.3274L71.4338 30.2447L70.1965 30.6714C70.2748 29.925 70.3319 29.1997 70.3674 28.4955Z" fill="#1A1A18"/>
<path d="M81.1868 21.4983L79.3308 21.8361V21.0719C80.1448 20.9793 81.3611 20.6664 82.9788 20.1331L82.2358 30.4545L80.6071 30.7996C80.9948 28.4884 81.1868 25.9003 81.1868 23.0343V21.4983ZM80.8669 16.2896C80.8669 15.9268 80.9734 15.5926 81.1798 15.2941C81.3895 14.9917 81.6631 14.8425 82.001 14.8425C82.3246 14.8425 82.6126 14.9706 82.8612 15.2298C83.1103 15.4894 83.2347 15.7881 83.2347 16.1226C83.2347 16.4884 83.1138 16.8124 82.8757 17.0932C82.6338 17.374 82.3423 17.5199 82.001 17.5305C82.001 17.5233 81.9938 17.5198 81.9832 17.5161C81.9727 17.5126 81.9655 17.509 81.9583 17.509C81.6703 17.509 81.4216 17.3845 81.2115 17.1358C81.0055 16.8906 80.8879 16.606 80.8669 16.2896Z" fill="#1A1A18"/>
<path d="M85.8767 21.3277L84.1348 21.7545V20.7978C85.3506 20.709 86.5166 20.4459 87.6262 20.0048C87.5798 20.3639 87.5053 20.8975 87.4021 21.6119C87.3024 22.3233 87.228 22.9348 87.1746 23.4432C87.1213 23.9514 87.0891 24.4707 87.0749 25.0006C87.1319 25.5053 87.1602 25.8824 87.1602 26.1276C87.1602 25.9923 87.2956 25.5906 87.5692 24.9152C87.8394 24.2432 88.195 23.5252 88.6323 22.764C89.0659 22.0032 89.5746 21.3417 90.1611 20.7838C90.7443 20.2255 91.3453 19.9375 91.9602 19.9198C92.3903 19.9198 92.6644 20.0582 92.7816 20.3394C92.9025 20.6202 92.963 21.0042 92.963 21.4983V23.9091C92.963 24.7909 92.874 25.6227 92.6927 26.4014C92.5112 27.1837 92.2376 27.8806 91.8642 28.5027C91.4946 29.1214 91.0286 29.6226 90.4635 30.0033C89.9015 30.3834 89.2473 30.6042 88.5009 30.6714L88.4189 30.1597C88.9665 30.0705 89.3931 29.9213 89.699 29.7114C90.2179 29.3134 90.6197 28.5882 90.9077 27.5322C91.1957 26.4795 91.3416 25.3559 91.3416 24.165V21.7972C91.3416 21.3489 91.1994 21.1074 90.9149 21.0718C90.6733 21.0718 90.2961 21.4094 89.7843 22.0852C89.2722 22.7605 88.7745 23.6212 88.2839 24.6662C87.7933 25.7116 87.4342 26.7676 87.1995 27.8308C87.0858 28.4245 86.9542 29.1177 86.8011 29.9034C86.648 30.693 86.5166 31.4432 86.4029 32.1542C86.2929 32.8654 86.1969 33.6225 86.1114 34.4261L85.9656 36.1756L84.835 36.6234C84.9916 35.4287 85.123 34.1917 85.2262 32.9116C85.3329 31.6314 85.4072 30.5505 85.4571 29.6654C85.5032 28.7802 85.571 27.4468 85.6526 25.6689C85.7379 23.8914 85.8128 22.4442 85.8767 21.3277Z" fill="#1A1A18"/>
<path d="M101.752 20.0048C102.428 20.0653 102.95 20.4175 103.317 21.068C103.683 21.7151 103.864 22.5008 103.864 23.4219C103.754 25.6616 103.409 27.596 102.829 29.2314C102.25 30.8672 101.564 32.1684 100.771 33.1284C99.9744 34.0919 99.1851 34.7923 98.3922 35.2262C97.6027 35.66 96.9168 35.877 96.3369 35.877H94.3746C94.1931 35.4608 94.0794 34.7923 94.0295 33.8715C94.0617 33.7862 94.0757 33.6513 94.0757 33.4661C94.1894 32.2003 94.3459 31.2545 94.545 30.6287H95.9922C95.9922 30.5792 95.8962 31.0127 95.7008 31.9304C95.5016 32.8476 95.395 33.5942 95.3735 34.1702C95.4019 34.5647 95.4767 34.8459 95.5939 35.0092C95.7148 35.1763 95.9495 35.2583 96.2946 35.2583C96.8457 35.2583 97.4643 35.0625 98.147 34.6751C98.8328 34.2877 99.4943 33.6795 100.138 32.8511C100.778 32.0225 101.304 30.9489 101.713 29.6298C102.122 28.3107 102.328 26.7675 102.328 25.0006V24.2504C102.328 22.5435 101.994 21.6546 101.322 21.5835C101.03 21.5835 100.746 21.7365 100.479 22.0457C100.209 22.3553 99.971 22.7534 99.7611 23.2334C99.5549 23.7171 99.3878 24.2216 99.2634 24.7443C99.1388 25.2671 99.0642 25.7294 99.0427 26.1311C99.0427 26.3124 99.0287 26.4902 99.0003 26.661C99.0786 28.2503 99.2706 29.4166 99.5763 30.1597L98.3817 30.6714L95.505 21.3704L93.8837 21.6723L93.8413 20.9222C94.954 20.8334 95.875 20.5135 96.611 19.9622L98.4456 25.4274C98.4456 25.1355 98.5627 24.5346 98.8011 23.6279C99.0392 22.725 99.3912 21.8931 99.8572 21.1391C100.326 20.382 100.899 20.0048 101.578 20.0048H101.752Z" fill="#1A1A18"/>
<path d="M111.757 29.2885C112.159 29.157 112.522 29.0643 112.845 29.0111L113.101 29.4984C112.387 29.6548 111.882 29.7897 111.59 29.9001C111.295 30.0105 110.826 30.238 110.179 30.5865C110.154 30.6148 110.093 30.6255 110.008 30.6255C109.951 30.6255 109.926 30.5437 109.926 30.3729C110.083 29.388 110.186 28.6665 110.235 28.2183C110.282 27.7669 110.303 27.2333 110.303 26.6184V25.5303L108.472 28.4923C108.113 29.086 107.665 29.5765 107.121 29.9639C106.577 30.3517 106.022 30.5437 105.46 30.5437C104.653 30.5044 104.248 29.7364 104.248 28.236C104.294 27.3508 104.518 26.4229 104.927 25.4451C105.336 24.4707 105.837 23.5674 106.431 22.7394C107.029 21.9144 107.637 21.2424 108.259 20.7302C108.881 20.2185 109.407 19.9622 109.837 19.9622C109.965 19.9622 110.111 19.9909 110.271 20.0476C110.431 20.1047 110.566 20.1331 110.669 20.1331L112.184 19.9622C112.109 20.8584 111.992 22.0885 111.842 23.6529C111.69 25.2173 111.59 26.2627 111.544 26.7855C111.498 27.3115 111.469 27.8094 111.455 28.2826C111.498 28.9507 111.597 29.2885 111.757 29.2885ZM110.051 20.8372C109.987 20.7945 109.909 20.7729 109.816 20.7729C109.51 20.7729 109.133 20.9721 108.689 21.3666C108.241 21.7616 107.8 22.2877 107.359 22.9455C106.922 23.6035 106.548 24.3214 106.246 25.1034C105.944 25.8858 105.77 26.6394 105.723 27.3652C105.723 27.4789 105.706 27.5817 105.674 27.6672C105.741 28.5312 106.061 28.9651 106.637 28.9651C107.11 28.9507 107.594 28.6415 108.084 28.0405C108.578 27.4363 109.023 26.7109 109.421 25.8574C109.82 25.0041 110.129 24.204 110.346 23.4609C110.474 23.0913 110.538 22.5969 110.538 21.9892C110.538 21.3666 110.374 20.9826 110.051 20.8372Z" fill="#1A1A18"/>
<path d="M120.717 20.2395V22.0318C120.696 22.0246 120.653 22.0137 120.589 22.0031C120.525 21.9925 120.44 21.9891 120.333 21.9891C119.629 21.9891 118.89 22.8282 118.111 24.5063C117.766 25.2776 117.457 26.0922 117.187 26.949C116.913 27.8025 116.695 28.5738 116.529 29.267C116.361 29.9568 116.28 30.3552 116.28 30.4584H115.171L115.658 21.4983L113.549 21.9248V21.0718C114.065 21.0609 114.68 20.9614 115.398 20.7729C116.116 20.5881 116.745 20.3711 117.283 20.133L117.002 25.509C117.023 25.4591 117.179 25.0752 117.475 24.3533C117.766 23.6317 118.004 23.0629 118.186 22.6539C118.367 22.2415 118.548 21.8644 118.729 21.5232C118.911 21.1818 119.082 20.926 119.242 20.7552C119.576 20.3821 119.938 20.1969 120.333 20.1969C120.44 20.1969 120.525 20.2006 120.589 20.2113C120.653 20.2218 120.696 20.2323 120.717 20.2395Z" fill="#1A1A18"/>
<path d="M121.379 16.3784L121.084 15.8235L123.089 14.8424C123.736 15.3651 124.348 15.9374 124.92 16.5526C125.489 17.1714 126.008 17.8644 126.47 18.6431C126.933 19.4183 127.302 20.2929 127.58 21.2706C127.853 22.245 127.992 23.3082 127.992 24.4602C127.992 26.1915 127.686 27.5355 127.075 28.4922C126.947 28.7197 126.67 29.0005 126.239 29.3385C125.806 29.6759 125.304 29.9711 124.728 30.2163C124.152 30.4616 123.576 30.5864 123 30.5864C122.478 30.5864 122.047 30.4012 121.706 30.0282C121.368 29.6582 121.119 29.157 120.966 28.5277C120.814 27.8946 120.739 27.2013 120.739 26.4473C120.753 25.5833 120.899 24.7016 121.183 23.7987C121.464 22.8992 121.834 22.1206 122.292 21.4665C122.751 20.8155 123.235 20.4032 123.75 20.2395C123.747 20.2395 123.853 20.1934 124.074 20.1008C124.291 20.0086 124.462 19.9622 124.579 19.9622C124.735 19.9622 124.835 20.0049 124.881 20.0941C124.881 20.1046 124.888 20.1258 124.902 20.1651C124.917 20.2041 124.92 20.2433 124.92 20.2788C124.92 20.3711 124.877 20.4494 124.785 20.5135C124.696 20.5808 124.558 20.6484 124.376 20.7161C124.191 20.7872 124.053 20.8405 123.964 20.8798C123.697 20.9935 123.437 21.3311 123.185 21.8894C122.933 22.4475 122.73 23.1162 122.574 23.8875C122.417 24.6627 122.339 25.3952 122.339 26.085C122.339 27.0839 122.456 27.9123 122.687 28.581C122.922 29.2458 123.373 29.6086 124.045 29.6687C125.638 29.6687 126.47 27.9978 126.541 24.6555C126.541 23.6955 126.389 22.7215 126.083 21.7293C125.777 20.7373 125.382 19.8377 124.892 19.0236C124.404 18.2129 123.878 17.5622 123.317 17.0715C122.751 16.581 122.229 16.3391 121.745 16.3391C121.585 16.3391 121.464 16.35 121.379 16.3784Z" fill="#1A1A18"/>
<path d="M129.848 27.9196C129.848 28.332 129.933 28.6911 130.101 29.0077C130.271 29.3207 130.502 29.5623 130.794 29.7293C131.085 29.8967 131.402 29.9817 131.743 29.9889C132.298 29.9889 132.771 29.8291 133.162 29.5055C133.553 29.1855 133.748 28.7409 133.748 28.1755C133.748 27.7276 133.642 27.3615 133.432 27.07C133.222 26.7783 132.902 26.4796 132.469 26.1705L131.338 25.3382C130.513 24.6627 130.082 23.8521 130.04 22.9065C130.04 22.078 130.271 21.406 130.737 20.8799C131.203 20.3572 131.885 20.0654 132.788 20.0049C133.048 20.0049 133.354 20.0442 133.706 20.1225C134.061 20.2006 134.232 20.2396 134.218 20.2396V22.4975H133.578V21.9249C133.578 21.573 133.489 21.2601 133.318 20.9898C133.148 20.7162 132.906 20.5809 132.596 20.5809C132.259 20.5809 131.964 20.7445 131.711 21.0753C131.462 21.4022 131.338 21.7329 131.338 22.0708C131.384 22.9136 131.825 23.6424 132.66 24.2467L133.624 24.9081C134.534 25.534 135.011 26.3304 135.05 27.3009C135.05 27.7276 134.918 28.1971 134.655 28.7088C134.396 29.221 134.012 29.6548 133.51 30.0105C133.009 30.3657 132.419 30.5437 131.743 30.5437H131.7C131.046 30.5437 130.485 30.4545 130.011 30.2769C129.542 30.1027 129.215 29.9535 129.034 29.8363L129.29 26.6184L129.951 26.7037C129.94 26.7177 129.926 26.8602 129.905 27.1233C129.887 27.3864 129.869 27.6532 129.848 27.9196Z" fill="#1A1A18"/>
<path fill-rule="evenodd" clip-rule="evenodd" d="M114.73 64.9201C123.216 64.9201 130.095 66.3533 130.095 68.1213C130.095 69.8891 123.216 71.3223 114.73 71.3223C106.244 71.3223 99.3652 69.8891 99.3652 68.1213C99.3652 66.3533 106.244 64.9201 114.73 64.9201Z" fill="#D9DADA"/>
<path d="M114.73 64.9201C123.216 64.9201 130.095 66.3533 130.095 68.1213C130.095 69.8891 123.216 71.3223 114.73 71.3223C106.244 71.3223 99.3652 69.8891 99.3652 68.1213C99.3652 66.3533 106.244 64.9201 114.73 64.9201Z" stroke="#1A1A18" stroke-width="0.288" stroke-miterlimit="22.9256"/>
<path fill-rule="evenodd" clip-rule="evenodd" d="M99.0454 46.2128H129.826V68.7607H99.0454V46.2128Z" fill="#D9DADA"/>
<path fill-rule="evenodd" clip-rule="evenodd" d="M114.436 42.854C122.922 42.854 129.801 44.2872 129.801 46.0553C129.801 47.823 122.922 49.2562 114.436 49.2562C105.95 49.2562 99.0718 47.823 99.0718 46.0553C99.0718 44.2872 105.95 42.854 114.436 42.854Z" fill="#D9DADA"/>
<path d="M114.436 42.854C122.922 42.854 129.801 44.2872 129.801 46.0553C129.801 47.823 122.922 49.2562 114.436 49.2562C105.95 49.2562 99.0718 47.823 99.0718 46.0553C99.0718 44.2872 105.95 42.854 114.436 42.854Z" stroke="#1A1A18" stroke-width="0.288" stroke-miterlimit="22.9256"/>
<path d="M39.2433 59.967L38.7153 58.1911L43.5712 54.255C45.9712 52.327 47.1712 49.9909 47.1712 47.2471C47.1712 46.2391 46.8111 45.3353 46.0993 44.5272C45.3793 43.7192 44.5392 43.311 43.5712 43.311H43.3713C42.2193 43.351 41.2914 43.8632 40.5873 44.8553C39.891 45.847 39.3952 46.8952 39.123 47.9912C38.8513 49.0789 38.7153 49.7911 38.7153 50.1191L37.2753 48.9271C37.2753 48.6871 37.6033 47.8072 38.2512 46.287C38.9073 44.7593 39.7633 43.3673 40.8273 42.0952C41.8833 40.8233 43.0912 40.1913 44.4352 40.1913C45.5233 40.1913 46.4833 40.4472 47.331 40.9511C48.1713 41.4552 48.8433 42.1432 49.3471 43.0151C49.8433 43.8953 50.1393 44.8553 50.2353 45.9031C50.2353 47.2073 49.8433 48.5112 49.067 49.8311C48.2832 51.1429 47.4192 52.287 46.4833 53.2712C45.5392 54.247 45.0192 54.735 44.9073 54.735C45.0033 54.727 45.1632 54.7032 45.3952 54.679C45.6193 54.6552 45.891 54.6469 46.2033 54.6469C47.4993 54.6469 48.6513 55.0309 49.643 55.8072C50.6352 56.5749 51.1552 58.0312 51.1953 60.1669C51.1953 62.4872 50.5872 64.6552 49.3633 66.6628C48.1471 68.6629 46.5313 70.2549 44.5233 71.439C42.5152 72.6228 40.419 73.2151 38.2353 73.2151C37.539 73.2151 36.9234 73.167 36.4033 73.071C35.8753 72.975 35.6353 72.919 35.6913 72.919V71.151C36.3474 71.5672 37.2594 71.7751 38.4352 71.7751C39.8034 71.7751 41.187 71.407 42.579 70.6631C43.971 69.919 45.1231 68.8391 46.0351 67.4229C46.9471 66.0071 47.4033 64.335 47.4033 62.415C47.4033 61.0472 47.1792 59.9512 46.7313 59.1352C46.2913 58.3112 45.2992 57.8392 43.7553 57.711C43.107 57.711 42.4434 57.8792 41.7714 58.2069C41.091 58.5349 40.4992 58.8952 39.9954 59.287C39.4912 59.679 39.2433 59.9032 39.2433 59.967Z" fill="#1A1A18"/>
<path d="M53.5791 52.6711H62.803V43.4551H65.0511V52.6711H74.331V55.023H65.155V64.3831H62.803V55.023H53.5791V52.6711Z" fill="#1A1A18"/>
<path d="M90.2428 47.047H84.6827L83.8747 52.863H89.3866L90.2428 47.047ZM95.9626 55.2151H91.3468L90.1546 64.3831H87.7066L89.0027 55.2151H83.5787L82.2748 64.3831H79.8268L81.0347 55.2151H76.6187V52.9591H81.4186L82.2748 47.151H77.7707V44.7991H82.5706L83.7628 36.055H86.2187L84.9706 44.7991H90.5387L91.7304 36.055H94.1784L92.9386 44.7991H96.9706V47.151H92.6026L91.7304 52.9591H95.9626V55.2151Z" fill="#1A1A18"/>
<path d="M86.1615 108.75C91.8663 108.75 96.491 113.6 96.491 119.581C96.491 125.563 91.8663 130.412 86.1615 130.412C80.4567 130.412 75.832 125.563 75.832 119.581C75.832 113.6 80.4567 108.75 86.1615 108.75Z" stroke="#1A1A18" stroke-width="0.288" stroke-miterlimit="22.9256" stroke-dasharray="0.29 1.44"/>
<path d="M133.362 108.767C139.067 108.767 143.692 113.616 143.692 119.597C143.692 125.579 139.067 130.428 133.362 130.428C127.657 130.428 123.033 125.579 123.033 119.597C123.033 113.616 127.657 108.767 133.362 108.767Z" stroke="#1A1A18" stroke-width="0.288" stroke-miterlimit="22.9256" stroke-dasharray="0.29 1.44"/>
<path d="M52.5178 103.717H147.039V137.03H52.5178V103.717Z" stroke="#1A1A18" stroke-width="0.288" stroke-miterlimit="22.9256"/>
<path d="M52.4968 103.737H99.9484V137.05H52.4968V103.737Z" stroke="#1A1A18" stroke-width="2.6664" stroke-miterlimit="22.9256"/>
<path d="M99.5278 103.754H146.979V137.066H99.5278V103.754Z" stroke="#1A1A18" stroke-width="2.6664" stroke-miterlimit="22.9256"/>
<path fill-rule="evenodd" clip-rule="evenodd" d="M86.3957 119.977C89.8653 119.977 92.6776 120.563 92.6776 121.286C92.6776 122.009 89.8653 122.595 86.3957 122.595C82.9261 122.595 80.1133 122.009 80.1133 121.286C80.1133 120.563 82.9261 119.977 86.3957 119.977Z" fill="#D9DADA"/>
<path d="M86.3957 119.977C89.8653 119.977 92.6776 120.563 92.6776 121.286C92.6776 122.009 89.8653 122.595 86.3957 122.595C82.9261 122.595 80.1133 122.009 80.1133 121.286C80.1133 120.563 82.9261 119.977 86.3957 119.977Z" stroke="#1A1A18" stroke-width="0.288" stroke-miterlimit="22.9256"/>
<path fill-rule="evenodd" clip-rule="evenodd" d="M133.596 119.993C137.066 119.993 139.878 120.579 139.878 121.302C139.878 122.025 137.066 122.611 133.596 122.611C130.126 122.611 127.314 122.025 127.314 121.302C127.314 120.579 130.126 119.993 133.596 119.993Z" fill="#D9DADA"/>
<path d="M133.596 119.993C137.066 119.993 139.878 120.579 139.878 121.302C139.878 122.025 137.066 122.611 133.596 122.611C130.126 122.611 127.314 122.025 127.314 121.302C127.314 120.579 130.126 119.993 133.596 119.993Z" stroke="#1A1A18" stroke-width="0.288" stroke-miterlimit="22.9256"/>
<path fill-rule="evenodd" clip-rule="evenodd" d="M79.9824 119.453H92.5679V121.548H79.9824V119.453Z" fill="#D9DADA"/>
<path fill-rule="evenodd" clip-rule="evenodd" d="M127.183 119.47H139.769V121.564H127.183V119.47Z" fill="#D9DADA"/>
<path fill-rule="evenodd" clip-rule="evenodd" d="M86.4521 118.217C89.9217 118.217 92.7345 118.803 92.7345 119.526C92.7345 120.249 89.9217 120.835 86.4521 120.835C82.9829 120.835 80.1702 120.249 80.1702 119.526C80.1702 118.803 82.9829 118.217 86.4521 118.217Z" fill="#D9DADA"/>
<path d="M86.4521 118.217C89.9217 118.217 92.7345 118.803 92.7345 119.526C92.7345 120.249 89.9217 120.835 86.4521 120.835C82.9829 120.835 80.1702 120.249 80.1702 119.526C80.1702 118.803 82.9829 118.217 86.4521 118.217Z" stroke="#1A1A18" stroke-width="0.288" stroke-miterlimit="22.9256"/>
<path fill-rule="evenodd" clip-rule="evenodd" d="M133.653 118.234C137.123 118.234 139.935 118.82 139.935 119.542C139.935 120.265 137.123 120.851 133.653 120.851C130.184 120.851 127.371 120.265 127.371 119.542C127.371 118.82 130.184 118.234 133.653 118.234Z" fill="#D9DADA"/>
<path d="M133.653 118.234C137.123 118.234 139.935 118.82 139.935 119.542C139.935 120.265 137.123 120.851 133.653 120.851C130.184 120.851 127.371 120.265 127.371 119.542C127.371 118.82 130.184 118.234 133.653 118.234Z" stroke="#1A1A18" stroke-width="0.288" stroke-miterlimit="22.9256"/>
<path d="M122 120L117 117.113V122.887L122 120ZM114 120.5H117.5V119.5H114V120.5Z" fill="black"/>
<path d="M155.121 42L161.681 45.5786L168.242 49.1569L161.681 53.2358L155.181 56.7358L148.561 52.7358L142 49L148.561 45.5786L155.121 42Z" fill="#D7B469" stroke="#1A1A18" stroke-width="0.288" stroke-miterlimit="22.9256"/>
<path d="M142.54 63.6996L142.361 56.468L142.181 49.2358L148.681 52.7358L155.181 56.7358V63.7358V71.2358L148.861 67.4677L142.54 63.6996Z" fill="#D7B469" stroke="#1A1A18" stroke-width="0.288" stroke-miterlimit="22.9256"/>
<path d="M155.181 56.7358L161.861 53.0039L168.181 49.2358L168.002 56.4681L167.822 63.7001L161.502 67.4677L155.181 71.2358V64.2358V56.7358Z" fill="#D7B469" stroke="#1A1A18" stroke-width="0.288" stroke-miterlimit="22.9256"/>
<path d="M60 116L61.9999 116.979L64 117.958L61.9999 119.075L60.0183 120.032L58 118.938L56 117.915L58 116.979L60 116Z" fill="#D7B469" stroke="#1A1A18" stroke-width="0.288" stroke-miterlimit="22.9256"/>
<path d="M56.1649 121.938L56.1101 119.959L56.0554 117.98L58.0369 118.938L60.0184 120.032V121.948V124L58.0917 122.969L56.1649 121.938Z" fill="#D7B469" stroke="#1A1A18" stroke-width="0.288" stroke-miterlimit="22.9256"/>
<path d="M60.0183 120.032L62.0546 119.011L63.9814 117.98L63.9266 119.959L63.8719 121.938L61.9451 122.969L60.0183 124V122.085V120.032Z" fill="#D7B469" stroke="#1A1A18" stroke-width="0.288" stroke-miterlimit="22.9256"/>
<path d="M108 116L110 116.979L112 117.958L110 119.075L108.018 120.032L106 118.938L104 117.915L106 116.979L108 116Z" fill="#D7B469" stroke="#1A1A18" stroke-width="0.288" stroke-miterlimit="22.9256"/>
<path d="M104.165 121.938L104.11 119.959L104.055 117.98L106.037 118.938L108.018 120.032V121.948V124L106.092 122.969L104.165 121.938Z" fill="#D7B469" stroke="#1A1A18" stroke-width="0.288" stroke-miterlimit="22.9256"/>
<path d="M108.018 120.032L110.055 119.011L111.981 117.98L111.927 119.959L111.872 121.938L109.945 122.969L108.018 124V122.085V120.032Z" fill="#D7B469" stroke="#1A1A18" stroke-width="0.288" stroke-miterlimit="22.9256"/>
<path d="M98.9393 96.0607C99.5251 96.6464 100.475 96.6464 101.061 96.0607L110.607 86.5147C111.192 85.9289 111.192 84.9792 110.607 84.3934C110.021 83.8076 109.071 83.8076 108.485 84.3934L100 92.8787L91.5147 84.3934C90.9289 83.8076 89.9792 83.8076 89.3934 84.3934C88.8076 84.9792 88.8076 85.9289 89.3934 86.5147L98.9393 96.0607ZM98.5 72V95H101.5V72H98.5Z" fill="black"/>
<path d="M75 120L70 117.113V122.887L75 120ZM67 120.5H70.5V119.5H67V120.5Z" fill="black"/>
</g>
<defs>
<clipPath id="clip0_2_22765">
<rect width="1122.52" height="1587.4" fill="white" transform="translate(-638 -508)"/>
</clipPath>
</defs>
</svg>
