<svg width="61" height="58" viewBox="0 0 61 58" fill="none" xmlns="http://www.w3.org/2000/svg">
<g clip-path="url(#clip0_2_22765)">
<path d="M31 3C45.3594 3 57 14.6407 57 29C57 43.3594 45.3594 55 31 55C16.6406 55 5 43.3594 5 29C5 14.6407 16.6406 3 31 3Z" stroke="#E3000F" stroke-width="2.6664" stroke-miterlimit="22.9256" stroke-dasharray="13.33 13.33"/>
<path d="M14.8109 35.3783L14.2829 33.6023L19.1389 29.6663C21.5389 27.7385 22.7389 25.4023 22.7389 22.6583C22.7389 21.6503 22.3788 20.7466 21.6671 19.9386C20.9471 19.1306 20.1069 18.7223 19.1389 18.7223H18.9389C17.7869 18.7625 16.859 19.2746 16.1549 20.2666C15.4588 21.2585 14.9629 22.3065 14.6908 23.4026C14.419 24.4904 14.2829 25.2023 14.2829 25.5305L12.8429 24.3383C12.8429 24.0983 13.171 23.2185 13.8189 21.6983C14.4749 20.1706 15.3311 18.7786 16.3949 17.5065C17.4509 16.2346 18.6589 15.6027 20.0029 15.6027C21.091 15.6027 22.0511 15.8586 22.8988 16.3625C23.7389 16.8666 24.4109 17.5545 24.9148 18.4265C25.411 19.3066 25.7069 20.2666 25.8029 21.3143C25.8029 22.6186 25.4111 23.9226 24.6348 25.2425C23.8509 26.5543 22.9869 27.6983 22.0511 28.6826C21.1069 29.6585 20.5869 30.1464 20.4749 30.1464C20.5709 30.1385 20.7309 30.1146 20.9629 30.0905C21.187 30.0666 21.4588 30.0583 21.7709 30.0583C23.0669 30.0583 24.2189 30.4424 25.2108 31.2186C26.2029 31.9862 26.7229 33.4425 26.7629 35.5783C26.7629 37.8986 26.1549 40.0665 24.9311 42.0742C23.7148 44.0744 22.0991 45.6662 20.0909 46.8503C18.0829 48.0341 15.9868 48.6263 13.8029 48.6263C13.1068 48.6263 12.4911 48.5783 11.9711 48.4823C11.4431 48.3863 11.203 48.3305 11.2589 48.3305V46.5623C11.915 46.9785 12.827 47.1864 14.0029 47.1864C15.371 47.1864 16.7548 46.8182 18.1468 46.0745C19.5388 45.3302 20.6908 44.2505 21.6028 42.8342C22.5148 41.4185 22.9709 39.7463 22.9709 37.8263C22.9709 36.4586 22.7469 35.3625 22.2989 34.5465C21.859 33.7226 20.8669 33.2505 19.3229 33.1224C18.6748 33.1224 18.0111 33.2906 17.3391 33.6182C16.6588 33.9463 16.0669 34.3065 15.5631 34.6985C15.0589 35.0904 14.8109 35.3145 14.8109 35.3783Z" fill="#1A1A18"/>
<path fill-rule="evenodd" clip-rule="evenodd" d="M40.9695 11.564L37.7456 22.9963L27.1296 22.4173L36.2066 29.2597L32.416 39.9785L41.2499 32.7751L49.5229 39.9785L45.9059 28.6841L54.8094 22.4173L43.7399 22.6407L40.9695 11.564Z" fill="#D9DADA"/>
<path d="M40.9695 11.564L37.7456 22.9963L27.1296 22.4173L36.2066 29.2597L32.416 39.9785L41.2499 32.7751L49.5229 39.9785L45.9059 28.6841L54.8094 22.4173L43.7399 22.6407L40.9695 11.564Z" stroke="#1A1A18" stroke-width="0.288" stroke-miterlimit="22.9256"/>
</g>
<defs>
<clipPath id="clip0_2_22765">
<rect width="1122.52" height="1587.4" fill="white" transform="translate(-411 -908)"/>
</clipPath>
</defs>
</svg>
