<svg width="420" height="59" viewBox="0 0 420 59" fill="none" xmlns="http://www.w3.org/2000/svg">
<g clip-path="url(#clip0_2_22765)">
<path d="M8.92236 21.7896V21.0037C9.2281 21.0321 10.1632 21.0787 11.7169 21.1497C13.2314 21.0855 14.1736 21.0393 14.5508 21.0037V21.8323H13.6725C13.2174 21.8323 12.901 21.971 12.7302 22.2447C12.5594 22.5187 12.4634 22.9238 12.4388 23.4571C12.4672 23.5142 12.4812 23.5958 12.4812 23.713V30.1948C12.4812 31.0944 12.5488 31.8269 12.6841 32.3957C12.819 32.9611 13.1497 33.2454 13.6725 33.2454H14.6785V33.9922C13.8361 33.8785 12.8761 33.8214 11.7985 33.8214C10.7248 33.8214 9.76476 33.8785 8.92236 33.9922V33.1992H9.8785C10.6326 33.1992 11.0094 32.6731 11.0094 31.6206V24.5415C11.0094 23.7556 10.981 23.1158 10.9206 22.6252C10.8636 22.1347 10.7142 21.8712 10.4796 21.8323C10.3624 21.8039 10.117 21.7896 9.73303 21.7896H8.92236Z" fill="#1A1A18"/>
<path d="M22.4225 34.3335L22.0851 34.0737C22.5791 32.2747 22.8565 29.3736 22.9136 25.3738C21.9248 26.5468 21.2528 27.3576 20.8976 27.8092C20.5381 28.2571 20.1613 28.801 19.7633 29.4447C19.3649 30.0846 19.0308 30.7815 18.7568 31.5388C18.4797 32.2926 18.2877 33.1248 18.1775 34.0348H16.8761L17.3845 24.9859L15.7241 25.3738V24.538C17.0043 24.538 18.1559 24.2074 19.1764 23.5387L18.4548 30.3193C18.8956 29.4907 19.3544 28.7266 19.8272 28.0225C20.3037 27.3221 20.8227 26.6356 21.3844 25.9636C21.9425 25.2916 22.5968 24.563 23.3399 23.7735H24.5096L24.0013 32.8189L25.5373 32.627V33.37C24.4741 33.409 23.4359 33.7291 22.4225 34.3335Z" fill="#1A1A18"/>
<path d="M27.205 40.0297L28.0795 24.4987L26.3088 24.5879V23.7097H27.2688C27.66 23.7097 27.9126 23.5925 28.0191 23.3611C28.1291 23.1265 28.1862 22.7674 28.1862 22.2769C28.1862 20.9717 28.2251 19.8802 28.3104 19.0057C28.3959 18.131 28.6128 17.2954 28.9542 16.4956C29.6866 14.8066 30.5967 13.9603 31.6848 13.9603C31.7454 13.9603 31.8164 13.9637 31.898 13.9709C31.9835 13.9781 32.0544 13.982 32.1115 13.982V15.7095H31.2366C31.1766 15.7095 31.1338 15.6778 31.1123 15.6173C31.0911 15.5569 31.0767 15.468 31.0662 15.347C31.0555 15.2261 31.0378 15.1339 31.0091 15.0625C30.9846 14.9914 30.9308 14.9488 30.8526 14.9381C30.3692 14.9381 30.0918 15.5534 30.0246 16.7765L29.7006 23.6669H32.1543V24.5415L29.6155 24.4987L28.2715 39.7522L27.205 40.0297Z" fill="#1A1A18"/>
<path d="M35.0556 33.1178L37.0183 32.7337V33.6472C35.7204 33.6938 34.4829 33.9496 33.3064 34.4189C33.3559 33.7504 33.3915 33.0893 33.4164 32.4313C33.4413 31.7737 33.4696 30.8492 33.5052 29.6545C33.5445 28.4636 33.5835 27.4537 33.6227 26.6287C33.6655 25.8039 33.7221 24.9967 33.7969 24.2003C33.9001 23.1337 34.0029 22.1987 34.0989 21.3985C34.1987 20.5949 34.3053 19.8376 34.4224 19.116C34.54 18.3976 34.6787 17.6405 34.8352 16.8438C34.9916 16.0475 35.1871 15.1373 35.4217 14.1134H37.7647V14.7461C37.6975 14.7922 37.5799 14.8777 37.4128 15.0059C37.2457 15.134 37.0432 15.4288 36.8047 15.8948C36.57 16.3637 36.3356 17.0751 36.1044 18.0351C35.9373 18.7249 35.7915 19.8059 35.6636 21.2776C35.5356 22.7497 35.4289 24.3711 35.3364 26.138C35.2476 27.9054 35.1765 29.4731 35.13 30.8459C35.0805 32.2144 35.0556 32.9718 35.0556 33.1178Z" fill="#1A1A18"/>
<path d="M41.2211 23.411L41.5196 23.713C40.9081 26.0137 40.6024 28.8154 40.6024 32.1184C41.2777 31.379 41.9425 30.5434 42.59 29.6084C43.2371 28.6768 43.7987 27.7095 44.2787 26.7067C44.7553 25.7007 45.0967 24.7264 45.292 23.7736H46.6821L46.1276 32.6909L47.8129 32.3318V33.1993C46.4191 33.1993 45.2209 33.5372 44.2255 34.2054C44.716 31.5889 44.9791 29.2138 45.0184 27.0802C43.4857 29.7115 41.8716 32.0295 40.1756 34.0349H39.0236L39.5569 24.8189L37.9783 25.1995V24.4138C38.6076 24.3782 39.1517 24.2822 39.6175 24.1326C40.0796 23.9833 40.6129 23.7451 41.2211 23.411Z" fill="#1A1A18"/>
<path d="M54.771 30.3193L55.4321 30.4081C55.4321 30.7033 55.3433 31.1372 55.169 31.706C54.9914 32.2786 54.6323 32.8225 54.0846 33.3415C53.537 33.8608 52.7618 34.1204 51.7596 34.1204C51.0338 34.1204 50.4366 33.9317 49.9673 33.5512C49.4982 33.1744 49.1565 32.6694 48.9434 32.0333C48.7302 31.4002 48.6233 30.6961 48.6233 29.9176C48.666 29.1 48.7548 28.332 48.8934 27.6174C49.0322 26.906 49.2492 26.2412 49.5372 25.6262C49.8285 25.0076 50.2125 24.5132 50.6925 24.1364C51.1692 23.7596 51.7451 23.5604 52.4205 23.5388C53.0075 23.5388 53.4804 23.6564 53.8428 23.8945C54.2018 24.1327 54.4614 24.4565 54.618 24.8617C54.7744 25.2668 54.8526 25.729 54.8526 26.2484C54.8526 26.6929 54.7673 27.2867 54.5968 28.0369C53.1996 28.5025 51.724 28.826 50.177 29.0002C50.1702 29.0002 50.1414 29.2493 50.0954 29.7471C50.177 31.9301 50.9238 33.0535 52.3356 33.1178C52.769 33.1178 53.1745 32.9968 53.5514 32.7515C53.9248 32.5061 54.2234 32.1787 54.4403 31.7737C54.6606 31.3681 54.771 30.9418 54.771 30.4936V30.3193ZM50.2623 28.3139L52.1436 28.0369C52.588 27.9515 52.9361 27.7238 53.1817 27.3542C53.427 26.988 53.5514 26.5613 53.5514 26.0741C53.5514 25.5231 53.4837 25.0571 53.345 24.6803C53.2101 24.3035 52.9005 24.1147 52.4205 24.1147C51.7058 24.1326 51.1691 24.6236 50.8134 25.5904C50.4543 26.5541 50.259 27.4288 50.2197 28.211C50.2374 28.2322 50.2481 28.2572 50.2553 28.2749C50.259 28.2928 50.2623 28.3071 50.2623 28.3139Z" fill="#1A1A18"/>
<path d="M63.0443 34.3335L62.7069 34.0737C63.2009 32.2747 63.4783 29.3736 63.5354 25.3738C62.5466 26.5468 61.8746 27.3576 61.5194 27.8092C61.1599 28.2571 60.7831 28.801 60.3851 29.4447C59.9867 30.0846 59.6526 30.7815 59.3786 31.5388C59.1015 32.2926 58.9095 33.1248 58.7993 34.0348H57.4979L58.0063 24.9859L56.3459 25.3738V24.538C57.6261 24.538 58.7777 24.2074 59.7982 23.5387L59.0766 30.3193C59.5173 29.4907 59.9762 28.7266 60.449 28.0225C60.9255 27.3221 61.4445 26.6356 62.0062 25.9636C62.5643 25.2916 63.2186 24.563 63.9617 23.7735H65.1314L64.6231 32.8189L66.1591 32.627V33.37C65.0959 33.409 64.0577 33.7291 63.0443 34.3335Z" fill="#1A1A18"/>
<path d="M70.8775 24.2857C70.1274 24.3035 69.5729 24.8367 69.2134 25.8821C68.8545 26.9275 68.6625 28.1185 68.6374 29.4518C68.6374 31.7809 69.249 32.9468 70.4725 32.9468C71.1157 32.8936 71.6245 32.6909 72.0013 32.3281C72.3746 31.9691 72.6377 31.5995 72.787 31.2118C72.9363 30.8278 73.0107 30.5756 73.0107 30.4508H73.5905C73.5905 30.6784 73.4945 31.0801 73.3025 31.6633C73.1105 32.2465 72.7477 32.8013 72.211 33.3308C71.6739 33.8573 70.9275 34.1204 69.9637 34.1204C69.2599 34.106 68.6874 33.9317 68.2466 33.6011C67.809 33.2669 67.4926 32.8331 67.3045 32.2964C67.1158 31.7593 67.0126 31.1584 66.9949 30.4902C66.9949 29.7078 67.0697 28.922 67.219 28.1362C67.3683 27.3542 67.6207 26.6107 67.9726 25.9105C68.3283 25.2063 68.8011 24.6448 69.3949 24.218C69.9886 23.7951 70.7067 23.5816 71.5425 23.5816C72.0866 23.5816 72.6555 23.7452 73.2454 24.0725V26.6147H71.9657V25.9921C71.9657 24.8545 71.6029 24.2857 70.8775 24.2857Z" fill="#1A1A18"/>
<path d="M80.6733 30.3193L81.3343 30.4081C81.3343 30.7033 81.2454 31.1372 81.0713 31.706C80.8935 32.2786 80.5345 32.8225 79.9869 33.3415C79.4393 33.8608 78.6641 34.1204 77.6617 34.1204C76.9361 34.1204 76.3389 33.9317 75.8694 33.5512C75.4005 33.1744 75.0587 32.6694 74.8455 32.0333C74.6325 31.4002 74.5254 30.6961 74.5254 29.9176C74.5682 29.1 74.657 28.332 74.7957 27.6174C74.9343 26.906 75.1514 26.2412 75.4394 25.6262C75.7307 25.0076 76.1147 24.5132 76.5947 24.1364C77.0714 23.7596 77.6474 23.5604 78.3227 23.5388C78.9097 23.5388 79.3825 23.6564 79.745 23.8945C80.1041 24.1327 80.3637 24.4565 80.5202 24.8617C80.6766 25.2668 80.7549 25.729 80.7549 26.2484C80.7549 26.6929 80.6694 27.2867 80.499 28.0369C79.1017 28.5025 77.6262 28.826 76.0793 29.0002C76.0725 29.0002 76.0437 29.2493 75.9975 29.7471C76.0793 31.9301 76.8261 33.0535 78.2377 33.1178C78.6713 33.1178 79.0767 32.9968 79.4535 32.7515C79.827 32.5061 80.1255 32.1787 80.3425 31.7737C80.5629 31.3681 80.6733 30.9418 80.6733 30.4936V30.3193ZM76.1646 28.3139L78.0457 28.0369C78.4902 27.9515 78.8383 27.7238 79.0839 27.3542C79.3293 26.988 79.4535 26.5613 79.4535 26.0741C79.4535 25.5231 79.3859 25.0571 79.2473 24.6803C79.1123 24.3035 78.8027 24.1147 78.3227 24.1147C77.6081 24.1326 77.0714 24.6236 76.7157 25.5904C76.3566 26.5541 76.1613 27.4288 76.1219 28.211C76.1397 28.2322 76.1503 28.2572 76.1574 28.2749C76.1613 28.2928 76.1646 28.3071 76.1646 28.3139Z" fill="#1A1A18"/>
<path d="M20.0386 46.6937C19.6512 46.6937 19.2174 46.6084 18.7374 46.4378V45.6876C18.9222 45.7658 19.1852 45.8297 19.5231 45.8796C19.6403 45.8513 19.754 45.8369 19.8678 45.8369C20.796 45.7658 21.4254 45.4956 21.7489 45.0334C22.0725 44.5712 22.236 43.9274 22.236 43.1099C22.236 42.1427 21.987 41.4281 21.493 40.9658C20.9986 40.5002 20.2378 40.2689 19.2067 40.2689C19.1247 40.2689 18.9826 40.2761 18.78 40.2905C18.5736 40.3044 18.4244 40.3116 18.3318 40.3116L18.2895 49.7196C18.2895 50.3417 18.3855 50.8289 18.5736 51.188C18.7623 51.5471 19.1675 51.725 19.7827 51.725H20.9952V52.5142C20.1916 52.4004 19.26 52.3433 18.2003 52.3433C17.2119 52.3433 16.0599 52.4148 14.748 52.5569V51.7712H15.6654C16.1775 51.7712 16.4972 51.6075 16.6254 51.284C16.7535 50.9604 16.8174 50.4948 16.8174 49.8901L16.86 42.2954C16.8174 41.5702 16.7035 41.0441 16.515 40.7168C16.3267 40.3899 16.0315 40.2262 15.626 40.2262L14.7692 40.2689V39.5648C15.0288 39.5757 15.4662 39.5969 16.0883 39.6324C16.7107 39.668 17.2014 39.6967 17.5675 39.7145C18.5915 39.6575 19.3311 39.6074 19.7827 39.5648C20.0352 39.5364 20.2306 39.5225 20.3766 39.5225C20.9986 39.5225 21.578 39.668 22.1114 39.956C22.6484 40.2477 23.0714 40.6424 23.3843 41.1366C23.701 41.6345 23.8571 42.1745 23.8571 42.7649C23.8571 43.8602 23.5446 44.7915 22.9152 45.5562C22.2855 46.3204 21.3932 46.7115 20.2306 46.7331C20.1735 46.7044 20.1096 46.6937 20.0386 46.6937Z" fill="#1A1A18"/>
<path d="M31.9213 42.3382V44.1305C31.9001 44.1233 31.8574 44.1124 31.7935 44.1017C31.7293 44.0912 31.6438 44.0877 31.5373 44.0877C30.8335 44.0877 30.0938 44.9268 29.3153 46.6049C28.9702 47.3764 28.661 48.1908 28.3907 49.0476C28.1167 49.9011 27.8998 50.6724 27.7327 51.3656C27.5657 52.0553 27.4841 52.4537 27.4841 52.5569H26.3748L26.8619 43.5968L24.7534 44.0234V43.1705C25.2689 43.1594 25.8842 43.0601 26.6024 42.8714C27.3205 42.6866 27.9497 42.4697 28.4868 42.2316L28.206 47.6076C28.2272 47.5577 28.3837 47.1737 28.6788 46.4518C28.9702 45.7304 29.2084 45.1615 29.3897 44.7525C29.5712 44.3403 29.7526 43.9631 29.9336 43.6217C30.115 43.2804 30.2858 43.0245 30.4457 42.8537C30.7798 42.4806 31.1426 42.2954 31.5373 42.2954C31.6438 42.2954 31.7293 42.2993 31.7935 42.3098C31.8574 42.3203 31.9001 42.331 31.9213 42.3382Z" fill="#1A1A18"/>
<path d="M38.4745 48.8412L39.1356 48.93C39.1356 49.2252 39.0467 49.6591 38.8725 50.2279C38.6948 50.8004 38.3357 51.3443 37.7881 51.8632C37.2405 52.3825 36.4653 52.6423 35.4629 52.6423C34.7373 52.6423 34.1401 52.4536 33.6707 52.0731C33.2017 51.6963 32.86 51.1913 32.6468 50.5553C32.4337 49.9222 32.3267 49.218 32.3267 48.4394C32.3695 47.6219 32.4583 46.8539 32.5969 46.1392C32.7356 45.4279 32.9527 44.7631 33.2407 44.1482C33.532 43.5294 33.916 43.0351 34.396 42.6583C34.8727 42.2814 35.4487 42.0823 36.124 42.0607C36.7109 42.0607 37.1837 42.1783 37.5463 42.4163C37.9053 42.6545 38.1649 42.9784 38.3215 43.3835C38.4779 43.7887 38.5561 44.2509 38.5561 44.7703C38.5561 45.2147 38.4707 45.8084 38.3003 46.5587C36.9029 47.0243 35.4275 47.3479 33.8805 47.5221C33.8737 47.5221 33.8449 47.7712 33.7988 48.269C33.8805 50.452 34.6273 51.5752 36.0389 51.6395C36.4725 51.6395 36.878 51.5186 37.2548 51.2734C37.6283 51.028 37.9268 50.7007 38.1437 50.2955C38.3641 49.89 38.4745 49.4636 38.4745 49.0154V48.8412ZM33.9659 46.8358L35.8469 46.5587C36.2915 46.4733 36.6396 46.2457 36.8852 45.8761C37.1305 45.5099 37.2548 45.0832 37.2548 44.596C37.2548 44.045 37.1872 43.5789 37.0485 43.2021C36.9136 42.8253 36.604 42.6367 36.124 42.6367C35.4093 42.6545 34.8727 43.1454 34.5169 44.1123C34.1579 45.076 33.9625 45.9506 33.9232 46.733C33.9409 46.7542 33.9516 46.7791 33.9587 46.7969C33.9625 46.8146 33.9659 46.829 33.9659 46.8358Z" fill="#1A1A18"/>
<path d="M42.5027 51.6396L44.4655 51.2556V52.1692C43.1677 52.2156 41.9302 52.4715 40.7537 52.9409C40.8031 52.2724 40.8386 51.6113 40.8637 50.9533C40.8886 50.2956 40.9169 49.3712 40.9525 48.1764C40.9917 46.9854 41.0306 45.9756 41.0699 45.1506C41.1127 44.3259 41.1694 43.5185 41.2442 42.7222C41.3474 41.6556 41.4502 40.7205 41.5462 39.9204C41.6459 39.1169 41.7526 38.3595 41.8697 37.638C41.9873 36.9195 42.1259 36.1625 42.2825 35.3657C42.4389 34.5695 42.6343 33.6593 42.869 32.6354H45.2119V33.2681C45.1447 33.3143 45.0271 33.3996 44.8601 33.5278C44.693 33.6559 44.4905 33.9507 44.2519 34.4167C44.0173 34.8857 43.7829 35.597 43.5517 36.557C43.3846 37.2468 43.2386 38.3277 43.1109 39.7995C42.9827 41.2716 42.8762 42.8931 42.7837 44.66C42.6947 46.4273 42.6237 47.9951 42.5773 49.3678C42.5277 50.7364 42.5027 51.4937 42.5027 51.6396Z" fill="#1A1A18"/>
<path d="M53.0843 51.3871C53.486 51.2555 53.8486 51.163 54.172 51.1096L54.4283 51.5968C53.7136 51.7534 53.2087 51.8883 52.9168 51.9985C52.622 52.1089 52.1527 52.3364 51.5056 52.685C51.4807 52.7134 51.4202 52.7239 51.3347 52.7239C51.278 52.7239 51.2531 52.6423 51.2531 52.4714C51.4096 51.4864 51.5127 50.765 51.5623 50.3167C51.6087 49.8654 51.6299 49.3317 51.6299 48.7168V47.6287L49.7987 50.5907C49.4396 51.1845 48.9918 51.6751 48.4476 52.0624C47.9036 52.4503 47.3492 52.6423 46.7872 52.6423C45.9803 52.603 45.5747 51.835 45.5747 50.3345C45.6212 49.4494 45.845 48.5214 46.2539 47.5436C46.6628 46.5694 47.164 45.666 47.7578 44.8379C48.3554 44.0128 48.9635 43.3408 49.5856 42.8287C50.2076 42.317 50.7338 42.0607 51.1643 42.0607C51.292 42.0607 51.4379 42.0894 51.5978 42.1462C51.758 42.2032 51.893 42.2315 51.9962 42.2315L53.5106 42.0607C53.4362 42.9568 53.3186 44.1871 53.1694 45.7514C53.0167 47.3158 52.9168 48.3612 52.8707 48.8839C52.8247 49.41 52.7963 49.9077 52.7819 50.3809C52.8247 51.0492 52.924 51.3871 53.0843 51.3871ZM51.3775 42.9356C51.3136 42.893 51.2354 42.8713 51.1427 42.8713C50.837 42.8713 50.4602 43.0706 50.0156 43.4653C49.5678 43.8602 49.1267 44.3863 48.686 45.0439C48.2487 45.7019 47.8754 46.4201 47.573 47.2021C47.271 47.9843 47.0967 48.738 47.0503 49.4636C47.0503 49.5774 47.0326 49.6803 47.0007 49.7656C47.068 50.6296 47.3882 51.0635 47.9642 51.0635C48.437 51.0492 48.9207 50.74 49.4114 50.1391C49.9054 49.5347 50.3498 48.8094 50.7482 47.9561C51.1466 47.1026 51.4556 46.3025 51.6727 45.5594C51.8007 45.1898 51.8647 44.6954 51.8647 44.0876C51.8647 43.4652 51.701 43.0812 51.3775 42.9356Z" fill="#1A1A18"/>
<path d="M56.3659 43.1489L54.9792 43.2128V42.2954L56.4547 42.3382L56.5791 40.2689L58.2039 39.8849L57.948 42.3382L60.2127 42.2954L60.1704 43.1705L57.7344 43.1489C57.6955 43.2377 57.6279 45.2644 57.5424 49.2253C57.5424 49.8512 57.5606 50.3273 57.5924 50.6546C57.6246 50.9782 57.7134 51.245 57.8592 51.4438C58.0086 51.6468 58.2395 51.7535 58.563 51.7673C58.5846 51.7463 58.6023 51.7318 58.62 51.7284C58.6344 51.725 58.645 51.7214 58.6522 51.7214C59.1427 51.6752 59.5446 51.4404 59.8536 51.0209C60.1632 50.5976 60.3159 50.0288 60.3159 49.3141H60.9169C60.9169 49.9615 60.7926 50.5337 60.5506 51.0353C60.3087 51.5364 59.964 51.9204 59.523 52.1941C59.0823 52.4644 58.5702 52.5996 57.9907 52.5996C57.5247 52.5996 57.1162 52.5285 56.7639 52.3826C56.412 52.2368 56.1667 52.1196 56.0246 52.0236C56.0136 51.7924 55.9996 51.4476 55.9854 50.996C55.971 50.5444 55.957 50.2068 55.9426 49.9754C55.9747 48.5072 56.1135 46.2315 56.3659 43.1489Z" fill="#1A1A18"/>
<path d="M67.8289 48.8412L68.4899 48.93C68.4899 49.2252 68.4012 49.6591 68.2269 50.2279C68.0493 50.8004 67.6902 51.3443 67.1425 51.8632C66.5949 52.3825 65.8197 52.6423 64.8174 52.6423C64.0917 52.6423 63.4945 52.4536 63.0252 52.0731C62.5561 51.6963 62.2143 51.1913 62.0013 50.5553C61.7881 49.9222 61.6812 49.218 61.6812 48.4394C61.7238 47.6219 61.8126 46.8539 61.9514 46.1392C62.0901 45.4279 62.307 44.7631 62.595 44.1482C62.8864 43.5294 63.2704 43.0351 63.7504 42.6583C64.227 42.2814 64.803 42.0823 65.4784 42.0607C66.0654 42.0607 66.5382 42.1783 66.9006 42.4163C67.2597 42.6545 67.5194 42.9784 67.6758 43.3835C67.8324 43.7887 67.9105 44.2509 67.9105 44.7703C67.9105 45.2147 67.8252 45.8084 67.6546 46.5587C66.2574 47.0243 64.7818 47.3479 63.2349 47.5221C63.2281 47.5221 63.1994 47.7712 63.1533 48.269C63.2349 50.452 63.9817 51.5752 65.3934 51.6395C65.8269 51.6395 66.2325 51.5186 66.6093 51.2734C66.9826 51.028 67.2813 50.7007 67.4982 50.2955C67.7185 49.89 67.8289 49.4636 67.8289 49.0154V48.8412ZM63.3204 46.8358L65.2014 46.5587C65.6458 46.4733 65.994 46.2457 66.2396 45.8761C66.4849 45.5099 66.6093 45.0832 66.6093 44.596C66.6093 44.045 66.5415 43.5789 66.4029 43.2021C66.2679 42.8253 65.9584 42.6367 65.4784 42.6367C64.7637 42.6545 64.227 43.1454 63.8714 44.1123C63.5124 45.076 63.3169 45.9506 63.2776 46.733C63.2954 46.7542 63.306 46.7791 63.3132 46.7969C63.3169 46.8146 63.3204 46.829 63.3204 46.8358Z" fill="#1A1A18"/>
<path d="M70.2396 50.0181C70.2396 50.4304 70.3245 50.7895 70.492 51.1063C70.6624 51.4192 70.8937 51.6607 71.1852 51.8278C71.4765 51.9953 71.7933 52.0803 72.1345 52.0874C72.6891 52.0874 73.1618 51.9275 73.5531 51.604C73.9442 51.2839 74.1396 50.8393 74.1396 50.274C74.1396 49.8261 74.033 49.4599 73.8233 49.1685C73.6134 48.8767 73.2937 48.5782 72.8599 48.269L71.7291 47.4367C70.9044 46.7614 70.4738 45.9506 70.4316 45.005C70.4316 44.1764 70.6624 43.5044 71.1281 42.9784C71.5941 42.4556 72.2766 42.1639 73.1796 42.1034C73.4393 42.1034 73.7451 42.1427 74.0973 42.2209C74.4525 42.2992 74.6235 42.3381 74.6091 42.3381V44.596H73.9692V44.0234C73.9692 43.6715 73.8804 43.3586 73.7094 43.0883C73.539 42.8147 73.2972 42.6794 72.9876 42.6794C72.6501 42.6794 72.3549 42.8431 72.1024 43.1737C71.8537 43.5007 71.7291 43.8314 71.7291 44.1694C71.7756 45.0122 72.2162 45.7408 73.0518 46.3452L74.0153 47.0066C74.9253 47.6325 75.402 48.4288 75.4413 49.3993C75.4413 49.8261 75.3093 50.2955 75.0464 50.8072C74.787 51.3193 74.4031 51.7534 73.9015 52.109C73.4004 52.4643 72.81 52.6423 72.1345 52.6423H72.0918C71.4376 52.6423 70.876 52.5531 70.4028 52.3754C69.9337 52.2013 69.6064 52.0519 69.425 51.9347L69.6813 48.7168L70.3424 48.8023C70.3317 48.8163 70.3177 48.9587 70.2963 49.2218C70.2784 49.4848 70.2607 49.7516 70.2396 50.0181Z" fill="#1A1A18"/>
<path d="M183.36 35.4255H177.8L176.992 41.2415H182.504L183.36 35.4255ZM189.08 43.5934H184.464L183.272 52.7615H180.824L182.12 43.5934H176.696L175.392 52.7615H172.944L174.152 43.5934H169.736V41.3375H174.536L175.392 35.5295H170.888V33.1775H175.688L176.88 24.4334H179.336L178.088 33.1775H183.656L184.848 24.4334H187.296L186.056 33.1775H190.088V35.5295H185.72L184.848 41.3375H189.08V43.5934Z" fill="#1A1A18"/>
<path d="M322.137 35.4255H316.577L315.769 41.2415H321.281L322.137 35.4255ZM327.857 43.5934H323.241L322.049 52.7615H319.601L320.897 43.5934H315.473L314.169 52.7615H311.721L312.929 43.5934H308.513V41.3375H313.313L314.169 35.5295H309.665V33.1775H314.465L315.657 24.4334H318.113L316.865 33.1775H322.433L323.625 24.4334H326.073L324.833 33.1775H328.865V35.5295H324.497L323.625 41.3375H327.857V43.5934Z" fill="#1A1A18"/>
<path d="M399.776 35.5797L405.083 42.9396C406.075 44.2836 407.205 44.9555 408.475 44.9555H409.147V46.2036C407.504 45.9904 406.043 45.8837 404.763 45.8837C403.429 45.8837 401.877 45.9904 400.096 46.2036V44.9555H401.915C402.789 44.9555 403.227 44.7423 403.227 44.3208C403.227 43.9955 403.035 43.5797 402.651 43.0677L398.389 37.4678L394.651 43.1316C394.421 43.5317 394.272 43.8837 394.203 44.1875C394.256 44.7423 394.907 45.025 396.155 45.025H397.408V46.2036C396.027 46.0757 394.587 46.0167 393.088 46.0167C391.323 46.0167 389.744 46.0969 388.347 46.2677V45.0889C390.539 45.0889 392.117 44.3742 393.088 42.9396L397.717 36.385L393.211 30.4008C392.512 29.425 391.861 28.753 391.264 28.3906C390.667 28.0224 389.771 27.8357 388.571 27.8357V26.5877C389.894 26.7533 391.403 26.8705 393.088 26.9397C394.853 26.8598 396.187 26.7691 397.088 26.6573V27.8997H395.835C395.051 27.8997 394.635 28.0598 394.587 28.3849C394.683 28.7584 394.853 29.1211 395.104 29.4677L398.907 34.7157L401.717 30.2037C402.213 29.3449 402.459 28.7798 402.459 28.5077C402.459 28.0598 402.043 27.8357 401.211 27.8357H399.899V26.6573C401.072 26.785 402.299 26.8757 403.579 26.9397C404.987 26.8757 406.283 26.785 407.451 26.6573V27.8997H406.779C406.213 27.8997 405.787 27.9423 405.499 28.033C405.211 28.1185 404.976 28.2677 404.784 28.4703C404.592 28.6729 404.304 29.0626 403.915 29.6438C403.525 30.2252 403.12 30.7849 402.709 31.3291L399.776 35.5797Z" fill="#1A1A18"/>
<path fill-rule="evenodd" clip-rule="evenodd" d="M193.72 31.3409H239.925V52.7615H193.72V31.3409Z" fill="#AD4482"/>
<path fill-rule="evenodd" clip-rule="evenodd" d="M332.497 31.3409H378.702V52.7615H332.497V31.3409Z" fill="#AD4482"/>
<path fill-rule="evenodd" clip-rule="evenodd" d="M218.82 21.1237H240.064V31.8337H218.82V21.1237Z" fill="#AD4482"/>
<path fill-rule="evenodd" clip-rule="evenodd" d="M357.597 21.1237H378.841V31.8337H357.597V21.1237Z" fill="#AD4482"/>
<path fill-rule="evenodd" clip-rule="evenodd" d="M229.178 8.66219L223.929 14.8356L218.681 21.0095H229.178H239.675L234.427 14.8356L229.178 8.66219Z" fill="#AD4482"/>
<path fill-rule="evenodd" clip-rule="evenodd" d="M367.954 8.66219L362.706 14.8356L357.457 21.0095H367.954H378.452L373.203 14.8356L367.954 8.66219Z" fill="#AD4482"/>
<path fill-rule="evenodd" clip-rule="evenodd" d="M125.433 7.12244L135.376 16.312L145.318 25.5015L141.52 40.3702L137.723 55.2391H125.433H113.143L109.345 40.3702L105.547 25.5015L115.49 16.312L125.433 7.12244Z" fill="#AD4482"/>
<path d="M125.433 7.12244L135.376 16.312L145.318 25.5015L141.52 40.3702L137.723 55.2391H125.433H113.143L109.345 40.3702L105.547 25.5015L115.49 16.312L125.433 7.12244Z" stroke="#1A1A18" stroke-width="0.288" stroke-miterlimit="22.9256"/>
<path fill-rule="evenodd" clip-rule="evenodd" d="M113.058 55.1984H137.665V58.8966H113.058V55.1984Z" fill="white"/>
<path d="M113.058 55.1984H137.665V58.8966H113.058V55.1984Z" stroke="#1A1A18" stroke-width="0.288" stroke-miterlimit="22.9256"/>
<path fill-rule="evenodd" clip-rule="evenodd" d="M105.578 25.5733L124.263 20.5667L124.521 21.5282L105.835 26.5349L105.578 25.5733Z" fill="white"/>
<path d="M105.578 25.5733L124.263 20.5667L124.521 21.5282L105.835 26.5349L105.578 25.5733Z" stroke="#1A1A18" stroke-width="0.288" stroke-miterlimit="22.9256"/>
<path fill-rule="evenodd" clip-rule="evenodd" d="M126.148 21.457L145.155 26.5499L145.417 25.5714L126.41 20.4785L126.148 21.457Z" fill="white"/>
<path d="M126.148 21.457L145.155 26.5499L145.417 25.5714L126.41 20.4785L126.148 21.457Z" stroke="#1A1A18" stroke-width="0.288" stroke-miterlimit="22.9256"/>
<path fill-rule="evenodd" clip-rule="evenodd" d="M123.868 7.8337H126.855V55.2914H123.868V7.8337Z" fill="white"/>
<path d="M123.868 7.8337H126.855V55.2914H123.868V7.8337Z" stroke="#1A1A18" stroke-width="0.288" stroke-miterlimit="22.9256"/>
<path fill-rule="evenodd" clip-rule="evenodd" d="M125.433 4.13538C126.847 4.13538 127.993 5.28181 127.993 6.69568C127.993 8.10968 126.847 9.25598 125.433 9.25598C124.019 9.25598 122.873 8.10968 122.873 6.69568C122.873 5.28181 124.019 4.13538 125.433 4.13538Z" fill="#D7B469"/>
<path d="M125.433 4.13538C126.847 4.13538 127.993 5.28181 127.993 6.69568C127.993 8.10968 126.847 9.25598 125.433 9.25598C124.019 9.25598 122.873 8.10968 122.873 6.69568C122.873 5.28181 124.019 4.13538 125.433 4.13538Z" stroke="#1A1A18" stroke-width="0.288" stroke-miterlimit="22.9256"/>
<path fill-rule="evenodd" clip-rule="evenodd" d="M127.189 14.1139C127.189 14.8992 126.494 15.5361 125.637 15.5361C124.78 15.5361 124.086 14.8992 124.086 14.1139C124.086 13.3281 124.78 12.6912 125.637 12.6912C126.494 12.6912 127.189 13.3281 127.189 14.1139Z" fill="#D7B469"/>
<path d="M127.189 14.1139C127.189 14.8992 126.494 15.5361 125.637 15.5361C124.78 15.5361 124.086 14.8992 124.086 14.1139C124.086 13.3281 124.78 12.6912 125.637 12.6912C126.494 12.6912 127.189 13.3281 127.189 14.1139Z" stroke="#1A1A18" stroke-width="0.288" stroke-miterlimit="22.9256"/>
<path fill-rule="evenodd" clip-rule="evenodd" d="M127.135 20.3889C127.135 21.1743 126.44 21.8112 125.583 21.8112C124.726 21.8112 124.031 21.1743 124.031 20.3889C124.031 19.6031 124.726 18.9663 125.583 18.9663C126.44 18.9663 127.135 19.6031 127.135 20.3889Z" fill="#D7B469"/>
<path d="M127.135 20.3889C127.135 21.1743 126.44 21.8112 125.583 21.8112C124.726 21.8112 124.031 21.1743 124.031 20.3889C124.031 19.6031 124.726 18.9663 125.583 18.9663C126.44 18.9663 127.135 19.6031 127.135 20.3889Z" stroke="#1A1A18" stroke-width="0.288" stroke-miterlimit="22.9256"/>
<path fill-rule="evenodd" clip-rule="evenodd" d="M127.151 26.6641C127.151 27.4494 126.457 28.0863 125.599 28.0863C124.743 28.0863 124.048 27.4494 124.048 26.6641C124.048 25.8784 124.743 25.2414 125.599 25.2414C126.457 25.2414 127.151 25.8784 127.151 26.6641Z" fill="#D7B469"/>
<path d="M127.151 26.6641C127.151 27.4494 126.457 28.0863 125.599 28.0863C124.743 28.0863 124.048 27.4494 124.048 26.6641C124.048 25.8784 124.743 25.2414 125.599 25.2414C126.457 25.2414 127.151 25.8784 127.151 26.6641Z" stroke="#1A1A18" stroke-width="0.288" stroke-miterlimit="22.9256"/>
<path fill-rule="evenodd" clip-rule="evenodd" d="M127.168 32.8678C127.168 33.6536 126.473 34.2905 125.616 34.2905C124.759 34.2905 124.064 33.6536 124.064 32.8678C124.064 32.0825 124.759 31.4456 125.616 31.4456C126.473 31.4456 127.168 32.0825 127.168 32.8678Z" fill="#D7B469"/>
<path d="M127.168 32.8678C127.168 33.6536 126.473 34.2905 125.616 34.2905C124.759 34.2905 124.064 33.6536 124.064 32.8678C124.064 32.0825 124.759 31.4456 125.616 31.4456C126.473 31.4456 127.168 32.0825 127.168 32.8678Z" stroke="#1A1A18" stroke-width="0.288" stroke-miterlimit="22.9256"/>
<path fill-rule="evenodd" clip-rule="evenodd" d="M127.256 39.2141C127.256 39.9998 126.561 40.6366 125.704 40.6366C124.847 40.6366 124.153 39.9998 124.153 39.2141C124.153 38.4286 124.847 37.7918 125.704 37.7918C126.561 37.7918 127.256 38.4286 127.256 39.2141Z" fill="#D7B469"/>
<path d="M127.256 39.2141C127.256 39.9998 126.561 40.6366 125.704 40.6366C124.847 40.6366 124.153 39.9998 124.153 39.2141C124.153 38.4286 124.847 37.7918 125.704 37.7918C126.561 37.7918 127.256 38.4286 127.256 39.2141Z" stroke="#1A1A18" stroke-width="0.288" stroke-miterlimit="22.9256"/>
<path fill-rule="evenodd" clip-rule="evenodd" d="M127.13 45.4181C127.13 46.2038 126.436 46.8403 125.579 46.8403C124.722 46.8403 124.027 46.2038 124.027 45.4181C124.027 44.6327 124.722 43.9958 125.579 43.9958C126.436 43.9958 127.13 44.6327 127.13 45.4181Z" fill="#D7B469"/>
<path d="M127.13 45.4181C127.13 46.2038 126.436 46.8403 125.579 46.8403C124.722 46.8403 124.027 46.2038 124.027 45.4181C124.027 44.6327 124.722 43.9958 125.579 43.9958C126.436 43.9958 127.13 44.6327 127.13 45.4181Z" stroke="#1A1A18" stroke-width="0.288" stroke-miterlimit="22.9256"/>
<path fill-rule="evenodd" clip-rule="evenodd" d="M127.147 51.6932C127.147 52.4789 126.452 53.1155 125.595 53.1155C124.738 53.1155 124.044 52.4789 124.044 51.6932C124.044 50.9077 124.738 50.271 125.595 50.271C126.452 50.271 127.147 50.9077 127.147 51.6932Z" fill="#D7B469"/>
<path d="M127.147 51.6932C127.147 52.4789 126.452 53.1155 125.595 53.1155C124.738 53.1155 124.044 52.4789 124.044 51.6932C124.044 50.9077 124.738 50.271 125.595 50.271C126.452 50.271 127.147 50.9077 127.147 51.6932Z" stroke="#1A1A18" stroke-width="0.288" stroke-miterlimit="22.9256"/>
<path d="M384.26 18.5491H411.821V52.7615H384.26V18.5491Z" stroke="#1A1A18" stroke-width="0.288" stroke-miterlimit="22.9256"/>
<path d="M259.121 24L265.681 27.5786L272.242 31.1569L265.681 35.2358L259.181 38.7358L252.561 34.7358L246 31L252.561 27.5786L259.121 24Z" fill="#D7B469" stroke="#1A1A18" stroke-width="0.288" stroke-miterlimit="22.9256"/>
<path d="M246.54 45.6996L246.361 38.468L246.181 31.2358L252.681 34.7358L259.181 38.7358V45.7358V53.2358L252.861 49.4677L246.54 45.6996Z" fill="#D7B469" stroke="#1A1A18" stroke-width="0.288" stroke-miterlimit="22.9256"/>
<path d="M259.181 38.7358L265.861 35.0039L272.181 31.2358L272.002 38.4681L271.822 45.7001L265.502 49.4677L259.181 53.2358V46.2358V38.7358Z" fill="#D7B469" stroke="#1A1A18" stroke-width="0.288" stroke-miterlimit="22.9256"/>
<path d="M302.061 40.0607C302.646 39.4749 302.646 38.5251 302.061 37.9393L292.515 28.3934C291.929 27.8076 290.979 27.8076 290.393 28.3934C289.808 28.9792 289.808 29.9289 290.393 30.5147L298.879 39L290.393 47.4853C289.808 48.0711 289.808 49.0208 290.393 49.6066C290.979 50.1924 291.929 50.1924 292.515 49.6066L302.061 40.0607ZM276 40.5H301V37.5H276V40.5Z" fill="black"/>
</g>
<defs>
<clipPath id="clip0_2_22765">
<rect width="1122.52" height="1587.4" fill="white" transform="translate(-97 -695)"/>
</clipPath>
</defs>
</svg>
