<svg width="61" height="58" viewBox="0 0 61 58" fill="none" xmlns="http://www.w3.org/2000/svg">
<g clip-path="url(#clip0_2_22765)">
<path d="M15.2102 38.8628L16.643 38.7312V39.4781C15.5549 39.3963 14.4671 39.3536 13.3757 39.3536C12.0883 39.3536 10.908 39.4103 9.83765 39.524V38.6922H11.0962C11.6439 38.6922 12.0067 38.5679 12.181 38.3154C12.3551 38.0663 12.4402 37.6506 12.4402 37.0708V30.6071V29.6044C12.4402 28.317 12.2414 27.599 11.843 27.4497C11.6155 27.3393 11.2527 27.2826 10.7515 27.2826H9.83765V26.4897C10.9719 26.5501 12.444 26.6069 14.2502 26.6601C16.0632 26.6106 17.5459 26.5536 18.6908 26.4897L18.7123 29.4336L17.9655 29.4762L17.9229 28.6905C17.8839 27.8903 17.3434 27.4923 16.2979 27.4923H13.8874V32.4843L16.7674 32.4417C17.1087 32.4168 17.3683 32.3385 17.5389 32.2103C17.7062 32.0789 17.7913 31.8513 17.7913 31.5244V30.9484H18.5203C18.5203 31.4424 18.5059 31.8264 18.4777 32.0966C18.5381 33.4301 18.5948 34.4044 18.6484 35.0232H17.8339V34.0238C17.8339 33.5226 17.507 33.2736 16.8562 33.2736L13.9335 33.2309V36.6869C13.9335 37.1918 14.0295 37.679 14.2215 38.1518C14.4101 38.6246 14.7408 38.8628 15.2102 38.8628Z" fill="#1A1A18"/>
<path d="M23.1923 32.6585C23.285 32.6691 23.427 32.6835 23.6157 32.6975C23.8005 32.7119 23.9392 32.7259 24.0246 32.7402C24.654 32.7259 25.2015 32.6192 25.6706 32.4167C26.1401 32.2175 26.5029 31.926 26.7553 31.5492C27.0112 31.1687 27.1393 30.7208 27.1393 30.2052C27.1393 29.8708 27.0573 29.4906 26.8902 29.0639C26.7232 28.6371 26.4351 28.2603 26.0301 27.9368C25.6245 27.6132 25.0912 27.4496 24.4336 27.4496C24.27 27.4496 24.0141 27.4569 23.6723 27.4709C23.3277 27.4851 23.1678 27.4923 23.1923 27.4923V32.6585ZM24.771 33.3162H23.1501V36.9427C23.1501 37.5187 23.2601 37.9563 23.477 38.255C23.6939 38.5535 24.0957 38.7133 24.6861 38.7349H25.4325V39.5668C24.2982 39.4529 23.4414 39.3963 22.8549 39.3963C22.5385 39.3963 22.1862 39.407 21.8022 39.4319C21.4149 39.453 20.9489 39.4885 20.4015 39.5347C19.8573 39.5811 19.5482 39.6061 19.4805 39.6095V38.8665H20.6786C21.0558 38.8665 21.3189 38.7311 21.461 38.468C21.6069 38.2016 21.6779 37.7783 21.6779 37.199V36.7295V30.479C21.6779 28.8435 21.5142 27.8763 21.1873 27.5811C21.1019 27.4641 20.8887 27.407 20.547 27.407H19.6298V26.6178C19.9393 26.6532 20.2451 26.6744 20.547 26.685C20.8494 26.696 21.1658 26.7066 21.4931 26.71C21.8201 26.7171 22.083 26.7206 22.275 26.7243C23.2422 26.7243 24.0318 26.6888 24.6467 26.6178C24.8709 26.589 25.0557 26.5751 25.1978 26.5751C25.7987 26.5751 26.3603 26.71 26.883 26.9768C27.4058 27.2471 27.822 27.62 28.1277 28.0967C28.4369 28.5767 28.5899 29.1066 28.5899 29.6898C28.5899 30.4256 28.4119 31.062 28.0601 31.6025C27.7082 32.1431 27.1926 32.5482 26.5206 32.8219C27.9783 35.7623 29.8273 38.4148 32.0709 40.7827L31.4272 41.1455C30.773 40.6156 30.122 40.0147 29.4788 39.3427C28.8386 38.6744 28.2165 37.9669 27.6193 37.2272C27.0183 36.4876 26.5062 35.8194 26.0795 35.2219C25.6494 34.6247 25.2155 33.9882 24.771 33.3162Z" fill="#1A1A18"/>
<path d="M31.978 27.3642V26.5752C33.2831 26.6496 34.7837 26.6994 36.4761 26.7243C38.1791 26.6994 39.6937 26.6496 41.0237 26.5752L41.173 29.519L40.4227 29.5616L40.3407 28.7688C40.3018 28.3137 40.1419 27.9973 39.8607 27.8302C39.5799 27.6629 39.1996 27.5778 38.7159 27.5778H35.9285V32.5694L39.1037 32.4843C39.4589 32.4557 39.7258 32.3918 39.9034 32.2924C40.0814 32.1892 40.1702 31.965 40.1702 31.6094V31.0301H40.892C40.892 31.6131 40.8778 32.0716 40.8494 32.4023C40.8988 33.3483 40.9416 34.1519 40.981 34.8095H40.2091V34.0631C40.2091 33.5687 39.8856 33.3197 39.2314 33.3197L36.01 33.2309V36.6906C36.01 37.1169 36.0388 37.4621 36.092 37.7289C36.1488 37.9953 36.277 38.2089 36.4723 38.3688C36.6715 38.5286 36.9629 38.6069 37.3541 38.6069H39.548C40.2661 38.6069 40.7497 38.3649 41.0059 37.8849C41.2579 37.4049 41.4005 36.8255 41.4289 36.1535H42.2146L41.8094 39.6096C39.7897 39.4958 38.2891 39.4388 37.308 39.4388C35.747 39.4388 33.9691 39.5101 31.978 39.6522V38.8204H33.2155C33.7594 38.8204 34.1222 38.6922 34.2965 38.4326C34.4707 38.1728 34.5595 37.7643 34.5595 37.199V30.6921C34.5595 29.8353 34.524 29.1421 34.4563 28.6161C34.3852 28.0896 34.2217 27.7304 33.9623 27.5351C33.8698 27.4212 33.5429 27.3642 32.9809 27.3642H31.978Z" fill="#1A1A18"/>
<path d="M42.9897 27.3642V26.5752C44.2948 26.6496 45.7953 26.6994 47.4878 26.7243C49.1909 26.6994 50.7052 26.6496 52.0352 26.5752L52.1846 29.519L51.4343 29.5616L51.3523 28.7688C51.3134 28.3137 51.1535 27.9973 50.8723 27.8302C50.5915 27.6629 50.2113 27.5778 49.7275 27.5778H46.94V32.5694L50.1152 32.4843C50.4706 32.4557 50.7374 32.3918 50.915 32.2924C51.0931 32.1892 51.1819 31.965 51.1819 31.6094V31.0301H51.9038C51.9038 31.6131 51.8894 32.0716 51.8611 32.4023C51.9106 33.3483 51.9533 34.1519 51.9926 34.8095H51.2209V34.0631C51.2209 33.5687 50.8973 33.3197 50.243 33.3197L47.0218 33.2309V36.6906C47.0218 37.1169 47.0504 37.4621 47.1038 37.7289C47.1604 37.9953 47.2886 38.2089 47.484 38.3688C47.6831 38.5286 47.9746 38.6069 48.3658 38.6069H50.5598C51.2779 38.6069 51.7612 38.3649 52.0175 37.8849C52.2696 37.4049 52.412 36.8255 52.4404 36.1535H53.2262L52.8211 39.6096C50.8013 39.4958 49.3009 39.4388 48.3197 39.4388C46.7587 39.4388 44.9808 39.5101 42.9897 39.6522V38.8204H44.2271C44.771 38.8204 45.1339 38.6922 45.308 38.4326C45.4823 38.1728 45.5711 37.7643 45.5711 37.199V30.6921C45.5711 29.8353 45.5356 29.1421 45.468 28.6161C45.397 28.0896 45.2332 27.7304 44.974 27.5351C44.8814 27.4212 44.5544 27.3642 43.9924 27.3642H42.9897Z" fill="#1A1A18"/>
<path d="M2.58671 52.5219C2.58671 53.3565 2.7387 54.0848 3.04256 54.7061C3.34936 55.3245 3.79988 55.642 4.39482 55.6578C5.06415 55.6578 5.51737 55.2979 5.75203 54.5752C5.98937 53.8552 6.10657 52.9725 6.10657 51.9274C6.10657 50.3513 5.53588 49.5618 4.39482 49.5618C4.20015 49.5618 3.9919 49.5939 3.77083 49.6608L3.80522 49.1778C3.78135 49.1778 3.90123 49.1434 4.16536 49.0738C4.42656 49.0047 4.65871 48.9699 4.86125 48.9699C5.38138 48.9699 5.82124 49.1139 6.18404 49.4046C6.54391 49.6951 6.81337 50.0713 6.9895 50.5328C7.16524 50.9938 7.26122 51.4791 7.27482 51.9939C7.27482 52.6765 7.14938 53.3353 6.89884 53.9725C6.65084 54.6127 6.28538 55.1298 5.81071 55.5274C5.33338 55.9246 4.77617 56.1219 4.14124 56.1219C3.53617 56.1219 3.02935 55.9699 2.61882 55.6661C2.20535 55.3618 1.9015 54.9593 1.7015 54.4605C1.50123 53.962 1.40259 53.4181 1.40259 52.8258C1.40259 52.6126 1.40789 52.4528 1.41882 52.3458C1.60816 50.7512 2.00804 49.4499 2.61617 48.4471C3.2239 47.4445 3.88003 46.7113 4.58683 46.2418C5.29323 45.7754 5.91192 45.4711 6.44792 45.3271C6.98378 45.1858 7.34937 45.1167 7.54924 45.1167L7.61084 45.6579C7.43204 45.6579 7.11459 45.7222 6.65885 45.8473C6.20525 45.9754 5.6799 46.2607 5.08004 46.7032C4.48257 47.1486 3.94135 47.8474 3.45601 48.7994C2.97068 49.7512 2.68004 50.9938 2.58671 52.5219Z" fill="#1A1A18"/>
<path d="M32 3C46.3594 3 58 14.6407 58 29C58 43.3594 46.3594 55 32 55C17.6406 55 6 43.3594 6 29C6 14.6407 17.6406 3 32 3Z" stroke="#E3000F" stroke-width="2.6664" stroke-miterlimit="22.9256" stroke-dasharray="13.33 13.33"/>
<path fill-rule="evenodd" clip-rule="evenodd" d="M12.0536 46.2963C13.172 46.2963 14.0787 47.3077 14.0787 48.5549C14.0787 49.8026 13.172 50.8135 12.0536 50.8135C10.9354 50.8135 10.0286 49.8026 10.0286 48.5549C10.0286 47.3077 10.9354 46.2963 12.0536 46.2963Z" fill="#1A1A18"/>
<path d="M12.0536 46.2963C13.172 46.2963 14.0787 47.3077 14.0787 48.5549C14.0787 49.8026 13.172 50.8135 12.0536 50.8135C10.9354 50.8135 10.0286 49.8026 10.0286 48.5549C10.0286 47.3077 10.9354 46.2963 12.0536 46.2963Z" stroke="#1A1A18" stroke-width="0.288" stroke-miterlimit="22.9256"/>
<path fill-rule="evenodd" clip-rule="evenodd" d="M12.1314 54.5524H8.00342C8.00342 52.4017 9.8517 50.6578 12.1314 50.6578C14.4113 50.6578 16.2594 52.4017 16.2594 54.5524H12.1314Z" fill="#1A1A18"/>
<path d="M12.1314 54.5524H8.00342C8.00342 52.4017 9.8517 50.6578 12.1314 50.6578C14.4113 50.6578 16.2594 52.4017 16.2594 54.5524H12.1314Z" stroke="#1A1A18" stroke-width="0.288" stroke-miterlimit="22.9256"/>
</g>
<defs>
<clipPath id="clip0_2_22765">
<rect width="1122.52" height="1587.4" fill="white" transform="translate(-654 -830)"/>
</clipPath>
</defs>
</svg>
