<svg width="61" height="58" viewBox="0 0 61 58" fill="none" xmlns="http://www.w3.org/2000/svg">
<g clip-path="url(#clip0_2_22765)">
<path d="M31 3C45.3594 3 57 14.6407 57 29C57 43.3594 45.3594 55 31 55C16.6406 55 5 43.3594 5 29C5 14.6407 16.6406 3 31 3Z" stroke="#E3000F" stroke-width="2.6664" stroke-miterlimit="22.9256" stroke-dasharray="13.33 13.33"/>
<path d="M16.0591 41.7469L30.3071 43.2349L29.6911 45.2989C26.443 45.1069 22.835 45.0029 18.8831 45.0029C14.251 45.0029 10.651 45.1707 8.09115 45.4908L7.75513 42.7548C8.29899 42.7548 8.69928 42.787 8.94714 42.8509C9.26728 42.787 9.69927 42.7548 10.2511 42.7548C11.6911 42.6028 13.0351 42.0908 14.2751 41.2268C15.5231 40.3628 16.595 39.2909 17.515 38.0108C18.427 36.731 19.1311 35.395 19.627 34.0109C20.1233 32.6189 20.3711 31.3789 20.3711 30.2749C20.3711 28.771 20.011 27.4828 19.283 26.3868C18.563 25.2991 17.5471 24.7548 16.2431 24.7548C14.9071 24.8508 13.8353 25.3871 13.0271 26.363C12.2191 27.3469 11.803 28.6829 11.7791 30.3709C11.8113 30.6272 11.8271 31.0111 11.8271 31.5149H10.4351C10.4351 28.6511 11.0513 26.2829 12.283 24.4189C13.5071 22.5552 15.395 21.5788 17.9231 21.4908C19.043 21.4908 20.051 21.763 20.931 22.2989C21.8033 22.8349 22.499 23.5949 23.0029 24.5629C23.507 25.5391 23.7791 26.6431 23.8271 27.8749C23.8271 29.291 23.603 30.6109 23.1631 31.835C22.7231 33.0667 22.131 34.2187 21.395 35.3068C20.6592 36.403 19.811 37.4908 18.8431 38.5789C17.8831 39.667 16.9553 40.723 16.0591 41.7469Z" fill="#1A1A18"/>
<path fill-rule="evenodd" clip-rule="evenodd" d="M40.2417 17.0685L37.0179 28.5008L26.4019 27.9217L35.4788 34.7642L31.6882 45.4829L40.5221 38.2796L48.7952 45.4829L45.1781 34.1886L54.0816 27.9217L43.0121 28.1452L40.2417 17.0685Z" fill="#D9DADA"/>
<path d="M40.2417 17.0685L37.0179 28.5008L26.4019 27.9217L35.4788 34.7642L31.6882 45.4829L40.5221 38.2796L48.7952 45.4829L45.1781 34.1886L54.0816 27.9217L43.0121 28.1452L40.2417 17.0685Z" stroke="#1A1A18" stroke-width="0.288" stroke-miterlimit="22.9256"/>
<path d="M61.1274 52.0295L60.9033 51.3896C61.7725 50.2882 62.586 49.1521 63.3407 47.9789C64.0951 46.8081 64.8287 45.5601 65.5435 44.2375L66.7593 44.4269L66.4365 50.9255L68.6952 50.7655L68.3433 51.6481L66.3432 51.6803L66.1992 54.5894L64.9992 55.3093C65.1484 54.1975 65.2233 53.0053 65.2233 51.7415H64.5033C63.6018 51.7415 62.474 51.8375 61.1274 52.0295ZM65.5113 45.5816L61.9725 50.9255H65.2233L65.5113 45.5816Z" fill="#1A1A18"/>
<path d="M3.48506 51.4565L3.30932 50.8646L4.92772 49.5528C5.72786 48.9098 6.12772 48.1313 6.12772 47.2166C6.12772 46.8806 6.00783 46.5794 5.7705 46.3099C5.5305 46.0407 5.25052 45.9047 4.92772 45.9047H4.86116C4.47716 45.9179 4.16797 46.0888 3.9333 46.4196C3.7013 46.7498 3.53572 47.0994 3.44506 47.4645C3.35466 47.8274 3.30932 48.0648 3.30932 48.174L2.8293 47.7767C2.8293 47.6966 2.9385 47.4032 3.15437 46.8964C3.37317 46.3874 3.65852 45.9233 4.01305 45.4991C4.36532 45.0755 4.76782 44.8646 5.21569 44.8646C5.57849 44.8646 5.89862 44.9501 6.18102 45.1178C6.46102 45.2861 6.68519 45.5154 6.85306 45.8061C7.01853 46.0994 7.11719 46.4196 7.14932 46.7688C7.14932 47.2034 7.01852 47.6381 6.75972 48.0779C6.49852 48.5153 6.2105 48.8966 5.89863 49.2246C5.58383 49.5501 5.41039 49.7126 5.37332 49.7126C5.40506 49.7099 5.45837 49.7021 5.53584 49.6941C5.61064 49.6861 5.70102 49.6831 5.80529 49.6831C6.23729 49.6831 6.62129 49.8113 6.95169 50.0701C7.28236 50.3261 7.45583 50.8113 7.46903 51.5234C7.46903 52.2966 7.2665 53.0193 6.85863 53.6886C6.45317 54.3554 5.91452 54.8861 5.24519 55.2806C4.57586 55.6752 3.87704 55.8724 3.14904 55.8724C2.91704 55.8724 2.71171 55.8566 2.53865 55.8245C2.36251 55.7928 2.28237 55.7738 2.3013 55.7738V55.1846C2.5197 55.3233 2.82397 55.3925 3.21597 55.3925C3.67171 55.3925 4.1333 55.2701 4.59704 55.0221C5.06117 54.7738 5.44519 54.4139 5.74905 53.9419C6.05332 53.4698 6.20519 52.9128 6.20519 52.2725C6.20519 51.8166 6.13036 51.4511 5.98103 51.1794C5.83436 50.9046 5.50369 50.7474 4.98929 50.7047C4.77316 50.7047 4.55196 50.7606 4.32783 50.8699C4.10116 50.9791 3.90386 51.0993 3.73599 51.2301C3.56786 51.3605 3.48506 51.4353 3.48506 51.4565Z" fill="#1A1A18"/>
<path fill-rule="evenodd" clip-rule="evenodd" d="M12.1488 46.2963C13.2671 46.2963 14.1739 47.3077 14.1739 48.5549C14.1739 49.8026 13.2671 50.8135 12.1488 50.8135C11.0304 50.8135 10.1238 49.8026 10.1238 48.5549C10.1238 47.3077 11.0304 46.2963 12.1488 46.2963Z" fill="#1A1A18"/>
<path d="M12.1488 46.2963C13.2671 46.2963 14.1739 47.3077 14.1739 48.5549C14.1739 49.8026 13.2671 50.8135 12.1488 50.8135C11.0304 50.8135 10.1238 49.8026 10.1238 48.5549C10.1238 47.3077 11.0304 46.2963 12.1488 46.2963Z" stroke="#1A1A18" stroke-width="0.288" stroke-miterlimit="22.9256"/>
<path fill-rule="evenodd" clip-rule="evenodd" d="M12.2266 54.5524H8.09863C8.09863 52.4017 9.94674 50.6578 12.2266 50.6578C14.5063 50.6578 16.3546 52.4017 16.3546 54.5524H12.2266Z" fill="#1A1A18"/>
<path d="M12.2266 54.5524H8.09863C8.09863 52.4017 9.94674 50.6578 12.2266 50.6578C14.5063 50.6578 16.3546 52.4017 16.3546 54.5524H12.2266Z" stroke="#1A1A18" stroke-width="0.288" stroke-miterlimit="22.9256"/>
</g>
<defs>
<clipPath id="clip0_2_22765">
<rect width="1122.52" height="1587.4" fill="white" transform="translate(-472 -830)"/>
</clipPath>
</defs>
</svg>
