<svg width="116" height="58" viewBox="0 0 116 58" fill="none" xmlns="http://www.w3.org/2000/svg">
<g clip-path="url(#clip0_2_22765)">
<path d="M10.6214 41.9864L12.0542 41.8549V42.6017C10.9661 42.5201 9.87837 42.4773 8.78691 42.4773C7.49957 42.4773 6.31918 42.5341 5.24878 42.6478V41.816H6.50745C7.05505 41.816 7.41784 41.6916 7.5921 41.4392C7.76637 41.1901 7.85144 40.7742 7.85144 40.1945V33.7308V32.7281C7.85144 31.4407 7.65263 30.7226 7.25423 30.5733C7.02677 30.463 6.66385 30.4062 6.16278 30.4062H5.24878V29.6132C6.38305 29.6738 7.85517 29.7305 9.66144 29.7838C11.4745 29.7342 12.9572 29.6771 14.102 29.6132L14.1236 32.5572L13.3766 32.6L13.334 31.8141C13.295 31.0141 12.7546 30.6161 11.7092 30.6161H9.29865V35.6081L12.1786 35.5653C12.5199 35.5404 12.7796 35.4621 12.95 35.3341C13.1174 35.2025 13.2025 34.975 13.2025 34.6481V34.0721H13.9316C13.9316 34.5661 13.9172 34.95 13.8888 35.2202C13.9493 36.5536 14.006 37.5281 14.0597 38.1468H13.2452V37.1474C13.2452 36.6462 12.9182 36.3972 12.2674 36.3972L9.34465 36.3545V39.8105C9.34465 40.3154 9.44065 40.8026 9.63265 41.2754C9.82132 41.7482 10.152 41.9864 10.6214 41.9864Z" fill="#1A1A18"/>
<path d="M18.6035 35.7822C18.696 35.7929 18.8381 35.8072 19.0268 35.8212C19.2116 35.8356 19.3503 35.8496 19.4357 35.864C20.0649 35.8496 20.6127 35.743 21.0817 35.5403C21.5511 35.3411 21.9139 35.0498 22.1664 34.673C22.4223 34.2923 22.5504 33.8444 22.5504 33.329C22.5504 32.9944 22.4684 32.6142 22.3013 32.1875C22.1343 31.7609 21.8463 31.3841 21.4411 31.0605C21.0356 30.737 20.5023 30.5733 19.8447 30.5733C19.6809 30.5733 19.4251 30.5804 19.0835 30.5944C18.7388 30.6088 18.5789 30.6161 18.6035 30.6161V35.7822ZM20.1821 36.44H18.5611V40.0664C18.5611 40.6424 18.6711 41.0801 18.888 41.3786C19.1049 41.6772 19.5068 41.837 20.0971 41.8586H20.8436V42.6905C19.7093 42.5767 18.8525 42.5201 18.2659 42.5201C17.9496 42.5201 17.5973 42.5306 17.2133 42.5555C16.8259 42.5767 16.3599 42.6122 15.8127 42.6583C15.2684 42.7049 14.9592 42.7298 14.8916 42.7331V41.9901H16.0897C16.4669 41.9901 16.7299 41.8549 16.872 41.5918C17.0179 41.3253 17.0889 40.9021 17.0889 40.3226V39.8531V33.6026C17.0889 31.9671 16.9253 31.0001 16.5984 30.7049C16.5129 30.5877 16.2999 30.5306 15.9581 30.5306H15.0408V29.7414C15.3504 29.777 15.6561 29.798 15.9581 29.8087C16.2605 29.8196 16.5768 29.8302 16.9041 29.8337C17.2311 29.8409 17.4941 29.8442 17.6861 29.8481C18.6533 29.8481 19.4429 29.8125 20.0579 29.7414C20.2819 29.7127 20.4668 29.6988 20.6088 29.6988C21.2099 29.6988 21.7715 29.8337 22.2941 30.1005C22.8168 30.3707 23.2329 30.7438 23.5388 31.2203C23.8479 31.7003 24.0009 32.2302 24.0009 32.8134C24.0009 33.5493 23.8229 34.1858 23.4711 34.7262C23.1192 35.2667 22.6037 35.6719 21.9317 35.9455C23.3895 38.886 25.2384 41.5385 27.4819 43.9064L26.8383 44.2692C26.184 43.7393 25.5332 43.1383 24.8899 42.4663C24.2497 41.7981 23.6276 41.0906 23.0304 40.351C22.4295 39.6113 21.9173 38.9432 21.4907 38.3456C21.0605 37.7484 20.6267 37.112 20.1821 36.44Z" fill="#1A1A18"/>
<path d="M27.3894 30.4879V29.6987C28.6945 29.7731 30.195 29.8231 31.8874 29.8481C33.5905 29.8231 35.1049 29.7731 36.435 29.6987L36.5842 32.6426L35.8339 32.6852L35.7519 31.8923C35.713 31.4373 35.5531 31.121 35.2719 30.9539C34.9911 30.7865 34.611 30.7013 34.1271 30.7013H31.3398V35.693L34.515 35.6081C34.8702 35.5793 35.137 35.5153 35.3147 35.416C35.4927 35.3128 35.5815 35.0887 35.5815 34.733V34.1536H36.3034C36.3034 34.7368 36.289 35.1952 36.2607 35.526C36.3102 36.472 36.3529 37.2755 36.3922 37.9331H35.6205V37.1867C35.6205 36.6923 35.2969 36.4432 34.6427 36.4432L31.4214 36.3544V39.8142C31.4214 40.2406 31.4501 40.5857 31.5034 40.8525C31.5601 41.119 31.6882 41.3324 31.8837 41.4923C32.0829 41.6521 32.3742 41.7305 32.7654 41.7305H34.9594C35.6775 41.7305 36.1609 41.4885 36.4171 41.0085C36.6693 40.5285 36.8118 39.9491 36.8401 39.2771H37.6259L37.2207 42.7331C35.2009 42.6193 33.7005 42.5623 32.7193 42.5623C31.1583 42.5623 29.3805 42.6337 27.3894 42.7759V41.944H28.6269C29.1707 41.944 29.5335 41.8159 29.7078 41.5562C29.8819 41.2966 29.9709 40.8881 29.9709 40.3226V33.8158C29.9709 32.959 29.9353 32.2658 29.8677 31.7397C29.7966 31.2131 29.6329 30.854 29.3737 30.6587C29.281 30.545 28.9541 30.4879 28.3921 30.4879H27.3894Z" fill="#1A1A18"/>
<path d="M38.4009 30.4879V29.6987C39.7059 29.7731 41.2065 29.8231 42.8989 29.8481C44.602 29.8231 46.1165 29.7731 47.4465 29.6987L47.5958 32.6426L46.8456 32.6852L46.7635 31.8923C46.7246 31.4373 46.5647 31.121 46.2835 30.9539C46.0027 30.7865 45.6225 30.7013 45.1388 30.7013H42.3513V35.693L45.5265 35.6081C45.8818 35.5793 46.1486 35.5153 46.3262 35.416C46.5042 35.3128 46.593 35.0887 46.593 34.733V34.1536H47.3149C47.3149 34.7368 47.3006 35.1952 47.2722 35.526C47.3218 36.472 47.3645 37.2755 47.4038 37.9331H46.632V37.1867C46.632 36.6923 46.3085 36.4432 45.6542 36.4432L42.4329 36.3544V39.8142C42.4329 40.2406 42.4617 40.5857 42.5149 40.8525C42.5717 41.119 42.6998 41.3324 42.8952 41.4923C43.0944 41.6521 43.3858 41.7305 43.7769 41.7305H45.9709C46.689 41.7305 47.1725 41.4885 47.4288 41.0085C47.6808 40.5285 47.8233 39.9491 47.8517 39.2771H48.6374L48.2322 42.7331C46.2125 42.6193 44.712 42.5623 43.7309 42.5623C42.1698 42.5623 40.3919 42.6337 38.4009 42.7759V41.944H39.6383C40.1822 41.944 40.545 41.8159 40.7193 41.5562C40.8935 41.2966 40.9824 40.8881 40.9824 40.3226V33.8158C40.9824 32.959 40.9469 32.2658 40.8792 31.7397C40.8081 31.2131 40.6445 30.854 40.3852 30.6587C40.2926 30.545 39.9657 30.4879 39.4037 30.4879H38.4009Z" fill="#1A1A18"/>
<path d="M87 3C101.359 3 113 14.6407 113 29C113 43.3594 101.359 55 87 55C72.6406 55 61 43.3594 61 29C61 14.6407 72.6406 3 87 3Z" stroke="#1A1A18" stroke-width="2.6664" stroke-miterlimit="22.9256" stroke-dasharray="13.33 13.33"/>
<path d="M87.1211 14L93.6815 17.5786L100.242 21.1569L93.6814 25.2358L87.1814 28.7358L80.5605 24.7358L74 21L80.5605 17.5786L87.1211 14Z" fill="#D9DADA" stroke="#1A1A18" stroke-width="0.288" stroke-miterlimit="22.9256"/>
<path d="M74.5404 35.6996L74.3606 28.468L74.1814 21.2358L80.6814 24.7358L87.1812 28.7358V35.7358V43.2358L80.8609 39.4677L74.5404 35.6996Z" fill="#D9DADA" stroke="#1A1A18" stroke-width="0.288" stroke-miterlimit="22.9256"/>
<path d="M87.1814 28.7358L93.8609 25.0039L100.181 21.2358L100.002 28.4681L99.8224 35.7001L93.5019 39.4677L87.1814 43.2358V36.2358V28.7358Z" fill="#D9DADA" stroke="#1A1A18" stroke-width="0.288" stroke-miterlimit="22.9256"/>
</g>
<defs>
<clipPath id="clip0_2_22765">
<rect width="1122.52" height="1587.4" fill="white" transform="translate(-250 -330)"/>
</clipPath>
</defs>
</svg>
