<svg width="96" height="48" viewBox="0 0 96 48" fill="none" xmlns="http://www.w3.org/2000/svg">
<path fill-rule="evenodd" clip-rule="evenodd" d="M-0.29541 0.0244126H95.7046V48.0244H-0.29541V0.0244126Z" fill="#AE9675"/>
<path d="M-0.29541 0.0244126H95.7046V48.0244H-0.29541V0.0244126Z" stroke="#1A1A18" stroke-width="0.288" stroke-miterlimit="22.9256"/>
<path d="M8.02295 19.6903V19.0029C8.29055 19.0278 9.10878 19.0682 10.4684 19.1302C11.7939 19.0742 12.6181 19.0338 12.9481 19.0029V19.7277H12.1793C11.7813 19.7277 11.5043 19.849 11.3551 20.0886C11.2057 20.328 11.1219 20.6829 11.0999 21.1496C11.1248 21.1992 11.1373 21.2709 11.1373 21.3733V27.0449C11.1373 27.8318 11.1963 28.4728 11.3145 28.9706C11.4329 29.4653 11.722 29.7139 12.1793 29.7139H13.06V30.3674C12.3226 30.2681 11.4828 30.2182 10.5401 30.2182C9.60052 30.2182 8.76042 30.2681 8.02295 30.3674V29.6735H8.86015C9.51975 29.6735 9.8492 29.2131 9.8492 28.2925V22.0982C9.8492 21.4108 9.82428 20.8506 9.77148 20.4213C9.72188 19.9924 9.59106 19.7617 9.38586 19.7277C9.28306 19.7028 9.06838 19.6903 8.73238 19.6903H8.02295Z" fill="white"/>
<path d="M19.8358 30.666L19.5404 30.4388C19.9726 28.8647 20.2153 26.326 20.2652 22.8261C19.4001 23.8531 18.812 24.562 18.5009 24.9574C18.1869 25.3494 17.8569 25.8252 17.5087 26.3883C17.1603 26.9484 16.8678 27.5581 16.6282 28.2207C16.3855 28.8801 16.2177 29.6084 16.121 30.4048H14.9826L15.4274 22.4871L13.9746 22.8261V22.0952C15.0945 22.0952 16.1025 21.8056 16.9952 21.2209L16.3636 27.1536C16.7496 26.4288 17.1509 25.7597 17.5648 25.1441C17.9817 24.5311 18.4356 23.9305 18.9273 23.3428C19.4156 22.7547 19.9882 22.1171 20.6382 21.4261H21.6617L21.2169 29.3409L22.5609 29.1727V29.8232C21.6307 29.8572 20.7225 30.1372 19.8358 30.666Z" fill="white"/>
<path d="M24.0207 35.6499L24.786 22.0607L23.2368 22.1385V21.3702H24.0765C24.4189 21.3702 24.6397 21.2674 24.7331 21.0651C24.8295 20.8599 24.8794 20.5457 24.8794 20.1164C24.8794 18.9747 24.9134 18.0196 24.9882 17.2541C25.0631 16.4888 25.2528 15.7579 25.5514 15.0579C26.1924 13.5802 26.9887 12.8398 27.9408 12.8398C27.9933 12.8398 28.0556 12.8427 28.1271 12.8488C28.2019 12.8552 28.2643 12.8583 28.3137 12.8583V14.37H27.5484C27.4955 14.37 27.4585 14.342 27.4396 14.2892C27.4211 14.2367 27.4085 14.1588 27.3992 14.0529C27.3901 13.9471 27.3741 13.8663 27.3496 13.8039C27.3277 13.7419 27.2808 13.7044 27.2124 13.6951C26.7895 13.6951 26.5468 14.2332 26.4879 15.3036L26.2044 21.3327H28.3512V22.098L26.13 22.0607L24.9537 35.4072L24.0207 35.6499Z" fill="white"/>
<path d="M30.3296 22.565L28.7056 22.8606V22.1915C29.418 22.1107 30.482 21.8371 31.8975 21.3703L31.2473 30.4018L29.8224 30.7034C30.1615 28.6814 30.3296 26.4163 30.3296 23.909V22.565ZM30.0496 18.0072C30.0496 17.6898 30.1429 17.3977 30.3232 17.1361C30.5069 16.8715 30.7465 16.7411 31.0421 16.7411C31.3252 16.7411 31.5773 16.853 31.7949 17.0802C32.0127 17.3073 32.1215 17.5685 32.1215 17.861C32.1215 18.1815 32.0157 18.4646 31.8075 18.7102C31.5957 18.9559 31.3406 19.0836 31.0421 19.0931C31.0421 19.0867 31.0357 19.0836 31.0265 19.0806C31.0172 19.0772 31.0106 19.0742 31.0046 19.0742C30.7525 19.0742 30.5349 18.9654 30.3512 18.7476C30.1709 18.533 30.0681 18.2843 30.0496 18.0072Z" fill="white"/>
<path d="M33.5587 18.085L33.3005 17.5996L35.0549 16.741C35.6211 17.1983 36.1563 17.6991 36.6571 18.2373C37.1548 18.7786 37.6092 19.3851 38.0136 20.0666C38.418 20.7446 38.7415 21.5101 38.9841 22.3657C39.2237 23.2179 39.3451 24.1485 39.3451 25.1565C39.3451 26.6713 39.0775 27.8475 38.5423 28.6843C38.4304 28.8835 38.1877 29.1291 37.8113 29.4247C37.4319 29.7203 36.9931 29.9784 36.4892 30.1931C35.9851 30.4078 35.4812 30.5166 34.9771 30.5166C34.5197 30.5166 34.1434 30.3549 33.8447 30.0283C33.5492 29.7047 33.3314 29.2659 33.1977 28.7153C33.0638 28.1615 32.9985 27.555 32.9985 26.8954C33.0109 26.1395 33.1387 25.3678 33.3875 24.5775C33.6331 23.7906 33.9565 23.1091 34.358 22.5369C34.7593 21.9673 35.1827 21.6067 35.6336 21.4635C35.6305 21.4635 35.7239 21.4231 35.9167 21.3422C36.1064 21.2613 36.2557 21.2209 36.3585 21.2209C36.4953 21.2209 36.5826 21.2583 36.623 21.3358C36.623 21.3453 36.6291 21.3641 36.6416 21.3981C36.654 21.4325 36.6571 21.4666 36.6571 21.4975C36.6571 21.5785 36.6196 21.6473 36.5388 21.7031C36.4614 21.7621 36.34 21.8214 36.1812 21.8803C36.0195 21.9427 35.8981 21.9893 35.8203 22.0237C35.5871 22.123 35.36 22.4186 35.1388 22.9069C34.9181 23.3957 34.7408 23.9803 34.604 24.6553C34.4668 25.3338 34.3984 25.9743 34.3984 26.5779C34.3984 27.4522 34.5012 28.1771 34.7035 28.7622C34.9087 29.3438 35.304 29.661 35.8917 29.7138C37.2856 29.7138 38.0136 28.2519 38.0758 25.3273C38.0758 24.4875 37.9421 23.6349 37.6745 22.7671C37.4069 21.8989 37.0615 21.1121 36.6321 20.3995C36.2061 19.6902 35.7455 19.121 35.2542 18.6917C34.7594 18.2622 34.302 18.0506 33.8791 18.0506C33.7389 18.0506 33.6331 18.0601 33.5587 18.085Z" fill="white"/>
<path d="M45.6359 27.1535L46.2146 27.2314C46.2146 27.4895 46.1367 27.869 45.9843 28.3669C45.8287 28.8677 45.5146 29.3438 45.0354 29.7981C44.5564 30.2521 43.878 30.4792 43.0008 30.4792C42.3661 30.4792 41.8435 30.3145 41.4331 29.9814C41.0222 29.6518 40.7236 29.2101 40.5369 28.6533C40.3501 28.0993 40.2568 27.4835 40.2568 26.8021C40.2943 26.0866 40.3722 25.4146 40.4935 24.7891C40.6148 24.167 40.8046 23.5854 41.0566 23.0471C41.3118 22.5055 41.6478 22.0731 42.0676 21.7435C42.4846 21.4137 42.9883 21.2394 43.5795 21.2209C44.0927 21.2209 44.5065 21.3237 44.824 21.5319C45.1381 21.7406 45.3652 22.0237 45.502 22.3782C45.639 22.7327 45.7074 23.1371 45.7074 23.5914C45.7074 23.9803 45.6328 24.4999 45.4836 25.1565C44.2608 25.5639 42.9698 25.847 41.6163 25.9993C41.6103 25.9993 41.5854 26.217 41.545 26.6529C41.6163 28.563 42.2699 29.5461 43.505 29.6019C43.8844 29.6019 44.239 29.4962 44.569 29.2815C44.8955 29.0667 45.1567 28.7807 45.3467 28.4262C45.5395 28.0713 45.6359 27.6982 45.6359 27.3059V27.1535ZM41.6912 25.3991L43.3368 25.1565C43.7258 25.0817 44.0307 24.8825 44.2454 24.559C44.46 24.2385 44.569 23.8654 44.569 23.4391C44.569 22.9569 44.5096 22.5494 44.3883 22.2194C44.2703 21.8898 43.9994 21.7247 43.5795 21.7247C42.9543 21.7406 42.4846 22.1695 42.1735 23.0158C41.859 23.859 41.6882 24.6243 41.6538 25.3089C41.6692 25.3273 41.6787 25.3493 41.6847 25.3647C41.6882 25.3802 41.6912 25.3927 41.6912 25.3991Z" fill="white"/>
<path d="M49.1608 29.6019L50.8781 29.2659V30.0657C49.7428 30.1062 48.66 30.3299 47.6304 30.7407C47.6738 30.1557 47.7049 29.577 47.7268 29.0014C47.7484 28.4262 47.7733 27.6174 47.8046 26.5719C47.8386 25.5295 47.8731 24.6462 47.9071 23.9243C47.9445 23.2024 47.9944 22.4965 48.0594 21.7995C48.1497 20.8663 48.2401 20.0481 48.324 19.3481C48.4113 18.6447 48.5047 17.9822 48.6071 17.3506C48.7099 16.7221 48.8312 16.0595 48.968 15.3626C49.1048 14.6657 49.276 13.8692 49.4813 12.9735H51.5317V13.5273C51.4722 13.5677 51.3699 13.6422 51.2236 13.7545C51.0773 13.8663 50.9001 14.1245 50.6914 14.5322C50.4862 14.9427 50.281 15.5649 50.0788 16.405C49.9325 17.0086 49.8048 17.9542 49.6929 19.2423C49.581 20.5303 49.4877 21.9489 49.4068 23.495C49.3289 25.0413 49.2665 26.4131 49.2261 27.6139C49.1826 28.8117 49.1608 29.4746 49.1608 29.6019Z" fill="white"/>
<path d="M65.9637 24.9354H59.5053V27.0448C59.5053 27.8006 59.5737 28.4417 59.7135 28.9644C59.8503 29.4901 60.174 29.7513 60.6812 29.7513H61.4838V30.4048C60.6781 30.3051 59.8133 30.2555 58.8893 30.2555C57.9901 30.2555 57.1343 30.3051 56.3286 30.4048V29.7138H57.2093C57.8937 29.7138 58.2357 29.2536 58.2357 28.3329V22.1356C58.2357 20.6142 58.0679 19.821 57.735 19.7616C57.6106 19.737 57.3959 19.7246 57.0974 19.7246H56.3286V18.9997C57.2433 19.099 58.071 19.1674 58.8143 19.2049C59.6202 19.1674 60.4603 19.099 61.3311 18.9997V19.7246H60.6033C60.2457 19.7246 60.003 19.7616 59.8783 19.8394C59.701 19.9268 59.5891 20.101 59.5423 20.3592C59.4927 20.6204 59.4678 20.9688 59.4678 21.4046V24.0582H65.9637V22.0952C65.9637 20.5708 65.8081 19.7805 65.4999 19.7276C65.3757 19.7026 65.161 19.6902 64.8594 19.6902H64.094V18.9622C64.5449 19.0182 65.4225 19.0741 66.7291 19.1301C67.9238 19.0741 68.7262 19.0182 69.137 18.9622V19.6902H68.4465C68.1415 19.6902 67.8989 19.7401 67.7182 19.8425C67.5724 19.9109 67.4725 20.0327 67.4226 20.2035C67.3697 20.3747 67.3327 20.6142 67.3077 20.9224C67.3327 21.0217 67.3451 21.171 67.3451 21.3732V27.0073C67.3451 27.5551 67.3606 28.0093 67.3946 28.3733C67.429 28.7342 67.5159 29.0484 67.6622 29.3158C67.8055 29.5801 68.0297 29.7138 68.3342 29.7138H69.2149V30.3673C68.1105 30.268 67.2953 30.2181 66.7665 30.2181C66.2219 30.2181 65.3197 30.268 64.0597 30.3673V29.6734H64.9742C65.3477 29.6734 65.6058 29.5556 65.749 29.3189C65.8924 29.0857 65.9637 28.7433 65.9637 28.2924V24.9354Z" fill="white"/>
<path d="M70.0703 27.5271C70.0858 26.3698 70.2071 25.3399 70.4407 24.4347C70.6708 23.5295 71.1092 22.7796 71.7534 22.1855C72.3974 21.591 73.2995 21.2834 74.4602 21.2585C74.9206 21.2585 75.3001 21.4451 75.5926 21.8215C75.8882 22.1946 76.1029 22.6674 76.2333 23.237C76.3639 23.8031 76.4389 24.3943 76.4543 25.007C76.4543 26.0309 76.3266 26.9546 76.0749 27.7852C75.8198 28.616 75.3994 29.2846 74.8147 29.7918C74.2297 30.299 73.4647 30.5542 72.5187 30.5542H72.1642C71.6914 30.4982 71.3055 30.3859 71.0069 30.2118C70.7083 30.0409 70.4778 29.7423 70.313 29.3221C70.1511 28.9022 70.0703 28.3015 70.0703 27.5271ZM71.5076 26.687C71.5076 27.297 71.5386 27.8196 71.601 28.2611C71.6634 28.6999 71.8127 29.0825 72.0489 29.4063C72.2855 29.7265 72.643 29.9041 73.1162 29.9381C73.8471 29.9381 74.3699 29.5336 74.681 28.7279C74.9921 27.922 75.1478 26.9484 75.1478 25.8127V25.5486C75.1478 24.587 74.9984 23.7408 74.7028 23.0098C74.4072 22.2788 73.9221 21.9115 73.2437 21.9115C72.8267 21.9334 72.4907 22.2195 72.2357 22.7732C71.9805 23.327 71.8002 23.965 71.6943 24.6929C71.5886 25.4178 71.5262 26.0834 71.5076 26.687Z" fill="white"/>
<path d="M78.0065 28.1835C78.0065 28.544 78.0813 28.8586 78.2275 29.1353C78.3769 29.4093 78.579 29.6205 78.8342 29.7667C79.0893 29.913 79.3659 29.9878 79.6645 29.9939C80.1502 29.9939 80.5637 29.8541 80.9061 29.571C81.2482 29.2909 81.4194 28.9021 81.4194 28.4073C81.4194 28.0153 81.3259 27.6949 81.1423 27.4397C80.959 27.1846 80.679 26.9234 80.2995 26.6529L79.3099 25.9248C78.5881 25.3338 78.2117 24.6243 78.1746 23.7966C78.1746 23.0721 78.3769 22.4839 78.7842 22.0237C79.1917 21.5663 79.7893 21.3113 80.5791 21.2583C80.8063 21.2583 81.0739 21.2923 81.3819 21.3607C81.693 21.4291 81.8423 21.4635 81.8298 21.4635V23.4391H81.2701V22.9383C81.2701 22.6302 81.1922 22.3562 81.0429 22.1201C80.8937 21.8803 80.682 21.762 80.4114 21.762C80.1158 21.762 79.8577 21.9054 79.6366 22.1945C79.4189 22.481 79.3099 22.7701 79.3099 23.0657C79.3505 23.803 79.7364 24.4406 80.4673 24.9698L81.3105 25.5485C82.1069 26.0957 82.5237 26.7926 82.5581 27.6419C82.5581 28.0153 82.4429 28.4262 82.2127 28.8741C81.9855 29.3219 81.6495 29.7014 81.2107 30.0129C80.7723 30.3238 80.2557 30.4792 79.6645 30.4792H79.6275C79.0549 30.4792 78.5635 30.4017 78.1497 30.2461C77.7389 30.0937 77.4527 29.9629 77.2939 29.8601L77.5181 27.0447L78.0967 27.1193C78.0873 27.1317 78.0749 27.2563 78.0564 27.4866C78.0409 27.7167 78.0254 27.9499 78.0065 28.1835Z" fill="white"/>
<path d="M84.661 22.173L83.4478 22.2288V21.426L84.7388 21.4635L84.8478 19.6527L86.2696 19.3167L86.0455 21.4635L88.0271 21.426L87.9896 22.1914L85.8587 22.173C85.8243 22.2504 85.7654 24.0238 85.6906 27.4895C85.6906 28.0372 85.7064 28.454 85.7344 28.7402C85.7624 29.0232 85.8401 29.2564 85.9676 29.4307C86.0984 29.6083 86.3006 29.7013 86.5836 29.7137C86.6022 29.6952 86.6176 29.6828 86.6335 29.6798C86.646 29.6768 86.6551 29.6733 86.6615 29.6733C87.0908 29.6329 87.4424 29.4277 87.713 29.0607C87.9836 28.6903 88.1174 28.1925 88.1174 27.5673H88.6431C88.6431 28.1336 88.5343 28.6344 88.3226 29.0732C88.111 29.5116 87.8094 29.8476 87.4235 30.0872C87.0379 30.3238 86.5898 30.4421 86.0828 30.4421C85.6751 30.4421 85.3175 30.3798 85.0095 30.252C84.7015 30.1247 84.4868 30.0219 84.3624 29.9379C84.353 29.7358 84.3406 29.4342 84.328 29.0388C84.3156 28.6438 84.3031 28.3483 84.2906 28.146C84.3186 26.861 84.4399 24.87 84.661 22.173Z" fill="white"/>
</svg>
