<svg width="96" height="48" viewBox="0 0 96 48" fill="none" xmlns="http://www.w3.org/2000/svg">
<path d="M0.409668 -0.0393081H96.4097V47.9607H0.409668V-0.0393081Z" stroke="#1A1A18" stroke-width="0.288" stroke-miterlimit="22.9256"/>
<path fill-rule="evenodd" clip-rule="evenodd" d="M15.0449 23.6956C15.0449 24.6466 15.3923 26.9688 17.1842 26.9688C18.2632 26.9688 18.4276 25.8901 18.4276 25.8901H28.4298V21.7942H18.4276C18.4276 21.7942 17.8973 20.5326 17.1293 20.5326C15.8858 20.5326 15.0449 22.0867 15.0449 23.6956Z" fill="white"/>
<path d="M15.0449 23.6956C15.0449 24.6466 15.3923 26.9688 17.1842 26.9688C18.2632 26.9688 18.4276 25.8901 18.4276 25.8901H28.4298V21.7942H18.4276C18.4276 21.7942 17.8973 20.5326 17.1293 20.5326C15.8858 20.5326 15.0449 22.0867 15.0449 23.6956Z" stroke="#1A1A18" stroke-width="1.248" stroke-miterlimit="22.9256"/>
<path fill-rule="evenodd" clip-rule="evenodd" d="M18.9949 23.6958C18.9949 25.4514 18.1354 26.896 17.0749 26.896C15.9958 26.896 15.1367 25.4514 15.1367 23.6958C15.1367 21.9221 15.9958 20.4961 17.0749 20.4961C18.1354 20.4961 18.9949 21.9221 18.9949 23.6958Z" fill="white"/>
<path d="M18.9949 23.6958C18.9949 25.4514 18.1354 26.896 17.0749 26.896C15.9958 26.896 15.1367 25.4514 15.1367 23.6958C15.1367 21.9221 15.9958 20.4961 17.0749 20.4961C18.1354 20.4961 18.9949 21.9221 18.9949 23.6958Z" stroke="#1A1A18" stroke-width="1.248" stroke-miterlimit="22.9256"/>
<path d="M18.9761 25.8901L20.8779 21.7943" stroke="#1A1A18" stroke-width="1.248" stroke-miterlimit="22.9256"/>
<path d="M20.5854 25.8901L22.4869 21.7943" stroke="#1A1A18" stroke-width="1.248" stroke-miterlimit="22.9256"/>
<path d="M22.0117 25.8901L23.9132 21.7943" stroke="#1A1A18" stroke-width="1.248" stroke-miterlimit="22.9256"/>
<path d="M23.4927 25.8901L25.3945 21.7943" stroke="#1A1A18" stroke-width="1.248" stroke-miterlimit="22.9256"/>
<path d="M24.9741 25.8901L26.876 21.7943" stroke="#1A1A18" stroke-width="1.248" stroke-miterlimit="22.9256"/>
<path d="M26.5835 25.8901L28.4849 21.7943" stroke="#1A1A18" stroke-width="1.248" stroke-miterlimit="22.9256"/>
<path d="M18.9033 22.8547L19.4517 21.7942" stroke="#1A1A18" stroke-width="1.248" stroke-miterlimit="22.9256"/>
<path d="M18.519 25.7439H28.4298" stroke="#1A1A18" stroke-width="1.248" stroke-miterlimit="22.9256"/>
<path fill-rule="evenodd" clip-rule="evenodd" d="M28.4668 24.1163L28.4302 21.9586C28.4302 21.9586 28.613 19.472 28.9604 18.2834C29.3262 17.0947 29.9113 14.8274 31.4106 14.8274C32.4712 14.8274 33.7328 15.0103 33.7328 16.3815C33.7328 17.625 32.8919 17.5702 32.4164 17.625C31.941 17.6798 31.7032 17.5702 31.7032 17.5702C31.7032 17.5702 31.2277 17.8079 31.2277 19.2891C31.2277 20.2397 31.1729 24.1163 31.1729 24.1163C31.1729 24.1163 31.2277 28.0845 31.2277 29.0535C31.2277 30.5343 31.7032 30.7721 31.7032 30.7721C31.7032 30.7721 31.941 30.6444 32.4164 30.7173C32.8919 30.7721 33.7328 30.7172 33.7328 31.9607C33.7328 33.3323 32.4712 33.5149 31.4106 33.5149C29.9113 33.5149 29.3262 31.2475 28.9604 30.0592C28.613 28.8706 28.4302 26.3656 28.4302 26.3656L28.4668 24.1163Z" fill="white"/>
<path d="M28.4668 24.1163L28.4302 21.9586C28.4302 21.9586 28.613 19.472 28.9604 18.2834C29.3262 17.0947 29.9113 14.8274 31.4106 14.8274C32.4712 14.8274 33.7328 15.0103 33.7328 16.3815C33.7328 17.625 32.8919 17.5702 32.4164 17.625C31.941 17.6798 31.7032 17.5702 31.7032 17.5702C31.7032 17.5702 31.2277 17.8079 31.2277 19.2891C31.2277 20.2397 31.1729 24.1163 31.1729 24.1163C31.1729 24.1163 31.2277 28.0845 31.2277 29.0535C31.2277 30.5343 31.7032 30.7721 31.7032 30.7721C31.7032 30.7721 31.941 30.6444 32.4164 30.7173C32.8919 30.7721 33.7328 30.7172 33.7328 31.9607C33.7328 33.3323 32.4712 33.5149 31.4106 33.5149C29.9113 33.5149 29.3262 31.2475 28.9604 30.0592C28.613 28.8706 28.4302 26.3656 28.4302 26.3656L28.4668 24.1163Z" stroke="#1A1A18" stroke-width="1.248" stroke-miterlimit="22.9256"/>
<path fill-rule="evenodd" clip-rule="evenodd" d="M31.1729 26.3108H79.2998C79.2998 26.3108 80.6347 26.2742 81.3479 23.842C81.3479 23.842 80.7629 21.5565 79.2998 21.6113C79.2631 21.6113 31.2276 21.6113 31.2276 21.6113L31.1729 26.3108Z" fill="white"/>
<path d="M31.1729 26.3108H79.2998C79.2998 26.3108 80.6347 26.2742 81.3479 23.842C81.3479 23.842 80.7629 21.5565 79.2998 21.6113C79.2631 21.6113 31.2276 21.6113 31.2276 21.6113L31.1729 26.3108Z" stroke="#1A1A18" stroke-width="0.864" stroke-miterlimit="22.9256"/>
<path d="M33.1655 23.842H81.3477" stroke="#1A1A18" stroke-width="0.384" stroke-miterlimit="22.9256"/>
<path d="M31.2276 21.6113L33.1658 23.842L31.1729 26.3108" stroke="#1A1A18" stroke-width="1.248" stroke-miterlimit="22.9256"/>
<path d="M41.4321 17.1164L41.8162 13.8845H54.0722L54.7123 15.0097L42.6537 35.7083L41.6295 35.0684L52.0562 16.1885H43.5816C43.1391 16.1885 42.771 16.2524 42.4882 16.3858C42.2002 16.5136 41.8483 16.7589 41.4321 17.1164Z" fill="#1A1A18"/>
</svg>
